<?xml version="1.0" standalone="no"?>
<!DOCTYPE svg PUBLIC "-//W3C//DTD SVG 1.1//EN" "http://www.w3.org/Graphics/SVG/1.1/DTD/svg11.dtd" >
<svg>
<metadata>
Created by FontForge 20090914 at Sun Aug 12 10:06:28 2012
 By www-data
&#194;&#169; 2011 Sergiy S. Tkachenko / 4th february
&#194;&#169; 2011 Azoft.com
http://creativecommons.org/licenses/by-nc-nd/3.0
http://creativecommons.org/licenses/by-nc-nd/3.0/deed.ru
</metadata>
<defs>
<font id="AzoftSans-Italic" horiz-adv-x="758" >
  <font-face 
    font-family="Azoft Sans"
    font-weight="400"
    font-style="italic"
    font-stretch="normal"
    units-per-em="1000"
    panose-1="2 0 0 0 0 0 0 0 0 0"
    ascent="750"
    descent="-250"
    x-height="642"
    cap-height="642"
    bbox="-50.001 -272.002 1282.84 964"
    underline-thickness="50"
    underline-position="-50"
    unicode-range="U+0020-U+25FF"
  />
<missing-glyph horiz-adv-x="500" 
 />
    <glyph glyph-name=".notdef" horiz-adv-x="500" 
 />
    <glyph glyph-name="space" unicode=" " horiz-adv-x="500" 
 />
    <glyph glyph-name="space" unicode="&#xa0;" horiz-adv-x="500" 
 />
    <glyph glyph-name="exclam" unicode="!" horiz-adv-x="170" 
d="M88 167l23 345l20 138h85l-20 -138l-35 -172l-37 -173h-36zM44 0l10 73h78l-10 -73h-78z" />
    <glyph glyph-name="quotedbl" unicode="&#x22;" horiz-adv-x="376" 
d="M152 433c-1.33301 21.333 -2.5 41.333 -3.5 60s-1.83301 38.667 -2.5 60l14 97h77l-14 -98l-37 -119h-34zM310 433l-5 120l14 97h77l-14 -97l-39 -120h-33z" />
    <glyph glyph-name="numbersign" unicode="#" horiz-adv-x="549" 
d="M286 -11l69 194h-171l-68 -194h-52l69 194h-84l7 48h94l66 187h-134l7 48h144l34.5 97l34.5 98h50l-70 -195h173l34.5 97l34.5 98h50l-69 -195h85l-7 -48h-94l-65 -187h133l-7 -48h-144l-68 -194h-52zM439 418h-172l-67 -187h172z" />
    <glyph glyph-name="dollar" unicode="$" horiz-adv-x="624" 
d="M268 -107l14.002 97c-21.333 1.33301 -43.166 3.33301 -65.499 6s-43.833 6.16699 -64.5 10.5s-39.667 9.16602 -57 14.499s-32 11 -44 17c7.33301 10 13.833 19.333 19.5 28s12.167 17.667 19.5 27c15.333 -7.33301 40.5 -15.833 75.5 -25.5s76.5 -16.167 124.5 -19.5
l35 247c-38.667 8 -71.334 16.167 -98.001 24.5s-47.834 19 -63.501 32s-26.167 29.667 -31.5 50s-5.66602 46.166 -0.999023 77.499c4 28 13.333 52.667 28 74s33 39.166 55 53.499s46.833 25.333 74.5 33s56.5 12.167 86.5 13.5l14 98h55l-14 -98
c41.333 -1.33301 81.166 -5.16602 119.499 -11.499s68.833 -15.166 91.5 -26.499l-41 -53c-8 2.66699 -18.333 5.83398 -31 9.50098s-26.834 7.16699 -42.501 10.5s-32.5 6.33301 -50.5 9s-36 4.33398 -54 5.00098l-34 -242c30 -6 58.833 -12.5 86.5 -19.5
s51.667 -16.833 72 -29.5s36 -29.167 47 -49.5s14.5 -46.5 10.5 -78.5c-5.33301 -37.333 -15.5 -68 -30.5 -92s-34 -43 -57 -57s-49.667 -23.833 -80 -29.5s-63.5 -8.83398 -99.5 -9.50098l-14 -96h-55zM379.002 285l-34.001 -238c26.667 0 50.834 0.833008 72.501 2.5
s40.5 6.5 56.5 14.5s29.333 20.5 40 37.5s18 40.833 22 71.5c2.66699 20 2.5 35.833 -0.5 47.5s-9.33301 21 -19 28s-23.167 12.5 -40.5 16.5s-39 8.66699 -65 14zM367.001 596c-50 -2.66699 -89.002 -12.5 -117.002 -29.5s-44.667 -46.5 -50 -88.5
c-3.33301 -21.333 -4.66602 -37.666 -3.99902 -48.999s4.83398 -20.5 12.501 -27.5s19.5 -12.667 35.5 -17s38 -9.5 66 -15.5c4 -1.33301 8 -2.33301 12 -3s8.33301 -1.33398 13 -2.00098z" />
    <glyph glyph-name="percent" unicode="%" horiz-adv-x="814" 
d="M178 -24l469 685h76l-467 -685h-78zM226 328c-18 0 -34.5 2 -49.5 6s-27.5 11.833 -37.5 23.5s-17 28.5 -21 50.5s-3.33301 51 2 87c4.66699 36 12 64.833 22 86.5s21.667 38.5 35 50.5s28 19.833 44 23.5s33 5.5 51 5.5s34.5 -1.83301 49.5 -5.5s27.5 -11.5 37.5 -23.5
s16.833 -28.833 20.5 -50.5s3.16699 -50.5 -1.5 -86.5c-5.33301 -36 -12.833 -65 -22.5 -87s-21.167 -38.833 -34.5 -50.5s-28 -19.5 -44 -23.5s-33 -6 -51 -6zM232 376c10 0 19.501 0.666992 28.501 2s17.167 5.66602 24.5 12.999s14.166 19.166 20.499 35.499
s11.5 39.166 15.5 68.499s5.33301 52 4 68s-4.66602 27.667 -9.99902 35s-12.333 11.666 -21 12.999s-18 2 -28 2s-19.5 -0.666992 -28.5 -2s-17.333 -5.66602 -25 -12.999s-14.5 -19 -20.5 -35s-11 -38.667 -15 -68s-5.33301 -52.166 -4 -68.499
s4.66602 -28.166 9.99902 -35.499s12.333 -11.666 21 -12.999s18 -2 28 -2zM628.001 -24c-18 0 -34.499 2 -49.499 6s-27.5 11.833 -37.5 23.5s-16.833 28.5 -20.5 50.5s-2.83398 51 2.49902 87c4.66699 36 12 64.833 22 86.5s21.667 38.5 35 50.5s28 19.833 44 23.5
s33 5.5 51 5.5s34.5 -1.83301 49.5 -5.5s27.5 -11.5 37.5 -23.5s16.833 -28.833 20.5 -50.5s3.16699 -50.5 -1.5 -86.5c-5.33301 -36 -13 -65 -23 -87s-21.667 -38.833 -35 -50.5s-28 -19.5 -44 -23.5s-33 -6 -51 -6zM635.002 24c10 0 19.5029 0.666992 28.5029 2
s17.167 5.66602 24.5 12.999s14.166 19.166 20.499 35.499s11.5 39.166 15.5 68.499s5.16699 52 3.5 68s-5.16699 27.667 -10.5 35s-12.333 11.666 -21 12.999s-18 2 -28 2s-19.5 -0.666992 -28.5 -2s-17.333 -5.66602 -25 -12.999s-14.334 -19 -20.001 -35
s-10.5 -38.667 -14.5 -68s-5.33301 -52.166 -4 -68.499s4.66602 -28.166 9.99902 -35.499s12.333 -11.666 21 -12.999s18 -2 28 -2z" />
    <glyph glyph-name="ampersand" unicode="&#x26;" horiz-adv-x="688" 
d="M512 77c-32 -28 -64.834 -49.666 -98.501 -64.999s-69.5 -23 -107.5 -23c-30.667 0 -60.334 1.33301 -89.001 4s-53.5 10 -74.5 22s-36.5 30.667 -46.5 56s-12 60.666 -6 105.999c3.33301 24.667 11.5 46.334 24.5 65.001s29.667 35.667 50 51s43.833 29.5 70.5 42.5
l85 39.5c-14 18.667 -25.833 35.167 -35.5 49.5s-17.5 27.333 -23.5 39s-10.167 22.334 -12.5 32.001s-2.83301 19.167 -1.5 28.5c2.66699 19.333 7.66699 37 15 53s18.333 29.833 33 41.5s33.834 20.667 57.501 27s53.167 9.5 88.5 9.5c32 0 58 -3.16699 78 -9.5
s35.333 -15 46 -26s17.334 -24 20.001 -39s2.66699 -31.5 0 -49.5c-2.66699 -20 -8.5 -37.333 -17.5 -52s-20.667 -28.167 -35 -40.5s-31.166 -23.833 -50.499 -34.5s-41 -22 -65 -34l117 -174c21.333 33.333 38.666 66.666 51.999 99.999
c13.333 -2 25.166 -4.33301 35.499 -7s21.5 -5.33398 33.5 -8.00098c-10.667 -25.333 -23.167 -50 -37.5 -74s-28.833 -45.333 -43.5 -64c26.667 -42 57.334 -76.333 92.001 -103l-27.5 -26.5l-26.5 -25.5c-13.333 9.33301 -28 23 -44 41s-31.667 36.667 -47 56z
M387.999 409.001l58.4971 29.999c15.667 8 28.334 16 38.001 24s17 17 22 27s8.5 22.667 10.5 38c2 12.667 2.33301 24 1 34s-5.16602 18.333 -11.499 25s-15.666 11.667 -27.999 15s-28.833 5 -49.5 5s-37.667 -1.66699 -51 -5s-24.333 -8.16602 -33 -14.499
s-15 -14 -19 -23s-7 -19.5 -9 -31.5c-1.33301 -12 1.5 -24.5 8.5 -37.5s15.833 -26.167 26.5 -39.5zM346.996 336c-28 -15.333 -52.665 -27.834 -73.998 -37.501s-39.666 -19.5 -54.999 -29.5s-27.5 -21.5 -36.5 -34.5s-14.833 -30.5 -17.5 -52.5
c-5.33301 -39.333 -4.83301 -68.666 1.5 -87.999s16.666 -32.666 30.999 -39.999s31.833 -11 52.5 -11h66c13.333 0 27.666 2.33301 42.999 7s30.666 11.167 45.999 19.5s30 18.166 44 29.499s26.667 24 38 38z" />
    <glyph glyph-name="quotesingle" unicode="'" horiz-adv-x="192" 
d="M136 433l-3 116.999l14 100h77l-14 -100c-6.66699 -20 -12.667 -39.667 -18 -59s-11.333 -38.666 -18 -57.999h-38z" />
    <glyph glyph-name="parenleft" unicode="(" horiz-adv-x="236" 
d="M155 -197l-55.001 76.498c-16.667 24.333 -30.167 52.166 -40.5 83.499s-16.666 68.333 -18.999 111s0.833984 95.334 9.50098 158.001s20.167 115.334 34.5 158.001s31.166 79.667 50.499 111s40.666 59.166 63.999 83.499l76 76.5l24 -20l-52 -62
c-14.667 -17.333 -27.667 -34 -39 -50s-21.333 -32.5 -30 -49.5s-16.5 -36.667 -23.5 -59s-13.333 -48.666 -19 -78.999s-11.5 -66.833 -17.5 -109.5s-10.333 -79.167 -13 -109.5s-3.66699 -56.666 -3 -78.999s2.83398 -42 6.50098 -59s9 -33.5 16 -49.5
s15.333 -32.833 25 -50.5l34.5 -61.5z" />
    <glyph glyph-name="parenright" unicode=")" horiz-adv-x="236" 
d="M2 -177l51.502 61.502c15 17.667 28.167 34.5 39.5 50.5s21.166 32.5 29.499 49.5s16 36.667 23 59s13.333 48.666 19 78.999s11.5 66.833 17.5 109.5s10.333 79.167 13 109.5s3.83398 56.666 3.50098 78.999s-2.33301 42 -6 59s-9 33.5 -16 49.5s-15.5 32.667 -25.5 50
l-34 62l28 20l55 -76.5c16.667 -24.333 30.167 -52.166 40.5 -83.499s16.666 -68.333 18.999 -111s-0.833984 -95.334 -9.50098 -158.001s-20.167 -115.334 -34.5 -158.001s-31 -79.667 -50 -111s-40.333 -59.166 -64 -83.499l-76.5 -76.5z" />
    <glyph glyph-name="asterisk" unicode="*" horiz-adv-x="347" 
d="M287 381l-19.999 37.0029c-8 14.667 -17.667 34 -29 58c-25.333 -36 -50.333 -67 -75 -93l-48 35c16 17.333 31.667 33 47 47s29.333 26 42 36l-53.5 11.5c-19.667 4.33301 -38.167 9.16602 -55.5 14.499l30 61l59 -24c16 -6.66699 29.667 -13 41 -19
c0.666992 25.333 1.66699 47.666 3 66.999s2.66602 33.666 3.99902 42.999h66c-3.33301 -17.333 -7 -34.666 -11 -51.999s-9.33301 -36.333 -16 -57c18 8 35 15 51 21s32 11.667 48 17l16 5l13 -62c-21.333 -6.66699 -41.666 -11.834 -60.999 -15.501
s-39 -7.16699 -59 -10.5c11.333 -11.333 22.166 -23.5 32.499 -36.5l34.5 -45.5z" />
    <glyph glyph-name="plus" unicode="+" horiz-adv-x="443" 
d="M292 293l-26 -185h-61l26 185h-189l8 56h189l25 182h61l-25 -182h191l-8 -56h-191z" />
    <glyph glyph-name="comma" unicode="," horiz-adv-x="185" 
d="M45 -114c18.667 9.33301 33.167 22.667 43.5 40s18.833 42 25.5 74h-50l10 73h77l-12 -83c-4 -30 -13 -54.833 -27 -74.5s-32.667 -35.167 -56 -46.5z" />
    <glyph glyph-name="hyphen" unicode="-" horiz-adv-x="405" 
d="M107 201l9 63h244l-9 -63h-244z" />
    <glyph glyph-name="period" unicode="." horiz-adv-x="245" 
d="M79 0l10 73h77l-10 -73h-77z" />
    <glyph glyph-name="slash" unicode="/" horiz-adv-x="270" 
d="M-1 -11l291 672h72l-290 -672h-73z" />
    <glyph glyph-name="zero" unicode="0" horiz-adv-x="629" 
d="M320 45c17.333 0 33.8301 0.5 49.4971 1.5s30.667 4 45 9s28 13.167 41 24.5s24.833 27.166 35.5 47.499s20.334 46.333 29.001 78s16.334 70.5 23.001 116.5c10 68.667 12.833 121.834 8.5 159.501s-13.666 65.167 -27.999 82.5s-32.5 27.5 -54.5 30.5
s-45.667 4.5 -71 4.5c-26 0 -50.5 -1.5 -73.5 -4.5s-43.833 -13.167 -62.5 -30.5s-35.167 -44.833 -49.5 -82.5s-26.5 -90.834 -36.5 -159.501c-6.66699 -46 -10.167 -84.833 -10.5 -116.5s2 -57.667 7 -78s12.167 -36.166 21.5 -47.499s20.5 -19.5 33.5 -24.5
s27.333 -8 43 -9s32.167 -1.5 49.5 -1.5zM311.997 -11c-35.333 0 -68.166 3.83301 -98.499 11.5s-55.5 23.334 -75.5 47.001s-33.5 57.334 -40.5 101.001s-5.5 101.5 4.5 173.5s24.833 129.833 44.5 173.5s42.834 77.334 69.501 101.001s56.167 39.334 88.5 47.001
s66.166 11.5 101.499 11.5c36 0 69 -3.83301 99 -11.5s55 -23.334 75 -47.001s33.667 -57.334 41 -101.001s6 -101.5 -4 -173.5s-24.833 -129.833 -44.5 -173.5s-42.834 -77.334 -69.501 -101.001s-56.167 -39.334 -88.5 -47.001s-66.5 -11.5 -102.5 -11.5z" />
    <glyph glyph-name="one" unicode="1" horiz-adv-x="420" 
d="M31 0l8 57h153l74 527l-127 -32l-7 54l217 56l-85 -605h156l-8 -57h-381z" />
    <glyph glyph-name="two" unicode="2" horiz-adv-x="540" 
d="M53 0l22.999 167c5.33301 38.667 17.333 68.834 36 90.501s41.167 38.5 67.5 50.5s55.166 21.167 86.499 27.5s62.666 13.5 93.999 21.5c24 6 44 11.5 60 16.5s29.333 11.333 40 19s18.667 17.667 24 30s9.66602 29.166 12.999 50.499
c6.66699 45.333 -1.16602 77.333 -23.499 96s-57.5 28 -105.5 28c-16 0 -33.5 -1.16699 -52.5 -3.5s-37.333 -5.33301 -55 -9s-34 -7.5 -49 -11.5s-26.5 -7.66699 -34.5 -11l-18 53c12 6.66699 27.167 12.334 45.5 17.001s38 8.66699 59 12s42.333 5.83301 64 7.5
s41.834 2.5 60.501 2.5c26 0 51.167 -2 75.5 -6s45.333 -12.333 63 -25s30.834 -30.834 39.501 -54.501s10.334 -55.167 5.00098 -94.5c-5.33301 -36.667 -14.166 -65.834 -26.499 -87.501s-29.5 -39.167 -51.5 -52.5s-49.333 -24.166 -82 -32.499
s-72.334 -17.833 -119.001 -28.5c-22 -5.33301 -41.333 -10.333 -58 -15s-30.667 -10.667 -42 -18s-20.5 -17 -27.5 -29s-11.833 -28 -14.5 -48l-14 -105h377l-8 -58h-452z" />
    <glyph glyph-name="three" unicode="3" horiz-adv-x="546" 
d="M71 81c6.66699 -3.33301 16.8281 -7.00391 30.4951 -11.0039s28.834 -7.83301 45.501 -11.5s34.167 -6.66699 52.5 -9s35.5 -3.5 51.5 -3.5c25.333 0 48.166 0.833008 68.499 2.5s38 6.16699 53 13.5s27.167 18.833 36.5 34.5s16 37.167 20 64.5
c4.66699 32.667 4.66699 57.834 0 75.501s-13 30.834 -25 39.501s-27.333 13.834 -46 15.501s-39.667 2.5 -63 2.5h-133l8 57h133c23.333 0 44.5 1.16699 63.5 3.5s35.667 7.83301 50 16.5s26.166 21.667 35.499 39s16 41 20 71c3.33301 24.667 2.5 44.667 -2.5 60
s-13.833 27 -26.5 35s-28.667 13.333 -48 16s-41.666 4 -66.999 4c-16 0 -33.5 -1.16699 -52.5 -3.5s-37.333 -5.33301 -55 -9s-33.834 -7.5 -48.501 -11.5s-26 -7.66699 -34 -11l-19 53c12 6.66699 27.167 12.334 45.5 17.001s38.166 8.66699 59.499 12
s42.833 5.83301 64.5 7.5s41.834 2.5 60.501 2.5c38 0 70.667 -2.5 98 -7.5s49.333 -13.667 66 -26s28 -29.5 34 -51.5s6.66699 -50 2 -84c-4 -25.333 -9.16699 -46.666 -15.5 -63.999s-14 -32 -23 -44s-19.167 -22.333 -30.5 -31s-23.666 -16.334 -36.999 -23.001
c11.333 -6.66699 21.5 -14.167 30.5 -22.5s16.333 -18.5 22 -30.5s9.33398 -26.833 11.001 -44.5s0.833984 -38.834 -2.49902 -63.501c-4.66699 -34 -13.167 -62.167 -25.5 -84.5s-28.666 -40 -48.999 -53s-44.833 -22 -73.5 -27s-62 -7.5 -100 -7.5
c-18.667 0 -38.667 0.833008 -60 2.5s-42.166 4.16699 -62.499 7.5s-39.166 7.33301 -56.499 12s-31 10.334 -41 17.001z" />
    <glyph glyph-name="four" unicode="4" horiz-adv-x="526" 
d="M353 0l18 132h-348l9 67l319 443h80l-325 -452h273l24 171h72l-24 -171h84l-8 -58h-84l-18 -132h-72z" />
    <glyph glyph-name="five" unicode="5" horiz-adv-x="525" 
d="M85 81c6.66699 -3.33301 16.8301 -7.00391 30.4971 -11.0039s28.834 -7.83301 45.501 -11.5s34.167 -6.66699 52.5 -9s35.5 -3.5 51.5 -3.5c25.333 0 48 1.83301 68 5.5s37.5 10.334 52.5 20.001s27.167 23.167 36.5 40.5s16 39.666 20 66.999
c4.66699 32.667 5 58.834 1 78.501s-11.667 34.834 -23 45.501s-26 17.834 -44 21.501s-38.667 5.5 -62 5.5c-27.333 0 -51 -1.33301 -71 -4s-35.333 -9 -46 -19l-74 10l46 325h383l-8 -58h-308l-30 -213c31.333 10.667 70 16 116 16c76.667 0 130.667 -17.5 162 -52.5
s42.333 -86.833 33 -155.5c-9.33301 -68 -33.833 -116.667 -73.5 -146s-97.5 -44 -173.5 -44c-18.667 0 -38.667 0.833008 -60 2.5s-42.166 4.16699 -62.499 7.5s-39.166 7.33301 -56.499 12s-31 10.334 -41 17.001z" />
    <glyph glyph-name="six" unicode="6" horiz-adv-x="574" 
d="M562 563c-7.33301 3.33301 -17.834 6.99316 -31.501 10.9932s-28.667 7.83301 -45 11.5s-33.666 6.66699 -51.999 9s-35.5 3.5 -51.5 3.5c-24.667 0 -47.167 -1.33301 -67.5 -4s-38.833 -11.667 -55.5 -27s-31.334 -39.666 -44.001 -72.999s-24 -81 -34 -143
c21.333 14.667 46.166 24.5 74.499 29.5s60.5 7.5 96.5 7.5c35.333 0 66.666 -2.5 93.999 -7.5s49.833 -14.833 67.5 -29.5s29.834 -35.167 36.501 -61.5s7 -60.833 1 -103.5c-5.33301 -37.333 -14.5 -68.666 -27.5 -93.999s-30 -45.666 -51 -60.999
s-46.167 -26.166 -75.5 -32.499s-63 -9.5 -101 -9.5c-36 0 -68.167 3.83301 -96.5 11.5s-51.333 23.334 -69 47.001s-29.167 57.334 -34.5 101.001s-3 101.5 7 173.5s23.833 129.833 41.5 173.5s38.834 77.334 63.501 101.001s52.167 39.334 82.5 47.001
s63.5 11.5 99.5 11.5c18.667 0 38 -0.833008 58 -2.5s39.333 -4.16699 58 -7.5s35.834 -7.33301 51.501 -12s28.5 -10.334 38.5 -17.001zM164.999 201.993c-1.33301 -39.333 1.33594 -69.502 8.00293 -90.502s16.167 -36.5 28.5 -46.5s27.166 -15.667 44.499 -17
s36.666 -2 57.999 -2c23.333 0 44.5 0.833008 63.5 2.5s35.667 6.83398 50 15.501s26.166 22.334 35.499 41.001s16.666 45.667 21.999 81c4.66699 34.667 4.5 61.834 -0.5 81.501s-13.667 34.167 -26 43.5s-27.666 15 -45.999 17s-37.833 3 -58.5 3
c-20 0 -39.5 -0.833008 -58.5 -2.5s-36.5 -6.83398 -52.5 -15.501s-29.833 -21.667 -41.5 -39s-20.5 -41.333 -26.5 -72z" />
    <glyph glyph-name="seven" unicode="7" horiz-adv-x="455" 
d="M103 0l345 584h-357l8 58h434l-8 -58l-344 -584h-78z" />
    <glyph glyph-name="eight" unicode="8" horiz-adv-x="579" 
d="M274 -11c-36 0.666992 -66.832 3.66895 -92.499 9.00195s-46.334 14.5 -62.001 27.5s-26.167 30.5 -31.5 52.5s-5.66602 49.667 -0.999023 83c3.33301 24.667 8.16602 45.834 14.499 63.501s14 32.5 23 44.5s19.167 22.167 30.5 30.5s23.666 15.833 36.999 22.5
c-11.333 6.66699 -21.333 14.334 -30 23.001s-15.834 19 -21.501 31s-9.16699 26.667 -10.5 44s0 38.666 4 63.999c4.66699 34 12.834 62 24.501 84s27.5 39.167 47.5 51.5s44.167 21 72.5 26s61.5 7.5 99.5 7.5h17c36 -0.666992 66.833 -3.66699 92.5 -9
s46.167 -14.333 61.5 -27s25.833 -29.834 31.5 -51.501s6.16699 -48.834 1.5 -81.501c-4 -25.333 -9.16699 -46.666 -15.5 -63.999s-13.833 -32 -22.5 -44s-18.5 -22.333 -29.5 -31s-23.167 -16.334 -36.5 -23.001c11.333 -6.66699 21.333 -14.167 30 -22.5
s15.834 -18.5 21.501 -30.5s9.16699 -26.833 10.5 -44.5s0.333008 -38.834 -3 -63.501c-4.66699 -34 -13 -62.167 -25 -84.5s-28 -40 -48 -53s-44.333 -22 -73 -27s-62 -7.5 -100 -7.5h-17zM308.001 46.002c46 0 81.666 8.33301 106.999 25s41 46.667 47 90
c4 30.667 4.16699 54.834 0.5 72.501s-10.834 30.834 -21.501 39.501s-24.167 14.167 -40.5 16.5s-35.166 3.83301 -56.499 4.5h-26c-21.333 -0.666992 -40.666 -2.16699 -57.999 -4.5s-32.5 -7.83301 -45.5 -16.5s-24 -21.834 -33 -39.501s-15.5 -41.834 -19.5 -72.501
c-3.33301 -26 -3 -46.5 1 -61.5s11.5 -26.5 22.5 -34.5s25 -13.167 42 -15.5s36.5 -3.5 58.5 -3.5h20h2zM352 351.002c21.333 0.666992 40.502 2.33398 57.502 5.00098s32 8.5 45 17.5s23.667 22 32 39s14.5 39.833 18.5 68.5c3.33301 24 2.83301 43.333 -1.5 58
s-12 26.167 -23 34.5s-25.167 14 -42.5 17s-37.333 4.83301 -60 5.5c-24.667 0 -46.667 -1.5 -66 -4.5s-36 -8.5 -50 -16.5s-25.5 -19.5 -34.5 -34.5s-15.167 -34.833 -18.5 -59.5c-4 -28.667 -4.16699 -51.5 -0.5 -68.5s10.667 -30 21 -39s23.666 -14.833 39.999 -17.5
s35.166 -4.33398 56.499 -5.00098h26z" />
    <glyph glyph-name="nine" unicode="9" horiz-adv-x="573" 
d="M111 81c6.66699 -3.33301 16.8311 -6.99609 30.498 -10.9961s28.834 -7.83301 45.501 -11.5s34.167 -6.66699 52.5 -9s35.5 -3.5 51.5 -3.5c16.667 0 32.167 0.333008 46.5 1s27.833 3.33398 40.5 8.00098s24.334 11.834 35.001 21.501s20.667 23.5 30 41.5
s17.833 41 25.5 69s14.834 62.333 21.501 103c-20.667 -13.333 -45 -22.333 -73 -27s-60.333 -7 -97 -7c-38 0 -70.833 2.5 -98.5 7.5s-49.834 14.833 -66.501 29.5s-27.834 35.167 -33.501 61.5s-5.5 60.833 0.5 103.5c5.33301 37.333 14.5 68.666 27.5 93.999
s30 45.666 51 60.999s46.167 26.166 75.5 32.499s63 9.5 101 9.5c36 0 68.167 -3.83301 96.5 -11.5s51.333 -23.334 69 -47.001s29.167 -57.334 34.5 -101.001s3 -101.5 -7 -173.5s-24 -129.833 -42 -173.5s-39.167 -77.334 -63.5 -101.001s-51.666 -39.334 -81.999 -47.001
s-63.5 -11.5 -99.5 -11.5c-18.667 0 -38 0.833008 -58 2.5s-39.333 4.16699 -58 7.5s-36 7.33301 -52 12s-29 10.334 -39 17.001zM505.997 441.004c1.33301 39.333 -0.99707 69.666 -6.99707 90.999s-15.167 37 -27.5 47s-27.333 15.667 -45 17s-36.834 2 -57.501 2
c-24 0 -45.333 -0.833008 -64 -2.5s-35.167 -6.83398 -49.5 -15.501s-26.333 -22.5 -36 -41.5s-16.834 -45.833 -21.501 -80.5c-5.33301 -35.333 -5.83301 -62.666 -1.5 -81.999s12.333 -33.666 24 -42.999s26.667 -15 45 -17s39.166 -3 62.499 -3
c22.667 0 43.667 0.833008 63 2.5s36.5 6.66699 51.5 15s28 21 39 38s19.167 41.167 24.5 72.5z" />
    <glyph glyph-name="colon" unicode=":" horiz-adv-x="235" 
d="M131 392l10 74h77l-10 -74h-77zM76 0l10 73h77l-10 -73h-77z" />
    <glyph glyph-name="semicolon" unicode=";" horiz-adv-x="131" 
d="M1 -114c18.667 9.33301 33.167 22.667 43.5 40s18.833 42 25.5 74h-50l10 73h77l-12 -83c-4 -30 -13 -54.833 -27 -74.5s-32.667 -35.167 -56 -46.5zM75 392.001l10 74h77l-10 -74h-77z" />
    <glyph glyph-name="less" unicode="&#x3c;" horiz-adv-x="522" 
d="M40 290l9 63l468 178l-8 -58l-407 -151l88.5 -37.5l93.5 -39l93 -39l89 -37.5l-8 -61z" />
    <glyph glyph-name="equal" unicode="=" horiz-adv-x="599" 
d="M134 395l8 56h441l-8 -56h-441zM105 192l8 55h441l-8 -55h-441z" />
    <glyph glyph-name="greater" unicode="&#x3e;" horiz-adv-x="522" 
d="M94 108l8 61l406 153l-363 151l8 58l418 -179l-9 -62z" />
    <glyph glyph-name="question" unicode="?" horiz-adv-x="511" 
d="M130 146l7.99805 54c4 28.667 12.833 52.667 26.5 72s30.5 35.166 50.5 47.499s42.667 22.333 68 30s52 14.167 80 19.5c30 6 53.667 11.167 71 15.5s30.833 10 40.5 17s16.334 16.167 20.001 27.5s7.16699 27.666 10.5 48.999c6 45.333 -5.16699 76.5 -33.5 93.5
s-72.166 25.5 -131.499 25.5c-20 0 -40.5 -1.16699 -61.5 -3.5s-41 -5.33301 -60 -9s-36.5 -7.5 -52.5 -11.5s-29 -7.66699 -39 -11l-25 53c14.667 6.66699 32.167 12.334 52.5 17.001s42 8.66699 65 12s46.833 5.83301 71.5 7.5s48.667 2.5 72 2.5
c32 0 61.667 -3.66699 89 -11s50.833 -18.166 70.5 -32.499s34.167 -32.5 43.5 -54.5s12 -47.667 8 -77c-4 -28.667 -10.667 -52.667 -20 -72s-22.166 -35.5 -38.499 -48.5s-36.5 -23.667 -60.5 -32s-52.667 -15.833 -86 -22.5c-27.333 -5.33301 -50.333 -10.333 -69 -15
s-33.834 -10.5 -45.501 -17.5s-20.667 -16.333 -27 -28s-10.833 -27.5 -13.5 -47.5l-7 -50h-77zM109.998 0l10 73h77l-10 -73h-77z" />
    <glyph glyph-name="at" unicode="@" horiz-adv-x="994" 
d="M871 -58c-42 -40 -96.666 -73.1611 -163.999 -99.4941s-145.666 -39.5 -234.999 -39.5c-74.667 0 -137.167 9.83301 -187.5 29.5s-90 47.667 -119 84s-47.833 80.166 -56.5 131.499s-8.66699 108.333 0 171c10 68.667 27.833 130.334 53.5 185.001s59 101.167 100 139.5
s89 67.666 144 87.999s116.833 30.5 185.5 30.5c52.667 0 102.167 -6.83301 148.5 -20.5s85.666 -36 117.999 -67s55.833 -72.167 70.5 -123.5s16.667 -114.333 6 -189c-3.33301 -26 -9 -53.667 -17 -83s-19.333 -56.5 -34 -81.5s-33.334 -45.667 -56.001 -62
s-51 -24.5 -85 -24.5c-26.667 0 -45.334 6 -56.001 18s-16.334 32 -17.001 60c-22.667 -28 -51 -49.167 -85 -63.5s-76 -21.5 -126 -21.5c-28 0 -53.667 2.5 -77 7.5s-42.833 13.667 -58.5 26s-27 28.666 -34 48.999s-8.5 45.833 -4.5 76.5
c4.66699 30.667 13.5 56.167 26.5 76.5s29.5 36.5 49.5 48.5s43 20.5 69 25.5s54.333 7.5 85 7.5h174c4 38.667 4.33301 69.167 1 91.5s-10.5 39.166 -21.5 50.499s-26.333 18.666 -46 21.999s-43.834 5 -72.501 5c-7.33301 0 -15.833 -0.166992 -25.5 -0.5
s-21.167 -1.5 -34.5 -3.5s-28.666 -5 -45.999 -9s-37.333 -9.66699 -60 -17l-20 42c28 12 57.833 20.667 89.5 26s67.167 8 106.5 8c38 0 70.333 -3 97 -9s47.667 -17.833 63 -35.5s25 -42.167 29 -73.5s2.66699 -72.333 -4 -123c0 -2 -0.333008 -4.5 -1 -7.5
s-1.66699 -8.66699 -3 -17s-3 -20.333 -5 -36s-5 -37.167 -9 -64.5c-3.33301 -23.333 -5 -42.5 -5 -57.5s1.66699 -26.833 5 -35.5s8 -14.667 14 -18s13.667 -5 23 -5c24 0 43.5 8.33301 58.5 25s27.167 37.834 36.5 63.501s16.5 54 21.5 85s9.16699 61.167 12.5 90.5
c5.33301 48.667 0.333008 91.5 -15 128.5s-38 68.167 -68 93.5s-66 44.5 -108 57.5s-86.333 19.5 -133 19.5c-58 0 -110.5 -9.66699 -157.5 -29s-87.833 -46.333 -122.5 -81s-63 -76.334 -85 -125.001s-37 -102.334 -45 -161.001c-18 -125.333 2 -218.5 60 -279.5
s147 -91.5 267 -91.5c42.667 0 82.334 3.5 119.001 10.5s70.334 16.833 101.001 29.5s58 27.167 82 43.5s44.667 34.166 62 53.499zM508.001 274.006c-22 0 -42.498 -1.16309 -61.498 -3.49609s-35.833 -7.33301 -50.5 -15s-26.834 -18.834 -36.501 -33.501
s-16.167 -34.334 -19.5 -59.001s-2.33301 -44.334 3 -59.001s13.666 -26 24.999 -34s25.333 -13.333 42 -16s34.667 -4 54 -4c41.333 0 75 4.33301 101 13s46.833 22.167 62.5 40.5s27.5 41.666 35.5 69.999s14.667 61.833 20 100.5h-175z" />
    <glyph glyph-name="A" unicode="A" horiz-adv-x="657" 
d="M554 0l-53 201h-291l-108 -201h-74l347 642h86l167 -642h-74zM433 461l-21 121h-6l-55 -121l-113 -209h250z" />
    <glyph glyph-name="B" unicode="B" horiz-adv-x="675" 
d="M79 0l89.999 642.003h275c47.333 0 86.666 -2.16699 117.999 -6.5s55.666 -12.333 72.999 -24s28.5 -28.167 33.5 -49.5s5.16699 -49 0.5 -83c-3.33301 -25.333 -8 -46.333 -14 -63s-13.167 -30.834 -21.5 -42.501s-18.166 -21.5 -29.499 -29.5s-24.333 -15.333 -39 -22
c12.667 -6.66699 23.834 -13.834 33.501 -21.501s17.5 -17.334 23.5 -29.001s9.83301 -26 11.5 -43s0.833984 -37.833 -2.49902 -62.5c-4.66699 -34 -12.667 -61.833 -24 -83.5s-27.5 -38.5 -48.5 -50.5s-47.833 -20.333 -80.5 -25s-72.667 -7 -120 -7h-279z
M367.999 57.0029c31.333 0 58.166 0.5 80.499 1.5s41 4.83301 56 11.5s26.667 17.5 35 32.5s14.5 36.167 18.5 63.5c4.66699 32.667 5.16699 57.667 1.5 75s-11.5 29.833 -23.5 37.5s-28.167 12.167 -48.5 13.5s-45.166 2 -74.499 2h-221l-33 -237h209zM420.999 351.003
c29.333 0 54.1689 0.999023 74.502 2.99902s37.166 7 50.499 15s23.833 20.333 31.5 37s13.5 40 17.5 70c3.33301 24.667 3 44.334 -1 59.001s-12.333 25.667 -25 33s-29.834 12 -51.501 14s-48.167 3 -79.5 3h-205l-33 -234h221z" />
    <glyph glyph-name="C" unicode="C" horiz-adv-x="650" 
d="M618 31c-30 -13.333 -66.001 -24.0029 -108.001 -32.0029s-86.333 -12 -133 -12c-49.333 0 -93.166 4.16699 -131.499 12.5s-70 24.5 -95 48.5s-42 57.833 -51 101.5s-8.5 100.834 1.5 171.501s25.667 127.834 47 171.501s47.666 77.5 78.999 101.5
s67.5 40.167 108.5 48.5s86.167 12.5 135.5 12.5c94 0 167 -13.333 219 -40l-41 -53c-18 6.66699 -43 14.334 -75 23.001s-68.333 13 -109 13c-36 0 -69.833 -2.5 -101.5 -7.5s-60 -16.833 -85 -35.5s-46.333 -46.5 -64 -83.5s-30.834 -87.167 -39.501 -150.5
c-9.33301 -64 -10.166 -114.5 -2.49902 -151.5s21.334 -64.667 41.001 -83s44.5 -30 74.5 -35s63 -7.5 99 -7.5c20 0 40.167 1.5 60.5 4.5s39.5 6.5 57.5 10.5s34.5 8.33301 49.5 13l37.5 12z" />
    <glyph glyph-name="D" unicode="D" horiz-adv-x="689" 
d="M79 0l90.0029 642h230c48.667 0 92.5 -3.16699 131.5 -9.5s71 -20.5 96 -42.5s42.167 -54 51.5 -96s9 -98.333 -1 -169c-10 -71.333 -24.833 -128.5 -44.5 -171.5s-44.334 -75.833 -74.001 -98.5s-64.334 -37.5 -104.001 -44.5s-84.834 -10.5 -135.501 -10.5h-240z
M317.003 58c46 0 85.332 2.66797 117.999 8.00098s60 17.333 82 36s39.833 45.667 53.5 81s24.5 83 32.5 143c8.66699 63.333 9.33398 112.5 2.00098 147.5s-21 60.667 -41 77s-45.167 26.166 -75.5 29.499s-63.5 5 -99.5 5h-156l-74 -527h158z" />
    <glyph glyph-name="E" unicode="E" horiz-adv-x="566" 
d="M79 0l90 642h480l-18 -57h-398l-32 -224h323l-8 -57h-323l-34 -246h408l-18 -58h-470z" />
    <glyph glyph-name="F" unicode="F" horiz-adv-x="526" 
d="M192 303l-42 -303h-71l90 642h447l-18 -57h-366l-32 -224h325l-8 -58h-325z" />
    <glyph glyph-name="G" unicode="G" horiz-adv-x="672" 
d="M602 304l-204.996 0.000976562l18 57h263l-44 -316c-14.667 -8 -32.334 -15.333 -53.001 -22s-42.834 -12.5 -66.501 -17.5s-48.167 -8.83301 -73.5 -11.5s-50 -4 -74 -4c-50.667 0 -94.834 4 -132.501 12s-68 24 -91 48s-38.333 58 -46 102s-6.5 101.667 3.5 173
c10 70.667 25.667 127.667 47 171s47.833 76.666 79.5 99.999s67.834 39 108.501 47s85.667 12 135 12c46.667 0 89.167 -3.66699 127.5 -11s70.5 -17.666 96.5 -30.999l-41 -53c-18 6.66699 -43.833 14.667 -77.5 24s-70.834 14 -111.501 14
c-36 0 -69.667 -2.33301 -101 -7s-59.5 -16 -84.5 -34s-46.5 -45.167 -64.5 -81.5s-31.333 -86.166 -40 -149.499c-8 -60 -10.333 -108.333 -7 -145s13.5 -64.834 30.5 -84.501s41.333 -32.834 73 -39.501s71.167 -10 118.5 -10c15.333 0 31.5 1.16699 48.5 3.5
s33.667 5.16602 50 8.49902s31.666 7.33301 45.999 12s26.5 9.33398 36.5 14.001z" />
    <glyph glyph-name="H" unicode="H" horiz-adv-x="681" 
d="M530 0l43 312h-380l-43 -312h-71l90 642h71l-38 -271h380l38 271h71l-90 -642h-71z" />
    <glyph glyph-name="I" unicode="I" horiz-adv-x="241" 
d="M79 0l90 642h72l-90 -642h-72z" />
    <glyph glyph-name="J" unicode="J" horiz-adv-x="322" 
d="M12 48c31.333 0 58.166 0.832031 80.499 2.49902s41 7.33398 56 17.001s27 24.5 36 44.5s16.167 48.333 21.5 85l63 445h71l-62 -441c-6 -44 -15 -79.5 -27 -106.5s-28.833 -47.833 -50.5 -62.5s-48.667 -24.5 -81 -29.5s-72.166 -7.5 -119.499 -7.5z" />
    <glyph glyph-name="K" unicode="K" horiz-adv-x="675" 
d="M526 0l-174 292h-161l-41 -292h-71l90 642h71l-41 -293h161l256 293h94l-145 -160.5l-146 -160.5l100.5 -161l100.5 -160h-94z" />
    <glyph glyph-name="L" unicode="L" horiz-adv-x="532" 
d="M79 0l90 642h71l-82 -584h382l-18 -58h-443z" />
    <glyph glyph-name="M" unicode="M" horiz-adv-x="855" 
d="M707 0l78 562h-3l-316 -562h-78l-160 562h-3l-78 -562h-68l90 642h108l133 -462l25 -121l59 121l263 462h108l-90 -642h-68z" />
    <glyph glyph-name="N" unicode="N" horiz-adv-x="685" 
d="M526 0l-303 544l-76 -544h-68l90 642h80l303 -542l76 542h67l-90 -642h-79z" />
    <glyph glyph-name="O" unicode="O" 
d="M463 599c-32.667 0 -64.1699 -1.5 -94.5029 -4.5s-58.166 -13.167 -83.499 -30.5s-47.333 -44.833 -66 -82.5s-33 -90.834 -43 -159.501c-6.66699 -46 -9.16699 -84.833 -7.5 -116.5s6.66699 -57.667 15 -78s19.333 -36.166 33 -47.499s29.334 -19.5 47.001 -24.5
s36.834 -8 57.501 -9s42 -1.5 64 -1.5c21.333 0 42.333 0.5 63 1.5s40.667 4 60 9s37.5 13.167 54.5 24.5s32.5 27.166 46.5 47.499s26.333 46.333 37 78s19.334 70.5 26.001 116.5c10 68.667 10.667 121.834 2 159.501s-23.334 65.167 -44.001 82.5s-45.667 27.5 -75 30.5
s-60 4.5 -92 4.5zM101.997 322c10 72 26.501 129.833 49.501 173.5s50.667 77.334 83 101.001s68.666 39.334 108.999 47.001s82.833 11.5 127.5 11.5s86 -3.83301 124 -11.5s69.833 -23.334 95.5 -47.001s43.834 -57.334 54.501 -101.001s11 -101.5 1 -173.5
s-26.5 -129.833 -49.5 -173.5s-50.833 -77.334 -83.5 -101.001s-69 -39.334 -109 -47.001s-82.333 -11.5 -127 -11.5s-86 3.83301 -124 11.5s-69.833 23.334 -95.5 47.001s-43.834 57.334 -54.501 101.001s-11 101.5 -1 173.5z" />
    <glyph glyph-name="P" unicode="P" horiz-adv-x="595" 
d="M79 0l90.0039 642h259c47.333 0 86.666 -2.5 117.999 -7.5s55.666 -14.833 72.999 -29.5s28.166 -35.5 32.499 -62.5s3.5 -62.5 -2.5 -106.5s-15 -79.5 -27 -106.5s-28.833 -47.667 -50.5 -62s-48.834 -24 -81.501 -29s-72.667 -7.5 -120 -7.5h-187l-32 -231h-72z
M574.004 439c4.66699 34.667 5.33301 61.834 2 81.501s-11.166 34.334 -23.499 44.001s-29.333 15.5 -51 17.5s-48.167 3 -79.5 3h-189l-42 -297h189c31.333 0 58.166 1 80.499 3s41 7.66699 56 17s27 23.666 36 42.999s15.833 46.666 20.5 81.999z" />
    <glyph glyph-name="Q" unicode="Q" horiz-adv-x="766" 
d="M702 -71c-20.667 -16 -41.3291 -27.668 -61.9961 -35.001s-42.667 -11 -66 -11c-20.667 0 -40.334 3.16699 -59.001 9.5s-36.834 13.333 -54.501 21s-35.5 14.667 -53.5 21s-36.667 9.5 -56 9.5s-38 -3.16699 -56 -9.5s-40.333 -19.5 -67 -39.5l8 56
c19.333 18 42.666 31.333 69.999 40c-37.333 2.66699 -71.166 9.5 -101.499 20.5s-55.333 28.833 -75 53.5s-33.334 57.667 -41.001 99s-6.83398 94 2.49902 158c10 72 26.5 129.833 49.5 173.5s50.667 77.334 83 101.001s68.666 39.334 108.999 47.001
s82.833 11.5 127.5 11.5s86 -3.83301 124 -11.5s69.833 -23.334 95.5 -47.001s43.834 -57.334 54.501 -101.001s11 -101.5 1 -173.5c-9.33301 -64 -23.5 -116.667 -42.5 -158s-42.167 -74.333 -69.5 -99s-57.833 -42.5 -91.5 -53.5s-69.5 -17.833 -107.5 -20.5
c15.333 -4 30.333 -9.16699 45 -15.5s29 -12.166 43 -17.499s27.5 -10 40.5 -14s25.833 -6 38.5 -6c18 0 37.667 4.66699 59 14s41.333 21 60 35zM374.005 44.999c21.333 0 42.3301 0.5 62.9971 1.5s40.667 4 60 9s37.5 13.167 54.5 24.5s32.5 27.166 46.5 47.499
s26.333 46.333 37 78s19.334 70.5 26.001 116.5c10 68.667 10.667 121.834 2 159.501s-23.334 65.167 -44.001 82.5s-45.667 27.5 -75 30.5s-60 4.5 -92 4.5c-32.667 0 -64.167 -1.5 -94.5 -4.5s-58.166 -13.167 -83.499 -30.5s-47.333 -44.833 -66 -82.5
s-33 -90.834 -43 -159.501c-6.66699 -46 -9.16699 -84.833 -7.5 -116.5s6.66699 -57.667 15 -78s19.333 -36.166 33 -47.499s29.334 -19.5 47.001 -24.5s36.834 -8 57.501 -9s42 -1.5 64 -1.5z" />
    <glyph glyph-name="R" unicode="R" horiz-adv-x="669" 
d="M527 0l-137.998 230.998h-206l-32 -231h-72l90 642h260c47.333 0 86.666 -2.5 117.999 -7.5s55.666 -14.833 72.999 -29.5s28.166 -35.5 32.499 -62.5s3.5 -62.5 -2.5 -106.5c-5.33301 -35.333 -12.166 -65 -20.499 -89s-19.5 -43.667 -33.5 -59s-31 -27.166 -51 -35.499
s-44 -14.166 -72 -17.499l145 -235h-91zM381.002 287.998c31.333 0 58.165 1.16602 80.498 3.49902s41 8.33301 56 18s27 24.334 36 44.001s16.167 47.167 21.5 82.5c4.66699 36.667 5.33398 65 2.00098 85s-11.166 34.667 -23.499 44s-29.333 15 -51 17s-48.167 3 -79.5 3
h-190l-42 -297h190z" />
    <glyph glyph-name="S" unicode="S" horiz-adv-x="624" 
d="M600 562c-9.33301 3.33301 -21.335 6.99805 -36.002 10.998s-31 7.83301 -49 11.5s-37.167 6.66699 -57.5 9s-40.5 3.5 -60.5 3.5c-59.333 0 -105.5 -8.5 -138.5 -25.5s-52.5 -48.167 -58.5 -93.5c-3.33301 -21.333 -4.66602 -37.666 -3.99902 -48.999
s4.83398 -20.5 12.501 -27.5s19.5 -12.667 35.5 -17s38 -9.5 66 -15.5c36 -8 72.5 -15.167 109.5 -21.5s70 -15.666 99 -27.999s51.667 -29.5 68 -51.5s22.166 -52.333 17.499 -91c-5.33301 -38.667 -16 -70.167 -32 -94.5s-36.167 -43.5 -60.5 -57.5
s-52.833 -23.5 -85.5 -28.5s-68 -7.5 -106 -7.5c-23.333 0 -47.833 1.16699 -73.5 3.5s-50.667 5.83301 -75 10.5s-47 9.83398 -68 15.501s-38.5 12.167 -52.5 19.5c7.33301 10 13.833 19.333 19.5 28s12.167 17.667 19.5 27c8.66699 -4 21 -8.66699 37 -14
s34.667 -10.333 56 -15s45 -8.66699 71 -12s53.667 -5 83 -5c28 0 53.333 0.666992 76 2s42.334 6 59.001 14s30.334 20.5 41.001 37.5s18.334 41.167 23.001 72.5c2.66699 20 2.5 35.833 -0.5 47.5s-9.33301 21 -19 28s-23.167 12.5 -40.5 16.5s-39 8.66699 -65 14
c-54.667 10.667 -101 20.167 -139 28.5s-68.333 19 -91 32s-38 30.333 -46 52s-9.33301 50.834 -4 87.501c4 29.333 13.667 55 29 77s34.833 40.167 58.5 54.5s50.167 25.166 79.5 32.499s60 11 92 11c23.333 0 47.166 -0.833008 71.499 -2.5s47.666 -4.16699 69.999 -7.5
s43 -7.33301 62 -12s34.833 -10.334 47.5 -17.001z" />
    <glyph glyph-name="T" unicode="T" horiz-adv-x="543" 
d="M234 0l82 585h-227l18 57h529l-18 -57h-230l-82 -585h-72z" />
    <glyph glyph-name="U" unicode="U" horiz-adv-x="686" 
d="M633 642h71l-53 -372c-7.33301 -50 -16.666 -92.833 -27.999 -128.5s-28.333 -64.667 -51 -87s-52.334 -38.833 -89.001 -49.5s-83.667 -16 -141 -16s-103.166 5.33301 -137.499 16s-59.833 27.167 -76.5 49.5s-26 51.333 -28 87s0.666992 78.5 8 128.5l53 372h71
l-52 -371c-6 -40 -8.83301 -74.167 -8.5 -102.5s6.33301 -51.5 18 -69.5s30.167 -31.167 55.5 -39.5s60.333 -12.5 105 -12.5s80.667 4.16699 108 12.5s49.166 21.5 65.499 39.5s28.5 41.167 36.5 69.5s15 62.5 21 102.5z" />
    <glyph glyph-name="V" unicode="V" horiz-adv-x="655" 
d="M278 0l-167 642h74l120 -461l21 -121h6l55 121l250 461h74l-347 -642h-86z" />
    <glyph glyph-name="W" unicode="W" horiz-adv-x="908" 
d="M600 0l-73 532l-212 -532h-85l-97 642h74l71 -582h6l224 582h69l71 -582h6l224 582h76l-269 -642h-85z" />
    <glyph glyph-name="X" unicode="X" horiz-adv-x="696" 
d="M555 0l-139 232v-1l-30 58l-30 -38.5c-8 -10.333 -15 -18.166 -21 -23.499l-201 -227h-85l308 336l-44.5 74l-47.5 78.5l-48 79l-46 74.5h83l100 -165c10.667 -16.667 20 -33.334 28 -50.001l21 -44c9.33301 12 21.333 26.167 36 42.5l41 44.5l160 172h75l-279 -302
l103.5 -169.5l103.5 -170.5h-88z" />
    <glyph glyph-name="Y" unicode="Y" horiz-adv-x="618" 
d="M269 0l38 273.999l-102 184l-102 184h86l52 -97.5l52 -97.5c10.667 -19.333 21.5 -40.666 32.5 -63.999l29.5 -63l47 62c18.667 24.667 37 47.667 55 69l79.5 95.5l80.5 95.5h79l-317 -368l-38 -274h-72z" />
    <glyph glyph-name="Z" unicode="Z" horiz-adv-x="585" 
d="M28 0l9 67l512 518h-419l18 57h485l-9 -63l-517 -521h456l-18 -58h-517z" />
    <glyph glyph-name="bracketleft" unicode="[" horiz-adv-x="248" 
d="M52 -186l132 936h169l-17 -47h-94l-118 -842h104l-17 -47h-159z" />
    <glyph glyph-name="backslash" unicode="\" horiz-adv-x="270" 
d="M194 -11l-102 672h72l104 -672h-74z" />
    <glyph glyph-name="bracketright" unicode="]" horiz-adv-x="253" 
d="M-26 -186l17 47h93l118 842h-104l17 47h159l-132 -936h-168z" />
    <glyph glyph-name="asciicircum" unicode="^" horiz-adv-x="499" 
d="M482 500l-135 194l-187 -194h-69l235 251h58l164 -251h-66z" />
    <glyph glyph-name="underscore" unicode="_" horiz-adv-x="708" 
d="M52 -186l6 38h549l-6 -38h-549z" />
    <glyph glyph-name="grave" unicode="`" horiz-adv-x="170" 
d="M173 547l-79 107h86l38 -107h-45z" />
    <glyph glyph-name="a" unicode="a" horiz-adv-x="703" 
d="M647 -1c-32.667 4.66699 -55.8359 14.3301 -69.5029 28.9971s-21.167 38.334 -22.5 71.001c-28 -35.333 -62.833 -62.333 -104.5 -81s-90.5 -28 -146.5 -28c-38 0 -72.5 3 -103.5 9s-56.667 16.5 -77 31.5s-35 35.333 -44 61s-10.833 57.834 -5.5 96.501
s16.166 70.834 32.499 96.501s36.833 46 61.5 61s53.334 25.5 86.001 31.5s68 9 106 9h218c4.66699 49.333 5 88.166 1 116.499s-13.167 49.5 -27.5 63.5s-34 22.833 -59 26.5s-56.5 5.5 -94.5 5.5c-20 0 -40 -1.33301 -60 -4s-38.667 -6 -56 -10
s-33.333 -8.16699 -48 -12.5s-27 -8.16602 -37 -11.499l-25 53c29.333 13.333 64.333 23.666 105 30.999s84.334 11 131.001 11c54 0 98.5 -4 133.5 -12s61.833 -23.667 80.5 -47s29.5 -56.666 32.5 -99.999s-0.5 -100.333 -10.5 -171l-2 -16l-16 -112
c-3.33301 -25.333 -5.16602 -46.5 -5.49902 -63.5s1.16699 -31 4.5 -42s8.33301 -19.5 15 -25.5s15.334 -10.333 26.001 -13zM570.998 327.996l-219 -0.000976562c-28 0 -53.833 -1.5 -77.5 -4.5s-44.667 -9.33301 -63 -19s-33.5 -23.667 -45.5 -42s-20 -43.166 -24 -74.499
c-4.66699 -31.333 -3.66699 -56.166 3 -74.499s17.834 -32.333 33.501 -42s35 -16 58 -19s48.5 -4.5 76.5 -4.5c47.333 0 86.166 6 116.499 18s54.833 29.833 73.5 53.5s33 52.667 43 87s18 74.166 24 119.499z" />
    <glyph glyph-name="b" unicode="b" horiz-adv-x="675" 
d="M79 0l89.999 642.003h275c47.333 0 86.666 -2.16699 117.999 -6.5s55.666 -12.333 72.999 -24s28.5 -28.167 33.5 -49.5s5.16699 -49 0.5 -83c-3.33301 -25.333 -8 -46.333 -14 -63s-13.167 -30.834 -21.5 -42.501s-18.166 -21.5 -29.499 -29.5s-24.333 -15.333 -39 -22
c12.667 -6.66699 23.834 -13.834 33.501 -21.501s17.5 -17.334 23.5 -29.001s9.83301 -26 11.5 -43s0.833984 -37.833 -2.49902 -62.5c-4.66699 -34 -12.667 -61.833 -24 -83.5s-27.5 -38.5 -48.5 -50.5s-47.833 -20.333 -80.5 -25s-72.667 -7 -120 -7h-279z
M367.999 57.0029c31.333 0 58.166 0.5 80.499 1.5s41 4.83301 56 11.5s26.667 17.5 35 32.5s14.5 36.167 18.5 63.5c4.66699 32.667 5.16699 57.667 1.5 75s-11.5 29.833 -23.5 37.5s-28.167 12.167 -48.5 13.5s-45.166 2 -74.499 2h-221l-33 -237h209zM420.999 351.003
c29.333 0 54.1689 0.999023 74.502 2.99902s37.166 7 50.499 15s23.833 20.333 31.5 37s13.5 40 17.5 70c3.33301 24.667 3 44.334 -1 59.001s-12.333 25.667 -25 33s-29.834 12 -51.501 14s-48.167 3 -79.5 3h-205l-33 -234h221z" />
    <glyph glyph-name="c" unicode="c" horiz-adv-x="650" 
d="M618 31c-30 -13.333 -66.001 -24.0029 -108.001 -32.0029s-86.333 -12 -133 -12c-49.333 0 -93.166 4.16699 -131.499 12.5s-70 24.5 -95 48.5s-42 57.833 -51 101.5s-8.5 100.834 1.5 171.501s25.667 127.834 47 171.501s47.666 77.5 78.999 101.5
s67.5 40.167 108.5 48.5s86.167 12.5 135.5 12.5c94 0 167 -13.333 219 -40l-41 -53c-18 6.66699 -43 14.334 -75 23.001s-68.333 13 -109 13c-36 0 -69.833 -2.5 -101.5 -7.5s-60 -16.833 -85 -35.5s-46.333 -46.5 -64 -83.5s-30.834 -87.167 -39.501 -150.5
c-9.33301 -64 -10.166 -114.5 -2.49902 -151.5s21.334 -64.667 41.001 -83s44.5 -30 74.5 -35s63 -7.5 99 -7.5c20 0 40.167 1.5 60.5 4.5s39.5 6.5 57.5 10.5s34.5 8.33301 49.5 13l37.5 12z" />
    <glyph glyph-name="d" unicode="d" horiz-adv-x="689" 
d="M79 0l90.0029 642h230c48.667 0 92.5 -3.16699 131.5 -9.5s71 -20.5 96 -42.5s42.167 -54 51.5 -96s9 -98.333 -1 -169c-10 -71.333 -24.833 -128.5 -44.5 -171.5s-44.334 -75.833 -74.001 -98.5s-64.334 -37.5 -104.001 -44.5s-84.834 -10.5 -135.501 -10.5h-240z
M317.003 58c46 0 85.332 2.66797 117.999 8.00098s60 17.333 82 36s39.833 45.667 53.5 81s24.5 83 32.5 143c8.66699 63.333 9.33398 112.5 2.00098 147.5s-21 60.667 -41 77s-45.167 26.166 -75.5 29.499s-63.5 5 -99.5 5h-156l-74 -527h158z" />
    <glyph glyph-name="e" unicode="e" horiz-adv-x="704" 
d="M635 38c-14.667 -6.66699 -32.499 -13.001 -53.499 -19.001s-43.333 -11.333 -67 -16s-48 -8.5 -73 -11.5s-49.167 -4.5 -72.5 -4.5c-50 0 -93.833 4 -131.5 12s-68.167 23.833 -91.5 47.5s-39 56.667 -47 99s-7.33301 98.166 2 167.499c10 72 25.667 130.333 47 175
s47.333 79.334 78 104.001s65.167 41.334 103.5 50.001s79.833 13 124.5 13c48 0 89.833 -4.66699 125.5 -14s64.5 -26.166 86.5 -50.499s36.667 -57.5 44 -99.5s6.33301 -96 -3 -162l-4 -26h-529c-6.66699 -55.333 -7.66699 -99.833 -3 -133.5s15.667 -59.834 33 -78.501
s41.5 -31.167 72.5 -37.5s69.5 -9.5 115.5 -9.5c20 0 40.833 1.83301 62.5 5.5s42.167 8 61.5 13s37.166 10.167 53.499 15.5l39.5 13zM635.001 360.999c5.33301 51.333 5.16602 92.667 -0.500977 124s-16.5 55.5 -32.5 72.5s-37.167 28.167 -63.5 33.5s-57.166 8 -92.499 8
c-30.667 0 -59.667 -1.83301 -87 -5.5s-52.333 -13.167 -75 -28.5s-42.5 -39 -59.5 -71s-30.833 -76.333 -41.5 -133h452z" />
    <glyph glyph-name="f" unicode="f" horiz-adv-x="526" 
d="M192 303l-42 -303h-71l90 642h447l-18 -57h-366l-32 -224h325l-8 -58h-325z" />
    <glyph glyph-name="g" unicode="g" horiz-adv-x="672" 
d="M602 304l-204.996 0.000976562l18 57h263l-44 -316c-14.667 -8 -32.334 -15.333 -53.001 -22s-42.834 -12.5 -66.501 -17.5s-48.167 -8.83301 -73.5 -11.5s-50 -4 -74 -4c-50.667 0 -94.834 4 -132.501 12s-68 24 -91 48s-38.333 58 -46 102s-6.5 101.667 3.5 173
c10 70.667 25.667 127.667 47 171s47.833 76.666 79.5 99.999s67.834 39 108.501 47s85.667 12 135 12c46.667 0 89.167 -3.66699 127.5 -11s70.5 -17.666 96.5 -30.999l-41 -53c-18 6.66699 -43.833 14.667 -77.5 24s-70.834 14 -111.501 14
c-36 0 -69.667 -2.33301 -101 -7s-59.5 -16 -84.5 -34s-46.5 -45.167 -64.5 -81.5s-31.333 -86.166 -40 -149.499c-8 -60 -10.333 -108.333 -7 -145s13.5 -64.834 30.5 -84.501s41.333 -32.834 73 -39.501s71.167 -10 118.5 -10c15.333 0 31.5 1.16699 48.5 3.5
s33.667 5.16602 50 8.49902s31.666 7.33301 45.999 12s26.5 9.33398 36.5 14.001z" />
    <glyph glyph-name="h" unicode="h" horiz-adv-x="681" 
d="M530 0l43 312h-380l-43 -312h-71l90 642h71l-38 -271h380l38 271h71l-90 -642h-71z" />
    <glyph glyph-name="i" unicode="i" horiz-adv-x="241" 
d="M79 0l90 642h72l-90 -642h-72z" />
    <glyph glyph-name="j" unicode="j" horiz-adv-x="322" 
d="M12 48c31.333 0 58.166 0.832031 80.499 2.49902s41 7.33398 56 17.001s27 24.5 36 44.5s16.167 48.333 21.5 85l63 445h71l-62 -441c-6 -44 -15 -79.5 -27 -106.5s-28.833 -47.833 -50.5 -62.5s-48.667 -24.5 -81 -29.5s-72.166 -7.5 -119.499 -7.5z" />
    <glyph glyph-name="k" unicode="k" horiz-adv-x="680" 
d="M627 0c-17.333 -2.66699 -33.001 -3.5 -47.001 -2.5s-27.5 5.16699 -40.5 12.5s-26 18.333 -39 33s-27.167 34.667 -42.5 60l-115 189h-158l-41 -292h-71l90 642h71l-41 -293h158l264 293h89l-145 -160.5l-146 -160.5l115 -186c12.667 -20 23.834 -35.667 33.501 -47
s19 -19.833 28 -25.5s18 -9 27 -10s18.5 -0.833008 28.5 0.5z" />
    <glyph glyph-name="l" unicode="l" horiz-adv-x="532" 
d="M79 0l90 642h71l-82 -584h382l-18 -58h-443z" />
    <glyph glyph-name="m" unicode="m" horiz-adv-x="855" 
d="M707 0l78 562h-3l-316 -562h-78l-160 562h-3l-78 -562h-68l90 642h108l133 -462l25 -121l59 121l263 462h108l-90 -642h-68z" />
    <glyph glyph-name="n" unicode="n" horiz-adv-x="685" 
d="M526 0l-303 544l-76 -544h-68l90 642h80l303 -542l76 542h67l-90 -642h-79z" />
    <glyph glyph-name="o" unicode="o" 
d="M463 599c-32.667 0 -64.1699 -1.5 -94.5029 -4.5s-58.166 -13.167 -83.499 -30.5s-47.333 -44.833 -66 -82.5s-33 -90.834 -43 -159.501c-6.66699 -46 -9.16699 -84.833 -7.5 -116.5s6.66699 -57.667 15 -78s19.333 -36.166 33 -47.499s29.334 -19.5 47.001 -24.5
s36.834 -8 57.501 -9s42 -1.5 64 -1.5c21.333 0 42.333 0.5 63 1.5s40.667 4 60 9s37.5 13.167 54.5 24.5s32.5 27.166 46.5 47.499s26.333 46.333 37 78s19.334 70.5 26.001 116.5c10 68.667 10.667 121.834 2 159.501s-23.334 65.167 -44.001 82.5s-45.667 27.5 -75 30.5
s-60 4.5 -92 4.5zM101.997 322c10 72 26.501 129.833 49.501 173.5s50.667 77.334 83 101.001s68.666 39.334 108.999 47.001s82.833 11.5 127.5 11.5s86 -3.83301 124 -11.5s69.833 -23.334 95.5 -47.001s43.834 -57.334 54.501 -101.001s11 -101.5 1 -173.5
s-26.5 -129.833 -49.5 -173.5s-50.833 -77.334 -83.5 -101.001s-69 -39.334 -109 -47.001s-82.333 -11.5 -127 -11.5s-86 3.83301 -124 11.5s-69.833 23.334 -95.5 47.001s-43.834 57.334 -54.501 101.001s-11 101.5 -1 173.5z" />
    <glyph glyph-name="p" unicode="p" horiz-adv-x="595" 
d="M79 0l90.0039 642h259c47.333 0 86.666 -2.5 117.999 -7.5s55.666 -14.833 72.999 -29.5s28.166 -35.5 32.499 -62.5s3.5 -62.5 -2.5 -106.5s-15 -79.5 -27 -106.5s-28.833 -47.667 -50.5 -62s-48.834 -24 -81.501 -29s-72.667 -7.5 -120 -7.5h-187l-32 -231h-72z
M574.004 439c4.66699 34.667 5.33301 61.834 2 81.501s-11.166 34.334 -23.499 44.001s-29.333 15.5 -51 17.5s-48.167 3 -79.5 3h-189l-42 -297h189c31.333 0 58.166 1 80.499 3s41 7.66699 56 17s27 23.666 36 42.999s15.833 46.666 20.5 81.999z" />
    <glyph glyph-name="q" unicode="q" horiz-adv-x="753" 
d="M702 -71c-20.667 -16 -41.3291 -27.668 -61.9961 -35.001s-42.667 -11 -66 -11c-20.667 0 -40.334 3.16699 -59.001 9.5s-36.834 13.333 -54.501 21s-35.5 14.667 -53.5 21s-36.667 9.5 -56 9.5s-38 -3.16699 -56 -9.5s-40.333 -19.5 -67 -39.5l8 56
c19.333 18 42.666 31.333 69.999 40c-37.333 2.66699 -71.166 9.5 -101.499 20.5s-55.333 28.833 -75 53.5s-33.334 57.667 -41.001 99s-6.83398 94 2.49902 158c10 72 26.5 129.833 49.5 173.5s50.667 77.334 83 101.001s68.666 39.334 108.999 47.001
s82.833 11.5 127.5 11.5s86 -3.83301 124 -11.5s69.833 -23.334 95.5 -47.001s43.834 -57.334 54.501 -101.001s11 -101.5 1 -173.5c-9.33301 -64 -23.5 -116.667 -42.5 -158s-42.167 -74.333 -69.5 -99s-57.833 -42.5 -91.5 -53.5s-69.5 -17.833 -107.5 -20.5
c15.333 -4 30.333 -9.16699 45 -15.5s29 -12.166 43 -17.499s27.5 -10 40.5 -14s25.833 -6 38.5 -6c18 0 37.667 4.66699 59 14s41.333 21 60 35zM374.005 44.999c21.333 0 42.3301 0.5 62.9971 1.5s40.667 4 60 9s37.5 13.167 54.5 24.5s32.5 27.166 46.5 47.499
s26.333 46.333 37 78s19.334 70.5 26.001 116.5c10 68.667 10.667 121.834 2 159.501s-23.334 65.167 -44.001 82.5s-45.667 27.5 -75 30.5s-60 4.5 -92 4.5c-32.667 0 -64.167 -1.5 -94.5 -4.5s-58.166 -13.167 -83.499 -30.5s-47.333 -44.833 -66 -82.5
s-33 -90.834 -43 -159.501c-6.66699 -46 -9.16699 -84.833 -7.5 -116.5s6.66699 -57.667 15 -78s19.333 -36.166 33 -47.499s29.334 -19.5 47.001 -24.5s36.834 -8 57.501 -9s42 -1.5 64 -1.5z" />
    <glyph glyph-name="r" unicode="r" horiz-adv-x="681" 
d="M628 0c-17.333 -2.66699 -32.999 -3.50195 -46.999 -2.50195s-27.5 5.16699 -40.5 12.5s-26 18.333 -39 33s-27.167 34.667 -42.5 60l-76 128h-18h-187l-32 -231h-72l90 642h259c47.333 0 86.666 -2.5 117.999 -7.5s55.666 -14.833 72.999 -29.5
s28.166 -35.5 32.499 -62.5s3.5 -62.5 -2.5 -106.5c-5.33301 -35.333 -12.166 -65 -20.499 -89s-19.5 -43.667 -33.5 -59s-31 -27.166 -51 -35.499s-44 -14.166 -72 -17.499l62 -100c12.667 -20 23.834 -35.667 33.501 -47s19 -19.833 28 -25.5s18 -9 27 -10
s18.5 -0.833008 28.5 0.5zM375.001 287.998c31.333 0 58.165 1.16602 80.498 3.49902s41 8.33301 56 18s27 24.334 36 44.001s16.167 47.167 21.5 82.5c4.66699 36.667 5.33398 65 2.00098 85s-11.166 34.667 -23.499 44s-29.333 15 -51 17s-48.167 3 -79.5 3h-189l-42 -297
h189z" />
    <glyph glyph-name="s" unicode="s" horiz-adv-x="624" 
d="M600 562c-9.33301 3.33301 -21.335 6.99805 -36.002 10.998s-31 7.83301 -49 11.5s-37.167 6.66699 -57.5 9s-40.5 3.5 -60.5 3.5c-59.333 0 -105.5 -8.5 -138.5 -25.5s-52.5 -48.167 -58.5 -93.5c-3.33301 -21.333 -4.66602 -37.666 -3.99902 -48.999
s4.83398 -20.5 12.501 -27.5s19.5 -12.667 35.5 -17s38 -9.5 66 -15.5c36 -8 72.5 -15.167 109.5 -21.5s70 -15.666 99 -27.999s51.667 -29.5 68 -51.5s22.166 -52.333 17.499 -91c-5.33301 -38.667 -16 -70.167 -32 -94.5s-36.167 -43.5 -60.5 -57.5
s-52.833 -23.5 -85.5 -28.5s-68 -7.5 -106 -7.5c-23.333 0 -47.833 1.16699 -73.5 3.5s-50.667 5.83301 -75 10.5s-47 9.83398 -68 15.501s-38.5 12.167 -52.5 19.5c7.33301 10 13.833 19.333 19.5 28s12.167 17.667 19.5 27c8.66699 -4 21 -8.66699 37 -14
s34.667 -10.333 56 -15s45 -8.66699 71 -12s53.667 -5 83 -5c28 0 53.333 0.666992 76 2s42.334 6 59.001 14s30.334 20.5 41.001 37.5s18.334 41.167 23.001 72.5c2.66699 20 2.5 35.833 -0.5 47.5s-9.33301 21 -19 28s-23.167 12.5 -40.5 16.5s-39 8.66699 -65 14
c-54.667 10.667 -101 20.167 -139 28.5s-68.333 19 -91 32s-38 30.333 -46 52s-9.33301 50.834 -4 87.501c4 29.333 13.667 55 29 77s34.833 40.167 58.5 54.5s50.167 25.166 79.5 32.499s60 11 92 11c23.333 0 47.166 -0.833008 71.499 -2.5s47.666 -4.16699 69.999 -7.5
s43 -7.33301 62 -12s34.833 -10.334 47.5 -17.001z" />
    <glyph glyph-name="t" unicode="t" horiz-adv-x="543" 
d="M234 0l82 585h-227l18 57h529l-18 -57h-230l-82 -585h-72z" />
    <glyph glyph-name="u" unicode="u" horiz-adv-x="668" 
d="M633 642h71l-53 -372c-7.33301 -50 -16.666 -92.833 -27.999 -128.5s-28.333 -64.667 -51 -87s-52.334 -38.833 -89.001 -49.5s-83.667 -16 -141 -16s-103.166 5.33301 -137.499 16s-59.833 27.167 -76.5 49.5s-26 51.333 -28 87s0.666992 78.5 8 128.5l53 372h71
l-52 -371c-6 -40 -8.83301 -74.167 -8.5 -102.5s6.33301 -51.5 18 -69.5s30.167 -31.167 55.5 -39.5s60.333 -12.5 105 -12.5s80.667 4.16699 108 12.5s49.166 21.5 65.499 39.5s28.5 41.167 36.5 69.5s15 62.5 21 102.5z" />
    <glyph glyph-name="v" unicode="v" horiz-adv-x="655" 
d="M278 0l-167 642h74l120 -461l21 -121h6l55 121l250 461h74l-347 -642h-86z" />
    <glyph glyph-name="w" unicode="w" horiz-adv-x="908" 
d="M600 0l-73 532l-212 -532h-85l-97 642h74l71 -582h6l224 582h69l71 -582h6l224 582h76l-269 -642h-85z" />
    <glyph glyph-name="x" unicode="x" horiz-adv-x="696" 
d="M555 0l-139 232v-1l-30 58l-30 -38.5c-8 -10.333 -15 -18.166 -21 -23.499l-201 -227h-85l308 336l-44.5 74l-47.5 78.5l-48 79l-46 74.5h83l100 -165c10.667 -16.667 20 -33.334 28 -50.001l21 -44c9.33301 12 21.333 26.167 36 42.5l41 44.5l160 172h75l-279 -302
l103.5 -169.5l103.5 -170.5h-88z" />
    <glyph glyph-name="y" unicode="y" horiz-adv-x="618" 
d="M269 0l38 273.999l-102 184l-102 184h86l52 -97.5l52 -97.5c10.667 -19.333 21.5 -40.666 32.5 -63.999l29.5 -63l47 62c18.667 24.667 37 47.667 55 69l79.5 95.5l80.5 95.5h79l-317 -368l-38 -274h-72z" />
    <glyph glyph-name="z" unicode="z" horiz-adv-x="585" 
d="M28 0l9 67l512 518h-419l18 57h485l-9 -63l-517 -521h456l-18 -58h-517z" />
    <glyph glyph-name="braceleft" unicode="{" horiz-adv-x="282" 
d="M214 -197c-14.667 0 -27.3301 0.333008 -37.9971 1s-19.334 2 -26.001 4c-16.667 5.33301 -30 14.5 -40 27.5s-16 33.167 -18 60.5c-0.666992 10 0 26.5 2 49.5s4.33301 47 7 72s5 48 7 69s2.66699 34.5 2 40.5c-1.33301 22.667 -9 40.834 -23 54.501s-33 21.5 -57 23.5
l8 54c20.667 2 38 7 52 15s25.5 19.5 34.5 34.5s16.333 33.833 22 56.5s10.834 49.667 15.501 81c6 40 12 72.667 18 98s13.333 45.666 22 60.999s19 26.833 31 34.5s27 13.5 45 17.5c5.33301 1.33301 12.833 2.33301 22.5 3s20.834 1 33.501 1h16l-7 -51h-5
c-17.333 0 -32.166 -1.16699 -44.499 -3.5s-22.5 -7.33301 -30.5 -15s-14.5 -18.334 -19.5 -32.001s-8.83301 -31.5 -11.5 -53.5c-5.33301 -40 -10.333 -72.333 -15 -97s-8.33398 -42 -11.001 -52c-4.66699 -15.333 -9.33398 -28.5 -14.001 -39.5
s-11.334 -21.167 -20.001 -30.5s-20.5 -18.333 -35.5 -27s-34.833 -18.334 -59.5 -29.001c22 -8 39.833 -17.167 53.5 -27.5s23.667 -23.166 30 -38.499s9.66602 -34.166 9.99902 -56.499s-1.83398 -49.833 -6.50098 -82.5c-5.33301 -37.333 -9.33301 -67.333 -12 -90
s-2 -40.167 2 -52.5s12 -20.5 24 -24.5s30 -6 54 -6h5l-7 -50h-16z" />
    <glyph glyph-name="bar" unicode="|" horiz-adv-x="227" 
d="M51 -197l120 858h55l-120 -858h-55z" />
    <glyph glyph-name="braceright" unicode="}" horiz-adv-x="283" 
d="M-2 -197l5.99805 50h5c24 0 42.5 2 55.5 6s23.167 12.167 30.5 24.5s12.833 29.833 16.5 52.5s8.16699 52.667 13.5 90c4.66699 32.667 10.167 60.167 16.5 82.5s14.833 41.166 25.5 56.499s24.334 28.166 41.001 38.499s37.334 19.5 62.001 27.5
c-22 10.667 -39.167 20.334 -51.5 29.001s-21.5 17.667 -27.5 27s-9.83301 19.5 -11.5 30.5s-2.5 24.167 -2.5 39.5c-0.666992 10 0.5 27.333 3.5 52s7.16699 57 12.5 97c2.66699 22 3.5 39.833 2.5 53.5s-4.5 24.334 -10.5 32.001s-14.833 12.667 -26.5 15
s-26.167 3.5 -43.5 3.5h-5l7 51h16c12.667 0 23.834 -0.333008 33.501 -1s17.167 -1.66699 22.5 -3c16.667 -4 30 -9.83301 40 -17.5s17.167 -19.167 21.5 -34.5s6 -35.666 5 -60.999s-4.5 -58 -10.5 -98c-4.66699 -31.333 -7.33398 -58.333 -8.00098 -81
s1.5 -41.5 6.5 -56.5s13.5 -26.5 25.5 -34.5s28 -13 48 -15l-8 -54c-24 -2 -44.833 -9.83301 -62.5 -23.5s-30.834 -31.834 -39.501 -54.501c-1.33301 -4 -3.16602 -11.667 -5.49902 -23s-4.66602 -24.333 -6.99902 -39s-5 -30.5 -8 -47.5l-9 -49l-8.5 -43
c-2.66699 -13 -5.33398 -22.833 -8.00098 -29.5c-10 -27.333 -21.833 -47.5 -35.5 -60.5s-29.167 -22.167 -46.5 -27.5c-7.33301 -2 -16.5 -3.33301 -27.5 -4s-23.833 -1 -38.5 -1h-15z" />
    <glyph glyph-name="asciitilde" unicode="~" horiz-adv-x="589" 
d="M569 302c-20.667 -16 -41.335 -27.668 -62.002 -35.001s-42.667 -11 -66 -11c-9.33301 0 -18.166 0.333008 -26.499 1s-17.166 2.33398 -26.499 5.00098c-7.33301 2 -18.333 6 -33 12s-30.5 12.167 -47.5 18.5s-33.5 12 -49.5 17s-29.333 7.5 -40 7.5
c-19.333 0 -38 -3.16699 -56 -9.5s-40.333 -19.5 -67 -39.5l9 66c38 32.667 81.333 49 130 49c18 0 37.667 -2.66699 59 -8c12 -3.33301 25.833 -8 41.5 -14l47.5 -18c16 -6 31 -11.167 45 -15.5s25 -6.5 33 -6.5c18 0 37.667 4.66699 59 14s41.333 21 60 35z" />
    <glyph glyph-name="exclamdown" unicode="&#xa1;" horiz-adv-x="170" 
d="M100 392l10 74h78l-10 -74h-78zM15 -184l19 136l73 346h35l-22 -346l-19 -136h-86z" />
    <glyph glyph-name="cent" unicode="&#xa2;" horiz-adv-x="650" 
d="M329 -118l15.0059 105.998c-44 1.33301 -83.167 7 -117.5 17s-62.333 27.167 -84 51.5s-36.334 57.833 -44.001 100.5s-6.83398 97.334 2.49902 164.001s23.833 121.334 43.5 164.001s43.667 76.167 72 100.5s61.166 41.5 98.499 51.5s78 15.667 122 17l13 86h55l-12 -85
c82 -2 147.667 -15.333 197 -40l-41 -53c-16.667 6 -39.334 13 -68.001 21s-61 12.667 -97 14l-77 -553c18.667 0.666992 37 2.66699 55 6s35.167 7 51.5 11s31.166 8 44.499 12s24.666 7.66699 33.999 11l26 -53c-28 -12 -61 -21.833 -99 -29.5s-78 -12.167 -120 -13.5
l-15 -106h-55zM429.006 596.998c-32 -1.33301 -61.6641 -5.49707 -88.9971 -12.4971s-51.833 -20.333 -73.5 -40s-40.334 -47.334 -56.001 -83.001s-27.5 -82.5 -35.5 -140.5c-8 -58.667 -9.33301 -105.834 -4 -141.501s16.166 -63.334 32.499 -83.001
s37.166 -33 62.499 -40s54 -11.167 86 -12.5z" />
    <glyph glyph-name="sterling" unicode="&#xa3;" horiz-adv-x="516" 
d="M34 51c32.667 17.333 61.3291 41.3311 85.9961 71.998s40.334 68 47.001 112c1.33301 10 1.83301 20.667 1.5 32s-1.16602 23.333 -2.49902 36h-92l7 46h77l-4 26l-5 39.5c-1.33301 10.333 -2.16602 19.333 -2.49902 27s-0.333008 14.334 0 20.001
s1.16602 12.167 2.49902 19.5c4 26.667 12.5 51 25.5 73s29.5 41 49.5 57s43.167 28.333 69.5 37s54.833 13 85.5 13c54 0 96.667 -13.333 128 -40s48.333 -64.667 51 -114l-65 -8c-3.33301 35.333 -15.833 63.5 -37.5 84.5s-49.5 31.5 -83.5 31.5
c-19.333 0 -37.5 -3.16699 -54.5 -9.5s-32.333 -15 -46 -26s-24.834 -24 -33.501 -39s-14 -30.833 -16 -47.5c-6 -36.667 -3.33301 -84.667 8 -144h149l-7 -46h-141c3.33301 -11.333 5.83301 -21 7.5 -29s1.83398 -15.333 0.500977 -22
c-3.33301 -25.333 -15.666 -54.166 -36.999 -86.499s-53.666 -68.166 -96.999 -107.499c24.667 11.333 48.5 17.666 71.5 18.999s45.333 0.5 67 -2.5s43 -7.16699 64 -12.5s41.833 -9.33301 62.5 -12s41.167 -3 61.5 -1s40.833 8.66699 61.5 20
c2 -11.333 4.16699 -21 6.5 -29s4.5 -16.667 6.5 -26c-25.333 -13.333 -50.833 -20.5 -76.5 -21.5s-51.167 0.666992 -76.5 5s-50.833 9.83301 -76.5 16.5s-51.167 11.5 -76.5 14.5s-50.5 2.16699 -75.5 -2.5s-49.833 -16 -74.5 -34z" />
    <glyph glyph-name="currency" unicode="&#xa4;" horiz-adv-x="571" 
d="M424 175c-39.333 -25.333 -79.3311 -38 -119.998 -38c-38 0 -74.333 12.667 -109 38l-75 -64l-32 40l72 62c-19.333 34.667 -26.333 71 -21 109c2.66699 17.333 8.16699 35.333 16.5 54s20.166 36.667 35.499 54l-56 62l44 40l57 -62c39.333 23.333 79 35 119 35
c41.333 0 78.333 -11.667 111 -35l73 63c7.33301 -7.33301 13.333 -14.333 18 -21s10.334 -13.667 17.001 -21l-73 -61c10 -17.333 16.833 -35.333 20.5 -54s4.16699 -36.667 1.5 -54c-4.66699 -36 -22.334 -72.333 -53.001 -109l26.5 -29.5
c10.333 -11.667 20.166 -22.167 29.499 -31.5l-46 -42zM249.002 414c-30.667 -26.667 -48.334 -57.334 -53.001 -92.001c-4.66699 -36.667 4.33301 -67.334 27 -92.001s52 -37 88 -37c38 0 71.667 12.333 101 37c15.333 13.333 27.333 27.333 36 42
s14.334 31.334 17.001 50.001c4.66699 34.667 -4.33301 65.334 -27 92.001c-22.667 24.667 -53 37 -91 37c-36 0 -68.667 -12.333 -98 -37z" />
    <glyph glyph-name="yen" unicode="&#xa5;" horiz-adv-x="546" 
d="M327 149l-19.9971 -148.999h-66l20 149h-199l6 43h199l12 85h-199l7 48h172l-150 317h70c17.333 -38.667 35.166 -75.667 53.499 -111s36.166 -72.333 53.499 -111c5.33301 -14 11.166 -30.167 17.499 -48.5s10.833 -32.5 13.5 -42.5c8 13.333 17.5 28.166 28.5 44.499
l33.5 49.5l159 219h78l-239 -317h172l-7 -48h-197l-12 -85h197l-6 -43h-197z" />
    <glyph glyph-name="brokenbar" unicode="&#xa6;" horiz-adv-x="188" 
d="M124 321l47 340h55l-47 -340h-55zM51 -197l48 341h55l-48 -341h-55z" />
    <glyph glyph-name="section" unicode="&#xa7;" horiz-adv-x="515" 
d="M357 -8c-7.33301 11.333 -24.5 26.835 -51.5 46.502s-59.5 42.167 -97.5 67.5c-21.333 14 -39.666 26.5 -54.999 37.5s-26.666 19.833 -33.999 26.5c-15.333 14 -27 31 -35 51s-10.333 41 -7 63c4 26.667 17.833 51.334 41.5 74.001s54.5 39.667 92.5 51
c-22 23.333 -37.333 44.333 -46 63s-11.667 37.334 -9 56.001c4 35.333 23.333 66.666 58 93.999c32.667 26 74.334 39 125.001 39c54 0 95 -12 123 -36s43 -58 45 -102l-69 -7c-2.66699 36.667 -12 62.334 -28 77.001s-39.333 22 -70 22c-16 0 -31 -2.33301 -45 -7
s-26.333 -11 -37 -19s-19.334 -17 -26.001 -27s-10.667 -20.333 -12 -31c-1.33301 -8.66699 -1 -17 1 -25s6 -16.333 12 -25c18 -24 63 -58.333 135 -103c23.333 -14.667 42.333 -27.334 57 -38.001s26 -19.334 34 -26.001c19.333 -17.333 32.5 -35 39.5 -53
s8.83301 -37.667 5.5 -59c-4 -32 -18 -59 -42 -81c-14.667 -14 -46.334 -30 -95.001 -48c52 -42.667 74.667 -86.334 68 -131.001c-1.33301 -19.333 -7.83301 -37.5 -19.5 -54.5s-26.667 -32 -45 -45s-39 -23.167 -62 -30.5s-46.833 -10.333 -71.5 -9
c-56.667 0 -100 12.667 -130 38s-45.667 61.333 -47 108l67 8c5.33301 -38.667 17.166 -65.834 35.499 -81.501s45.5 -23.5 81.5 -23.5c18 0 34.333 2.5 49 7.5s27.5 11.667 38.5 20s19.833 17.833 26.5 28.5s10.667 22 12 34c2.66699 18 -2 34.667 -14 50h1zM352 92.002
c28 13.333 49.332 28.332 63.999 44.999s23.334 33 26.001 49c2 20.667 -4 41.334 -18 62.001c-7.33301 11.333 -19.5 23.333 -36.5 36s-38.167 27.667 -63.5 45c-21.333 13.333 -39.666 25.666 -54.999 36.999l-39 29c-31.333 -17.333 -54.333 -33.666 -69 -48.999
s-23.334 -32.666 -26.001 -51.999c-3.33301 -23.333 1.66699 -44.333 15 -63c13.333 -18 44 -42 92 -72l56 -34c17.333 -10.667 32 -21.334 44 -32.001z" />
    <glyph glyph-name="dieresis" unicode="&#xa8;" horiz-adv-x="409" 
d="M160 581l10 73h70l-10 -73h-70zM338 581l10 73h70l-10 -73h-70z" />
    <glyph glyph-name="copyright" unicode="&#xa9;" 
d="M377 -11c-44.667 0 -85.999 3.83301 -123.999 11.5s-69.833 23.334 -95.5 47.001s-43.834 57.334 -54.501 101.001s-11 101.5 -1 173.5s26.5 129.833 49.5 173.5s50.667 77.334 83 101.001s68.666 39.334 108.999 47.001s82.833 11.5 127.5 11.5s86 -3.83301 124 -11.5
s69.833 -23.334 95.5 -47.001s43.834 -57.334 54.501 -101.001s11 -101.5 1 -173.5s-26.5 -129.833 -49.5 -173.5s-50.833 -77.334 -83.5 -101.001s-69 -39.334 -109 -47.001s-82.333 -11.5 -127 -11.5zM561.001 147c-20 -8.66699 -44.1611 -16.333 -72.4941 -23
s-56.5 -10 -84.5 -10c-30.667 0 -57.334 2.33301 -80.001 7s-41 14.334 -55 29.001s-23.333 35.334 -28 62.001s-4 61.667 2 105c6 42.667 15.5 77.167 28.5 103.5s29 46.666 48 60.999s40.833 23.833 65.5 28.5s51.667 7 81 7c28 0 54.167 -2.66699 78.5 -8
s45.5 -12.666 63.5 -21.999l-34 -46c-11.333 4.66699 -27.333 9.83398 -48 15.501s-42.334 8.5 -65.001 8.5c-19.333 0 -37.5 -1.16699 -54.5 -3.5s-32.333 -8.33301 -46 -18s-25.334 -24.334 -35.001 -44.001s-16.834 -46.834 -21.501 -81.501
c-4.66699 -32.667 -6 -58.834 -4 -78.501s7.5 -35 16.5 -46s22 -18.333 39 -22s38.5 -5.5 64.5 -5.5c19.333 0 38.166 2.5 56.499 7.5s33.166 9.5 44.499 13.5l18 6zM382.007 25.001c34.667 0 69.332 1.66992 103.999 5.00293s66.834 14.166 96.501 32.499
s55.667 47.666 78 87.999s38.833 97.5 49.5 171.5c6.66699 49.333 8.5 91 5.5 125s-9.83301 62 -20.5 84s-24.334 38.833 -41.001 50.5s-35.167 20.334 -55.5 26.001s-42 9 -65 10s-45.833 1.5 -68.5 1.5c-23.333 0 -46.833 -0.5 -70.5 -1.5s-46.5 -4.33301 -68.5 -10
s-42.833 -14.334 -62.5 -26.001s-37.667 -28.5 -54 -50.5s-30.666 -50 -42.999 -84s-21.833 -75.667 -28.5 -125c-7.33301 -49.333 -9.5 -91 -6.5 -125s9.5 -62 19.5 -84s23.333 -38.833 40 -50.5s35.167 -20.334 55.5 -26.001s42 -9 65 -10s46.5 -1.5 70.5 -1.5z" />
    <glyph glyph-name="guillemotleft" unicode="&#xab;" horiz-adv-x="465" 
d="M173 32l-58.5 100.5l-58.5 98.5l173 198h45l-145 -198l88 -199h-44zM357 32l-114 199l170 198h49l-148 -198l92 -199h-49z" />
    <glyph glyph-name="logicalnot" unicode="&#xac;" horiz-adv-x="522" 
d="M407 194l28 201h-380l8 56h441l-36 -257h-61z" />
    <glyph glyph-name="registered" unicode="&#xae;" horiz-adv-x="636" 
d="M530 320c-8 -4.66699 -15.502 -8.33203 -22.502 -10.999s-13.167 -4 -18.5 -4c-12.667 0 -23.667 4.66699 -33 14s-19.666 23.666 -30.999 42.999l-35 57h-83l-15 -108h-50l44 315h130c23.333 0 42.833 -1.16699 58.5 -3.5s27.834 -7.33301 36.501 -15
s14 -18.167 16 -31.5s1.66699 -31 -1 -53c-4.66699 -32 -13 -55.667 -25 -71s-29.667 -25.333 -53 -30l23 -36c9.33301 -16.667 18 -27.167 26 -31.5s17.333 -4.5 28 -0.5zM393.998 461.002c12.667 0 23.833 0.5 33.5 1.5s17.667 3.5 24 7.5s11.5 10.167 15.5 18.5
s7 19.833 9 34.5s2.16699 26.167 0.5 34.5s-5 14.5 -10 18.5s-12.167 6.33301 -21.5 7s-20.333 1 -33 1h-81l-18 -123h81zM345.997 202.002c-36 0 -69.333 3.16699 -100 9.5s-56.5 19 -77.5 38s-35.833 46.333 -44.5 82s-9 82.5 -1 140.5s21.333 104.833 40 140.5
s41.167 63 67.5 82s55.833 31.667 88.5 38s67 9.5 103 9.5s69.333 -3.16699 100 -9.5s56.5 -19 77.5 -38s35.833 -46.333 44.5 -82s9 -82.5 1 -140.5s-21.333 -104.833 -40 -140.5s-41.167 -63 -67.5 -82s-55.833 -31.667 -88.5 -38s-67 -9.5 -103 -9.5zM351.997 242.002
c26.667 0 53.3311 1.16699 79.998 3.5s51.5 10.833 74.5 25.5s43.167 37.5 60.5 68.5s30 75.167 38 132.5c5.33301 38 6.83301 70.167 4.5 96.5s-7.5 48 -15.5 65s-18.5 30.167 -31.5 39.5s-27.333 16.166 -43 20.499s-32.5 6.83301 -50.5 7.5s-35.667 1 -53 1
c-27.333 0 -54.5 -1.16699 -81.5 -3.5s-51.833 -10.833 -74.5 -25.5s-42.5 -37.5 -59.5 -68.5s-29.5 -75.167 -37.5 -132.5c-5.33301 -38 -6.83301 -70.167 -4.5 -96.5s7.33301 -48 15 -65s17.834 -30.167 30.501 -39.5s27 -16.166 43 -20.499s32.833 -6.83301 50.5 -7.5
s35.834 -1 54.501 -1z" />
    <glyph glyph-name="macron" unicode="&#xaf;" horiz-adv-x="433" 
d="M183 745l6 38h275l-6 -38h-275z" />
    <glyph glyph-name="degree" unicode="&#xb0;" horiz-adv-x="340" 
d="M148 461c-20 24 -28.001 52.335 -24.001 85.002c2.66699 15.333 7.83398 29.833 15.501 43.5s18.5 26.167 32.5 37.5c26.667 22.667 57 34 91 34s61 -11.333 81 -34c22 -22 30.333 -49 25 -81c-4 -32.667 -20 -60.334 -48 -83.001c-27.333 -23.333 -57.333 -35 -90 -35
c-16 0 -31.167 3.16699 -45.5 9.5s-26.833 14.166 -37.5 23.499zM337.999 546.002c2 12 1.16504 23.167 -2.50195 33.5s-9 19.333 -16 27s-15.833 13.834 -26.5 18.501s-22 7 -34 7s-23.833 -2.33301 -35.5 -7s-22.167 -10.834 -31.5 -18.501s-17.166 -16.667 -23.499 -27
s-10.5 -21.5 -12.5 -33.5c-3.33301 -24 2.83398 -44.833 18.501 -62.5s35.834 -26.5 60.501 -26.5c12 0 23.833 2.33301 35.5 7s22.167 11.167 31.5 19.5s17.166 17.833 23.499 28.5s10.5 22 12.5 34z" />
    <glyph glyph-name="plusminus" unicode="&#xb1;" horiz-adv-x="451" 
d="M298 304l-26 -185h-61l26 185h-190l8 54h190l26 184h61l-26 -184h190l-8 -54h-190zM5 0l7 56h441l-7 -56h-441z" />
    <glyph glyph-name="acute" unicode="&#xb4;" horiz-adv-x="174" 
d="M107 547l68 107h85l-52 -53.5l-51 -53.5h-50z" />
    <glyph glyph-name="paragraph" unicode="&#xb6;" horiz-adv-x="575" 
d="M373 -186l110 777.999h-128l-110 -778h-57l68 479c-30 0.666992 -56.5 5.5 -79.5 14.5s-41.667 21.333 -56 37s-24.5 33.834 -30.5 54.501s-7.33301 43.667 -4 69c8 55.333 32.667 99.5 74 132.5s97.333 49.5 168 49.5h293l-8 -58h-69l-110 -778h-61z" />
    <glyph glyph-name="periodcentered" unicode="&#xb7;" horiz-adv-x="245" 
d="M120 292l10 73h77l-10 -73h-77z" />
    <glyph glyph-name="cedilla" unicode="&#xb8;" horiz-adv-x="239" 
d="M10 -156l3.99902 0.000976562c4.66699 -0.666992 10 -1 16 -1h14c30.667 0 54.334 4.66699 71.001 14c12.667 9.33301 20 20 22 32c0.666992 5.33301 0.666992 10.166 0 14.499s-3.16699 8.33301 -7.5 12s-10.833 6.66699 -19.5 9s-21 3.83301 -37 4.5l26 61h41l-22 -48
c28.667 -3.33301 49.334 -10.5 62.001 -21.5s18 -23.5 16 -37.5c-2.66699 -19.333 -15.834 -36.833 -39.501 -52.5s-56.5 -23.5 -98.5 -23.5c-22 0 -41.333 1 -58 3z" />
    <glyph glyph-name="ordmasculine" unicode="&#xba;" horiz-adv-x="393" 
d="M245 339c-43.333 0 -76.832 14 -100.499 42s-31.834 67 -24.501 117c7.33301 52 26.333 92.167 57 120.5s68 42.5 112 42.5c21.333 0 40.5 -3.66699 57.5 -11s30.833 -17.833 41.5 -31.5s18.167 -30.5 22.5 -50.5s4.83301 -42.667 1.5 -68
c-7.33301 -50 -26.5 -89.333 -57.5 -118s-67.5 -43 -109.5 -43zM250.001 378c28.667 0 53.168 9.83203 73.501 29.499s33.5 51.167 39.5 94.5c5.33301 40.667 0.666016 70.834 -14.001 90.501s-36.334 29.5 -65.001 29.5c-29.333 0 -54.166 -9.66699 -74.499 -29
s-33.5 -50.333 -39.5 -93c-6 -42 -1.33301 -72.833 14 -92.5s37.333 -29.5 66 -29.5z" />
    <glyph glyph-name="guillemotright" unicode="&#xbb;" horiz-adv-x="465" 
d="M253 32l147 199l-45 99l-46 99h47l58.5 -98.5l58.5 -99.5l-173 -199h-47zM67 32l148 199l-92 198h48l57 -98.5l57 -99.5l-170 -199h-48z" />
    <glyph glyph-name="questiondown" unicode="&#xbf;" horiz-adv-x="511" 
d="M491 -113c-14.667 -6.66699 -32.168 -12.332 -52.501 -16.999s-42.166 -8.66699 -65.499 -12s-47.333 -5.83301 -72 -7.5s-48.667 -2.5 -72 -2.5c-32 0 -61.667 3.66699 -89 11s-50.666 18.166 -69.999 32.499s-33.666 32.5 -42.999 54.5s-12 47.667 -8 77
c4 28.667 10.667 52.667 20 72s22.166 35.5 38.499 48.5s36.333 23.667 60 32s52.167 15.833 85.5 22.5c27.333 5.33301 50.333 10.333 69 15s34 10.5 46 17.5s21 16.333 27 28s10.667 27.5 14 47.5l7 50h77l-8 -54c-4 -28.667 -12.833 -52.667 -26.5 -72
s-30.667 -35.166 -51 -47.499s-43.166 -22.333 -68.499 -30s-52 -14.167 -80 -19.5c-30 -6 -53.5 -11.167 -70.5 -15.5s-30.333 -10 -40 -17s-16.5 -16.333 -20.5 -28s-7.33301 -27.834 -10 -48.501c-6.66699 -45.333 4.16602 -76.5 32.499 -93.5
s72.166 -25.5 131.499 -25.5c20 0 40.5 1.16699 61.5 3.5s41 5.33301 60 9s36.5 7.5 52.5 11.5s29 7.66699 39 11zM395.999 429.002l10 73h77l-10 -73h-77z" />
    <glyph glyph-name="Agrave" unicode="&#xc0;" horiz-adv-x="657" 
d="M554 0l-53 201h-291l-108 -201h-74l347 642h86l167 -642h-74zM433 461l-21 121h-6l-55 -121l-113 -209h250zM452 707l-79 107h86l38 -107h-45z" />
    <glyph glyph-name="Aacute" unicode="&#xc1;" horiz-adv-x="657" 
d="M554 0l-53 201h-291l-108 -201h-74l347 642h86l167 -642h-74zM433 461l-21 121h-6l-55 -121l-113 -209h250zM387 689l68 107h85l-52 -53.5l-51 -53.5h-50z" />
    <glyph glyph-name="Acircumflex" unicode="&#xc2;" horiz-adv-x="657" 
d="M554 0l-53 201h-291l-108 -201h-74l347 642h86l167 -642h-74zM433 461l-21 121h-6l-55 -121l-113 -209h250zM484 689l-47 84l-71 -84h-72l52 54l51 53h80l76 -107h-69z" />
    <glyph glyph-name="Atilde" unicode="&#xc3;" horiz-adv-x="657" 
d="M554 0l-53 201h-291l-108 -201h-74l347 642h86l167 -642h-74zM433 461l-21 121h-6l-55 -121l-113 -209h250zM590 803c-6 -26.667 -17.5 -47.335 -34.5 -62.002s-36.833 -22 -59.5 -22c-9.33301 0 -19.833 2.16699 -31.5 6.5s-25.167 10.5 -40.5 18.5
c-20 12 -36 18 -48 18c-8 0 -14.833 -1.16699 -20.5 -3.5s-11.5 -6.16602 -17.5 -11.499c-3.33301 -3.33301 -6.5 -7.33301 -9.5 -12s-5.16699 -10.667 -6.5 -18h-43c2.66699 13.333 6.5 24.5 11.5 33.5s12.167 17.5 21.5 25.5c19.333 17.333 41.666 26 66.999 26
c9.33301 0 20 -2.16699 32 -6.5s25.667 -10.166 41 -17.499c18 -10 33.667 -15 47 -15c12.667 0 22.834 2.66699 30.501 8s14.167 16 19.5 32h41z" />
    <glyph glyph-name="Adieresis" unicode="&#xc4;" horiz-adv-x="657" 
d="M554 0l-53 201h-291l-108 -201h-74l347 642h86l167 -642h-74zM433 461l-21 121h-6l-55 -121l-113 -209h250zM304 723l10 73h70l-10 -73h-70zM482 723l10 73h70l-10 -73h-70z" />
    <glyph glyph-name="Aring" unicode="&#xc5;" horiz-adv-x="657" 
d="M554 0l-53 201h-291l-108 -201h-74l347 642h86l167 -642h-74zM433 461l-21 121h-6l-55 -121l-113 -209h250zM429 725c8.66699 0 16.5 1.66699 23.5 5s11.833 14 14.5 32c2.66699 17.333 0.833984 27.5 -5.49902 30.5s-13.5 4.5 -21.5 4.5
c-8.66699 0 -16.334 -1.5 -23.001 -4.5s-11.334 -13.167 -14.001 -30.5c-2.66699 -18 -1.16699 -28.667 4.5 -32s12.834 -5 21.501 -5zM425 695c-9.33301 0 -17.668 0.833008 -25.001 2.5s-13.5 4.83398 -18.5 9.50098s-8.5 11.334 -10.5 20.001s-2 20.334 0 35.001
c2 14 5.16699 25.333 9.5 34s9.83301 15.334 16.5 20.001s13.834 7.83398 21.501 9.50098s16.167 2.5 25.5 2.5c8.66699 0 16.834 -0.833008 24.501 -2.5s14.167 -4.83398 19.5 -9.50098s9 -11.334 11 -20.001s2 -20 0 -34c-2 -14.667 -5.33301 -26.334 -10 -35.001
s-10.334 -15.334 -17.001 -20.001s-14 -7.83398 -22 -9.50098s-16.333 -2.5 -25 -2.5z" />
    <glyph glyph-name="AE" unicode="&#xc6;" horiz-adv-x="819" 
d="M332 0l28 201h-150l-108 -201h-74l347 642h527l-18 -57h-398l-32 -224h323l-8 -57h-323l-34 -246h408l-18 -58h-470zM413 579l-1 3h-6l-55 -121l-113 -209h129z" />
    <glyph glyph-name="Ccedilla" unicode="&#xc7;" horiz-adv-x="650" 
d="M618 31c-30 -13.333 -66.001 -24.0029 -108.001 -32.0029s-86.333 -12 -133 -12c-49.333 0 -93.166 4.16699 -131.499 12.5s-70 24.5 -95 48.5s-42 57.833 -51 101.5s-8.5 100.834 1.5 171.501s25.667 127.834 47 171.501s47.666 77.5 78.999 101.5
s67.5 40.167 108.5 48.5s86.167 12.5 135.5 12.5c94 0 167 -13.333 219 -40l-41 -53c-18 6.66699 -43 14.334 -75 23.001s-68.333 13 -109 13c-36 0 -69.833 -2.5 -101.5 -7.5s-60 -16.833 -85 -35.5s-46.333 -46.5 -64 -83.5s-30.834 -87.167 -39.501 -150.5
c-9.33301 -64 -10.166 -114.5 -2.49902 -151.5s21.334 -64.667 41.001 -83s44.5 -30 74.5 -35s63 -7.5 99 -7.5c20 0 40.167 1.5 60.5 4.5s39.5 6.5 57.5 10.5s34.5 8.33301 49.5 13l37.5 12zM214.999 -156.003l3.99902 0.000976562c4.66699 -0.666992 10 -1 16 -1h14
c30.667 0 54.334 4.66699 71.001 14c12.667 9.33301 20 20 22 32c0.666992 5.33301 0.666992 10.166 0 14.499s-3.16699 8.33301 -7.5 12s-10.833 6.66699 -19.5 9s-21 3.83301 -37 4.5l26 61h41l-22 -48c28.667 -3.33301 49.334 -10.5 62.001 -21.5s18 -23.5 16 -37.5
c-2.66699 -19.333 -15.834 -36.833 -39.501 -52.5s-56.5 -23.5 -98.5 -23.5c-22 0 -41.333 1 -58 3z" />
    <glyph glyph-name="Egrave" unicode="&#xc8;" horiz-adv-x="566" 
d="M79 0l90 642h480l-18 -57h-398l-32 -224h323l-8 -57h-323l-34 -246h408l-18 -58h-470zM406 707l-79 107h86l38 -107h-45z" />
    <glyph glyph-name="Eacute" unicode="&#xc9;" horiz-adv-x="566" 
d="M79 0l90 642h480l-18 -57h-398l-32 -224h323l-8 -57h-323l-34 -246h408l-18 -58h-470zM365 689l68 107h85l-52 -53.5l-51 -53.5h-50z" />
    <glyph glyph-name="Ecircumflex" unicode="&#xca;" horiz-adv-x="566" 
d="M79 0l90 642h480l-18 -57h-398l-32 -224h323l-8 -57h-323l-34 -246h408l-18 -58h-470zM442 707l-47 84l-71 -84h-72l51 54l52 53h80l76 -107h-69z" />
    <glyph glyph-name="Edieresis" unicode="&#xcb;" horiz-adv-x="566" 
d="M79 0l90 642h480l-18 -57h-398l-32 -224h323l-8 -57h-323l-34 -246h408l-18 -58h-470zM310 723l10 73h70l-10 -73h-70zM488 723l10 73h70l-10 -73h-70z" />
    <glyph glyph-name="Igrave" unicode="&#xcc;" horiz-adv-x="241" 
d="M79 0l90 642h72l-90 -642h-72zM245 707l-79 107h86l38 -107h-45z" />
    <glyph glyph-name="Iacute" unicode="&#xcd;" horiz-adv-x="241" 
d="M79 0l90 642h72l-90 -642h-72zM177 689l68 107h85l-52 -53.5l-51 -53.5h-50z" />
    <glyph glyph-name="Icircumflex" unicode="&#xce;" horiz-adv-x="241" 
d="M79 0l90 642h72l-90 -642h-72zM278 689l-47 84l-71 -84h-72l52 54l51 53h80l76 -107h-69z" />
    <glyph glyph-name="Idieresis" unicode="&#xcf;" horiz-adv-x="241" 
d="M79 0l90 642h72l-90 -642h-72zM102 741l10 73h70l-10 -73h-70zM280 741l10 73h70l-10 -73h-70z" />
    <glyph glyph-name="Eth" unicode="&#xd0;" horiz-adv-x="689" 
d="M79 0l40.0029 288h-77l9 63h77l41 291h230c48.667 0 92.5 -3.16699 131.5 -9.5s71 -20.5 96 -42.5s42.167 -54 51.5 -96s9 -98.333 -1 -169c-10 -71.333 -24.833 -128.5 -44.5 -171.5s-44.334 -75.833 -74.001 -98.5s-64.334 -37.5 -104.001 -44.5
s-84.834 -10.5 -135.501 -10.5h-240zM317.003 58c46 0 85.332 2.66797 117.999 8.00098s60 17.333 82 36s39.833 45.667 53.5 81s24.5 83 32.5 143c8.66699 63.333 9.33398 112.5 2.00098 147.5s-21 60.667 -41 77s-45.167 26.166 -75.5 29.499s-63.5 5 -99.5 5h-156
l-33 -234h95l-9 -63h-95l-32 -230h158z" />
    <glyph glyph-name="Ntilde" unicode="&#xd1;" horiz-adv-x="685" 
d="M526 0l-303 544l-76 -544h-68l90 642h80l303 -542l76 542h67l-90 -642h-79zM604 803c-6 -26.667 -17.5 -47.335 -34.5 -62.002s-36.833 -22 -59.5 -22c-9.33301 0 -19.833 2.16699 -31.5 6.5s-25.167 10.5 -40.5 18.5c-20 12 -36 18 -48 18
c-8 0 -14.833 -1.16699 -20.5 -3.5s-11.5 -6.16602 -17.5 -11.499c-3.33301 -3.33301 -6.5 -7.33301 -9.5 -12s-5.16699 -10.667 -6.5 -18h-43c2.66699 13.333 6.5 24.5 11.5 33.5s12.167 17.5 21.5 25.5c19.333 17.333 41.666 26 66.999 26c9.33301 0 20 -2.16699 32 -6.5
s25.667 -10.166 41 -17.499c18 -10 33.667 -15 47 -15c12.667 0 22.834 2.66699 30.501 8s14.167 16 19.5 32h41z" />
    <glyph glyph-name="Ograve" unicode="&#xd2;" 
d="M463 599c-32.667 0 -64.1699 -1.5 -94.5029 -4.5s-58.166 -13.167 -83.499 -30.5s-47.333 -44.833 -66 -82.5s-33 -90.834 -43 -159.501c-6.66699 -46 -9.16699 -84.833 -7.5 -116.5s6.66699 -57.667 15 -78s19.333 -36.166 33 -47.499s29.334 -19.5 47.001 -24.5
s36.834 -8 57.501 -9s42 -1.5 64 -1.5c21.333 0 42.333 0.5 63 1.5s40.667 4 60 9s37.5 13.167 54.5 24.5s32.5 27.166 46.5 47.499s26.333 46.333 37 78s19.334 70.5 26.001 116.5c10 68.667 10.667 121.834 2 159.501s-23.334 65.167 -44.001 82.5s-45.667 27.5 -75 30.5
s-60 4.5 -92 4.5zM101.997 322c10 72 26.501 129.833 49.501 173.5s50.667 77.334 83 101.001s68.666 39.334 108.999 47.001s82.833 11.5 127.5 11.5s86 -3.83301 124 -11.5s69.833 -23.334 95.5 -47.001s43.834 -57.334 54.501 -101.001s11 -101.5 1 -173.5
s-26.5 -129.833 -49.5 -173.5s-50.833 -77.334 -83.5 -101.001s-69 -39.334 -109 -47.001s-82.333 -11.5 -127 -11.5s-86 3.83301 -124 11.5s-69.833 23.334 -95.5 47.001s-43.834 57.334 -54.501 101.001s-11 101.5 -1 173.5zM501.998 707l-79 107h86l38 -107h-45z" />
    <glyph glyph-name="Oacute" unicode="&#xd3;" 
d="M463 599c-32.667 0 -64.1699 -1.5 -94.5029 -4.5s-58.166 -13.167 -83.499 -30.5s-47.333 -44.833 -66 -82.5s-33 -90.834 -43 -159.501c-6.66699 -46 -9.16699 -84.833 -7.5 -116.5s6.66699 -57.667 15 -78s19.333 -36.166 33 -47.499s29.334 -19.5 47.001 -24.5
s36.834 -8 57.501 -9s42 -1.5 64 -1.5c21.333 0 42.333 0.5 63 1.5s40.667 4 60 9s37.5 13.167 54.5 24.5s32.5 27.166 46.5 47.499s26.333 46.333 37 78s19.334 70.5 26.001 116.5c10 68.667 10.667 121.834 2 159.501s-23.334 65.167 -44.001 82.5s-45.667 27.5 -75 30.5
s-60 4.5 -92 4.5zM101.997 322c10 72 26.501 129.833 49.501 173.5s50.667 77.334 83 101.001s68.666 39.334 108.999 47.001s82.833 11.5 127.5 11.5s86 -3.83301 124 -11.5s69.833 -23.334 95.5 -47.001s43.834 -57.334 54.501 -101.001s11 -101.5 1 -173.5
s-26.5 -129.833 -49.5 -173.5s-50.833 -77.334 -83.5 -101.001s-69 -39.334 -109 -47.001s-82.333 -11.5 -127 -11.5s-86 3.83301 -124 11.5s-69.833 23.334 -95.5 47.001s-43.834 57.334 -54.501 101.001s-11 101.5 -1 173.5zM404.998 689l68 107h85l-52 -53.5l-51 -53.5
h-50z" />
    <glyph glyph-name="Ocircumflex" unicode="&#xd4;" 
d="M463 599c-32.667 0 -64.1699 -1.5 -94.5029 -4.5s-58.166 -13.167 -83.499 -30.5s-47.333 -44.833 -66 -82.5s-33 -90.834 -43 -159.501c-6.66699 -46 -9.16699 -84.833 -7.5 -116.5s6.66699 -57.667 15 -78s19.333 -36.166 33 -47.499s29.334 -19.5 47.001 -24.5
s36.834 -8 57.501 -9s42 -1.5 64 -1.5c21.333 0 42.333 0.5 63 1.5s40.667 4 60 9s37.5 13.167 54.5 24.5s32.5 27.166 46.5 47.499s26.333 46.333 37 78s19.334 70.5 26.001 116.5c10 68.667 10.667 121.834 2 159.501s-23.334 65.167 -44.001 82.5s-45.667 27.5 -75 30.5
s-60 4.5 -92 4.5zM101.997 322c10 72 26.501 129.833 49.501 173.5s50.667 77.334 83 101.001s68.666 39.334 108.999 47.001s82.833 11.5 127.5 11.5s86 -3.83301 124 -11.5s69.833 -23.334 95.5 -47.001s43.834 -57.334 54.501 -101.001s11 -101.5 1 -173.5
s-26.5 -129.833 -49.5 -173.5s-50.833 -77.334 -83.5 -101.001s-69 -39.334 -109 -47.001s-82.333 -11.5 -127 -11.5s-86 3.83301 -124 11.5s-69.833 23.334 -95.5 47.001s-43.834 57.334 -54.501 101.001s-11 101.5 -1 173.5zM533.998 689l-47 84l-71 -84h-72l52 54l51 53
h80l76 -107h-69z" />
    <glyph glyph-name="Otilde" unicode="&#xd5;" 
d="M463 599c-32.667 0 -64.1699 -1.5 -94.5029 -4.5s-58.166 -13.167 -83.499 -30.5s-47.333 -44.833 -66 -82.5s-33 -90.834 -43 -159.501c-6.66699 -46 -9.16699 -84.833 -7.5 -116.5s6.66699 -57.667 15 -78s19.333 -36.166 33 -47.499s29.334 -19.5 47.001 -24.5
s36.834 -8 57.501 -9s42 -1.5 64 -1.5c21.333 0 42.333 0.5 63 1.5s40.667 4 60 9s37.5 13.167 54.5 24.5s32.5 27.166 46.5 47.499s26.333 46.333 37 78s19.334 70.5 26.001 116.5c10 68.667 10.667 121.834 2 159.501s-23.334 65.167 -44.001 82.5s-45.667 27.5 -75 30.5
s-60 4.5 -92 4.5zM101.997 322c10 72 26.501 129.833 49.501 173.5s50.667 77.334 83 101.001s68.666 39.334 108.999 47.001s82.833 11.5 127.5 11.5s86 -3.83301 124 -11.5s69.833 -23.334 95.5 -47.001s43.834 -57.334 54.501 -101.001s11 -101.5 1 -173.5
s-26.5 -129.833 -49.5 -173.5s-50.833 -77.334 -83.5 -101.001s-69 -39.334 -109 -47.001s-82.333 -11.5 -127 -11.5s-86 3.83301 -124 11.5s-69.833 23.334 -95.5 47.001s-43.834 57.334 -54.501 101.001s-11 101.5 -1 173.5zM639.998 803
c-6 -26.667 -17.5 -47.335 -34.5 -62.002s-36.833 -22 -59.5 -22c-9.33301 0 -19.833 2.16699 -31.5 6.5s-25.167 10.5 -40.5 18.5c-20 12 -36 18 -48 18c-8 0 -14.833 -1.16699 -20.5 -3.5s-11.5 -6.16602 -17.5 -11.499c-3.33301 -3.33301 -6.5 -7.33301 -9.5 -12
s-5.16699 -10.667 -6.5 -18h-43c2.66699 13.333 6.5 24.5 11.5 33.5s12.167 17.5 21.5 25.5c19.333 17.333 41.666 26 66.999 26c9.33301 0 20 -2.16699 32 -6.5s25.667 -10.166 41 -17.499c18 -10 33.667 -15 47 -15c12.667 0 22.834 2.66699 30.501 8s14.167 16 19.5 32
h41z" />
    <glyph glyph-name="Odieresis" unicode="&#xd6;" 
d="M463 599c-32.667 0 -64.1699 -1.5 -94.5029 -4.5s-58.166 -13.167 -83.499 -30.5s-47.333 -44.833 -66 -82.5s-33 -90.834 -43 -159.501c-6.66699 -46 -9.16699 -84.833 -7.5 -116.5s6.66699 -57.667 15 -78s19.333 -36.166 33 -47.499s29.334 -19.5 47.001 -24.5
s36.834 -8 57.501 -9s42 -1.5 64 -1.5c21.333 0 42.333 0.5 63 1.5s40.667 4 60 9s37.5 13.167 54.5 24.5s32.5 27.166 46.5 47.499s26.333 46.333 37 78s19.334 70.5 26.001 116.5c10 68.667 10.667 121.834 2 159.501s-23.334 65.167 -44.001 82.5s-45.667 27.5 -75 30.5
s-60 4.5 -92 4.5zM101.997 322c10 72 26.501 129.833 49.501 173.5s50.667 77.334 83 101.001s68.666 39.334 108.999 47.001s82.833 11.5 127.5 11.5s86 -3.83301 124 -11.5s69.833 -23.334 95.5 -47.001s43.834 -57.334 54.501 -101.001s11 -101.5 1 -173.5
s-26.5 -129.833 -49.5 -173.5s-50.833 -77.334 -83.5 -101.001s-69 -39.334 -109 -47.001s-82.333 -11.5 -127 -11.5s-86 3.83301 -124 11.5s-69.833 23.334 -95.5 47.001s-43.834 57.334 -54.501 101.001s-11 101.5 -1 173.5zM354.998 723l10 73h70l-10 -73h-70z
M532.998 723l10 73h70l-10 -73h-70z" />
    <glyph glyph-name="multiply" unicode="&#xd7;" horiz-adv-x="443" 
d="M257 278l-153 -133l-34 39l152 134l-110 129l49 43l110 -129l155 135l34 -39l-154 -135l112 -131l-49 -43z" />
    <glyph glyph-name="Oslash" unicode="&#xd8;" 
d="M730 540c11.333 -25.333 18.667 -55.668 22 -91.001s1.33301 -77.666 -6 -126.999c-10 -72 -26.5 -129.833 -49.5 -173.5s-50.833 -77.334 -83.5 -101.001s-69 -39.334 -109 -47.001s-82.333 -11.5 -127 -11.5c-46 0 -88.667 4.16699 -128 12.5
s-71.666 25.5 -96.999 51.5l-62 -53l-59 37l85 71c-10.667 24.667 -17.5 54.5 -20.5 89.5s-0.833008 76.5 6.5 124.5c10 72 26.5 129.833 49.5 173.5s50.667 77.334 83 101.001s68.666 39.334 108.999 47.001s82.833 11.5 127.5 11.5c46 0 88.167 -4 126.5 -12
s70.5 -24.667 96.5 -50l58 49l57 -36zM202.001 94.998c10 -12.667 21.6631 -22.3311 34.9961 -28.998s27.833 -11.5 43.5 -14.5s32.334 -4.83301 50.001 -5.5s35.834 -1 54.501 -1c21.333 0 42.333 0.5 63 1.5s40.667 4 60 9s37.5 13.167 54.5 24.5s32.5 27.166 46.5 47.499
s26.333 46.333 37 78s19.334 70.5 26.001 116.5c5.33301 37.333 7.83301 69.666 7.5 96.999s-3.16602 51 -8.49902 71zM642.997 550.001c-10 12 -21.668 21.334 -35.001 28.001s-27.833 11.5 -43.5 14.5s-32 4.83301 -49 5.5s-34.5 1 -52.5 1
c-32.667 0 -64.167 -1.5 -94.5 -4.5s-58.166 -13.167 -83.499 -30.5s-47.333 -44.833 -66 -82.5s-33 -90.834 -43 -159.501c-5.33301 -36 -8 -67.5 -8 -94.5s2.33301 -50.5 7 -70.5z" />
    <glyph glyph-name="Ugrave" unicode="&#xd9;" horiz-adv-x="686" 
d="M633 642h71l-53 -372c-7.33301 -50 -16.666 -92.833 -27.999 -128.5s-28.333 -64.667 -51 -87s-52.334 -38.833 -89.001 -49.5s-83.667 -16 -141 -16s-103.166 5.33301 -137.499 16s-59.833 27.167 -76.5 49.5s-26 51.333 -28 87s0.666992 78.5 8 128.5l53 372h71
l-52 -371c-6 -40 -8.83301 -74.167 -8.5 -102.5s6.33301 -51.5 18 -69.5s30.167 -31.167 55.5 -39.5s60.333 -12.5 105 -12.5s80.667 4.16699 108 12.5s49.166 21.5 65.499 39.5s28.5 41.167 36.5 69.5s15 62.5 21 102.5zM466 707l-79 107h86l38 -107h-45z" />
    <glyph glyph-name="Uacute" unicode="&#xda;" horiz-adv-x="686" 
d="M633 642h71l-53 -372c-7.33301 -50 -16.666 -92.833 -27.999 -128.5s-28.333 -64.667 -51 -87s-52.334 -38.833 -89.001 -49.5s-83.667 -16 -141 -16s-103.166 5.33301 -137.499 16s-59.833 27.167 -76.5 49.5s-26 51.333 -28 87s0.666992 78.5 8 128.5l53 372h71
l-52 -371c-6 -40 -8.83301 -74.167 -8.5 -102.5s6.33301 -51.5 18 -69.5s30.167 -31.167 55.5 -39.5s60.333 -12.5 105 -12.5s80.667 4.16699 108 12.5s49.166 21.5 65.499 39.5s28.5 41.167 36.5 69.5s15 62.5 21 102.5zM369 689l68 107h85l-52 -53.5l-51 -53.5h-50z" />
    <glyph glyph-name="Ucircumflex" unicode="&#xdb;" horiz-adv-x="686" 
d="M633 642h71l-53 -372c-7.33301 -50 -16.666 -92.833 -27.999 -128.5s-28.333 -64.667 -51 -87s-52.334 -38.833 -89.001 -49.5s-83.667 -16 -141 -16s-103.166 5.33301 -137.499 16s-59.833 27.167 -76.5 49.5s-26 51.333 -28 87s0.666992 78.5 8 128.5l53 372h71
l-52 -371c-6 -40 -8.83301 -74.167 -8.5 -102.5s6.33301 -51.5 18 -69.5s30.167 -31.167 55.5 -39.5s60.333 -12.5 105 -12.5s80.667 4.16699 108 12.5s49.166 21.5 65.499 39.5s28.5 41.167 36.5 69.5s15 62.5 21 102.5zM502 707l-47 84l-71 -84h-72l51 54l52 53h80
l76 -107h-69z" />
    <glyph glyph-name="Udieresis" unicode="&#xdc;" horiz-adv-x="686" 
d="M633 642h71l-53 -372c-7.33301 -50 -16.666 -92.833 -27.999 -128.5s-28.333 -64.667 -51 -87s-52.334 -38.833 -89.001 -49.5s-83.667 -16 -141 -16s-103.166 5.33301 -137.499 16s-59.833 27.167 -76.5 49.5s-26 51.333 -28 87s0.666992 78.5 8 128.5l53 372h71
l-52 -371c-6 -40 -8.83301 -74.167 -8.5 -102.5s6.33301 -51.5 18 -69.5s30.167 -31.167 55.5 -39.5s60.333 -12.5 105 -12.5s80.667 4.16699 108 12.5s49.166 21.5 65.499 39.5s28.5 41.167 36.5 69.5s15 62.5 21 102.5zM319 723l10 73h70l-10 -73h-70zM497 723l10 73h70
l-10 -73h-70z" />
    <glyph glyph-name="Yacute" unicode="&#xdd;" horiz-adv-x="618" 
d="M269 0l38 273.999l-102 184l-102 184h86l52 -97.5l52 -97.5c10.667 -19.333 21.5 -40.666 32.5 -63.999l29.5 -63l47 62c18.667 24.667 37 47.667 55 69l79.5 95.5l80.5 95.5h79l-317 -368l-38 -274h-72zM335 688.999l68 107h85l-52 -53.5l-51 -53.5h-50z" />
    <glyph glyph-name="Thorn" unicode="&#xde;" horiz-adv-x="527" 
d="M63 -57l106.999 755.997h72l-8 -58c6 0.666992 12 1 18 1h19c48.667 0 92.5 -3.5 131.5 -10.5s71 -21.667 96 -44s42.167 -54.666 51.5 -96.999s9 -98.833 -1 -169.5s-25.667 -127.167 -47 -169.5s-47.5 -74.666 -78.5 -96.999s-67 -37 -108 -44
s-85.833 -10.5 -134.5 -10.5c-6.66699 0 -13.167 -0.166992 -19.5 -0.5s-12.166 -0.166016 -17.499 0.500977l-9 -57h-72zM151.999 56.9971c5.33301 -0.666992 10.835 -1 16.502 -1h17.5c36 0 69.667 1.83301 101 5.5s59.5 14 84.5 31s46.167 43.333 63.5 79
s30.666 85.5 39.999 149.5c8.66699 63.333 9.16699 112.833 1.5 148.5s-21.334 62 -41.001 79s-44.667 27.333 -75 31s-63.5 5.5 -99.5 5.5h-18c-6 0 -11.667 -0.333008 -17 -1z" />
    <glyph glyph-name="germandbls" unicode="&#xdf;" horiz-adv-x="675" 
d="M206 0l7.99805 57h154c31.333 0 58.166 0.5 80.499 1.5s41 4.83301 56 11.5s26.667 17.5 35 32.5s14.5 36.167 18.5 63.5c4.66699 32.667 5.16699 57.667 1.5 75s-11.5 29.833 -23.5 37.5s-28.167 12.167 -48.5 13.5s-45.166 2 -74.499 2l8 57
c29.333 0 54.166 1 74.499 3s37.166 7 50.499 15s23.833 20.333 31.5 37s13.5 40 17.5 70c3.33301 24.667 3 44.334 -1 59.001s-12.333 25.667 -25 33s-29.834 12 -51.501 14s-48.167 3 -79.5 3c-22 0 -45.333 -1.5 -70 -4.5s-48.167 -13 -70.5 -30
s-42.666 -44.333 -60.999 -82s-32.5 -90.834 -42.5 -159.501l-43 -309h-72l43 309c9.33301 66.667 24.166 121.334 44.499 164.001s44.833 76.334 73.5 101.001s60.834 41.834 96.501 51.501s73.834 15.167 114.501 16.5c46 0.666992 84.167 -1 114.5 -5
s54 -12.167 71 -24.5s27.833 -29.333 32.5 -51s4.66699 -49.167 0 -82.5c-3.33301 -25.333 -8 -46.333 -14 -63s-13.167 -30.834 -21.5 -42.501s-18.166 -21.5 -29.499 -29.5s-24.333 -15.333 -39 -22c12.667 -6.66699 23.834 -13.834 33.501 -21.501
s17.5 -17.334 23.5 -29.001s9.83301 -26 11.5 -43s0.833984 -37.833 -2.49902 -62.5c-4.66699 -34 -12.667 -61.833 -24 -83.5s-27.5 -38.5 -48.5 -50.5s-47.833 -20.333 -80.5 -25s-72.667 -7 -120 -7h-152z" />
    <glyph glyph-name="agrave" unicode="&#xe0;" horiz-adv-x="703" 
d="M647 -1c-32.667 4.66699 -55.8359 14.3301 -69.5029 28.9971s-21.167 38.334 -22.5 71.001c-28 -35.333 -62.833 -62.333 -104.5 -81s-90.5 -28 -146.5 -28c-38 0 -72.5 3 -103.5 9s-56.667 16.5 -77 31.5s-35 35.333 -44 61s-10.833 57.834 -5.5 96.501
s16.166 70.834 32.499 96.501s36.833 46 61.5 61s53.334 25.5 86.001 31.5s68 9 106 9h218c4.66699 49.333 5 88.166 1 116.499s-13.167 49.5 -27.5 63.5s-34 22.833 -59 26.5s-56.5 5.5 -94.5 5.5c-20 0 -40 -1.33301 -60 -4s-38.667 -6 -56 -10
s-33.333 -8.16699 -48 -12.5s-27 -8.16602 -37 -11.499l-25 53c29.333 13.333 64.333 23.666 105 30.999s84.334 11 131.001 11c54 0 98.5 -4 133.5 -12s61.833 -23.667 80.5 -47s29.5 -56.666 32.5 -99.999s-0.5 -100.333 -10.5 -171l-2 -16l-16 -112
c-3.33301 -25.333 -5.16602 -46.5 -5.49902 -63.5s1.16699 -31 4.5 -42s8.33301 -19.5 15 -25.5s15.334 -10.333 26.001 -13zM570.998 327.996l-219 -0.000976562c-28 0 -53.833 -1.5 -77.5 -4.5s-44.667 -9.33301 -63 -19s-33.5 -23.667 -45.5 -42s-20 -43.166 -24 -74.499
c-4.66699 -31.333 -3.66699 -56.166 3 -74.499s17.834 -32.333 33.501 -42s35 -16 58 -19s48.5 -4.5 76.5 -4.5c47.333 0 86.166 6 116.499 18s54.833 29.833 73.5 53.5s33 52.667 43 87s18 74.166 24 119.499zM474.998 706.995l-79 107h86l38 -107h-45z" />
    <glyph glyph-name="aacute" unicode="&#xe1;" horiz-adv-x="657" 
d="M554 0l-53 201h-291l-108 -201h-74l347 642h86l167 -642h-74zM433 461l-21 121h-6l-55 -121l-113 -209h250zM387 689l68 107h85l-52 -53.5l-51 -53.5h-50z" />
    <glyph glyph-name="acircumflex" unicode="&#xe2;" horiz-adv-x="657" 
d="M554 0l-53 201h-291l-108 -201h-74l347 642h86l167 -642h-74zM433 461l-21 121h-6l-55 -121l-113 -209h250zM484 689l-47 84l-71 -84h-72l52 54l51 53h80l76 -107h-69z" />
    <glyph glyph-name="atilde" unicode="&#xe3;" horiz-adv-x="703" 
d="M647 -1c-32.667 4.66699 -55.8359 14.3301 -69.5029 28.9971s-21.167 38.334 -22.5 71.001c-28 -35.333 -62.833 -62.333 -104.5 -81s-90.5 -28 -146.5 -28c-38 0 -72.5 3 -103.5 9s-56.667 16.5 -77 31.5s-35 35.333 -44 61s-10.833 57.834 -5.5 96.501
s16.166 70.834 32.499 96.501s36.833 46 61.5 61s53.334 25.5 86.001 31.5s68 9 106 9h218c4.66699 49.333 5 88.166 1 116.499s-13.167 49.5 -27.5 63.5s-34 22.833 -59 26.5s-56.5 5.5 -94.5 5.5c-20 0 -40 -1.33301 -60 -4s-38.667 -6 -56 -10
s-33.333 -8.16699 -48 -12.5s-27 -8.16602 -37 -11.499l-25 53c29.333 13.333 64.333 23.666 105 30.999s84.334 11 131.001 11c54 0 98.5 -4 133.5 -12s61.833 -23.667 80.5 -47s29.5 -56.666 32.5 -99.999s-0.5 -100.333 -10.5 -171l-2 -16l-16 -112
c-3.33301 -25.333 -5.16602 -46.5 -5.49902 -63.5s1.16699 -31 4.5 -42s8.33301 -19.5 15 -25.5s15.334 -10.333 26.001 -13zM570.998 327.996l-219 -0.000976562c-28 0 -53.833 -1.5 -77.5 -4.5s-44.667 -9.33301 -63 -19s-33.5 -23.667 -45.5 -42s-20 -43.166 -24 -74.499
c-4.66699 -31.333 -3.66699 -56.166 3 -74.499s17.834 -32.333 33.501 -42s35 -16 58 -19s48.5 -4.5 76.5 -4.5c47.333 0 86.166 6 116.499 18s54.833 29.833 73.5 53.5s33 52.667 43 87s18 74.166 24 119.499zM612.998 802.995c-6 -26.667 -17.5 -47.335 -34.5 -62.002
s-36.833 -22 -59.5 -22c-9.33301 0 -19.833 2.16699 -31.5 6.5s-25.167 10.5 -40.5 18.5c-20 12 -36 18 -48 18c-8 0 -14.833 -1.16699 -20.5 -3.5s-11.5 -6.16602 -17.5 -11.499c-3.33301 -3.33301 -6.5 -7.33301 -9.5 -12s-5.16699 -10.667 -6.5 -18h-43
c2.66699 13.333 6.5 24.5 11.5 33.5s12.167 17.5 21.5 25.5c19.333 17.333 41.666 26 66.999 26c9.33301 0 20 -2.16699 32 -6.5s25.667 -10.166 41 -17.499c18 -10 33.667 -15 47 -15c12.667 0 22.834 2.66699 30.501 8s14.167 16 19.5 32h41z" />
    <glyph glyph-name="adieresis" unicode="&#xe4;" horiz-adv-x="657" 
d="M554 0l-53 201h-291l-108 -201h-74l347 642h86l167 -642h-74zM433 461l-21 121h-6l-55 -121l-113 -209h250zM304 723l10 73h70l-10 -73h-70zM482 723l10 73h70l-10 -73h-70z" />
    <glyph glyph-name="aring" unicode="&#xe5;" horiz-adv-x="703" 
d="M647 -1c-32.667 4.66699 -55.8359 14.3301 -69.5029 28.9971s-21.167 38.334 -22.5 71.001c-28 -35.333 -62.833 -62.333 -104.5 -81s-90.5 -28 -146.5 -28c-38 0 -72.5 3 -103.5 9s-56.667 16.5 -77 31.5s-35 35.333 -44 61s-10.833 57.834 -5.5 96.501
s16.166 70.834 32.499 96.501s36.833 46 61.5 61s53.334 25.5 86.001 31.5s68 9 106 9h218c4.66699 49.333 5 88.166 1 116.499s-13.167 49.5 -27.5 63.5s-34 22.833 -59 26.5s-56.5 5.5 -94.5 5.5c-20 0 -40 -1.33301 -60 -4s-38.667 -6 -56 -10
s-33.333 -8.16699 -48 -12.5s-27 -8.16602 -37 -11.499l-25 53c29.333 13.333 64.333 23.666 105 30.999s84.334 11 131.001 11c54 0 98.5 -4 133.5 -12s61.833 -23.667 80.5 -47s29.5 -56.666 32.5 -99.999s-0.5 -100.333 -10.5 -171l-2 -16l-16 -112
c-3.33301 -25.333 -5.16602 -46.5 -5.49902 -63.5s1.16699 -31 4.5 -42s8.33301 -19.5 15 -25.5s15.334 -10.333 26.001 -13zM570.998 327.996l-219 -0.000976562c-28 0 -53.833 -1.5 -77.5 -4.5s-44.667 -9.33301 -63 -19s-33.5 -23.667 -45.5 -42s-20 -43.166 -24 -74.499
c-4.66699 -31.333 -3.66699 -56.166 3 -74.499s17.834 -32.333 33.501 -42s35 -16 58 -19s48.5 -4.5 76.5 -4.5c47.333 0 86.166 6 116.499 18s54.833 29.833 73.5 53.5s33 52.667 43 87s18 74.166 24 119.499zM451.998 724.995c8.66699 0 16.5 1.66699 23.5 5
s11.833 14 14.5 32c2.66699 17.333 0.833984 27.5 -5.49902 30.5s-13.5 4.5 -21.5 4.5c-8.66699 0 -16.334 -1.5 -23.001 -4.5s-11.334 -13.167 -14.001 -30.5c-2.66699 -18 -1.16699 -28.667 4.5 -32s12.834 -5 21.501 -5zM447.998 694.995
c-9.33301 0 -17.668 0.833008 -25.001 2.5s-13.5 4.83398 -18.5 9.50098s-8.5 11.334 -10.5 20.001s-2 20.334 0 35.001c2 14 5.16699 25.333 9.5 34s9.83301 15.334 16.5 20.001s13.834 7.83398 21.501 9.50098s16.167 2.5 25.5 2.5
c8.66699 0 16.834 -0.833008 24.501 -2.5s14.167 -4.83398 19.5 -9.50098s9 -11.334 11 -20.001s2 -20 0 -34c-2 -14.667 -5.33301 -26.334 -10 -35.001s-10.334 -15.334 -17.001 -20.001s-14 -7.83398 -22 -9.50098s-16.333 -2.5 -25 -2.5z" />
    <glyph glyph-name="ae" unicode="&#xe6;" horiz-adv-x="1193" 
d="M1102 38c-14.667 -6.66699 -32.502 -13 -53.502 -19s-43.333 -11.333 -67 -16s-48 -8.5 -73 -11.5s-49.167 -4.5 -72.5 -4.5c-35.333 0 -67.5 1.83301 -96.5 5.5s-54.833 10.5 -77.5 20.5s-41.667 23.833 -57 41.5s-26.666 40.167 -33.999 67.5
c-2.66699 -3.33301 -5.16699 -6.83301 -7.5 -10.5s-5.16602 -7.83398 -8.49902 -12.501c-28 -35.333 -62.833 -62.333 -104.5 -81s-90.5 -28 -146.5 -28c-38 0 -72.5 3 -103.5 9s-56.667 16.5 -77 31.5s-35 35.333 -44 61s-10.833 57.834 -5.5 96.501
s16.166 70.834 32.499 96.501s36.833 46 61.5 61s53.334 25.5 86.001 31.5s68 9 106 9h218c4.66699 49.333 5 88.166 1 116.499s-13.167 49.5 -27.5 63.5s-34 22.833 -59 26.5s-56.5 5.5 -94.5 5.5c-20 0 -40 -1.33301 -60 -4s-38.667 -6 -56 -10
s-33.333 -8.16699 -48 -12.5s-27 -8.16602 -37 -11.499l-25 53c29.333 13.333 64.333 23.666 105 30.999s84.334 11 131.001 11c35.333 0 66.5 -1.5 93.5 -4.5s50.333 -8.66699 70 -17s35.667 -19.833 48 -34.5s21.5 -33.667 27.5 -57c16 22.667 34 41.334 54 56.001
s41.5 26.167 64.5 34.5s47.5 14.166 73.5 17.499s53.333 5 82 5c48 0 89.833 -4.66699 125.5 -14s64.5 -26.166 86.5 -50.499s36.667 -57.5 44 -99.5s6.33301 -96 -3 -162l-4 -26h-529c-6.66699 -55.333 -7.66699 -99.833 -3 -133.5s15.667 -59.834 33 -78.501
s41.5 -31.167 72.5 -37.5s69.5 -9.5 115.5 -9.5c20 0 40.833 1.83301 62.5 5.5s42.167 8 61.5 13s37.166 10.167 53.499 15.5l39.5 13zM570.998 328l-219.002 -0.00195312c-28 0 -53.833 -1.5 -77.5 -4.5s-44.667 -9.33301 -63 -19s-33.5 -23.667 -45.5 -42
s-20 -43.166 -24 -74.499c-4.66699 -31.333 -3.66699 -56.166 3 -74.499s17.834 -32.333 33.501 -42s35 -16 58 -19s48.5 -4.5 76.5 -4.5c44.667 0 81.834 5.5 111.501 16.5s54 27 73 48s33.667 47.167 44 78.5s18.833 67.333 25.5 108zM1102 360.998
c5.33301 51.333 5.16602 92.667 -0.500977 124s-16.5 55.5 -32.5 72.5s-37.167 28.167 -63.5 33.5s-57.166 8 -92.499 8c-30.667 0 -59.667 -1.83301 -87 -5.5s-52.333 -13.167 -75 -28.5s-42.5 -39 -59.5 -71s-30.833 -76.333 -41.5 -133h452z" />
    <glyph glyph-name="ccedilla" unicode="&#xe7;" horiz-adv-x="650" 
d="M618 31c-30 -13.333 -66.001 -24.0029 -108.001 -32.0029s-86.333 -12 -133 -12c-49.333 0 -93.166 4.16699 -131.499 12.5s-70 24.5 -95 48.5s-42 57.833 -51 101.5s-8.5 100.834 1.5 171.501s25.667 127.834 47 171.501s47.666 77.5 78.999 101.5
s67.5 40.167 108.5 48.5s86.167 12.5 135.5 12.5c94 0 167 -13.333 219 -40l-41 -53c-18 6.66699 -43 14.334 -75 23.001s-68.333 13 -109 13c-36 0 -69.833 -2.5 -101.5 -7.5s-60 -16.833 -85 -35.5s-46.333 -46.5 -64 -83.5s-30.834 -87.167 -39.501 -150.5
c-9.33301 -64 -10.166 -114.5 -2.49902 -151.5s21.334 -64.667 41.001 -83s44.5 -30 74.5 -35s63 -7.5 99 -7.5c20 0 40.167 1.5 60.5 4.5s39.5 6.5 57.5 10.5s34.5 8.33301 49.5 13l37.5 12zM214.999 -156.003l3.99902 0.000976562c4.66699 -0.666992 10 -1 16 -1h14
c30.667 0 54.334 4.66699 71.001 14c12.667 9.33301 20 20 22 32c0.666992 5.33301 0.666992 10.166 0 14.499s-3.16699 8.33301 -7.5 12s-10.833 6.66699 -19.5 9s-21 3.83301 -37 4.5l26 61h41l-22 -48c28.667 -3.33301 49.334 -10.5 62.001 -21.5s18 -23.5 16 -37.5
c-2.66699 -19.333 -15.834 -36.833 -39.501 -52.5s-56.5 -23.5 -98.5 -23.5c-22 0 -41.333 1 -58 3z" />
    <glyph glyph-name="egrave" unicode="&#xe8;" horiz-adv-x="704" 
d="M635 38c-14.667 -6.66699 -32.499 -13.001 -53.499 -19.001s-43.333 -11.333 -67 -16s-48 -8.5 -73 -11.5s-49.167 -4.5 -72.5 -4.5c-50 0 -93.833 4 -131.5 12s-68.167 23.833 -91.5 47.5s-39 56.667 -47 99s-7.33301 98.166 2 167.499c10 72 25.667 130.333 47 175
s47.333 79.334 78 104.001s65.167 41.334 103.5 50.001s79.833 13 124.5 13c48 0 89.833 -4.66699 125.5 -14s64.5 -26.166 86.5 -50.499s36.667 -57.5 44 -99.5s6.33301 -96 -3 -162l-4 -26h-529c-6.66699 -55.333 -7.66699 -99.833 -3 -133.5s15.667 -59.834 33 -78.501
s41.5 -31.167 72.5 -37.5s69.5 -9.5 115.5 -9.5c20 0 40.833 1.83301 62.5 5.5s42.167 8 61.5 13s37.166 10.167 53.499 15.5l39.5 13zM635.001 360.999c5.33301 51.333 5.16602 92.667 -0.500977 124s-16.5 55.5 -32.5 72.5s-37.167 28.167 -63.5 33.5s-57.166 8 -92.499 8
c-30.667 0 -59.667 -1.83301 -87 -5.5s-52.333 -13.167 -75 -28.5s-42.5 -39 -59.5 -71s-30.833 -76.333 -41.5 -133h452zM475.001 707l-79 107h86l38 -107h-45z" />
    <glyph glyph-name="eacute" unicode="&#xe9;" horiz-adv-x="566" 
d="M79 0l90 642h480l-18 -57h-398l-32 -224h323l-8 -57h-323l-34 -246h408l-18 -58h-470zM365 689l68 107h85l-52 -53.5l-51 -53.5h-50z" />
    <glyph glyph-name="ecircumflex" unicode="&#xea;" horiz-adv-x="704" 
d="M635 38c-14.667 -6.66699 -32.499 -13.001 -53.499 -19.001s-43.333 -11.333 -67 -16s-48 -8.5 -73 -11.5s-49.167 -4.5 -72.5 -4.5c-50 0 -93.833 4 -131.5 12s-68.167 23.833 -91.5 47.5s-39 56.667 -47 99s-7.33301 98.166 2 167.499c10 72 25.667 130.333 47 175
s47.333 79.334 78 104.001s65.167 41.334 103.5 50.001s79.833 13 124.5 13c48 0 89.833 -4.66699 125.5 -14s64.5 -26.166 86.5 -50.499s36.667 -57.5 44 -99.5s6.33301 -96 -3 -162l-4 -26h-529c-6.66699 -55.333 -7.66699 -99.833 -3 -133.5s15.667 -59.834 33 -78.501
s41.5 -31.167 72.5 -37.5s69.5 -9.5 115.5 -9.5c20 0 40.833 1.83301 62.5 5.5s42.167 8 61.5 13s37.166 10.167 53.499 15.5l39.5 13zM635.001 360.999c5.33301 51.333 5.16602 92.667 -0.500977 124s-16.5 55.5 -32.5 72.5s-37.167 28.167 -63.5 33.5s-57.166 8 -92.499 8
c-30.667 0 -59.667 -1.83301 -87 -5.5s-52.333 -13.167 -75 -28.5s-42.5 -39 -59.5 -71s-30.833 -76.333 -41.5 -133h452zM511.001 707l-47 84l-71 -84h-72l51 54l52 53h80l76 -107h-69z" />
    <glyph glyph-name="edieresis" unicode="&#xeb;" horiz-adv-x="704" 
d="M635 38c-14.667 -6.66699 -32.499 -13.001 -53.499 -19.001s-43.333 -11.333 -67 -16s-48 -8.5 -73 -11.5s-49.167 -4.5 -72.5 -4.5c-50 0 -93.833 4 -131.5 12s-68.167 23.833 -91.5 47.5s-39 56.667 -47 99s-7.33301 98.166 2 167.499c10 72 25.667 130.333 47 175
s47.333 79.334 78 104.001s65.167 41.334 103.5 50.001s79.833 13 124.5 13c48 0 89.833 -4.66699 125.5 -14s64.5 -26.166 86.5 -50.499s36.667 -57.5 44 -99.5s6.33301 -96 -3 -162l-4 -26h-529c-6.66699 -55.333 -7.66699 -99.833 -3 -133.5s15.667 -59.834 33 -78.501
s41.5 -31.167 72.5 -37.5s69.5 -9.5 115.5 -9.5c20 0 40.833 1.83301 62.5 5.5s42.167 8 61.5 13s37.166 10.167 53.499 15.5l39.5 13zM635.001 360.999c5.33301 51.333 5.16602 92.667 -0.500977 124s-16.5 55.5 -32.5 72.5s-37.167 28.167 -63.5 33.5s-57.166 8 -92.499 8
c-30.667 0 -59.667 -1.83301 -87 -5.5s-52.333 -13.167 -75 -28.5s-42.5 -39 -59.5 -71s-30.833 -76.333 -41.5 -133h452zM328.001 723l10 73h70l-10 -73h-70zM506.001 723l10 73h70l-10 -73h-70z" />
    <glyph glyph-name="igrave" unicode="&#xec;" horiz-adv-x="241" 
d="M79 0l90 642h72l-90 -642h-72zM245 707l-79 107h86l38 -107h-45z" />
    <glyph glyph-name="iacute" unicode="&#xed;" horiz-adv-x="241" 
d="M79 0l90 642h72l-90 -642h-72zM177 689l68 107h85l-52 -53.5l-51 -53.5h-50z" />
    <glyph glyph-name="icircumflex" unicode="&#xee;" horiz-adv-x="241" 
d="M79 0l90 642h72l-90 -642h-72zM278 689l-47 84l-71 -84h-72l52 54l51 53h80l76 -107h-69z" />
    <glyph glyph-name="idieresis" unicode="&#xef;" horiz-adv-x="241" 
d="M79 0l90 642h72l-90 -642h-72zM102 741l10 73h70l-10 -73h-70zM280 741l10 73h70l-10 -73h-70z" />
    <glyph glyph-name="eth" unicode="&#xf0;" horiz-adv-x="689" 
d="M79 0l40.0029 288h-77l9 63h77l41 291h230c48.667 0 92.5 -3.16699 131.5 -9.5s71 -20.5 96 -42.5s42.167 -54 51.5 -96s9 -98.333 -1 -169c-10 -71.333 -24.833 -128.5 -44.5 -171.5s-44.334 -75.833 -74.001 -98.5s-64.334 -37.5 -104.001 -44.5
s-84.834 -10.5 -135.501 -10.5h-240zM317.003 58c46 0 85.332 2.66797 117.999 8.00098s60 17.333 82 36s39.833 45.667 53.5 81s24.5 83 32.5 143c8.66699 63.333 9.33398 112.5 2.00098 147.5s-21 60.667 -41 77s-45.167 26.166 -75.5 29.499s-63.5 5 -99.5 5h-156
l-33 -234h95l-9 -63h-95l-32 -230h158z" />
    <glyph glyph-name="ntilde" unicode="&#xf1;" horiz-adv-x="685" 
d="M526 0l-303 544l-76 -544h-68l90 642h80l303 -542l76 542h67l-90 -642h-79zM604 803c-6 -26.667 -17.5 -47.335 -34.5 -62.002s-36.833 -22 -59.5 -22c-9.33301 0 -19.833 2.16699 -31.5 6.5s-25.167 10.5 -40.5 18.5c-20 12 -36 18 -48 18
c-8 0 -14.833 -1.16699 -20.5 -3.5s-11.5 -6.16602 -17.5 -11.499c-3.33301 -3.33301 -6.5 -7.33301 -9.5 -12s-5.16699 -10.667 -6.5 -18h-43c2.66699 13.333 6.5 24.5 11.5 33.5s12.167 17.5 21.5 25.5c19.333 17.333 41.666 26 66.999 26c9.33301 0 20 -2.16699 32 -6.5
s25.667 -10.166 41 -17.499c18 -10 33.667 -15 47 -15c12.667 0 22.834 2.66699 30.501 8s14.167 16 19.5 32h41z" />
    <glyph glyph-name="ograve" unicode="&#xf2;" 
d="M463 599c-32.667 0 -64.1699 -1.5 -94.5029 -4.5s-58.166 -13.167 -83.499 -30.5s-47.333 -44.833 -66 -82.5s-33 -90.834 -43 -159.501c-6.66699 -46 -9.16699 -84.833 -7.5 -116.5s6.66699 -57.667 15 -78s19.333 -36.166 33 -47.499s29.334 -19.5 47.001 -24.5
s36.834 -8 57.501 -9s42 -1.5 64 -1.5c21.333 0 42.333 0.5 63 1.5s40.667 4 60 9s37.5 13.167 54.5 24.5s32.5 27.166 46.5 47.499s26.333 46.333 37 78s19.334 70.5 26.001 116.5c10 68.667 10.667 121.834 2 159.501s-23.334 65.167 -44.001 82.5s-45.667 27.5 -75 30.5
s-60 4.5 -92 4.5zM101.997 322c10 72 26.501 129.833 49.501 173.5s50.667 77.334 83 101.001s68.666 39.334 108.999 47.001s82.833 11.5 127.5 11.5s86 -3.83301 124 -11.5s69.833 -23.334 95.5 -47.001s43.834 -57.334 54.501 -101.001s11 -101.5 1 -173.5
s-26.5 -129.833 -49.5 -173.5s-50.833 -77.334 -83.5 -101.001s-69 -39.334 -109 -47.001s-82.333 -11.5 -127 -11.5s-86 3.83301 -124 11.5s-69.833 23.334 -95.5 47.001s-43.834 57.334 -54.501 101.001s-11 101.5 -1 173.5zM501.998 707l-79 107h86l38 -107h-45z" />
    <glyph glyph-name="oacute" unicode="&#xf3;" 
d="M463 599c-32.667 0 -64.1699 -1.5 -94.5029 -4.5s-58.166 -13.167 -83.499 -30.5s-47.333 -44.833 -66 -82.5s-33 -90.834 -43 -159.501c-6.66699 -46 -9.16699 -84.833 -7.5 -116.5s6.66699 -57.667 15 -78s19.333 -36.166 33 -47.499s29.334 -19.5 47.001 -24.5
s36.834 -8 57.501 -9s42 -1.5 64 -1.5c21.333 0 42.333 0.5 63 1.5s40.667 4 60 9s37.5 13.167 54.5 24.5s32.5 27.166 46.5 47.499s26.333 46.333 37 78s19.334 70.5 26.001 116.5c10 68.667 10.667 121.834 2 159.501s-23.334 65.167 -44.001 82.5s-45.667 27.5 -75 30.5
s-60 4.5 -92 4.5zM101.997 322c10 72 26.501 129.833 49.501 173.5s50.667 77.334 83 101.001s68.666 39.334 108.999 47.001s82.833 11.5 127.5 11.5s86 -3.83301 124 -11.5s69.833 -23.334 95.5 -47.001s43.834 -57.334 54.501 -101.001s11 -101.5 1 -173.5
s-26.5 -129.833 -49.5 -173.5s-50.833 -77.334 -83.5 -101.001s-69 -39.334 -109 -47.001s-82.333 -11.5 -127 -11.5s-86 3.83301 -124 11.5s-69.833 23.334 -95.5 47.001s-43.834 57.334 -54.501 101.001s-11 101.5 -1 173.5zM404.998 689l68 107h85l-52 -53.5l-51 -53.5
h-50z" />
    <glyph glyph-name="ocircumflex" unicode="&#xf4;" 
d="M463 599c-32.667 0 -64.1699 -1.5 -94.5029 -4.5s-58.166 -13.167 -83.499 -30.5s-47.333 -44.833 -66 -82.5s-33 -90.834 -43 -159.501c-6.66699 -46 -9.16699 -84.833 -7.5 -116.5s6.66699 -57.667 15 -78s19.333 -36.166 33 -47.499s29.334 -19.5 47.001 -24.5
s36.834 -8 57.501 -9s42 -1.5 64 -1.5c21.333 0 42.333 0.5 63 1.5s40.667 4 60 9s37.5 13.167 54.5 24.5s32.5 27.166 46.5 47.499s26.333 46.333 37 78s19.334 70.5 26.001 116.5c10 68.667 10.667 121.834 2 159.501s-23.334 65.167 -44.001 82.5s-45.667 27.5 -75 30.5
s-60 4.5 -92 4.5zM101.997 322c10 72 26.501 129.833 49.501 173.5s50.667 77.334 83 101.001s68.666 39.334 108.999 47.001s82.833 11.5 127.5 11.5s86 -3.83301 124 -11.5s69.833 -23.334 95.5 -47.001s43.834 -57.334 54.501 -101.001s11 -101.5 1 -173.5
s-26.5 -129.833 -49.5 -173.5s-50.833 -77.334 -83.5 -101.001s-69 -39.334 -109 -47.001s-82.333 -11.5 -127 -11.5s-86 3.83301 -124 11.5s-69.833 23.334 -95.5 47.001s-43.834 57.334 -54.501 101.001s-11 101.5 -1 173.5zM533.998 689l-47 84l-71 -84h-72l52 54l51 53
h80l76 -107h-69z" />
    <glyph glyph-name="otilde" unicode="&#xf5;" 
d="M463 599c-32.667 0 -64.1699 -1.5 -94.5029 -4.5s-58.166 -13.167 -83.499 -30.5s-47.333 -44.833 -66 -82.5s-33 -90.834 -43 -159.501c-6.66699 -46 -9.16699 -84.833 -7.5 -116.5s6.66699 -57.667 15 -78s19.333 -36.166 33 -47.499s29.334 -19.5 47.001 -24.5
s36.834 -8 57.501 -9s42 -1.5 64 -1.5c21.333 0 42.333 0.5 63 1.5s40.667 4 60 9s37.5 13.167 54.5 24.5s32.5 27.166 46.5 47.499s26.333 46.333 37 78s19.334 70.5 26.001 116.5c10 68.667 10.667 121.834 2 159.501s-23.334 65.167 -44.001 82.5s-45.667 27.5 -75 30.5
s-60 4.5 -92 4.5zM101.997 322c10 72 26.501 129.833 49.501 173.5s50.667 77.334 83 101.001s68.666 39.334 108.999 47.001s82.833 11.5 127.5 11.5s86 -3.83301 124 -11.5s69.833 -23.334 95.5 -47.001s43.834 -57.334 54.501 -101.001s11 -101.5 1 -173.5
s-26.5 -129.833 -49.5 -173.5s-50.833 -77.334 -83.5 -101.001s-69 -39.334 -109 -47.001s-82.333 -11.5 -127 -11.5s-86 3.83301 -124 11.5s-69.833 23.334 -95.5 47.001s-43.834 57.334 -54.501 101.001s-11 101.5 -1 173.5zM639.998 803
c-6 -26.667 -17.5 -47.335 -34.5 -62.002s-36.833 -22 -59.5 -22c-9.33301 0 -19.833 2.16699 -31.5 6.5s-25.167 10.5 -40.5 18.5c-20 12 -36 18 -48 18c-8 0 -14.833 -1.16699 -20.5 -3.5s-11.5 -6.16602 -17.5 -11.499c-3.33301 -3.33301 -6.5 -7.33301 -9.5 -12
s-5.16699 -10.667 -6.5 -18h-43c2.66699 13.333 6.5 24.5 11.5 33.5s12.167 17.5 21.5 25.5c19.333 17.333 41.666 26 66.999 26c9.33301 0 20 -2.16699 32 -6.5s25.667 -10.166 41 -17.499c18 -10 33.667 -15 47 -15c12.667 0 22.834 2.66699 30.501 8s14.167 16 19.5 32
h41z" />
    <glyph glyph-name="odieresis" unicode="&#xf6;" 
d="M463 599c-32.667 0 -64.1699 -1.5 -94.5029 -4.5s-58.166 -13.167 -83.499 -30.5s-47.333 -44.833 -66 -82.5s-33 -90.834 -43 -159.501c-6.66699 -46 -9.16699 -84.833 -7.5 -116.5s6.66699 -57.667 15 -78s19.333 -36.166 33 -47.499s29.334 -19.5 47.001 -24.5
s36.834 -8 57.501 -9s42 -1.5 64 -1.5c21.333 0 42.333 0.5 63 1.5s40.667 4 60 9s37.5 13.167 54.5 24.5s32.5 27.166 46.5 47.499s26.333 46.333 37 78s19.334 70.5 26.001 116.5c10 68.667 10.667 121.834 2 159.501s-23.334 65.167 -44.001 82.5s-45.667 27.5 -75 30.5
s-60 4.5 -92 4.5zM101.997 322c10 72 26.501 129.833 49.501 173.5s50.667 77.334 83 101.001s68.666 39.334 108.999 47.001s82.833 11.5 127.5 11.5s86 -3.83301 124 -11.5s69.833 -23.334 95.5 -47.001s43.834 -57.334 54.501 -101.001s11 -101.5 1 -173.5
s-26.5 -129.833 -49.5 -173.5s-50.833 -77.334 -83.5 -101.001s-69 -39.334 -109 -47.001s-82.333 -11.5 -127 -11.5s-86 3.83301 -124 11.5s-69.833 23.334 -95.5 47.001s-43.834 57.334 -54.501 101.001s-11 101.5 -1 173.5zM354.998 723l10 73h70l-10 -73h-70z
M532.998 723l10 73h70l-10 -73h-70z" />
    <glyph glyph-name="divide" unicode="&#xf7;" horiz-adv-x="447" 
d="M244 422l10 73h77l-10 -73h-77zM44 293l8 56h441l-8 -56h-441zM205 146l10 73h77l-10 -73h-77z" />
    <glyph glyph-name="oslash" unicode="&#xf8;" 
d="M730 540c11.333 -25.333 18.667 -55.668 22 -91.001s1.33301 -77.666 -6 -126.999c-10 -72 -26.5 -129.833 -49.5 -173.5s-50.833 -77.334 -83.5 -101.001s-69 -39.334 -109 -47.001s-82.333 -11.5 -127 -11.5c-46 0 -88.667 4.16699 -128 12.5
s-71.666 25.5 -96.999 51.5l-62 -53l-59 37l85 71c-10.667 24.667 -17.5 54.5 -20.5 89.5s-0.833008 76.5 6.5 124.5c10 72 26.5 129.833 49.5 173.5s50.667 77.334 83 101.001s68.666 39.334 108.999 47.001s82.833 11.5 127.5 11.5c46 0 88.167 -4 126.5 -12
s70.5 -24.667 96.5 -50l58 49l57 -36zM202.001 94.998c10 -12.667 21.6631 -22.3311 34.9961 -28.998s27.833 -11.5 43.5 -14.5s32.334 -4.83301 50.001 -5.5s35.834 -1 54.501 -1c21.333 0 42.333 0.5 63 1.5s40.667 4 60 9s37.5 13.167 54.5 24.5s32.5 27.166 46.5 47.499
s26.333 46.333 37 78s19.334 70.5 26.001 116.5c5.33301 37.333 7.83301 69.666 7.5 96.999s-3.16602 51 -8.49902 71zM642.997 550.001c-10 12 -21.668 21.334 -35.001 28.001s-27.833 11.5 -43.5 14.5s-32 4.83301 -49 5.5s-34.5 1 -52.5 1
c-32.667 0 -64.167 -1.5 -94.5 -4.5s-58.166 -13.167 -83.499 -30.5s-47.333 -44.833 -66 -82.5s-33 -90.834 -43 -159.501c-5.33301 -36 -8 -67.5 -8 -94.5s2.33301 -50.5 7 -70.5z" />
    <glyph glyph-name="ugrave" unicode="&#xf9;" horiz-adv-x="668" 
d="M633 642h71l-53 -372c-7.33301 -50 -16.666 -92.833 -27.999 -128.5s-28.333 -64.667 -51 -87s-52.334 -38.833 -89.001 -49.5s-83.667 -16 -141 -16s-103.166 5.33301 -137.499 16s-59.833 27.167 -76.5 49.5s-26 51.333 -28 87s0.666992 78.5 8 128.5l53 372h71
l-52 -371c-6 -40 -8.83301 -74.167 -8.5 -102.5s6.33301 -51.5 18 -69.5s30.167 -31.167 55.5 -39.5s60.333 -12.5 105 -12.5s80.667 4.16699 108 12.5s49.166 21.5 65.499 39.5s28.5 41.167 36.5 69.5s15 62.5 21 102.5zM457 707l-79 107h86l38 -107h-45z" />
    <glyph glyph-name="uacute" unicode="&#xfa;" horiz-adv-x="668" 
d="M633 642h71l-53 -372c-7.33301 -50 -16.666 -92.833 -27.999 -128.5s-28.333 -64.667 -51 -87s-52.334 -38.833 -89.001 -49.5s-83.667 -16 -141 -16s-103.166 5.33301 -137.499 16s-59.833 27.167 -76.5 49.5s-26 51.333 -28 87s0.666992 78.5 8 128.5l53 372h71
l-52 -371c-6 -40 -8.83301 -74.167 -8.5 -102.5s6.33301 -51.5 18 -69.5s30.167 -31.167 55.5 -39.5s60.333 -12.5 105 -12.5s80.667 4.16699 108 12.5s49.166 21.5 65.499 39.5s28.5 41.167 36.5 69.5s15 62.5 21 102.5zM360 689l68 107h85l-52 -53.5l-51 -53.5h-50z" />
    <glyph glyph-name="ucircumflex" unicode="&#xfb;" horiz-adv-x="668" 
d="M633 642h71l-53 -372c-7.33301 -50 -16.666 -92.833 -27.999 -128.5s-28.333 -64.667 -51 -87s-52.334 -38.833 -89.001 -49.5s-83.667 -16 -141 -16s-103.166 5.33301 -137.499 16s-59.833 27.167 -76.5 49.5s-26 51.333 -28 87s0.666992 78.5 8 128.5l53 372h71
l-52 -371c-6 -40 -8.83301 -74.167 -8.5 -102.5s6.33301 -51.5 18 -69.5s30.167 -31.167 55.5 -39.5s60.333 -12.5 105 -12.5s80.667 4.16699 108 12.5s49.166 21.5 65.499 39.5s28.5 41.167 36.5 69.5s15 62.5 21 102.5zM493 707l-47 84l-71 -84h-72l51 54l52 53h80
l76 -107h-69z" />
    <glyph glyph-name="udieresis" unicode="&#xfc;" horiz-adv-x="668" 
d="M633 642h71l-53 -372c-7.33301 -50 -16.666 -92.833 -27.999 -128.5s-28.333 -64.667 -51 -87s-52.334 -38.833 -89.001 -49.5s-83.667 -16 -141 -16s-103.166 5.33301 -137.499 16s-59.833 27.167 -76.5 49.5s-26 51.333 -28 87s0.666992 78.5 8 128.5l53 372h71
l-52 -371c-6 -40 -8.83301 -74.167 -8.5 -102.5s6.33301 -51.5 18 -69.5s30.167 -31.167 55.5 -39.5s60.333 -12.5 105 -12.5s80.667 4.16699 108 12.5s49.166 21.5 65.499 39.5s28.5 41.167 36.5 69.5s15 62.5 21 102.5zM310 723l10 73h70l-10 -73h-70zM488 723l10 73h70
l-10 -73h-70z" />
    <glyph glyph-name="yacute" unicode="&#xfd;" horiz-adv-x="618" 
d="M269 0l38 273.999l-102 184l-102 184h86l52 -97.5l52 -97.5c10.667 -19.333 21.5 -40.666 32.5 -63.999l29.5 -63l47 62c18.667 24.667 37 47.667 55 69l79.5 95.5l80.5 95.5h79l-317 -368l-38 -274h-72zM335 688.999l68 107h85l-52 -53.5l-51 -53.5h-50z" />
    <glyph glyph-name="thorn" unicode="&#xfe;" horiz-adv-x="527" 
d="M63 -57l106.999 755.997h72l-8 -58c6 0.666992 12 1 18 1h19c48.667 0 92.5 -3.5 131.5 -10.5s71 -21.667 96 -44s42.167 -54.666 51.5 -96.999s9 -98.833 -1 -169.5s-25.667 -127.167 -47 -169.5s-47.5 -74.666 -78.5 -96.999s-67 -37 -108 -44
s-85.833 -10.5 -134.5 -10.5c-6.66699 0 -13.167 -0.166992 -19.5 -0.5s-12.166 -0.166016 -17.499 0.500977l-9 -57h-72zM151.999 56.9971c5.33301 -0.666992 10.835 -1 16.502 -1h17.5c36 0 69.667 1.83301 101 5.5s59.5 14 84.5 31s46.167 43.333 63.5 79
s30.666 85.5 39.999 149.5c8.66699 63.333 9.16699 112.833 1.5 148.5s-21.334 62 -41.001 79s-44.667 27.333 -75 31s-63.5 5.5 -99.5 5.5h-18c-6 0 -11.667 -0.333008 -17 -1z" />
    <glyph glyph-name="ydieresis" unicode="&#xff;" horiz-adv-x="618" 
d="M269 0l38 273.999l-102 184l-102 184h86l52 -97.5l52 -97.5c10.667 -19.333 21.5 -40.666 32.5 -63.999l29.5 -63l47 62c18.667 24.667 37 47.667 55 69l79.5 95.5l80.5 95.5h79l-317 -368l-38 -274h-72zM289 740.999l10 73h70l-10 -73h-70zM467 740.999l10 73h70
l-10 -73h-70z" />
    <glyph glyph-name="Amacron" unicode="&#x100;" horiz-adv-x="657" 
d="M554 0l-53 201h-291l-108 -201h-74l347 642h86l167 -642h-74zM433 461l-21 121h-6l-55 -121l-113 -209h250zM295 745l6 38h275l-6 -38h-275z" />
    <glyph glyph-name="amacron" unicode="&#x101;" horiz-adv-x="703" 
d="M647 -1c-32.667 4.66699 -55.8359 14.3301 -69.5029 28.9971s-21.167 38.334 -22.5 71.001c-28 -35.333 -62.833 -62.333 -104.5 -81s-90.5 -28 -146.5 -28c-38 0 -72.5 3 -103.5 9s-56.667 16.5 -77 31.5s-35 35.333 -44 61s-10.833 57.834 -5.5 96.501
s16.166 70.834 32.499 96.501s36.833 46 61.5 61s53.334 25.5 86.001 31.5s68 9 106 9h218c4.66699 49.333 5 88.166 1 116.499s-13.167 49.5 -27.5 63.5s-34 22.833 -59 26.5s-56.5 5.5 -94.5 5.5c-20 0 -40 -1.33301 -60 -4s-38.667 -6 -56 -10
s-33.333 -8.16699 -48 -12.5s-27 -8.16602 -37 -11.499l-25 53c29.333 13.333 64.333 23.666 105 30.999s84.334 11 131.001 11c54 0 98.5 -4 133.5 -12s61.833 -23.667 80.5 -47s29.5 -56.666 32.5 -99.999s-0.5 -100.333 -10.5 -171l-2 -16l-16 -112
c-3.33301 -25.333 -5.16602 -46.5 -5.49902 -63.5s1.16699 -31 4.5 -42s8.33301 -19.5 15 -25.5s15.334 -10.333 26.001 -13zM570.998 327.996l-219 -0.000976562c-28 0 -53.833 -1.5 -77.5 -4.5s-44.667 -9.33301 -63 -19s-33.5 -23.667 -45.5 -42s-20 -43.166 -24 -74.499
c-4.66699 -31.333 -3.66699 -56.166 3 -74.499s17.834 -32.333 33.501 -42s35 -16 58 -19s48.5 -4.5 76.5 -4.5c47.333 0 86.166 6 116.499 18s54.833 29.833 73.5 53.5s33 52.667 43 87s18 74.166 24 119.499zM317.998 744.995l6 38h275l-6 -38h-275z" />
    <glyph glyph-name="Abreve" unicode="&#x102;" horiz-adv-x="657" 
d="M554 0l-53 201h-291l-108 -201h-74l347 642h86l167 -642h-74zM433 461l-21 121h-6l-55 -121l-113 -209h250zM577 795c-11.333 -35.333 -30.333 -62.832 -57 -82.499s-59 -29.5 -97 -29.5c-79.333 0 -120 37.333 -122 112h43c5.33301 -46 33 -69 83 -69
c29.333 0 52.333 5.66699 69 17s29.667 28.666 39 51.999h42z" />
    <glyph glyph-name="abreve" unicode="&#x103;" horiz-adv-x="657" 
d="M554 0l-53 201h-291l-108 -201h-74l347 642h86l167 -642h-74zM433 461l-21 121h-6l-55 -121l-113 -209h250zM577 795c-11.333 -35.333 -30.333 -62.832 -57 -82.499s-59 -29.5 -97 -29.5c-79.333 0 -120 37.333 -122 112h43c5.33301 -46 33 -69 83 -69
c29.333 0 52.333 5.66699 69 17s29.667 28.666 39 51.999h42z" />
    <glyph glyph-name="Aogonek" unicode="&#x104;" horiz-adv-x="657" 
d="M528 -181l9.00195 64c3.33301 19.333 7.16602 36.166 11.499 50.499s9.16602 25.833 14.499 34.5c4.66699 6 9.5 11.667 14.5 17s10.833 10.333 17.5 15h-41l-53 201h-291l-108 -201h-74l347 642h86l167 -642c-32 -15.333 -52.333 -50.666 -61 -105.999h44l-11 -75h-72z
M433.002 461l-21 121h-6l-55 -121l-113 -209h250z" />
    <glyph glyph-name="aogonek" unicode="&#x105;" horiz-adv-x="703" 
d="M597 -181c-33.333 0 -47.6689 16.665 -43.002 49.998l2 14c6 40.667 14.667 69 26 85c9.33301 13.333 21.666 25.333 36.999 36c-22 6.66699 -37.833 17.167 -47.5 31.5s-15.167 35.5 -16.5 63.5c-28 -35.333 -62.833 -62.333 -104.5 -81s-90.5 -28 -146.5 -28
c-38 0 -72.5 3 -103.5 9s-56.667 16.5 -77 31.5s-35 35.333 -44 61s-10.833 57.834 -5.5 96.501s16.166 70.834 32.499 96.501s36.833 46 61.5 61s53.334 25.5 86.001 31.5s68 9 106 9h218c4.66699 49.333 5 88.166 1 116.499s-13.167 49.5 -27.5 63.5s-34 22.833 -59 26.5
s-56.5 5.5 -94.5 5.5c-20 0 -40 -1.33301 -60 -4s-38.667 -6 -56 -10s-33.333 -8.16699 -48 -12.5s-27 -8.16602 -37 -11.499l-25 53c29.333 13.333 64.333 23.666 105 30.999s84.334 11 131.001 11c54 0 98.5 -4 133.5 -12s61.833 -23.667 80.5 -47
s29.5 -56.666 32.5 -99.999s-0.5 -100.333 -10.5 -171l-18 -128c-3.33301 -25.333 -5.16602 -46.5 -5.49902 -63.5s1.16699 -31 4.5 -42s8.33301 -19.5 15 -25.5s15.334 -10.333 26.001 -13l-19 -54c-32.667 -15.333 -53 -50.333 -61 -105h44l-11 -75h-22zM570.997 327.998
l-219 -0.000976562c-28 0 -53.833 -1.5 -77.5 -4.5s-44.667 -9.33301 -63 -19s-33.5 -23.667 -45.5 -42s-20 -43.166 -24 -74.499c-4.66699 -31.333 -3.66699 -56.166 3 -74.499s17.834 -32.333 33.501 -42s35 -16 58 -19s48.5 -4.5 76.5 -4.5c47.333 0 86.166 6 116.499 18
s54.833 29.833 73.5 53.5s33 52.667 43 87s18 74.166 24 119.499z" />
    <glyph glyph-name="Cacute" unicode="&#x106;" horiz-adv-x="650" 
d="M618 31c-30 -13.333 -66.001 -24.0029 -108.001 -32.0029s-86.333 -12 -133 -12c-49.333 0 -93.166 4.16699 -131.499 12.5s-70 24.5 -95 48.5s-42 57.833 -51 101.5s-8.5 100.834 1.5 171.501s25.667 127.834 47 171.501s47.666 77.5 78.999 101.5
s67.5 40.167 108.5 48.5s86.167 12.5 135.5 12.5c94 0 167 -13.333 219 -40l-41 -53c-18 6.66699 -43 14.334 -75 23.001s-68.333 13 -109 13c-36 0 -69.833 -2.5 -101.5 -7.5s-60 -16.833 -85 -35.5s-46.333 -46.5 -64 -83.5s-30.834 -87.167 -39.501 -150.5
c-9.33301 -64 -10.166 -114.5 -2.49902 -151.5s21.334 -64.667 41.001 -83s44.5 -30 74.5 -35s63 -7.5 99 -7.5c20 0 40.167 1.5 60.5 4.5s39.5 6.5 57.5 10.5s34.5 8.33301 49.5 13l37.5 12zM414.999 706.997l68 106.999h85c-20 -19.333 -37.667 -37.166 -53 -53.499
l-50 -53.5h-50z" />
    <glyph glyph-name="cacute" unicode="&#x107;" horiz-adv-x="650" 
d="M618 31c-30 -13.333 -66.001 -24.0029 -108.001 -32.0029s-86.333 -12 -133 -12c-49.333 0 -93.166 4.16699 -131.499 12.5s-70 24.5 -95 48.5s-42 57.833 -51 101.5s-8.5 100.834 1.5 171.501s25.667 127.834 47 171.501s47.666 77.5 78.999 101.5
s67.5 40.167 108.5 48.5s86.167 12.5 135.5 12.5c94 0 167 -13.333 219 -40l-41 -53c-18 6.66699 -43 14.334 -75 23.001s-68.333 13 -109 13c-36 0 -69.833 -2.5 -101.5 -7.5s-60 -16.833 -85 -35.5s-46.333 -46.5 -64 -83.5s-30.834 -87.167 -39.501 -150.5
c-9.33301 -64 -10.166 -114.5 -2.49902 -151.5s21.334 -64.667 41.001 -83s44.5 -30 74.5 -35s63 -7.5 99 -7.5c20 0 40.167 1.5 60.5 4.5s39.5 6.5 57.5 10.5s34.5 8.33301 49.5 13l37.5 12zM414.999 706.997l68 106.999h85c-20 -19.333 -37.667 -37.166 -53 -53.499
l-50 -53.5h-50z" />
    <glyph glyph-name="Ccircumflex" unicode="&#x108;" horiz-adv-x="650" 
d="M618 31c-30 -13.333 -66.001 -24.0029 -108.001 -32.0029s-86.333 -12 -133 -12c-49.333 0 -93.166 4.16699 -131.499 12.5s-70 24.5 -95 48.5s-42 57.833 -51 101.5s-8.5 100.834 1.5 171.501s25.667 127.834 47 171.501s47.666 77.5 78.999 101.5
s67.5 40.167 108.5 48.5s86.167 12.5 135.5 12.5c94 0 167 -13.333 219 -40l-41 -53c-18 6.66699 -43 14.334 -75 23.001s-68.333 13 -109 13c-36 0 -69.833 -2.5 -101.5 -7.5s-60 -16.833 -85 -35.5s-46.333 -46.5 -64 -83.5s-30.834 -87.167 -39.501 -150.5
c-9.33301 -64 -10.166 -114.5 -2.49902 -151.5s21.334 -64.667 41.001 -83s44.5 -30 74.5 -35s63 -7.5 99 -7.5c20 0 40.167 1.5 60.5 4.5s39.5 6.5 57.5 10.5s34.5 8.33301 49.5 13l37.5 12zM532.999 706.997l-47 84l-71 -84h-72l51 54l52 53h80l76 -107h-69z" />
    <glyph glyph-name="ccircumflex" unicode="&#x109;" horiz-adv-x="650" 
d="M618 31c-30 -13.333 -66.001 -24.0029 -108.001 -32.0029s-86.333 -12 -133 -12c-49.333 0 -93.166 4.16699 -131.499 12.5s-70 24.5 -95 48.5s-42 57.833 -51 101.5s-8.5 100.834 1.5 171.501s25.667 127.834 47 171.501s47.666 77.5 78.999 101.5
s67.5 40.167 108.5 48.5s86.167 12.5 135.5 12.5c94 0 167 -13.333 219 -40l-41 -53c-18 6.66699 -43 14.334 -75 23.001s-68.333 13 -109 13c-36 0 -69.833 -2.5 -101.5 -7.5s-60 -16.833 -85 -35.5s-46.333 -46.5 -64 -83.5s-30.834 -87.167 -39.501 -150.5
c-9.33301 -64 -10.166 -114.5 -2.49902 -151.5s21.334 -64.667 41.001 -83s44.5 -30 74.5 -35s63 -7.5 99 -7.5c20 0 40.167 1.5 60.5 4.5s39.5 6.5 57.5 10.5s34.5 8.33301 49.5 13l37.5 12zM526.999 706.997l-47 84l-71 -84h-72l51 54l52 53h80l76 -107h-69z" />
    <glyph glyph-name="Cdotaccent" unicode="&#x10a;" horiz-adv-x="650" 
d="M618 31c-30 -13.333 -66.001 -24.0029 -108.001 -32.0029s-86.333 -12 -133 -12c-49.333 0 -93.166 4.16699 -131.499 12.5s-70 24.5 -95 48.5s-42 57.833 -51 101.5s-8.5 100.834 1.5 171.501s25.667 127.834 47 171.501s47.666 77.5 78.999 101.5
s67.5 40.167 108.5 48.5s86.167 12.5 135.5 12.5c94 0 167 -13.333 219 -40l-41 -53c-18 6.66699 -43 14.334 -75 23.001s-68.333 13 -109 13c-36 0 -69.833 -2.5 -101.5 -7.5s-60 -16.833 -85 -35.5s-46.333 -46.5 -64 -83.5s-30.834 -87.167 -39.501 -150.5
c-9.33301 -64 -10.166 -114.5 -2.49902 -151.5s21.334 -64.667 41.001 -83s44.5 -30 74.5 -35s63 -7.5 99 -7.5c20 0 40.167 1.5 60.5 4.5s39.5 6.5 57.5 10.5s34.5 8.33301 49.5 13l37.5 12zM466.999 736.997h-78l10 73h78z" />
    <glyph glyph-name="cdotaccent" unicode="&#x10b;" horiz-adv-x="650" 
d="M618 31c-30 -13.333 -66.001 -24.0029 -108.001 -32.0029s-86.333 -12 -133 -12c-49.333 0 -93.166 4.16699 -131.499 12.5s-70 24.5 -95 48.5s-42 57.833 -51 101.5s-8.5 100.834 1.5 171.501s25.667 127.834 47 171.501s47.666 77.5 78.999 101.5
s67.5 40.167 108.5 48.5s86.167 12.5 135.5 12.5c94 0 167 -13.333 219 -40l-41 -53c-18 6.66699 -43 14.334 -75 23.001s-68.333 13 -109 13c-36 0 -69.833 -2.5 -101.5 -7.5s-60 -16.833 -85 -35.5s-46.333 -46.5 -64 -83.5s-30.834 -87.167 -39.501 -150.5
c-9.33301 -64 -10.166 -114.5 -2.49902 -151.5s21.334 -64.667 41.001 -83s44.5 -30 74.5 -35s63 -7.5 99 -7.5c20 0 40.167 1.5 60.5 4.5s39.5 6.5 57.5 10.5s34.5 8.33301 49.5 13l37.5 12zM466.999 736.997h-78l10 73h78z" />
    <glyph glyph-name="Ccaron" unicode="&#x10c;" horiz-adv-x="650" 
d="M618 31c-30 -13.333 -66.001 -24.0029 -108.001 -32.0029s-86.333 -12 -133 -12c-49.333 0 -93.166 4.16699 -131.499 12.5s-70 24.5 -95 48.5s-42 57.833 -51 101.5s-8.5 100.834 1.5 171.501s25.667 127.834 47 171.501s47.666 77.5 78.999 101.5
s67.5 40.167 108.5 48.5s86.167 12.5 135.5 12.5c94 0 167 -13.333 219 -40l-41 -53c-18 6.66699 -43 14.334 -75 23.001s-68.333 13 -109 13c-36 0 -69.833 -2.5 -101.5 -7.5s-60 -16.833 -85 -35.5s-46.333 -46.5 -64 -83.5s-30.834 -87.167 -39.501 -150.5
c-9.33301 -64 -10.166 -114.5 -2.49902 -151.5s21.334 -64.667 41.001 -83s44.5 -30 74.5 -35s63 -7.5 99 -7.5c20 0 40.167 1.5 60.5 4.5s39.5 6.5 57.5 10.5s34.5 8.33301 49.5 13l37.5 12zM519.999 692.997h-96l-78 102h77l53 -75l73 75h77z" />
    <glyph glyph-name="ccaron" unicode="&#x10d;" horiz-adv-x="650" 
d="M618 31c-30 -13.333 -66.001 -24.0029 -108.001 -32.0029s-86.333 -12 -133 -12c-49.333 0 -93.166 4.16699 -131.499 12.5s-70 24.5 -95 48.5s-42 57.833 -51 101.5s-8.5 100.834 1.5 171.501s25.667 127.834 47 171.501s47.666 77.5 78.999 101.5
s67.5 40.167 108.5 48.5s86.167 12.5 135.5 12.5c94 0 167 -13.333 219 -40l-41 -53c-18 6.66699 -43 14.334 -75 23.001s-68.333 13 -109 13c-36 0 -69.833 -2.5 -101.5 -7.5s-60 -16.833 -85 -35.5s-46.333 -46.5 -64 -83.5s-30.834 -87.167 -39.501 -150.5
c-9.33301 -64 -10.166 -114.5 -2.49902 -151.5s21.334 -64.667 41.001 -83s44.5 -30 74.5 -35s63 -7.5 99 -7.5c20 0 40.167 1.5 60.5 4.5s39.5 6.5 57.5 10.5s34.5 8.33301 49.5 13l37.5 12zM519.999 692.997h-96l-78 102h77l53 -75l73 75h77z" />
    <glyph glyph-name="Dcaron" unicode="&#x10e;" horiz-adv-x="689" 
d="M79 0l90.0029 642h230c48.667 0 92.5 -3.16699 131.5 -9.5s71 -20.5 96 -42.5s42.167 -54 51.5 -96s9 -98.333 -1 -169c-10 -71.333 -24.833 -128.5 -44.5 -171.5s-44.334 -75.833 -74.001 -98.5s-64.334 -37.5 -104.001 -44.5s-84.834 -10.5 -135.501 -10.5h-240z
M317.003 58c46 0 85.332 2.66797 117.999 8.00098s60 17.333 82 36s39.833 45.667 53.5 81s24.5 83 32.5 143c8.66699 63.333 9.33398 112.5 2.00098 147.5s-21 60.667 -41 77s-45.167 26.166 -75.5 29.499s-63.5 5 -99.5 5h-156l-74 -527h158zM489.002 693.001h-96l-78 102
h77l53 -75l73 75h77z" />
    <glyph glyph-name="dcaron" unicode="&#x10f;" horiz-adv-x="689" 
d="M79 0l90.0029 642h230c48.667 0 92.5 -3.16699 131.5 -9.5s71 -20.5 96 -42.5s42.167 -54 51.5 -96s9 -98.333 -1 -169c-10 -71.333 -24.833 -128.5 -44.5 -171.5s-44.334 -75.833 -74.001 -98.5s-64.334 -37.5 -104.001 -44.5s-84.834 -10.5 -135.501 -10.5h-240z
M317.003 58c46 0 85.332 2.66797 117.999 8.00098s60 17.333 82 36s39.833 45.667 53.5 81s24.5 83 32.5 143c8.66699 63.333 9.33398 112.5 2.00098 147.5s-21 60.667 -41 77s-45.167 26.166 -75.5 29.499s-63.5 5 -99.5 5h-156l-74 -527h158zM489.002 693.001h-96l-78 102
h77l53 -75l73 75h77z" />
    <glyph glyph-name="Dcroat" unicode="&#x110;" horiz-adv-x="689" 
d="M79 0l42.0029 299h-78l8 63h78l40 280h230c48.667 0 92.5 -3.16699 131.5 -9.5s71 -20.5 96 -42.5s42.167 -54 51.5 -96s9 -98.333 -1 -169c-10 -71.333 -24.833 -128.5 -44.5 -171.5s-44.334 -75.833 -74.001 -98.5s-64.334 -37.5 -104.001 -44.5
s-84.834 -10.5 -135.501 -10.5h-240zM317.003 58c46 0 85.332 2.66797 117.999 8.00098s60 17.333 82 36s39.833 45.667 53.5 81s24.5 83 32.5 143c8.66699 63.333 9.33398 112.5 2.00098 147.5s-21 60.667 -41 77s-45.167 26.166 -75.5 29.499s-63.5 5 -99.5 5h-156
l-32 -223h94l-8 -63h-94l-34 -241h158z" />
    <glyph glyph-name="dcroat" unicode="&#x111;" horiz-adv-x="689" 
d="M79 0l42.0029 299h-78l8 63h78l40 280h230c48.667 0 92.5 -3.16699 131.5 -9.5s71 -20.5 96 -42.5s42.167 -54 51.5 -96s9 -98.333 -1 -169c-10 -71.333 -24.833 -128.5 -44.5 -171.5s-44.334 -75.833 -74.001 -98.5s-64.334 -37.5 -104.001 -44.5
s-84.834 -10.5 -135.501 -10.5h-240zM317.003 58c46 0 85.332 2.66797 117.999 8.00098s60 17.333 82 36s39.833 45.667 53.5 81s24.5 83 32.5 143c8.66699 63.333 9.33398 112.5 2.00098 147.5s-21 60.667 -41 77s-45.167 26.166 -75.5 29.499s-63.5 5 -99.5 5h-156
l-32 -223h94l-8 -63h-94l-34 -241h158z" />
    <glyph glyph-name="Emacron" unicode="&#x112;" horiz-adv-x="566" 
d="M79 0l90 642h480l-18 -57h-398l-32 -224h323l-8 -57h-323l-34 -246h408l-18 -58h-470zM249 745l6 38h275l-6 -38h-275z" />
    <glyph glyph-name="emacron" unicode="&#x113;" horiz-adv-x="704" 
d="M635 38c-14.667 -6.66699 -32.499 -13.001 -53.499 -19.001s-43.333 -11.333 -67 -16s-48 -8.5 -73 -11.5s-49.167 -4.5 -72.5 -4.5c-50 0 -93.833 4 -131.5 12s-68.167 23.833 -91.5 47.5s-39 56.667 -47 99s-7.33301 98.166 2 167.499c10 72 25.667 130.333 47 175
s47.333 79.334 78 104.001s65.167 41.334 103.5 50.001s79.833 13 124.5 13c48 0 89.833 -4.66699 125.5 -14s64.5 -26.166 86.5 -50.499s36.667 -57.5 44 -99.5s6.33301 -96 -3 -162l-4 -26h-529c-6.66699 -55.333 -7.66699 -99.833 -3 -133.5s15.667 -59.834 33 -78.501
s41.5 -31.167 72.5 -37.5s69.5 -9.5 115.5 -9.5c20 0 40.833 1.83301 62.5 5.5s42.167 8 61.5 13s37.166 10.167 53.499 15.5l39.5 13zM635.001 360.999c5.33301 51.333 5.16602 92.667 -0.500977 124s-16.5 55.5 -32.5 72.5s-37.167 28.167 -63.5 33.5s-57.166 8 -92.499 8
c-30.667 0 -59.667 -1.83301 -87 -5.5s-52.333 -13.167 -75 -28.5s-42.5 -39 -59.5 -71s-30.833 -76.333 -41.5 -133h452zM318.001 745l6 38h275l-6 -38h-275z" />
    <glyph glyph-name="Ebreve" unicode="&#x114;" horiz-adv-x="566" 
d="M79 0l90 642h480l-18 -57h-398l-32 -224h323l-8 -57h-323l-34 -246h408l-18 -58h-470zM536 819c-11.333 -35.333 -30.332 -62.832 -56.999 -82.499s-59 -29.5 -97 -29.5c-39.333 0 -69.333 9.16699 -90 27.5s-31.334 46.5 -32.001 84.5h43c4 -46 31.333 -69 82 -69
c29.333 0 52.5 5.66699 69.5 17s30.167 28.666 39.5 51.999h42z" />
    <glyph glyph-name="ebreve" unicode="&#x115;" horiz-adv-x="704" 
d="M635 38c-14.667 -6.66699 -32.499 -13.001 -53.499 -19.001s-43.333 -11.333 -67 -16s-48 -8.5 -73 -11.5s-49.167 -4.5 -72.5 -4.5c-50 0 -93.833 4 -131.5 12s-68.167 23.833 -91.5 47.5s-39 56.667 -47 99s-7.33301 98.166 2 167.499c10 72 25.667 130.333 47 175
s47.333 79.334 78 104.001s65.167 41.334 103.5 50.001s79.833 13 124.5 13c48 0 89.833 -4.66699 125.5 -14s64.5 -26.166 86.5 -50.499s36.667 -57.5 44 -99.5s6.33301 -96 -3 -162l-4 -26h-529c-6.66699 -55.333 -7.66699 -99.833 -3 -133.5s15.667 -59.834 33 -78.501
s41.5 -31.167 72.5 -37.5s69.5 -9.5 115.5 -9.5c20 0 40.833 1.83301 62.5 5.5s42.167 8 61.5 13s37.166 10.167 53.499 15.5l39.5 13zM635.001 360.999c5.33301 51.333 5.16602 92.667 -0.500977 124s-16.5 55.5 -32.5 72.5s-37.167 28.167 -63.5 33.5s-57.166 8 -92.499 8
c-30.667 0 -59.667 -1.83301 -87 -5.5s-52.333 -13.167 -75 -28.5s-42.5 -39 -59.5 -71s-30.833 -76.333 -41.5 -133h452zM605.001 819c-11.333 -35.333 -30.332 -62.832 -56.999 -82.499s-59 -29.5 -97 -29.5c-39.333 0 -69.333 9.16699 -90 27.5
s-31.334 46.5 -32.001 84.5h43c4 -46 31.333 -69 82 -69c29.333 0 52.5 5.66699 69.5 17s30.167 28.666 39.5 51.999h42z" />
    <glyph glyph-name="Edotaccent" unicode="&#x116;" horiz-adv-x="566" 
d="M79 0l90 642h480l-18 -57h-398l-32 -224h323l-8 -57h-323l-34 -246h408l-18 -58h-470zM425 737h-78l10 73h78z" />
    <glyph glyph-name="edotaccent" unicode="&#x117;" horiz-adv-x="704" 
d="M635 38c-14.667 -6.66699 -32.499 -13.001 -53.499 -19.001s-43.333 -11.333 -67 -16s-48 -8.5 -73 -11.5s-49.167 -4.5 -72.5 -4.5c-50 0 -93.833 4 -131.5 12s-68.167 23.833 -91.5 47.5s-39 56.667 -47 99s-7.33301 98.166 2 167.499c10 72 25.667 130.333 47 175
s47.333 79.334 78 104.001s65.167 41.334 103.5 50.001s79.833 13 124.5 13c48 0 89.833 -4.66699 125.5 -14s64.5 -26.166 86.5 -50.499s36.667 -57.5 44 -99.5s6.33301 -96 -3 -162l-4 -26h-529c-6.66699 -55.333 -7.66699 -99.833 -3 -133.5s15.667 -59.834 33 -78.501
s41.5 -31.167 72.5 -37.5s69.5 -9.5 115.5 -9.5c20 0 40.833 1.83301 62.5 5.5s42.167 8 61.5 13s37.166 10.167 53.499 15.5l39.5 13zM635.001 360.999c5.33301 51.333 5.16602 92.667 -0.500977 124s-16.5 55.5 -32.5 72.5s-37.167 28.167 -63.5 33.5s-57.166 8 -92.499 8
c-30.667 0 -59.667 -1.83301 -87 -5.5s-52.333 -13.167 -75 -28.5s-42.5 -39 -59.5 -71s-30.833 -76.333 -41.5 -133h452zM494.001 737h-78l10 73h78z" />
    <glyph glyph-name="Eogonek" unicode="&#x118;" horiz-adv-x="566" 
d="M446 -180l9.00293 64.001c3.33301 19.333 7.16602 36.166 11.499 50.499s9.16602 25.833 14.499 34.5c4.66699 6 9.33398 11.5 14.001 16.5s10 9.83301 16 14.5h-432l90 642h480l-18 -57h-398l-32 -224h323l-8 -57h-323l-34 -246h408l-18 -58
c-18.667 -8 -32.834 -20.5 -42.501 -37.5s-16.834 -39.5 -21.501 -67.5h44l-11 -75h-72z" />
    <glyph glyph-name="eogonek" unicode="&#x119;" horiz-adv-x="704" 
d="M535 -142l9.00195 63.999c2.66699 19.333 6.16699 36.166 10.5 50.499s9.16602 25.833 14.499 34.5l9 11c-30 -9.33301 -63.833 -16.833 -101.5 -22.5s-73.5 -8.5 -107.5 -8.5c-50 0 -93.833 4 -131.5 12s-68.167 23.833 -91.5 47.5s-39 56.667 -47 99
s-7.33301 98.166 2 167.499c10 72 25.667 130.333 47 175s47.333 79.334 78 104.001s65.167 41.334 103.5 50.001s79.833 13 124.5 13c48 0 89.833 -4.66699 125.5 -14s64.5 -26.166 86.5 -50.499s36.667 -57.5 44 -99.5s6.33301 -96 -3 -162l-4 -26h-529
c-6.66699 -55.333 -7.66699 -99.833 -3 -133.5s15.667 -59.834 33 -78.501s41.5 -31.167 72.5 -37.5s69.5 -9.5 115.5 -9.5c20 0 40.833 1.83301 62.5 5.5s42.167 8 61.5 13s37.166 10.167 53.499 15.5l39.5 13l26 -53c-18.667 -11.333 -32.667 -25.166 -42 -41.499
s-16 -37.5 -20 -63.5h44l-10 -75h-72zM635.002 360.999c5.33301 51.333 5.16602 92.667 -0.500977 124s-16.5 55.5 -32.5 72.5s-37.167 28.167 -63.5 33.5s-57.166 8 -92.499 8c-30.667 0 -59.667 -1.83301 -87 -5.5s-52.333 -13.167 -75 -28.5s-42.5 -39 -59.5 -71
s-30.833 -76.333 -41.5 -133h452z" />
    <glyph glyph-name="Ecaron" unicode="&#x11a;" horiz-adv-x="566" 
d="M79 0l90 642h480l-18 -57h-398l-32 -224h323l-8 -57h-323l-34 -246h408l-18 -58h-470zM475 693h-96l-78 102h77l53 -75l73 75h77z" />
    <glyph glyph-name="ecaron" unicode="&#x11b;" horiz-adv-x="704" 
d="M635 38c-14.667 -6.66699 -32.499 -13.001 -53.499 -19.001s-43.333 -11.333 -67 -16s-48 -8.5 -73 -11.5s-49.167 -4.5 -72.5 -4.5c-50 0 -93.833 4 -131.5 12s-68.167 23.833 -91.5 47.5s-39 56.667 -47 99s-7.33301 98.166 2 167.499c10 72 25.667 130.333 47 175
s47.333 79.334 78 104.001s65.167 41.334 103.5 50.001s79.833 13 124.5 13c48 0 89.833 -4.66699 125.5 -14s64.5 -26.166 86.5 -50.499s36.667 -57.5 44 -99.5s6.33301 -96 -3 -162l-4 -26h-529c-6.66699 -55.333 -7.66699 -99.833 -3 -133.5s15.667 -59.834 33 -78.501
s41.5 -31.167 72.5 -37.5s69.5 -9.5 115.5 -9.5c20 0 40.833 1.83301 62.5 5.5s42.167 8 61.5 13s37.166 10.167 53.499 15.5l39.5 13zM635.001 360.999c5.33301 51.333 5.16602 92.667 -0.500977 124s-16.5 55.5 -32.5 72.5s-37.167 28.167 -63.5 33.5s-57.166 8 -92.499 8
c-30.667 0 -59.667 -1.83301 -87 -5.5s-52.333 -13.167 -75 -28.5s-42.5 -39 -59.5 -71s-30.833 -76.333 -41.5 -133h452zM497.001 693h-96l-78 102h77l53 -75l73 75h77z" />
    <glyph glyph-name="Gcircumflex" unicode="&#x11c;" horiz-adv-x="672" 
d="M602 304l-204.996 0.000976562l18 57h263l-44 -316c-14.667 -8 -32.334 -15.333 -53.001 -22s-42.834 -12.5 -66.501 -17.5s-48.167 -8.83301 -73.5 -11.5s-50 -4 -74 -4c-50.667 0 -94.834 4 -132.501 12s-68 24 -91 48s-38.333 58 -46 102s-6.5 101.667 3.5 173
c10 70.667 25.667 127.667 47 171s47.833 76.666 79.5 99.999s67.834 39 108.501 47s85.667 12 135 12c46.667 0 89.167 -3.66699 127.5 -11s70.5 -17.666 96.5 -30.999l-41 -53c-18 6.66699 -43.833 14.667 -77.5 24s-70.834 14 -111.501 14
c-36 0 -69.667 -2.33301 -101 -7s-59.5 -16 -84.5 -34s-46.5 -45.167 -64.5 -81.5s-31.333 -86.166 -40 -149.499c-8 -60 -10.333 -108.333 -7 -145s13.5 -64.834 30.5 -84.501s41.333 -32.834 73 -39.501s71.167 -10 118.5 -10c15.333 0 31.5 1.16699 48.5 3.5
s33.667 5.16602 50 8.49902s31.666 7.33301 45.999 12s26.5 9.33398 36.5 14.001zM495.004 707.001l-47 84l-71 -84h-72l51 54l52 53h80l76 -107h-69z" />
    <glyph glyph-name="gcircumflex" unicode="&#x11d;" horiz-adv-x="672" 
d="M602 304l-204.996 0.000976562l18 57h263l-44 -316c-14.667 -8 -32.334 -15.333 -53.001 -22s-42.834 -12.5 -66.501 -17.5s-48.167 -8.83301 -73.5 -11.5s-50 -4 -74 -4c-50.667 0 -94.834 4 -132.501 12s-68 24 -91 48s-38.333 58 -46 102s-6.5 101.667 3.5 173
c10 70.667 25.667 127.667 47 171s47.833 76.666 79.5 99.999s67.834 39 108.501 47s85.667 12 135 12c46.667 0 89.167 -3.66699 127.5 -11s70.5 -17.666 96.5 -30.999l-41 -53c-18 6.66699 -43.833 14.667 -77.5 24s-70.834 14 -111.501 14
c-36 0 -69.667 -2.33301 -101 -7s-59.5 -16 -84.5 -34s-46.5 -45.167 -64.5 -81.5s-31.333 -86.166 -40 -149.499c-8 -60 -10.333 -108.333 -7 -145s13.5 -64.834 30.5 -84.501s41.333 -32.834 73 -39.501s71.167 -10 118.5 -10c15.333 0 31.5 1.16699 48.5 3.5
s33.667 5.16602 50 8.49902s31.666 7.33301 45.999 12s26.5 9.33398 36.5 14.001zM495.004 707.001l-47 84l-71 -84h-72l51 54l52 53h80l76 -107h-69z" />
    <glyph glyph-name="Gbreve" unicode="&#x11e;" horiz-adv-x="672" 
d="M602 304l-204.996 0.000976562l18 57h263l-44 -316c-14.667 -8 -32.334 -15.333 -53.001 -22s-42.834 -12.5 -66.501 -17.5s-48.167 -8.83301 -73.5 -11.5s-50 -4 -74 -4c-50.667 0 -94.834 4 -132.501 12s-68 24 -91 48s-38.333 58 -46 102s-6.5 101.667 3.5 173
c10 70.667 25.667 127.667 47 171s47.833 76.666 79.5 99.999s67.834 39 108.501 47s85.667 12 135 12c46.667 0 89.167 -3.66699 127.5 -11s70.5 -17.666 96.5 -30.999l-41 -53c-18 6.66699 -43.833 14.667 -77.5 24s-70.834 14 -111.501 14
c-36 0 -69.667 -2.33301 -101 -7s-59.5 -16 -84.5 -34s-46.5 -45.167 -64.5 -81.5s-31.333 -86.166 -40 -149.499c-8 -60 -10.333 -108.333 -7 -145s13.5 -64.834 30.5 -84.501s41.333 -32.834 73 -39.501s71.167 -10 118.5 -10c15.333 0 31.5 1.16699 48.5 3.5
s33.667 5.16602 50 8.49902s31.666 7.33301 45.999 12s26.5 9.33398 36.5 14.001zM589.004 819.001c-11.333 -35.333 -30.332 -62.832 -56.999 -82.499s-59 -29.5 -97 -29.5c-39.333 0 -69.333 9.16699 -90 27.5s-31.334 46.5 -32.001 84.5h43c4 -46 31.333 -69 82 -69
c29.333 0 52.5 5.66699 69.5 17s30.167 28.666 39.5 51.999h42z" />
    <glyph glyph-name="gbreve" unicode="&#x11f;" horiz-adv-x="672" 
d="M602 304l-204.996 0.000976562l18 57h263l-44 -316c-14.667 -8 -32.334 -15.333 -53.001 -22s-42.834 -12.5 -66.501 -17.5s-48.167 -8.83301 -73.5 -11.5s-50 -4 -74 -4c-50.667 0 -94.834 4 -132.501 12s-68 24 -91 48s-38.333 58 -46 102s-6.5 101.667 3.5 173
c10 70.667 25.667 127.667 47 171s47.833 76.666 79.5 99.999s67.834 39 108.501 47s85.667 12 135 12c46.667 0 89.167 -3.66699 127.5 -11s70.5 -17.666 96.5 -30.999l-41 -53c-18 6.66699 -43.833 14.667 -77.5 24s-70.834 14 -111.501 14
c-36 0 -69.667 -2.33301 -101 -7s-59.5 -16 -84.5 -34s-46.5 -45.167 -64.5 -81.5s-31.333 -86.166 -40 -149.499c-8 -60 -10.333 -108.333 -7 -145s13.5 -64.834 30.5 -84.501s41.333 -32.834 73 -39.501s71.167 -10 118.5 -10c15.333 0 31.5 1.16699 48.5 3.5
s33.667 5.16602 50 8.49902s31.666 7.33301 45.999 12s26.5 9.33398 36.5 14.001zM589.004 819.001c-11.333 -35.333 -30.332 -62.832 -56.999 -82.499s-59 -29.5 -97 -29.5c-39.333 0 -69.333 9.16699 -90 27.5s-31.334 46.5 -32.001 84.5h43c4 -46 31.333 -69 82 -69
c29.333 0 52.5 5.66699 69.5 17s30.167 28.666 39.5 51.999h42z" />
    <glyph glyph-name="Gdotaccent" unicode="&#x120;" horiz-adv-x="672" 
d="M602 304l-204.996 0.000976562l18 57h263l-44 -316c-14.667 -8 -32.334 -15.333 -53.001 -22s-42.834 -12.5 -66.501 -17.5s-48.167 -8.83301 -73.5 -11.5s-50 -4 -74 -4c-50.667 0 -94.834 4 -132.501 12s-68 24 -91 48s-38.333 58 -46 102s-6.5 101.667 3.5 173
c10 70.667 25.667 127.667 47 171s47.833 76.666 79.5 99.999s67.834 39 108.501 47s85.667 12 135 12c46.667 0 89.167 -3.66699 127.5 -11s70.5 -17.666 96.5 -30.999l-41 -53c-18 6.66699 -43.833 14.667 -77.5 24s-70.834 14 -111.501 14
c-36 0 -69.667 -2.33301 -101 -7s-59.5 -16 -84.5 -34s-46.5 -45.167 -64.5 -81.5s-31.333 -86.166 -40 -149.499c-8 -60 -10.333 -108.333 -7 -145s13.5 -64.834 30.5 -84.501s41.333 -32.834 73 -39.501s71.167 -10 118.5 -10c15.333 0 31.5 1.16699 48.5 3.5
s33.667 5.16602 50 8.49902s31.666 7.33301 45.999 12s26.5 9.33398 36.5 14.001zM478.004 737.001h-78l10 73h78z" />
    <glyph glyph-name="gdotaccent" unicode="&#x121;" horiz-adv-x="672" 
d="M602 304l-204.996 0.000976562l18 57h263l-44 -316c-14.667 -8 -32.334 -15.333 -53.001 -22s-42.834 -12.5 -66.501 -17.5s-48.167 -8.83301 -73.5 -11.5s-50 -4 -74 -4c-50.667 0 -94.834 4 -132.501 12s-68 24 -91 48s-38.333 58 -46 102s-6.5 101.667 3.5 173
c10 70.667 25.667 127.667 47 171s47.833 76.666 79.5 99.999s67.834 39 108.501 47s85.667 12 135 12c46.667 0 89.167 -3.66699 127.5 -11s70.5 -17.666 96.5 -30.999l-41 -53c-18 6.66699 -43.833 14.667 -77.5 24s-70.834 14 -111.501 14
c-36 0 -69.667 -2.33301 -101 -7s-59.5 -16 -84.5 -34s-46.5 -45.167 -64.5 -81.5s-31.333 -86.166 -40 -149.499c-8 -60 -10.333 -108.333 -7 -145s13.5 -64.834 30.5 -84.501s41.333 -32.834 73 -39.501s71.167 -10 118.5 -10c15.333 0 31.5 1.16699 48.5 3.5
s33.667 5.16602 50 8.49902s31.666 7.33301 45.999 12s26.5 9.33398 36.5 14.001zM478.004 737.001h-78l10 73h78z" />
    <glyph glyph-name="uni0122" unicode="&#x122;" horiz-adv-x="672" 
d="M602 304l-204.996 0.000976562l18 57h263l-44 -316c-14.667 -8 -32.334 -15.333 -53.001 -22s-42.834 -12.5 -66.501 -17.5s-48.167 -8.83301 -73.5 -11.5s-50 -4 -74 -4c-50.667 0 -94.834 4 -132.501 12s-68 24 -91 48s-38.333 58 -46 102s-6.5 101.667 3.5 173
c10 70.667 25.667 127.667 47 171s47.833 76.666 79.5 99.999s67.834 39 108.501 47s85.667 12 135 12c46.667 0 89.167 -3.66699 127.5 -11s70.5 -17.666 96.5 -30.999l-41 -53c-18 6.66699 -43.833 14.667 -77.5 24s-70.834 14 -111.501 14
c-36 0 -69.667 -2.33301 -101 -7s-59.5 -16 -84.5 -34s-46.5 -45.167 -64.5 -81.5s-31.333 -86.166 -40 -149.499c-8 -60 -10.333 -108.333 -7 -145s13.5 -64.834 30.5 -84.501s41.333 -32.834 73 -39.501s71.167 -10 118.5 -10c15.333 0 31.5 1.16699 48.5 3.5
s33.667 5.16602 50 8.49902s31.666 7.33301 45.999 12s26.5 9.33398 36.5 14.001zM299.004 -244.999c18.667 9.33301 33.167 22.667 43.5 40s18.833 42 25.5 74h-50l10 73h77l-12 -83c-4 -30 -13 -54.833 -27 -74.5s-32.667 -35.167 -56 -46.5z" />
    <glyph glyph-name="uni0123" unicode="&#x123;" horiz-adv-x="672" 
d="M602 304l-204.996 0.000976562l18 57h263l-44 -316c-14.667 -8 -32.334 -15.333 -53.001 -22s-42.834 -12.5 -66.501 -17.5s-48.167 -8.83301 -73.5 -11.5s-50 -4 -74 -4c-50.667 0 -94.834 4 -132.501 12s-68 24 -91 48s-38.333 58 -46 102s-6.5 101.667 3.5 173
c10 70.667 25.667 127.667 47 171s47.833 76.666 79.5 99.999s67.834 39 108.501 47s85.667 12 135 12c46.667 0 89.167 -3.66699 127.5 -11s70.5 -17.666 96.5 -30.999l-41 -53c-18 6.66699 -43.833 14.667 -77.5 24s-70.834 14 -111.501 14
c-36 0 -69.667 -2.33301 -101 -7s-59.5 -16 -84.5 -34s-46.5 -45.167 -64.5 -81.5s-31.333 -86.166 -40 -149.499c-8 -60 -10.333 -108.333 -7 -145s13.5 -64.834 30.5 -84.501s41.333 -32.834 73 -39.501s71.167 -10 118.5 -10c15.333 0 31.5 1.16699 48.5 3.5
s33.667 5.16602 50 8.49902s31.666 7.33301 45.999 12s26.5 9.33398 36.5 14.001zM299.004 -244.999c18.667 9.33301 33.167 22.667 43.5 40s18.833 42 25.5 74h-50l10 73h77l-12 -83c-4 -30 -13 -54.833 -27 -74.5s-32.667 -35.167 -56 -46.5z" />
    <glyph glyph-name="Hcircumflex" unicode="&#x124;" horiz-adv-x="681" 
d="M530 0l43 312h-380l-43 -312h-71l90 642h71l-38 -271h380l38 271h71l-90 -642h-71zM500 707l-47 84l-71 -84h-72l51 54l52 53h80l76 -107h-69z" />
    <glyph glyph-name="hcircumflex" unicode="&#x125;" horiz-adv-x="681" 
d="M530 0l43 312h-380l-43 -312h-71l90 642h71l-38 -271h380l38 271h71l-90 -642h-71zM500 707l-47 84l-71 -84h-72l51 54l52 53h80l76 -107h-69z" />
    <glyph glyph-name="Hbar" unicode="&#x126;" horiz-adv-x="681" 
d="M530 0l43 312h-380l-43 -312h-71l69 493h-79l5 38h79l16 111h71l-16 -111h380l16 111h71l-16 -111h81l-5 -38h-81l-69 -493h-71zM599 493h-380l-17 -122h380z" />
    <glyph glyph-name="hbar" unicode="&#x127;" horiz-adv-x="681" 
d="M530 0l43 312h-380l-43 -312h-71l69 493h-79l5 38h79l16 111h71l-16 -111h380l16 111h71l-16 -111h81l-5 -38h-81l-69 -493h-71zM599 493h-380l-17 -122h380z" />
    <glyph glyph-name="Itilde" unicode="&#x128;" horiz-adv-x="241" 
d="M79 0l90 642h72l-90 -642h-72zM383 803c-6 -26.667 -17.5 -47.335 -34.5 -62.002s-36.833 -22 -59.5 -22c-9.33301 0 -19.833 2.16699 -31.5 6.5s-25.167 10.5 -40.5 18.5c-20 12 -36 18 -48 18c-8 0 -14.833 -1.16699 -20.5 -3.5s-11.5 -6.16602 -17.5 -11.499
c-3.33301 -3.33301 -6.5 -7.33301 -9.5 -12s-5.16699 -10.667 -6.5 -18h-43c2.66699 13.333 6.5 24.5 11.5 33.5s12.167 17.5 21.5 25.5c19.333 17.333 41.666 26 66.999 26c9.33301 0 20 -2.16699 32 -6.5s25.667 -10.166 41 -17.499c18 -10 33.667 -15 47 -15
c12.667 0 22.834 2.66699 30.501 8s14.167 16 19.5 32h41z" />
    <glyph glyph-name="itilde" unicode="&#x129;" horiz-adv-x="241" 
d="M79 0l90 642h72l-90 -642h-72zM383 803c-6 -26.667 -17.5 -47.335 -34.5 -62.002s-36.833 -22 -59.5 -22c-9.33301 0 -19.833 2.16699 -31.5 6.5s-25.167 10.5 -40.5 18.5c-20 12 -36 18 -48 18c-8 0 -14.833 -1.16699 -20.5 -3.5s-11.5 -6.16602 -17.5 -11.499
c-3.33301 -3.33301 -6.5 -7.33301 -9.5 -12s-5.16699 -10.667 -6.5 -18h-43c2.66699 13.333 6.5 24.5 11.5 33.5s12.167 17.5 21.5 25.5c19.333 17.333 41.666 26 66.999 26c9.33301 0 20 -2.16699 32 -6.5s25.667 -10.166 41 -17.499c18 -10 33.667 -15 47 -15
c12.667 0 22.834 2.66699 30.501 8s14.167 16 19.5 32h41z" />
    <glyph glyph-name="Imacron" unicode="&#x12a;" horiz-adv-x="241" 
d="M79 0l90 642h72l-90 -642h-72zM88 745l6 38h275l-6 -38h-275z" />
    <glyph glyph-name="imacron" unicode="&#x12b;" horiz-adv-x="241" 
d="M79 0l90 642h72l-90 -642h-72zM88 745l6 38h275l-6 -38h-275z" />
    <glyph glyph-name="Ibreve" unicode="&#x12c;" horiz-adv-x="241" 
d="M79 0l90 642h72l-90 -642h-72zM375 819c-11.333 -35.333 -30.332 -62.832 -56.999 -82.499s-59 -29.5 -97 -29.5c-39.333 0 -69.333 9.16699 -90 27.5s-31.334 46.5 -32.001 84.5h43c4 -46 31.333 -69 82 -69c29.333 0 52.5 5.66699 69.5 17s30.167 28.666 39.5 51.999
h42z" />
    <glyph glyph-name="ibreve" unicode="&#x12d;" horiz-adv-x="241" 
d="M79 0l90 642h72l-90 -642h-72zM371 795c-11.333 -35.333 -30.333 -62.832 -57 -82.499s-59 -29.5 -97 -29.5c-79.333 0 -120 37.333 -122 112h43c5.33301 -46 33 -69 83 -69c29.333 0 52.333 5.66699 69 17s29.667 28.666 39 51.999h42z" />
    <glyph glyph-name="Iogonek" unicode="&#x12e;" horiz-adv-x="241" 
d="M195 -151c-17.333 -2 -36.999 -3.00098 -58.999 -3.00098c-42 0 -72.667 7.83301 -92 23.5s-27.333 33.167 -24 52.5c1.33301 14 9.83301 26.5 25.5 37.5s38.5 18.167 68.5 21.5l-3 19h-32l90 642h72l-90 -640l5 -34c-16 -0.666992 -28.833 -2.16699 -38.5 -4.5
s-17.167 -5.33301 -22.5 -9s-9 -7.66699 -11 -12s-3.33301 -9.16602 -4 -14.499c-0.666992 -12 3.66602 -22.667 12.999 -32c14.667 -9.33301 37 -14 67 -14h14c6 0 11.667 0.333008 17 1h4v-34z" />
    <glyph glyph-name="iogonek" unicode="&#x12f;" horiz-adv-x="241" 
d="M195 -151c-17.333 -2 -36.999 -3.00098 -58.999 -3.00098c-42 0 -72.667 7.83301 -92 23.5s-27.333 33.167 -24 52.5c1.33301 14 9.83301 26.5 25.5 37.5s38.5 18.167 68.5 21.5l-3 19h-32l90 642h72l-90 -640l5 -34c-16 -0.666992 -28.833 -2.16699 -38.5 -4.5
s-17.167 -5.33301 -22.5 -9s-9 -7.66699 -11 -12s-3.33301 -9.16602 -4 -14.499c-0.666992 -12 3.66602 -22.667 12.999 -32c14.667 -9.33301 37 -14 67 -14h14c6 0 11.667 0.333008 17 1h4v-34z" />
    <glyph glyph-name="Idotaccent" unicode="&#x130;" horiz-adv-x="241" 
d="M79 0l90 642h72l-90 -642h-72zM262 737h-78l10 73h78z" />
    <glyph glyph-name="dotlessi" unicode="&#x131;" horiz-adv-x="241" 
d="M79 0l90 642h72l-90 -642h-72z" />
    <glyph glyph-name="IJ" unicode="&#x132;" horiz-adv-x="563" 
d="M79 0l90 642h72l-90 -642h-72zM253 48c31.333 0 58.166 0.832031 80.499 2.49902s41 7.33398 56 17.001s27 24.5 36 44.5s16.167 48.333 21.5 85l63 445h71l-62 -441c-6 -44 -15 -79.5 -27 -106.5s-28.833 -47.833 -50.5 -62.5s-48.667 -24.5 -81 -29.5
s-72.166 -7.5 -119.499 -7.5z" />
    <glyph glyph-name="ij" unicode="&#x133;" horiz-adv-x="573" 
d="M79 0l90 642h72l-90 -642h-72zM263 48c31.333 0 58.166 0.832031 80.499 2.49902s41 7.33398 56 17.001s27 24.5 36 44.5s16.167 48.333 21.5 85l63 445h71l-62 -441c-6 -44 -15 -79.5 -27 -106.5s-28.833 -47.833 -50.5 -62.5s-48.667 -24.5 -81 -29.5
s-72.166 -7.5 -119.499 -7.5z" />
    <glyph glyph-name="Jcircumflex" unicode="&#x134;" horiz-adv-x="322" 
d="M12 48c31.333 0 58.166 0.832031 80.499 2.49902s41 7.33398 56 17.001s27 24.5 36 44.5s16.167 48.333 21.5 85l63 445h71l-62 -441c-6 -44 -15 -79.5 -27 -106.5s-28.833 -47.833 -50.5 -62.5s-48.667 -24.5 -81 -29.5s-72.166 -7.5 -119.499 -7.5zM373 706.999l-47 84
l-71 -84h-72l51 54l52 53h80l76 -107h-69z" />
    <glyph glyph-name="jcircumflex" unicode="&#x135;" horiz-adv-x="322" 
d="M12 48c31.333 0 58.166 0.832031 80.499 2.49902s41 7.33398 56 17.001s27 24.5 36 44.5s16.167 48.333 21.5 85l63 445h71l-62 -441c-6 -44 -15 -79.5 -27 -106.5s-28.833 -47.833 -50.5 -62.5s-48.667 -24.5 -81 -29.5s-72.166 -7.5 -119.499 -7.5zM376 706.999l-47 84
l-71 -84h-72l51 54l52 53h80l76 -107h-69z" />
    <glyph glyph-name="uni0136" unicode="&#x136;" horiz-adv-x="675" 
d="M526 0l-174 292h-161l-41 -292h-71l90 642h71l-41 -293h161l256 293h94l-145 -160.5l-146 -160.5l100.5 -161l100.5 -160h-94zM262 -245c18.667 9.33301 33.167 22.667 43.5 40s18.833 42 25.5 74h-50l10 73h77l-12 -83c-4 -30 -13 -54.833 -27 -74.5
s-32.667 -35.167 -56 -46.5z" />
    <glyph glyph-name="uni0137" unicode="&#x137;" horiz-adv-x="680" 
d="M627 0c-17.333 -2.66699 -33.001 -3.5 -47.001 -2.5s-27.5 5.16699 -40.5 12.5s-26 18.333 -39 33s-27.167 34.667 -42.5 60l-115 189h-158l-41 -292h-71l90 642h71l-41 -293h158l264 293h89l-145 -160.5l-146 -160.5l115 -186c12.667 -20 23.834 -35.667 33.501 -47
s19 -19.833 28 -25.5s18 -9 27 -10s18.5 -0.833008 28.5 0.5zM261.999 -245c18.667 9.33301 33.167 22.667 43.5 40s18.833 42 25.5 74h-50l10 73h77l-12 -83c-4 -30 -13 -54.833 -27 -74.5s-32.667 -35.167 -56 -46.5z" />
    <glyph glyph-name="kgreenlandic" unicode="&#x138;" horiz-adv-x="680" 
d="M627 0c-17.333 -2.66699 -33.001 -3.5 -47.001 -2.5s-27.5 5.16699 -40.5 12.5s-26 18.333 -39 33s-27.167 34.667 -42.5 60l-115 189h-158l-41 -292h-71l90 642h71l-41 -293h158l264 293h89l-145 -160.5l-146 -160.5l115 -186c12.667 -20 23.834 -35.667 33.501 -47
s19 -19.833 28 -25.5s18 -9 27 -10s18.5 -0.833008 28.5 0.5z" />
    <glyph glyph-name="Lacute" unicode="&#x139;" horiz-adv-x="532" 
d="M79 0l90 642h71l-82 -584h382l-18 -58h-443zM175 689l68 107h85l-52 -53.5l-51 -53.5h-50z" />
    <glyph glyph-name="lacute" unicode="&#x13a;" horiz-adv-x="532" 
d="M79 0l90 642h71l-82 -584h382l-18 -58h-443zM175 689l68 107h85l-52 -53.5l-51 -53.5h-50z" />
    <glyph glyph-name="uni013B" unicode="&#x13b;" horiz-adv-x="532" 
d="M79 0l90 642h71l-82 -584h382l-18 -58h-443zM191 -245c18.667 9.33301 33.167 22.667 43.5 40s18.833 42 25.5 74h-50l10 73h77l-12 -83c-4 -30 -13 -54.833 -27 -74.5s-32.667 -35.167 -56 -46.5z" />
    <glyph glyph-name="uni013C" unicode="&#x13c;" horiz-adv-x="532" 
d="M79 0l90 642h71l-82 -584h382l-18 -58h-443zM262 -245c18.667 9.33301 33.167 22.667 43.5 40s18.833 42 25.5 74h-50l10 73h77l-12 -83c-4 -30 -13 -54.833 -27 -74.5s-32.667 -35.167 -56 -46.5z" />
    <glyph glyph-name="Lcaron" unicode="&#x13d;" horiz-adv-x="532" 
d="M79 0l90 642h71l-82 -584h382l-18 -58h-443zM454 476c32 15.333 52.3311 50.666 60.998 105.999h-44l11 75h72l-9 -64c-3.33301 -19.333 -7.16602 -36.166 -11.499 -50.499s-9.16602 -25.833 -14.499 -34.5c-7.33301 -9.33301 -15.333 -18 -24 -26s-19.667 -15 -33 -21z
" />
    <glyph glyph-name="lcaron" unicode="&#x13e;" horiz-adv-x="532" 
d="M79 0l90 642h71l-82 -584h382l-18 -58h-443zM454 476c32 15.333 52.3311 50.666 60.998 105.999h-44l11 75h72l-9 -64c-3.33301 -19.333 -7.16602 -36.166 -11.499 -50.499s-9.16602 -25.833 -14.499 -34.5c-7.33301 -9.33301 -15.333 -18 -24 -26s-19.667 -15 -33 -21z
" />
    <glyph glyph-name="Ldot" unicode="&#x13f;" horiz-adv-x="532" 
d="M79 0l90 642h71l-82 -584h382l-18 -58h-443zM368 292l10 73h77l-10 -73h-77z" />
    <glyph glyph-name="ldot" unicode="&#x140;" horiz-adv-x="532" 
d="M79 0l90 642h71l-82 -584h382l-18 -58h-443zM368 292l10 73h77l-10 -73h-77z" />
    <glyph glyph-name="Lslash" unicode="&#x141;" horiz-adv-x="532" 
d="M79 0l27 198l-89 -56l-9 43l106 68l55 389h71l-48 -340l205 131l9 -45l-222 -140l-26 -190h382l-18 -58h-443z" />
    <glyph glyph-name="lslash" unicode="&#x142;" horiz-adv-x="532" 
d="M79 0l27 198l-89 -56l-9 43l106 68l55 389h71l-48 -340l205 131l9 -45l-222 -140l-26 -190h382l-18 -58h-443z" />
    <glyph glyph-name="Nacute" unicode="&#x143;" horiz-adv-x="685" 
d="M526 0l-303 544l-76 -544h-68l90 642h80l303 -542l76 542h67l-90 -642h-79zM368 689l68 107h85l-52 -53.5l-51 -53.5h-50z" />
    <glyph glyph-name="nacute" unicode="&#x144;" horiz-adv-x="685" 
d="M526 0l-303 544l-76 -544h-68l90 642h80l303 -542l76 542h67l-90 -642h-79zM368 689l68 107h85l-52 -53.5l-51 -53.5h-50z" />
    <glyph glyph-name="uni0145" unicode="&#x145;" horiz-adv-x="685" 
d="M526 0l-303 544l-76 -544h-68l90 642h80l303 -542l76 542h67l-90 -642h-79zM267 -245c18.667 9.33301 33.167 22.667 43.5 40s18.833 42 25.5 74h-50l10 73h77l-12 -83c-4 -30 -13 -54.833 -27 -74.5s-32.667 -35.167 -56 -46.5z" />
    <glyph glyph-name="uni0146" unicode="&#x146;" horiz-adv-x="685" 
d="M526 0l-303 544l-76 -544h-68l90 642h80l303 -542l76 542h67l-90 -642h-79zM267 -245c18.667 9.33301 33.167 22.667 43.5 40s18.833 42 25.5 74h-50l10 73h77l-12 -83c-4 -30 -13 -54.833 -27 -74.5s-32.667 -35.167 -56 -46.5z" />
    <glyph glyph-name="Ncaron" unicode="&#x147;" horiz-adv-x="685" 
d="M526 0l-303 544l-76 -544h-68l90 642h80l303 -542l76 542h67l-90 -642h-79zM487 693h-96l-78 102h77l53 -75l73 75h77z" />
    <glyph glyph-name="ncaron" unicode="&#x148;" horiz-adv-x="685" 
d="M526 0l-303 544l-76 -544h-68l90 642h80l303 -542l76 542h67l-90 -642h-79zM487 693h-96l-78 102h77l53 -75l73 75h77z" />
    <glyph glyph-name="napostrophe" unicode="&#x149;" horiz-adv-x="685" 
d="M526 0l-303 544l-76 -544h-68l90 642h80l303 -542l76 542h67l-90 -642h-79zM91 658c18.667 9.33301 33.167 22.667 43.5 40s18.833 42 25.5 74h-50l10 73h77l-12 -83c-4 -30 -13 -54.833 -27 -74.5s-32.667 -35.167 -56 -46.5z" />
    <glyph glyph-name="Eng" unicode="&#x14a;" horiz-adv-x="685" 
d="M223 544l-75.9971 -543.999h-68l90 642h80l303 -542l76 542h67l-90 -642c-4.66699 -32.667 -13.5 -59.167 -26.5 -79.5s-30.667 -36 -53 -47s-49.5 -18.333 -81.5 -22s-69 -5.5 -111 -5.5l13 53c27.333 0 54.166 1.5 80.499 4.5s48.666 8.16699 66.999 15.5
s31.166 17.666 38.499 30.999s5.33301 30 -6 50z" />
    <glyph glyph-name="eng" unicode="&#x14b;" horiz-adv-x="685" 
d="M223 544l-75.9971 -543.999h-68l90 642h80l303 -542l76 542h67l-90 -642c-4.66699 -32.667 -13.5 -59.167 -26.5 -79.5s-30.667 -36 -53 -47s-49.5 -18.333 -81.5 -22s-69 -5.5 -111 -5.5l13 53c27.333 0 54.166 1.5 80.499 4.5s48.666 8.16699 66.999 15.5
s31.166 17.666 38.499 30.999s5.33301 30 -6 50z" />
    <glyph glyph-name="Omacron" unicode="&#x14c;" 
d="M463 599c-32.667 0 -64.1699 -1.5 -94.5029 -4.5s-58.166 -13.167 -83.499 -30.5s-47.333 -44.833 -66 -82.5s-33 -90.834 -43 -159.501c-6.66699 -46 -9.16699 -84.833 -7.5 -116.5s6.66699 -57.667 15 -78s19.333 -36.166 33 -47.499s29.334 -19.5 47.001 -24.5
s36.834 -8 57.501 -9s42 -1.5 64 -1.5c21.333 0 42.333 0.5 63 1.5s40.667 4 60 9s37.5 13.167 54.5 24.5s32.5 27.166 46.5 47.499s26.333 46.333 37 78s19.334 70.5 26.001 116.5c10 68.667 10.667 121.834 2 159.501s-23.334 65.167 -44.001 82.5s-45.667 27.5 -75 30.5
s-60 4.5 -92 4.5zM101.997 322c10 72 26.501 129.833 49.501 173.5s50.667 77.334 83 101.001s68.666 39.334 108.999 47.001s82.833 11.5 127.5 11.5s86 -3.83301 124 -11.5s69.833 -23.334 95.5 -47.001s43.834 -57.334 54.501 -101.001s11 -101.5 1 -173.5
s-26.5 -129.833 -49.5 -173.5s-50.833 -77.334 -83.5 -101.001s-69 -39.334 -109 -47.001s-82.333 -11.5 -127 -11.5s-86 3.83301 -124 11.5s-69.833 23.334 -95.5 47.001s-43.834 57.334 -54.501 101.001s-11 101.5 -1 173.5zM344.998 745l6 38h275l-6 -38h-275z" />
    <glyph glyph-name="omacron" unicode="&#x14d;" 
d="M463 599c-32.667 0 -64.1699 -1.5 -94.5029 -4.5s-58.166 -13.167 -83.499 -30.5s-47.333 -44.833 -66 -82.5s-33 -90.834 -43 -159.501c-6.66699 -46 -9.16699 -84.833 -7.5 -116.5s6.66699 -57.667 15 -78s19.333 -36.166 33 -47.499s29.334 -19.5 47.001 -24.5
s36.834 -8 57.501 -9s42 -1.5 64 -1.5c21.333 0 42.333 0.5 63 1.5s40.667 4 60 9s37.5 13.167 54.5 24.5s32.5 27.166 46.5 47.499s26.333 46.333 37 78s19.334 70.5 26.001 116.5c10 68.667 10.667 121.834 2 159.501s-23.334 65.167 -44.001 82.5s-45.667 27.5 -75 30.5
s-60 4.5 -92 4.5zM101.997 322c10 72 26.501 129.833 49.501 173.5s50.667 77.334 83 101.001s68.666 39.334 108.999 47.001s82.833 11.5 127.5 11.5s86 -3.83301 124 -11.5s69.833 -23.334 95.5 -47.001s43.834 -57.334 54.501 -101.001s11 -101.5 1 -173.5
s-26.5 -129.833 -49.5 -173.5s-50.833 -77.334 -83.5 -101.001s-69 -39.334 -109 -47.001s-82.333 -11.5 -127 -11.5s-86 3.83301 -124 11.5s-69.833 23.334 -95.5 47.001s-43.834 57.334 -54.501 101.001s-11 101.5 -1 173.5zM344.998 745l6 38h275l-6 -38h-275z" />
    <glyph glyph-name="Obreve" unicode="&#x14e;" 
d="M463 599c-32.667 0 -64.1699 -1.5 -94.5029 -4.5s-58.166 -13.167 -83.499 -30.5s-47.333 -44.833 -66 -82.5s-33 -90.834 -43 -159.501c-6.66699 -46 -9.16699 -84.833 -7.5 -116.5s6.66699 -57.667 15 -78s19.333 -36.166 33 -47.499s29.334 -19.5 47.001 -24.5
s36.834 -8 57.501 -9s42 -1.5 64 -1.5c21.333 0 42.333 0.5 63 1.5s40.667 4 60 9s37.5 13.167 54.5 24.5s32.5 27.166 46.5 47.499s26.333 46.333 37 78s19.334 70.5 26.001 116.5c10 68.667 10.667 121.834 2 159.501s-23.334 65.167 -44.001 82.5s-45.667 27.5 -75 30.5
s-60 4.5 -92 4.5zM101.997 322c10 72 26.501 129.833 49.501 173.5s50.667 77.334 83 101.001s68.666 39.334 108.999 47.001s82.833 11.5 127.5 11.5s86 -3.83301 124 -11.5s69.833 -23.334 95.5 -47.001s43.834 -57.334 54.501 -101.001s11 -101.5 1 -173.5
s-26.5 -129.833 -49.5 -173.5s-50.833 -77.334 -83.5 -101.001s-69 -39.334 -109 -47.001s-82.333 -11.5 -127 -11.5s-86 3.83301 -124 11.5s-69.833 23.334 -95.5 47.001s-43.834 57.334 -54.501 101.001s-11 101.5 -1 173.5zM631.998 819
c-11.333 -35.333 -30.332 -62.832 -56.999 -82.499s-59 -29.5 -97 -29.5c-39.333 0 -69.333 9.16699 -90 27.5s-31.334 46.5 -32.001 84.5h43c4 -46 31.333 -69 82 -69c29.333 0 52.5 5.66699 69.5 17s30.167 28.666 39.5 51.999h42z" />
    <glyph glyph-name="obreve" unicode="&#x14f;" 
d="M463 599c-32.667 0 -64.1699 -1.5 -94.5029 -4.5s-58.166 -13.167 -83.499 -30.5s-47.333 -44.833 -66 -82.5s-33 -90.834 -43 -159.501c-6.66699 -46 -9.16699 -84.833 -7.5 -116.5s6.66699 -57.667 15 -78s19.333 -36.166 33 -47.499s29.334 -19.5 47.001 -24.5
s36.834 -8 57.501 -9s42 -1.5 64 -1.5c21.333 0 42.333 0.5 63 1.5s40.667 4 60 9s37.5 13.167 54.5 24.5s32.5 27.166 46.5 47.499s26.333 46.333 37 78s19.334 70.5 26.001 116.5c10 68.667 10.667 121.834 2 159.501s-23.334 65.167 -44.001 82.5s-45.667 27.5 -75 30.5
s-60 4.5 -92 4.5zM101.997 322c10 72 26.501 129.833 49.501 173.5s50.667 77.334 83 101.001s68.666 39.334 108.999 47.001s82.833 11.5 127.5 11.5s86 -3.83301 124 -11.5s69.833 -23.334 95.5 -47.001s43.834 -57.334 54.501 -101.001s11 -101.5 1 -173.5
s-26.5 -129.833 -49.5 -173.5s-50.833 -77.334 -83.5 -101.001s-69 -39.334 -109 -47.001s-82.333 -11.5 -127 -11.5s-86 3.83301 -124 11.5s-69.833 23.334 -95.5 47.001s-43.834 57.334 -54.501 101.001s-11 101.5 -1 173.5zM631.998 819
c-11.333 -35.333 -30.332 -62.832 -56.999 -82.499s-59 -29.5 -97 -29.5c-39.333 0 -69.333 9.16699 -90 27.5s-31.334 46.5 -32.001 84.5h43c4 -46 31.333 -69 82 -69c29.333 0 52.5 5.66699 69.5 17s30.167 28.666 39.5 51.999h42z" />
    <glyph glyph-name="Ohungarumlaut" unicode="&#x150;" 
d="M463 599c-32.667 0 -64.1699 -1.5 -94.5029 -4.5s-58.166 -13.167 -83.499 -30.5s-47.333 -44.833 -66 -82.5s-33 -90.834 -43 -159.501c-6.66699 -46 -9.16699 -84.833 -7.5 -116.5s6.66699 -57.667 15 -78s19.333 -36.166 33 -47.499s29.334 -19.5 47.001 -24.5
s36.834 -8 57.501 -9s42 -1.5 64 -1.5c21.333 0 42.333 0.5 63 1.5s40.667 4 60 9s37.5 13.167 54.5 24.5s32.5 27.166 46.5 47.499s26.333 46.333 37 78s19.334 70.5 26.001 116.5c10 68.667 10.667 121.834 2 159.501s-23.334 65.167 -44.001 82.5s-45.667 27.5 -75 30.5
s-60 4.5 -92 4.5zM101.997 322c10 72 26.501 129.833 49.501 173.5s50.667 77.334 83 101.001s68.666 39.334 108.999 47.001s82.833 11.5 127.5 11.5s86 -3.83301 124 -11.5s69.833 -23.334 95.5 -47.001s43.834 -57.334 54.501 -101.001s11 -101.5 1 -173.5
s-26.5 -129.833 -49.5 -173.5s-50.833 -77.334 -83.5 -101.001s-69 -39.334 -109 -47.001s-82.333 -11.5 -127 -11.5s-86 3.83301 -124 11.5s-69.833 23.334 -95.5 47.001s-43.834 57.334 -54.501 101.001s-11 101.5 -1 173.5zM321.998 707l68 106.999h85
c-20 -19.333 -37.667 -37.166 -53 -53.499l-50 -53.5h-50zM495.998 706.999l68 106.999h85c-20 -19.333 -37.667 -37.166 -53 -53.499l-50 -53.5h-50z" />
    <glyph glyph-name="ohungarumlaut" unicode="&#x151;" 
d="M463 599c-32.667 0 -64.1699 -1.5 -94.5029 -4.5s-58.166 -13.167 -83.499 -30.5s-47.333 -44.833 -66 -82.5s-33 -90.834 -43 -159.501c-6.66699 -46 -9.16699 -84.833 -7.5 -116.5s6.66699 -57.667 15 -78s19.333 -36.166 33 -47.499s29.334 -19.5 47.001 -24.5
s36.834 -8 57.501 -9s42 -1.5 64 -1.5c21.333 0 42.333 0.5 63 1.5s40.667 4 60 9s37.5 13.167 54.5 24.5s32.5 27.166 46.5 47.499s26.333 46.333 37 78s19.334 70.5 26.001 116.5c10 68.667 10.667 121.834 2 159.501s-23.334 65.167 -44.001 82.5s-45.667 27.5 -75 30.5
s-60 4.5 -92 4.5zM101.997 322c10 72 26.501 129.833 49.501 173.5s50.667 77.334 83 101.001s68.666 39.334 108.999 47.001s82.833 11.5 127.5 11.5s86 -3.83301 124 -11.5s69.833 -23.334 95.5 -47.001s43.834 -57.334 54.501 -101.001s11 -101.5 1 -173.5
s-26.5 -129.833 -49.5 -173.5s-50.833 -77.334 -83.5 -101.001s-69 -39.334 -109 -47.001s-82.333 -11.5 -127 -11.5s-86 3.83301 -124 11.5s-69.833 23.334 -95.5 47.001s-43.834 57.334 -54.501 101.001s-11 101.5 -1 173.5zM321.998 707l68 106.999h85
c-20 -19.333 -37.667 -37.166 -53 -53.499l-50 -53.5h-50zM495.998 706.999l68 106.999h85c-20 -19.333 -37.667 -37.166 -53 -53.499l-50 -53.5h-50z" />
    <glyph glyph-name="OE" unicode="&#x152;" horiz-adv-x="1167" 
d="M630 0l9.00391 69.9961c-17.333 -16.667 -35.833 -30.167 -55.5 -40.5s-40.667 -18.5 -63 -24.5s-45.5 -10.167 -69.5 -12.5s-48.667 -3.5 -74 -3.5c-44.667 0 -86 3.83301 -124 11.5s-69.833 23.334 -95.5 47.001s-43.834 57.334 -54.501 101.001s-11 101.5 -1 173.5
s26.5 129.833 49.5 173.5s50.667 77.334 83 101.001s68.666 39.334 108.999 47.001s82.833 11.5 127.5 11.5c25.333 0 49.666 -1.16699 72.999 -3.5s45.166 -6.5 65.499 -12.5s39 -14.167 56 -24.5s31.833 -23.833 44.5 -40.5l10 68h480l-18 -57h-398l-32 -224h323l-8 -57
h-323l-34 -246h408l-18 -58h-470zM385.004 44.9961c21.333 0 42.3301 0.5 62.9971 1.5s40.667 4 60 9s37.5 13.167 54.5 24.5s32.5 27.166 46.5 47.499s26.333 46.333 37 78s19.334 70.5 26.001 116.5c10 68.667 10.667 121.834 2 159.501s-23.334 65.167 -44.001 82.5
s-45.667 27.5 -75 30.5s-60 4.5 -92 4.5c-32.667 0 -64.167 -1.5 -94.5 -4.5s-58.166 -13.167 -83.499 -30.5s-47.333 -44.833 -66 -82.5s-33 -90.834 -43 -159.501c-6.66699 -46 -9.16699 -84.833 -7.5 -116.5s6.66699 -57.667 15 -78s19.333 -36.166 33 -47.499
s29.334 -19.5 47.001 -24.5s36.834 -8 57.501 -9s42 -1.5 64 -1.5z" />
    <glyph glyph-name="oe" unicode="&#x153;" horiz-adv-x="1286" 
d="M1203 38c-14.667 -6.66699 -32.5 -13.002 -53.5 -19.002s-43.333 -11.333 -67 -16s-48 -8.5 -73 -11.5s-49.167 -4.5 -72.5 -4.5c-34 0 -65.167 1.66699 -93.5 5s-53.666 9.66602 -75.999 18.999s-41.333 22.166 -57 38.499s-27.834 37.166 -36.501 62.499
c-17.333 -25.333 -36.833 -46 -58.5 -62s-45.167 -28.5 -70.5 -37.5s-52.166 -15.167 -80.499 -18.5s-57.5 -5 -87.5 -5c-44.667 0 -86 3.83301 -124 11.5s-69.833 23.334 -95.5 47.001s-43.834 57.334 -54.501 101.001s-11 101.5 -1 173.5s26.5 129.833 49.5 173.5
s50.667 77.334 83 101.001s68.666 39.334 108.999 47.001s82.833 11.5 127.5 11.5c30.667 0 59.834 -1.66699 87.501 -5s53 -9.83301 76 -19.5s43.167 -23 60.5 -40s31 -38.833 41 -65.5c16 26 34.333 47.5 55 64.5s43 30.333 67 40s49.833 16.334 77.5 20.001
s56.5 5.5 86.5 5.5c48 0 89.833 -4.66699 125.5 -14s64.5 -26.166 86.5 -50.499s36.667 -57.5 44 -99.5s6.33301 -96 -3 -162l-4 -26h-529l-1 -10c-6 -52.667 -6.5 -95.334 -1.5 -128.001s16.333 -58 34 -76s41.834 -30 72.501 -36s68.667 -9 114 -9
c20 0 40.833 1.83301 62.5 5.5s42.167 8 61.5 13s37.166 10.167 53.499 15.5l39.5 13zM674 347.998c7.33301 62.667 6.16504 110.999 -3.50195 144.999s-24.667 58.833 -45 74.5s-44.833 24.834 -73.5 27.501s-58.334 4 -89.001 4c-32.667 0 -64.167 -1.5 -94.5 -4.5
s-58.166 -13.167 -83.499 -30.5s-47.333 -44.833 -66 -82.5s-33 -90.834 -43 -159.501c-6.66699 -46 -9.16699 -84.833 -7.5 -116.5s6.66699 -57.667 15 -78s19.333 -36.166 33 -47.499s29.334 -19.5 47.001 -24.5s36.834 -8 57.501 -9s42 -1.5 64 -1.5
c30.667 0 60.5 1.33301 89.5 4s56 11.5 81 26.5s47 39 66 72s33.833 79.5 44.5 139.5zM1203 360.997c5.33301 51.333 5.16602 92.667 -0.500977 124s-16.5 55.5 -32.5 72.5s-37.167 28.167 -63.5 33.5s-57.166 8 -92.499 8c-30.667 0 -59.667 -1.83301 -87 -5.5
s-52.333 -13.167 -75 -28.5s-42.5 -39 -59.5 -71s-30.833 -76.333 -41.5 -133h452z" />
    <glyph glyph-name="Racute" unicode="&#x154;" horiz-adv-x="669" 
d="M527 0l-137.998 230.998h-206l-32 -231h-72l90 642h260c47.333 0 86.666 -2.5 117.999 -7.5s55.666 -14.833 72.999 -29.5s28.166 -35.5 32.499 -62.5s3.5 -62.5 -2.5 -106.5c-5.33301 -35.333 -12.166 -65 -20.499 -89s-19.5 -43.667 -33.5 -59s-31 -27.166 -51 -35.499
s-44 -14.166 -72 -17.499l145 -235h-91zM381.002 287.998c31.333 0 58.165 1.16602 80.498 3.49902s41 8.33301 56 18s27 24.334 36 44.001s16.167 47.167 21.5 82.5c4.66699 36.667 5.33398 65 2.00098 85s-11.166 34.667 -23.499 44s-29.333 15 -51 17s-48.167 3 -79.5 3
h-190l-42 -297h190zM360.001 688.997l68 107h85l-52 -53.5l-51 -53.5h-50z" />
    <glyph glyph-name="racute" unicode="&#x155;" horiz-adv-x="669" 
d="M527 0l-137.998 230.998h-206l-32 -231h-72l90 642h260c47.333 0 86.666 -2.5 117.999 -7.5s55.666 -14.833 72.999 -29.5s28.166 -35.5 32.499 -62.5s3.5 -62.5 -2.5 -106.5c-5.33301 -35.333 -12.166 -65 -20.499 -89s-19.5 -43.667 -33.5 -59s-31 -27.166 -51 -35.499
s-44 -14.166 -72 -17.499l145 -235h-91zM381.002 287.998c31.333 0 58.165 1.16602 80.498 3.49902s41 8.33301 56 18s27 24.334 36 44.001s16.167 47.167 21.5 82.5c4.66699 36.667 5.33398 65 2.00098 85s-11.166 34.667 -23.499 44s-29.333 15 -51 17s-48.167 3 -79.5 3
h-190l-42 -297h190zM360.001 688.997l68 107h85l-52 -53.5l-51 -53.5h-50z" />
    <glyph glyph-name="uni0156" unicode="&#x156;" horiz-adv-x="669" 
d="M527 0l-137.998 230.998h-206l-32 -231h-72l90 642h260c47.333 0 86.666 -2.5 117.999 -7.5s55.666 -14.833 72.999 -29.5s28.166 -35.5 32.499 -62.5s3.5 -62.5 -2.5 -106.5c-5.33301 -35.333 -12.166 -65 -20.499 -89s-19.5 -43.667 -33.5 -59s-31 -27.166 -51 -35.499
s-44 -14.166 -72 -17.499l145 -235h-91zM381.002 287.998c31.333 0 58.165 1.16602 80.498 3.49902s41 8.33301 56 18s27 24.334 36 44.001s16.167 47.167 21.5 82.5c4.66699 36.667 5.33398 65 2.00098 85s-11.166 34.667 -23.499 44s-29.333 15 -51 17s-48.167 3 -79.5 3
h-190l-42 -297h190zM262.001 -245.003c18.667 9.33301 33.167 22.667 43.5 40s18.833 42 25.5 74h-50l10 73h77l-12 -83c-4 -30 -13 -54.833 -27 -74.5s-32.667 -35.167 -56 -46.5z" />
    <glyph glyph-name="uni0157" unicode="&#x157;" horiz-adv-x="681" 
d="M628 0c-17.333 -2.66699 -32.999 -3.50195 -46.999 -2.50195s-27.5 5.16699 -40.5 12.5s-26 18.333 -39 33s-27.167 34.667 -42.5 60l-76 128h-18h-187l-32 -231h-72l90 642h259c47.333 0 86.666 -2.5 117.999 -7.5s55.666 -14.833 72.999 -29.5
s28.166 -35.5 32.499 -62.5s3.5 -62.5 -2.5 -106.5c-5.33301 -35.333 -12.166 -65 -20.499 -89s-19.5 -43.667 -33.5 -59s-31 -27.166 -51 -35.499s-44 -14.166 -72 -17.499l62 -100c12.667 -20 23.834 -35.667 33.501 -47s19 -19.833 28 -25.5s18 -9 27 -10
s18.5 -0.833008 28.5 0.5zM375.001 287.998c31.333 0 58.165 1.16602 80.498 3.49902s41 8.33301 56 18s27 24.334 36 44.001s16.167 47.167 21.5 82.5c4.66699 36.667 5.33398 65 2.00098 85s-11.166 34.667 -23.499 44s-29.333 15 -51 17s-48.167 3 -79.5 3h-189l-42 -297
h189zM262 -245.003c18.667 9.33301 33.167 22.667 43.5 40s18.833 42 25.5 74h-50l10 73h77l-12 -83c-4 -30 -13 -54.833 -27 -74.5s-32.667 -35.167 -56 -46.5z" />
    <glyph glyph-name="Rcaron" unicode="&#x158;" horiz-adv-x="669" 
d="M527 0l-137.998 230.998h-206l-32 -231h-72l90 642h260c47.333 0 86.666 -2.5 117.999 -7.5s55.666 -14.833 72.999 -29.5s28.166 -35.5 32.499 -62.5s3.5 -62.5 -2.5 -106.5c-5.33301 -35.333 -12.166 -65 -20.499 -89s-19.5 -43.667 -33.5 -59s-31 -27.166 -51 -35.499
s-44 -14.166 -72 -17.499l145 -235h-91zM381.002 287.998c31.333 0 58.165 1.16602 80.498 3.49902s41 8.33301 56 18s27 24.334 36 44.001s16.167 47.167 21.5 82.5c4.66699 36.667 5.33398 65 2.00098 85s-11.166 34.667 -23.499 44s-29.333 15 -51 17s-48.167 3 -79.5 3
h-190l-42 -297h190zM454.001 692.997h-96l-78 102h77l53 -75l73 75h77z" />
    <glyph glyph-name="rcaron" unicode="&#x159;" horiz-adv-x="681" 
d="M628 0c-17.333 -2.66699 -32.999 -3.50195 -46.999 -2.50195s-27.5 5.16699 -40.5 12.5s-26 18.333 -39 33s-27.167 34.667 -42.5 60l-76 128h-18h-187l-32 -231h-72l90 642h259c47.333 0 86.666 -2.5 117.999 -7.5s55.666 -14.833 72.999 -29.5
s28.166 -35.5 32.499 -62.5s3.5 -62.5 -2.5 -106.5c-5.33301 -35.333 -12.166 -65 -20.499 -89s-19.5 -43.667 -33.5 -59s-31 -27.166 -51 -35.499s-44 -14.166 -72 -17.499l62 -100c12.667 -20 23.834 -35.667 33.501 -47s19 -19.833 28 -25.5s18 -9 27 -10
s18.5 -0.833008 28.5 0.5zM375.001 287.998c31.333 0 58.165 1.16602 80.498 3.49902s41 8.33301 56 18s27 24.334 36 44.001s16.167 47.167 21.5 82.5c4.66699 36.667 5.33398 65 2.00098 85s-11.166 34.667 -23.499 44s-29.333 15 -51 17s-48.167 3 -79.5 3h-189l-42 -297
h189zM485 692.997h-96l-78 102h77l53 -75l73 75h77z" />
    <glyph glyph-name="Sacute" unicode="&#x15a;" horiz-adv-x="624" 
d="M600 562c-9.33301 3.33301 -21.335 6.99805 -36.002 10.998s-31 7.83301 -49 11.5s-37.167 6.66699 -57.5 9s-40.5 3.5 -60.5 3.5c-59.333 0 -105.5 -8.5 -138.5 -25.5s-52.5 -48.167 -58.5 -93.5c-3.33301 -21.333 -4.66602 -37.666 -3.99902 -48.999
s4.83398 -20.5 12.501 -27.5s19.5 -12.667 35.5 -17s38 -9.5 66 -15.5c36 -8 72.5 -15.167 109.5 -21.5s70 -15.666 99 -27.999s51.667 -29.5 68 -51.5s22.166 -52.333 17.499 -91c-5.33301 -38.667 -16 -70.167 -32 -94.5s-36.167 -43.5 -60.5 -57.5
s-52.833 -23.5 -85.5 -28.5s-68 -7.5 -106 -7.5c-23.333 0 -47.833 1.16699 -73.5 3.5s-50.667 5.83301 -75 10.5s-47 9.83398 -68 15.501s-38.5 12.167 -52.5 19.5c7.33301 10 13.833 19.333 19.5 28s12.167 17.667 19.5 27c8.66699 -4 21 -8.66699 37 -14
s34.667 -10.333 56 -15s45 -8.66699 71 -12s53.667 -5 83 -5c28 0 53.333 0.666992 76 2s42.334 6 59.001 14s30.334 20.5 41.001 37.5s18.334 41.167 23.001 72.5c2.66699 20 2.5 35.833 -0.5 47.5s-9.33301 21 -19 28s-23.167 12.5 -40.5 16.5s-39 8.66699 -65 14
c-54.667 10.667 -101 20.167 -139 28.5s-68.333 19 -91 32s-38 30.333 -46 52s-9.33301 50.834 -4 87.501c4 29.333 13.667 55 29 77s34.833 40.167 58.5 54.5s50.167 25.166 79.5 32.499s60 11 92 11c23.333 0 47.166 -0.833008 71.499 -2.5s47.666 -4.16699 69.999 -7.5
s43 -7.33301 62 -12s34.833 -10.334 47.5 -17.001zM365.998 688.998l68 107h85l-52 -53.5l-51 -53.5h-50z" />
    <glyph glyph-name="sacute" unicode="&#x15b;" horiz-adv-x="624" 
d="M600 562c-9.33301 3.33301 -21.335 6.99805 -36.002 10.998s-31 7.83301 -49 11.5s-37.167 6.66699 -57.5 9s-40.5 3.5 -60.5 3.5c-59.333 0 -105.5 -8.5 -138.5 -25.5s-52.5 -48.167 -58.5 -93.5c-3.33301 -21.333 -4.66602 -37.666 -3.99902 -48.999
s4.83398 -20.5 12.501 -27.5s19.5 -12.667 35.5 -17s38 -9.5 66 -15.5c36 -8 72.5 -15.167 109.5 -21.5s70 -15.666 99 -27.999s51.667 -29.5 68 -51.5s22.166 -52.333 17.499 -91c-5.33301 -38.667 -16 -70.167 -32 -94.5s-36.167 -43.5 -60.5 -57.5
s-52.833 -23.5 -85.5 -28.5s-68 -7.5 -106 -7.5c-23.333 0 -47.833 1.16699 -73.5 3.5s-50.667 5.83301 -75 10.5s-47 9.83398 -68 15.501s-38.5 12.167 -52.5 19.5c7.33301 10 13.833 19.333 19.5 28s12.167 17.667 19.5 27c8.66699 -4 21 -8.66699 37 -14
s34.667 -10.333 56 -15s45 -8.66699 71 -12s53.667 -5 83 -5c28 0 53.333 0.666992 76 2s42.334 6 59.001 14s30.334 20.5 41.001 37.5s18.334 41.167 23.001 72.5c2.66699 20 2.5 35.833 -0.5 47.5s-9.33301 21 -19 28s-23.167 12.5 -40.5 16.5s-39 8.66699 -65 14
c-54.667 10.667 -101 20.167 -139 28.5s-68.333 19 -91 32s-38 30.333 -46 52s-9.33301 50.834 -4 87.501c4 29.333 13.667 55 29 77s34.833 40.167 58.5 54.5s50.167 25.166 79.5 32.499s60 11 92 11c23.333 0 47.166 -0.833008 71.499 -2.5s47.666 -4.16699 69.999 -7.5
s43 -7.33301 62 -12s34.833 -10.334 47.5 -17.001zM365.998 688.998l68 107h85l-52 -53.5l-51 -53.5h-50z" />
    <glyph glyph-name="Scircumflex" unicode="&#x15c;" horiz-adv-x="624" 
d="M600 562c-9.33301 3.33301 -21.335 6.99805 -36.002 10.998s-31 7.83301 -49 11.5s-37.167 6.66699 -57.5 9s-40.5 3.5 -60.5 3.5c-59.333 0 -105.5 -8.5 -138.5 -25.5s-52.5 -48.167 -58.5 -93.5c-3.33301 -21.333 -4.66602 -37.666 -3.99902 -48.999
s4.83398 -20.5 12.501 -27.5s19.5 -12.667 35.5 -17s38 -9.5 66 -15.5c36 -8 72.5 -15.167 109.5 -21.5s70 -15.666 99 -27.999s51.667 -29.5 68 -51.5s22.166 -52.333 17.499 -91c-5.33301 -38.667 -16 -70.167 -32 -94.5s-36.167 -43.5 -60.5 -57.5
s-52.833 -23.5 -85.5 -28.5s-68 -7.5 -106 -7.5c-23.333 0 -47.833 1.16699 -73.5 3.5s-50.667 5.83301 -75 10.5s-47 9.83398 -68 15.501s-38.5 12.167 -52.5 19.5c7.33301 10 13.833 19.333 19.5 28s12.167 17.667 19.5 27c8.66699 -4 21 -8.66699 37 -14
s34.667 -10.333 56 -15s45 -8.66699 71 -12s53.667 -5 83 -5c28 0 53.333 0.666992 76 2s42.334 6 59.001 14s30.334 20.5 41.001 37.5s18.334 41.167 23.001 72.5c2.66699 20 2.5 35.833 -0.5 47.5s-9.33301 21 -19 28s-23.167 12.5 -40.5 16.5s-39 8.66699 -65 14
c-54.667 10.667 -101 20.167 -139 28.5s-68.333 19 -91 32s-38 30.333 -46 52s-9.33301 50.834 -4 87.501c4 29.333 13.667 55 29 77s34.833 40.167 58.5 54.5s50.167 25.166 79.5 32.499s60 11 92 11c23.333 0 47.166 -0.833008 71.499 -2.5s47.666 -4.16699 69.999 -7.5
s43 -7.33301 62 -12s34.833 -10.334 47.5 -17.001zM470.998 706.998l-47 84l-71 -84h-72l51 54l52 53h80l76 -107h-69z" />
    <glyph glyph-name="scircumflex" unicode="&#x15d;" horiz-adv-x="624" 
d="M600 562c-9.33301 3.33301 -21.335 6.99805 -36.002 10.998s-31 7.83301 -49 11.5s-37.167 6.66699 -57.5 9s-40.5 3.5 -60.5 3.5c-59.333 0 -105.5 -8.5 -138.5 -25.5s-52.5 -48.167 -58.5 -93.5c-3.33301 -21.333 -4.66602 -37.666 -3.99902 -48.999
s4.83398 -20.5 12.501 -27.5s19.5 -12.667 35.5 -17s38 -9.5 66 -15.5c36 -8 72.5 -15.167 109.5 -21.5s70 -15.666 99 -27.999s51.667 -29.5 68 -51.5s22.166 -52.333 17.499 -91c-5.33301 -38.667 -16 -70.167 -32 -94.5s-36.167 -43.5 -60.5 -57.5
s-52.833 -23.5 -85.5 -28.5s-68 -7.5 -106 -7.5c-23.333 0 -47.833 1.16699 -73.5 3.5s-50.667 5.83301 -75 10.5s-47 9.83398 -68 15.501s-38.5 12.167 -52.5 19.5c7.33301 10 13.833 19.333 19.5 28s12.167 17.667 19.5 27c8.66699 -4 21 -8.66699 37 -14
s34.667 -10.333 56 -15s45 -8.66699 71 -12s53.667 -5 83 -5c28 0 53.333 0.666992 76 2s42.334 6 59.001 14s30.334 20.5 41.001 37.5s18.334 41.167 23.001 72.5c2.66699 20 2.5 35.833 -0.5 47.5s-9.33301 21 -19 28s-23.167 12.5 -40.5 16.5s-39 8.66699 -65 14
c-54.667 10.667 -101 20.167 -139 28.5s-68.333 19 -91 32s-38 30.333 -46 52s-9.33301 50.834 -4 87.501c4 29.333 13.667 55 29 77s34.833 40.167 58.5 54.5s50.167 25.166 79.5 32.499s60 11 92 11c23.333 0 47.166 -0.833008 71.499 -2.5s47.666 -4.16699 69.999 -7.5
s43 -7.33301 62 -12s34.833 -10.334 47.5 -17.001zM470.998 706.998l-47 84l-71 -84h-72l51 54l52 53h80l76 -107h-69z" />
    <glyph glyph-name="Scedilla" unicode="&#x15e;" horiz-adv-x="624" 
d="M202 -156l3.99609 -0.000976562c4.66699 -0.666992 10 -1 16 -1h14c30.667 0 54.334 4.66699 71.001 14c12.667 9.33301 20 20 22 32c0.666992 5.33301 0.666992 10.166 0 14.499s-3.16699 8.33301 -7.5 12s-10.833 6.66699 -19.5 9s-21 3.83301 -37 4.5l26 61
c-22 0.666992 -44.5 2.33398 -67.5 5.00098s-45.333 6.16699 -67 10.5s-41.667 9.33301 -60 15s-33.5 11.5 -45.5 17.5c7.33301 10 13.833 19.333 19.5 28s12.167 17.667 19.5 27c8.66699 -4 21 -8.66699 37 -14s34.667 -10.333 56 -15s45 -8.66699 71 -12s53.667 -5 83 -5
c28 0 53.333 0.666992 76 2s42.334 6 59.001 14s30.334 20.5 41.001 37.5s18.334 41.167 23.001 72.5c2.66699 20 2.5 35.833 -0.5 47.5s-9.33301 21 -19 28s-23.167 12.5 -40.5 16.5s-39 8.66699 -65 14c-54.667 10.667 -101 20.167 -139 28.5s-68.333 19 -91 32
s-38 30.333 -46 52s-9.33301 50.834 -4 87.501c4 29.333 13.667 55 29 77s34.833 40.167 58.5 54.5s50.167 25.166 79.5 32.499s60 11 92 11c23.333 0 47.166 -0.833008 71.499 -2.5s47.666 -4.16699 69.999 -7.5s43 -7.33301 62 -12s34.833 -10.334 47.5 -17.001l-41 -53
c-9.33301 3.33301 -21.333 7 -36 11s-31 7.83301 -49 11.5s-37.167 6.66699 -57.5 9s-40.5 3.5 -60.5 3.5c-59.333 0 -105.5 -8.5 -138.5 -25.5s-52.5 -48.167 -58.5 -93.5c-3.33301 -21.333 -4.66602 -37.666 -3.99902 -48.999s4.83398 -20.5 12.501 -27.5
s19.5 -12.667 35.5 -17s38 -9.5 66 -15.5c36 -8 72.5 -15.167 109.5 -21.5s70 -15.666 99 -27.999s51.667 -29.5 68 -51.5s22.166 -52.333 17.499 -91c-5.33301 -38 -15.666 -69 -30.999 -93s-34.833 -43 -58.5 -57s-51 -23.667 -82 -29s-64.833 -8.33301 -101.5 -9l-21 -47
c28.667 -3.33301 49.334 -10.5 62.001 -21.5s18 -23.5 16 -37.5c-2.66699 -19.333 -15.834 -36.833 -39.501 -52.5s-56.5 -23.5 -98.5 -23.5c-22 0 -41.333 1 -58 3z" />
    <glyph glyph-name="scedilla" unicode="&#x15f;" horiz-adv-x="624" 
d="M202 -156l3.99609 -0.000976562c4.66699 -0.666992 10 -1 16 -1h14c30.667 0 54.334 4.66699 71.001 14c12.667 9.33301 20 20 22 32c0.666992 5.33301 0.666992 10.166 0 14.499s-3.16699 8.33301 -7.5 12s-10.833 6.66699 -19.5 9s-21 3.83301 -37 4.5l26 61
c-22 0.666992 -44.5 2.33398 -67.5 5.00098s-45.333 6.16699 -67 10.5s-41.667 9.33301 -60 15s-33.5 11.5 -45.5 17.5c7.33301 10 13.833 19.333 19.5 28s12.167 17.667 19.5 27c8.66699 -4 21 -8.66699 37 -14s34.667 -10.333 56 -15s45 -8.66699 71 -12s53.667 -5 83 -5
c28 0 53.333 0.666992 76 2s42.334 6 59.001 14s30.334 20.5 41.001 37.5s18.334 41.167 23.001 72.5c2.66699 20 2.5 35.833 -0.5 47.5s-9.33301 21 -19 28s-23.167 12.5 -40.5 16.5s-39 8.66699 -65 14c-54.667 10.667 -101 20.167 -139 28.5s-68.333 19 -91 32
s-38 30.333 -46 52s-9.33301 50.834 -4 87.501c4 29.333 13.667 55 29 77s34.833 40.167 58.5 54.5s50.167 25.166 79.5 32.499s60 11 92 11c23.333 0 47.166 -0.833008 71.499 -2.5s47.666 -4.16699 69.999 -7.5s43 -7.33301 62 -12s34.833 -10.334 47.5 -17.001l-41 -53
c-9.33301 3.33301 -21.333 7 -36 11s-31 7.83301 -49 11.5s-37.167 6.66699 -57.5 9s-40.5 3.5 -60.5 3.5c-59.333 0 -105.5 -8.5 -138.5 -25.5s-52.5 -48.167 -58.5 -93.5c-3.33301 -21.333 -4.66602 -37.666 -3.99902 -48.999s4.83398 -20.5 12.501 -27.5
s19.5 -12.667 35.5 -17s38 -9.5 66 -15.5c36 -8 72.5 -15.167 109.5 -21.5s70 -15.666 99 -27.999s51.667 -29.5 68 -51.5s22.166 -52.333 17.499 -91c-5.33301 -38 -15.666 -69 -30.999 -93s-34.833 -43 -58.5 -57s-51 -23.667 -82 -29s-64.833 -8.33301 -101.5 -9l-21 -47
c28.667 -3.33301 49.334 -10.5 62.001 -21.5s18 -23.5 16 -37.5c-2.66699 -19.333 -15.834 -36.833 -39.501 -52.5s-56.5 -23.5 -98.5 -23.5c-22 0 -41.333 1 -58 3z" />
    <glyph glyph-name="Scaron" unicode="&#x160;" horiz-adv-x="624" 
d="M600 562c-9.33301 3.33301 -21.335 6.99805 -36.002 10.998s-31 7.83301 -49 11.5s-37.167 6.66699 -57.5 9s-40.5 3.5 -60.5 3.5c-59.333 0 -105.5 -8.5 -138.5 -25.5s-52.5 -48.167 -58.5 -93.5c-3.33301 -21.333 -4.66602 -37.666 -3.99902 -48.999
s4.83398 -20.5 12.501 -27.5s19.5 -12.667 35.5 -17s38 -9.5 66 -15.5c36 -8 72.5 -15.167 109.5 -21.5s70 -15.666 99 -27.999s51.667 -29.5 68 -51.5s22.166 -52.333 17.499 -91c-5.33301 -38.667 -16 -70.167 -32 -94.5s-36.167 -43.5 -60.5 -57.5
s-52.833 -23.5 -85.5 -28.5s-68 -7.5 -106 -7.5c-23.333 0 -47.833 1.16699 -73.5 3.5s-50.667 5.83301 -75 10.5s-47 9.83398 -68 15.501s-38.5 12.167 -52.5 19.5c7.33301 10 13.833 19.333 19.5 28s12.167 17.667 19.5 27c8.66699 -4 21 -8.66699 37 -14
s34.667 -10.333 56 -15s45 -8.66699 71 -12s53.667 -5 83 -5c28 0 53.333 0.666992 76 2s42.334 6 59.001 14s30.334 20.5 41.001 37.5s18.334 41.167 23.001 72.5c2.66699 20 2.5 35.833 -0.5 47.5s-9.33301 21 -19 28s-23.167 12.5 -40.5 16.5s-39 8.66699 -65 14
c-54.667 10.667 -101 20.167 -139 28.5s-68.333 19 -91 32s-38 30.333 -46 52s-9.33301 50.834 -4 87.501c4 29.333 13.667 55 29 77s34.833 40.167 58.5 54.5s50.167 25.166 79.5 32.499s60 11 92 11c23.333 0 47.166 -0.833008 71.499 -2.5s47.666 -4.16699 69.999 -7.5
s43 -7.33301 62 -12s34.833 -10.334 47.5 -17.001zM456.998 692.998h-96l-78 102h77l53 -75l73 75h77z" />
    <glyph glyph-name="scaron" unicode="&#x161;" horiz-adv-x="624" 
d="M600 562c-9.33301 3.33301 -21.335 6.99805 -36.002 10.998s-31 7.83301 -49 11.5s-37.167 6.66699 -57.5 9s-40.5 3.5 -60.5 3.5c-59.333 0 -105.5 -8.5 -138.5 -25.5s-52.5 -48.167 -58.5 -93.5c-3.33301 -21.333 -4.66602 -37.666 -3.99902 -48.999
s4.83398 -20.5 12.501 -27.5s19.5 -12.667 35.5 -17s38 -9.5 66 -15.5c36 -8 72.5 -15.167 109.5 -21.5s70 -15.666 99 -27.999s51.667 -29.5 68 -51.5s22.166 -52.333 17.499 -91c-5.33301 -38.667 -16 -70.167 -32 -94.5s-36.167 -43.5 -60.5 -57.5
s-52.833 -23.5 -85.5 -28.5s-68 -7.5 -106 -7.5c-23.333 0 -47.833 1.16699 -73.5 3.5s-50.667 5.83301 -75 10.5s-47 9.83398 -68 15.501s-38.5 12.167 -52.5 19.5c7.33301 10 13.833 19.333 19.5 28s12.167 17.667 19.5 27c8.66699 -4 21 -8.66699 37 -14
s34.667 -10.333 56 -15s45 -8.66699 71 -12s53.667 -5 83 -5c28 0 53.333 0.666992 76 2s42.334 6 59.001 14s30.334 20.5 41.001 37.5s18.334 41.167 23.001 72.5c2.66699 20 2.5 35.833 -0.5 47.5s-9.33301 21 -19 28s-23.167 12.5 -40.5 16.5s-39 8.66699 -65 14
c-54.667 10.667 -101 20.167 -139 28.5s-68.333 19 -91 32s-38 30.333 -46 52s-9.33301 50.834 -4 87.501c4 29.333 13.667 55 29 77s34.833 40.167 58.5 54.5s50.167 25.166 79.5 32.499s60 11 92 11c23.333 0 47.166 -0.833008 71.499 -2.5s47.666 -4.16699 69.999 -7.5
s43 -7.33301 62 -12s34.833 -10.334 47.5 -17.001zM456.998 692.998h-96l-78 102h77l53 -75l73 75h77z" />
    <glyph glyph-name="Tcommaaccent" unicode="&#x162;" horiz-adv-x="543" 
d="M234 0l82 585h-227l18 57h529l-18 -57h-230l-82 -585h-72zM196 -257c32 15.333 52.3311 50.666 60.998 105.999h-44l11 75h72l-9 -64c-3.33301 -19.333 -7.16602 -36.166 -11.499 -50.499s-9.16602 -25.833 -14.499 -34.5c-7.33301 -9.33301 -15.333 -18 -24 -26
s-19.667 -15 -33 -21z" />
    <glyph glyph-name="tcommaaccent" unicode="&#x163;" horiz-adv-x="543" 
d="M234 0l82 585h-227l18 57h529l-18 -57h-230l-82 -585h-72zM196 -257c32 15.333 52.3311 50.666 60.998 105.999h-44l11 75h72l-9 -64c-3.33301 -19.333 -7.16602 -36.166 -11.499 -50.499s-9.16602 -25.833 -14.499 -34.5c-7.33301 -9.33301 -15.333 -18 -24 -26
s-19.667 -15 -33 -21z" />
    <glyph glyph-name="Tcaron" unicode="&#x164;" horiz-adv-x="543" 
d="M234 0l82 585h-227l18 57h529l-18 -57h-230l-82 -585h-72zM416 693h-96l-78 102h77l53 -75l73 75h77z" />
    <glyph glyph-name="tcaron" unicode="&#x165;" horiz-adv-x="543" 
d="M234 0l82 585h-227l18 57h529l-18 -57h-230l-82 -585h-72zM416 693h-96l-78 102h77l53 -75l73 75h77z" />
    <glyph glyph-name="Tbar" unicode="&#x166;" horiz-adv-x="543" 
d="M234 0l60 434h-100l6 38h100l16 113h-227l18 57h529l-18 -57h-230l-16 -113h103l-6 -38h-103l-60 -434h-72z" />
    <glyph glyph-name="tbar" unicode="&#x167;" horiz-adv-x="543" 
d="M234 0l60 434h-100l6 38h100l16 113h-227l18 57h529l-18 -57h-230l-16 -113h103l-6 -38h-103l-60 -434h-72z" />
    <glyph glyph-name="Utilde" unicode="&#x168;" horiz-adv-x="686" 
d="M633 642h71l-53 -372c-7.33301 -50 -16.666 -92.833 -27.999 -128.5s-28.333 -64.667 -51 -87s-52.334 -38.833 -89.001 -49.5s-83.667 -16 -141 -16s-103.166 5.33301 -137.499 16s-59.833 27.167 -76.5 49.5s-26 51.333 -28 87s0.666992 78.5 8 128.5l53 372h71
l-52 -371c-6 -40 -8.83301 -74.167 -8.5 -102.5s6.33301 -51.5 18 -69.5s30.167 -31.167 55.5 -39.5s60.333 -12.5 105 -12.5s80.667 4.16699 108 12.5s49.166 21.5 65.499 39.5s28.5 41.167 36.5 69.5s15 62.5 21 102.5zM604 803c-6 -26.667 -17.5 -47.335 -34.5 -62.002
s-36.833 -22 -59.5 -22c-9.33301 0 -19.833 2.16699 -31.5 6.5s-25.167 10.5 -40.5 18.5c-20 12 -36 18 -48 18c-8 0 -14.833 -1.16699 -20.5 -3.5s-11.5 -6.16602 -17.5 -11.499c-3.33301 -3.33301 -6.5 -7.33301 -9.5 -12s-5.16699 -10.667 -6.5 -18h-43
c2.66699 13.333 6.5 24.5 11.5 33.5s12.167 17.5 21.5 25.5c19.333 17.333 41.666 26 66.999 26c9.33301 0 20 -2.16699 32 -6.5s25.667 -10.166 41 -17.499c18 -10 33.667 -15 47 -15c12.667 0 22.834 2.66699 30.501 8s14.167 16 19.5 32h41z" />
    <glyph glyph-name="utilde" unicode="&#x169;" horiz-adv-x="668" 
d="M633 642h71l-53 -372c-7.33301 -50 -16.666 -92.833 -27.999 -128.5s-28.333 -64.667 -51 -87s-52.334 -38.833 -89.001 -49.5s-83.667 -16 -141 -16s-103.166 5.33301 -137.499 16s-59.833 27.167 -76.5 49.5s-26 51.333 -28 87s0.666992 78.5 8 128.5l53 372h71
l-52 -371c-6 -40 -8.83301 -74.167 -8.5 -102.5s6.33301 -51.5 18 -69.5s30.167 -31.167 55.5 -39.5s60.333 -12.5 105 -12.5s80.667 4.16699 108 12.5s49.166 21.5 65.499 39.5s28.5 41.167 36.5 69.5s15 62.5 21 102.5zM595 803c-6 -26.667 -17.5 -47.335 -34.5 -62.002
s-36.833 -22 -59.5 -22c-9.33301 0 -19.833 2.16699 -31.5 6.5s-25.167 10.5 -40.5 18.5c-20 12 -36 18 -48 18c-8 0 -14.833 -1.16699 -20.5 -3.5s-11.5 -6.16602 -17.5 -11.499c-3.33301 -3.33301 -6.5 -7.33301 -9.5 -12s-5.16699 -10.667 -6.5 -18h-43
c2.66699 13.333 6.5 24.5 11.5 33.5s12.167 17.5 21.5 25.5c19.333 17.333 41.666 26 66.999 26c9.33301 0 20 -2.16699 32 -6.5s25.667 -10.166 41 -17.499c18 -10 33.667 -15 47 -15c12.667 0 22.834 2.66699 30.501 8s14.167 16 19.5 32h41z" />
    <glyph glyph-name="Umacron" unicode="&#x16a;" horiz-adv-x="686" 
d="M633 642h71l-53 -372c-7.33301 -50 -16.666 -92.833 -27.999 -128.5s-28.333 -64.667 -51 -87s-52.334 -38.833 -89.001 -49.5s-83.667 -16 -141 -16s-103.166 5.33301 -137.499 16s-59.833 27.167 -76.5 49.5s-26 51.333 -28 87s0.666992 78.5 8 128.5l53 372h71
l-52 -371c-6 -40 -8.83301 -74.167 -8.5 -102.5s6.33301 -51.5 18 -69.5s30.167 -31.167 55.5 -39.5s60.333 -12.5 105 -12.5s80.667 4.16699 108 12.5s49.166 21.5 65.499 39.5s28.5 41.167 36.5 69.5s15 62.5 21 102.5zM309 745l6 38h275l-6 -38h-275z" />
    <glyph glyph-name="umacron" unicode="&#x16b;" horiz-adv-x="668" 
d="M633 642h71l-53 -372c-7.33301 -50 -16.666 -92.833 -27.999 -128.5s-28.333 -64.667 -51 -87s-52.334 -38.833 -89.001 -49.5s-83.667 -16 -141 -16s-103.166 5.33301 -137.499 16s-59.833 27.167 -76.5 49.5s-26 51.333 -28 87s0.666992 78.5 8 128.5l53 372h71
l-52 -371c-6 -40 -8.83301 -74.167 -8.5 -102.5s6.33301 -51.5 18 -69.5s30.167 -31.167 55.5 -39.5s60.333 -12.5 105 -12.5s80.667 4.16699 108 12.5s49.166 21.5 65.499 39.5s28.5 41.167 36.5 69.5s15 62.5 21 102.5zM300 745l6 38h275l-6 -38h-275z" />
    <glyph glyph-name="Ubreve" unicode="&#x16c;" horiz-adv-x="686" 
d="M633 642h71l-53 -372c-7.33301 -50 -16.666 -92.833 -27.999 -128.5s-28.333 -64.667 -51 -87s-52.334 -38.833 -89.001 -49.5s-83.667 -16 -141 -16s-103.166 5.33301 -137.499 16s-59.833 27.167 -76.5 49.5s-26 51.333 -28 87s0.666992 78.5 8 128.5l53 372h71
l-52 -371c-6 -40 -8.83301 -74.167 -8.5 -102.5s6.33301 -51.5 18 -69.5s30.167 -31.167 55.5 -39.5s60.333 -12.5 105 -12.5s80.667 4.16699 108 12.5s49.166 21.5 65.499 39.5s28.5 41.167 36.5 69.5s15 62.5 21 102.5zM596 819
c-11.333 -35.333 -30.332 -62.832 -56.999 -82.499s-59 -29.5 -97 -29.5c-39.333 0 -69.333 9.16699 -90 27.5s-31.334 46.5 -32.001 84.5h43c4 -46 31.333 -69 82 -69c29.333 0 52.5 5.66699 69.5 17s30.167 28.666 39.5 51.999h42z" />
    <glyph glyph-name="ubreve" unicode="&#x16d;" horiz-adv-x="668" 
d="M633 642h71l-53 -372c-7.33301 -50 -16.666 -92.833 -27.999 -128.5s-28.333 -64.667 -51 -87s-52.334 -38.833 -89.001 -49.5s-83.667 -16 -141 -16s-103.166 5.33301 -137.499 16s-59.833 27.167 -76.5 49.5s-26 51.333 -28 87s0.666992 78.5 8 128.5l53 372h71
l-52 -371c-6 -40 -8.83301 -74.167 -8.5 -102.5s6.33301 -51.5 18 -69.5s30.167 -31.167 55.5 -39.5s60.333 -12.5 105 -12.5s80.667 4.16699 108 12.5s49.166 21.5 65.499 39.5s28.5 41.167 36.5 69.5s15 62.5 21 102.5zM587 819
c-11.333 -35.333 -30.332 -62.832 -56.999 -82.499s-59 -29.5 -97 -29.5c-39.333 0 -69.333 9.16699 -90 27.5s-31.334 46.5 -32.001 84.5h43c4 -46 31.333 -69 82 -69c29.333 0 52.5 5.66699 69.5 17s30.167 28.666 39.5 51.999h42z" />
    <glyph glyph-name="Uring" unicode="&#x16e;" horiz-adv-x="686" 
d="M633 642h71l-53 -372c-7.33301 -50 -16.666 -92.833 -27.999 -128.5s-28.333 -64.667 -51 -87s-52.334 -38.833 -89.001 -49.5s-83.667 -16 -141 -16s-103.166 5.33301 -137.499 16s-59.833 27.167 -76.5 49.5s-26 51.333 -28 87s0.666992 78.5 8 128.5l53 372h71
l-52 -371c-6 -40 -8.83301 -74.167 -8.5 -102.5s6.33301 -51.5 18 -69.5s30.167 -31.167 55.5 -39.5s60.333 -12.5 105 -12.5s80.667 4.16699 108 12.5s49.166 21.5 65.499 39.5s28.5 41.167 36.5 69.5s15 62.5 21 102.5zM441 707c8.66699 0 16.333 1.66699 23 5
s11.334 14 14.001 32c2.66699 17.333 0.833984 27.5 -5.49902 30.5s-13.5 4.5 -21.5 4.5c-8.66699 0 -16.334 -1.5 -23.001 -4.5s-11.334 -13.167 -14.001 -30.5c-2.66699 -18 -1 -28.667 5 -32s13.333 -5 22 -5zM436.999 677c-9.33301 0 -17.6699 0.833008 -25.0029 2.5
s-13.666 4.83398 -18.999 9.50098s-9 11.334 -11 20.001s-2 20.334 0 35.001c2 14 5.16699 25.333 9.5 34s9.83301 15.334 16.5 20.001s13.834 7.83398 21.501 9.50098s16.167 2.5 25.5 2.5c8.66699 0 16.834 -0.833008 24.501 -2.5s14.167 -4.83398 19.5 -9.50098
s9 -11.334 11 -20.001s2 -20 0 -34c-2 -14.667 -5.16699 -26.334 -9.5 -35.001s-9.83301 -15.334 -16.5 -20.001s-14 -7.83398 -22 -9.50098s-16.333 -2.5 -25 -2.5z" />
    <glyph glyph-name="uring" unicode="&#x16f;" horiz-adv-x="668" 
d="M633 642h71l-53 -372c-7.33301 -50 -16.666 -92.833 -27.999 -128.5s-28.333 -64.667 -51 -87s-52.334 -38.833 -89.001 -49.5s-83.667 -16 -141 -16s-103.166 5.33301 -137.499 16s-59.833 27.167 -76.5 49.5s-26 51.333 -28 87s0.666992 78.5 8 128.5l53 372h71
l-52 -371c-6 -40 -8.83301 -74.167 -8.5 -102.5s6.33301 -51.5 18 -69.5s30.167 -31.167 55.5 -39.5s60.333 -12.5 105 -12.5s80.667 4.16699 108 12.5s49.166 21.5 65.499 39.5s28.5 41.167 36.5 69.5s15 62.5 21 102.5zM432 707c8.66699 0 16.333 1.66699 23 5
s11.334 14 14.001 32c2.66699 17.333 0.833984 27.5 -5.49902 30.5s-13.5 4.5 -21.5 4.5c-8.66699 0 -16.334 -1.5 -23.001 -4.5s-11.334 -13.167 -14.001 -30.5c-2.66699 -18 -1 -28.667 5 -32s13.333 -5 22 -5zM427.999 677c-9.33301 0 -17.6699 0.833008 -25.0029 2.5
s-13.666 4.83398 -18.999 9.50098s-9 11.334 -11 20.001s-2 20.334 0 35.001c2 14 5.16699 25.333 9.5 34s9.83301 15.334 16.5 20.001s13.834 7.83398 21.501 9.50098s16.167 2.5 25.5 2.5c8.66699 0 16.834 -0.833008 24.501 -2.5s14.167 -4.83398 19.5 -9.50098
s9 -11.334 11 -20.001s2 -20 0 -34c-2 -14.667 -5.16699 -26.334 -9.5 -35.001s-9.83301 -15.334 -16.5 -20.001s-14 -7.83398 -22 -9.50098s-16.333 -2.5 -25 -2.5z" />
    <glyph glyph-name="Uhungarumlaut" unicode="&#x170;" horiz-adv-x="686" 
d="M633 642h71l-53 -372c-7.33301 -50 -16.666 -92.833 -27.999 -128.5s-28.333 -64.667 -51 -87s-52.334 -38.833 -89.001 -49.5s-83.667 -16 -141 -16s-103.166 5.33301 -137.499 16s-59.833 27.167 -76.5 49.5s-26 51.333 -28 87s0.666992 78.5 8 128.5l53 372h71
l-52 -371c-6 -40 -8.83301 -74.167 -8.5 -102.5s6.33301 -51.5 18 -69.5s30.167 -31.167 55.5 -39.5s60.333 -12.5 105 -12.5s80.667 4.16699 108 12.5s49.166 21.5 65.499 39.5s28.5 41.167 36.5 69.5s15 62.5 21 102.5zM282 689l68 107h85l-52 -53.5l-51 -53.5h-50z
M456 689l68 107h85l-52 -53.5l-51 -53.5h-50z" />
    <glyph glyph-name="uhungarumlaut" unicode="&#x171;" horiz-adv-x="668" 
d="M633 642h71l-53 -372c-7.33301 -50 -16.666 -92.833 -27.999 -128.5s-28.333 -64.667 -51 -87s-52.334 -38.833 -89.001 -49.5s-83.667 -16 -141 -16s-103.166 5.33301 -137.499 16s-59.833 27.167 -76.5 49.5s-26 51.333 -28 87s0.666992 78.5 8 128.5l53 372h71
l-52 -371c-6 -40 -8.83301 -74.167 -8.5 -102.5s6.33301 -51.5 18 -69.5s30.167 -31.167 55.5 -39.5s60.333 -12.5 105 -12.5s80.667 4.16699 108 12.5s49.166 21.5 65.499 39.5s28.5 41.167 36.5 69.5s15 62.5 21 102.5zM273 689l68 107h85l-52 -53.5l-51 -53.5h-50z
M447 689l68 107h85l-52 -53.5l-51 -53.5h-50z" />
    <glyph glyph-name="Uogonek" unicode="&#x172;" horiz-adv-x="686" 
d="M411 -150c-17.333 -2 -36.998 -3.00098 -58.998 -3.00098c-42 0 -72.667 7.83301 -92 23.5s-27.333 33.167 -24 52.5c2 14 10.667 26.5 26 37.5s38 18.167 68 21.5l-1 7c-54.667 0.666992 -98.167 6.5 -130.5 17.5s-56.333 27.833 -72 50.5s-24.334 51.5 -26.001 86.5
s0.833008 77.167 7.5 126.5l53 372h71l-52 -371c-6 -40 -8.83301 -74.167 -8.5 -102.5s6.33301 -51.5 18 -69.5s30.167 -31.167 55.5 -39.5s60.333 -12.5 105 -12.5s80.667 4.16699 108 12.5s49.166 21.5 65.499 39.5s28.5 41.167 36.5 69.5s15 62.5 21 102.5l52 371h71
l-53 -372c-6.66699 -48 -15.5 -89.333 -26.5 -124s-26.667 -63.334 -47 -86.001s-47.166 -39.667 -80.499 -51s-76 -17.666 -128 -18.999l3 -21c-16 -0.666992 -28.833 -2.16699 -38.5 -4.5s-17.167 -5.33301 -22.5 -9s-8.83301 -7.66699 -10.5 -12
s-2.83398 -9.16602 -3.50098 -14.499c-2 -11.333 2 -22 12 -32c14.667 -9.33301 37 -14 67 -14h14c6 0 11.667 0.333008 17 1h4v-34z" />
    <glyph glyph-name="uogonek" unicode="&#x173;" horiz-adv-x="668" 
d="M411 -150c-17.333 -2 -36.998 -3.00098 -58.998 -3.00098c-42 0 -72.667 7.83301 -92 23.5s-27.333 33.167 -24 52.5c2 14 10.667 26.5 26 37.5s38 18.167 68 21.5l-1 7c-54.667 0.666992 -98.167 6.5 -130.5 17.5s-56.333 27.833 -72 50.5s-24.334 51.5 -26.001 86.5
s0.833008 77.167 7.5 126.5l53 372h71l-52 -371c-6 -40 -8.83301 -74.167 -8.5 -102.5s6.33301 -51.5 18 -69.5s30.167 -31.167 55.5 -39.5s60.333 -12.5 105 -12.5s80.667 4.16699 108 12.5s49.166 21.5 65.499 39.5s28.5 41.167 36.5 69.5s15 62.5 21 102.5l52 371h71
l-53 -372c-6.66699 -48 -15.5 -89.333 -26.5 -124s-26.667 -63.334 -47 -86.001s-47.166 -39.667 -80.499 -51s-76 -17.666 -128 -18.999l3 -21c-16 -0.666992 -28.833 -2.16699 -38.5 -4.5s-17.167 -5.33301 -22.5 -9s-8.83301 -7.66699 -10.5 -12
s-2.83398 -9.16602 -3.50098 -14.499c-2 -11.333 2 -22 12 -32c14.667 -9.33301 37 -14 67 -14h14c6 0 11.667 0.333008 17 1h4v-34z" />
    <glyph glyph-name="Wcircumflex" unicode="&#x174;" horiz-adv-x="908" 
d="M600 0l-73 532l-212 -532h-85l-97 642h74l71 -582h6l224 582h69l71 -582h6l224 582h76l-269 -642h-85zM613 707l-47 84l-71 -84h-72l51 54l52 53h80l76 -107h-69z" />
    <glyph glyph-name="wcircumflex" unicode="&#x175;" horiz-adv-x="908" 
d="M600 0l-73 532l-212 -532h-85l-97 642h74l71 -582h6l224 582h69l71 -582h6l224 582h76l-269 -642h-85zM613 707l-47 84l-71 -84h-72l51 54l52 53h80l76 -107h-69z" />
    <glyph glyph-name="Ycircumflex" unicode="&#x176;" horiz-adv-x="618" 
d="M269 0l38 273.999l-102 184l-102 184h86l52 -97.5l52 -97.5c10.667 -19.333 21.5 -40.666 32.5 -63.999l29.5 -63l47 62c18.667 24.667 37 47.667 55 69l79.5 95.5l80.5 95.5h79l-317 -368l-38 -274h-72zM468 706.999l-47 84l-71 -84h-72l51 54l52 53h80l76 -107h-69z
" />
    <glyph glyph-name="ycircumflex" unicode="&#x177;" horiz-adv-x="618" 
d="M269 0l38 273.999l-102 184l-102 184h86l52 -97.5l52 -97.5c10.667 -19.333 21.5 -40.666 32.5 -63.999l29.5 -63l47 62c18.667 24.667 37 47.667 55 69l79.5 95.5l80.5 95.5h79l-317 -368l-38 -274h-72zM468 706.999l-47 84l-71 -84h-72l51 54l52 53h80l76 -107h-69z
" />
    <glyph glyph-name="Ydieresis" unicode="&#x178;" horiz-adv-x="618" 
d="M269 0l38 273.999l-102 184l-102 184h86l52 -97.5l52 -97.5c10.667 -19.333 21.5 -40.666 32.5 -63.999l29.5 -63l47 62c18.667 24.667 37 47.667 55 69l79.5 95.5l80.5 95.5h79l-317 -368l-38 -274h-72zM289 740.999l10 73h70l-10 -73h-70zM467 740.999l10 73h70
l-10 -73h-70z" />
    <glyph glyph-name="Zacute" unicode="&#x179;" horiz-adv-x="585" 
d="M28 0l9 67l512 518h-419l18 57h485l-9 -63l-517 -521h456l-18 -58h-517zM318 689l68 107h85l-52 -53.5l-51 -53.5h-50z" />
    <glyph glyph-name="zacute" unicode="&#x17a;" horiz-adv-x="585" 
d="M28 0l9 67l512 518h-419l18 57h485l-9 -63l-517 -521h456l-18 -58h-517zM318 689l68 107h85l-52 -53.5l-51 -53.5h-50z" />
    <glyph glyph-name="Zdotaccent" unicode="&#x17b;" horiz-adv-x="585" 
d="M28 0l9 67l512 518h-419l18 57h485l-9 -63l-517 -521h456l-18 -58h-517zM431 719h-78l10 73h78z" />
    <glyph glyph-name="zdotaccent" unicode="&#x17c;" horiz-adv-x="585" 
d="M28 0l9 67l512 518h-419l18 57h485l-9 -63l-517 -521h456l-18 -58h-517zM431 719h-78l10 73h78z" />
    <glyph glyph-name="Zcaron" unicode="&#x17d;" horiz-adv-x="585" 
d="M28 0l9 67l512 518h-419l18 57h485l-9 -63l-517 -521h456l-18 -58h-517zM437 693h-96l-78 102h77l53 -75l73 75h77z" />
    <glyph glyph-name="zcaron" unicode="&#x17e;" horiz-adv-x="585" 
d="M28 0l9 67l512 518h-419l18 57h485l-9 -63l-517 -521h456l-18 -58h-517zM437 693h-96l-78 102h77l53 -75l73 75h77z" />
    <glyph glyph-name="uni0186" unicode="&#x186;" horiz-adv-x="650" 
d="M67 84c8.66699 -3.33301 19.9961 -7.33008 33.9961 -11.9971s29.5 -9 46.5 -13s35.333 -7.5 55 -10.5s39.5 -4.5 59.5 -4.5c36 0 69.667 2.5 101 7.5s59.5 16.667 84.5 35s46.333 46 64 83s31.167 87.5 40.5 151.5c8.66699 63.333 9.33398 113.5 2.00098 150.5
s-20.833 64.833 -40.5 83.5s-44.5 30.5 -74.5 35.5s-63 7.5 -99 7.5c-40.667 0 -78.5 -4.33301 -113.5 -13s-62.5 -16.334 -82.5 -23.001l-25 53c60.667 26.667 137.667 40 231 40c48.667 0 92.334 -4.16699 131.001 -12.5s70.334 -24.5 95.001 -48.5
s41.667 -57.833 51 -101.5s9 -100.834 -1 -171.501s-25.667 -127.834 -47 -171.501s-47.833 -77.5 -79.5 -101.5s-68 -40.167 -109 -48.5s-85.833 -12.5 -134.5 -12.5c-46.667 0 -90.167 4 -130.5 12s-73.166 18.667 -98.499 32z" />
    <glyph glyph-name="uni018E" unicode="&#x18e;" horiz-adv-x="566" 
d="M485 0h-470l-2 58h408l34 246h-323l8 57h323l32 224h-398l-2 57h480z" />
    <glyph glyph-name="uni018F" unicode="&#x18f;" horiz-adv-x="704" 
d="M105 339l528.998 0.00488281c6.66699 54.667 7.83398 99 3.50098 133s-15.166 60.333 -32.499 79s-41.5 31.167 -72.5 37.5s-69.5 9.5 -115.5 9.5c-20 0 -40.833 -1.83301 -62.5 -5.5s-42.334 -8 -62.001 -13s-37.667 -10.167 -54 -15.5l-39.5 -13l-26 53
c14.667 6.66699 32.5 13 53.5 19s43.5 11.333 67.5 16s48.5 8.5 73.5 11.5s49.167 4.5 72.5 4.5c50 0 93.833 -4 131.5 -12s68.167 -23.833 91.5 -47.5s39 -56.834 47 -99.501s7 -98.334 -3 -167.001c-10 -72 -25.667 -130.333 -47 -175s-47.166 -79.334 -77.499 -104.001
s-64.666 -41.334 -102.999 -50.001s-79.833 -13 -124.5 -13c-48 0 -89.833 4.66699 -125.5 14s-64.5 26.166 -86.5 50.499s-36.833 57.5 -44.5 99.5s-6.83398 96 2.49902 162zM172.998 281.005c-5.33301 -51.333 -4.99805 -92.667 1.00195 -124s17 -55.5 33 -72.5
s37.167 -28.167 63.5 -33.5s57.166 -8 92.499 -8c30.667 0 59.667 1.83301 87 5.5s52.166 13.167 74.499 28.5s42 39 59 71s30.833 76.333 41.5 133h-452z" />
    <glyph glyph-name="uni0190" unicode="&#x190;" horiz-adv-x="603" 
d="M567 28c-14.667 -6.66699 -32.1699 -12.3301 -52.5029 -16.9971s-42 -8.66699 -65 -12s-46.833 -5.83301 -71.5 -7.5s-48.667 -2.5 -72 -2.5c-47.333 0 -86.666 2.5 -117.999 7.5s-55.833 14 -73.5 27s-29 30.667 -34 53s-5.16699 50.5 -0.5 84.5
c3.33301 24.667 8.33301 45.834 15 63.501s14.667 32.5 24 44.5s20 22.167 32 30.5s25.333 15.833 40 22.5c-12.667 6.66699 -23.667 14.334 -33 23.001s-16.833 19 -22.5 31s-9.33398 26.667 -11.001 44s-0.5 38.666 3.5 63.999c4.66699 34 12.5 62 23.5 84
s27 39.167 48 51.5s47.667 21 80 26s72.166 7.5 119.499 7.5c23.333 0 47 -0.833008 71 -2.5s47.167 -4.16699 69.5 -7.5s43 -7.33301 62 -12s35.167 -10.334 48.5 -17.001l-41 -53c-9.33301 3.33301 -22.166 7 -38.499 11s-34.5 7.83301 -54.5 11.5
s-41.167 6.66699 -63.5 9s-43.5 3.5 -63.5 3.5c-31.333 0 -58.166 -1.33301 -80.499 -4s-41 -8 -56 -16s-26.667 -19.667 -35 -35s-14.166 -35.333 -17.499 -60c-4 -30 -4.33301 -53.667 -1 -71s10.833 -30.333 22.5 -39s27.5 -14.167 47.5 -16.5s44.667 -3.5 74 -3.5h161
l-8 -57h-161c-29.333 0 -54.5 -0.833008 -75.5 -2.5s-38.667 -6.83398 -53 -15.501s-25.666 -21.834 -33.999 -39.501s-14.833 -42.834 -19.5 -75.501c-4 -27.333 -3.83301 -48.833 0.5 -64.5s13 -27.167 26 -34.5s30.5 -11.833 52.5 -13.5s48.667 -2.5 80 -2.5
c20 0 41.5 1.16699 64.5 3.5s45 5.33301 66 9s40.333 7.5 58 11.5s31.5 7.66699 41.5 11z" />
    <glyph glyph-name="florin" unicode="&#x192;" horiz-adv-x="475" 
d="M296 422l-96.0039 0.00292969l14 44h97l22 68c5.33301 17.333 10.833 32.5 16.5 45.5s10.5 22.5 14.5 28.5c11.333 17.333 25.833 30.666 43.5 39.999s40.5 14 68.5 14c10.667 0 23.834 -1.16699 39.501 -3.5s32.167 -5.83301 49.5 -10.5l-20 -50
c-14 3.33301 -26.167 5.5 -36.5 6.5s-19.5 1.5 -27.5 1.5c-10.667 0 -20 -1 -28 -3s-15.167 -6 -21.5 -12s-12.333 -14.333 -18 -25s-11.167 -24.334 -16.5 -41.001l-21 -59h99l-8 -23l-7 -21h-98l-165 -508c-13.333 -42 -29.833 -71 -49.5 -87s-45.834 -24 -78.501 -24
c-13.333 0 -28 0.666992 -44 2s-32.333 3.66602 -49 6.99902l21 50c12.667 -2.66699 23.834 -4.66699 33.501 -6s18.834 -2 27.501 -2c20.667 0 36.834 5 48.501 15s22.834 31 33.501 63z" />
    <glyph glyph-name="uni019F" unicode="&#x19f;" 
d="M377 -11c-44.667 0 -85.999 3.83301 -123.999 11.5s-69.833 23.334 -95.5 47.001s-43.834 57.334 -54.501 101.001s-11 101.5 -1 173.5s26.5 129.833 49.5 173.5s50.667 77.334 83 101.001s68.666 39.334 108.999 47.001s82.833 11.5 127.5 11.5s86 -3.83301 124 -11.5
s69.833 -23.334 95.5 -47.001s43.834 -57.334 54.501 -101.001s11 -101.5 1 -173.5s-26.5 -129.833 -49.5 -173.5s-50.833 -77.334 -83.5 -101.001s-69 -39.334 -109 -47.001s-82.333 -11.5 -127 -11.5zM173.001 301c-4.66699 -42.667 -5.83496 -78.5 -3.50195 -107.5
s7.83301 -53 16.5 -72s19.834 -33.667 33.501 -44s29.334 -17.833 47.001 -22.5s36.5 -7.5 56.5 -8.5s40.667 -1.5 62 -1.5c31.333 0 61.833 1.33301 91.5 4s57 12 82 28s47 41.333 66 76s33.833 84 44.5 148h-496zM675 346c7.33301 62.667 6.16992 111.167 -3.49707 145.5
s-24.834 59.5 -45.501 75.5s-45.334 25.333 -74.001 28s-58.334 4 -89.001 4c-32 0 -62.667 -1.33301 -92 -4s-56.5 -12 -81.5 -28s-47 -41.167 -66 -75.5s-33.833 -82.833 -44.5 -145.5h496z" />
    <glyph glyph-name="Ohorn" unicode="&#x1a0;" 
d="M741 518c6 0 12.002 1.49707 18.002 4.49707s11.667 7.16699 17 12.5c11.333 15.333 19 38.333 23 69c0.666992 3.33301 1.33398 8 2.00098 14s1.33398 11.667 2.00098 17v4l35 5c0 -8.66699 -0.5 -18 -1.5 -28s-2.16699 -20.333 -3.5 -31
c-5.33301 -38 -16 -67.5 -32 -88.5s-33 -33.5 -51 -37.5c2.66699 -19.333 3.5 -40.166 2.5 -62.499s-3.16699 -47.166 -6.5 -74.499c-10 -72 -26.5 -129.833 -49.5 -173.5s-50.833 -77.334 -83.5 -101.001s-69 -39.334 -109 -47.001s-82.333 -11.5 -127 -11.5
s-86 3.83301 -124 11.5s-69.833 23.334 -95.5 47.001s-43.834 57.334 -54.501 101.001s-11 101.5 -1 173.5s26.5 129.833 49.5 173.5s50.667 77.334 83 101.001s68.666 39.334 108.999 47.001s82.833 11.5 127.5 11.5c31.333 0 61.166 -1.83301 89.499 -5.5
s54 -10.5 77 -20.5s43.167 -23.833 60.5 -41.5s30.666 -40.834 39.999 -69.501h3zM385.002 44.9971c21.333 0 42.3301 0.5 62.9971 1.5s40.667 4 60 9s37.5 13.167 54.5 24.5s32.5 27.166 46.5 47.499s26.333 46.333 37 78s19.334 70.5 26.001 116.5
c10 68.667 10.667 121.834 2 159.501s-23.334 65.167 -44.001 82.5s-45.667 27.5 -75 30.5s-60 4.5 -92 4.5c-32.667 0 -64.167 -1.5 -94.5 -4.5s-58.166 -13.167 -83.499 -30.5s-47.333 -44.833 -66 -82.5s-33 -90.834 -43 -159.501
c-6.66699 -46 -9.16699 -84.833 -7.5 -116.5s6.66699 -57.667 15 -78s19.333 -36.166 33 -47.499s29.334 -19.5 47.001 -24.5s36.834 -8 57.501 -9s42 -1.5 64 -1.5z" />
    <glyph glyph-name="ohorn" unicode="&#x1a1;" 
d="M741 518c6 0 12.002 1.49707 18.002 4.49707s11.667 7.16699 17 12.5c11.333 15.333 19 38.333 23 69c0.666992 3.33301 1.33398 8 2.00098 14s1.33398 11.667 2.00098 17v4l35 5c0 -8.66699 -0.5 -18 -1.5 -28s-2.16699 -20.333 -3.5 -31
c-5.33301 -38 -16 -67.5 -32 -88.5s-33 -33.5 -51 -37.5c2.66699 -19.333 3.5 -40.166 2.5 -62.499s-3.16699 -47.166 -6.5 -74.499c-10 -72 -26.5 -129.833 -49.5 -173.5s-50.833 -77.334 -83.5 -101.001s-69 -39.334 -109 -47.001s-82.333 -11.5 -127 -11.5
s-86 3.83301 -124 11.5s-69.833 23.334 -95.5 47.001s-43.834 57.334 -54.501 101.001s-11 101.5 -1 173.5s26.5 129.833 49.5 173.5s50.667 77.334 83 101.001s68.666 39.334 108.999 47.001s82.833 11.5 127.5 11.5c31.333 0 61.166 -1.83301 89.499 -5.5
s54 -10.5 77 -20.5s43.167 -23.833 60.5 -41.5s30.666 -40.834 39.999 -69.501h3zM385.002 44.9971c21.333 0 42.3301 0.5 62.9971 1.5s40.667 4 60 9s37.5 13.167 54.5 24.5s32.5 27.166 46.5 47.499s26.333 46.333 37 78s19.334 70.5 26.001 116.5
c10 68.667 10.667 121.834 2 159.501s-23.334 65.167 -44.001 82.5s-45.667 27.5 -75 30.5s-60 4.5 -92 4.5c-32.667 0 -64.167 -1.5 -94.5 -4.5s-58.166 -13.167 -83.499 -30.5s-47.333 -44.833 -66 -82.5s-33 -90.834 -43 -159.501
c-6.66699 -46 -9.16699 -84.833 -7.5 -116.5s6.66699 -57.667 15 -78s19.333 -36.166 33 -47.499s29.334 -19.5 47.001 -24.5s36.834 -8 57.501 -9s42 -1.5 64 -1.5z" />
    <glyph glyph-name="uni01A7" unicode="&#x1a7;" horiz-adv-x="624" 
d="M157 615c14.667 6.66699 32.168 12.3359 52.501 17.0029s42 8.66699 65 12s46.833 5.83301 71.5 7.5s48.667 2.5 72 2.5c32 0 61.667 -3.66699 89 -11s50.833 -18.166 70.5 -32.499s34.167 -32.5 43.5 -54.5s12 -47.667 8 -77c-5.33301 -36.667 -15 -65.834 -29 -87.501
s-34.167 -39 -60.5 -52s-59.5 -23.667 -99.5 -32s-89 -17.833 -147 -28.5c-27.333 -5.33301 -50.333 -10 -69 -14s-33.834 -9.5 -45.501 -16.5s-20.667 -16.333 -27 -28s-10.833 -27.5 -13.5 -47.5c-4.66699 -31.333 -4 -55.5 2 -72.5s16.167 -29.5 30.5 -37.5
s32.666 -12.667 54.999 -14s47.5 -2 75.5 -2c29.333 0 57.5 1.66699 84.5 5s51.833 7.33301 74.5 12s42.667 9.66699 60 15s31.333 10 42 14c4.66699 -9.33301 8.66699 -18.333 12 -27l11 -28c-16 -7.33301 -35.333 -13.833 -58 -19.5s-46.834 -10.834 -72.501 -15.501
s-51.834 -8.16699 -78.501 -10.5s-51.334 -3.5 -74.001 -3.5c-38 0 -72.5 2.5 -103.5 7.5s-56.833 14.5 -77.5 28.5s-35.667 33.167 -45 57.5s-11.333 55.833 -6 94.5c6 38.667 20.333 69 43 91s50.334 39.167 83.001 51.5s68.334 21.666 107.001 27.999s77 13.5 115 21.5
c30 6 53.667 11.167 71 15.5s30.833 10 40.5 17s16.334 16.167 20.001 27.5s7.16699 27.666 10.5 48.999c6 45.333 -5.16699 76.5 -33.5 93.5s-72.166 25.5 -131.499 25.5c-20 0 -40.5 -1.16699 -61.5 -3.5s-41 -5.33301 -60 -9s-36.5 -7.5 -52.5 -11.5
s-29 -7.66699 -39 -11z" />
    <glyph glyph-name="uni01A8" unicode="&#x1a8;" horiz-adv-x="624" 
d="M157 615c14.667 6.66699 32.168 12.3359 52.501 17.0029s42 8.66699 65 12s46.833 5.83301 71.5 7.5s48.667 2.5 72 2.5c32 0 61.667 -3.66699 89 -11s50.833 -18.166 70.5 -32.499s34.167 -32.5 43.5 -54.5s12 -47.667 8 -77c-5.33301 -36.667 -15 -65.834 -29 -87.501
s-34.167 -39 -60.5 -52s-59.5 -23.667 -99.5 -32s-89 -17.833 -147 -28.5c-27.333 -5.33301 -50.333 -10 -69 -14s-33.834 -9.5 -45.501 -16.5s-20.667 -16.333 -27 -28s-10.833 -27.5 -13.5 -47.5c-4.66699 -31.333 -4 -55.5 2 -72.5s16.167 -29.5 30.5 -37.5
s32.666 -12.667 54.999 -14s47.5 -2 75.5 -2c29.333 0 57.5 1.66699 84.5 5s51.833 7.33301 74.5 12s42.667 9.66699 60 15s31.333 10 42 14c4.66699 -9.33301 8.66699 -18.333 12 -27l11 -28c-16 -7.33301 -35.333 -13.833 -58 -19.5s-46.834 -10.834 -72.501 -15.501
s-51.834 -8.16699 -78.501 -10.5s-51.334 -3.5 -74.001 -3.5c-38 0 -72.5 2.5 -103.5 7.5s-56.833 14.5 -77.5 28.5s-35.667 33.167 -45 57.5s-11.333 55.833 -6 94.5c6 38.667 20.333 69 43 91s50.334 39.167 83.001 51.5s68.334 21.666 107.001 27.999s77 13.5 115 21.5
c30 6 53.667 11.167 71 15.5s30.833 10 40.5 17s16.334 16.167 20.001 27.5s7.16699 27.666 10.5 48.999c6 45.333 -5.16699 76.5 -33.5 93.5s-72.166 25.5 -131.499 25.5c-20 0 -40.5 -1.16699 -61.5 -3.5s-41 -5.33301 -60 -9s-36.5 -7.5 -52.5 -11.5
s-29 -7.66699 -39 -11z" />
    <glyph glyph-name="Uhorn" unicode="&#x1af;" horiz-adv-x="686" 
d="M633 642l70.998 -0.000976562l-18 -124c10.667 0.666992 21.667 6.33398 33 17.001c11.333 15.333 19 38.333 23 69c0.666992 3.33301 1.33398 8 2.00098 14s1.33398 11.667 2.00098 17v4l35 5c0 -8.66699 -0.5 -18 -1.5 -28s-2.16699 -20.333 -3.5 -31
c-6 -42 -18.333 -73.667 -37 -95s-37.667 -32 -57 -32h-4l-27 -188c-7.33301 -50 -16.666 -92.833 -27.999 -128.5s-28.333 -64.667 -51 -87s-52.334 -38.833 -89.001 -49.5s-83.667 -16 -141 -16s-103.166 5.33301 -137.499 16s-59.833 27.167 -76.5 49.5
s-26 51.333 -28 87s0.666992 78.5 8 128.5l53 372h71l-52 -371c-6 -40 -8.83301 -74.167 -8.5 -102.5s6.33301 -51.5 18 -69.5s30.167 -31.167 55.5 -39.5s60.333 -12.5 105 -12.5s80.667 4.16699 108 12.5s49.166 21.5 65.499 39.5s28.5 41.167 36.5 69.5s15 62.5 21 102.5
z" />
    <glyph glyph-name="uhorn" unicode="&#x1b0;" horiz-adv-x="668" 
d="M633 642l70.998 -0.000976562l-18 -124c10.667 0.666992 21.667 6.33398 33 17.001c11.333 15.333 19 38.333 23 69c0.666992 3.33301 1.33398 8 2.00098 14s1.33398 11.667 2.00098 17v4l35 5c0 -8.66699 -0.5 -18 -1.5 -28s-2.16699 -20.333 -3.5 -31
c-6 -42 -18.333 -73.667 -37 -95s-37.667 -32 -57 -32h-4l-27 -188c-7.33301 -50 -16.666 -92.833 -27.999 -128.5s-28.333 -64.667 -51 -87s-52.334 -38.833 -89.001 -49.5s-83.667 -16 -141 -16s-103.166 5.33301 -137.499 16s-59.833 27.167 -76.5 49.5
s-26 51.333 -28 87s0.666992 78.5 8 128.5l53 372h71l-52 -371c-6 -40 -8.83301 -74.167 -8.5 -102.5s6.33301 -51.5 18 -69.5s30.167 -31.167 55.5 -39.5s60.333 -12.5 105 -12.5s80.667 4.16699 108 12.5s49.166 21.5 65.499 39.5s28.5 41.167 36.5 69.5s15 62.5 21 102.5
z" />
    <glyph glyph-name="uni01C7" unicode="&#x1c7;" horiz-adv-x="854" 
d="M79 0l90 642h71l-82 -584h382l-18 -58h-443zM544 48c31.333 0 58.166 0.832031 80.499 2.49902s41 7.33398 56 17.001s27 24.5 36 44.5s16.167 48.333 21.5 85l63 445h71l-62 -441c-6 -44 -15 -79.5 -27 -106.5s-28.833 -47.833 -50.5 -62.5s-48.667 -24.5 -81 -29.5
s-72.166 -7.5 -119.499 -7.5z" />
    <glyph glyph-name="uni01C8" unicode="&#x1c8;" horiz-adv-x="854" 
d="M79 0l90 642h71l-82 -584h382l-18 -58h-443zM544 48c31.333 0 58.166 0.832031 80.499 2.49902s41 7.33398 56 17.001s27 24.5 36 44.5s16.167 48.333 21.5 85l63 445h71l-62 -441c-6 -44 -15 -79.5 -27 -106.5s-28.833 -47.833 -50.5 -62.5s-48.667 -24.5 -81 -29.5
s-72.166 -7.5 -119.499 -7.5z" />
    <glyph glyph-name="uni01C9" unicode="&#x1c9;" horiz-adv-x="854" 
d="M79 0l90 642h71l-82 -584h382l-18 -58h-443zM544 48c31.333 0 58.166 0.832031 80.499 2.49902s41 7.33398 56 17.001s27 24.5 36 44.5s16.167 48.333 21.5 85l63 445h71l-62 -441c-6 -44 -15 -79.5 -27 -106.5s-28.833 -47.833 -50.5 -62.5s-48.667 -24.5 -81 -29.5
s-72.166 -7.5 -119.499 -7.5z" />
    <glyph glyph-name="uni01CA" unicode="&#x1ca;" horiz-adv-x="1007" 
d="M526 0l-303 544l-76 -544h-68l90 642h80l303 -542l76 542h67l-90 -642h-79zM697 48c31.333 0 58.166 0.832031 80.499 2.49902s41 7.33398 56 17.001s27 24.5 36 44.5s16.167 48.333 21.5 85l63 445h71l-62 -441c-6 -44 -15 -79.5 -27 -106.5
s-28.833 -47.833 -50.5 -62.5s-48.667 -24.5 -81 -29.5s-72.166 -7.5 -119.499 -7.5z" />
    <glyph glyph-name="uni01CB" unicode="&#x1cb;" horiz-adv-x="1007" 
d="M526 0l-303 544l-76 -544h-68l90 642h80l303 -542l76 542h67l-90 -642h-79zM697 48c31.333 0 58.166 0.832031 80.499 2.49902s41 7.33398 56 17.001s27 24.5 36 44.5s16.167 48.333 21.5 85l63 445h71l-62 -441c-6 -44 -15 -79.5 -27 -106.5
s-28.833 -47.833 -50.5 -62.5s-48.667 -24.5 -81 -29.5s-72.166 -7.5 -119.499 -7.5z" />
    <glyph glyph-name="uni01CC" unicode="&#x1cc;" horiz-adv-x="1007" 
d="M526 0l-303 544l-76 -544h-68l90 642h80l303 -542l76 542h67l-90 -642h-79zM697 48c31.333 0 58.166 0.832031 80.499 2.49902s41 7.33398 56 17.001s27 24.5 36 44.5s16.167 48.333 21.5 85l63 445h71l-62 -441c-6 -44 -15 -79.5 -27 -106.5
s-28.833 -47.833 -50.5 -62.5s-48.667 -24.5 -81 -29.5s-72.166 -7.5 -119.499 -7.5z" />
    <glyph glyph-name="uni01CD" unicode="&#x1cd;" horiz-adv-x="657" 
d="M554 0l-53 201h-291l-108 -201h-74l347 642h86l167 -642h-74zM433 461l-21 121h-6l-55 -121l-113 -209h250zM386 707l-36.5 53l-36.5 54h72l47 -84l71 84h69l-106 -107h-80z" />
    </font>
</defs>
</svg>
