<?xml version="1.0" standalone="no"?>
<!DOCTYPE svg PUBLIC "-//W3C//DTD SVG 1.1//EN" "http://www.w3.org/Graphics/SVG/1.1/DTD/svg11.dtd" >
<svg>
<metadata>
Created by FontForge 20090914 at Sun Aug 12 10:06:17 2012
 By www-data
&#194;&#169; 2011 Sergiy S. Tkachenko / 4th february
&#194;&#169; 2011 Azoft.com
http://creativecommons.org/licenses/by-nc-nd/3.0
http://creativecommons.org/licenses/by-nc-nd/3.0/deed.ru
</metadata>
<defs>
<font id="AzoftSans-BoldItalic" horiz-adv-x="758" >
  <font-face 
    font-family="Azoft Sans"
    font-weight="700"
    font-style="italic"
    font-stretch="normal"
    units-per-em="1000"
    panose-1="2 0 0 0 0 0 0 0 0 0"
    ascent="750"
    descent="-250"
    x-height="641.999"
    cap-height="642"
    bbox="-50.001 -330 1282.84 1014"
    underline-thickness="50"
    underline-position="-50"
    unicode-range="U+0020-U+25FF"
  />
<missing-glyph horiz-adv-x="500" 
 />
    <glyph glyph-name=".notdef" horiz-adv-x="500" 
 />
    <glyph glyph-name="space" unicode=" " horiz-adv-x="500" 
 />
    <glyph glyph-name="space" unicode="&#xa0;" horiz-adv-x="500" 
 />
    <glyph glyph-name="exclam" unicode="!" horiz-adv-x="170" 
d="M89 177l12 335l20 138h105l-20 -138l-39.5 -167c-13 -57.333 -26.833 -113.333 -41.5 -168h-36zM24 0l17 123h118l-17 -123h-118z" />
    <glyph glyph-name="quotedbl" unicode="&#x22;" horiz-adv-x="376" 
d="M152 433c-1.33301 21.333 -2.5 41.333 -3.5 60s-1.83301 38.667 -2.5 60l14 97h77l-14 -98l-37 -119h-34zM310 433l-5 120l14 97h77l-14 -97l-39 -120h-33z" />
    <glyph glyph-name="numbersign" unicode="#" horiz-adv-x="549" 
d="M286 -11l69 194h-171l-68 -194h-52l69 194h-84l7 48h94l66 187h-134l7 48h144l34.5 97l34.5 98h50l-70 -195h173l34.5 97l34.5 98h50l-69 -195h85l-7 -48h-94l-65 -187h133l-7 -48h-144l-68 -194h-52zM439 418h-172l-67 -187h172z" />
    <glyph glyph-name="dollar" unicode="$" horiz-adv-x="624" 
d="M593 512c-8 2.66699 -18.3301 5.83301 -30.9971 9.5s-26.834 7.16699 -42.501 10.5s-32.5 6.33301 -50.5 9s-36 4.33398 -54 5.00098l-23 -165c30 -6.66699 58.667 -14.167 86 -22.5s51.166 -19.666 71.499 -33.999s35.666 -33.333 45.999 -57
s13.166 -53.834 8.49902 -90.501c-5.33301 -37.333 -15.5 -68 -30.5 -92s-34 -43 -57 -57s-49.667 -23.833 -80 -29.5s-63.5 -8.83398 -99.5 -9.50098l-14 -96h-55l14 97c-21.333 1.33301 -43.166 3.33301 -65.499 6s-43.833 6.16699 -64.5 10.5s-39.667 9.16602 -57 14.499
s-32 11 -44 17l22.5 54.5c7 16.333 14.833 33.166 23.5 50.499c15.333 -7.33301 40.5 -15.833 75.5 -25.5s76.5 -16.167 124.5 -19.5l24 170c-38.667 8.66699 -71.167 17.834 -97.5 27.501s-47.166 22.167 -62.499 37.5s-25.5 34.5 -30.5 57.5s-4.83301 52.5 0.5 88.5
c4 28 13.333 52.667 28 74s33 39.166 55 53.499s46.833 25.333 74.5 33s56.5 12.167 86.5 13.5l14 98h55l-14 -98c41.333 -1.33301 81.166 -5.16602 119.499 -11.499s68.833 -15.166 91.5 -26.499zM406.003 248.999c-5.33301 1.33301 -10.668 2.5 -16.001 3.5
s-10.666 2.16699 -15.999 3.5l-22 -159c18 0 34 0.5 48 1.5s26.333 4 37 9s19.167 12.667 25.5 23s10.833 24.5 13.5 42.5c2 14 2.16699 25.333 0.5 34s-5.16699 15.5 -10.5 20.5s-13 9 -23 12s-22.333 6.16699 -37 9.5zM339.001 392.999l21 153
c-30 -2.66699 -53.333 -9 -70 -19s-26.667 -26.333 -30 -49c-2 -15.333 -3.16699 -27 -3.5 -35s1.33398 -14.5 5.00098 -19.5s9.66699 -9.16699 18 -12.5s20.166 -7.33301 35.499 -12z" />
    <glyph glyph-name="percent" unicode="%" horiz-adv-x="814" 
d="M158 -24l469 685h116l-467 -685h-118zM226 328c-18 0 -34.5 2 -49.5 6s-27.5 11.833 -37.5 23.5s-17 28.5 -21 50.5s-3.33301 51 2 87c4.66699 36 12 64.833 22 86.5s21.667 38.5 35 50.5s28 19.833 44 23.5s33 5.5 51 5.5s34.5 -1.83301 49.5 -5.5
s27.5 -11.5 37.5 -23.5s16.833 -28.833 20.5 -50.5s3.16699 -50.5 -1.5 -86.5c-5.33301 -36 -12.833 -65 -22.5 -87s-21.167 -38.833 -34.5 -50.5s-28 -19.5 -44 -23.5s-33 -6 -51 -6zM232 376c7.33301 0 14.166 0.666992 20.499 2s12.5 5.66602 18.5 12.999
s11.5 19.166 16.5 35.499s9.5 39.166 13.5 68.499s5.83301 52 5.5 68s-2.33301 27.667 -6 35s-8.5 11.666 -14.5 12.999s-12.667 2 -20 2s-14.166 -0.666992 -20.499 -2s-12.5 -5.66602 -18.5 -12.999s-11.5 -19 -16.5 -35s-9.5 -38.667 -13.5 -68
s-5.83301 -52.166 -5.5 -68.499s2.33301 -28.166 6 -35.499s8.5 -11.666 14.5 -12.999s12.667 -2 20 -2zM628 -24c-18 0 -34.499 2 -49.499 6s-27.5 11.833 -37.5 23.5s-16.833 28.5 -20.5 50.5s-2.83398 51 2.49902 87c4.66699 36 12 64.833 22 86.5s21.667 38.5 35 50.5
s28 19.833 44 23.5s33 5.5 51 5.5s34.5 -1.83301 49.5 -5.5s27.5 -11.5 37.5 -23.5s16.833 -28.833 20.5 -50.5s3.16699 -50.5 -1.5 -86.5c-5.33301 -36 -13 -65 -23 -87s-21.667 -38.833 -35 -50.5s-28 -19.5 -44 -23.5s-33 -6 -51 -6zM635.001 24
c7.33301 0 14.167 0.666992 20.5 2s12.5 5.66602 18.5 12.999s11.5 19.166 16.5 35.499s9.5 39.166 13.5 68.499s5.66699 52 5 68s-2.83398 27.667 -6.50098 35s-8.5 11.666 -14.5 12.999s-12.667 2 -20 2s-14.166 -0.666992 -20.499 -2s-12.333 -5.66602 -18 -12.999
s-11 -19 -16 -35s-9.5 -38.667 -13.5 -68s-5.83301 -52.166 -5.5 -68.499s2.33301 -28.166 6 -35.499s8.5 -11.666 14.5 -12.999s12.667 -2 20 -2z" />
    <glyph glyph-name="ampersand" unicode="&#x26;" horiz-adv-x="688" 
d="M490 57c-28.667 -22 -57.9951 -38.832 -87.9951 -50.499s-62 -17.5 -96 -17.5c-30.667 0 -60.334 1.33301 -89.001 4s-53.5 10 -74.5 22s-36.5 30.667 -46.5 56s-12 60.666 -6 105.999c3.33301 24.667 11.166 46.334 23.499 65.001s27.666 35.667 45.999 51
s39.5 29.5 63.5 42.5s49.667 26.167 77 39.5c-14 18.667 -25.833 35.167 -35.5 49.5s-17.5 27.333 -23.5 39s-10.167 22.334 -12.5 32.001s-2.83301 19.167 -1.5 28.5c2.66699 19.333 8 37 16 53s20 29.833 36 41.5s37.167 20.667 63.5 27s59.166 9.5 98.499 9.5
c34 0 61.667 -3.16699 83 -9.5s37.666 -15 48.999 -26s18.5 -24 21.5 -39s3.16699 -31.5 0.5 -49.5c-3.33301 -22.667 -9.5 -42.334 -18.5 -59.001s-20.833 -31.667 -35.5 -45s-31.834 -26.166 -51.501 -38.499s-41.5 -25.166 -65.5 -38.499l94 -124
c22.667 33.333 40 66.666 52 99.999c16 -6.66699 30.333 -14 43 -22s26.667 -15.667 42 -23c-10.667 -25.333 -23.167 -50 -37.5 -74s-28.833 -45.333 -43.5 -64c26.667 -42 57.334 -76.333 92.001 -103l-47.5 -26.5l-46.5 -25.5c-10.667 7.33301 -22.5 18.166 -35.5 32.499
s-25.5 29.166 -37.5 44.499zM388.005 409.001l43.002 26.999c11.333 7.33301 20.666 14.833 27.999 22.5s13 16 17 25s7 20.5 9 34.5c2.66699 15.333 0.166992 27.333 -7.5 36s-25.834 13 -54.501 13c-16.667 0 -30.334 -1 -41.001 -3s-19.334 -4.83301 -26.001 -8.5
s-11.5 -8.16699 -14.5 -13.5s-4.83301 -11.666 -5.5 -18.999c-0.666992 -5.33301 -1.5 -10.5 -2.5 -15.5s-1.16699 -10.167 -0.5 -15.5s2.33398 -11 5.00098 -17s7.33398 -12.333 14.001 -19zM333.007 306c-16.667 -12 -31.165 -22 -43.498 -30s-23 -16 -32 -24
s-16.167 -17.333 -21.5 -28s-9.33301 -24.667 -12 -42c-3.33301 -25.333 -3 -44.166 1 -56.499s10.667 -21 20 -26s20.666 -7.33301 33.999 -7s27.666 0.5 42.999 0.5c19.333 0 39.5 5.16699 60.5 15.5s39.167 23.166 54.5 38.499z" />
    <glyph glyph-name="quotesingle" unicode="'" horiz-adv-x="192" 
d="M136 433l-3 116.999l14 100h77l-14 -100c-6.66699 -20 -12.667 -39.667 -18 -59s-11.333 -38.666 -18 -57.999h-38z" />
    <glyph glyph-name="parenleft" unicode="(" horiz-adv-x="236" 
d="M155 -197l-55 76.498c-16.667 24.333 -30.167 52.166 -40.5 83.499s-16.666 68.333 -18.999 111s0.833984 95.334 9.50098 158.001s20.167 115.334 34.5 158.001s31.166 79.667 50.499 111s40.666 59.166 63.999 83.499l76 76.5l24 -20l-34 -62
c-10 -17.333 -18.833 -34 -26.5 -50s-14.5 -32.5 -20.5 -49.5s-11.667 -36.667 -17 -59s-10.666 -48.666 -15.999 -78.999s-11 -66.833 -17 -109.5s-10.667 -79.167 -14 -109.5s-5.5 -56.666 -6.5 -78.999s-0.833008 -42 0.5 -59s3.66602 -33.5 6.99902 -49.5
s7.33301 -32.833 12 -50.5l17 -61.5z" />
    <glyph glyph-name="parenright" unicode=")" horiz-adv-x="236" 
d="M2 -177l34.002 61.502c10 17.667 18.833 34.5 26.5 50.5s14.5 32.5 20.5 49.5s11.667 36.667 17 59s10.5 48.666 15.5 78.999s10.5 66.833 16.5 109.5s10.667 79.167 14 109.5s5.5 56.666 6.5 78.999s0.833008 42 -0.5 59s-3.5 33.5 -6.5 49.5s-7 32.667 -12 50
s-10.5 38 -16.5 62l28 20l55 -76.5c16.667 -24.333 30.167 -52.166 40.5 -83.499s16.666 -68.333 18.999 -111s-0.833984 -95.334 -9.50098 -158.001s-20.167 -115.334 -34.5 -158.001s-31 -79.667 -50 -111s-40.333 -59.166 -64 -83.499l-76.5 -76.5z" />
    <glyph glyph-name="asterisk" unicode="*" horiz-adv-x="347" 
d="M287 381l-19.999 37.0029c-8 14.667 -17.667 34 -29 58c-25.333 -36 -50.333 -67 -75 -93l-48 35c16 17.333 31.667 33 47 47s29.333 26 42 36l-53.5 11.5c-19.667 4.33301 -38.167 9.16602 -55.5 14.499l30 61l59 -24c16 -6.66699 29.667 -13 41 -19
c0.666992 25.333 1.66699 47.666 3 66.999s2.66602 33.666 3.99902 42.999h66c-3.33301 -17.333 -7 -34.666 -11 -51.999s-9.33301 -36.333 -16 -57c18 8 35 15 51 21s32 11.667 48 17l16 5l13 -62c-21.333 -6.66699 -41.666 -11.834 -60.999 -15.501
s-39 -7.16699 -59 -10.5c11.333 -11.333 22.166 -23.5 32.499 -36.5l34.5 -45.5z" />
    <glyph glyph-name="plus" unicode="+" horiz-adv-x="443" 
d="M309 273l-23 -165h-101l23 165h-169l13 96h169l23 162h101l-23 -162h171l-13 -96h-171z" />
    <glyph glyph-name="comma" unicode="," horiz-adv-x="185" 
d="M28 -94c18 7.33301 32 18.333 42 33s18 35 24 61h-50l17 123h117l-19 -133c-4 -30 -14.5 -54.833 -31.5 -74.5s-40.833 -35.167 -71.5 -46.5z" />
    <glyph glyph-name="hyphen" unicode="-" horiz-adv-x="405" 
d="M104 181l14 103h244l-14 -103h-244z" />
    <glyph glyph-name="period" unicode="." horiz-adv-x="245" 
d="M59 0l17 123h117l-17 -123h-117z" />
    <glyph glyph-name="slash" unicode="/" horiz-adv-x="270" 
d="M-1 -11l291 672h72l-290 -672h-73z" />
    <glyph glyph-name="zero" unicode="0" horiz-adv-x="629" 
d="M327 95c16.667 0 32.832 1.16699 48.499 3.5s30 10.666 43 24.999s25 36.833 36 67.5s20.5 74.334 28.5 131.001s10.833 100.334 8.5 131.001s-8 53.167 -17 67.5s-21 22.666 -36 24.999s-30.833 3.5 -47.5 3.5c-17.333 0 -33.666 -1.16699 -48.999 -3.5
s-29.5 -10.666 -42.5 -24.999s-24.833 -36.833 -35.5 -67.5s-20 -74.334 -28 -131.001s-11 -100.334 -9 -131.001s7.5 -53.167 16.5 -67.5s20.833 -22.666 35.5 -24.999s30.667 -3.5 48 -3.5zM311.998 -11c-35.333 0 -68.166 3.83301 -98.499 11.5
s-55.5 23.334 -75.5 47.001s-33.5 57.334 -40.5 101.001s-5.5 101.5 4.5 173.5s24.833 129.833 44.5 173.5s42.834 77.334 69.501 101.001s56.167 39.334 88.5 47.001s66.166 11.5 101.499 11.5c36 0 69 -3.83301 99 -11.5s55 -23.334 75 -47.001
s33.667 -57.334 41 -101.001s6 -101.5 -4 -173.5s-24.833 -129.833 -44.5 -173.5s-42.834 -77.334 -69.501 -101.001s-56.167 -39.334 -88.5 -47.001s-66.5 -11.5 -102.5 -11.5z" />
    <glyph glyph-name="one" unicode="1" horiz-adv-x="420" 
d="M169 107l58 419l-95 -24l-12 94l259 66l-78 -555h126l-15 -107h-381l15 107h123z" />
    <glyph glyph-name="two" unicode="2" horiz-adv-x="540" 
d="M53 0l22.9971 167.002c6 44.667 18.667 79.5 38 104.5s42.333 44.5 69 58.5s55.667 24.667 87 32s62.666 15.666 93.999 24.999c12 4.66699 22.167 8.83398 30.5 12.501s15.333 8.33398 21 14.001s10.167 13 13.5 22s6 21.5 8 37.5c4 28 -0.666992 47.333 -14 58
s-34 16 -62 16c-16 0 -33.5 -1.16699 -52.5 -3.5s-37.333 -5.33301 -55 -9s-34 -7.5 -49 -11.5s-26.5 -7.66699 -34.5 -11l-11 103c12 6.66699 27.167 12.334 45.5 17.001s38 8.66699 59 12s42.333 5.83301 64 7.5s41.834 2.5 60.501 2.5c26 0 51.167 -2 75.5 -6
s45.333 -12.333 63 -25s30.834 -30.834 39.501 -54.501s10.334 -55.167 5.00098 -94.5c-6 -42 -15.333 -75.333 -28 -100s-30.167 -44.834 -52.5 -60.501s-50 -28.334 -83 -38.001s-72.833 -20.5 -119.5 -32.5c-11.333 -3.33301 -21.333 -6.66602 -30 -9.99902
s-16.167 -7.83301 -22.5 -13.5s-11.666 -12.834 -15.999 -21.501s-7.5 -20.334 -9.5 -35.001l-7 -55h317l-15 -108h-452z" />
    <glyph glyph-name="three" unicode="3" horiz-adv-x="546" 
d="M78 131c6.66699 -3.33301 16.832 -7.00293 30.499 -11.0029s28.834 -7.83301 45.501 -11.5s34.167 -6.66699 52.5 -9s35.5 -3.5 51.5 -3.5s30.5 0.5 43.5 1.5s24 3.66699 33 8s16.5 10.833 22.5 19.5s10 20.667 12 36c4 26 4.83301 46.333 2.5 61s-7 25.334 -14 32.001
s-16.167 10.834 -27.5 12.501s-24.333 2.5 -39 2.5h-133l15 107h133c14.667 0 27.667 1 39 3s21.5 6.5 30.5 13.5s16.5 17.5 22.5 31.5s10.667 33 14 57c4 27.333 -2 45 -18 53s-40.333 12 -73 12c-16 0 -33.5 -1.16699 -52.5 -3.5s-37.333 -5.33301 -55 -9
s-33.834 -7.5 -48.501 -11.5s-26 -7.66699 -34 -11l-12 103c12 6.66699 27.167 12.334 45.5 17.001s38.166 8.66699 59.499 12s42.833 5.83301 64.5 7.5s41.834 2.5 60.501 2.5c38 0 70.667 -2.5 98 -7.5s49.333 -13.667 66 -26s28 -29.5 34 -51.5s6.66699 -50 2 -84
c-4 -25.333 -9.5 -46.666 -16.5 -63.999s-15.333 -32 -25 -44s-20.834 -22.333 -33.501 -31s-26.334 -16.334 -41.001 -23.001c12.667 -6.66699 24.167 -14.167 34.5 -22.5s18.833 -18.5 25.5 -30.5s11 -26.833 13 -44.5s1.33301 -38.834 -2 -63.501
c-4.66699 -34 -13.167 -62.167 -25.5 -84.5s-28.666 -40 -48.999 -53s-44.833 -22 -73.5 -27s-62 -7.5 -100 -7.5c-18.667 0 -38.667 0.833008 -60 2.5s-42.166 4.16699 -62.499 7.5s-39.166 7.33301 -56.499 12s-31 10.334 -41 17.001z" />
    <glyph glyph-name="four" unicode="4" horiz-adv-x="526" 
d="M202 240h144l17 121h132l-17 -121h64l-15 -108h-64l-18 -132h-132l18 132h-308l9 67l319 443h140z" />
    <glyph glyph-name="five" unicode="5" horiz-adv-x="525" 
d="M270 404c16.667 2 34.9951 3.00195 54.9951 3.00195c76.667 0 130.667 -17.5 162 -52.5s42 -86.833 32 -155.5c-5.33301 -37.333 -14.166 -69.333 -26.499 -96s-28.666 -48.5 -48.999 -65.5s-44.833 -29.333 -73.5 -37s-62 -11.5 -100 -11.5
c-18.667 0 -38.667 0.833008 -60 2.5s-42.166 4.16699 -62.499 7.5s-39.166 7.33301 -56.499 12s-31 10.334 -41 17.001l42 103c6.66699 -3.33301 16.834 -7 30.501 -11s28.834 -7.83301 45.501 -11.5s34.167 -6.66699 52.5 -9s35.5 -3.5 51.5 -3.5s30.333 1.33301 43 4
s23.5 7.66699 32.5 15s16.5 17.833 22.5 31.5s10.667 31.167 14 52.5s4 38.666 2 51.999s-6.16699 23.666 -12.5 30.999s-14.833 12.166 -25.5 14.499s-23.334 3.5 -38.001 3.5c-27.333 0 -51 -1.33301 -71 -4s-35.667 -9 -47 -19l-73 10l50 355h383l-15 -108h-248z" />
    <glyph glyph-name="six" unicode="6" horiz-adv-x="574" 
d="M555 513c-7.33301 3.33301 -17.8301 6.99414 -31.4971 10.9941s-28.667 7.83301 -45 11.5s-33.666 6.66699 -51.999 9s-35.5 3.5 -51.5 3.5s-30.333 -1 -43 -3s-24.334 -8.5 -35.001 -19.5s-20.334 -28.5 -29.001 -52.5s-16.667 -58 -24 -102
c15.333 14.667 31.833 24.5 49.5 29.5s38.167 7.5 61.5 7.5c35.333 0 66.666 -2.83301 93.999 -8.5s49.666 -16.5 66.999 -32.5s29.166 -38.5 35.499 -67.5s6.16602 -66.833 -0.500977 -113.5c-5.33301 -37.333 -14.5 -68.666 -27.5 -93.999s-30 -45.666 -51 -60.999
s-46.167 -26.166 -75.5 -32.499s-63 -9.5 -101 -9.5c-36 0 -68.167 3.83301 -96.5 11.5s-51.333 23.334 -69 47.001s-29.167 57.334 -34.5 101.001s-3 101.5 7 173.5s23.833 129.833 41.5 173.5s38.834 77.334 63.501 101.001s52.167 39.334 82.5 47.001
s63.5 11.5 99.5 11.5c18.667 0 38 -0.833008 58 -2.5s39.333 -4.16699 58 -7.5s35.834 -7.33301 51.501 -12s28.5 -10.334 38.5 -17.001zM225.003 201.994c-0.666992 -26.667 0.836914 -47.168 4.50391 -61.501s9.16699 -24.833 16.5 -31.5s16.5 -10.5 27.5 -11.5
s23.5 -1.5 37.5 -1.5c14.667 0 27.667 0.5 39 1.5s21.333 4.33301 30 10s15.834 14.5 21.501 26.5s10.167 29.333 13.5 52c3.33301 24.667 3.66602 44.167 0.999023 58.5s-7.83398 24.833 -15.501 31.5s-16.834 10.834 -27.501 12.501s-22.334 2.5 -35.001 2.5
s-24.834 -0.666992 -36.501 -2s-22.5 -4.83301 -32.5 -10.5s-18.833 -14.5 -26.5 -26.5s-13.5 -28.667 -17.5 -50z" />
    <glyph glyph-name="seven" unicode="7" horiz-adv-x="455" 
d="M103 0l288 534h-307l15 108h434l-15 -108l-287 -534h-128z" />
    <glyph glyph-name="eight" unicode="8" horiz-adv-x="579" 
d="M274 -11c-36 0.666992 -66.834 3.66895 -92.501 9.00195s-46.334 14.5 -62.001 27.5s-26.167 30.5 -31.5 52.5s-5.66602 49.667 -0.999023 83c3.33301 24.667 8 45.834 14 63.501s13 32.5 21 44.5s17 22.167 27 30.5s21 15.833 33 22.5
c-10 6.66699 -18.833 14.334 -26.5 23.001s-13.667 19 -18 31s-7 26.667 -8 44s0.5 38.666 4.5 63.999c4.66699 34 12.834 62 24.501 84s27.5 39.167 47.5 51.5s44.167 21 72.5 26s61.5 7.5 99.5 7.5h17c36 -0.666992 66.833 -3.66699 92.5 -9s46.167 -14.333 61.5 -27
s25.833 -29.834 31.5 -51.501s6.16699 -48.834 1.5 -81.501c-4 -25.333 -8.83301 -46.666 -14.5 -63.999s-12.5 -32 -20.5 -44s-16.833 -22.333 -26.5 -31s-20.5 -16.334 -32.5 -23.001c10 -6.66699 18.833 -14.167 26.5 -22.5s13.667 -18.5 18 -30.5s7 -26.833 8 -44.5
s-0.166992 -38.834 -3.5 -63.501c-4.66699 -34 -13 -62.167 -25 -84.5s-28 -40 -48 -53s-44.333 -22 -73 -27s-62 -7.5 -100 -7.5h-17zM312.999 96.002c18.667 0 33.501 1.33203 44.501 3.99902s19.5 6.83398 25.5 12.501s10.333 12.5 13 20.5s4.66699 17.333 6 28
c3.33301 24.667 4.33301 44.167 3 58.5s-4.83301 25 -10.5 32s-13.167 11.5 -22.5 13.5s-20 3.33301 -32 4h-26c-12.667 -0.666992 -23.834 -2 -33.501 -4s-18.334 -6.5 -26.001 -13.5s-14.167 -17.667 -19.5 -32s-9.66602 -33.833 -12.999 -58.5
c-2 -14.667 -1.83301 -26.167 0.5 -34.5s6.5 -14.833 12.5 -19.5s13.833 -7.66699 23.5 -9s21.167 -2 34.5 -2h20zM355 376.001c12.667 0.666992 23.8301 2.16797 33.4971 4.50098s18.167 7.16602 25.5 14.499s13.5 17.666 18.5 30.999s9.16699 31.666 12.5 54.999
c2 14 1.83301 25.167 -0.5 33.5s-6.66602 14.666 -12.999 18.999s-14.666 7.33301 -24.999 9s-22.166 2.83398 -35.499 3.50098c-15.333 0 -28.833 -0.833008 -40.5 -2.5s-21.667 -4.83398 -30 -9.50098s-15.166 -11.167 -20.499 -19.5s-9 -19.5 -11 -33.5
c-3.33301 -23.333 -4.33301 -41.666 -3 -54.999s4.66602 -23.666 9.99902 -30.999s12.5 -12.166 21.5 -14.499s19.5 -3.83301 31.5 -4.5h26z" />
    <glyph glyph-name="nine" unicode="9" horiz-adv-x="573" 
d="M118 131c6.66699 -3.33301 16.833 -6.99414 30.5 -10.9941s28.834 -7.83301 45.501 -11.5s34.167 -6.66699 52.5 -9s35.5 -3.5 51.5 -3.5s30.333 0.833008 43 2.5s24.167 8 34.5 19s19.666 28.333 27.999 52s16.166 57.167 23.499 100.5
c-14 -13.333 -29.833 -22.333 -47.5 -27s-38.167 -7 -61.5 -7c-38 0 -70.833 2.83301 -98.5 8.5s-49.834 16.5 -66.501 32.5s-27.667 38.5 -33 67.5s-4.66602 66.833 2.00098 113.5c5.33301 37.333 14.5 68.666 27.5 93.999s30 45.666 51 60.999s46.167 26.166 75.5 32.499
s63 9.5 101 9.5c36 0 68.167 -3.83301 96.5 -11.5s51.333 -23.334 69 -47.001s29.167 -57.334 34.5 -101.001s3 -101.5 -7 -173.5s-24 -129.833 -42 -173.5s-39.167 -77.334 -63.5 -101.001s-51.666 -39.334 -81.999 -47.001s-63.5 -11.5 -99.5 -11.5
c-18.667 0 -38 0.833008 -58 2.5s-39.333 4.16699 -58 7.5s-36 7.33301 -52 12s-29 10.334 -39 17.001zM445.999 441.006c1.33301 26.667 0.166992 47.335 -3.5 62.002s-9.16699 25.334 -16.5 32.001s-16.5 10.5 -27.5 11.5s-23.167 1.5 -36.5 1.5
c-14.667 0 -27.834 -0.5 -39.501 -1.5s-21.667 -4.33301 -30 -10s-15.333 -14.5 -21 -26.5s-10.167 -29.333 -13.5 -52c-4 -27.333 -5 -48.833 -3 -64.5s6.33301 -27.167 13 -34.5s15.5 -11.833 26.5 -13.5s23.833 -2.5 38.5 -2.5c14 0 26.833 0.666992 38.5 2
s22.334 5.16602 32.001 11.499s18 16.166 25 29.499s12.833 31.666 17.5 54.999z" />
    <glyph glyph-name="colon" unicode=":" horiz-adv-x="235" 
d="M104 342l17 124h117l-17 -124h-117zM56 0l17 123h117l-17 -123h-117z" />
    <glyph glyph-name="semicolon" unicode=";" horiz-adv-x="185" 
d="M92 342l17 124h117l-17 -124h-117zM28 -94c18 7.33301 32 18.333 42 33s18 35 24 61h-50l17 123h117l-19 -133c-4 -30 -14.5 -54.833 -31.5 -74.5s-40.833 -35.167 -71.5 -46.5z" />
    <glyph glyph-name="less" unicode="&#x3c;" horiz-adv-x="522" 
d="M40 290l9 63l468 178l-8 -58l-407 -151l88.5 -37.5l93.5 -39l93 -39l89 -37.5l-8 -61z" />
    <glyph glyph-name="equal" unicode="=" horiz-adv-x="599" 
d="M131 375l14 96h441l-14 -96h-441zM103 172l13 95h441l-13 -95h-441z" />
    <glyph glyph-name="greater" unicode="&#x3e;" horiz-adv-x="522" 
d="M94 108l8 61l406 153l-363 151l8 58l418 -179l-9 -62z" />
    <glyph glyph-name="question" unicode="?" horiz-adv-x="511" 
d="M136 186l2.00098 14c4.66699 34 14 62.333 28 85s31.333 41.334 52 56.001s43.834 26.5 69.501 35.5s52.5 16.5 80.5 22.5c16 4.66699 28.667 8.66699 38 12s16.5 7.5 21.5 12.5s8.66699 11.5 11 19.5s4.5 19.667 6.5 35c3.33301 25.333 -4.5 43.166 -23.5 53.499
s-48.5 15.5 -88.5 15.5c-20 0 -40.5 -1.16699 -61.5 -3.5s-41 -5.33301 -60 -9s-36.5 -7.5 -52.5 -11.5s-29 -7.66699 -39 -11l-18 103c14.667 6.66699 32.167 12.334 52.5 17.001s42 8.66699 65 12s46.833 5.83301 71.5 7.5s48.667 2.5 72 2.5c32 0 61.667 -3.66699 89 -11
s50.833 -18.166 70.5 -32.499s34.167 -32.5 43.5 -54.5s12 -47.667 8 -77c-4.66699 -32 -11.834 -59 -21.501 -81s-22.834 -40.167 -39.501 -54.5s-37 -26.166 -61 -35.499s-52.667 -17.333 -86 -24c-15.333 -4.66699 -28.333 -8.83398 -39 -12.501
s-19.5 -8.33398 -26.5 -14.001s-12.667 -13.334 -17 -23.001s-7.5 -22.5 -9.5 -38.5l-1 -10h-137zM110.001 0l17 123h137l-17 -123h-137z" />
    <glyph glyph-name="at" unicode="@" horiz-adv-x="994" 
d="M871 -58c-42 -40 -96.666 -73.1611 -163.999 -99.4941s-145.666 -39.5 -234.999 -39.5c-74.667 0 -137.167 9.83301 -187.5 29.5s-90 47.667 -119 84s-47.833 80.166 -56.5 131.499s-8.66699 108.333 0 171c10 68.667 27.833 130.334 53.5 185.001s59 101.167 100 139.5
s89 67.666 144 87.999s116.833 30.5 185.5 30.5c52.667 0 102.167 -6.83301 148.5 -20.5s85.666 -36 117.999 -67s55.833 -72.167 70.5 -123.5s16.667 -114.333 6 -189c-3.33301 -26 -9 -53.667 -17 -83s-19.333 -56.5 -34 -81.5s-33.334 -45.667 -56.001 -62
s-51 -24.5 -85 -24.5c-26.667 0 -45.334 6 -56.001 18s-16.334 32 -17.001 60c-22.667 -28 -51 -49.167 -85 -63.5s-76 -21.5 -126 -21.5c-28 0 -53.667 2.5 -77 7.5s-42.833 13.667 -58.5 26s-27 28.666 -34 48.999s-8.5 45.833 -4.5 76.5
c4.66699 30.667 13.5 56.167 26.5 76.5s29.5 36.5 49.5 48.5s43 20.5 69 25.5s54.333 7.5 85 7.5h174c4 38.667 4.33301 69.167 1 91.5s-10.5 39.166 -21.5 50.499s-26.333 18.666 -46 21.999s-43.834 5 -72.501 5c-7.33301 0 -15.833 -0.166992 -25.5 -0.5
s-21.167 -1.5 -34.5 -3.5s-28.666 -5 -45.999 -9s-37.333 -9.66699 -60 -17l-20 42c28 12 57.833 20.667 89.5 26s67.167 8 106.5 8c38 0 70.333 -3 97 -9s47.667 -17.833 63 -35.5s25 -42.167 29 -73.5s2.66699 -72.333 -4 -123c0 -2 -0.333008 -4.5 -1 -7.5
s-1.66699 -8.66699 -3 -17s-3 -20.333 -5 -36s-5 -37.167 -9 -64.5c-3.33301 -23.333 -5 -42.5 -5 -57.5s1.66699 -26.833 5 -35.5s8 -14.667 14 -18s13.667 -5 23 -5c24 0 43.5 8.33301 58.5 25s27.167 37.834 36.5 63.501s16.5 54 21.5 85s9.16699 61.167 12.5 90.5
c5.33301 48.667 0.333008 91.5 -15 128.5s-38 68.167 -68 93.5s-66 44.5 -108 57.5s-86.333 19.5 -133 19.5c-58 0 -110.5 -9.66699 -157.5 -29s-87.833 -46.333 -122.5 -81s-63 -76.334 -85 -125.001s-37 -102.334 -45 -161.001c-18 -125.333 2 -218.5 60 -279.5
s147 -91.5 267 -91.5c42.667 0 82.334 3.5 119.001 10.5s70.334 16.833 101.001 29.5s58 27.167 82 43.5s44.667 34.166 62 53.499zM508.001 274.006c-22 0 -42.498 -1.16309 -61.498 -3.49609s-35.833 -7.33301 -50.5 -15s-26.834 -18.834 -36.501 -33.501
s-16.167 -34.334 -19.5 -59.001s-2.33301 -44.334 3 -59.001s13.666 -26 24.999 -34s25.333 -13.333 42 -16s34.667 -4 54 -4c41.333 0 75 4.33301 101 13s46.833 22.167 62.5 40.5s27.5 41.666 35.5 69.999s14.667 61.833 20 100.5h-175z" />
    <glyph glyph-name="A" unicode="A" horiz-adv-x="657" 
d="M491 642l137 -642h-144l-31 181h-201l-80 -181h-144l317 642h146zM294 274h144l-28 167l-3 101h-6l-33 -101z" />
    <glyph glyph-name="B" unicode="B" horiz-adv-x="675" 
d="M79 0l89.999 642.003h275c47.333 0 86.666 -2.16699 117.999 -6.5s55.666 -12.333 72.999 -24s28.5 -28.167 33.5 -49.5s5.16699 -49 0.5 -83c-3.33301 -25.333 -8 -46.333 -14 -63s-13.167 -30.834 -21.5 -42.501s-18.166 -21.5 -29.499 -29.5s-24.333 -15.333 -39 -22
c12.667 -6.66699 23.834 -13.834 33.501 -21.501s17.5 -17.334 23.5 -29.001s9.83301 -26 11.5 -43s0.833984 -37.833 -2.49902 -62.5c-4.66699 -34 -12.667 -61.833 -24 -83.5s-27.5 -38.5 -48.5 -50.5s-47.833 -20.333 -80.5 -25s-72.667 -7 -120 -7h-279z
M374.999 107.003c20.667 0 38.332 0.333008 52.999 1s26.834 2.66699 36.501 6s17.167 9 22.5 17s9 19.667 11 35c4 26 5 46 3 60s-6.66699 24.167 -14 30.5s-17.5 10 -30.5 11s-28.833 1.5 -47.5 1.5h-181l-22 -162h169zM423.997 376.003
c18 0 33.3311 0.833984 45.998 2.50098s23.334 5.66699 32.001 12s15.5 16.166 20.5 29.499s9.16699 32 12.5 56c2 14 1.66699 24.833 -1 32.5s-8.16699 13.5 -16.5 17.5s-19.666 6.5 -33.999 7.5s-31.833 1.5 -52.5 1.5h-165l-23 -159h181z" />
    <glyph glyph-name="C" unicode="C" horiz-adv-x="650" 
d="M618 31c-30 -13.333 -66 -24.0029 -108 -32.0029s-86.333 -12 -133 -12c-49.333 0 -93.166 4.16699 -131.499 12.5s-70 24.5 -95 48.5s-42 57.833 -51 101.5s-8.5 100.834 1.5 171.501s25.667 127.834 47 171.501s47.666 77.5 78.999 101.5s67.5 40.167 108.5 48.5
s86.167 12.5 135.5 12.5c94 0 167 -13.333 219 -40l-48 -103c-18 6 -43 13.5 -75 22.5s-68.333 13.5 -109 13.5c-27.333 0 -53 -2 -77 -6s-45.5 -13.667 -64.5 -29s-35.5 -38.166 -49.5 -68.499s-24.667 -71.5 -32 -123.5c-7.33301 -52.667 -8.33301 -94.167 -3 -124.5
s15.5 -53 30.5 -68s33.833 -24.5 56.5 -28.5s47.667 -6 75 -6c20 0 40.167 1.5 60.5 4.5s39.5 6.5 57.5 10.5s34.5 8.33301 49.5 13l37.5 12z" />
    <glyph glyph-name="D" unicode="D" horiz-adv-x="689" 
d="M79 0l90.0029 642h230c48.667 0 92.5 -3.16699 131.5 -9.5s71 -20.5 96 -42.5s42.167 -54 51.5 -96s9 -98.333 -1 -169c-10 -71.333 -24.833 -128.5 -44.5 -171.5s-44.334 -75.833 -74.001 -98.5s-64.334 -37.5 -104.001 -44.5s-84.834 -10.5 -135.501 -10.5h-240z
M324.003 108c35.333 0 65.334 2.16797 90.001 6.50098s45.5 14 62.5 29s30.667 37 41 66s18.833 67.833 25.5 116.5c7.33301 50.667 8.16602 90.167 2.49902 118.5s-16 49.166 -31 62.499s-34 21.333 -57 24s-48.167 4 -75.5 4h-96l-60 -427h98z" />
    <glyph glyph-name="E" unicode="E" horiz-adv-x="566" 
d="M79 0l90 642h480l-25 -107h-338l-21 -149h263l-15 -107h-263l-24 -171h348l-25 -108h-470z" />
    <glyph glyph-name="F" unicode="F" horiz-adv-x="526" 
d="M239 278l-39 -278h-121l90 642h447l-25 -107h-316l-21 -149h275l-15 -108h-275z" />
    <glyph glyph-name="G" unicode="G" horiz-adv-x="672" 
d="M539 279l-144.996 0.000976562l25 107h263l-48 -341c-14.667 -8 -32.334 -15.333 -53.001 -22s-42.834 -12.5 -66.501 -17.5s-48.167 -8.83301 -73.5 -11.5s-50 -4 -74 -4c-50.667 0 -94.834 4 -132.501 12s-68 24 -91 48s-38.333 58 -46 102s-6.5 101.667 3.5 173
c10 70.667 25.667 127.667 47 171s47.833 76.666 79.5 99.999s67.834 39 108.501 47s85.667 12 135 12c46.667 0 89.167 -3.66699 127.5 -11s70.5 -17.666 96.5 -30.999l-48 -103c-18 7.33301 -43.833 15.5 -77.5 24.5s-70.834 13.5 -111.501 13.5
c-27.333 0 -52.833 -1.83301 -76.5 -5.5s-45.167 -12.834 -64.5 -27.501s-36 -36.834 -50 -66.501s-24.667 -70.5 -32 -122.5c-6.66699 -48.667 -8.83398 -88 -6.50098 -118s9.83301 -53.167 22.5 -69.5s31 -27.333 55 -33s54.333 -8.5 91 -8.5
c20.667 0 42.167 1.83301 64.5 5.5s40.5 7.83398 54.5 12.501z" />
    <glyph glyph-name="H" unicode="H" horiz-adv-x="681" 
d="M470 0l40 287h-260l-40 -287h-131l90 642h131l-35 -246h260l35 246h131l-90 -642h-131z" />
    <glyph glyph-name="I" unicode="I" horiz-adv-x="290" 
d="M79 0l90 642h132l-90 -642h-132z" />
    <glyph glyph-name="J" unicode="J" horiz-adv-x="322" 
d="M19 98c20.667 0 38.332 0.668945 52.999 2.00195s27 5.16602 37 11.499s17.833 16.166 23.5 29.499s10.167 32 13.5 56l63 445h131l-62 -441c-6 -44 -15 -79.5 -27 -106.5s-28.833 -47.833 -50.5 -62.5s-48.667 -24.5 -81 -29.5s-72.166 -7.5 -119.499 -7.5z" />
    <glyph glyph-name="K" unicode="K" horiz-adv-x="675" 
d="M306 267h-59l-37 -267h-131l90 642h131l-38 -268h59l235 268h154l-145 -160.5l-146 -160.5l100.5 -161l100.5 -160h-154z" />
    <glyph glyph-name="L" unicode="L" horiz-adv-x="532" 
d="M79 0l90 642h131l-75 -534h322l-25 -108h-443z" />
    <glyph glyph-name="M" unicode="M" horiz-adv-x="855" 
d="M647 0l55 392h-3l-203 -392h-138l-93 392h-3l-55 -392h-128l90 642h148l104 -382l18 -171l66 171l212 382h148l-90 -642h-128z" />
    <glyph glyph-name="N" unicode="N" horiz-adv-x="685" 
d="M466 0l-200 424l-59 -424h-128l90 642h140l199 -422l60 422h127l-90 -642h-139z" />
    <glyph glyph-name="O" unicode="O" 
d="M456 549c-25.333 0 -49.499 -1.16699 -72.499 -3.5s-44.167 -10.666 -63.5 -24.999s-36.166 -36.833 -50.499 -67.5s-25.5 -74.334 -33.5 -131.001s-9.16699 -100.334 -3.5 -131.001s16.167 -53.167 31.5 -67.5s34.166 -22.666 56.499 -24.999s46.166 -3.5 71.499 -3.5
c24.667 0 48.5 1.16699 71.5 3.5s44.167 10.666 63.5 24.999s36.333 36.833 51 67.5s26 74.334 34 131.001s9 100.334 3 131.001s-16.833 53.167 -32.5 67.5s-34.667 22.666 -57 24.999s-45.5 3.5 -69.5 3.5zM102.001 322c10 72 26.501 129.833 49.501 173.5
s50.667 77.334 83 101.001s68.666 39.334 108.999 47.001s82.833 11.5 127.5 11.5s86 -3.83301 124 -11.5s69.833 -23.334 95.5 -47.001s43.834 -57.334 54.501 -101.001s11 -101.5 1 -173.5s-26.5 -129.833 -49.5 -173.5s-50.833 -77.334 -83.5 -101.001
s-69 -39.334 -109 -47.001s-82.333 -11.5 -127 -11.5s-86 3.83301 -124 11.5s-69.833 23.334 -95.5 47.001s-43.834 57.334 -54.501 101.001s-11 101.5 -1 173.5z" />
    <glyph glyph-name="P" unicode="P" horiz-adv-x="595" 
d="M79 0l90.0039 642h259c47.333 0 86.666 -2.5 117.999 -7.5s55.666 -14.833 72.999 -29.5s28.166 -35.5 32.499 -62.5s3.5 -62.5 -2.5 -106.5s-15 -79.5 -27 -106.5s-28.833 -47.667 -50.5 -62s-48.834 -24 -81.501 -29s-72.667 -7.5 -120 -7.5h-127l-32 -231h-132z
M514.004 439c3.33301 22.667 4 40.501 2 53.501s-7 22.667 -15 29s-19.167 10.166 -33.5 11.499s-31.833 2 -52.5 2h-129l-28 -197h129c20.667 0 38.334 0.666992 53.001 2s27 5.16602 37 11.499s17.667 15.833 23 28.5s9.66602 30.334 12.999 53.001z" />
    <glyph glyph-name="Q" unicode="Q" horiz-adv-x="766" 
d="M694 -121c-38.667 -30.667 -80.9961 -46.001 -126.996 -46.001c-20.667 0 -40.334 3.16699 -59.001 9.5s-36.834 13.333 -54.501 21s-35.5 14.667 -53.5 21s-36.667 9.5 -56 9.5s-38 -3.16699 -56 -9.5s-40.333 -19.5 -67 -39.5l15 106
c19.333 18 42.666 31.333 69.999 40c-37.333 2.66699 -71.166 9.5 -101.499 20.5s-55.333 28.833 -75 53.5s-33.334 57.667 -41.001 99s-6.83398 94 2.49902 158c10 72 26.5 129.833 49.5 173.5s50.667 77.334 83 101.001s68.666 39.334 108.999 47.001
s82.833 11.5 127.5 11.5s86 -3.83301 124 -11.5s69.833 -23.334 95.5 -47.001s43.834 -57.334 54.501 -101.001s11 -101.5 1 -173.5c-9.33301 -64 -23.5 -116.667 -42.5 -158s-42.167 -74.333 -69.5 -99s-57.833 -42.5 -91.5 -53.5s-69.5 -17.833 -107.5 -20.5
c15.333 -4 30.333 -9.16699 45 -15.5s29 -12.166 43 -17.499s27.5 -10 40.5 -14s25.833 -6 38.5 -6c18 0 37.667 4.66699 59 14s41.333 21 60 35zM381.004 94.999c24.667 0 48.501 1.16699 71.501 3.5s44.167 10.666 63.5 24.999s36.333 36.833 51 67.5
s26 74.334 34 131.001s9 100.334 3 131.001s-16.833 53.167 -32.5 67.5s-34.667 22.666 -57 24.999s-45.5 3.5 -69.5 3.5c-25.333 0 -49.5 -1.16699 -72.5 -3.5s-44.167 -10.666 -63.5 -24.999s-36.166 -36.833 -50.499 -67.5s-25.5 -74.334 -33.5 -131.001
s-9.16699 -100.334 -3.5 -131.001s16.167 -53.167 31.5 -67.5s34.166 -22.666 56.499 -24.999s46.166 -3.5 71.499 -3.5z" />
    <glyph glyph-name="R" unicode="R" horiz-adv-x="669" 
d="M467 0l-137.998 230.998h-86l-32 -231h-132l90 642h260c47.333 0 86.666 -2.5 117.999 -7.5s55.666 -14.833 72.999 -29.5s28.166 -35.5 32.499 -62.5s3.5 -62.5 -2.5 -106.5c-5.33301 -35.333 -12.166 -65 -20.499 -89s-19.5 -43.667 -33.5 -59s-31 -27.166 -51 -35.499
s-44 -14.166 -72 -17.499l145 -235h-151zM388.002 337.998c20.667 0 38.333 0.668945 53 2.00195s27 5.33301 37 12s17.833 16.5 23.5 29.5s10.167 31.167 13.5 54.5c3.33301 24 3.83301 42.667 1.5 56s-7.5 23.166 -15.5 29.499s-19 10.166 -33 11.499s-31.333 2 -52 2
h-130l-28 -197h130z" />
    <glyph glyph-name="S" unicode="S" horiz-adv-x="624" 
d="M593 512c-9.33301 3.33301 -21.332 7.00195 -35.999 11.002s-31 7.83301 -49 11.5s-37.167 6.66699 -57.5 9s-40.5 3.5 -60.5 3.5c-40 0 -70.833 -5 -92.5 -15s-34.167 -28 -37.5 -54c-2 -15.333 -3.16699 -27 -3.5 -35s1.33398 -14.5 5.00098 -19.5
s9.66699 -9.16699 18 -12.5s20.166 -7.33301 35.499 -12c36 -9.33301 72.333 -17.833 109 -25.5s69.334 -18.5 98.001 -32.5s51 -33.667 67 -59s21 -60.333 15 -105c-5.33301 -38.667 -16 -70.167 -32 -94.5s-36.167 -43.5 -60.5 -57.5s-52.833 -23.5 -85.5 -28.5
s-68 -7.5 -106 -7.5c-23.333 0 -47.833 1.16699 -73.5 3.5s-50.667 5.83301 -75 10.5s-47 9.83398 -68 15.501s-38.5 12.167 -52.5 19.5l22.5 54.5c7 16.333 14.833 33.166 23.5 50.499c8.66699 -4 21 -8.66699 37 -14s34.667 -10.333 56 -15s45 -8.66699 71 -12
s53.667 -5 83 -5c18.667 0 35.667 0.5 51 1.5s28.5 3.83301 39.5 8.5s20 12.167 27 22.5s11.833 24.833 14.5 43.5c2 14 2.16699 25.333 0.5 34s-5.16699 15.5 -10.5 20.5s-13 9 -23 12s-22.333 6.16699 -37 9.5c-54.667 12 -100.834 22.833 -138.501 32.5
s-67.667 22.167 -90 37.5s-37.166 35.333 -44.499 60s-8 58 -2 100c4 29.333 13.667 55 29 77s34.833 40.167 58.5 54.5s50.167 25.166 79.5 32.499s60 11 92 11c23.333 0 47.166 -0.833008 71.499 -2.5s47.666 -4.16699 69.999 -7.5s43 -7.33301 62 -12
s34.833 -10.334 47.5 -17.001z" />
    <glyph glyph-name="T" unicode="T" horiz-adv-x="543" 
d="M204 0l75 535h-197l25 107h529l-25 -107h-200l-75 -535h-132z" />
    <glyph glyph-name="U" unicode="U" horiz-adv-x="686" 
d="M573 642h130.999l-53 -372c-7.33301 -50 -16.666 -92.833 -27.999 -128.5s-28.333 -64.667 -51 -87s-52.334 -38.833 -89.001 -49.5s-83.667 -16 -141 -16s-103.166 5.33301 -137.499 16s-59.833 27.167 -76.5 49.5s-26 51.333 -28 87s0.666992 78.5 8 128.5l53 372h131
l-52 -371c-4.66699 -31.333 -7 -58 -7 -80s4 -40 12 -54s20.833 -24.167 38.5 -30.5s42.167 -9.5 73.5 -9.5c30.667 0 55.667 3.16699 75 9.5s34.833 16.5 46.5 30.5s20.5 32 26.5 54s11.333 48.667 16 80z" />
    <glyph glyph-name="V" unicode="V" horiz-adv-x="655" 
d="M248 0l-137 642h144l73 -441l4 -101h6l32 101l197 441h144l-317 -642h-146z" />
    <glyph glyph-name="W" unicode="W" horiz-adv-x="908" 
d="M560 0l-40 482l-165 -482h-165l-57 642h144l8 -532h6l167 532h169l28 -532h6l147 532h146l-229 -642h-165z" />
    <glyph glyph-name="X" unicode="X" horiz-adv-x="696" 
d="M390 289c-5.33301 -12.667 -12 -27.333 -20 -44s-16.667 -33.334 -26 -50.001l-150 -195h-163l72 82l76.5 86.5l76 86.5l71.5 81l-42 74l-45 78.5l-45.5 79l-43.5 74.5h163l70 -165c4.66699 -16.667 8.5 -33.334 11.5 -50.001s5.5 -31.334 7.5 -44.001l21 44
c8 16.667 16.667 33.334 26 50.001l116 165h163l-64 -74.5l-68 -79l-67 -78.5l-63 -74l48 -81l52 -86.5l52 -86.5l50 -82h-163l-96 195c-4.66699 16.667 -8.5 33.334 -11.5 50.001s-5.83301 31.334 -8.5 44.001z" />
    <glyph glyph-name="Y" unicode="Y" horiz-adv-x="618" 
d="M239 0l38.002 273.999l-86.5 184l-87.5 184h146c15.333 -32 30.166 -64.5 44.499 -97.5s29.166 -65.5 44.499 -97.5c2.66699 -19.333 5 -40.666 7 -63.999s3.66699 -44.333 5 -63l24.5 60.5l26.5 66.5l75.5 97.5c25 33 51.833 65.5 80.5 97.5h139l-287 -368l-38 -274
h-132z" />
    <glyph glyph-name="Z" unicode="Z" horiz-adv-x="585" 
d="M28 0l16 117l438 418h-359l25 107h485l-16 -113l-443 -421h396l-25 -108h-517z" />
    <glyph glyph-name="bracketleft" unicode="[" horiz-adv-x="248" 
d="M52 -186l132 936h169l-17 -47h-94l-118 -842h104l-17 -47h-159z" />
    <glyph glyph-name="backslash" unicode="\" horiz-adv-x="270" 
d="M194 -11l-102 672h72l104 -672h-74z" />
    <glyph glyph-name="bracketright" unicode="]" horiz-adv-x="253" 
d="M-26 -186l24 97h63l104 742h-74l24 97h189l-132 -936h-198z" />
    <glyph glyph-name="asciicircum" unicode="^" horiz-adv-x="499" 
d="M482 500l-135 194l-187 -194h-69l235 251h58l164 -251h-66z" />
    <glyph glyph-name="underscore" unicode="_" horiz-adv-x="708" 
d="M52 -186l6 38h549l-6 -38h-549z" />
    <glyph glyph-name="grave" unicode="`" horiz-adv-x="170" 
d="M173 547l-79 107h86l38 -107h-45z" />
    <glyph glyph-name="a" unicode="a" horiz-adv-x="703" 
d="M647 -1c-42 4.66699 -72.166 14.3291 -90.499 28.9961s-28.833 38.334 -31.5 71.001c-25.333 -35.333 -56.5 -62.333 -93.5 -81s-79.5 -28 -127.5 -28c-38 0 -72.5 3 -103.5 9s-56.667 16.5 -77 31.5s-35 35.333 -44 61s-10.833 57.834 -5.5 96.501
c6 44 17.333 80.333 34 109s37.5 51.5 62.5 68.5s53.833 28.833 86.5 35.5s68 10 106 10h158c2.66699 32 2.5 57.167 -0.5 75.5s-9.5 32 -19.5 41s-24 14.667 -42 17s-40.667 3.5 -68 3.5c-20 0 -40 -1.33301 -60 -4s-38.667 -6 -56 -10s-33.333 -8.16699 -48 -12.5
s-27 -8.16602 -37 -11.499l-18 103c29.333 13.333 64.333 23.666 105 30.999s84.334 11 131.001 11c54 0 98.5 -4 133.5 -12s61.833 -23.667 80.5 -47s29.5 -56.666 32.5 -99.999s-0.5 -100.333 -10.5 -171l-2 -16l-16 -112c-4.66699 -32.667 -3.33398 -55.667 3.99902 -69
s21.666 -21.666 42.999 -24.999zM507.001 302.995h-159.001c-19.333 0 -37 -1.16699 -53 -3.5s-30.333 -7.5 -43 -15.5s-23.334 -19.5 -32.001 -34.5s-14.667 -35.5 -18 -61.5c-2.66699 -20 -1.66699 -36 3 -48s12.334 -21 23.001 -27s23.834 -10 39.501 -12
s33.167 -3 52.5 -3c34 0 62 4.33301 84 13s39.833 21.667 53.5 39s24.167 38.5 31.5 63.5s13.333 54.167 18 87.5v2z" />
    <glyph glyph-name="b" unicode="b" horiz-adv-x="675" 
d="M79 0l89.999 642.003h275c47.333 0 86.666 -2.16699 117.999 -6.5s55.666 -12.333 72.999 -24s28.5 -28.167 33.5 -49.5s5.16699 -49 0.5 -83c-3.33301 -25.333 -8 -46.333 -14 -63s-13.167 -30.834 -21.5 -42.501s-18.166 -21.5 -29.499 -29.5s-24.333 -15.333 -39 -22
c12.667 -6.66699 23.834 -13.834 33.501 -21.501s17.5 -17.334 23.5 -29.001s9.83301 -26 11.5 -43s0.833984 -37.833 -2.49902 -62.5c-4.66699 -34 -12.667 -61.833 -24 -83.5s-27.5 -38.5 -48.5 -50.5s-47.833 -20.333 -80.5 -25s-72.667 -7 -120 -7h-279z
M374.999 107.003c20.667 0 38.332 0.333008 52.999 1s26.834 2.66699 36.501 6s17.167 9 22.5 17s9 19.667 11 35c4 26 5 46 3 60s-6.66699 24.167 -14 30.5s-17.5 10 -30.5 11s-28.833 1.5 -47.5 1.5h-181l-22 -162h169zM423.997 376.003
c18 0 33.3311 0.833984 45.998 2.50098s23.334 5.66699 32.001 12s15.5 16.166 20.5 29.499s9.16699 32 12.5 56c2 14 1.66699 24.833 -1 32.5s-8.16699 13.5 -16.5 17.5s-19.666 6.5 -33.999 7.5s-31.833 1.5 -52.5 1.5h-165l-23 -159h181z" />
    <glyph glyph-name="c" unicode="c" horiz-adv-x="650" 
d="M618 31c-30 -13.333 -66 -24.0029 -108 -32.0029s-86.333 -12 -133 -12c-49.333 0 -93.166 4.16699 -131.499 12.5s-70 24.5 -95 48.5s-42 57.833 -51 101.5s-8.5 100.834 1.5 171.501s25.667 127.834 47 171.501s47.666 77.5 78.999 101.5s67.5 40.167 108.5 48.5
s86.167 12.5 135.5 12.5c94 0 167 -13.333 219 -40l-48 -103c-18 6 -43 13.5 -75 22.5s-68.333 13.5 -109 13.5c-27.333 0 -53 -2 -77 -6s-45.5 -13.667 -64.5 -29s-35.5 -38.166 -49.5 -68.499s-24.667 -71.5 -32 -123.5c-7.33301 -52.667 -8.33301 -94.167 -3 -124.5
s15.5 -53 30.5 -68s33.833 -24.5 56.5 -28.5s47.667 -6 75 -6c20 0 40.167 1.5 60.5 4.5s39.5 6.5 57.5 10.5s34.5 8.33301 49.5 13l37.5 12z" />
    <glyph glyph-name="d" unicode="d" horiz-adv-x="689" 
d="M79 0l90.0029 642h230c48.667 0 92.5 -3.16699 131.5 -9.5s71 -20.5 96 -42.5s42.167 -54 51.5 -96s9 -98.333 -1 -169c-10 -71.333 -24.833 -128.5 -44.5 -171.5s-44.334 -75.833 -74.001 -98.5s-64.334 -37.5 -104.001 -44.5s-84.834 -10.5 -135.501 -10.5h-240z
M324.003 108c35.333 0 65.334 2.16797 90.001 6.50098s45.5 14 62.5 29s30.667 37 41 66s18.833 67.833 25.5 116.5c7.33301 50.667 8.16602 90.167 2.49902 118.5s-16 49.166 -31 62.499s-34 21.333 -57 24s-48.167 4 -75.5 4h-96l-60 -427h98z" />
    <glyph glyph-name="e" unicode="e" horiz-adv-x="704" 
d="M232 278c-3.33301 -39.333 -2.83105 -71.002 1.50195 -95.002s13.166 -42.5 26.499 -55.5s31.333 -21.833 54 -26.5s51 -7 85 -7c20 0 40.833 1.83301 62.5 5.5s42.167 8 61.5 13s37.166 10.167 53.499 15.5l39.5 13l19 -103c-14.667 -6.66699 -32.5 -13 -53.5 -19
s-43.333 -11.333 -67 -16s-48 -8.5 -73 -11.5s-49.167 -4.5 -72.5 -4.5c-50 0 -93.833 4 -131.5 12s-68.167 23.833 -91.5 47.5s-39 56.667 -47 99s-7.33301 98.166 2 167.499c10 72 25.667 130.333 47 175s47.333 79.334 78 104.001s65.167 41.334 103.5 50.001
s79.833 13 124.5 13c48 0 89.833 -4.66699 125.5 -14s64.5 -26.166 86.5 -50.499s36.667 -57.5 44 -99.5s6.33301 -96 -3 -162l-7 -51h-468zM579.002 385.998c2.66699 34.667 1.83008 62.667 -2.50293 84s-12.166 37.833 -23.499 49.5s-26.5 19.5 -45.5 23.5
s-41.833 6 -68.5 6c-23.333 0 -45 -1.16699 -65 -3.5s-38.167 -8.83301 -54.5 -19.5s-30.666 -27 -42.999 -49s-22.166 -52.333 -29.499 -91h332z" />
    <glyph glyph-name="f" unicode="f" horiz-adv-x="526" 
d="M239 278l-39 -278h-121l90 642h447l-25 -107h-316l-21 -149h275l-15 -108h-275z" />
    <glyph glyph-name="g" unicode="g" horiz-adv-x="672" 
d="M539 279l-144.996 0.000976562l25 107h263l-48 -341c-14.667 -8 -32.334 -15.333 -53.001 -22s-42.834 -12.5 -66.501 -17.5s-48.167 -8.83301 -73.5 -11.5s-50 -4 -74 -4c-50.667 0 -94.834 4 -132.501 12s-68 24 -91 48s-38.333 58 -46 102s-6.5 101.667 3.5 173
c10 70.667 25.667 127.667 47 171s47.833 76.666 79.5 99.999s67.834 39 108.501 47s85.667 12 135 12c46.667 0 89.167 -3.66699 127.5 -11s70.5 -17.666 96.5 -30.999l-48 -103c-18 7.33301 -43.833 15.5 -77.5 24.5s-70.834 13.5 -111.501 13.5
c-27.333 0 -52.833 -1.83301 -76.5 -5.5s-45.167 -12.834 -64.5 -27.501s-36 -36.834 -50 -66.501s-24.667 -70.5 -32 -122.5c-6.66699 -48.667 -8.83398 -88 -6.50098 -118s9.83301 -53.167 22.5 -69.5s31 -27.333 55 -33s54.333 -8.5 91 -8.5
c20.667 0 42.167 1.83301 64.5 5.5s40.5 7.83398 54.5 12.501z" />
    <glyph glyph-name="h" unicode="h" horiz-adv-x="681" 
d="M470 0l40 287h-260l-40 -287h-131l90 642h131l-35 -246h260l35 246h131l-90 -642h-131z" />
    <glyph glyph-name="i" unicode="i" horiz-adv-x="290" 
d="M79 0l90 642h132l-90 -642h-132z" />
    <glyph glyph-name="j" unicode="j" horiz-adv-x="322" 
d="M19 98c20.667 0 38.332 0.668945 52.999 2.00195s27 5.16602 37 11.499s17.833 16.166 23.5 29.499s10.167 32 13.5 56l63 445h131l-62 -441c-6 -44 -15 -79.5 -27 -106.5s-28.833 -47.833 -50.5 -62.5s-48.667 -24.5 -81 -29.5s-72.166 -7.5 -119.499 -7.5z" />
    <glyph glyph-name="k" unicode="k" horiz-adv-x="680" 
d="M298 267l-57 -0.000976562l-37 -267h-131l90 642h131l-38 -268h57l242 268h149l-145 -160.5l-146 -160.5l151 -216c8.66699 -8 21.667 -12.167 39 -12.5s33.333 -0.166016 48 0.500977l-24 -93c-21.333 -2 -41.333 -3.16699 -60 -3.5s-36.5 2.5 -53.5 8.5
s-33.333 15.833 -49 29.5s-31.5 33.167 -47.5 58.5z" />
    <glyph glyph-name="l" unicode="l" horiz-adv-x="532" 
d="M79 0l90 642h131l-75 -534h322l-25 -108h-443z" />
    <glyph glyph-name="m" unicode="m" horiz-adv-x="855" 
d="M647 0l55 392h-3l-203 -392h-138l-93 392h-3l-55 -392h-128l90 642h148l104 -382l18 -171l66 171l212 382h148l-90 -642h-128z" />
    <glyph glyph-name="n" unicode="n" horiz-adv-x="685" 
d="M466 0l-200 424l-59 -424h-128l90 642h140l199 -422l60 422h127l-90 -642h-139z" />
    <glyph glyph-name="o" unicode="o" 
d="M456 549c-25.333 0 -49.499 -1.16699 -72.499 -3.5s-44.167 -10.666 -63.5 -24.999s-36.166 -36.833 -50.499 -67.5s-25.5 -74.334 -33.5 -131.001s-9.16699 -100.334 -3.5 -131.001s16.167 -53.167 31.5 -67.5s34.166 -22.666 56.499 -24.999s46.166 -3.5 71.499 -3.5
c24.667 0 48.5 1.16699 71.5 3.5s44.167 10.666 63.5 24.999s36.333 36.833 51 67.5s26 74.334 34 131.001s9 100.334 3 131.001s-16.833 53.167 -32.5 67.5s-34.667 22.666 -57 24.999s-45.5 3.5 -69.5 3.5zM102.001 322c10 72 26.501 129.833 49.501 173.5
s50.667 77.334 83 101.001s68.666 39.334 108.999 47.001s82.833 11.5 127.5 11.5s86 -3.83301 124 -11.5s69.833 -23.334 95.5 -47.001s43.834 -57.334 54.501 -101.001s11 -101.5 1 -173.5s-26.5 -129.833 -49.5 -173.5s-50.833 -77.334 -83.5 -101.001
s-69 -39.334 -109 -47.001s-82.333 -11.5 -127 -11.5s-86 3.83301 -124 11.5s-69.833 23.334 -95.5 47.001s-43.834 57.334 -54.501 101.001s-11 101.5 -1 173.5z" />
    <glyph glyph-name="p" unicode="p" horiz-adv-x="595" 
d="M79 0l90.0039 642h259c47.333 0 86.666 -2.5 117.999 -7.5s55.666 -14.833 72.999 -29.5s28.166 -35.5 32.499 -62.5s3.5 -62.5 -2.5 -106.5s-15 -79.5 -27 -106.5s-28.833 -47.667 -50.5 -62s-48.834 -24 -81.501 -29s-72.667 -7.5 -120 -7.5h-127l-32 -231h-132z
M514.004 439c3.33301 22.667 4 40.501 2 53.501s-7 22.667 -15 29s-19.167 10.166 -33.5 11.499s-31.833 2 -52.5 2h-129l-28 -197h129c20.667 0 38.334 0.666992 53.001 2s27 5.16602 37 11.499s17.667 15.833 23 28.5s9.66602 30.334 12.999 53.001z" />
    <glyph glyph-name="q" unicode="q" horiz-adv-x="753" 
d="M694 -121c-38.667 -30.667 -80.9961 -46.001 -126.996 -46.001c-20.667 0 -40.334 3.16699 -59.001 9.5s-36.834 13.333 -54.501 21s-35.5 14.667 -53.5 21s-36.667 9.5 -56 9.5s-38 -3.16699 -56 -9.5s-40.333 -19.5 -67 -39.5l15 106
c19.333 18 42.666 31.333 69.999 40c-37.333 2.66699 -71.166 9.5 -101.499 20.5s-55.333 28.833 -75 53.5s-33.334 57.667 -41.001 99s-6.83398 94 2.49902 158c10 72 26.5 129.833 49.5 173.5s50.667 77.334 83 101.001s68.666 39.334 108.999 47.001
s82.833 11.5 127.5 11.5s86 -3.83301 124 -11.5s69.833 -23.334 95.5 -47.001s43.834 -57.334 54.501 -101.001s11 -101.5 1 -173.5c-9.33301 -64 -23.5 -116.667 -42.5 -158s-42.167 -74.333 -69.5 -99s-57.833 -42.5 -91.5 -53.5s-69.5 -17.833 -107.5 -20.5
c15.333 -4 30.333 -9.16699 45 -15.5s29 -12.166 43 -17.499s27.5 -10 40.5 -14s25.833 -6 38.5 -6c18 0 37.667 4.66699 59 14s41.333 21 60 35zM381.004 94.999c24.667 0 48.501 1.16699 71.501 3.5s44.167 10.666 63.5 24.999s36.333 36.833 51 67.5
s26 74.334 34 131.001s9 100.334 3 131.001s-16.833 53.167 -32.5 67.5s-34.667 22.666 -57 24.999s-45.5 3.5 -69.5 3.5c-25.333 0 -49.5 -1.16699 -72.5 -3.5s-44.167 -10.666 -63.5 -24.999s-36.166 -36.833 -50.499 -67.5s-25.5 -74.334 -33.5 -131.001
s-9.16699 -100.334 -3.5 -131.001s16.167 -53.167 31.5 -67.5s34.166 -22.666 56.499 -24.999s46.166 -3.5 71.499 -3.5z" />
    <glyph glyph-name="r" unicode="r" horiz-adv-x="681" 
d="M79 0l90.002 641.999h259c47.333 0 86.666 -2.5 117.999 -7.5s55.666 -14.833 72.999 -29.5s28.166 -35.5 32.499 -62.5s3.5 -62.5 -2.5 -106.5c-5.33301 -35.333 -12.166 -64.833 -20.499 -88.5s-19.5 -43.334 -33.5 -59.001s-30.833 -27.5 -50.5 -35.5
s-43.5 -13.667 -71.5 -17l91 -131c3.33301 -4.66699 8.5 -8 15.5 -10s14.5 -3.16699 22.5 -3.5s16.333 -0.166016 25 0.500977s16.667 1 24 1l-24 -93c-21.333 -2 -41 -3 -59 -3s-35.333 3 -52 9s-33.167 15.833 -49.5 29.5s-32.833 32.834 -49.5 57.501l-95 138h-79
l-32 -231h-132zM514.002 438.999c3.33301 22.667 4 40.501 2 53.501s-7 22.667 -15 29s-19.167 10.166 -33.5 11.499s-31.833 2 -52.5 2h-129l-28 -197h129c20.667 0 38.334 0.666992 53.001 2s27 5.16602 37 11.499s17.667 15.833 23 28.5s9.66602 30.334 12.999 53.001z
" />
    <glyph glyph-name="s" unicode="s" horiz-adv-x="624" 
d="M593 512c-9.33301 3.33301 -21.332 7.00195 -35.999 11.002s-31 7.83301 -49 11.5s-37.167 6.66699 -57.5 9s-40.5 3.5 -60.5 3.5c-40 0 -70.833 -5 -92.5 -15s-34.167 -28 -37.5 -54c-2 -15.333 -3.16699 -27 -3.5 -35s1.33398 -14.5 5.00098 -19.5
s9.66699 -9.16699 18 -12.5s20.166 -7.33301 35.499 -12c36 -9.33301 72.333 -17.833 109 -25.5s69.334 -18.5 98.001 -32.5s51 -33.667 67 -59s21 -60.333 15 -105c-5.33301 -38.667 -16 -70.167 -32 -94.5s-36.167 -43.5 -60.5 -57.5s-52.833 -23.5 -85.5 -28.5
s-68 -7.5 -106 -7.5c-23.333 0 -47.833 1.16699 -73.5 3.5s-50.667 5.83301 -75 10.5s-47 9.83398 -68 15.501s-38.5 12.167 -52.5 19.5l22.5 54.5c7 16.333 14.833 33.166 23.5 50.499c8.66699 -4 21 -8.66699 37 -14s34.667 -10.333 56 -15s45 -8.66699 71 -12
s53.667 -5 83 -5c18.667 0 35.667 0.5 51 1.5s28.5 3.83301 39.5 8.5s20 12.167 27 22.5s11.833 24.833 14.5 43.5c2 14 2.16699 25.333 0.5 34s-5.16699 15.5 -10.5 20.5s-13 9 -23 12s-22.333 6.16699 -37 9.5c-54.667 12 -100.834 22.833 -138.501 32.5
s-67.667 22.167 -90 37.5s-37.166 35.333 -44.499 60s-8 58 -2 100c4 29.333 13.667 55 29 77s34.833 40.167 58.5 54.5s50.167 25.166 79.5 32.499s60 11 92 11c23.333 0 47.166 -0.833008 71.499 -2.5s47.666 -4.16699 69.999 -7.5s43 -7.33301 62 -12
s34.833 -10.334 47.5 -17.001z" />
    <glyph glyph-name="t" unicode="t" horiz-adv-x="543" 
d="M204 0l75 535h-197l25 107h529l-25 -107h-200l-75 -535h-132z" />
    <glyph glyph-name="u" unicode="u" horiz-adv-x="668" 
d="M573 642h130.999l-53 -372c-7.33301 -50 -16.666 -92.833 -27.999 -128.5s-28.333 -64.667 -51 -87s-52.334 -38.833 -89.001 -49.5s-83.667 -16 -141 -16s-103.166 5.33301 -137.499 16s-59.833 27.167 -76.5 49.5s-26 51.333 -28 87s0.666992 78.5 8 128.5l53 372h131
l-52 -371c-4.66699 -31.333 -7 -58 -7 -80s4 -40 12 -54s20.833 -24.167 38.5 -30.5s42.167 -9.5 73.5 -9.5c30.667 0 55.667 3.16699 75 9.5s34.833 16.5 46.5 30.5s20.5 32 26.5 54s11.333 48.667 16 80z" />
    <glyph glyph-name="v" unicode="v" horiz-adv-x="655" 
d="M248 0l-137 642h144l73 -441l4 -101h6l32 101l197 441h144l-317 -642h-146z" />
    <glyph glyph-name="w" unicode="w" horiz-adv-x="908" 
d="M560 0l-40 482l-165 -482h-165l-57 642h144l8 -532h6l167 532h169l28 -532h6l147 532h146l-229 -642h-165z" />
    <glyph glyph-name="x" unicode="x" horiz-adv-x="696" 
d="M390 289c-5.33301 -12.667 -12 -27.333 -20 -44s-16.667 -33.334 -26 -50.001l-150 -195h-163l72 82l76.5 86.5l76 86.5l71.5 81l-42 74l-45 78.5l-45.5 79l-43.5 74.5h163l70 -165c4.66699 -16.667 8.5 -33.334 11.5 -50.001s5.5 -31.334 7.5 -44.001l21 44
c8 16.667 16.667 33.334 26 50.001l116 165h163l-64 -74.5l-68 -79l-67 -78.5l-63 -74l48 -81l52 -86.5l52 -86.5l50 -82h-163l-96 195c-4.66699 16.667 -8.5 33.334 -11.5 50.001s-5.83301 31.334 -8.5 44.001z" />
    <glyph glyph-name="y" unicode="y" horiz-adv-x="618" 
d="M239 0l38.002 273.999l-86.5 184l-87.5 184h146c15.333 -32 30.166 -64.5 44.499 -97.5s29.166 -65.5 44.499 -97.5c2.66699 -19.333 5 -40.666 7 -63.999s3.66699 -44.333 5 -63l24.5 60.5l26.5 66.5l75.5 97.5c25 33 51.833 65.5 80.5 97.5h139l-287 -368l-38 -274
h-132z" />
    <glyph glyph-name="z" unicode="z" horiz-adv-x="585" 
d="M28 0l16 117l438 418h-359l25 107h485l-16 -113l-443 -421h396l-25 -108h-517z" />
    <glyph glyph-name="braceleft" unicode="{" horiz-adv-x="282" 
d="M214 -197c-14.667 0 -27.3281 0.333008 -37.9951 1s-19.334 2 -26.001 4c-16.667 5.33301 -30 14.5 -40 27.5s-16 33.167 -18 60.5c-0.666992 10 0 26.5 2 49.5s4.33301 47 7 72s5 48 7 69s2.66699 34.5 2 40.5c-1.33301 22.667 -9 40.834 -23 54.501s-33 21.5 -57 23.5
l8 54c20.667 2 38 7 52 15s25.5 19.5 34.5 34.5s16.333 33.833 22 56.5s10.834 49.667 15.501 81c6 40 12 72.667 18 98s13.333 45.666 22 60.999s19 26.833 31 34.5s27 13.5 45 17.5c5.33301 1.33301 12.833 2.33301 22.5 3s20.834 1 33.501 1h16l-14 -101h-5
c-12 0 -20.833 -3.33301 -26.5 -10s-9.83398 -21.334 -12.501 -44.001c-5.33301 -40 -10.333 -72.333 -15 -97s-8.33398 -42 -11.001 -52c-4.66699 -15.333 -9.33398 -28.5 -14.001 -39.5s-11.334 -21.167 -20.001 -30.5s-20.5 -18.333 -35.5 -27
s-34.833 -18.334 -59.5 -29.001c22 -8 39.833 -17.167 53.5 -27.5s23.667 -23.166 30 -38.499s9.66602 -34.166 9.99902 -56.499s-1.83398 -49.833 -6.50098 -82.5c-4 -26 -7 -47.167 -9 -63.5s-2.66699 -28.833 -2 -37.5s3 -14.5 7 -17.5s10.333 -4.5 19 -4.5h5l-14 -100
h-16z" />
    <glyph glyph-name="bar" unicode="|" horiz-adv-x="227" 
d="M51 -197l120 858h55l-120 -858h-55z" />
    <glyph glyph-name="braceright" unicode="}" horiz-adv-x="283" 
d="M-2 -197l12.9971 100.002h5c8.66699 0 15.334 1.5 20.001 4.5s8.5 8.83301 11.5 17.5s5.66699 21.167 8 37.5l9.5 63.5c4.66699 32.667 10.167 60.167 16.5 82.5s14.833 41.166 25.5 56.499s24.334 28.166 41.001 38.499s37.334 19.5 62.001 27.5
c-22 10.667 -39.167 20.334 -51.5 29.001s-21.5 17.667 -27.5 27s-9.83301 19.5 -11.5 30.5s-2.5 24.167 -2.5 39.5c-0.666992 10 0.5 27.333 3.5 52s7.16699 57 12.5 97c3.33301 23.333 3 38.166 -1 44.499s-12 9.5 -24 9.5h-5l14 101h16
c12.667 0 23.834 -0.333008 33.501 -1s17.167 -1.66699 22.5 -3c16.667 -4 30 -9.83301 40 -17.5s17.167 -19.167 21.5 -34.5s6 -35.666 5 -60.999s-4.5 -58 -10.5 -98c-4.66699 -31.333 -7.33398 -58.333 -8.00098 -81s1.5 -41.5 6.5 -56.5s13.5 -26.5 25.5 -34.5
s28 -13 48 -15l-8 -54c-24 -2 -44.833 -9.83301 -62.5 -23.5s-30.834 -31.834 -39.501 -54.501c-1.33301 -4 -3.16602 -11.667 -5.49902 -23s-4.66602 -24.333 -6.99902 -39s-5 -30.5 -8 -47.5l-9 -49l-8.5 -43c-2.66699 -13 -5.33398 -22.833 -8.00098 -29.5
c-10 -27.333 -21.833 -47.5 -35.5 -60.5s-29.167 -22.167 -46.5 -27.5c-7.33301 -2 -16.5 -3.33301 -27.5 -4s-23.833 -1 -38.5 -1h-15z" />
    <glyph glyph-name="asciitilde" unicode="~" horiz-adv-x="589" 
d="M569 302c-20.667 -16 -41.335 -27.668 -62.002 -35.001s-42.667 -11 -66 -11c-9.33301 0 -18.166 0.333008 -26.499 1s-17.166 2.33398 -26.499 5.00098c-7.33301 2 -18.333 6 -33 12s-30.5 12.167 -47.5 18.5s-33.5 12 -49.5 17s-29.333 7.5 -40 7.5
c-19.333 0 -38 -3.16699 -56 -9.5s-40.333 -19.5 -67 -39.5l9 66c38 32.667 81.333 49 130 49c18 0 37.667 -2.66699 59 -8c12 -3.33301 25.833 -8 41.5 -14l47.5 -18c16 -6 31 -11.167 45 -15.5s25 -6.5 33 -6.5c18 0 37.667 4.66699 59 14s41.333 21 60 35z" />
    <glyph glyph-name="exclamdown" unicode="&#xa1;" horiz-adv-x="170" 
d="M141 289c-1.33301 -54.667 -3.33301 -110.667 -6 -168s-5 -113 -7 -167l-19 -138h-105l19 138l82 335h36zM207 466l-17 -123h-118l17 123h118z" />
    <glyph glyph-name="cent" unicode="&#xa2;" horiz-adv-x="650" 
d="M618 31c-28 -12 -60.9941 -21.833 -98.9941 -29.5s-78 -12.167 -120 -13.5l-15 -106h-55l15 106c-44 1.33301 -83.167 7 -117.5 17s-62.333 27.167 -84 51.5s-36.334 57.833 -44.001 100.5s-6.83398 97.334 2.49902 164.001s23.833 121.334 43.5 164.001
s43.667 76.167 72 100.5s61.166 41.5 98.499 51.5s78 15.667 122 17l13 86h55l-12 -85c82 -2 147.667 -15.333 197 -40l-48 -103c-16.667 5.33301 -39.334 12.166 -68.001 20.499s-61 13.166 -97 14.499l-63 -453c18.667 0.666992 37 2.66699 55 6s35.167 7 51.5 11
s31.166 8 44.499 12s24.666 7.66699 33.999 11zM235.006 321c-6.66699 -47.333 -8.33203 -85.501 -4.99902 -114.501s10.833 -51.667 22.5 -68s26.667 -27.5 45 -33.5s38.833 -9.66699 61.5 -11l63 453c-22.667 -1.33301 -44 -5.16602 -64 -11.499s-38 -17.666 -54 -33.999
s-29.833 -38.833 -41.5 -67.5s-20.834 -66.334 -27.501 -113.001z" />
    <glyph glyph-name="sterling" unicode="&#xa3;" horiz-adv-x="516" 
d="M299 252c-2.66699 -17.333 -9.00488 -36.668 -19.0049 -58.001s-24.667 -44 -44 -68c23.333 -2 46 -5.83301 68 -11.5s43.833 -10.167 65.5 -13.5s43.334 -4.16602 65.001 -2.49902s43.5 8.5 65.5 20.5c0.666992 -5.33301 1.33398 -13 2.00098 -23s1 -20.167 1 -30.5
s0.166992 -20.333 0.5 -30s1.16602 -16.834 2.49902 -21.501c-25.333 -13.333 -50.833 -20.5 -76.5 -21.5s-51.167 0.666992 -76.5 5s-50.833 9.83301 -76.5 16.5s-51.167 11.5 -76.5 14.5s-50.5 2.16699 -75.5 -2.5s-49.833 -16 -74.5 -34l-16 59
c32.667 17.333 61.334 41.333 86.001 72s40.334 68 47.001 112c1.33301 10 1.83301 20.667 1.5 32s-1.16602 23.333 -2.49902 36h-92l7 46h77l-4 26l-5 39.5c-1.33301 10.333 -2.16602 19.333 -2.49902 27s-0.333008 14.334 0 20.001s1.16602 12.167 2.49902 19.5
c4 26.667 12.5 51 25.5 73s29.5 41 49.5 57s43.167 28.333 69.5 37s54.833 13 85.5 13c54 0 96.667 -13.333 128 -40s48.333 -64.667 51 -114l-125 -8c-2 20 -9.16699 36 -21.5 48s-27.833 18 -46.5 18c-20.667 0 -39 -7 -55 -21s-25.333 -31 -28 -51
c-6 -36.667 -3.33301 -84.667 8 -144h149l-7 -46h-141c3.33301 -11.333 5.83301 -21 7.5 -29s1.83398 -15.333 0.500977 -22z" />
    <glyph glyph-name="currency" unicode="&#xa4;" horiz-adv-x="571" 
d="M424 175c-39.333 -25.333 -79.3311 -38 -119.998 -38c-38 0 -74.333 12.667 -109 38l-75 -64l-32 40l72 62c-19.333 34.667 -26.333 71 -21 109c2.66699 17.333 8.16699 35.333 16.5 54s20.166 36.667 35.499 54l-56 62l44 40l57 -62c39.333 23.333 79 35 119 35
c41.333 0 78.333 -11.667 111 -35l73 63c7.33301 -7.33301 13.333 -14.333 18 -21s10.334 -13.667 17.001 -21l-73 -61c10 -17.333 16.833 -35.333 20.5 -54s4.16699 -36.667 1.5 -54c-4.66699 -36 -22.334 -72.333 -53.001 -109l26.5 -29.5
c10.333 -11.667 20.166 -22.167 29.499 -31.5l-46 -42zM249.002 414c-30.667 -26.667 -48.334 -57.334 -53.001 -92.001c-4.66699 -36.667 4.33301 -67.334 27 -92.001s52 -37 88 -37c38 0 71.667 12.333 101 37c15.333 13.333 27.333 27.333 36 42
s14.334 31.334 17.001 50.001c4.66699 34.667 -4.33301 65.334 -27 92.001c-22.667 24.667 -53 37 -91 37c-36 0 -68.667 -12.333 -98 -37z" />
    <glyph glyph-name="yen" unicode="&#xa5;" horiz-adv-x="618" 
d="M239 0l20.002 148.999h-161l6 43h161l12 82c-1.33301 1.33301 -2 2.33301 -2 3h-159l7 48h129l-74.5 158.5l-74.5 158.5h146c15.333 -32 30.166 -64.5 44.499 -97.5s29.166 -65.5 44.499 -97.5c2.66699 -19.333 5 -40.666 7 -63.999s3.66699 -44.333 5 -63l51 127
l75.5 97.5c25 33 51.833 65.5 80.5 97.5h139l-248 -317h137l-7 -48h-167l-2 -3l-12 -82h169l-6 -43h-169l-20 -149h-132z" />
    <glyph glyph-name="brokenbar" unicode="&#xa6;" horiz-adv-x="188" 
d="M124 321l47 340h55l-47 -340h-55zM51 -197l48 341h55l-48 -341h-55z" />
    <glyph glyph-name="section" unicode="&#xa7;" horiz-adv-x="515" 
d="M336 -8c-6.66699 10.667 -20.998 26.3359 -42.998 47.0029s-50.333 43 -85 67c-26 18 -48 33.833 -66 47.5s-32.167 26.834 -42.5 39.501s-17.333 26.167 -21 40.5s-4.16699 31.166 -1.5 50.499c4 26.667 17.833 51.334 41.5 74.001s54.5 39.667 92.5 51
c-22 23.333 -37.333 44.333 -46 63s-11.667 37.334 -9 56.001c2 17.333 8 34 18 50s23 30.167 39 42.5s34.667 22.166 56 29.499s44.666 11 69.999 11c54 0 95 -12 123 -36s43 -58 45 -102l-99 -7c-2.66699 26 -9.66699 44 -21 54s-28.333 15 -51 15
c-23.333 0 -43 -5.66699 -59 -17s-25 -23.666 -27 -36.999c-1.33301 -8.66699 -1 -18 1 -28s7 -21 15 -33s20.167 -25.667 36.5 -41s38.166 -32.333 65.499 -51c29.333 -20.667 53.333 -38.334 72 -53.001s33.167 -28.334 43.5 -41.001s16.833 -25.334 19.5 -38.001
s3 -27.334 1 -44.001c-2 -14 -5 -26.5 -9 -37.5s-10.833 -21.5 -20.5 -31.5s-23 -19.833 -40 -29.5s-39.5 -19.834 -67.5 -30.501c28 -23.333 47.167 -46 57.5 -68s13.833 -44.667 10.5 -68c-2.66699 -18 -9.66699 -35.167 -21 -51.5s-25.666 -30.5 -42.999 -42.5
s-36.833 -21.667 -58.5 -29s-44.167 -11 -67.5 -11c-119.333 0 -181 48.667 -185 146l97 8c4 -28 13.167 -47.5 27.5 -58.5s35.5 -16.5 63.5 -16.5c30 0 54 6 72 18s28 26 30 42c1.33301 9.33301 0.666016 18 -2.00098 26s-6.66699 16 -12 24zM352.002 92.002
c21.333 13.333 37.668 28.3301 49.001 44.9971s18.333 33 21 49c2 20.667 -4 41.334 -18 62.001c-4.66699 7.33301 -14.667 17.833 -30 31.5s-32.166 27.667 -50.499 42l-54 42c-17.667 13.667 -30.834 24.167 -39.501 31.5c-24 -17.333 -41.833 -33.666 -53.5 -48.999
s-18.834 -32.666 -21.501 -51.999c-1.33301 -8.66699 1.16699 -18.5 7.5 -29.5s15 -22.667 26 -35s23.5 -24.833 37.5 -37.5l42.5 -37l41 -34c13 -10.667 23.833 -20 32.5 -28z" />
    <glyph glyph-name="dieresis" unicode="&#xa8;" horiz-adv-x="409" 
d="M140 581l17 123h110l-17 -123h-110zM318 581l17 123h110l-17 -123h-110z" />
    <glyph glyph-name="copyright" unicode="&#xa9;" 
d="M377 -11c-44.667 0 -85.999 3.83301 -123.999 11.5s-69.833 23.334 -95.5 47.001s-43.834 57.334 -54.501 101.001s-11 101.5 -1 173.5s26.5 129.833 49.5 173.5s50.667 77.334 83 101.001s68.666 39.334 108.999 47.001s82.833 11.5 127.5 11.5s86 -3.83301 124 -11.5
s69.833 -23.334 95.5 -47.001s43.834 -57.334 54.501 -101.001s11 -101.5 1 -173.5s-26.5 -129.833 -49.5 -173.5s-50.833 -77.334 -83.5 -101.001s-69 -39.334 -109 -47.001s-82.333 -11.5 -127 -11.5zM561.001 147c-20 -8.66699 -44.1611 -16.333 -72.4941 -23
s-56.5 -10 -84.5 -10c-30.667 0 -57.334 2.33301 -80.001 7s-41 14.334 -55 29.001s-23.333 35.334 -28 62.001s-4 61.667 2 105c6 42.667 15.5 77.167 28.5 103.5s29 46.666 48 60.999s40.833 23.833 65.5 28.5s51.667 7 81 7c28 0 54.167 -2.66699 78.5 -8
s45.5 -12.666 63.5 -21.999l-34 -46c-11.333 4.66699 -27.333 9.83398 -48 15.501s-42.334 8.5 -65.001 8.5c-19.333 0 -37.5 -1.16699 -54.5 -3.5s-32.333 -8.33301 -46 -18s-25.334 -24.334 -35.001 -44.001s-16.834 -46.834 -21.501 -81.501
c-4.66699 -32.667 -6 -58.834 -4 -78.501s7.5 -35 16.5 -46s22 -18.333 39 -22s38.5 -5.5 64.5 -5.5c19.333 0 38.166 2.5 56.499 7.5s33.166 9.5 44.499 13.5l18 6zM382.007 25.001c34.667 0 69.332 1.66992 103.999 5.00293s66.834 14.166 96.501 32.499
s55.667 47.666 78 87.999s38.833 97.5 49.5 171.5c6.66699 49.333 8.5 91 5.5 125s-9.83301 62 -20.5 84s-24.334 38.833 -41.001 50.5s-35.167 20.334 -55.5 26.001s-42 9 -65 10s-45.833 1.5 -68.5 1.5c-23.333 0 -46.833 -0.5 -70.5 -1.5s-46.5 -4.33301 -68.5 -10
s-42.833 -14.334 -62.5 -26.001s-37.667 -28.5 -54 -50.5s-30.666 -50 -42.999 -84s-21.833 -75.667 -28.5 -125c-7.33301 -49.333 -9.5 -91 -6.5 -125s9.5 -62 19.5 -84s23.333 -38.833 40 -50.5s35.167 -20.334 55.5 -26.001s42 -9 65 -10s46.5 -1.5 70.5 -1.5z" />
    <glyph glyph-name="guillemotleft" unicode="&#xab;" horiz-adv-x="465" 
d="M173 32l-58.5 100.5l-58.5 98.5l173 198h85l-145 -198l88 -199h-84zM357 32l-114 199l170 198h89l-148 -198l92 -199h-89z" />
    <glyph glyph-name="logicalnot" unicode="&#xac;" horiz-adv-x="522" 
d="M407 194l28 201h-380l8 56h441l-36 -257h-61z" />
    <glyph glyph-name="registered" unicode="&#xae;" horiz-adv-x="636" 
d="M530 320c-8 -4.66699 -15.502 -8.33203 -22.502 -10.999s-13.167 -4 -18.5 -4c-12.667 0 -23.667 4.66699 -33 14s-19.666 23.666 -30.999 42.999l-35 57h-83l-15 -108h-50l44 315h130c23.333 0 42.833 -1.16699 58.5 -3.5s27.834 -7.33301 36.501 -15
s14 -18.167 16 -31.5s1.66699 -31 -1 -53c-4.66699 -32 -13 -55.667 -25 -71s-29.667 -25.333 -53 -30l23 -36c9.33301 -16.667 18 -27.167 26 -31.5s17.333 -4.5 28 -0.5zM393.998 461.002c12.667 0 23.833 0.5 33.5 1.5s17.667 3.5 24 7.5s11.5 10.167 15.5 18.5
s7 19.833 9 34.5s2.16699 26.167 0.5 34.5s-5 14.5 -10 18.5s-12.167 6.33301 -21.5 7s-20.333 1 -33 1h-81l-18 -123h81zM345.997 202.002c-36 0 -69.333 3.16699 -100 9.5s-56.5 19 -77.5 38s-35.833 46.333 -44.5 82s-9 82.5 -1 140.5s21.333 104.833 40 140.5
s41.167 63 67.5 82s55.833 31.667 88.5 38s67 9.5 103 9.5s69.333 -3.16699 100 -9.5s56.5 -19 77.5 -38s35.833 -46.333 44.5 -82s9 -82.5 1 -140.5s-21.333 -104.833 -40 -140.5s-41.167 -63 -67.5 -82s-55.833 -31.667 -88.5 -38s-67 -9.5 -103 -9.5zM351.997 242.002
c26.667 0 53.3311 1.16699 79.998 3.5s51.5 10.833 74.5 25.5s43.167 37.5 60.5 68.5s30 75.167 38 132.5c5.33301 38 6.83301 70.167 4.5 96.5s-7.5 48 -15.5 65s-18.5 30.167 -31.5 39.5s-27.333 16.166 -43 20.499s-32.5 6.83301 -50.5 7.5s-35.667 1 -53 1
c-27.333 0 -54.5 -1.16699 -81.5 -3.5s-51.833 -10.833 -74.5 -25.5s-42.5 -37.5 -59.5 -68.5s-29.5 -75.167 -37.5 -132.5c-5.33301 -38 -6.83301 -70.167 -4.5 -96.5s7.33301 -48 15 -65s17.834 -30.167 30.501 -39.5s27 -16.166 43 -20.499s32.833 -6.83301 50.5 -7.5
s35.834 -1 54.501 -1z" />
    <glyph glyph-name="macron" unicode="&#xaf;" horiz-adv-x="433" 
d="M183 745l6 38h275l-6 -38h-275z" />
    <glyph glyph-name="degree" unicode="&#xb0;" horiz-adv-x="340" 
d="M148 461c-20 24 -28.001 52.335 -24.001 85.002c2.66699 15.333 7.83398 29.833 15.501 43.5s18.5 26.167 32.5 37.5c26.667 22.667 57 34 91 34s61 -11.333 81 -34c22 -22 30.333 -49 25 -81c-4 -32.667 -20 -60.334 -48 -83.001c-27.333 -23.333 -57.333 -35 -90 -35
c-16 0 -31.167 3.16699 -45.5 9.5s-26.833 14.166 -37.5 23.499zM337.999 546.002c2 12 1.16504 23.167 -2.50195 33.5s-9 19.333 -16 27s-15.833 13.834 -26.5 18.501s-22 7 -34 7s-23.833 -2.33301 -35.5 -7s-22.167 -10.834 -31.5 -18.501s-17.166 -16.667 -23.499 -27
s-10.5 -21.5 -12.5 -33.5c-3.33301 -24 2.83398 -44.833 18.501 -62.5s35.834 -26.5 60.501 -26.5c12 0 23.833 2.33301 35.5 7s22.167 11.167 31.5 19.5s17.166 17.833 23.499 28.5s10.5 22 12.5 34z" />
    <glyph glyph-name="plusminus" unicode="&#xb1;" horiz-adv-x="451" 
d="M315 284l-23 -165h-101l23 165h-170l14 94h170l23 164h101l-23 -164h170l-14 -94h-170zM5 0l10 76h441l-10 -76h-441z" />
    <glyph glyph-name="acute" unicode="&#xb4;" horiz-adv-x="174" 
d="M107 547l68 107h85l-52 -53.5l-51 -53.5h-50z" />
    <glyph glyph-name="paragraph" unicode="&#xb6;" horiz-adv-x="575" 
d="M373 -186l110 777.999h-128l-110 -778h-57l68 479c-30 0.666992 -56.5 5.5 -79.5 14.5s-41.667 21.333 -56 37s-24.5 33.834 -30.5 54.501s-7.33301 43.667 -4 69c8 55.333 32.667 99.5 74 132.5s97.333 49.5 168 49.5h293l-8 -58h-69l-110 -778h-61z" />
    <glyph glyph-name="periodcentered" unicode="&#xb7;" horiz-adv-x="245" 
d="M120 292l10 73h77l-10 -73h-77z" />
    <glyph glyph-name="cedilla" unicode="&#xb8;" horiz-adv-x="239" 
d="M10 -156l3.99902 0.000976562c4.66699 -0.666992 10 -1 16 -1h14c30.667 0 54.334 4.66699 71.001 14c12.667 9.33301 20 20 22 32c0.666992 5.33301 0.666992 10.166 0 14.499s-3.16699 8.33301 -7.5 12s-10.833 6.66699 -19.5 9s-21 3.83301 -37 4.5l26 61h41l-22 -48
c28.667 -3.33301 49.334 -10.5 62.001 -21.5s18 -23.5 16 -37.5c-2.66699 -19.333 -15.834 -36.833 -39.501 -52.5s-56.5 -23.5 -98.5 -23.5c-22 0 -41.333 1 -58 3z" />
    <glyph glyph-name="ordmasculine" unicode="&#xba;" horiz-adv-x="393" 
d="M245 339c-43.333 0 -76.832 14 -100.499 42s-31.834 67 -24.501 117c7.33301 52 26.333 92.167 57 120.5s68 42.5 112 42.5c21.333 0 40.5 -3.66699 57.5 -11s30.833 -17.833 41.5 -31.5s18.167 -30.5 22.5 -50.5s4.83301 -42.667 1.5 -68
c-7.33301 -50 -26.5 -89.333 -57.5 -118s-67.5 -43 -109.5 -43zM250.001 378c28.667 0 53.168 9.83203 73.501 29.499s33.5 51.167 39.5 94.5c5.33301 40.667 0.666016 70.834 -14.001 90.501s-36.334 29.5 -65.001 29.5c-29.333 0 -54.166 -9.66699 -74.499 -29
s-33.5 -50.333 -39.5 -93c-6 -42 -1.33301 -72.833 14 -92.5s37.333 -29.5 66 -29.5z" />
    <glyph glyph-name="guillemotright" unicode="&#xbb;" horiz-adv-x="465" 
d="M213 32l147 199l-45 99l-46 99h87l58.5 -98.5l58.5 -99.5l-173 -199h-87zM27 32l148 199l-92 198h88l57 -98.5l57 -99.5l-170 -199h-88z" />
    <glyph glyph-name="questiondown" unicode="&#xbf;" horiz-adv-x="511" 
d="M456 316l-2.00586 -14.001c-4.66699 -34 -14.167 -62.333 -28.5 -85s-31.666 -41.334 -51.999 -56.001s-43.333 -26.5 -69 -35.5s-52.5 -16.5 -80.5 -22.5c-16 -4.66699 -28.667 -8.66699 -38 -12s-16.5 -7.5 -21.5 -12.5s-8.66699 -11.667 -11 -20
s-4.5 -19.833 -6.5 -34.5c-3.33301 -25.333 4.33398 -43.166 23.001 -53.499s48 -15.5 88 -15.5c20 0 40.5 1.16699 61.5 3.5s41 5.33301 60 9s36.5 7.5 52.5 11.5s29 7.66699 39 11l19 -103c-14.667 -6.66699 -32.167 -12.334 -52.5 -17.001s-42.166 -8.66699 -65.499 -12
s-47.333 -5.83301 -72 -7.5s-48.667 -2.5 -72 -2.5c-32 0 -61.667 3.66699 -89 11s-50.666 18.166 -69.999 32.499s-33.666 32.5 -42.999 54.5s-12 47.667 -8 77c4.66699 32 11.834 59 21.501 81s22.667 40.167 39 54.5s36.5 26 60.5 35s52.667 17.167 86 24.5
c16 4.66699 29.333 8.83398 40 12.501s19.5 8.33398 26.5 14.001s12.5 13.334 16.5 23.001s7.33301 22.5 10 38.5l1 10h137zM481.994 501.999l-17 -123h-137l17 123h137z" />
    <glyph glyph-name="Agrave" unicode="&#xc0;" horiz-adv-x="657" 
d="M491 642l137 -642h-144l-31 181h-201l-80 -181h-144l317 642h146zM294 274h144l-28 167l-3 101h-6l-33 -101zM452 707l-79 107h86l38 -107h-45z" />
    <glyph glyph-name="Aacute" unicode="&#xc1;" horiz-adv-x="657" 
d="M491 642l137 -642h-144l-31 181h-201l-80 -181h-144l317 642h146zM294 274h144l-28 167l-3 101h-6l-33 -101zM387 689l68 107h85l-52 -53.5l-51 -53.5h-50z" />
    <glyph glyph-name="Acircumflex" unicode="&#xc2;" horiz-adv-x="657" 
d="M491 642l137 -642h-144l-31 181h-201l-80 -181h-144l317 642h146zM294 274h144l-28 167l-3 101h-6l-33 -101zM484 689l-47 84l-71 -84h-72l52 54l51 53h80l76 -107h-69z" />
    <glyph glyph-name="Atilde" unicode="&#xc3;" horiz-adv-x="657" 
d="M491 642l137 -642h-144l-31 181h-201l-80 -181h-144l317 642h146zM294 274h144l-28 167l-3 101h-6l-33 -101zM590 803c-6 -26.667 -17.5 -47.335 -34.5 -62.002s-36.833 -22 -59.5 -22c-9.33301 0 -19.833 2.16699 -31.5 6.5s-25.167 10.5 -40.5 18.5
c-20 12 -36 18 -48 18c-8 0 -14.833 -1.16699 -20.5 -3.5s-11.5 -6.16602 -17.5 -11.499c-3.33301 -3.33301 -6.5 -7.33301 -9.5 -12s-5.16699 -10.667 -6.5 -18h-43c2.66699 13.333 6.5 24.5 11.5 33.5s12.167 17.5 21.5 25.5c19.333 17.333 41.666 26 66.999 26
c9.33301 0 20 -2.16699 32 -6.5s25.667 -10.166 41 -17.499c18 -10 33.667 -15 47 -15c12.667 0 22.834 2.66699 30.501 8s14.167 16 19.5 32h41z" />
    <glyph glyph-name="Adieresis" unicode="&#xc4;" horiz-adv-x="657" 
d="M491 642l137 -642h-144l-31 181h-201l-80 -181h-144l317 642h146zM294 274h144l-28 167l-3 101h-6l-33 -101zM284 723l17 123h110l-17 -123h-110zM462 723l17 123h110l-17 -123h-110z" />
    <glyph glyph-name="Aring" unicode="&#xc5;" horiz-adv-x="657" 
d="M491 642l137 -642h-144l-31 181h-201l-80 -181h-144l317 642h146zM294 274h144l-28 167l-3 101h-6l-33 -101zM429 725c8.66699 0 16.5 1.66699 23.5 5s11.833 14 14.5 32c2.66699 17.333 0.833984 27.5 -5.49902 30.5s-13.5 4.5 -21.5 4.5
c-8.66699 0 -16.334 -1.5 -23.001 -4.5s-11.334 -13.167 -14.001 -30.5c-2.66699 -18 -1.16699 -28.667 4.5 -32s12.834 -5 21.501 -5zM425 695c-9.33301 0 -17.668 0.833008 -25.001 2.5s-13.5 4.83398 -18.5 9.50098s-8.5 11.334 -10.5 20.001s-2 20.334 0 35.001
c2 14 5.16699 25.333 9.5 34s9.83301 15.334 16.5 20.001s13.834 7.83398 21.501 9.50098s16.167 2.5 25.5 2.5c8.66699 0 16.834 -0.833008 24.501 -2.5s14.167 -4.83398 19.5 -9.50098s9 -11.334 11 -20.001s2 -20 0 -34c-2 -14.667 -5.33301 -26.334 -10 -35.001
s-10.334 -15.334 -17.001 -20.001s-14 -7.83398 -22 -9.50098s-16.333 -2.5 -25 -2.5z" />
    <glyph glyph-name="AE" unicode="&#xc6;" horiz-adv-x="819" 
d="M392 0l25 181h-160l-95 -181h-134l347 642h527l-25 -107h-278l-22 -154h203l-14 -97h-203l-24 -176h288l-25 -108h-410zM466 529l-1 3h-6l-51 -91l-97 -169h119z" />
    <glyph glyph-name="Ccedilla" unicode="&#xc7;" horiz-adv-x="650" 
d="M618 31c-30 -13.333 -66 -24.0029 -108 -32.0029s-86.333 -12 -133 -12c-49.333 0 -93.166 4.16699 -131.499 12.5s-70 24.5 -95 48.5s-42 57.833 -51 101.5s-8.5 100.834 1.5 171.501s25.667 127.834 47 171.501s47.666 77.5 78.999 101.5s67.5 40.167 108.5 48.5
s86.167 12.5 135.5 12.5c94 0 167 -13.333 219 -40l-48 -103c-18 6 -43 13.5 -75 22.5s-68.333 13.5 -109 13.5c-27.333 0 -53 -2 -77 -6s-45.5 -13.667 -64.5 -29s-35.5 -38.166 -49.5 -68.499s-24.667 -71.5 -32 -123.5c-7.33301 -52.667 -8.33301 -94.167 -3 -124.5
s15.5 -53 30.5 -68s33.833 -24.5 56.5 -28.5s47.667 -6 75 -6c20 0 40.167 1.5 60.5 4.5s39.5 6.5 57.5 10.5s34.5 8.33301 49.5 13l37.5 12zM215 -156.003l3.99902 0.000976562c4.66699 -0.666992 10 -1 16 -1h14c30.667 0 54.334 4.66699 71.001 14
c12.667 9.33301 20 20 22 32c0.666992 5.33301 0.666992 10.166 0 14.499s-3.16699 8.33301 -7.5 12s-10.833 6.66699 -19.5 9s-21 3.83301 -37 4.5l26 61h41l-22 -48c28.667 -3.33301 49.334 -10.5 62.001 -21.5s18 -23.5 16 -37.5
c-2.66699 -19.333 -15.834 -36.833 -39.501 -52.5s-56.5 -23.5 -98.5 -23.5c-22 0 -41.333 1 -58 3z" />
    <glyph glyph-name="Egrave" unicode="&#xc8;" horiz-adv-x="566" 
d="M79 0l90 642h480l-25 -107h-338l-21 -149h263l-15 -107h-263l-24 -171h348l-25 -108h-470zM406 707l-79 107h86l38 -107h-45z" />
    <glyph glyph-name="Eacute" unicode="&#xc9;" horiz-adv-x="566" 
d="M79 0l90 642h480l-25 -107h-338l-21 -149h263l-15 -107h-263l-24 -171h348l-25 -108h-470zM365 689l68 107h85l-52 -53.5l-51 -53.5h-50z" />
    <glyph glyph-name="Ecircumflex" unicode="&#xca;" horiz-adv-x="566" 
d="M79 0l90 642h480l-25 -107h-338l-21 -149h263l-15 -107h-263l-24 -171h348l-25 -108h-470zM442 707l-47 84l-71 -84h-72l51 54l52 53h80l76 -107h-69z" />
    <glyph glyph-name="Edieresis" unicode="&#xcb;" horiz-adv-x="566" 
d="M79 0l90 642h480l-25 -107h-338l-21 -149h263l-15 -107h-263l-24 -171h348l-25 -108h-470zM290 723l17 123h110l-17 -123h-110zM468 723l17 123h110l-17 -123h-110z" />
    <glyph glyph-name="Igrave" unicode="&#xcc;" horiz-adv-x="241" 
d="M50 0l90 642h132l-90 -642h-132zM245 707l-79 107h86l38 -107h-45z" />
    <glyph glyph-name="Iacute" unicode="&#xcd;" horiz-adv-x="290" 
d="M79 0l90 642h132l-90 -642h-132zM207 689l68 107h85l-52 -53.5l-51 -53.5h-50z" />
    <glyph glyph-name="Icircumflex" unicode="&#xce;" horiz-adv-x="290" 
d="M79 0l90 642h132l-90 -642h-132zM306 689l-47 84l-71 -84h-72l52 54l51 53h80l76 -107h-69z" />
    <glyph glyph-name="Idieresis" unicode="&#xcf;" horiz-adv-x="241" 
d="M50 0l90 642h132l-90 -642h-132zM82 741l17 123h110l-17 -123h-110zM260 741l17 123h110l-17 -123h-110z" />
    <glyph glyph-name="Eth" unicode="&#xd0;" horiz-adv-x="689" 
d="M79 0l37.0029 268h-77l15 103h77l38 271h230c48.667 0 92.5 -3.16699 131.5 -9.5s71 -20.5 96 -42.5s42.167 -54 51.5 -96s9 -98.333 -1 -169c-10 -71.333 -24.833 -128.5 -44.5 -171.5s-44.334 -75.833 -74.001 -98.5s-64.334 -37.5 -104.001 -44.5
s-84.834 -10.5 -135.501 -10.5h-240zM324.003 108c35.333 0 65.334 2.16797 90.001 6.50098s45.5 14 62.5 29s30.667 37 41 66s18.833 67.833 25.5 116.5c7.33301 50.667 8.16602 90.167 2.49902 118.5s-16 49.166 -31 62.499s-34 21.333 -57 24s-48.167 4 -75.5 4h-96
l-23 -164h95l-15 -103h-95l-22 -160h98z" />
    <glyph glyph-name="Ntilde" unicode="&#xd1;" horiz-adv-x="685" 
d="M466 0l-200 424l-59 -424h-128l90 642h140l199 -422l60 422h127l-90 -642h-139zM604 803c-6 -26.667 -17.5 -47.335 -34.5 -62.002s-36.833 -22 -59.5 -22c-9.33301 0 -19.833 2.16699 -31.5 6.5s-25.167 10.5 -40.5 18.5c-20 12 -36 18 -48 18
c-8 0 -14.833 -1.16699 -20.5 -3.5s-11.5 -6.16602 -17.5 -11.499c-3.33301 -3.33301 -6.5 -7.33301 -9.5 -12s-5.16699 -10.667 -6.5 -18h-43c2.66699 13.333 6.5 24.5 11.5 33.5s12.167 17.5 21.5 25.5c19.333 17.333 41.666 26 66.999 26c9.33301 0 20 -2.16699 32 -6.5
s25.667 -10.166 41 -17.499c18 -10 33.667 -15 47 -15c12.667 0 22.834 2.66699 30.501 8s14.167 16 19.5 32h41z" />
    <glyph glyph-name="Ograve" unicode="&#xd2;" 
d="M456 549c-25.333 0 -49.499 -1.16699 -72.499 -3.5s-44.167 -10.666 -63.5 -24.999s-36.166 -36.833 -50.499 -67.5s-25.5 -74.334 -33.5 -131.001s-9.16699 -100.334 -3.5 -131.001s16.167 -53.167 31.5 -67.5s34.166 -22.666 56.499 -24.999s46.166 -3.5 71.499 -3.5
c24.667 0 48.5 1.16699 71.5 3.5s44.167 10.666 63.5 24.999s36.333 36.833 51 67.5s26 74.334 34 131.001s9 100.334 3 131.001s-16.833 53.167 -32.5 67.5s-34.667 22.666 -57 24.999s-45.5 3.5 -69.5 3.5zM102.001 322c10 72 26.501 129.833 49.501 173.5
s50.667 77.334 83 101.001s68.666 39.334 108.999 47.001s82.833 11.5 127.5 11.5s86 -3.83301 124 -11.5s69.833 -23.334 95.5 -47.001s43.834 -57.334 54.501 -101.001s11 -101.5 1 -173.5s-26.5 -129.833 -49.5 -173.5s-50.833 -77.334 -83.5 -101.001
s-69 -39.334 -109 -47.001s-82.333 -11.5 -127 -11.5s-86 3.83301 -124 11.5s-69.833 23.334 -95.5 47.001s-43.834 57.334 -54.501 101.001s-11 101.5 -1 173.5zM502.002 707l-79 107h86l38 -107h-45z" />
    <glyph glyph-name="Oacute" unicode="&#xd3;" 
d="M456 549c-25.333 0 -49.499 -1.16699 -72.499 -3.5s-44.167 -10.666 -63.5 -24.999s-36.166 -36.833 -50.499 -67.5s-25.5 -74.334 -33.5 -131.001s-9.16699 -100.334 -3.5 -131.001s16.167 -53.167 31.5 -67.5s34.166 -22.666 56.499 -24.999s46.166 -3.5 71.499 -3.5
c24.667 0 48.5 1.16699 71.5 3.5s44.167 10.666 63.5 24.999s36.333 36.833 51 67.5s26 74.334 34 131.001s9 100.334 3 131.001s-16.833 53.167 -32.5 67.5s-34.667 22.666 -57 24.999s-45.5 3.5 -69.5 3.5zM102.001 322c10 72 26.501 129.833 49.501 173.5
s50.667 77.334 83 101.001s68.666 39.334 108.999 47.001s82.833 11.5 127.5 11.5s86 -3.83301 124 -11.5s69.833 -23.334 95.5 -47.001s43.834 -57.334 54.501 -101.001s11 -101.5 1 -173.5s-26.5 -129.833 -49.5 -173.5s-50.833 -77.334 -83.5 -101.001
s-69 -39.334 -109 -47.001s-82.333 -11.5 -127 -11.5s-86 3.83301 -124 11.5s-69.833 23.334 -95.5 47.001s-43.834 57.334 -54.501 101.001s-11 101.5 -1 173.5zM405.002 689l68 107h85l-52 -53.5l-51 -53.5h-50z" />
    <glyph glyph-name="Ocircumflex" unicode="&#xd4;" 
d="M456 549c-25.333 0 -49.499 -1.16699 -72.499 -3.5s-44.167 -10.666 -63.5 -24.999s-36.166 -36.833 -50.499 -67.5s-25.5 -74.334 -33.5 -131.001s-9.16699 -100.334 -3.5 -131.001s16.167 -53.167 31.5 -67.5s34.166 -22.666 56.499 -24.999s46.166 -3.5 71.499 -3.5
c24.667 0 48.5 1.16699 71.5 3.5s44.167 10.666 63.5 24.999s36.333 36.833 51 67.5s26 74.334 34 131.001s9 100.334 3 131.001s-16.833 53.167 -32.5 67.5s-34.667 22.666 -57 24.999s-45.5 3.5 -69.5 3.5zM102.001 322c10 72 26.501 129.833 49.501 173.5
s50.667 77.334 83 101.001s68.666 39.334 108.999 47.001s82.833 11.5 127.5 11.5s86 -3.83301 124 -11.5s69.833 -23.334 95.5 -47.001s43.834 -57.334 54.501 -101.001s11 -101.5 1 -173.5s-26.5 -129.833 -49.5 -173.5s-50.833 -77.334 -83.5 -101.001
s-69 -39.334 -109 -47.001s-82.333 -11.5 -127 -11.5s-86 3.83301 -124 11.5s-69.833 23.334 -95.5 47.001s-43.834 57.334 -54.501 101.001s-11 101.5 -1 173.5zM534.002 689l-47 84l-71 -84h-72l52 54l51 53h80l76 -107h-69z" />
    <glyph glyph-name="Otilde" unicode="&#xd5;" 
d="M456 549c-25.333 0 -49.499 -1.16699 -72.499 -3.5s-44.167 -10.666 -63.5 -24.999s-36.166 -36.833 -50.499 -67.5s-25.5 -74.334 -33.5 -131.001s-9.16699 -100.334 -3.5 -131.001s16.167 -53.167 31.5 -67.5s34.166 -22.666 56.499 -24.999s46.166 -3.5 71.499 -3.5
c24.667 0 48.5 1.16699 71.5 3.5s44.167 10.666 63.5 24.999s36.333 36.833 51 67.5s26 74.334 34 131.001s9 100.334 3 131.001s-16.833 53.167 -32.5 67.5s-34.667 22.666 -57 24.999s-45.5 3.5 -69.5 3.5zM102.001 322c10 72 26.501 129.833 49.501 173.5
s50.667 77.334 83 101.001s68.666 39.334 108.999 47.001s82.833 11.5 127.5 11.5s86 -3.83301 124 -11.5s69.833 -23.334 95.5 -47.001s43.834 -57.334 54.501 -101.001s11 -101.5 1 -173.5s-26.5 -129.833 -49.5 -173.5s-50.833 -77.334 -83.5 -101.001
s-69 -39.334 -109 -47.001s-82.333 -11.5 -127 -11.5s-86 3.83301 -124 11.5s-69.833 23.334 -95.5 47.001s-43.834 57.334 -54.501 101.001s-11 101.5 -1 173.5zM640.002 803c-6 -26.667 -17.5 -47.335 -34.5 -62.002s-36.833 -22 -59.5 -22
c-9.33301 0 -19.833 2.16699 -31.5 6.5s-25.167 10.5 -40.5 18.5c-20 12 -36 18 -48 18c-8 0 -14.833 -1.16699 -20.5 -3.5s-11.5 -6.16602 -17.5 -11.499c-3.33301 -3.33301 -6.5 -7.33301 -9.5 -12s-5.16699 -10.667 -6.5 -18h-43c2.66699 13.333 6.5 24.5 11.5 33.5
s12.167 17.5 21.5 25.5c19.333 17.333 41.666 26 66.999 26c9.33301 0 20 -2.16699 32 -6.5s25.667 -10.166 41 -17.499c18 -10 33.667 -15 47 -15c12.667 0 22.834 2.66699 30.501 8s14.167 16 19.5 32h41z" />
    <glyph glyph-name="Odieresis" unicode="&#xd6;" 
d="M456 549c-25.333 0 -49.499 -1.16699 -72.499 -3.5s-44.167 -10.666 -63.5 -24.999s-36.166 -36.833 -50.499 -67.5s-25.5 -74.334 -33.5 -131.001s-9.16699 -100.334 -3.5 -131.001s16.167 -53.167 31.5 -67.5s34.166 -22.666 56.499 -24.999s46.166 -3.5 71.499 -3.5
c24.667 0 48.5 1.16699 71.5 3.5s44.167 10.666 63.5 24.999s36.333 36.833 51 67.5s26 74.334 34 131.001s9 100.334 3 131.001s-16.833 53.167 -32.5 67.5s-34.667 22.666 -57 24.999s-45.5 3.5 -69.5 3.5zM102.001 322c10 72 26.501 129.833 49.501 173.5
s50.667 77.334 83 101.001s68.666 39.334 108.999 47.001s82.833 11.5 127.5 11.5s86 -3.83301 124 -11.5s69.833 -23.334 95.5 -47.001s43.834 -57.334 54.501 -101.001s11 -101.5 1 -173.5s-26.5 -129.833 -49.5 -173.5s-50.833 -77.334 -83.5 -101.001
s-69 -39.334 -109 -47.001s-82.333 -11.5 -127 -11.5s-86 3.83301 -124 11.5s-69.833 23.334 -95.5 47.001s-43.834 57.334 -54.501 101.001s-11 101.5 -1 173.5zM335.002 723l17 123h110l-17 -123h-110zM513.002 723l17 123h110l-17 -123h-110z" />
    <glyph glyph-name="multiply" unicode="&#xd7;" horiz-adv-x="443" 
d="M257 278l-153 -133l-34 39l152 134l-110 129l49 43l110 -129l155 135l34 -39l-154 -135l112 -131l-49 -43z" />
    <glyph glyph-name="Oslash" unicode="&#xd8;" 
d="M730 540c11.333 -25.333 18.667 -55.668 22 -91.001s1.33301 -77.666 -6 -126.999c-10 -72 -26.5 -129.833 -49.5 -173.5s-50.833 -77.334 -83.5 -101.001s-69 -39.334 -109 -47.001s-82.333 -11.5 -127 -11.5c-46 0 -88.667 4.16699 -128 12.5
s-71.666 25.5 -96.999 51.5l-62 -53l-59 37l85 71c-10.667 24.667 -17.5 54.5 -20.5 89.5s-0.833008 76.5 6.5 124.5c10 72 26.5 129.833 49.5 173.5s50.667 77.334 83 101.001s68.666 39.334 108.999 47.001s82.833 11.5 127.5 11.5c46 0 88.167 -4 126.5 -12
s70.5 -24.667 96.5 -50l58 49l57 -36zM612.001 321.998c6.66699 49.333 7.99902 89.6689 3.99902 121.002l-364 -306c7.33301 -10.667 16 -18.834 26 -24.501s21 -9.83398 33 -12.501s24.833 -4.16699 38.5 -4.5s27.834 -0.5 42.501 -0.5c24.667 0 48.5 1.16699 71.5 3.5
s44.167 10.666 63.5 24.999s36.333 36.833 51 67.5s26 74.334 34 131.001zM456 549.001c-25.333 0 -49.5029 -1.16699 -72.5029 -3.5s-44.167 -10.666 -63.5 -24.999s-36.166 -36.833 -50.499 -67.5s-25.5 -74.334 -33.5 -131.001c-6.66699 -48.667 -8.66699 -88 -6 -118
l363 304c-15.333 20 -35.166 31.833 -59.499 35.5s-50.166 5.5 -77.499 5.5z" />
    <glyph glyph-name="Ugrave" unicode="&#xd9;" horiz-adv-x="686" 
d="M573 642h130.999l-53 -372c-7.33301 -50 -16.666 -92.833 -27.999 -128.5s-28.333 -64.667 -51 -87s-52.334 -38.833 -89.001 -49.5s-83.667 -16 -141 -16s-103.166 5.33301 -137.499 16s-59.833 27.167 -76.5 49.5s-26 51.333 -28 87s0.666992 78.5 8 128.5l53 372h131
l-52 -371c-4.66699 -31.333 -7 -58 -7 -80s4 -40 12 -54s20.833 -24.167 38.5 -30.5s42.167 -9.5 73.5 -9.5c30.667 0 55.667 3.16699 75 9.5s34.833 16.5 46.5 30.5s20.5 32 26.5 54s11.333 48.667 16 80zM465.999 707l-79 107h86l38 -107h-45z" />
    <glyph glyph-name="Uacute" unicode="&#xda;" horiz-adv-x="686" 
d="M573 642h130.999l-53 -372c-7.33301 -50 -16.666 -92.833 -27.999 -128.5s-28.333 -64.667 -51 -87s-52.334 -38.833 -89.001 -49.5s-83.667 -16 -141 -16s-103.166 5.33301 -137.499 16s-59.833 27.167 -76.5 49.5s-26 51.333 -28 87s0.666992 78.5 8 128.5l53 372h131
l-52 -371c-4.66699 -31.333 -7 -58 -7 -80s4 -40 12 -54s20.833 -24.167 38.5 -30.5s42.167 -9.5 73.5 -9.5c30.667 0 55.667 3.16699 75 9.5s34.833 16.5 46.5 30.5s20.5 32 26.5 54s11.333 48.667 16 80zM368.999 689l68 107h85l-52 -53.5l-51 -53.5h-50z" />
    <glyph glyph-name="Ucircumflex" unicode="&#xdb;" horiz-adv-x="686" 
d="M573 642h130.999l-53 -372c-7.33301 -50 -16.666 -92.833 -27.999 -128.5s-28.333 -64.667 -51 -87s-52.334 -38.833 -89.001 -49.5s-83.667 -16 -141 -16s-103.166 5.33301 -137.499 16s-59.833 27.167 -76.5 49.5s-26 51.333 -28 87s0.666992 78.5 8 128.5l53 372h131
l-52 -371c-4.66699 -31.333 -7 -58 -7 -80s4 -40 12 -54s20.833 -24.167 38.5 -30.5s42.167 -9.5 73.5 -9.5c30.667 0 55.667 3.16699 75 9.5s34.833 16.5 46.5 30.5s20.5 32 26.5 54s11.333 48.667 16 80zM501.999 707l-47 84l-71 -84h-72l51 54l52 53h80l76 -107h-69z" />
    <glyph glyph-name="Udieresis" unicode="&#xdc;" horiz-adv-x="686" 
d="M573 642h130.999l-53 -372c-7.33301 -50 -16.666 -92.833 -27.999 -128.5s-28.333 -64.667 -51 -87s-52.334 -38.833 -89.001 -49.5s-83.667 -16 -141 -16s-103.166 5.33301 -137.499 16s-59.833 27.167 -76.5 49.5s-26 51.333 -28 87s0.666992 78.5 8 128.5l53 372h131
l-52 -371c-4.66699 -31.333 -7 -58 -7 -80s4 -40 12 -54s20.833 -24.167 38.5 -30.5s42.167 -9.5 73.5 -9.5c30.667 0 55.667 3.16699 75 9.5s34.833 16.5 46.5 30.5s20.5 32 26.5 54s11.333 48.667 16 80zM298.999 723l17 123h110l-17 -123h-110zM476.999 723l17 123h110
l-17 -123h-110z" />
    <glyph glyph-name="Yacute" unicode="&#xdd;" horiz-adv-x="618" 
d="M239 0l38.002 273.999l-86.5 184l-87.5 184h146c15.333 -32 30.166 -64.5 44.499 -97.5s29.166 -65.5 44.499 -97.5c2.66699 -19.333 5 -40.666 7 -63.999s3.66699 -44.333 5 -63l24.5 60.5l26.5 66.5l75.5 97.5c25 33 51.833 65.5 80.5 97.5h139l-287 -368l-38 -274
h-132zM335.002 688.999l68 107h85l-52 -53.5l-51 -53.5h-50z" />
    <glyph glyph-name="Thorn" unicode="&#xde;" horiz-adv-x="527" 
d="M63 -57l106.999 755.997h132l-8 -58c6 0.666992 12 1 18 1h19c40 0 75.667 -3.5 107 -10.5s56.833 -21.667 76.5 -44s32.834 -54.666 39.501 -96.999s5 -98.833 -5 -169.5s-24.167 -127.167 -42.5 -169.5s-40.5 -74.666 -66.5 -96.999s-55.667 -37 -89 -44
s-70 -10.5 -110 -10.5c-6 0 -12.333 -0.166992 -19 -0.5s-12.667 -0.166016 -18 0.500977l-9 -57h-132zM218.999 106.997c5.33301 -0.666992 10.834 -1.00098 16.501 -1.00098h17.5c18 0 35.333 1.5 52 4.5s31.834 11.5 45.501 25.5s26 35.5 37 64.5
s20.167 69.167 27.5 120.5c6.66699 50.667 8.66699 90.334 6 119.001s-8.83398 50 -18.501 64s-22.334 22.667 -38.001 26s-32.5 5 -50.5 5h-18.5c-5.66699 0 -11.167 -0.333008 -16.5 -1z" />
    <glyph glyph-name="germandbls" unicode="&#xdf;" horiz-adv-x="675" 
d="M266 0l14.9893 106.999h94c20.667 0 38.334 0.333008 53.001 1s26.834 2.66699 36.501 6s17.167 9 22.5 17s9 19.667 11 35c4 27.333 5.16699 48.333 3.5 63s-6.16699 25.334 -13.5 32.001s-17.5 10.5 -30.5 11.5s-28.833 1.5 -47.5 1.5l15 107
c18 0 33.333 0.833008 46 2.5s23.334 5.5 32.001 11.5s15.334 15.333 20.001 28s8.66699 30.334 12 53.001c2 14 1.66699 24.833 -1 32.5s-8.16699 13.5 -16.5 17.5s-19.666 6.5 -33.999 7.5s-31.833 1.5 -52.5 1.5c-16 0 -32.667 -1.16699 -50 -3.5
s-34.166 -10.5 -50.499 -24.5s-31.166 -36.333 -44.499 -67s-24 -74.334 -32 -131.001l-43 -309h-132l43 309c9.33301 66.667 24.166 121.334 44.499 164.001s44.833 76.334 73.5 101.001s60.834 41.834 96.501 51.501s73.834 15.167 114.501 16.5
c46 0.666992 84.167 -1 114.5 -5s54 -12.167 71 -24.5s27.833 -29.333 32.5 -51s4.66699 -49.167 0 -82.5c-3.33301 -25.333 -8 -46.333 -14 -63s-13.167 -30.834 -21.5 -42.501s-18.166 -21.5 -29.499 -29.5s-24.333 -15.333 -39 -22
c12.667 -6.66699 23.834 -13.834 33.501 -21.501s17.5 -17.334 23.5 -29.001s9.83301 -26 11.5 -43s0.833984 -37.833 -2.49902 -62.5c-4.66699 -34 -12.667 -61.833 -24 -83.5s-27.5 -38.5 -48.5 -50.5s-47.833 -20.333 -80.5 -25s-72.667 -7 -120 -7h-92z" />
    <glyph glyph-name="agrave" unicode="&#xe0;" horiz-adv-x="703" 
d="M647 -1c-42 4.66699 -72.166 14.3291 -90.499 28.9961s-28.833 38.334 -31.5 71.001c-25.333 -35.333 -56.5 -62.333 -93.5 -81s-79.5 -28 -127.5 -28c-38 0 -72.5 3 -103.5 9s-56.667 16.5 -77 31.5s-35 35.333 -44 61s-10.833 57.834 -5.5 96.501
c6 44 17.333 80.333 34 109s37.5 51.5 62.5 68.5s53.833 28.833 86.5 35.5s68 10 106 10h158c2.66699 32 2.5 57.167 -0.5 75.5s-9.5 32 -19.5 41s-24 14.667 -42 17s-40.667 3.5 -68 3.5c-20 0 -40 -1.33301 -60 -4s-38.667 -6 -56 -10s-33.333 -8.16699 -48 -12.5
s-27 -8.16602 -37 -11.499l-18 103c29.333 13.333 64.333 23.666 105 30.999s84.334 11 131.001 11c54 0 98.5 -4 133.5 -12s61.833 -23.667 80.5 -47s29.5 -56.666 32.5 -99.999s-0.5 -100.333 -10.5 -171l-2 -16l-16 -112c-4.66699 -32.667 -3.33398 -55.667 3.99902 -69
s21.666 -21.666 42.999 -24.999zM507.001 302.995h-159.001c-19.333 0 -37 -1.16699 -53 -3.5s-30.333 -7.5 -43 -15.5s-23.334 -19.5 -32.001 -34.5s-14.667 -35.5 -18 -61.5c-2.66699 -20 -1.66699 -36 3 -48s12.334 -21 23.001 -27s23.834 -10 39.501 -12
s33.167 -3 52.5 -3c34 0 62 4.33301 84 13s39.833 21.667 53.5 39s24.167 38.5 31.5 63.5s13.333 54.167 18 87.5v2zM475 706.995l-79 107h86l38 -107h-45z" />
    <glyph glyph-name="aacute" unicode="&#xe1;" horiz-adv-x="657" 
d="M491 642l137 -642h-144l-31 181h-201l-80 -181h-144l317 642h146zM294 274h144l-28 167l-3 101h-6l-33 -101zM387 689l68 107h85l-52 -53.5l-51 -53.5h-50z" />
    <glyph glyph-name="acircumflex" unicode="&#xe2;" horiz-adv-x="657" 
d="M491 642l137 -642h-144l-31 181h-201l-80 -181h-144l317 642h146zM294 274h144l-28 167l-3 101h-6l-33 -101zM484 689l-47 84l-71 -84h-72l52 54l51 53h80l76 -107h-69z" />
    <glyph glyph-name="atilde" unicode="&#xe3;" horiz-adv-x="703" 
d="M647 -1c-42 4.66699 -72.166 14.3291 -90.499 28.9961s-28.833 38.334 -31.5 71.001c-25.333 -35.333 -56.5 -62.333 -93.5 -81s-79.5 -28 -127.5 -28c-38 0 -72.5 3 -103.5 9s-56.667 16.5 -77 31.5s-35 35.333 -44 61s-10.833 57.834 -5.5 96.501
c6 44 17.333 80.333 34 109s37.5 51.5 62.5 68.5s53.833 28.833 86.5 35.5s68 10 106 10h158c2.66699 32 2.5 57.167 -0.5 75.5s-9.5 32 -19.5 41s-24 14.667 -42 17s-40.667 3.5 -68 3.5c-20 0 -40 -1.33301 -60 -4s-38.667 -6 -56 -10s-33.333 -8.16699 -48 -12.5
s-27 -8.16602 -37 -11.499l-18 103c29.333 13.333 64.333 23.666 105 30.999s84.334 11 131.001 11c54 0 98.5 -4 133.5 -12s61.833 -23.667 80.5 -47s29.5 -56.666 32.5 -99.999s-0.5 -100.333 -10.5 -171l-2 -16l-16 -112c-4.66699 -32.667 -3.33398 -55.667 3.99902 -69
s21.666 -21.666 42.999 -24.999zM507.001 302.995h-159.001c-19.333 0 -37 -1.16699 -53 -3.5s-30.333 -7.5 -43 -15.5s-23.334 -19.5 -32.001 -34.5s-14.667 -35.5 -18 -61.5c-2.66699 -20 -1.66699 -36 3 -48s12.334 -21 23.001 -27s23.834 -10 39.501 -12
s33.167 -3 52.5 -3c34 0 62 4.33301 84 13s39.833 21.667 53.5 39s24.167 38.5 31.5 63.5s13.333 54.167 18 87.5v2zM613 802.995c-6 -26.667 -17.5 -47.335 -34.5 -62.002s-36.833 -22 -59.5 -22c-9.33301 0 -19.833 2.16699 -31.5 6.5s-25.167 10.5 -40.5 18.5
c-20 12 -36 18 -48 18c-8 0 -14.833 -1.16699 -20.5 -3.5s-11.5 -6.16602 -17.5 -11.499c-3.33301 -3.33301 -6.5 -7.33301 -9.5 -12s-5.16699 -10.667 -6.5 -18h-43c2.66699 13.333 6.5 24.5 11.5 33.5s12.167 17.5 21.5 25.5c19.333 17.333 41.666 26 66.999 26
c9.33301 0 20 -2.16699 32 -6.5s25.667 -10.166 41 -17.499c18 -10 33.667 -15 47 -15c12.667 0 22.834 2.66699 30.501 8s14.167 16 19.5 32h41z" />
    <glyph glyph-name="adieresis" unicode="&#xe4;" horiz-adv-x="657" 
d="M491 642l137 -642h-144l-31 181h-201l-80 -181h-144l317 642h146zM294 274h144l-28 167l-3 101h-6l-33 -101zM284 723l17 123h110l-17 -123h-110zM462 723l17 123h110l-17 -123h-110z" />
    <glyph glyph-name="aring" unicode="&#xe5;" horiz-adv-x="703" 
d="M647 -1c-42 4.66699 -72.166 14.3291 -90.499 28.9961s-28.833 38.334 -31.5 71.001c-25.333 -35.333 -56.5 -62.333 -93.5 -81s-79.5 -28 -127.5 -28c-38 0 -72.5 3 -103.5 9s-56.667 16.5 -77 31.5s-35 35.333 -44 61s-10.833 57.834 -5.5 96.501
c6 44 17.333 80.333 34 109s37.5 51.5 62.5 68.5s53.833 28.833 86.5 35.5s68 10 106 10h158c2.66699 32 2.5 57.167 -0.5 75.5s-9.5 32 -19.5 41s-24 14.667 -42 17s-40.667 3.5 -68 3.5c-20 0 -40 -1.33301 -60 -4s-38.667 -6 -56 -10s-33.333 -8.16699 -48 -12.5
s-27 -8.16602 -37 -11.499l-18 103c29.333 13.333 64.333 23.666 105 30.999s84.334 11 131.001 11c54 0 98.5 -4 133.5 -12s61.833 -23.667 80.5 -47s29.5 -56.666 32.5 -99.999s-0.5 -100.333 -10.5 -171l-2 -16l-16 -112c-4.66699 -32.667 -3.33398 -55.667 3.99902 -69
s21.666 -21.666 42.999 -24.999zM507.001 302.995h-159.001c-19.333 0 -37 -1.16699 -53 -3.5s-30.333 -7.5 -43 -15.5s-23.334 -19.5 -32.001 -34.5s-14.667 -35.5 -18 -61.5c-2.66699 -20 -1.66699 -36 3 -48s12.334 -21 23.001 -27s23.834 -10 39.501 -12
s33.167 -3 52.5 -3c34 0 62 4.33301 84 13s39.833 21.667 53.5 39s24.167 38.5 31.5 63.5s13.333 54.167 18 87.5v2zM452 724.995c8.66699 0 16.5 1.66699 23.5 5s11.833 14 14.5 32c2.66699 17.333 0.833984 27.5 -5.49902 30.5s-13.5 4.5 -21.5 4.5
c-8.66699 0 -16.334 -1.5 -23.001 -4.5s-11.334 -13.167 -14.001 -30.5c-2.66699 -18 -1.16699 -28.667 4.5 -32s12.834 -5 21.501 -5zM448 694.995c-9.33301 0 -17.668 0.833008 -25.001 2.5s-13.5 4.83398 -18.5 9.50098s-8.5 11.334 -10.5 20.001s-2 20.334 0 35.001
c2 14 5.16699 25.333 9.5 34s9.83301 15.334 16.5 20.001s13.834 7.83398 21.501 9.50098s16.167 2.5 25.5 2.5c8.66699 0 16.834 -0.833008 24.501 -2.5s14.167 -4.83398 19.5 -9.50098s9 -11.334 11 -20.001s2 -20 0 -34c-2 -14.667 -5.33301 -26.334 -10 -35.001
s-10.334 -15.334 -17.001 -20.001s-14 -7.83398 -22 -9.50098s-16.333 -2.5 -25 -2.5z" />
    <glyph glyph-name="ae" unicode="&#xe6;" horiz-adv-x="1193" 
d="M1102 38c-14.667 -6.66699 -32.5049 -13.001 -53.5049 -19.001s-43.333 -11.333 -67 -16s-48 -8.5 -73 -11.5s-49.167 -4.5 -72.5 -4.5c-35.333 0 -67.5 1.83301 -96.5 5.5s-54.833 10.5 -77.5 20.5s-41.667 23.833 -57 41.5s-26.666 40.167 -33.999 67.5
c-2.66699 -3.33301 -5.16699 -6.83301 -7.5 -10.5s-5.16602 -7.83398 -8.49902 -12.501c-28 -35.333 -62.833 -62.333 -104.5 -81s-90.5 -28 -146.5 -28c-38 0 -72.5 3 -103.5 9s-56.667 16.5 -77 31.5s-35 35.333 -44 61s-10.833 57.834 -5.5 96.501
c6 42.667 17.333 78 34 106s37.5 50.333 62.5 67s53.833 28.334 86.5 35.001s68 10 106 10h188c2.66699 33.333 1.83398 59.5 -2.49902 78.5s-12.666 33.167 -24.999 42.5s-29.333 15.166 -51 17.499s-48.834 3.5 -81.501 3.5c-20 0 -40 -1.33301 -60 -4s-38.667 -6 -56 -10
s-33.333 -8.16699 -48 -12.5s-27 -8.16602 -37 -11.499l-18 103c29.333 13.333 64.333 23.666 105 30.999s84.334 11 131.001 11c35.333 0 66.5 -1.5 93.5 -4.5s50.333 -8.66699 70 -17s35.667 -19.833 48 -34.5s21.5 -33.667 27.5 -57c16 22.667 34 41.334 54 56.001
s41.5 26.167 64.5 34.5s47.5 14.166 73.5 17.499s53.333 5 82 5c48 0 89.833 -4.66699 125.5 -14s64.5 -26.166 86.5 -50.499s36.667 -57.5 44 -99.5s6.33301 -96 -3 -162l-5 -36h-499c-5.33301 -42 -5.66602 -76 -0.999023 -102s14.834 -46.167 30.501 -60.5
s37.167 -24 64.5 -29s61.333 -7.5 102 -7.5c20 0 40.833 1.83301 62.5 5.5s42.167 8 61.5 13s37.166 10.167 53.499 15.5l39.5 13zM535.995 297.999h-189.004c-19.333 0 -37 -1.16699 -53 -3.5s-30.333 -7.33301 -43 -15s-23.167 -18.667 -31.5 -33
s-14.166 -33.833 -17.499 -58.5c-2.66699 -20 -1.66699 -36 3 -48s12.334 -21 23.001 -27s23.834 -10 39.501 -12s33.167 -3 52.5 -3c38.667 0 70.834 4.33301 96.501 13s46.5 21.5 62.5 38.5s28.333 38 37 63s15.667 53.833 21 86.5zM1045.99 390.999
c2.66699 33.333 1.83105 60.3301 -2.50195 80.9971s-12.166 36.667 -23.499 48s-26.5 19 -45.5 23s-41.833 6 -68.5 6c-27.333 0 -52.666 -1.16699 -75.999 -3.5s-44.5 -8.66602 -63.5 -18.999s-35.5 -26.166 -49.5 -47.499s-25 -50.666 -33 -87.999h362z" />
    <glyph glyph-name="ccedilla" unicode="&#xe7;" horiz-adv-x="650" 
d="M618 31c-30 -13.333 -66 -24.0029 -108 -32.0029s-86.333 -12 -133 -12c-49.333 0 -93.166 4.16699 -131.499 12.5s-70 24.5 -95 48.5s-42 57.833 -51 101.5s-8.5 100.834 1.5 171.501s25.667 127.834 47 171.501s47.666 77.5 78.999 101.5s67.5 40.167 108.5 48.5
s86.167 12.5 135.5 12.5c94 0 167 -13.333 219 -40l-48 -103c-18 6 -43 13.5 -75 22.5s-68.333 13.5 -109 13.5c-27.333 0 -53 -2 -77 -6s-45.5 -13.667 -64.5 -29s-35.5 -38.166 -49.5 -68.499s-24.667 -71.5 -32 -123.5c-7.33301 -52.667 -8.33301 -94.167 -3 -124.5
s15.5 -53 30.5 -68s33.833 -24.5 56.5 -28.5s47.667 -6 75 -6c20 0 40.167 1.5 60.5 4.5s39.5 6.5 57.5 10.5s34.5 8.33301 49.5 13l37.5 12zM215 -156.003l3.99902 0.000976562c4.66699 -0.666992 10 -1 16 -1h14c30.667 0 54.334 4.66699 71.001 14
c12.667 9.33301 20 20 22 32c0.666992 5.33301 0.666992 10.166 0 14.499s-3.16699 8.33301 -7.5 12s-10.833 6.66699 -19.5 9s-21 3.83301 -37 4.5l26 61h41l-22 -48c28.667 -3.33301 49.334 -10.5 62.001 -21.5s18 -23.5 16 -37.5
c-2.66699 -19.333 -15.834 -36.833 -39.501 -52.5s-56.5 -23.5 -98.5 -23.5c-22 0 -41.333 1 -58 3z" />
    <glyph glyph-name="egrave" unicode="&#xe8;" horiz-adv-x="704" 
d="M232 278c-3.33301 -39.333 -2.83105 -71.002 1.50195 -95.002s13.166 -42.5 26.499 -55.5s31.333 -21.833 54 -26.5s51 -7 85 -7c20 0 40.833 1.83301 62.5 5.5s42.167 8 61.5 13s37.166 10.167 53.499 15.5l39.5 13l19 -103c-14.667 -6.66699 -32.5 -13 -53.5 -19
s-43.333 -11.333 -67 -16s-48 -8.5 -73 -11.5s-49.167 -4.5 -72.5 -4.5c-50 0 -93.833 4 -131.5 12s-68.167 23.833 -91.5 47.5s-39 56.667 -47 99s-7.33301 98.166 2 167.499c10 72 25.667 130.333 47 175s47.333 79.334 78 104.001s65.167 41.334 103.5 50.001
s79.833 13 124.5 13c48 0 89.833 -4.66699 125.5 -14s64.5 -26.166 86.5 -50.499s36.667 -57.5 44 -99.5s6.33301 -96 -3 -162l-7 -51h-468zM579.002 385.998c2.66699 34.667 1.83008 62.667 -2.50293 84s-12.166 37.833 -23.499 49.5s-26.5 19.5 -45.5 23.5
s-41.833 6 -68.5 6c-23.333 0 -45 -1.16699 -65 -3.5s-38.167 -8.83301 -54.5 -19.5s-30.666 -27 -42.999 -49s-22.166 -52.333 -29.499 -91h332zM474.998 706.998l-79 107h86l38 -107h-45z" />
    <glyph glyph-name="eacute" unicode="&#xe9;" horiz-adv-x="566" 
d="M79 0l90 642h480l-25 -107h-338l-21 -149h263l-15 -107h-263l-24 -171h348l-25 -108h-470zM365 689l68 107h85l-52 -53.5l-51 -53.5h-50z" />
    <glyph glyph-name="ecircumflex" unicode="&#xea;" horiz-adv-x="704" 
d="M232 278c-3.33301 -39.333 -2.83105 -71.002 1.50195 -95.002s13.166 -42.5 26.499 -55.5s31.333 -21.833 54 -26.5s51 -7 85 -7c20 0 40.833 1.83301 62.5 5.5s42.167 8 61.5 13s37.166 10.167 53.499 15.5l39.5 13l19 -103c-14.667 -6.66699 -32.5 -13 -53.5 -19
s-43.333 -11.333 -67 -16s-48 -8.5 -73 -11.5s-49.167 -4.5 -72.5 -4.5c-50 0 -93.833 4 -131.5 12s-68.167 23.833 -91.5 47.5s-39 56.667 -47 99s-7.33301 98.166 2 167.499c10 72 25.667 130.333 47 175s47.333 79.334 78 104.001s65.167 41.334 103.5 50.001
s79.833 13 124.5 13c48 0 89.833 -4.66699 125.5 -14s64.5 -26.166 86.5 -50.499s36.667 -57.5 44 -99.5s6.33301 -96 -3 -162l-7 -51h-468zM579.002 385.998c2.66699 34.667 1.83008 62.667 -2.50293 84s-12.166 37.833 -23.499 49.5s-26.5 19.5 -45.5 23.5
s-41.833 6 -68.5 6c-23.333 0 -45 -1.16699 -65 -3.5s-38.167 -8.83301 -54.5 -19.5s-30.666 -27 -42.999 -49s-22.166 -52.333 -29.499 -91h332zM510.998 706.998l-47 84l-71 -84h-72l51 54l52 53h80l76 -107h-69z" />
    <glyph glyph-name="edieresis" unicode="&#xeb;" horiz-adv-x="704" 
d="M232 278c-3.33301 -39.333 -2.83105 -71.002 1.50195 -95.002s13.166 -42.5 26.499 -55.5s31.333 -21.833 54 -26.5s51 -7 85 -7c20 0 40.833 1.83301 62.5 5.5s42.167 8 61.5 13s37.166 10.167 53.499 15.5l39.5 13l19 -103c-14.667 -6.66699 -32.5 -13 -53.5 -19
s-43.333 -11.333 -67 -16s-48 -8.5 -73 -11.5s-49.167 -4.5 -72.5 -4.5c-50 0 -93.833 4 -131.5 12s-68.167 23.833 -91.5 47.5s-39 56.667 -47 99s-7.33301 98.166 2 167.499c10 72 25.667 130.333 47 175s47.333 79.334 78 104.001s65.167 41.334 103.5 50.001
s79.833 13 124.5 13c48 0 89.833 -4.66699 125.5 -14s64.5 -26.166 86.5 -50.499s36.667 -57.5 44 -99.5s6.33301 -96 -3 -162l-7 -51h-468zM579.002 385.998c2.66699 34.667 1.83008 62.667 -2.50293 84s-12.166 37.833 -23.499 49.5s-26.5 19.5 -45.5 23.5
s-41.833 6 -68.5 6c-23.333 0 -45 -1.16699 -65 -3.5s-38.167 -8.83301 -54.5 -19.5s-30.666 -27 -42.999 -49s-22.166 -52.333 -29.499 -91h332zM307.998 722.998l17 123h110l-17 -123h-110zM485.998 722.998l17 123h110l-17 -123h-110z" />
    <glyph glyph-name="igrave" unicode="&#xec;" horiz-adv-x="241" 
d="M50 0l90 642h132l-90 -642h-132zM245 707l-79 107h86l38 -107h-45z" />
    <glyph glyph-name="iacute" unicode="&#xed;" horiz-adv-x="290" 
d="M79 0l90 642h132l-90 -642h-132zM207 689l68 107h85l-52 -53.5l-51 -53.5h-50z" />
    <glyph glyph-name="icircumflex" unicode="&#xee;" horiz-adv-x="290" 
d="M79 0l90 642h132l-90 -642h-132zM306 689l-47 84l-71 -84h-72l52 54l51 53h80l76 -107h-69z" />
    <glyph glyph-name="idieresis" unicode="&#xef;" horiz-adv-x="241" 
d="M50 0l90 642h132l-90 -642h-132zM82 741l17 123h110l-17 -123h-110zM260 741l17 123h110l-17 -123h-110z" />
    <glyph glyph-name="eth" unicode="&#xf0;" horiz-adv-x="689" 
d="M79 0l37.0029 268h-77l15 103h77l38 271h230c48.667 0 92.5 -3.16699 131.5 -9.5s71 -20.5 96 -42.5s42.167 -54 51.5 -96s9 -98.333 -1 -169c-10 -71.333 -24.833 -128.5 -44.5 -171.5s-44.334 -75.833 -74.001 -98.5s-64.334 -37.5 -104.001 -44.5
s-84.834 -10.5 -135.501 -10.5h-240zM324.003 108c35.333 0 65.334 2.16797 90.001 6.50098s45.5 14 62.5 29s30.667 37 41 66s18.833 67.833 25.5 116.5c7.33301 50.667 8.16602 90.167 2.49902 118.5s-16 49.166 -31 62.499s-34 21.333 -57 24s-48.167 4 -75.5 4h-96
l-23 -164h95l-15 -103h-95l-22 -160h98z" />
    <glyph glyph-name="ntilde" unicode="&#xf1;" horiz-adv-x="685" 
d="M466 0l-200 424l-59 -424h-128l90 642h140l199 -422l60 422h127l-90 -642h-139zM604 803c-6 -26.667 -17.5 -47.335 -34.5 -62.002s-36.833 -22 -59.5 -22c-9.33301 0 -19.833 2.16699 -31.5 6.5s-25.167 10.5 -40.5 18.5c-20 12 -36 18 -48 18
c-8 0 -14.833 -1.16699 -20.5 -3.5s-11.5 -6.16602 -17.5 -11.499c-3.33301 -3.33301 -6.5 -7.33301 -9.5 -12s-5.16699 -10.667 -6.5 -18h-43c2.66699 13.333 6.5 24.5 11.5 33.5s12.167 17.5 21.5 25.5c19.333 17.333 41.666 26 66.999 26c9.33301 0 20 -2.16699 32 -6.5
s25.667 -10.166 41 -17.499c18 -10 33.667 -15 47 -15c12.667 0 22.834 2.66699 30.501 8s14.167 16 19.5 32h41z" />
    <glyph glyph-name="ograve" unicode="&#xf2;" 
d="M456 549c-25.333 0 -49.499 -1.16699 -72.499 -3.5s-44.167 -10.666 -63.5 -24.999s-36.166 -36.833 -50.499 -67.5s-25.5 -74.334 -33.5 -131.001s-9.16699 -100.334 -3.5 -131.001s16.167 -53.167 31.5 -67.5s34.166 -22.666 56.499 -24.999s46.166 -3.5 71.499 -3.5
c24.667 0 48.5 1.16699 71.5 3.5s44.167 10.666 63.5 24.999s36.333 36.833 51 67.5s26 74.334 34 131.001s9 100.334 3 131.001s-16.833 53.167 -32.5 67.5s-34.667 22.666 -57 24.999s-45.5 3.5 -69.5 3.5zM102.001 322c10 72 26.501 129.833 49.501 173.5
s50.667 77.334 83 101.001s68.666 39.334 108.999 47.001s82.833 11.5 127.5 11.5s86 -3.83301 124 -11.5s69.833 -23.334 95.5 -47.001s43.834 -57.334 54.501 -101.001s11 -101.5 1 -173.5s-26.5 -129.833 -49.5 -173.5s-50.833 -77.334 -83.5 -101.001
s-69 -39.334 -109 -47.001s-82.333 -11.5 -127 -11.5s-86 3.83301 -124 11.5s-69.833 23.334 -95.5 47.001s-43.834 57.334 -54.501 101.001s-11 101.5 -1 173.5zM502.002 707l-79 107h86l38 -107h-45z" />
    <glyph glyph-name="oacute" unicode="&#xf3;" 
d="M456 549c-25.333 0 -49.499 -1.16699 -72.499 -3.5s-44.167 -10.666 -63.5 -24.999s-36.166 -36.833 -50.499 -67.5s-25.5 -74.334 -33.5 -131.001s-9.16699 -100.334 -3.5 -131.001s16.167 -53.167 31.5 -67.5s34.166 -22.666 56.499 -24.999s46.166 -3.5 71.499 -3.5
c24.667 0 48.5 1.16699 71.5 3.5s44.167 10.666 63.5 24.999s36.333 36.833 51 67.5s26 74.334 34 131.001s9 100.334 3 131.001s-16.833 53.167 -32.5 67.5s-34.667 22.666 -57 24.999s-45.5 3.5 -69.5 3.5zM102.001 322c10 72 26.501 129.833 49.501 173.5
s50.667 77.334 83 101.001s68.666 39.334 108.999 47.001s82.833 11.5 127.5 11.5s86 -3.83301 124 -11.5s69.833 -23.334 95.5 -47.001s43.834 -57.334 54.501 -101.001s11 -101.5 1 -173.5s-26.5 -129.833 -49.5 -173.5s-50.833 -77.334 -83.5 -101.001
s-69 -39.334 -109 -47.001s-82.333 -11.5 -127 -11.5s-86 3.83301 -124 11.5s-69.833 23.334 -95.5 47.001s-43.834 57.334 -54.501 101.001s-11 101.5 -1 173.5zM405.002 689l68 107h85l-52 -53.5l-51 -53.5h-50z" />
    <glyph glyph-name="ocircumflex" unicode="&#xf4;" 
d="M456 549c-25.333 0 -49.499 -1.16699 -72.499 -3.5s-44.167 -10.666 -63.5 -24.999s-36.166 -36.833 -50.499 -67.5s-25.5 -74.334 -33.5 -131.001s-9.16699 -100.334 -3.5 -131.001s16.167 -53.167 31.5 -67.5s34.166 -22.666 56.499 -24.999s46.166 -3.5 71.499 -3.5
c24.667 0 48.5 1.16699 71.5 3.5s44.167 10.666 63.5 24.999s36.333 36.833 51 67.5s26 74.334 34 131.001s9 100.334 3 131.001s-16.833 53.167 -32.5 67.5s-34.667 22.666 -57 24.999s-45.5 3.5 -69.5 3.5zM102.001 322c10 72 26.501 129.833 49.501 173.5
s50.667 77.334 83 101.001s68.666 39.334 108.999 47.001s82.833 11.5 127.5 11.5s86 -3.83301 124 -11.5s69.833 -23.334 95.5 -47.001s43.834 -57.334 54.501 -101.001s11 -101.5 1 -173.5s-26.5 -129.833 -49.5 -173.5s-50.833 -77.334 -83.5 -101.001
s-69 -39.334 -109 -47.001s-82.333 -11.5 -127 -11.5s-86 3.83301 -124 11.5s-69.833 23.334 -95.5 47.001s-43.834 57.334 -54.501 101.001s-11 101.5 -1 173.5zM534.002 689l-47 84l-71 -84h-72l52 54l51 53h80l76 -107h-69z" />
    <glyph glyph-name="otilde" unicode="&#xf5;" 
d="M456 549c-25.333 0 -49.499 -1.16699 -72.499 -3.5s-44.167 -10.666 -63.5 -24.999s-36.166 -36.833 -50.499 -67.5s-25.5 -74.334 -33.5 -131.001s-9.16699 -100.334 -3.5 -131.001s16.167 -53.167 31.5 -67.5s34.166 -22.666 56.499 -24.999s46.166 -3.5 71.499 -3.5
c24.667 0 48.5 1.16699 71.5 3.5s44.167 10.666 63.5 24.999s36.333 36.833 51 67.5s26 74.334 34 131.001s9 100.334 3 131.001s-16.833 53.167 -32.5 67.5s-34.667 22.666 -57 24.999s-45.5 3.5 -69.5 3.5zM102.001 322c10 72 26.501 129.833 49.501 173.5
s50.667 77.334 83 101.001s68.666 39.334 108.999 47.001s82.833 11.5 127.5 11.5s86 -3.83301 124 -11.5s69.833 -23.334 95.5 -47.001s43.834 -57.334 54.501 -101.001s11 -101.5 1 -173.5s-26.5 -129.833 -49.5 -173.5s-50.833 -77.334 -83.5 -101.001
s-69 -39.334 -109 -47.001s-82.333 -11.5 -127 -11.5s-86 3.83301 -124 11.5s-69.833 23.334 -95.5 47.001s-43.834 57.334 -54.501 101.001s-11 101.5 -1 173.5zM640.002 803c-6 -26.667 -17.5 -47.335 -34.5 -62.002s-36.833 -22 -59.5 -22
c-9.33301 0 -19.833 2.16699 -31.5 6.5s-25.167 10.5 -40.5 18.5c-20 12 -36 18 -48 18c-8 0 -14.833 -1.16699 -20.5 -3.5s-11.5 -6.16602 -17.5 -11.499c-3.33301 -3.33301 -6.5 -7.33301 -9.5 -12s-5.16699 -10.667 -6.5 -18h-43c2.66699 13.333 6.5 24.5 11.5 33.5
s12.167 17.5 21.5 25.5c19.333 17.333 41.666 26 66.999 26c9.33301 0 20 -2.16699 32 -6.5s25.667 -10.166 41 -17.499c18 -10 33.667 -15 47 -15c12.667 0 22.834 2.66699 30.501 8s14.167 16 19.5 32h41z" />
    <glyph glyph-name="odieresis" unicode="&#xf6;" 
d="M456 549c-25.333 0 -49.499 -1.16699 -72.499 -3.5s-44.167 -10.666 -63.5 -24.999s-36.166 -36.833 -50.499 -67.5s-25.5 -74.334 -33.5 -131.001s-9.16699 -100.334 -3.5 -131.001s16.167 -53.167 31.5 -67.5s34.166 -22.666 56.499 -24.999s46.166 -3.5 71.499 -3.5
c24.667 0 48.5 1.16699 71.5 3.5s44.167 10.666 63.5 24.999s36.333 36.833 51 67.5s26 74.334 34 131.001s9 100.334 3 131.001s-16.833 53.167 -32.5 67.5s-34.667 22.666 -57 24.999s-45.5 3.5 -69.5 3.5zM102.001 322c10 72 26.501 129.833 49.501 173.5
s50.667 77.334 83 101.001s68.666 39.334 108.999 47.001s82.833 11.5 127.5 11.5s86 -3.83301 124 -11.5s69.833 -23.334 95.5 -47.001s43.834 -57.334 54.501 -101.001s11 -101.5 1 -173.5s-26.5 -129.833 -49.5 -173.5s-50.833 -77.334 -83.5 -101.001
s-69 -39.334 -109 -47.001s-82.333 -11.5 -127 -11.5s-86 3.83301 -124 11.5s-69.833 23.334 -95.5 47.001s-43.834 57.334 -54.501 101.001s-11 101.5 -1 173.5zM335.002 723l17 123h110l-17 -123h-110zM513.002 723l17 123h110l-17 -123h-110z" />
    <glyph glyph-name="divide" unicode="&#xf7;" horiz-adv-x="447" 
d="M244 422l10 73h77l-10 -73h-77zM44 293l8 56h441l-8 -56h-441zM205 146l10 73h77l-10 -73h-77z" />
    <glyph glyph-name="oslash" unicode="&#xf8;" 
d="M730 540c11.333 -25.333 18.667 -55.668 22 -91.001s1.33301 -77.666 -6 -126.999c-10 -72 -26.5 -129.833 -49.5 -173.5s-50.833 -77.334 -83.5 -101.001s-69 -39.334 -109 -47.001s-82.333 -11.5 -127 -11.5c-46 0 -88.667 4.16699 -128 12.5
s-71.666 25.5 -96.999 51.5l-62 -53l-59 37l85 71c-10.667 24.667 -17.5 54.5 -20.5 89.5s-0.833008 76.5 6.5 124.5c10 72 26.5 129.833 49.5 173.5s50.667 77.334 83 101.001s68.666 39.334 108.999 47.001s82.833 11.5 127.5 11.5c46 0 88.167 -4 126.5 -12
s70.5 -24.667 96.5 -50l58 49l57 -36zM612.001 321.998c6.66699 49.333 7.99902 89.6689 3.99902 121.002l-364 -306c7.33301 -10.667 16 -18.834 26 -24.501s21 -9.83398 33 -12.501s24.833 -4.16699 38.5 -4.5s27.834 -0.5 42.501 -0.5c24.667 0 48.5 1.16699 71.5 3.5
s44.167 10.666 63.5 24.999s36.333 36.833 51 67.5s26 74.334 34 131.001zM456 549.001c-25.333 0 -49.5029 -1.16699 -72.5029 -3.5s-44.167 -10.666 -63.5 -24.999s-36.166 -36.833 -50.499 -67.5s-25.5 -74.334 -33.5 -131.001c-6.66699 -48.667 -8.66699 -88 -6 -118
l363 304c-15.333 20 -35.166 31.833 -59.499 35.5s-50.166 5.5 -77.499 5.5z" />
    <glyph glyph-name="ugrave" unicode="&#xf9;" horiz-adv-x="668" 
d="M573 642h130.999l-53 -372c-7.33301 -50 -16.666 -92.833 -27.999 -128.5s-28.333 -64.667 -51 -87s-52.334 -38.833 -89.001 -49.5s-83.667 -16 -141 -16s-103.166 5.33301 -137.499 16s-59.833 27.167 -76.5 49.5s-26 51.333 -28 87s0.666992 78.5 8 128.5l53 372h131
l-52 -371c-4.66699 -31.333 -7 -58 -7 -80s4 -40 12 -54s20.833 -24.167 38.5 -30.5s42.167 -9.5 73.5 -9.5c30.667 0 55.667 3.16699 75 9.5s34.833 16.5 46.5 30.5s20.5 32 26.5 54s11.333 48.667 16 80zM456.999 707l-79 107h86l38 -107h-45z" />
    <glyph glyph-name="uacute" unicode="&#xfa;" horiz-adv-x="668" 
d="M573 642h130.999l-53 -372c-7.33301 -50 -16.666 -92.833 -27.999 -128.5s-28.333 -64.667 -51 -87s-52.334 -38.833 -89.001 -49.5s-83.667 -16 -141 -16s-103.166 5.33301 -137.499 16s-59.833 27.167 -76.5 49.5s-26 51.333 -28 87s0.666992 78.5 8 128.5l53 372h131
l-52 -371c-4.66699 -31.333 -7 -58 -7 -80s4 -40 12 -54s20.833 -24.167 38.5 -30.5s42.167 -9.5 73.5 -9.5c30.667 0 55.667 3.16699 75 9.5s34.833 16.5 46.5 30.5s20.5 32 26.5 54s11.333 48.667 16 80zM359.999 689l68 107h85l-52 -53.5l-51 -53.5h-50z" />
    <glyph glyph-name="ucircumflex" unicode="&#xfb;" horiz-adv-x="668" 
d="M573 642h130.999l-53 -372c-7.33301 -50 -16.666 -92.833 -27.999 -128.5s-28.333 -64.667 -51 -87s-52.334 -38.833 -89.001 -49.5s-83.667 -16 -141 -16s-103.166 5.33301 -137.499 16s-59.833 27.167 -76.5 49.5s-26 51.333 -28 87s0.666992 78.5 8 128.5l53 372h131
l-52 -371c-4.66699 -31.333 -7 -58 -7 -80s4 -40 12 -54s20.833 -24.167 38.5 -30.5s42.167 -9.5 73.5 -9.5c30.667 0 55.667 3.16699 75 9.5s34.833 16.5 46.5 30.5s20.5 32 26.5 54s11.333 48.667 16 80zM492.999 707l-47 84l-71 -84h-72l51 54l52 53h80l76 -107h-69z" />
    <glyph glyph-name="udieresis" unicode="&#xfc;" horiz-adv-x="668" 
d="M573 642h130.999l-53 -372c-7.33301 -50 -16.666 -92.833 -27.999 -128.5s-28.333 -64.667 -51 -87s-52.334 -38.833 -89.001 -49.5s-83.667 -16 -141 -16s-103.166 5.33301 -137.499 16s-59.833 27.167 -76.5 49.5s-26 51.333 -28 87s0.666992 78.5 8 128.5l53 372h131
l-52 -371c-4.66699 -31.333 -7 -58 -7 -80s4 -40 12 -54s20.833 -24.167 38.5 -30.5s42.167 -9.5 73.5 -9.5c30.667 0 55.667 3.16699 75 9.5s34.833 16.5 46.5 30.5s20.5 32 26.5 54s11.333 48.667 16 80zM289.999 723l17 123h110l-17 -123h-110zM467.999 723l17 123h110
l-17 -123h-110z" />
    <glyph glyph-name="yacute" unicode="&#xfd;" horiz-adv-x="618" 
d="M239 0l38.002 273.999l-86.5 184l-87.5 184h146c15.333 -32 30.166 -64.5 44.499 -97.5s29.166 -65.5 44.499 -97.5c2.66699 -19.333 5 -40.666 7 -63.999s3.66699 -44.333 5 -63l24.5 60.5l26.5 66.5l75.5 97.5c25 33 51.833 65.5 80.5 97.5h139l-287 -368l-38 -274
h-132zM335.002 688.999l68 107h85l-52 -53.5l-51 -53.5h-50z" />
    <glyph glyph-name="thorn" unicode="&#xfe;" horiz-adv-x="527" 
d="M63 -57l106.999 755.997h132l-8 -58c6 0.666992 12 1 18 1h19c40 0 75.667 -3.5 107 -10.5s56.833 -21.667 76.5 -44s32.834 -54.666 39.501 -96.999s5 -98.833 -5 -169.5s-24.167 -127.167 -42.5 -169.5s-40.5 -74.666 -66.5 -96.999s-55.667 -37 -89 -44
s-70 -10.5 -110 -10.5c-6 0 -12.333 -0.166992 -19 -0.5s-12.667 -0.166016 -18 0.500977l-9 -57h-132zM218.999 106.997c5.33301 -0.666992 10.834 -1.00098 16.501 -1.00098h17.5c18 0 35.333 1.5 52 4.5s31.834 11.5 45.501 25.5s26 35.5 37 64.5
s20.167 69.167 27.5 120.5c6.66699 50.667 8.66699 90.334 6 119.001s-8.83398 50 -18.501 64s-22.334 22.667 -38.001 26s-32.5 5 -50.5 5h-18.5c-5.66699 0 -11.167 -0.333008 -16.5 -1z" />
    <glyph glyph-name="ydieresis" unicode="&#xff;" horiz-adv-x="618" 
d="M239 0l38.002 273.999l-86.5 184l-87.5 184h146c15.333 -32 30.166 -64.5 44.499 -97.5s29.166 -65.5 44.499 -97.5c2.66699 -19.333 5 -40.666 7 -63.999s3.66699 -44.333 5 -63l24.5 60.5l26.5 66.5l75.5 97.5c25 33 51.833 65.5 80.5 97.5h139l-287 -368l-38 -274
h-132zM269.002 740.999l17 123h110l-17 -123h-110zM447.002 740.999l17 123h110l-17 -123h-110z" />
    <glyph glyph-name="Amacron" unicode="&#x100;" horiz-adv-x="657" 
d="M491 642l137 -642h-144l-31 181h-201l-80 -181h-144l317 642h146zM294 274h144l-28 167l-3 101h-6l-33 -101zM295 745l6 38h275l-6 -38h-275z" />
    <glyph glyph-name="amacron" unicode="&#x101;" horiz-adv-x="703" 
d="M647 -1c-42 4.66699 -72.166 14.3291 -90.499 28.9961s-28.833 38.334 -31.5 71.001c-25.333 -35.333 -56.5 -62.333 -93.5 -81s-79.5 -28 -127.5 -28c-38 0 -72.5 3 -103.5 9s-56.667 16.5 -77 31.5s-35 35.333 -44 61s-10.833 57.834 -5.5 96.501
c6 44 17.333 80.333 34 109s37.5 51.5 62.5 68.5s53.833 28.833 86.5 35.5s68 10 106 10h158c2.66699 32 2.5 57.167 -0.5 75.5s-9.5 32 -19.5 41s-24 14.667 -42 17s-40.667 3.5 -68 3.5c-20 0 -40 -1.33301 -60 -4s-38.667 -6 -56 -10s-33.333 -8.16699 -48 -12.5
s-27 -8.16602 -37 -11.499l-18 103c29.333 13.333 64.333 23.666 105 30.999s84.334 11 131.001 11c54 0 98.5 -4 133.5 -12s61.833 -23.667 80.5 -47s29.5 -56.666 32.5 -99.999s-0.5 -100.333 -10.5 -171l-2 -16l-16 -112c-4.66699 -32.667 -3.33398 -55.667 3.99902 -69
s21.666 -21.666 42.999 -24.999zM507.001 302.995h-159.001c-19.333 0 -37 -1.16699 -53 -3.5s-30.333 -7.5 -43 -15.5s-23.334 -19.5 -32.001 -34.5s-14.667 -35.5 -18 -61.5c-2.66699 -20 -1.66699 -36 3 -48s12.334 -21 23.001 -27s23.834 -10 39.501 -12
s33.167 -3 52.5 -3c34 0 62 4.33301 84 13s39.833 21.667 53.5 39s24.167 38.5 31.5 63.5s13.333 54.167 18 87.5v2zM318 744.995l6 38h275l-6 -38h-275z" />
    <glyph glyph-name="Abreve" unicode="&#x102;" horiz-adv-x="657" 
d="M491 642l137 -642h-144l-31 181h-201l-80 -181h-144l317 642h146zM294 274h144l-28 167l-3 101h-6l-33 -101zM577 795c-11.333 -35.333 -30.333 -62.832 -57 -82.499s-59 -29.5 -97 -29.5c-79.333 0 -120 37.333 -122 112h43c5.33301 -46 33 -69 83 -69
c29.333 0 52.333 5.66699 69 17s29.667 28.666 39 51.999h42z" />
    <glyph glyph-name="abreve" unicode="&#x103;" horiz-adv-x="657" 
d="M491 642l137 -642h-144l-31 181h-201l-80 -181h-144l317 642h146zM294 274h144l-28 167l-3 101h-6l-33 -101zM577 795c-11.333 -35.333 -30.333 -62.832 -57 -82.499s-59 -29.5 -97 -29.5c-79.333 0 -120 37.333 -122 112h43c5.33301 -46 33 -69 83 -69
c29.333 0 52.333 5.66699 69 17s29.667 28.666 39 51.999h42z" />
    <glyph glyph-name="Aogonek" unicode="&#x104;" horiz-adv-x="657" 
d="M491 642l137.002 -642c-32 -15.333 -52.333 -50.666 -61 -105.999h44l-11 -75h-72l9 64c3.33301 19.333 7.16602 36.166 11.499 50.499s9.16602 25.833 14.499 34.5c4.66699 6 9.5 11.667 14.5 17s10.833 10.333 17.5 15h-111l-31 181h-201l-80 -181h-144l317 642h146z
M294.002 274h144l-28 167l-3 101h-6l-33 -101z" />
    <glyph glyph-name="aogonek" unicode="&#x105;" horiz-adv-x="703" 
d="M647 -1c-32.667 -15.333 -53.001 -50.335 -61.001 -105.002h44l-11 -75h-22c-33.333 0 -47.666 16.667 -42.999 50l2 14c6 40.667 14.667 69 26 85c5.33301 7.33301 10.833 13.666 16.5 18.999s12.167 10.666 19.5 15.999c-31.333 6 -54.166 16.333 -68.499 31
s-22.5 36.334 -24.5 65.001c-25.333 -35.333 -56.5 -62.333 -93.5 -81s-79.5 -28 -127.5 -28c-38 0 -72.5 3 -103.5 9s-56.667 16.5 -77 31.5s-35 35.333 -44 61s-10.833 57.834 -5.5 96.501c6 44 17.333 80.333 34 109s37.5 51.5 62.5 68.5s53.833 28.833 86.5 35.5
s68 10 106 10h158c2.66699 32 2.5 57.167 -0.5 75.5s-9.5 32 -19.5 41s-24 14.667 -42 17s-40.667 3.5 -68 3.5c-20 0 -40 -1.33301 -60 -4s-38.667 -6 -56 -10s-33.333 -8.16699 -48 -12.5s-27 -8.16602 -37 -11.499l-18 103c29.333 13.333 64.333 23.666 105 30.999
s84.334 11 131.001 11c54 0 98.5 -4 133.5 -12s61.833 -23.667 80.5 -47s29.5 -56.666 32.5 -99.999s-0.5 -100.333 -10.5 -171l-18 -128c-4.66699 -32.667 -3.33398 -55.667 3.99902 -69s21.666 -21.666 42.999 -24.999zM347.999 302.998
c-19.333 0 -37.001 -1.16699 -53.001 -3.5s-30.333 -7.5 -43 -15.5s-23.334 -19.5 -32.001 -34.5s-14.667 -35.5 -18 -61.5c-2.66699 -20 -1.66699 -36 3 -48s12.334 -21 23.001 -27s23.834 -10 39.501 -12s33.167 -3 52.5 -3c34 0 62 4.33301 84 13s39.833 21.667 53.5 39
s24.167 38.5 31.5 63.5s13.333 54.167 18 87.5z" />
    <glyph glyph-name="Cacute" unicode="&#x106;" horiz-adv-x="650" 
d="M618 31c-30 -13.333 -66 -24.0029 -108 -32.0029s-86.333 -12 -133 -12c-49.333 0 -93.166 4.16699 -131.499 12.5s-70 24.5 -95 48.5s-42 57.833 -51 101.5s-8.5 100.834 1.5 171.501s25.667 127.834 47 171.501s47.666 77.5 78.999 101.5s67.5 40.167 108.5 48.5
s86.167 12.5 135.5 12.5c94 0 167 -13.333 219 -40l-48 -103c-18 6 -43 13.5 -75 22.5s-68.333 13.5 -109 13.5c-27.333 0 -53 -2 -77 -6s-45.5 -13.667 -64.5 -29s-35.5 -38.166 -49.5 -68.499s-24.667 -71.5 -32 -123.5c-7.33301 -52.667 -8.33301 -94.167 -3 -124.5
s15.5 -53 30.5 -68s33.833 -24.5 56.5 -28.5s47.667 -6 75 -6c20 0 40.167 1.5 60.5 4.5s39.5 6.5 57.5 10.5s34.5 8.33301 49.5 13l37.5 12zM415 706.997l68 106.999h85c-20 -19.333 -37.667 -37.166 -53 -53.499l-50 -53.5h-50z" />
    <glyph glyph-name="cacute" unicode="&#x107;" horiz-adv-x="650" 
d="M618 31c-30 -13.333 -66 -24.0029 -108 -32.0029s-86.333 -12 -133 -12c-49.333 0 -93.166 4.16699 -131.499 12.5s-70 24.5 -95 48.5s-42 57.833 -51 101.5s-8.5 100.834 1.5 171.501s25.667 127.834 47 171.501s47.666 77.5 78.999 101.5s67.5 40.167 108.5 48.5
s86.167 12.5 135.5 12.5c94 0 167 -13.333 219 -40l-48 -103c-18 6 -43 13.5 -75 22.5s-68.333 13.5 -109 13.5c-27.333 0 -53 -2 -77 -6s-45.5 -13.667 -64.5 -29s-35.5 -38.166 -49.5 -68.499s-24.667 -71.5 -32 -123.5c-7.33301 -52.667 -8.33301 -94.167 -3 -124.5
s15.5 -53 30.5 -68s33.833 -24.5 56.5 -28.5s47.667 -6 75 -6c20 0 40.167 1.5 60.5 4.5s39.5 6.5 57.5 10.5s34.5 8.33301 49.5 13l37.5 12zM415 706.997l68 106.999h85c-20 -19.333 -37.667 -37.166 -53 -53.499l-50 -53.5h-50z" />
    <glyph glyph-name="Ccircumflex" unicode="&#x108;" horiz-adv-x="650" 
d="M618 31c-30 -13.333 -66 -24.0029 -108 -32.0029s-86.333 -12 -133 -12c-49.333 0 -93.166 4.16699 -131.499 12.5s-70 24.5 -95 48.5s-42 57.833 -51 101.5s-8.5 100.834 1.5 171.501s25.667 127.834 47 171.501s47.666 77.5 78.999 101.5s67.5 40.167 108.5 48.5
s86.167 12.5 135.5 12.5c94 0 167 -13.333 219 -40l-48 -103c-18 6 -43 13.5 -75 22.5s-68.333 13.5 -109 13.5c-27.333 0 -53 -2 -77 -6s-45.5 -13.667 -64.5 -29s-35.5 -38.166 -49.5 -68.499s-24.667 -71.5 -32 -123.5c-7.33301 -52.667 -8.33301 -94.167 -3 -124.5
s15.5 -53 30.5 -68s33.833 -24.5 56.5 -28.5s47.667 -6 75 -6c20 0 40.167 1.5 60.5 4.5s39.5 6.5 57.5 10.5s34.5 8.33301 49.5 13l37.5 12zM533 706.997l-47 84l-71 -84h-72l51 54l52 53h80l76 -107h-69z" />
    <glyph glyph-name="ccircumflex" unicode="&#x109;" horiz-adv-x="650" 
d="M618 31c-30 -13.333 -66 -24.0029 -108 -32.0029s-86.333 -12 -133 -12c-49.333 0 -93.166 4.16699 -131.499 12.5s-70 24.5 -95 48.5s-42 57.833 -51 101.5s-8.5 100.834 1.5 171.501s25.667 127.834 47 171.501s47.666 77.5 78.999 101.5s67.5 40.167 108.5 48.5
s86.167 12.5 135.5 12.5c94 0 167 -13.333 219 -40l-48 -103c-18 6 -43 13.5 -75 22.5s-68.333 13.5 -109 13.5c-27.333 0 -53 -2 -77 -6s-45.5 -13.667 -64.5 -29s-35.5 -38.166 -49.5 -68.499s-24.667 -71.5 -32 -123.5c-7.33301 -52.667 -8.33301 -94.167 -3 -124.5
s15.5 -53 30.5 -68s33.833 -24.5 56.5 -28.5s47.667 -6 75 -6c20 0 40.167 1.5 60.5 4.5s39.5 6.5 57.5 10.5s34.5 8.33301 49.5 13l37.5 12zM527 706.997l-47 84l-71 -84h-72l51 54l52 53h80l76 -107h-69z" />
    <glyph glyph-name="Cdotaccent" unicode="&#x10a;" horiz-adv-x="650" 
d="M618 31c-30 -13.333 -66 -24.0029 -108 -32.0029s-86.333 -12 -133 -12c-49.333 0 -93.166 4.16699 -131.499 12.5s-70 24.5 -95 48.5s-42 57.833 -51 101.5s-8.5 100.834 1.5 171.501s25.667 127.834 47 171.501s47.666 77.5 78.999 101.5s67.5 40.167 108.5 48.5
s86.167 12.5 135.5 12.5c94 0 167 -13.333 219 -40l-48 -103c-18 6 -43 13.5 -75 22.5s-68.333 13.5 -109 13.5c-27.333 0 -53 -2 -77 -6s-45.5 -13.667 -64.5 -29s-35.5 -38.166 -49.5 -68.499s-24.667 -71.5 -32 -123.5c-7.33301 -52.667 -8.33301 -94.167 -3 -124.5
s15.5 -53 30.5 -68s33.833 -24.5 56.5 -28.5s47.667 -6 75 -6c20 0 40.167 1.5 60.5 4.5s39.5 6.5 57.5 10.5s34.5 8.33301 49.5 13l37.5 12zM487 736.997h-118l17 123h118z" />
    <glyph glyph-name="cdotaccent" unicode="&#x10b;" horiz-adv-x="650" 
d="M618 31c-30 -13.333 -66 -24.0029 -108 -32.0029s-86.333 -12 -133 -12c-49.333 0 -93.166 4.16699 -131.499 12.5s-70 24.5 -95 48.5s-42 57.833 -51 101.5s-8.5 100.834 1.5 171.501s25.667 127.834 47 171.501s47.666 77.5 78.999 101.5s67.5 40.167 108.5 48.5
s86.167 12.5 135.5 12.5c94 0 167 -13.333 219 -40l-48 -103c-18 6 -43 13.5 -75 22.5s-68.333 13.5 -109 13.5c-27.333 0 -53 -2 -77 -6s-45.5 -13.667 -64.5 -29s-35.5 -38.166 -49.5 -68.499s-24.667 -71.5 -32 -123.5c-7.33301 -52.667 -8.33301 -94.167 -3 -124.5
s15.5 -53 30.5 -68s33.833 -24.5 56.5 -28.5s47.667 -6 75 -6c20 0 40.167 1.5 60.5 4.5s39.5 6.5 57.5 10.5s34.5 8.33301 49.5 13l37.5 12zM487 736.997h-118l17 123h118z" />
    <glyph glyph-name="Ccaron" unicode="&#x10c;" horiz-adv-x="650" 
d="M618 31c-30 -13.333 -66 -24.0029 -108 -32.0029s-86.333 -12 -133 -12c-49.333 0 -93.166 4.16699 -131.499 12.5s-70 24.5 -95 48.5s-42 57.833 -51 101.5s-8.5 100.834 1.5 171.501s25.667 127.834 47 171.501s47.666 77.5 78.999 101.5s67.5 40.167 108.5 48.5
s86.167 12.5 135.5 12.5c94 0 167 -13.333 219 -40l-48 -103c-18 6 -43 13.5 -75 22.5s-68.333 13.5 -109 13.5c-27.333 0 -53 -2 -77 -6s-45.5 -13.667 -64.5 -29s-35.5 -38.166 -49.5 -68.499s-24.667 -71.5 -32 -123.5c-7.33301 -52.667 -8.33301 -94.167 -3 -124.5
s15.5 -53 30.5 -68s33.833 -24.5 56.5 -28.5s47.667 -6 75 -6c20 0 40.167 1.5 60.5 4.5s39.5 6.5 57.5 10.5s34.5 8.33301 49.5 13l37.5 12zM520 692.997h-96l-78 102h77l53 -75l73 75h77z" />
    <glyph glyph-name="ccaron" unicode="&#x10d;" horiz-adv-x="650" 
d="M618 31c-30 -13.333 -66 -24.0029 -108 -32.0029s-86.333 -12 -133 -12c-49.333 0 -93.166 4.16699 -131.499 12.5s-70 24.5 -95 48.5s-42 57.833 -51 101.5s-8.5 100.834 1.5 171.501s25.667 127.834 47 171.501s47.666 77.5 78.999 101.5s67.5 40.167 108.5 48.5
s86.167 12.5 135.5 12.5c94 0 167 -13.333 219 -40l-48 -103c-18 6 -43 13.5 -75 22.5s-68.333 13.5 -109 13.5c-27.333 0 -53 -2 -77 -6s-45.5 -13.667 -64.5 -29s-35.5 -38.166 -49.5 -68.499s-24.667 -71.5 -32 -123.5c-7.33301 -52.667 -8.33301 -94.167 -3 -124.5
s15.5 -53 30.5 -68s33.833 -24.5 56.5 -28.5s47.667 -6 75 -6c20 0 40.167 1.5 60.5 4.5s39.5 6.5 57.5 10.5s34.5 8.33301 49.5 13l37.5 12zM520 692.997h-96l-78 102h77l53 -75l73 75h77z" />
    <glyph glyph-name="Dcaron" unicode="&#x10e;" horiz-adv-x="689" 
d="M79 0l90.0029 642h230c48.667 0 92.5 -3.16699 131.5 -9.5s71 -20.5 96 -42.5s42.167 -54 51.5 -96s9 -98.333 -1 -169c-10 -71.333 -24.833 -128.5 -44.5 -171.5s-44.334 -75.833 -74.001 -98.5s-64.334 -37.5 -104.001 -44.5s-84.834 -10.5 -135.501 -10.5h-240z
M324.003 108c35.333 0 65.334 2.16797 90.001 6.50098s45.5 14 62.5 29s30.667 37 41 66s18.833 67.833 25.5 116.5c7.33301 50.667 8.16602 90.167 2.49902 118.5s-16 49.166 -31 62.499s-34 21.333 -57 24s-48.167 4 -75.5 4h-96l-60 -427h98zM489.004 693.001h-96
l-78 102h77l53 -75l73 75h77z" />
    <glyph glyph-name="dcaron" unicode="&#x10f;" horiz-adv-x="689" 
d="M79 0l90.0029 642h230c48.667 0 92.5 -3.16699 131.5 -9.5s71 -20.5 96 -42.5s42.167 -54 51.5 -96s9 -98.333 -1 -169c-10 -71.333 -24.833 -128.5 -44.5 -171.5s-44.334 -75.833 -74.001 -98.5s-64.334 -37.5 -104.001 -44.5s-84.834 -10.5 -135.501 -10.5h-240z
M324.003 108c35.333 0 65.334 2.16797 90.001 6.50098s45.5 14 62.5 29s30.667 37 41 66s18.833 67.833 25.5 116.5c7.33301 50.667 8.16602 90.167 2.49902 118.5s-16 49.166 -31 62.499s-34 21.333 -57 24s-48.167 4 -75.5 4h-96l-60 -427h98zM489.004 693.001h-96
l-78 102h77l53 -75l73 75h77z" />
    <glyph glyph-name="Dcroat" unicode="&#x110;" horiz-adv-x="689" 
d="M79 0l37.0029 268h-77l15 103h77l38 271h230c48.667 0 92.5 -3.16699 131.5 -9.5s71 -20.5 96 -42.5s42.167 -54 51.5 -96s9 -98.333 -1 -169c-10 -71.333 -24.833 -128.5 -44.5 -171.5s-44.334 -75.833 -74.001 -98.5s-64.334 -37.5 -104.001 -44.5
s-84.834 -10.5 -135.501 -10.5h-240zM324.003 108c35.333 0 65.334 2.16797 90.001 6.50098s45.5 14 62.5 29s30.667 37 41 66s18.833 67.833 25.5 116.5c7.33301 50.667 8.16602 90.167 2.49902 118.5s-16 49.166 -31 62.499s-34 21.333 -57 24s-48.167 4 -75.5 4h-96
l-23 -164h95l-15 -103h-95l-22 -160h98z" />
    <glyph glyph-name="dcroat" unicode="&#x111;" horiz-adv-x="689" 
d="M79 0l37.0029 268h-77l15 103h77l38 271h230c48.667 0 92.5 -3.16699 131.5 -9.5s71 -20.5 96 -42.5s42.167 -54 51.5 -96s9 -98.333 -1 -169c-10 -71.333 -24.833 -128.5 -44.5 -171.5s-44.334 -75.833 -74.001 -98.5s-64.334 -37.5 -104.001 -44.5
s-84.834 -10.5 -135.501 -10.5h-240zM324.003 108c35.333 0 65.334 2.16797 90.001 6.50098s45.5 14 62.5 29s30.667 37 41 66s18.833 67.833 25.5 116.5c7.33301 50.667 8.16602 90.167 2.49902 118.5s-16 49.166 -31 62.499s-34 21.333 -57 24s-48.167 4 -75.5 4h-96
l-23 -164h95l-15 -103h-95l-22 -160h98z" />
    <glyph glyph-name="Emacron" unicode="&#x112;" horiz-adv-x="566" 
d="M79 0l90 642h480l-25 -107h-338l-21 -149h263l-15 -107h-263l-24 -171h348l-25 -108h-470zM249 745l6 38h275l-6 -38h-275z" />
    <glyph glyph-name="emacron" unicode="&#x113;" horiz-adv-x="704" 
d="M232 278c-3.33301 -39.333 -2.83105 -71.002 1.50195 -95.002s13.166 -42.5 26.499 -55.5s31.333 -21.833 54 -26.5s51 -7 85 -7c20 0 40.833 1.83301 62.5 5.5s42.167 8 61.5 13s37.166 10.167 53.499 15.5l39.5 13l19 -103c-14.667 -6.66699 -32.5 -13 -53.5 -19
s-43.333 -11.333 -67 -16s-48 -8.5 -73 -11.5s-49.167 -4.5 -72.5 -4.5c-50 0 -93.833 4 -131.5 12s-68.167 23.833 -91.5 47.5s-39 56.667 -47 99s-7.33301 98.166 2 167.499c10 72 25.667 130.333 47 175s47.333 79.334 78 104.001s65.167 41.334 103.5 50.001
s79.833 13 124.5 13c48 0 89.833 -4.66699 125.5 -14s64.5 -26.166 86.5 -50.499s36.667 -57.5 44 -99.5s6.33301 -96 -3 -162l-7 -51h-468zM579.002 385.998c2.66699 34.667 1.83008 62.667 -2.50293 84s-12.166 37.833 -23.499 49.5s-26.5 19.5 -45.5 23.5
s-41.833 6 -68.5 6c-23.333 0 -45 -1.16699 -65 -3.5s-38.167 -8.83301 -54.5 -19.5s-30.666 -27 -42.999 -49s-22.166 -52.333 -29.499 -91h332zM317.998 744.998l6 38h275l-6 -38h-275z" />
    <glyph glyph-name="Ebreve" unicode="&#x114;" horiz-adv-x="566" 
d="M79 0l90 642h480l-25 -107h-338l-21 -149h263l-15 -107h-263l-24 -171h348l-25 -108h-470zM536 819c-11.333 -35.333 -30.332 -62.832 -56.999 -82.499s-59 -29.5 -97 -29.5c-39.333 0 -69.333 9.16699 -90 27.5s-31.334 46.5 -32.001 84.5h43c4 -46 31.333 -69 82 -69
c29.333 0 52.5 5.66699 69.5 17s30.167 28.666 39.5 51.999h42z" />
    <glyph glyph-name="ebreve" unicode="&#x115;" horiz-adv-x="704" 
d="M232 278c-3.33301 -39.333 -2.83105 -71.002 1.50195 -95.002s13.166 -42.5 26.499 -55.5s31.333 -21.833 54 -26.5s51 -7 85 -7c20 0 40.833 1.83301 62.5 5.5s42.167 8 61.5 13s37.166 10.167 53.499 15.5l39.5 13l19 -103c-14.667 -6.66699 -32.5 -13 -53.5 -19
s-43.333 -11.333 -67 -16s-48 -8.5 -73 -11.5s-49.167 -4.5 -72.5 -4.5c-50 0 -93.833 4 -131.5 12s-68.167 23.833 -91.5 47.5s-39 56.667 -47 99s-7.33301 98.166 2 167.499c10 72 25.667 130.333 47 175s47.333 79.334 78 104.001s65.167 41.334 103.5 50.001
s79.833 13 124.5 13c48 0 89.833 -4.66699 125.5 -14s64.5 -26.166 86.5 -50.499s36.667 -57.5 44 -99.5s6.33301 -96 -3 -162l-7 -51h-468zM579.002 385.998c2.66699 34.667 1.83008 62.667 -2.50293 84s-12.166 37.833 -23.499 49.5s-26.5 19.5 -45.5 23.5
s-41.833 6 -68.5 6c-23.333 0 -45 -1.16699 -65 -3.5s-38.167 -8.83301 -54.5 -19.5s-30.666 -27 -42.999 -49s-22.166 -52.333 -29.499 -91h332zM604.998 818.998c-11.333 -35.333 -30.332 -62.832 -56.999 -82.499s-59 -29.5 -97 -29.5
c-39.333 0 -69.333 9.16699 -90 27.5s-31.334 46.5 -32.001 84.5h43c4 -46 31.333 -69 82 -69c29.333 0 52.5 5.66699 69.5 17s30.167 28.666 39.5 51.999h42z" />
    <glyph glyph-name="Edotaccent" unicode="&#x116;" horiz-adv-x="566" 
d="M79 0l90 642h480l-25 -107h-338l-21 -149h263l-15 -107h-263l-24 -171h348l-25 -108h-470zM445 737h-118l17 123h118z" />
    <glyph glyph-name="edotaccent" unicode="&#x117;" horiz-adv-x="704" 
d="M232 278c-3.33301 -39.333 -2.83105 -71.002 1.50195 -95.002s13.166 -42.5 26.499 -55.5s31.333 -21.833 54 -26.5s51 -7 85 -7c20 0 40.833 1.83301 62.5 5.5s42.167 8 61.5 13s37.166 10.167 53.499 15.5l39.5 13l19 -103c-14.667 -6.66699 -32.5 -13 -53.5 -19
s-43.333 -11.333 -67 -16s-48 -8.5 -73 -11.5s-49.167 -4.5 -72.5 -4.5c-50 0 -93.833 4 -131.5 12s-68.167 23.833 -91.5 47.5s-39 56.667 -47 99s-7.33301 98.166 2 167.499c10 72 25.667 130.333 47 175s47.333 79.334 78 104.001s65.167 41.334 103.5 50.001
s79.833 13 124.5 13c48 0 89.833 -4.66699 125.5 -14s64.5 -26.166 86.5 -50.499s36.667 -57.5 44 -99.5s6.33301 -96 -3 -162l-7 -51h-468zM579.002 385.998c2.66699 34.667 1.83008 62.667 -2.50293 84s-12.166 37.833 -23.499 49.5s-26.5 19.5 -45.5 23.5
s-41.833 6 -68.5 6c-23.333 0 -45 -1.16699 -65 -3.5s-38.167 -8.83301 -54.5 -19.5s-30.666 -27 -42.999 -49s-22.166 -52.333 -29.499 -91h332zM513.998 736.998h-118l17 123h118z" />
    <glyph glyph-name="Eogonek" unicode="&#x118;" horiz-adv-x="566" 
d="M549 0c-18.667 -8 -32.8311 -20.499 -42.498 -37.499s-16.834 -39.5 -21.501 -67.5h44l-11 -75h-72l9 64c3.33301 19.333 7.16602 36.166 11.499 50.499s9.16602 25.833 14.499 34.5c4.66699 6 9.33398 11.5 14.001 16.5s10 9.83301 16 14.5h-432l90 642h480l-25 -107
h-338l-21 -149h263l-15 -107h-263l-24 -171h348l-25 -108v0z" />
    <glyph glyph-name="eogonek" unicode="&#x119;" horiz-adv-x="704" 
d="M635 38c-18.667 -11.333 -32.6641 -25.168 -41.9971 -41.501s-16 -37.5 -20 -63.5h44l-10 -75h-72l9 64c2.66699 19.333 6.16699 36.166 10.5 50.499s9.16602 25.833 14.499 34.5l9 11c-30 -9.33301 -63.833 -16.833 -101.5 -22.5s-73.5 -8.5 -107.5 -8.5
c-50 0 -93.833 4 -131.5 12s-68.167 23.833 -91.5 47.5s-39 56.667 -47 99s-7.33301 98.166 2 167.499c10 72 25.667 130.333 47 175s47.333 79.334 78 104.001s65.167 41.334 103.5 50.001s79.833 13 124.5 13c48 0 89.833 -4.66699 125.5 -14s64.5 -26.166 86.5 -50.499
s36.667 -57.5 44 -99.5s6.33301 -96 -3 -162l-7 -51h-468c-3.33301 -39.333 -2.83301 -71 1.5 -95s13.166 -42.5 26.499 -55.5s31.333 -21.833 54 -26.5s51 -7 85 -7c20 0 40.833 1.83301 62.5 5.5s42.167 8 61.5 13s37.166 10.167 53.499 15.5l39.5 13zM579.003 385.998
c2.66699 34.667 1.83008 62.667 -2.50293 84s-12.166 37.833 -23.499 49.5s-26.5 19.5 -45.5 23.5s-41.833 6 -68.5 6c-23.333 0 -45 -1.16699 -65 -3.5s-38.167 -8.83301 -54.5 -19.5s-30.666 -27 -42.999 -49s-22.166 -52.333 -29.499 -91h332z" />
    <glyph glyph-name="Ecaron" unicode="&#x11a;" horiz-adv-x="566" 
d="M79 0l90 642h480l-25 -107h-338l-21 -149h263l-15 -107h-263l-24 -171h348l-25 -108h-470zM475 693h-96l-78 102h77l53 -75l73 75h77z" />
    <glyph glyph-name="ecaron" unicode="&#x11b;" horiz-adv-x="704" 
d="M232 278c-3.33301 -39.333 -2.83105 -71.002 1.50195 -95.002s13.166 -42.5 26.499 -55.5s31.333 -21.833 54 -26.5s51 -7 85 -7c20 0 40.833 1.83301 62.5 5.5s42.167 8 61.5 13s37.166 10.167 53.499 15.5l39.5 13l19 -103c-14.667 -6.66699 -32.5 -13 -53.5 -19
s-43.333 -11.333 -67 -16s-48 -8.5 -73 -11.5s-49.167 -4.5 -72.5 -4.5c-50 0 -93.833 4 -131.5 12s-68.167 23.833 -91.5 47.5s-39 56.667 -47 99s-7.33301 98.166 2 167.499c10 72 25.667 130.333 47 175s47.333 79.334 78 104.001s65.167 41.334 103.5 50.001
s79.833 13 124.5 13c48 0 89.833 -4.66699 125.5 -14s64.5 -26.166 86.5 -50.499s36.667 -57.5 44 -99.5s6.33301 -96 -3 -162l-7 -51h-468zM579.002 385.998c2.66699 34.667 1.83008 62.667 -2.50293 84s-12.166 37.833 -23.499 49.5s-26.5 19.5 -45.5 23.5
s-41.833 6 -68.5 6c-23.333 0 -45 -1.16699 -65 -3.5s-38.167 -8.83301 -54.5 -19.5s-30.666 -27 -42.999 -49s-22.166 -52.333 -29.499 -91h332zM496.998 692.998h-96l-78 102h77l53 -75l73 75h77z" />
    <glyph glyph-name="Gcircumflex" unicode="&#x11c;" horiz-adv-x="672" 
d="M539 279l-144.996 0.000976562l25 107h263l-48 -341c-14.667 -8 -32.334 -15.333 -53.001 -22s-42.834 -12.5 -66.501 -17.5s-48.167 -8.83301 -73.5 -11.5s-50 -4 -74 -4c-50.667 0 -94.834 4 -132.501 12s-68 24 -91 48s-38.333 58 -46 102s-6.5 101.667 3.5 173
c10 70.667 25.667 127.667 47 171s47.833 76.666 79.5 99.999s67.834 39 108.501 47s85.667 12 135 12c46.667 0 89.167 -3.66699 127.5 -11s70.5 -17.666 96.5 -30.999l-48 -103c-18 7.33301 -43.833 15.5 -77.5 24.5s-70.834 13.5 -111.501 13.5
c-27.333 0 -52.833 -1.83301 -76.5 -5.5s-45.167 -12.834 -64.5 -27.501s-36 -36.834 -50 -66.501s-24.667 -70.5 -32 -122.5c-6.66699 -48.667 -8.83398 -88 -6.50098 -118s9.83301 -53.167 22.5 -69.5s31 -27.333 55 -33s54.333 -8.5 91 -8.5
c20.667 0 42.167 1.83301 64.5 5.5s40.5 7.83398 54.5 12.501zM495.004 707.001l-47 84l-71 -84h-72l51 54l52 53h80l76 -107h-69z" />
    <glyph glyph-name="gcircumflex" unicode="&#x11d;" horiz-adv-x="672" 
d="M539 279l-144.996 0.000976562l25 107h263l-48 -341c-14.667 -8 -32.334 -15.333 -53.001 -22s-42.834 -12.5 -66.501 -17.5s-48.167 -8.83301 -73.5 -11.5s-50 -4 -74 -4c-50.667 0 -94.834 4 -132.501 12s-68 24 -91 48s-38.333 58 -46 102s-6.5 101.667 3.5 173
c10 70.667 25.667 127.667 47 171s47.833 76.666 79.5 99.999s67.834 39 108.501 47s85.667 12 135 12c46.667 0 89.167 -3.66699 127.5 -11s70.5 -17.666 96.5 -30.999l-48 -103c-18 7.33301 -43.833 15.5 -77.5 24.5s-70.834 13.5 -111.501 13.5
c-27.333 0 -52.833 -1.83301 -76.5 -5.5s-45.167 -12.834 -64.5 -27.501s-36 -36.834 -50 -66.501s-24.667 -70.5 -32 -122.5c-6.66699 -48.667 -8.83398 -88 -6.50098 -118s9.83301 -53.167 22.5 -69.5s31 -27.333 55 -33s54.333 -8.5 91 -8.5
c20.667 0 42.167 1.83301 64.5 5.5s40.5 7.83398 54.5 12.501zM495.004 707.001l-47 84l-71 -84h-72l51 54l52 53h80l76 -107h-69z" />
    <glyph glyph-name="Gbreve" unicode="&#x11e;" horiz-adv-x="672" 
d="M539 279l-144.996 0.000976562l25 107h263l-48 -341c-14.667 -8 -32.334 -15.333 -53.001 -22s-42.834 -12.5 -66.501 -17.5s-48.167 -8.83301 -73.5 -11.5s-50 -4 -74 -4c-50.667 0 -94.834 4 -132.501 12s-68 24 -91 48s-38.333 58 -46 102s-6.5 101.667 3.5 173
c10 70.667 25.667 127.667 47 171s47.833 76.666 79.5 99.999s67.834 39 108.501 47s85.667 12 135 12c46.667 0 89.167 -3.66699 127.5 -11s70.5 -17.666 96.5 -30.999l-48 -103c-18 7.33301 -43.833 15.5 -77.5 24.5s-70.834 13.5 -111.501 13.5
c-27.333 0 -52.833 -1.83301 -76.5 -5.5s-45.167 -12.834 -64.5 -27.501s-36 -36.834 -50 -66.501s-24.667 -70.5 -32 -122.5c-6.66699 -48.667 -8.83398 -88 -6.50098 -118s9.83301 -53.167 22.5 -69.5s31 -27.333 55 -33s54.333 -8.5 91 -8.5
c20.667 0 42.167 1.83301 64.5 5.5s40.5 7.83398 54.5 12.501zM589.004 819.001c-11.333 -35.333 -30.332 -62.832 -56.999 -82.499s-59 -29.5 -97 -29.5c-39.333 0 -69.333 9.16699 -90 27.5s-31.334 46.5 -32.001 84.5h43c4 -46 31.333 -69 82 -69
c29.333 0 52.5 5.66699 69.5 17s30.167 28.666 39.5 51.999h42z" />
    <glyph glyph-name="gbreve" unicode="&#x11f;" horiz-adv-x="672" 
d="M539 279l-144.996 0.000976562l25 107h263l-48 -341c-14.667 -8 -32.334 -15.333 -53.001 -22s-42.834 -12.5 -66.501 -17.5s-48.167 -8.83301 -73.5 -11.5s-50 -4 -74 -4c-50.667 0 -94.834 4 -132.501 12s-68 24 -91 48s-38.333 58 -46 102s-6.5 101.667 3.5 173
c10 70.667 25.667 127.667 47 171s47.833 76.666 79.5 99.999s67.834 39 108.501 47s85.667 12 135 12c46.667 0 89.167 -3.66699 127.5 -11s70.5 -17.666 96.5 -30.999l-48 -103c-18 7.33301 -43.833 15.5 -77.5 24.5s-70.834 13.5 -111.501 13.5
c-27.333 0 -52.833 -1.83301 -76.5 -5.5s-45.167 -12.834 -64.5 -27.501s-36 -36.834 -50 -66.501s-24.667 -70.5 -32 -122.5c-6.66699 -48.667 -8.83398 -88 -6.50098 -118s9.83301 -53.167 22.5 -69.5s31 -27.333 55 -33s54.333 -8.5 91 -8.5
c20.667 0 42.167 1.83301 64.5 5.5s40.5 7.83398 54.5 12.501zM589.004 819.001c-11.333 -35.333 -30.332 -62.832 -56.999 -82.499s-59 -29.5 -97 -29.5c-39.333 0 -69.333 9.16699 -90 27.5s-31.334 46.5 -32.001 84.5h43c4 -46 31.333 -69 82 -69
c29.333 0 52.5 5.66699 69.5 17s30.167 28.666 39.5 51.999h42z" />
    <glyph glyph-name="Gdotaccent" unicode="&#x120;" horiz-adv-x="672" 
d="M539 279l-144.996 0.000976562l25 107h263l-48 -341c-14.667 -8 -32.334 -15.333 -53.001 -22s-42.834 -12.5 -66.501 -17.5s-48.167 -8.83301 -73.5 -11.5s-50 -4 -74 -4c-50.667 0 -94.834 4 -132.501 12s-68 24 -91 48s-38.333 58 -46 102s-6.5 101.667 3.5 173
c10 70.667 25.667 127.667 47 171s47.833 76.666 79.5 99.999s67.834 39 108.501 47s85.667 12 135 12c46.667 0 89.167 -3.66699 127.5 -11s70.5 -17.666 96.5 -30.999l-48 -103c-18 7.33301 -43.833 15.5 -77.5 24.5s-70.834 13.5 -111.501 13.5
c-27.333 0 -52.833 -1.83301 -76.5 -5.5s-45.167 -12.834 -64.5 -27.501s-36 -36.834 -50 -66.501s-24.667 -70.5 -32 -122.5c-6.66699 -48.667 -8.83398 -88 -6.50098 -118s9.83301 -53.167 22.5 -69.5s31 -27.333 55 -33s54.333 -8.5 91 -8.5
c20.667 0 42.167 1.83301 64.5 5.5s40.5 7.83398 54.5 12.501zM498.004 737.001h-118l17 123h118z" />
    <glyph glyph-name="gdotaccent" unicode="&#x121;" horiz-adv-x="672" 
d="M539 279l-144.996 0.000976562l25 107h263l-48 -341c-14.667 -8 -32.334 -15.333 -53.001 -22s-42.834 -12.5 -66.501 -17.5s-48.167 -8.83301 -73.5 -11.5s-50 -4 -74 -4c-50.667 0 -94.834 4 -132.501 12s-68 24 -91 48s-38.333 58 -46 102s-6.5 101.667 3.5 173
c10 70.667 25.667 127.667 47 171s47.833 76.666 79.5 99.999s67.834 39 108.501 47s85.667 12 135 12c46.667 0 89.167 -3.66699 127.5 -11s70.5 -17.666 96.5 -30.999l-48 -103c-18 7.33301 -43.833 15.5 -77.5 24.5s-70.834 13.5 -111.501 13.5
c-27.333 0 -52.833 -1.83301 -76.5 -5.5s-45.167 -12.834 -64.5 -27.501s-36 -36.834 -50 -66.501s-24.667 -70.5 -32 -122.5c-6.66699 -48.667 -8.83398 -88 -6.50098 -118s9.83301 -53.167 22.5 -69.5s31 -27.333 55 -33s54.333 -8.5 91 -8.5
c20.667 0 42.167 1.83301 64.5 5.5s40.5 7.83398 54.5 12.501zM498.004 737.001h-118l17 123h118z" />
    <glyph glyph-name="uni0122" unicode="&#x122;" horiz-adv-x="672" 
d="M539 279l-144.996 0.000976562l25 107h263l-48 -341c-14.667 -8 -32.334 -15.333 -53.001 -22s-42.834 -12.5 -66.501 -17.5s-48.167 -8.83301 -73.5 -11.5s-50 -4 -74 -4c-50.667 0 -94.834 4 -132.501 12s-68 24 -91 48s-38.333 58 -46 102s-6.5 101.667 3.5 173
c10 70.667 25.667 127.667 47 171s47.833 76.666 79.5 99.999s67.834 39 108.501 47s85.667 12 135 12c46.667 0 89.167 -3.66699 127.5 -11s70.5 -17.666 96.5 -30.999l-48 -103c-18 7.33301 -43.833 15.5 -77.5 24.5s-70.834 13.5 -111.501 13.5
c-27.333 0 -52.833 -1.83301 -76.5 -5.5s-45.167 -12.834 -64.5 -27.501s-36 -36.834 -50 -66.501s-24.667 -70.5 -32 -122.5c-6.66699 -48.667 -8.83398 -88 -6.50098 -118s9.83301 -53.167 22.5 -69.5s31 -27.333 55 -33s54.333 -8.5 91 -8.5
c20.667 0 42.167 1.83301 64.5 5.5s40.5 7.83398 54.5 12.501zM282.004 -224.999c18 7.33301 32 18.333 42 33s18 35 24 61h-50l17 123h117l-19 -133c-4 -30 -14.5 -54.833 -31.5 -74.5s-40.833 -35.167 -71.5 -46.5z" />
    <glyph glyph-name="uni0123" unicode="&#x123;" horiz-adv-x="672" 
d="M539 279l-144.996 0.000976562l25 107h263l-48 -341c-14.667 -8 -32.334 -15.333 -53.001 -22s-42.834 -12.5 -66.501 -17.5s-48.167 -8.83301 -73.5 -11.5s-50 -4 -74 -4c-50.667 0 -94.834 4 -132.501 12s-68 24 -91 48s-38.333 58 -46 102s-6.5 101.667 3.5 173
c10 70.667 25.667 127.667 47 171s47.833 76.666 79.5 99.999s67.834 39 108.501 47s85.667 12 135 12c46.667 0 89.167 -3.66699 127.5 -11s70.5 -17.666 96.5 -30.999l-48 -103c-18 7.33301 -43.833 15.5 -77.5 24.5s-70.834 13.5 -111.501 13.5
c-27.333 0 -52.833 -1.83301 -76.5 -5.5s-45.167 -12.834 -64.5 -27.501s-36 -36.834 -50 -66.501s-24.667 -70.5 -32 -122.5c-6.66699 -48.667 -8.83398 -88 -6.50098 -118s9.83301 -53.167 22.5 -69.5s31 -27.333 55 -33s54.333 -8.5 91 -8.5
c20.667 0 42.167 1.83301 64.5 5.5s40.5 7.83398 54.5 12.501zM282.004 -224.999c18 7.33301 32 18.333 42 33s18 35 24 61h-50l17 123h117l-19 -133c-4 -30 -14.5 -54.833 -31.5 -74.5s-40.833 -35.167 -71.5 -46.5z" />
    <glyph glyph-name="Hcircumflex" unicode="&#x124;" horiz-adv-x="681" 
d="M470 0l40 287h-260l-40 -287h-131l90 642h131l-35 -246h260l35 246h131l-90 -642h-131zM500 707l-47 84l-71 -84h-72l51 54l52 53h80l76 -107h-69z" />
    <glyph glyph-name="hcircumflex" unicode="&#x125;" horiz-adv-x="681" 
d="M470 0l40 287h-260l-40 -287h-131l90 642h131l-35 -246h260l35 246h131l-90 -642h-131zM500 707l-47 84l-71 -84h-72l51 54l52 53h80l76 -107h-69z" />
    <glyph glyph-name="Hbar" unicode="&#x126;" horiz-adv-x="681" 
d="M470 0l40 287h-260l-40 -287h-131l69 493h-79l5 38h79l16 111h131l-16 -111h260l16 111h131l-16 -111h81l-5 -38h-81l-69 -493h-131zM525 396l14 97h-260l-14 -97h260z" />
    <glyph glyph-name="hbar" unicode="&#x127;" horiz-adv-x="681" 
d="M470 0l40 287h-260l-40 -287h-131l69 493h-79l5 38h79l16 111h131l-16 -111h260l16 111h131l-16 -111h81l-5 -38h-81l-69 -493h-131zM525 396l14 97h-260l-14 -97h260z" />
    <glyph glyph-name="Itilde" unicode="&#x128;" horiz-adv-x="241" 
d="M50 0l90 642h132l-90 -642h-132zM383 803c-6 -26.667 -17.5 -47.335 -34.5 -62.002s-36.833 -22 -59.5 -22c-9.33301 0 -19.833 2.16699 -31.5 6.5s-25.167 10.5 -40.5 18.5c-20 12 -36 18 -48 18c-8 0 -14.833 -1.16699 -20.5 -3.5s-11.5 -6.16602 -17.5 -11.499
c-3.33301 -3.33301 -6.5 -7.33301 -9.5 -12s-5.16699 -10.667 -6.5 -18h-43c2.66699 13.333 6.5 24.5 11.5 33.5s12.167 17.5 21.5 25.5c19.333 17.333 41.666 26 66.999 26c9.33301 0 20 -2.16699 32 -6.5s25.667 -10.166 41 -17.499c18 -10 33.667 -15 47 -15
c12.667 0 22.834 2.66699 30.501 8s14.167 16 19.5 32h41z" />
    <glyph glyph-name="itilde" unicode="&#x129;" horiz-adv-x="241" 
d="M50 0l90 642h132l-90 -642h-132zM383 803c-6 -26.667 -17.5 -47.335 -34.5 -62.002s-36.833 -22 -59.5 -22c-9.33301 0 -19.833 2.16699 -31.5 6.5s-25.167 10.5 -40.5 18.5c-20 12 -36 18 -48 18c-8 0 -14.833 -1.16699 -20.5 -3.5s-11.5 -6.16602 -17.5 -11.499
c-3.33301 -3.33301 -6.5 -7.33301 -9.5 -12s-5.16699 -10.667 -6.5 -18h-43c2.66699 13.333 6.5 24.5 11.5 33.5s12.167 17.5 21.5 25.5c19.333 17.333 41.666 26 66.999 26c9.33301 0 20 -2.16699 32 -6.5s25.667 -10.166 41 -17.499c18 -10 33.667 -15 47 -15
c12.667 0 22.834 2.66699 30.501 8s14.167 16 19.5 32h41z" />
    <glyph glyph-name="Imacron" unicode="&#x12a;" horiz-adv-x="241" 
d="M50 0l90 642h132l-90 -642h-132zM88 745l6 38h275l-6 -38h-275z" />
    <glyph glyph-name="imacron" unicode="&#x12b;" horiz-adv-x="241" 
d="M50 0l90 642h132l-90 -642h-132zM88 745l6 38h275l-6 -38h-275z" />
    <glyph glyph-name="Ibreve" unicode="&#x12c;" horiz-adv-x="241" 
d="M50 0l90 642h132l-90 -642h-132zM375 819c-11.333 -35.333 -30.332 -62.832 -56.999 -82.499s-59 -29.5 -97 -29.5c-39.333 0 -69.333 9.16699 -90 27.5s-31.334 46.5 -32.001 84.5h43c4 -46 31.333 -69 82 -69c29.333 0 52.5 5.66699 69.5 17s30.167 28.666 39.5 51.999
h42z" />
    <glyph glyph-name="ibreve" unicode="&#x12d;" horiz-adv-x="241" 
d="M50 0l90 642h132l-90 -642h-132zM371 795c-11.333 -35.333 -30.333 -62.832 -57 -82.499s-59 -29.5 -97 -29.5c-79.333 0 -120 37.333 -122 112h43c5.33301 -46 33 -69 83 -69c29.333 0 52.333 5.66699 69 17s29.667 28.666 39 51.999h42z" />
    <glyph glyph-name="Iogonek" unicode="&#x12e;" horiz-adv-x="289" 
d="M254 -151c-8.66699 -1.33301 -18.166 -2.16797 -28.499 -2.50098s-20.5 -0.5 -30.5 -0.5c-20.667 0 -38.5 2.16699 -53.5 6.5s-27.5 10 -37.5 17s-17 15 -21 24s-5.33301 18.5 -4 28.5c1.33301 14 9.83301 26.5 25.5 37.5s38.5 18.167 68.5 21.5l-3 19h-92l90 642h132
l-90 -640l5 -34c-16 -0.666992 -28.833 -2.16699 -38.5 -4.5s-17.167 -5.33301 -22.5 -9s-9 -7.66699 -11 -12s-3.33301 -9.16602 -4 -14.499c-0.666992 -12 3.66602 -22.667 12.999 -32c14.667 -9.33301 37 -14 67 -14h14c6 0 11.667 0.333008 17 1h4v-34z" />
    <glyph glyph-name="iogonek" unicode="&#x12f;" horiz-adv-x="289" 
d="M254 -151c-8.66699 -1.33301 -18.166 -2.16797 -28.499 -2.50098s-20.5 -0.5 -30.5 -0.5c-20.667 0 -38.5 2.16699 -53.5 6.5s-27.5 10 -37.5 17s-17 15 -21 24s-5.33301 18.5 -4 28.5c1.33301 14 9.83301 26.5 25.5 37.5s38.5 18.167 68.5 21.5l-3 19h-92l90 642h132
l-90 -640l5 -34c-16 -0.666992 -28.833 -2.16699 -38.5 -4.5s-17.167 -5.33301 -22.5 -9s-9 -7.66699 -11 -12s-3.33301 -9.16602 -4 -14.499c-0.666992 -12 3.66602 -22.667 12.999 -32c14.667 -9.33301 37 -14 67 -14h14c6 0 11.667 0.333008 17 1h4v-34z" />
    <glyph glyph-name="Idotaccent" unicode="&#x130;" horiz-adv-x="241" 
d="M50 0l90 642h132l-90 -642h-132zM282 737h-118l17 123h118z" />
    <glyph glyph-name="dotlessi" unicode="&#x131;" horiz-adv-x="290" 
d="M79 0l90 642h132l-90 -642h-132z" />
    <glyph glyph-name="IJ" unicode="&#x132;" horiz-adv-x="563" 
d="M50 0l90 642h132l-90 -642h-132zM260 98c20.667 0 38.332 0.668945 52.999 2.00195s27 5.16602 37 11.499s17.833 16.166 23.5 29.499s10.167 32 13.5 56l63 445h131l-62 -441c-6 -44 -15 -79.5 -27 -106.5s-28.833 -47.833 -50.5 -62.5s-48.667 -24.5 -81 -29.5
s-72.166 -7.5 -119.499 -7.5z" />
    <glyph glyph-name="ij" unicode="&#x133;" horiz-adv-x="573" 
d="M50 0l90 642h132l-90 -642h-132zM270 98c20.667 0 38.332 0.668945 52.999 2.00195s27 5.16602 37 11.499s17.833 16.166 23.5 29.499s10.167 32 13.5 56l63 445h131l-62 -441c-6 -44 -15 -79.5 -27 -106.5s-28.833 -47.833 -50.5 -62.5s-48.667 -24.5 -81 -29.5
s-72.166 -7.5 -119.499 -7.5z" />
    <glyph glyph-name="Jcircumflex" unicode="&#x134;" horiz-adv-x="322" 
d="M19 98c20.667 0 38.332 0.668945 52.999 2.00195s27 5.16602 37 11.499s17.833 16.166 23.5 29.499s10.167 32 13.5 56l63 445h131l-62 -441c-6 -44 -15 -79.5 -27 -106.5s-28.833 -47.833 -50.5 -62.5s-48.667 -24.5 -81 -29.5s-72.166 -7.5 -119.499 -7.5z
M372.998 707.002l-47 84l-71 -84h-72l51 54l52 53h80l76 -107h-69z" />
    <glyph glyph-name="jcircumflex" unicode="&#x135;" horiz-adv-x="322" 
d="M19 98c20.667 0 38.332 0.668945 52.999 2.00195s27 5.16602 37 11.499s17.833 16.166 23.5 29.499s10.167 32 13.5 56l63 445h131l-62 -441c-6 -44 -15 -79.5 -27 -106.5s-28.833 -47.833 -50.5 -62.5s-48.667 -24.5 -81 -29.5s-72.166 -7.5 -119.499 -7.5z
M375.998 707.002l-47 84l-71 -84h-72l51 54l52 53h80l76 -107h-69z" />
    <glyph glyph-name="uni0136" unicode="&#x136;" horiz-adv-x="675" 
d="M306 267h-59l-37 -267h-131l90 642h131l-38 -268h59l235 268h154l-145 -160.5l-146 -160.5l100.5 -161l100.5 -160h-154zM242 -246c18 7.33301 32 18.333 42 33s18 35 24 61h-50l17 123h117l-19 -133c-4 -30 -14.5 -54.833 -31.5 -74.5s-40.833 -35.167 -71.5 -46.5z" />
    <glyph glyph-name="uni0137" unicode="&#x137;" horiz-adv-x="680" 
d="M298 267l-57 -0.000976562l-37 -267h-131l90 642h131l-38 -268h57l242 268h149l-145 -160.5l-146 -160.5l151 -216c8.66699 -8 21.667 -12.167 39 -12.5s33.333 -0.166016 48 0.500977l-24 -93c-21.333 -2 -41.333 -3.16699 -60 -3.5s-36.5 2.5 -53.5 8.5
s-33.333 15.833 -49 29.5s-31.5 33.167 -47.5 58.5zM242 -246.001c18 7.33301 32 18.333 42 33s18 35 24 61h-50l17 123h117l-19 -133c-4 -30 -14.5 -54.833 -31.5 -74.5s-40.833 -35.167 -71.5 -46.5z" />
    <glyph glyph-name="kgreenlandic" unicode="&#x138;" horiz-adv-x="680" 
d="M298 267l-57 -0.000976562l-37 -267h-131l90 642h131l-38 -268h57l242 268h149l-145 -160.5l-146 -160.5l151 -216c8.66699 -8 21.667 -12.167 39 -12.5s33.333 -0.166016 48 0.500977l-24 -93c-21.333 -2 -41.333 -3.16699 -60 -3.5s-36.5 2.5 -53.5 8.5
s-33.333 15.833 -49 29.5s-31.5 33.167 -47.5 58.5z" />
    <glyph glyph-name="Lacute" unicode="&#x139;" horiz-adv-x="532" 
d="M79 0l90 642h131l-75 -534h322l-25 -108h-443zM175 689l68 107h85l-52 -53.5l-51 -53.5h-50z" />
    <glyph glyph-name="lacute" unicode="&#x13a;" horiz-adv-x="532" 
d="M79 0l90 642h131l-75 -534h322l-25 -108h-443zM175 689l68 107h85l-52 -53.5l-51 -53.5h-50z" />
    <glyph glyph-name="uni013B" unicode="&#x13b;" horiz-adv-x="532" 
d="M79 0l90 642h131l-75 -534h322l-25 -108h-443zM171 -246c18 7.33301 32 18.333 42 33s18 35 24 61h-50l17 123h117l-19 -133c-4 -30 -14.5 -54.833 -31.5 -74.5s-40.833 -35.167 -71.5 -46.5z" />
    <glyph glyph-name="uni013C" unicode="&#x13c;" horiz-adv-x="532" 
d="M79 0l90 642h131l-75 -534h322l-25 -108h-443zM242 -246c18 7.33301 32 18.333 42 33s18 35 24 61h-50l17 123h117l-19 -133c-4 -30 -14.5 -54.833 -31.5 -74.5s-40.833 -35.167 -71.5 -46.5z" />
    <glyph glyph-name="Lcaron" unicode="&#x13d;" horiz-adv-x="532" 
d="M79 0l90 642h131l-75 -534h322l-25 -108h-443zM427 440c18 7.33301 32 18.333 42 33s18 35 24 61h-50l17 123h117l-19 -133c-4 -30 -14.5 -54.833 -31.5 -74.5s-40.833 -35.167 -71.5 -46.5z" />
    <glyph glyph-name="lcaron" unicode="&#x13e;" horiz-adv-x="532" 
d="M79 0l90 642h131l-75 -534h322l-25 -108h-443zM427 440c18 7.33301 32 18.333 42 33s18 35 24 61h-50l17 123h117l-19 -133c-4 -30 -14.5 -54.833 -31.5 -74.5s-40.833 -35.167 -71.5 -46.5z" />
    <glyph glyph-name="Ldot" unicode="&#x13f;" horiz-adv-x="532" 
d="M79 0l90 642h131l-75 -534h322l-25 -108h-443zM368 292l10 73h77l-10 -73h-77z" />
    <glyph glyph-name="ldot" unicode="&#x140;" horiz-adv-x="532" 
d="M79 0l90 642h131l-75 -534h322l-25 -108h-443zM368 292l10 73h77l-10 -73h-77z" />
    <glyph glyph-name="Lslash" unicode="&#x141;" horiz-adv-x="532" 
d="M79 0l27 198l-89 -56l-5 73l106 68l51 359h131l-38 -268l140 89l4 -75l-156 -99l-25 -181h322l-25 -108h-443z" />
    <glyph glyph-name="lslash" unicode="&#x142;" horiz-adv-x="532" 
d="M79 0l27 198l-89 -56l-5 73l106 68l51 359h131l-38 -268l140 89l4 -75l-156 -99l-25 -181h322l-25 -108h-443z" />
    <glyph glyph-name="Nacute" unicode="&#x143;" horiz-adv-x="685" 
d="M466 0l-200 424l-59 -424h-128l90 642h140l199 -422l60 422h127l-90 -642h-139zM368 689l68 107h85l-52 -53.5l-51 -53.5h-50z" />
    <glyph glyph-name="nacute" unicode="&#x144;" horiz-adv-x="685" 
d="M466 0l-200 424l-59 -424h-128l90 642h140l199 -422l60 422h127l-90 -642h-139zM368 689l68 107h85l-52 -53.5l-51 -53.5h-50z" />
    <glyph glyph-name="uni0145" unicode="&#x145;" horiz-adv-x="685" 
d="M466 0l-200 424l-59 -424h-128l90 642h140l199 -422l60 422h127l-90 -642h-139zM247 -246c18 7.33301 32 18.333 42 33s18 35 24 61h-50l17 123h117l-19 -133c-4 -30 -14.5 -54.833 -31.5 -74.5s-40.833 -35.167 -71.5 -46.5z" />
    <glyph glyph-name="uni0146" unicode="&#x146;" horiz-adv-x="685" 
d="M466 0l-200 424l-59 -424h-128l90 642h140l199 -422l60 422h127l-90 -642h-139zM247 -246c18 7.33301 32 18.333 42 33s18 35 24 61h-50l17 123h117l-19 -133c-4 -30 -14.5 -54.833 -31.5 -74.5s-40.833 -35.167 -71.5 -46.5z" />
    <glyph glyph-name="Ncaron" unicode="&#x147;" horiz-adv-x="685" 
d="M466 0l-200 424l-59 -424h-128l90 642h140l199 -422l60 422h127l-90 -642h-139zM487 693h-96l-78 102h77l53 -75l73 75h77z" />
    <glyph glyph-name="ncaron" unicode="&#x148;" horiz-adv-x="685" 
d="M466 0l-200 424l-59 -424h-128l90 642h140l199 -422l60 422h127l-90 -642h-139zM487 693h-96l-78 102h77l53 -75l73 75h77z" />
    <glyph glyph-name="napostrophe" unicode="&#x149;" horiz-adv-x="685" 
d="M466 0l-200 424l-59 -424h-128l90 642h140l199 -422l60 422h127l-90 -642h-139zM74 678c18 7.33301 32 18.333 42 33s18 35 24 61h-50l17 123h117l-19 -133c-4 -30 -14.5 -54.833 -31.5 -74.5s-40.833 -35.167 -71.5 -46.5z" />
    <glyph glyph-name="Eng" unicode="&#x14a;" horiz-adv-x="685" 
d="M605 0c-4.66699 -32.667 -13.5 -59.168 -26.5 -79.501s-30.667 -36 -53 -47s-49.5 -18.333 -81.5 -22s-69 -5.5 -111 -5.5l19 93c16.667 0 33.5 0.833008 50.5 2.5s31.5 4.83398 43.5 9.50098s20.167 11 24.5 19s2.83301 18 -4.5 30l-200 424l-59 -424h-128l90 642h140
l199 -422l60 422h127l-90 -642v0z" />
    <glyph glyph-name="eng" unicode="&#x14b;" horiz-adv-x="685" 
d="M605 0c-4.66699 -32.667 -13.5 -59.168 -26.5 -79.501s-30.667 -36 -53 -47s-49.5 -18.333 -81.5 -22s-69 -5.5 -111 -5.5l19 93c16.667 0 33.5 0.833008 50.5 2.5s31.5 4.83398 43.5 9.50098s20.167 11 24.5 19s2.83301 18 -4.5 30l-200 424l-59 -424h-128l90 642h140
l199 -422l60 422h127l-90 -642v0z" />
    <glyph glyph-name="Omacron" unicode="&#x14c;" 
d="M456 549c-25.333 0 -49.499 -1.16699 -72.499 -3.5s-44.167 -10.666 -63.5 -24.999s-36.166 -36.833 -50.499 -67.5s-25.5 -74.334 -33.5 -131.001s-9.16699 -100.334 -3.5 -131.001s16.167 -53.167 31.5 -67.5s34.166 -22.666 56.499 -24.999s46.166 -3.5 71.499 -3.5
c24.667 0 48.5 1.16699 71.5 3.5s44.167 10.666 63.5 24.999s36.333 36.833 51 67.5s26 74.334 34 131.001s9 100.334 3 131.001s-16.833 53.167 -32.5 67.5s-34.667 22.666 -57 24.999s-45.5 3.5 -69.5 3.5zM102.001 322c10 72 26.501 129.833 49.501 173.5
s50.667 77.334 83 101.001s68.666 39.334 108.999 47.001s82.833 11.5 127.5 11.5s86 -3.83301 124 -11.5s69.833 -23.334 95.5 -47.001s43.834 -57.334 54.501 -101.001s11 -101.5 1 -173.5s-26.5 -129.833 -49.5 -173.5s-50.833 -77.334 -83.5 -101.001
s-69 -39.334 -109 -47.001s-82.333 -11.5 -127 -11.5s-86 3.83301 -124 11.5s-69.833 23.334 -95.5 47.001s-43.834 57.334 -54.501 101.001s-11 101.5 -1 173.5zM345.002 745l6 38h275l-6 -38h-275z" />
    <glyph glyph-name="omacron" unicode="&#x14d;" 
d="M456 549c-25.333 0 -49.499 -1.16699 -72.499 -3.5s-44.167 -10.666 -63.5 -24.999s-36.166 -36.833 -50.499 -67.5s-25.5 -74.334 -33.5 -131.001s-9.16699 -100.334 -3.5 -131.001s16.167 -53.167 31.5 -67.5s34.166 -22.666 56.499 -24.999s46.166 -3.5 71.499 -3.5
c24.667 0 48.5 1.16699 71.5 3.5s44.167 10.666 63.5 24.999s36.333 36.833 51 67.5s26 74.334 34 131.001s9 100.334 3 131.001s-16.833 53.167 -32.5 67.5s-34.667 22.666 -57 24.999s-45.5 3.5 -69.5 3.5zM102.001 322c10 72 26.501 129.833 49.501 173.5
s50.667 77.334 83 101.001s68.666 39.334 108.999 47.001s82.833 11.5 127.5 11.5s86 -3.83301 124 -11.5s69.833 -23.334 95.5 -47.001s43.834 -57.334 54.501 -101.001s11 -101.5 1 -173.5s-26.5 -129.833 -49.5 -173.5s-50.833 -77.334 -83.5 -101.001
s-69 -39.334 -109 -47.001s-82.333 -11.5 -127 -11.5s-86 3.83301 -124 11.5s-69.833 23.334 -95.5 47.001s-43.834 57.334 -54.501 101.001s-11 101.5 -1 173.5zM345.002 745l6 38h275l-6 -38h-275z" />
    <glyph glyph-name="Obreve" unicode="&#x14e;" 
d="M456 549c-25.333 0 -49.499 -1.16699 -72.499 -3.5s-44.167 -10.666 -63.5 -24.999s-36.166 -36.833 -50.499 -67.5s-25.5 -74.334 -33.5 -131.001s-9.16699 -100.334 -3.5 -131.001s16.167 -53.167 31.5 -67.5s34.166 -22.666 56.499 -24.999s46.166 -3.5 71.499 -3.5
c24.667 0 48.5 1.16699 71.5 3.5s44.167 10.666 63.5 24.999s36.333 36.833 51 67.5s26 74.334 34 131.001s9 100.334 3 131.001s-16.833 53.167 -32.5 67.5s-34.667 22.666 -57 24.999s-45.5 3.5 -69.5 3.5zM102.001 322c10 72 26.501 129.833 49.501 173.5
s50.667 77.334 83 101.001s68.666 39.334 108.999 47.001s82.833 11.5 127.5 11.5s86 -3.83301 124 -11.5s69.833 -23.334 95.5 -47.001s43.834 -57.334 54.501 -101.001s11 -101.5 1 -173.5s-26.5 -129.833 -49.5 -173.5s-50.833 -77.334 -83.5 -101.001
s-69 -39.334 -109 -47.001s-82.333 -11.5 -127 -11.5s-86 3.83301 -124 11.5s-69.833 23.334 -95.5 47.001s-43.834 57.334 -54.501 101.001s-11 101.5 -1 173.5zM632.002 819c-11.333 -35.333 -30.332 -62.832 -56.999 -82.499s-59 -29.5 -97 -29.5
c-39.333 0 -69.333 9.16699 -90 27.5s-31.334 46.5 -32.001 84.5h43c4 -46 31.333 -69 82 -69c29.333 0 52.5 5.66699 69.5 17s30.167 28.666 39.5 51.999h42z" />
    <glyph glyph-name="obreve" unicode="&#x14f;" 
d="M456 549c-25.333 0 -49.499 -1.16699 -72.499 -3.5s-44.167 -10.666 -63.5 -24.999s-36.166 -36.833 -50.499 -67.5s-25.5 -74.334 -33.5 -131.001s-9.16699 -100.334 -3.5 -131.001s16.167 -53.167 31.5 -67.5s34.166 -22.666 56.499 -24.999s46.166 -3.5 71.499 -3.5
c24.667 0 48.5 1.16699 71.5 3.5s44.167 10.666 63.5 24.999s36.333 36.833 51 67.5s26 74.334 34 131.001s9 100.334 3 131.001s-16.833 53.167 -32.5 67.5s-34.667 22.666 -57 24.999s-45.5 3.5 -69.5 3.5zM102.001 322c10 72 26.501 129.833 49.501 173.5
s50.667 77.334 83 101.001s68.666 39.334 108.999 47.001s82.833 11.5 127.5 11.5s86 -3.83301 124 -11.5s69.833 -23.334 95.5 -47.001s43.834 -57.334 54.501 -101.001s11 -101.5 1 -173.5s-26.5 -129.833 -49.5 -173.5s-50.833 -77.334 -83.5 -101.001
s-69 -39.334 -109 -47.001s-82.333 -11.5 -127 -11.5s-86 3.83301 -124 11.5s-69.833 23.334 -95.5 47.001s-43.834 57.334 -54.501 101.001s-11 101.5 -1 173.5zM632.002 819c-11.333 -35.333 -30.332 -62.832 -56.999 -82.499s-59 -29.5 -97 -29.5
c-39.333 0 -69.333 9.16699 -90 27.5s-31.334 46.5 -32.001 84.5h43c4 -46 31.333 -69 82 -69c29.333 0 52.5 5.66699 69.5 17s30.167 28.666 39.5 51.999h42z" />
    <glyph glyph-name="Ohungarumlaut" unicode="&#x150;" 
d="M456 549c-25.333 0 -49.499 -1.16699 -72.499 -3.5s-44.167 -10.666 -63.5 -24.999s-36.166 -36.833 -50.499 -67.5s-25.5 -74.334 -33.5 -131.001s-9.16699 -100.334 -3.5 -131.001s16.167 -53.167 31.5 -67.5s34.166 -22.666 56.499 -24.999s46.166 -3.5 71.499 -3.5
c24.667 0 48.5 1.16699 71.5 3.5s44.167 10.666 63.5 24.999s36.333 36.833 51 67.5s26 74.334 34 131.001s9 100.334 3 131.001s-16.833 53.167 -32.5 67.5s-34.667 22.666 -57 24.999s-45.5 3.5 -69.5 3.5zM102.001 322c10 72 26.501 129.833 49.501 173.5
s50.667 77.334 83 101.001s68.666 39.334 108.999 47.001s82.833 11.5 127.5 11.5s86 -3.83301 124 -11.5s69.833 -23.334 95.5 -47.001s43.834 -57.334 54.501 -101.001s11 -101.5 1 -173.5s-26.5 -129.833 -49.5 -173.5s-50.833 -77.334 -83.5 -101.001
s-69 -39.334 -109 -47.001s-82.333 -11.5 -127 -11.5s-86 3.83301 -124 11.5s-69.833 23.334 -95.5 47.001s-43.834 57.334 -54.501 101.001s-11 101.5 -1 173.5zM322.002 707l68 106.999h85c-20 -19.333 -37.667 -37.166 -53 -53.499l-50 -53.5h-50zM496.002 706.999
l68 106.999h85c-20 -19.333 -37.667 -37.166 -53 -53.499l-50 -53.5h-50z" />
    <glyph glyph-name="ohungarumlaut" unicode="&#x151;" 
d="M456 549c-25.333 0 -49.499 -1.16699 -72.499 -3.5s-44.167 -10.666 -63.5 -24.999s-36.166 -36.833 -50.499 -67.5s-25.5 -74.334 -33.5 -131.001s-9.16699 -100.334 -3.5 -131.001s16.167 -53.167 31.5 -67.5s34.166 -22.666 56.499 -24.999s46.166 -3.5 71.499 -3.5
c24.667 0 48.5 1.16699 71.5 3.5s44.167 10.666 63.5 24.999s36.333 36.833 51 67.5s26 74.334 34 131.001s9 100.334 3 131.001s-16.833 53.167 -32.5 67.5s-34.667 22.666 -57 24.999s-45.5 3.5 -69.5 3.5zM102.001 322c10 72 26.501 129.833 49.501 173.5
s50.667 77.334 83 101.001s68.666 39.334 108.999 47.001s82.833 11.5 127.5 11.5s86 -3.83301 124 -11.5s69.833 -23.334 95.5 -47.001s43.834 -57.334 54.501 -101.001s11 -101.5 1 -173.5s-26.5 -129.833 -49.5 -173.5s-50.833 -77.334 -83.5 -101.001
s-69 -39.334 -109 -47.001s-82.333 -11.5 -127 -11.5s-86 3.83301 -124 11.5s-69.833 23.334 -95.5 47.001s-43.834 57.334 -54.501 101.001s-11 101.5 -1 173.5zM322.002 707l68 106.999h85c-20 -19.333 -37.667 -37.166 -53 -53.499l-50 -53.5h-50zM496.002 706.999
l68 106.999h85c-20 -19.333 -37.667 -37.166 -53 -53.499l-50 -53.5h-50z" />
    <glyph glyph-name="OE" unicode="&#x152;" horiz-adv-x="1167" 
d="M600 0l9.00098 69.9971c-15.333 -16.667 -32 -30.167 -50 -40.5s-36.667 -18.5 -56 -24.5s-39.666 -10.167 -60.999 -12.5s-43 -3.5 -65 -3.5c-44.667 0 -86 3.83301 -124 11.5s-69.833 23.334 -95.5 47.001s-43.834 57.334 -54.501 101.001s-11 101.5 -1 173.5
s26.5 129.833 49.5 173.5s50.667 77.334 83 101.001s68.666 39.334 108.999 47.001s82.833 11.5 127.5 11.5s85.167 -5.33301 121.5 -16s65.5 -32.334 87.5 -65.001l10 68h510l-25 -107h-368l-22 -154h293l-14 -97h-293l-24 -176h378l-25 -108h-500zM392.001 94.9971
c28.667 0 56.334 1.16699 83.001 3.5s51 10.666 73 24.999s41.167 36.833 57.5 67.5s28.5 74.334 36.5 131.001s8 100.334 0 131.001s-21 53.167 -39 67.5s-40 22.666 -66 24.999s-53 3.5 -81 3.5c-25.333 0 -49.5 -1.16699 -72.5 -3.5s-44.167 -10.666 -63.5 -24.999
s-36.166 -36.833 -50.499 -67.5s-25.5 -74.334 -33.5 -131.001s-9.16699 -100.334 -3.5 -131.001s16.167 -53.167 31.5 -67.5s34.166 -22.666 56.499 -24.999s46.166 -3.5 71.499 -3.5z" />
    <glyph glyph-name="oe" unicode="&#x153;" horiz-adv-x="1286" 
d="M1203 38c-14.667 -6.66699 -32.5 -13.0029 -53.5 -19.0029s-43.333 -11.333 -67 -16s-48 -8.5 -73 -11.5s-49.167 -4.5 -72.5 -4.5c-34 0 -65.167 1.66699 -93.5 5s-53.666 9.66602 -75.999 18.999s-41.333 22.166 -57 38.499s-27.834 37.166 -36.501 62.499
c-17.333 -25.333 -36.833 -46 -58.5 -62s-45.167 -28.5 -70.5 -37.5s-52.166 -15.167 -80.499 -18.5s-57.5 -5 -87.5 -5c-44.667 0 -86 3.83301 -124 11.5s-69.833 23.334 -95.5 47.001s-43.834 57.334 -54.501 101.001s-11 101.5 -1 173.5s26.5 129.833 49.5 173.5
s50.667 77.334 83 101.001s68.666 39.334 108.999 47.001s82.833 11.5 127.5 11.5c30.667 0 59.834 -1.66699 87.501 -5s53 -9.83301 76 -19.5s43.167 -23 60.5 -40s31 -38.833 41 -65.5c16 26 34.333 47.5 55 64.5s43 30.333 67 40s49.833 16.334 77.5 20.001
s56.5 5.5 86.5 5.5c48 0 89.833 -4.66699 125.5 -14s64.5 -26.166 86.5 -50.499s36.667 -57.5 44 -99.5s6.33301 -96 -3 -162l-7 -46h-509l-1 -10c-4 -38 -3.16699 -68.667 2.5 -92s16.834 -41.5 33.501 -54.5s39.167 -21.667 67.5 -26s63.5 -6.5 105.5 -6.5
c20 0 40.833 1.83301 62.5 5.5s42.167 8 61.5 13s37.166 10.167 53.499 15.5l39.5 13zM644 347.997c5.33301 50 3.66895 88.6689 -4.99805 116.002s-22 47.166 -40 59.499s-39.667 19.666 -65 21.999s-51.333 3.5 -78 3.5c-25.333 0 -49.5 -1.16699 -72.5 -3.5
s-44.167 -10.666 -63.5 -24.999s-36.166 -36.833 -50.499 -67.5s-25.5 -74.334 -33.5 -131.001s-9.16699 -100.334 -3.5 -131.001s16.167 -53.167 31.5 -67.5s34.166 -22.666 56.499 -24.999s46.166 -3.5 71.499 -3.5c26.667 0 52.834 1 78.501 3s49.167 9 70.5 21
s40.166 31 56.499 57s29.166 63 38.499 111zM1146 380.999c2.66699 36 2.00195 65 -1.99805 87s-11.833 39 -23.5 51s-26.834 20 -45.501 24s-41.334 6 -68.001 6c-28 0 -54.5 -1.33301 -79.5 -4s-47.5 -9.5 -67.5 -20.5s-37.333 -27.667 -52 -50s-26 -53.5 -34 -93.5h372z
" />
    <glyph glyph-name="Racute" unicode="&#x154;" horiz-adv-x="669" 
d="M467 0l-137.998 230.998h-86l-32 -231h-132l90 642h260c47.333 0 86.666 -2.5 117.999 -7.5s55.666 -14.833 72.999 -29.5s28.166 -35.5 32.499 -62.5s3.5 -62.5 -2.5 -106.5c-5.33301 -35.333 -12.166 -65 -20.499 -89s-19.5 -43.667 -33.5 -59s-31 -27.166 -51 -35.499
s-44 -14.166 -72 -17.499l145 -235h-151zM388.002 337.998c20.667 0 38.333 0.668945 53 2.00195s27 5.33301 37 12s17.833 16.5 23.5 29.5s10.167 31.167 13.5 54.5c3.33301 24 3.83301 42.667 1.5 56s-7.5 23.166 -15.5 29.499s-19 10.166 -33 11.499s-31.333 2 -52 2
h-130l-28 -197h130zM360.001 689l68 107h85l-52 -53.5l-51 -53.5h-50z" />
    <glyph glyph-name="racute" unicode="&#x155;" horiz-adv-x="669" 
d="M467 0l-137.998 230.998h-86l-32 -231h-132l90 642h260c47.333 0 86.666 -2.5 117.999 -7.5s55.666 -14.833 72.999 -29.5s28.166 -35.5 32.499 -62.5s3.5 -62.5 -2.5 -106.5c-5.33301 -35.333 -12.166 -65 -20.499 -89s-19.5 -43.667 -33.5 -59s-31 -27.166 -51 -35.499
s-44 -14.166 -72 -17.499l145 -235h-151zM388.002 337.998c20.667 0 38.333 0.668945 53 2.00195s27 5.33301 37 12s17.833 16.5 23.5 29.5s10.167 31.167 13.5 54.5c3.33301 24 3.83301 42.667 1.5 56s-7.5 23.166 -15.5 29.499s-19 10.166 -33 11.499s-31.333 2 -52 2
h-130l-28 -197h130zM360.001 689l68 107h85l-52 -53.5l-51 -53.5h-50z" />
    <glyph glyph-name="uni0156" unicode="&#x156;" horiz-adv-x="669" 
d="M467 0l-137.998 230.998h-86l-32 -231h-132l90 642h260c47.333 0 86.666 -2.5 117.999 -7.5s55.666 -14.833 72.999 -29.5s28.166 -35.5 32.499 -62.5s3.5 -62.5 -2.5 -106.5c-5.33301 -35.333 -12.166 -65 -20.499 -89s-19.5 -43.667 -33.5 -59s-31 -27.166 -51 -35.499
s-44 -14.166 -72 -17.499l145 -235h-151zM388.002 337.998c20.667 0 38.333 0.668945 53 2.00195s27 5.33301 37 12s17.833 16.5 23.5 29.5s10.167 31.167 13.5 54.5c3.33301 24 3.83301 42.667 1.5 56s-7.5 23.166 -15.5 29.499s-19 10.166 -33 11.499s-31.333 2 -52 2
h-130l-28 -197h130zM245.001 -225c18 7.33301 32 18.333 42 33s18 35 24 61h-50l17 123h117l-19 -133c-4 -30 -14.5 -54.833 -31.5 -74.5s-40.833 -35.167 -71.5 -46.5z" />
    <glyph glyph-name="uni0157" unicode="&#x157;" horiz-adv-x="681" 
d="M79 0l90.002 641.999h259c47.333 0 86.666 -2.5 117.999 -7.5s55.666 -14.833 72.999 -29.5s28.166 -35.5 32.499 -62.5s3.5 -62.5 -2.5 -106.5c-5.33301 -35.333 -12.166 -64.833 -20.499 -88.5s-19.5 -43.334 -33.5 -59.001s-30.833 -27.5 -50.5 -35.5
s-43.5 -13.667 -71.5 -17l91 -131c3.33301 -4.66699 8.5 -8 15.5 -10s14.5 -3.16699 22.5 -3.5s16.333 -0.166016 25 0.500977s16.667 1 24 1l-24 -93c-21.333 -2 -41 -3 -59 -3s-35.333 3 -52 9s-33.167 15.833 -49.5 29.5s-32.833 32.834 -49.5 57.501l-95 138h-79
l-32 -231h-132zM514.002 438.999c3.33301 22.667 4 40.501 2 53.501s-7 22.667 -15 29s-19.167 10.166 -33.5 11.499s-31.833 2 -52.5 2h-129l-28 -197h129c20.667 0 38.334 0.666992 53.001 2s27 5.16602 37 11.499s17.667 15.833 23 28.5s9.66602 30.334 12.999 53.001z
M245.002 -225c18 7.33301 32 18.333 42 33s18 35 24 61h-50l17 123h117l-19 -133c-4 -30 -14.5 -54.833 -31.5 -74.5s-40.833 -35.167 -71.5 -46.5z" />
    <glyph glyph-name="Rcaron" unicode="&#x158;" horiz-adv-x="669" 
d="M467 0l-137.998 230.998h-86l-32 -231h-132l90 642h260c47.333 0 86.666 -2.5 117.999 -7.5s55.666 -14.833 72.999 -29.5s28.166 -35.5 32.499 -62.5s3.5 -62.5 -2.5 -106.5c-5.33301 -35.333 -12.166 -65 -20.499 -89s-19.5 -43.667 -33.5 -59s-31 -27.166 -51 -35.499
s-44 -14.166 -72 -17.499l145 -235h-151zM388.002 337.998c20.667 0 38.333 0.668945 53 2.00195s27 5.33301 37 12s17.833 16.5 23.5 29.5s10.167 31.167 13.5 54.5c3.33301 24 3.83301 42.667 1.5 56s-7.5 23.166 -15.5 29.499s-19 10.166 -33 11.499s-31.333 2 -52 2
h-130l-28 -197h130zM454.001 693h-96l-78 102h77l53 -75l73 75h77z" />
    <glyph glyph-name="rcaron" unicode="&#x159;" horiz-adv-x="681" 
d="M79 0l90.002 641.999h259c47.333 0 86.666 -2.5 117.999 -7.5s55.666 -14.833 72.999 -29.5s28.166 -35.5 32.499 -62.5s3.5 -62.5 -2.5 -106.5c-5.33301 -35.333 -12.166 -64.833 -20.499 -88.5s-19.5 -43.334 -33.5 -59.001s-30.833 -27.5 -50.5 -35.5
s-43.5 -13.667 -71.5 -17l91 -131c3.33301 -4.66699 8.5 -8 15.5 -10s14.5 -3.16699 22.5 -3.5s16.333 -0.166016 25 0.500977s16.667 1 24 1l-24 -93c-21.333 -2 -41 -3 -59 -3s-35.333 3 -52 9s-33.167 15.833 -49.5 29.5s-32.833 32.834 -49.5 57.501l-95 138h-79
l-32 -231h-132zM514.002 438.999c3.33301 22.667 4 40.501 2 53.501s-7 22.667 -15 29s-19.167 10.166 -33.5 11.499s-31.833 2 -52.5 2h-129l-28 -197h129c20.667 0 38.334 0.666992 53.001 2s27 5.16602 37 11.499s17.667 15.833 23 28.5s9.66602 30.334 12.999 53.001z
M485.002 693h-96l-78 102h77l53 -75l73 75h77z" />
    <glyph glyph-name="Sacute" unicode="&#x15a;" horiz-adv-x="624" 
d="M593 512c-9.33301 3.33301 -21.332 7.00195 -35.999 11.002s-31 7.83301 -49 11.5s-37.167 6.66699 -57.5 9s-40.5 3.5 -60.5 3.5c-40 0 -70.833 -5 -92.5 -15s-34.167 -28 -37.5 -54c-2 -15.333 -3.16699 -27 -3.5 -35s1.33398 -14.5 5.00098 -19.5
s9.66699 -9.16699 18 -12.5s20.166 -7.33301 35.499 -12c36 -9.33301 72.333 -17.833 109 -25.5s69.334 -18.5 98.001 -32.5s51 -33.667 67 -59s21 -60.333 15 -105c-5.33301 -38.667 -16 -70.167 -32 -94.5s-36.167 -43.5 -60.5 -57.5s-52.833 -23.5 -85.5 -28.5
s-68 -7.5 -106 -7.5c-23.333 0 -47.833 1.16699 -73.5 3.5s-50.667 5.83301 -75 10.5s-47 9.83398 -68 15.501s-38.5 12.167 -52.5 19.5l22.5 54.5c7 16.333 14.833 33.166 23.5 50.499c8.66699 -4 21 -8.66699 37 -14s34.667 -10.333 56 -15s45 -8.66699 71 -12
s53.667 -5 83 -5c18.667 0 35.667 0.5 51 1.5s28.5 3.83301 39.5 8.5s20 12.167 27 22.5s11.833 24.833 14.5 43.5c2 14 2.16699 25.333 0.5 34s-5.16699 15.5 -10.5 20.5s-13 9 -23 12s-22.333 6.16699 -37 9.5c-54.667 12 -100.834 22.833 -138.501 32.5
s-67.667 22.167 -90 37.5s-37.166 35.333 -44.499 60s-8 58 -2 100c4 29.333 13.667 55 29 77s34.833 40.167 58.5 54.5s50.167 25.166 79.5 32.499s60 11 92 11c23.333 0 47.166 -0.833008 71.499 -2.5s47.666 -4.16699 69.999 -7.5s43 -7.33301 62 -12
s34.833 -10.334 47.5 -17.001zM366.001 689.002l68 107h85l-52 -53.5l-51 -53.5h-50z" />
    <glyph glyph-name="sacute" unicode="&#x15b;" horiz-adv-x="624" 
d="M593 512c-9.33301 3.33301 -21.332 7.00195 -35.999 11.002s-31 7.83301 -49 11.5s-37.167 6.66699 -57.5 9s-40.5 3.5 -60.5 3.5c-40 0 -70.833 -5 -92.5 -15s-34.167 -28 -37.5 -54c-2 -15.333 -3.16699 -27 -3.5 -35s1.33398 -14.5 5.00098 -19.5
s9.66699 -9.16699 18 -12.5s20.166 -7.33301 35.499 -12c36 -9.33301 72.333 -17.833 109 -25.5s69.334 -18.5 98.001 -32.5s51 -33.667 67 -59s21 -60.333 15 -105c-5.33301 -38.667 -16 -70.167 -32 -94.5s-36.167 -43.5 -60.5 -57.5s-52.833 -23.5 -85.5 -28.5
s-68 -7.5 -106 -7.5c-23.333 0 -47.833 1.16699 -73.5 3.5s-50.667 5.83301 -75 10.5s-47 9.83398 -68 15.501s-38.5 12.167 -52.5 19.5l22.5 54.5c7 16.333 14.833 33.166 23.5 50.499c8.66699 -4 21 -8.66699 37 -14s34.667 -10.333 56 -15s45 -8.66699 71 -12
s53.667 -5 83 -5c18.667 0 35.667 0.5 51 1.5s28.5 3.83301 39.5 8.5s20 12.167 27 22.5s11.833 24.833 14.5 43.5c2 14 2.16699 25.333 0.5 34s-5.16699 15.5 -10.5 20.5s-13 9 -23 12s-22.333 6.16699 -37 9.5c-54.667 12 -100.834 22.833 -138.501 32.5
s-67.667 22.167 -90 37.5s-37.166 35.333 -44.499 60s-8 58 -2 100c4 29.333 13.667 55 29 77s34.833 40.167 58.5 54.5s50.167 25.166 79.5 32.499s60 11 92 11c23.333 0 47.166 -0.833008 71.499 -2.5s47.666 -4.16699 69.999 -7.5s43 -7.33301 62 -12
s34.833 -10.334 47.5 -17.001zM366.001 689.002l68 107h85l-52 -53.5l-51 -53.5h-50z" />
    <glyph glyph-name="Scircumflex" unicode="&#x15c;" horiz-adv-x="624" 
d="M593 512c-9.33301 3.33301 -21.332 7.00195 -35.999 11.002s-31 7.83301 -49 11.5s-37.167 6.66699 -57.5 9s-40.5 3.5 -60.5 3.5c-40 0 -70.833 -5 -92.5 -15s-34.167 -28 -37.5 -54c-2 -15.333 -3.16699 -27 -3.5 -35s1.33398 -14.5 5.00098 -19.5
s9.66699 -9.16699 18 -12.5s20.166 -7.33301 35.499 -12c36 -9.33301 72.333 -17.833 109 -25.5s69.334 -18.5 98.001 -32.5s51 -33.667 67 -59s21 -60.333 15 -105c-5.33301 -38.667 -16 -70.167 -32 -94.5s-36.167 -43.5 -60.5 -57.5s-52.833 -23.5 -85.5 -28.5
s-68 -7.5 -106 -7.5c-23.333 0 -47.833 1.16699 -73.5 3.5s-50.667 5.83301 -75 10.5s-47 9.83398 -68 15.501s-38.5 12.167 -52.5 19.5l22.5 54.5c7 16.333 14.833 33.166 23.5 50.499c8.66699 -4 21 -8.66699 37 -14s34.667 -10.333 56 -15s45 -8.66699 71 -12
s53.667 -5 83 -5c18.667 0 35.667 0.5 51 1.5s28.5 3.83301 39.5 8.5s20 12.167 27 22.5s11.833 24.833 14.5 43.5c2 14 2.16699 25.333 0.5 34s-5.16699 15.5 -10.5 20.5s-13 9 -23 12s-22.333 6.16699 -37 9.5c-54.667 12 -100.834 22.833 -138.501 32.5
s-67.667 22.167 -90 37.5s-37.166 35.333 -44.499 60s-8 58 -2 100c4 29.333 13.667 55 29 77s34.833 40.167 58.5 54.5s50.167 25.166 79.5 32.499s60 11 92 11c23.333 0 47.166 -0.833008 71.499 -2.5s47.666 -4.16699 69.999 -7.5s43 -7.33301 62 -12
s34.833 -10.334 47.5 -17.001zM471.001 707.002l-47 84l-71 -84h-72l51 54l52 53h80l76 -107h-69z" />
    <glyph glyph-name="scircumflex" unicode="&#x15d;" horiz-adv-x="624" 
d="M593 512c-9.33301 3.33301 -21.332 7.00195 -35.999 11.002s-31 7.83301 -49 11.5s-37.167 6.66699 -57.5 9s-40.5 3.5 -60.5 3.5c-40 0 -70.833 -5 -92.5 -15s-34.167 -28 -37.5 -54c-2 -15.333 -3.16699 -27 -3.5 -35s1.33398 -14.5 5.00098 -19.5
s9.66699 -9.16699 18 -12.5s20.166 -7.33301 35.499 -12c36 -9.33301 72.333 -17.833 109 -25.5s69.334 -18.5 98.001 -32.5s51 -33.667 67 -59s21 -60.333 15 -105c-5.33301 -38.667 -16 -70.167 -32 -94.5s-36.167 -43.5 -60.5 -57.5s-52.833 -23.5 -85.5 -28.5
s-68 -7.5 -106 -7.5c-23.333 0 -47.833 1.16699 -73.5 3.5s-50.667 5.83301 -75 10.5s-47 9.83398 -68 15.501s-38.5 12.167 -52.5 19.5l22.5 54.5c7 16.333 14.833 33.166 23.5 50.499c8.66699 -4 21 -8.66699 37 -14s34.667 -10.333 56 -15s45 -8.66699 71 -12
s53.667 -5 83 -5c18.667 0 35.667 0.5 51 1.5s28.5 3.83301 39.5 8.5s20 12.167 27 22.5s11.833 24.833 14.5 43.5c2 14 2.16699 25.333 0.5 34s-5.16699 15.5 -10.5 20.5s-13 9 -23 12s-22.333 6.16699 -37 9.5c-54.667 12 -100.834 22.833 -138.501 32.5
s-67.667 22.167 -90 37.5s-37.166 35.333 -44.499 60s-8 58 -2 100c4 29.333 13.667 55 29 77s34.833 40.167 58.5 54.5s50.167 25.166 79.5 32.499s60 11 92 11c23.333 0 47.166 -0.833008 71.499 -2.5s47.666 -4.16699 69.999 -7.5s43 -7.33301 62 -12
s34.833 -10.334 47.5 -17.001zM471.001 707.002l-47 84l-71 -84h-72l51 54l52 53h80l76 -107h-69z" />
    <glyph glyph-name="Scedilla" unicode="&#x15e;" horiz-adv-x="624" 
d="M51 38l22.499 54.5029c7 16.333 14.833 33.166 23.5 50.499c8.66699 -4 21 -8.66699 37 -14s34.667 -10.333 56 -15s45 -8.66699 71 -12s53.667 -5 83 -5c18.667 0 35.667 0.5 51 1.5s28.5 3.83301 39.5 8.5s20 12.167 27 22.5s11.833 24.833 14.5 43.5
c2 14 2.16699 25.333 0.5 34s-5.16699 15.5 -10.5 20.5s-13 9 -23 12s-22.333 6.16699 -37 9.5c-54.667 12 -100.834 22.833 -138.501 32.5s-67.667 22.167 -90 37.5s-37.166 35.333 -44.499 60s-8 58 -2 100c4 29.333 13.667 55 29 77s34.833 40.167 58.5 54.5
s50.167 25.166 79.5 32.499s60 11 92 11c23.333 0 47.166 -0.833008 71.499 -2.5s47.666 -4.16699 69.999 -7.5s43 -7.33301 62 -12s34.833 -10.334 47.5 -17.001l-48 -103c-9.33301 3.33301 -21.333 7 -36 11s-31 7.83301 -49 11.5s-37.167 6.66699 -57.5 9
s-40.5 3.5 -60.5 3.5c-40 0 -70.833 -5 -92.5 -15s-34.167 -28 -37.5 -54c-2 -15.333 -3.16699 -27 -3.5 -35s1.33398 -14.5 5.00098 -19.5s9.66699 -9.16699 18 -12.5s20.166 -7.33301 35.499 -12c36 -9.33301 72.333 -17.833 109 -25.5s69.334 -18.5 98.001 -32.5
s51 -33.667 67 -59s21 -60.333 15 -105c-5.33301 -38 -15.666 -69 -30.999 -93s-34.833 -43 -58.5 -57s-51 -23.667 -82 -29s-64.833 -8.33301 -101.5 -9l-21 -47c28.667 -3.33301 49.334 -10.5 62.001 -21.5s18 -23.5 16 -37.5
c-2.66699 -19.333 -15.834 -36.833 -39.501 -52.5s-56.5 -23.5 -98.5 -23.5c-22 0 -41.333 1 -58 3l10 34h4c4.66699 -0.666992 10 -1 16 -1h14c30.667 0 54.334 4.66699 71.001 14c12.667 9.33301 20 20 22 32c0.666992 5.33301 0.666992 10.166 0 14.499
s-3.16699 8.33301 -7.5 12s-10.833 6.66699 -19.5 9s-21 3.83301 -37 4.5l26 61c-22 0.666992 -44.5 2.33398 -67.5 5.00098s-45.333 6.16699 -67 10.5s-41.667 9.33301 -60 15s-33.5 11.5 -45.5 17.5z" />
    <glyph glyph-name="scedilla" unicode="&#x15f;" horiz-adv-x="624" 
d="M51 38l22.499 54.5029c7 16.333 14.833 33.166 23.5 50.499c8.66699 -4 21 -8.66699 37 -14s34.667 -10.333 56 -15s45 -8.66699 71 -12s53.667 -5 83 -5c18.667 0 35.667 0.5 51 1.5s28.5 3.83301 39.5 8.5s20 12.167 27 22.5s11.833 24.833 14.5 43.5
c2 14 2.16699 25.333 0.5 34s-5.16699 15.5 -10.5 20.5s-13 9 -23 12s-22.333 6.16699 -37 9.5c-54.667 12 -100.834 22.833 -138.501 32.5s-67.667 22.167 -90 37.5s-37.166 35.333 -44.499 60s-8 58 -2 100c4 29.333 13.667 55 29 77s34.833 40.167 58.5 54.5
s50.167 25.166 79.5 32.499s60 11 92 11c23.333 0 47.166 -0.833008 71.499 -2.5s47.666 -4.16699 69.999 -7.5s43 -7.33301 62 -12s34.833 -10.334 47.5 -17.001l-48 -103c-9.33301 3.33301 -21.333 7 -36 11s-31 7.83301 -49 11.5s-37.167 6.66699 -57.5 9
s-40.5 3.5 -60.5 3.5c-40 0 -70.833 -5 -92.5 -15s-34.167 -28 -37.5 -54c-2 -15.333 -3.16699 -27 -3.5 -35s1.33398 -14.5 5.00098 -19.5s9.66699 -9.16699 18 -12.5s20.166 -7.33301 35.499 -12c36 -9.33301 72.333 -17.833 109 -25.5s69.334 -18.5 98.001 -32.5
s51 -33.667 67 -59s21 -60.333 15 -105c-5.33301 -38 -15.666 -69 -30.999 -93s-34.833 -43 -58.5 -57s-51 -23.667 -82 -29s-64.833 -8.33301 -101.5 -9l-21 -47c28.667 -3.33301 49.334 -10.5 62.001 -21.5s18 -23.5 16 -37.5
c-2.66699 -19.333 -15.834 -36.833 -39.501 -52.5s-56.5 -23.5 -98.5 -23.5c-22 0 -41.333 1 -58 3l10 34h4c4.66699 -0.666992 10 -1 16 -1h14c30.667 0 54.334 4.66699 71.001 14c12.667 9.33301 20 20 22 32c0.666992 5.33301 0.666992 10.166 0 14.499
s-3.16699 8.33301 -7.5 12s-10.833 6.66699 -19.5 9s-21 3.83301 -37 4.5l26 61c-22 0.666992 -44.5 2.33398 -67.5 5.00098s-45.333 6.16699 -67 10.5s-41.667 9.33301 -60 15s-33.5 11.5 -45.5 17.5z" />
    <glyph glyph-name="Scaron" unicode="&#x160;" horiz-adv-x="624" 
d="M593 512c-9.33301 3.33301 -21.332 7.00195 -35.999 11.002s-31 7.83301 -49 11.5s-37.167 6.66699 -57.5 9s-40.5 3.5 -60.5 3.5c-40 0 -70.833 -5 -92.5 -15s-34.167 -28 -37.5 -54c-2 -15.333 -3.16699 -27 -3.5 -35s1.33398 -14.5 5.00098 -19.5
s9.66699 -9.16699 18 -12.5s20.166 -7.33301 35.499 -12c36 -9.33301 72.333 -17.833 109 -25.5s69.334 -18.5 98.001 -32.5s51 -33.667 67 -59s21 -60.333 15 -105c-5.33301 -38.667 -16 -70.167 -32 -94.5s-36.167 -43.5 -60.5 -57.5s-52.833 -23.5 -85.5 -28.5
s-68 -7.5 -106 -7.5c-23.333 0 -47.833 1.16699 -73.5 3.5s-50.667 5.83301 -75 10.5s-47 9.83398 -68 15.501s-38.5 12.167 -52.5 19.5l22.5 54.5c7 16.333 14.833 33.166 23.5 50.499c8.66699 -4 21 -8.66699 37 -14s34.667 -10.333 56 -15s45 -8.66699 71 -12
s53.667 -5 83 -5c18.667 0 35.667 0.5 51 1.5s28.5 3.83301 39.5 8.5s20 12.167 27 22.5s11.833 24.833 14.5 43.5c2 14 2.16699 25.333 0.5 34s-5.16699 15.5 -10.5 20.5s-13 9 -23 12s-22.333 6.16699 -37 9.5c-54.667 12 -100.834 22.833 -138.501 32.5
s-67.667 22.167 -90 37.5s-37.166 35.333 -44.499 60s-8 58 -2 100c4 29.333 13.667 55 29 77s34.833 40.167 58.5 54.5s50.167 25.166 79.5 32.499s60 11 92 11c23.333 0 47.166 -0.833008 71.499 -2.5s47.666 -4.16699 69.999 -7.5s43 -7.33301 62 -12
s34.833 -10.334 47.5 -17.001zM457.001 693.002h-96l-78 102h77l53 -75l73 75h77z" />
    <glyph glyph-name="scaron" unicode="&#x161;" horiz-adv-x="624" 
d="M593 512c-9.33301 3.33301 -21.332 7.00195 -35.999 11.002s-31 7.83301 -49 11.5s-37.167 6.66699 -57.5 9s-40.5 3.5 -60.5 3.5c-40 0 -70.833 -5 -92.5 -15s-34.167 -28 -37.5 -54c-2 -15.333 -3.16699 -27 -3.5 -35s1.33398 -14.5 5.00098 -19.5
s9.66699 -9.16699 18 -12.5s20.166 -7.33301 35.499 -12c36 -9.33301 72.333 -17.833 109 -25.5s69.334 -18.5 98.001 -32.5s51 -33.667 67 -59s21 -60.333 15 -105c-5.33301 -38.667 -16 -70.167 -32 -94.5s-36.167 -43.5 -60.5 -57.5s-52.833 -23.5 -85.5 -28.5
s-68 -7.5 -106 -7.5c-23.333 0 -47.833 1.16699 -73.5 3.5s-50.667 5.83301 -75 10.5s-47 9.83398 -68 15.501s-38.5 12.167 -52.5 19.5l22.5 54.5c7 16.333 14.833 33.166 23.5 50.499c8.66699 -4 21 -8.66699 37 -14s34.667 -10.333 56 -15s45 -8.66699 71 -12
s53.667 -5 83 -5c18.667 0 35.667 0.5 51 1.5s28.5 3.83301 39.5 8.5s20 12.167 27 22.5s11.833 24.833 14.5 43.5c2 14 2.16699 25.333 0.5 34s-5.16699 15.5 -10.5 20.5s-13 9 -23 12s-22.333 6.16699 -37 9.5c-54.667 12 -100.834 22.833 -138.501 32.5
s-67.667 22.167 -90 37.5s-37.166 35.333 -44.499 60s-8 58 -2 100c4 29.333 13.667 55 29 77s34.833 40.167 58.5 54.5s50.167 25.166 79.5 32.499s60 11 92 11c23.333 0 47.166 -0.833008 71.499 -2.5s47.666 -4.16699 69.999 -7.5s43 -7.33301 62 -12
s34.833 -10.334 47.5 -17.001zM457.001 693.002h-96l-78 102h77l53 -75l73 75h77z" />
    <glyph glyph-name="Tcommaaccent" unicode="&#x162;" horiz-adv-x="543" 
d="M204 0l75 535h-197l25 107h529l-25 -107h-200l-75 -535h-132zM169 -293c18 7.33301 32 18.333 42 33s18 35 24 61h-50l17 123h117l-19 -133c-4 -30 -14.5 -54.833 -31.5 -74.5s-40.833 -35.167 -71.5 -46.5z" />
    <glyph glyph-name="tcommaaccent" unicode="&#x163;" horiz-adv-x="543" 
d="M204 0l75 535h-197l25 107h529l-25 -107h-200l-75 -535h-132zM169 -293c18 7.33301 32 18.333 42 33s18 35 24 61h-50l17 123h117l-19 -133c-4 -30 -14.5 -54.833 -31.5 -74.5s-40.833 -35.167 -71.5 -46.5z" />
    <glyph glyph-name="Tcaron" unicode="&#x164;" horiz-adv-x="543" 
d="M204 0l75 535h-197l25 107h529l-25 -107h-200l-75 -535h-132zM416 693h-96l-78 102h77l53 -75l73 75h77z" />
    <glyph glyph-name="tcaron" unicode="&#x165;" horiz-adv-x="543" 
d="M204 0l75 535h-197l25 107h529l-25 -107h-200l-75 -535h-132zM416 693h-96l-78 102h77l53 -75l73 75h77z" />
    <glyph glyph-name="Tbar" unicode="&#x166;" horiz-adv-x="543" 
d="M204 0l56 404h-100l10 68h100l9 63h-197l25 107h529l-25 -107h-200l-9 -63h103l-10 -68h-103l-56 -404h-132z" />
    <glyph glyph-name="tbar" unicode="&#x167;" horiz-adv-x="543" 
d="M204 0l56 404h-100l10 68h100l9 63h-197l25 107h529l-25 -107h-200l-9 -63h103l-10 -68h-103l-56 -404h-132z" />
    <glyph glyph-name="Utilde" unicode="&#x168;" horiz-adv-x="686" 
d="M573 642h130.999l-53 -372c-7.33301 -50 -16.666 -92.833 -27.999 -128.5s-28.333 -64.667 -51 -87s-52.334 -38.833 -89.001 -49.5s-83.667 -16 -141 -16s-103.166 5.33301 -137.499 16s-59.833 27.167 -76.5 49.5s-26 51.333 -28 87s0.666992 78.5 8 128.5l53 372h131
l-52 -371c-4.66699 -31.333 -7 -58 -7 -80s4 -40 12 -54s20.833 -24.167 38.5 -30.5s42.167 -9.5 73.5 -9.5c30.667 0 55.667 3.16699 75 9.5s34.833 16.5 46.5 30.5s20.5 32 26.5 54s11.333 48.667 16 80zM603.999 803c-6 -26.667 -17.5 -47.335 -34.5 -62.002
s-36.833 -22 -59.5 -22c-9.33301 0 -19.833 2.16699 -31.5 6.5s-25.167 10.5 -40.5 18.5c-20 12 -36 18 -48 18c-8 0 -14.833 -1.16699 -20.5 -3.5s-11.5 -6.16602 -17.5 -11.499c-3.33301 -3.33301 -6.5 -7.33301 -9.5 -12s-5.16699 -10.667 -6.5 -18h-43
c2.66699 13.333 6.5 24.5 11.5 33.5s12.167 17.5 21.5 25.5c19.333 17.333 41.666 26 66.999 26c9.33301 0 20 -2.16699 32 -6.5s25.667 -10.166 41 -17.499c18 -10 33.667 -15 47 -15c12.667 0 22.834 2.66699 30.501 8s14.167 16 19.5 32h41z" />
    <glyph glyph-name="utilde" unicode="&#x169;" horiz-adv-x="668" 
d="M573 642h130.999l-53 -372c-7.33301 -50 -16.666 -92.833 -27.999 -128.5s-28.333 -64.667 -51 -87s-52.334 -38.833 -89.001 -49.5s-83.667 -16 -141 -16s-103.166 5.33301 -137.499 16s-59.833 27.167 -76.5 49.5s-26 51.333 -28 87s0.666992 78.5 8 128.5l53 372h131
l-52 -371c-4.66699 -31.333 -7 -58 -7 -80s4 -40 12 -54s20.833 -24.167 38.5 -30.5s42.167 -9.5 73.5 -9.5c30.667 0 55.667 3.16699 75 9.5s34.833 16.5 46.5 30.5s20.5 32 26.5 54s11.333 48.667 16 80zM594.999 803c-6 -26.667 -17.5 -47.335 -34.5 -62.002
s-36.833 -22 -59.5 -22c-9.33301 0 -19.833 2.16699 -31.5 6.5s-25.167 10.5 -40.5 18.5c-20 12 -36 18 -48 18c-8 0 -14.833 -1.16699 -20.5 -3.5s-11.5 -6.16602 -17.5 -11.499c-3.33301 -3.33301 -6.5 -7.33301 -9.5 -12s-5.16699 -10.667 -6.5 -18h-43
c2.66699 13.333 6.5 24.5 11.5 33.5s12.167 17.5 21.5 25.5c19.333 17.333 41.666 26 66.999 26c9.33301 0 20 -2.16699 32 -6.5s25.667 -10.166 41 -17.499c18 -10 33.667 -15 47 -15c12.667 0 22.834 2.66699 30.501 8s14.167 16 19.5 32h41z" />
    <glyph glyph-name="Umacron" unicode="&#x16a;" horiz-adv-x="686" 
d="M573 642h130.999l-53 -372c-7.33301 -50 -16.666 -92.833 -27.999 -128.5s-28.333 -64.667 -51 -87s-52.334 -38.833 -89.001 -49.5s-83.667 -16 -141 -16s-103.166 5.33301 -137.499 16s-59.833 27.167 -76.5 49.5s-26 51.333 -28 87s0.666992 78.5 8 128.5l53 372h131
l-52 -371c-4.66699 -31.333 -7 -58 -7 -80s4 -40 12 -54s20.833 -24.167 38.5 -30.5s42.167 -9.5 73.5 -9.5c30.667 0 55.667 3.16699 75 9.5s34.833 16.5 46.5 30.5s20.5 32 26.5 54s11.333 48.667 16 80zM308.999 745l6 38h275l-6 -38h-275z" />
    <glyph glyph-name="umacron" unicode="&#x16b;" horiz-adv-x="668" 
d="M573 642h130.999l-53 -372c-7.33301 -50 -16.666 -92.833 -27.999 -128.5s-28.333 -64.667 -51 -87s-52.334 -38.833 -89.001 -49.5s-83.667 -16 -141 -16s-103.166 5.33301 -137.499 16s-59.833 27.167 -76.5 49.5s-26 51.333 -28 87s0.666992 78.5 8 128.5l53 372h131
l-52 -371c-4.66699 -31.333 -7 -58 -7 -80s4 -40 12 -54s20.833 -24.167 38.5 -30.5s42.167 -9.5 73.5 -9.5c30.667 0 55.667 3.16699 75 9.5s34.833 16.5 46.5 30.5s20.5 32 26.5 54s11.333 48.667 16 80zM299.999 745l6 38h275l-6 -38h-275z" />
    <glyph glyph-name="Ubreve" unicode="&#x16c;" horiz-adv-x="686" 
d="M573 642h130.999l-53 -372c-7.33301 -50 -16.666 -92.833 -27.999 -128.5s-28.333 -64.667 -51 -87s-52.334 -38.833 -89.001 -49.5s-83.667 -16 -141 -16s-103.166 5.33301 -137.499 16s-59.833 27.167 -76.5 49.5s-26 51.333 -28 87s0.666992 78.5 8 128.5l53 372h131
l-52 -371c-4.66699 -31.333 -7 -58 -7 -80s4 -40 12 -54s20.833 -24.167 38.5 -30.5s42.167 -9.5 73.5 -9.5c30.667 0 55.667 3.16699 75 9.5s34.833 16.5 46.5 30.5s20.5 32 26.5 54s11.333 48.667 16 80zM595.999 819c-11.333 -35.333 -30.332 -62.832 -56.999 -82.499
s-59 -29.5 -97 -29.5c-39.333 0 -69.333 9.16699 -90 27.5s-31.334 46.5 -32.001 84.5h43c4 -46 31.333 -69 82 -69c29.333 0 52.5 5.66699 69.5 17s30.167 28.666 39.5 51.999h42z" />
    <glyph glyph-name="ubreve" unicode="&#x16d;" horiz-adv-x="668" 
d="M573 642h130.999l-53 -372c-7.33301 -50 -16.666 -92.833 -27.999 -128.5s-28.333 -64.667 -51 -87s-52.334 -38.833 -89.001 -49.5s-83.667 -16 -141 -16s-103.166 5.33301 -137.499 16s-59.833 27.167 -76.5 49.5s-26 51.333 -28 87s0.666992 78.5 8 128.5l53 372h131
l-52 -371c-4.66699 -31.333 -7 -58 -7 -80s4 -40 12 -54s20.833 -24.167 38.5 -30.5s42.167 -9.5 73.5 -9.5c30.667 0 55.667 3.16699 75 9.5s34.833 16.5 46.5 30.5s20.5 32 26.5 54s11.333 48.667 16 80zM586.999 819c-11.333 -35.333 -30.332 -62.832 -56.999 -82.499
s-59 -29.5 -97 -29.5c-39.333 0 -69.333 9.16699 -90 27.5s-31.334 46.5 -32.001 84.5h43c4 -46 31.333 -69 82 -69c29.333 0 52.5 5.66699 69.5 17s30.167 28.666 39.5 51.999h42z" />
    <glyph glyph-name="Uring" unicode="&#x16e;" horiz-adv-x="686" 
d="M573 642h130.999l-53 -372c-7.33301 -50 -16.666 -92.833 -27.999 -128.5s-28.333 -64.667 -51 -87s-52.334 -38.833 -89.001 -49.5s-83.667 -16 -141 -16s-103.166 5.33301 -137.499 16s-59.833 27.167 -76.5 49.5s-26 51.333 -28 87s0.666992 78.5 8 128.5l53 372h131
l-52 -371c-4.66699 -31.333 -7 -58 -7 -80s4 -40 12 -54s20.833 -24.167 38.5 -30.5s42.167 -9.5 73.5 -9.5c30.667 0 55.667 3.16699 75 9.5s34.833 16.5 46.5 30.5s20.5 32 26.5 54s11.333 48.667 16 80zM440.999 707c8.66699 0 16.333 1.66699 23 5s11.334 14 14.001 32
c2.66699 17.333 0.833984 27.5 -5.49902 30.5s-13.5 4.5 -21.5 4.5c-8.66699 0 -16.334 -1.5 -23.001 -4.5s-11.334 -13.167 -14.001 -30.5c-2.66699 -18 -1 -28.667 5 -32s13.333 -5 22 -5zM436.998 677c-9.33301 0 -17.6699 0.833008 -25.0029 2.5
s-13.666 4.83398 -18.999 9.50098s-9 11.334 -11 20.001s-2 20.334 0 35.001c2 14 5.16699 25.333 9.5 34s9.83301 15.334 16.5 20.001s13.834 7.83398 21.501 9.50098s16.167 2.5 25.5 2.5c8.66699 0 16.834 -0.833008 24.501 -2.5s14.167 -4.83398 19.5 -9.50098
s9 -11.334 11 -20.001s2 -20 0 -34c-2 -14.667 -5.16699 -26.334 -9.5 -35.001s-9.83301 -15.334 -16.5 -20.001s-14 -7.83398 -22 -9.50098s-16.333 -2.5 -25 -2.5z" />
    <glyph glyph-name="uring" unicode="&#x16f;" horiz-adv-x="668" 
d="M573 642h130.999l-53 -372c-7.33301 -50 -16.666 -92.833 -27.999 -128.5s-28.333 -64.667 -51 -87s-52.334 -38.833 -89.001 -49.5s-83.667 -16 -141 -16s-103.166 5.33301 -137.499 16s-59.833 27.167 -76.5 49.5s-26 51.333 -28 87s0.666992 78.5 8 128.5l53 372h131
l-52 -371c-4.66699 -31.333 -7 -58 -7 -80s4 -40 12 -54s20.833 -24.167 38.5 -30.5s42.167 -9.5 73.5 -9.5c30.667 0 55.667 3.16699 75 9.5s34.833 16.5 46.5 30.5s20.5 32 26.5 54s11.333 48.667 16 80zM431.999 707c8.66699 0 16.333 1.66699 23 5s11.334 14 14.001 32
c2.66699 17.333 0.833984 27.5 -5.49902 30.5s-13.5 4.5 -21.5 4.5c-8.66699 0 -16.334 -1.5 -23.001 -4.5s-11.334 -13.167 -14.001 -30.5c-2.66699 -18 -1 -28.667 5 -32s13.333 -5 22 -5zM427.998 677c-9.33301 0 -17.6699 0.833008 -25.0029 2.5
s-13.666 4.83398 -18.999 9.50098s-9 11.334 -11 20.001s-2 20.334 0 35.001c2 14 5.16699 25.333 9.5 34s9.83301 15.334 16.5 20.001s13.834 7.83398 21.501 9.50098s16.167 2.5 25.5 2.5c8.66699 0 16.834 -0.833008 24.501 -2.5s14.167 -4.83398 19.5 -9.50098
s9 -11.334 11 -20.001s2 -20 0 -34c-2 -14.667 -5.16699 -26.334 -9.5 -35.001s-9.83301 -15.334 -16.5 -20.001s-14 -7.83398 -22 -9.50098s-16.333 -2.5 -25 -2.5z" />
    <glyph glyph-name="Uhungarumlaut" unicode="&#x170;" horiz-adv-x="686" 
d="M573 642h130.999l-53 -372c-7.33301 -50 -16.666 -92.833 -27.999 -128.5s-28.333 -64.667 -51 -87s-52.334 -38.833 -89.001 -49.5s-83.667 -16 -141 -16s-103.166 5.33301 -137.499 16s-59.833 27.167 -76.5 49.5s-26 51.333 -28 87s0.666992 78.5 8 128.5l53 372h131
l-52 -371c-4.66699 -31.333 -7 -58 -7 -80s4 -40 12 -54s20.833 -24.167 38.5 -30.5s42.167 -9.5 73.5 -9.5c30.667 0 55.667 3.16699 75 9.5s34.833 16.5 46.5 30.5s20.5 32 26.5 54s11.333 48.667 16 80zM281.999 689l68 107h85l-52 -53.5l-51 -53.5h-50zM455.999 689
l68 107h85l-52 -53.5l-51 -53.5h-50z" />
    <glyph glyph-name="uhungarumlaut" unicode="&#x171;" horiz-adv-x="668" 
d="M573 642h130.999l-53 -372c-7.33301 -50 -16.666 -92.833 -27.999 -128.5s-28.333 -64.667 -51 -87s-52.334 -38.833 -89.001 -49.5s-83.667 -16 -141 -16s-103.166 5.33301 -137.499 16s-59.833 27.167 -76.5 49.5s-26 51.333 -28 87s0.666992 78.5 8 128.5l53 372h131
l-52 -371c-4.66699 -31.333 -7 -58 -7 -80s4 -40 12 -54s20.833 -24.167 38.5 -30.5s42.167 -9.5 73.5 -9.5c30.667 0 55.667 3.16699 75 9.5s34.833 16.5 46.5 30.5s20.5 32 26.5 54s11.333 48.667 16 80zM272.999 689l68 107h85l-52 -53.5l-51 -53.5h-50zM446.999 689
l68 107h85l-52 -53.5l-51 -53.5h-50z" />
    <glyph glyph-name="Uogonek" unicode="&#x172;" horiz-adv-x="686" 
d="M411 -150c-17.333 -2 -36.999 -3.00098 -58.999 -3.00098c-42 0 -72.667 7.83301 -92 23.5s-27.333 33.167 -24 52.5c2 14 10.667 26.5 26 37.5s38 18.167 68 21.5l-1 7c-54.667 0.666992 -98.167 6.5 -130.5 17.5s-56.333 27.833 -72 50.5s-24.334 51.5 -26.001 86.5
s0.833008 77.167 7.5 126.5l53 372h131l-52 -371c-4.66699 -31.333 -7 -58 -7 -80s4 -40 12 -54s20.833 -24.167 38.5 -30.5s42.167 -9.5 73.5 -9.5c30.667 0 55.667 3.16699 75 9.5s34.833 16.5 46.5 30.5s20.5 32 26.5 54s11.333 48.667 16 80l52 371h131l-53 -372
c-6.66699 -48 -15.5 -89.333 -26.5 -124s-26.667 -63.334 -47 -86.001s-47.166 -39.667 -80.499 -51s-76 -17.666 -128 -18.999l3 -21c-16 -0.666992 -28.833 -2.16699 -38.5 -4.5s-17.167 -5.33301 -22.5 -9s-8.83301 -7.66699 -10.5 -12
s-2.83398 -9.16602 -3.50098 -14.499c-2 -11.333 2 -22 12 -32c14.667 -9.33301 37 -14 67 -14h14c6 0 11.667 0.333008 17 1h4v-34z" />
    <glyph glyph-name="uogonek" unicode="&#x173;" horiz-adv-x="668" 
d="M411 -150c-17.333 -2 -36.999 -3.00098 -58.999 -3.00098c-42 0 -72.667 7.83301 -92 23.5s-27.333 33.167 -24 52.5c2 14 10.667 26.5 26 37.5s38 18.167 68 21.5l-1 7c-54.667 0.666992 -98.167 6.5 -130.5 17.5s-56.333 27.833 -72 50.5s-24.334 51.5 -26.001 86.5
s0.833008 77.167 7.5 126.5l53 372h131l-52 -371c-4.66699 -31.333 -7 -58 -7 -80s4 -40 12 -54s20.833 -24.167 38.5 -30.5s42.167 -9.5 73.5 -9.5c30.667 0 55.667 3.16699 75 9.5s34.833 16.5 46.5 30.5s20.5 32 26.5 54s11.333 48.667 16 80l52 371h131l-53 -372
c-6.66699 -48 -15.5 -89.333 -26.5 -124s-26.667 -63.334 -47 -86.001s-47.166 -39.667 -80.499 -51s-76 -17.666 -128 -18.999l3 -21c-16 -0.666992 -28.833 -2.16699 -38.5 -4.5s-17.167 -5.33301 -22.5 -9s-8.83301 -7.66699 -10.5 -12
s-2.83398 -9.16602 -3.50098 -14.499c-2 -11.333 2 -22 12 -32c14.667 -9.33301 37 -14 67 -14h14c6 0 11.667 0.333008 17 1h4v-34z" />
    <glyph glyph-name="Wcircumflex" unicode="&#x174;" horiz-adv-x="908" 
d="M560 0l-40 482l-165 -482h-165l-57 642h144l8 -532h6l167 532h169l28 -532h6l147 532h146l-229 -642h-165zM613 707l-47 84l-71 -84h-72l51 54l52 53h80l76 -107h-69z" />
    <glyph glyph-name="wcircumflex" unicode="&#x175;" horiz-adv-x="908" 
d="M560 0l-40 482l-165 -482h-165l-57 642h144l8 -532h6l167 532h169l28 -532h6l147 532h146l-229 -642h-165zM613 707l-47 84l-71 -84h-72l51 54l52 53h80l76 -107h-69z" />
    <glyph glyph-name="Ycircumflex" unicode="&#x176;" horiz-adv-x="618" 
d="M239 0l38.002 273.999l-86.5 184l-87.5 184h146c15.333 -32 30.166 -64.5 44.499 -97.5s29.166 -65.5 44.499 -97.5c2.66699 -19.333 5 -40.666 7 -63.999s3.66699 -44.333 5 -63l24.5 60.5l26.5 66.5l75.5 97.5c25 33 51.833 65.5 80.5 97.5h139l-287 -368l-38 -274
h-132zM468.002 706.999l-47 84l-71 -84h-72l51 54l52 53h80l76 -107h-69z" />
    <glyph glyph-name="ycircumflex" unicode="&#x177;" horiz-adv-x="618" 
d="M239 0l38.002 273.999l-86.5 184l-87.5 184h146c15.333 -32 30.166 -64.5 44.499 -97.5s29.166 -65.5 44.499 -97.5c2.66699 -19.333 5 -40.666 7 -63.999s3.66699 -44.333 5 -63l24.5 60.5l26.5 66.5l75.5 97.5c25 33 51.833 65.5 80.5 97.5h139l-287 -368l-38 -274
h-132zM468.002 706.999l-47 84l-71 -84h-72l51 54l52 53h80l76 -107h-69z" />
    <glyph glyph-name="Ydieresis" unicode="&#x178;" horiz-adv-x="618" 
d="M239 0l38.002 273.999l-86.5 184l-87.5 184h146c15.333 -32 30.166 -64.5 44.499 -97.5s29.166 -65.5 44.499 -97.5c2.66699 -19.333 5 -40.666 7 -63.999s3.66699 -44.333 5 -63l24.5 60.5l26.5 66.5l75.5 97.5c25 33 51.833 65.5 80.5 97.5h139l-287 -368l-38 -274
h-132zM269.002 740.999l17 123h110l-17 -123h-110zM447.002 740.999l17 123h110l-17 -123h-110z" />
    <glyph glyph-name="Zacute" unicode="&#x179;" horiz-adv-x="585" 
d="M28 0l16 117l438 418h-359l25 107h485l-16 -113l-443 -421h396l-25 -108h-517zM318 689l68 107h85l-52 -53.5l-51 -53.5h-50z" />
    <glyph glyph-name="zacute" unicode="&#x17a;" horiz-adv-x="585" 
d="M28 0l16 117l438 418h-359l25 107h485l-16 -113l-443 -421h396l-25 -108h-517zM318 689l68 107h85l-52 -53.5l-51 -53.5h-50z" />
    <glyph glyph-name="Zdotaccent" unicode="&#x17b;" horiz-adv-x="585" 
d="M28 0l16 117l438 418h-359l25 107h485l-16 -113l-443 -421h396l-25 -108h-517zM431 719h-78l10 73h78z" />
    <glyph glyph-name="zdotaccent" unicode="&#x17c;" horiz-adv-x="585" 
d="M28 0l16 117l438 418h-359l25 107h485l-16 -113l-443 -421h396l-25 -108h-517zM431 719h-78l10 73h78z" />
    <glyph glyph-name="Zcaron" unicode="&#x17d;" horiz-adv-x="585" 
d="M28 0l16 117l438 418h-359l25 107h485l-16 -113l-443 -421h396l-25 -108h-517zM437 693h-96l-78 102h77l53 -75l73 75h77z" />
    <glyph glyph-name="zcaron" unicode="&#x17e;" horiz-adv-x="585" 
d="M28 0l16 117l438 418h-359l25 107h485l-16 -113l-443 -421h396l-25 -108h-517zM437 693h-96l-78 102h77l53 -75l73 75h77z" />
    <glyph glyph-name="uni0186" unicode="&#x186;" horiz-adv-x="650" 
d="M74 134l34.4971 -11.9961c13.667 -4.66699 29 -9 46 -13s35.333 -7.5 55 -10.5s39.5 -4.5 59.5 -4.5c27.333 0 52.833 2 76.5 6s45.167 13.5 64.5 28.5s36 37.667 50 68s24.667 71.833 32 124.5c7.33301 52 8.33301 93.167 3 123.5s-15.5 53.166 -30.5 68.499
s-33.833 25 -56.5 29s-47.667 6 -75 6c-20 0 -39.667 -1.33301 -59 -4s-37.5 -5.83398 -54.5 -9.50098s-32.5 -7.66699 -46.5 -12s-26 -7.83301 -36 -10.5l-18 103c60.667 26.667 137.667 40 231 40c48.667 0 92.334 -4.16699 131.001 -12.5s70.334 -24.5 95.001 -48.5
s41.667 -57.833 51 -101.5s9 -100.834 -1 -171.501s-25.667 -127.834 -47 -171.501s-47.833 -77.5 -79.5 -101.5s-68 -40.167 -109 -48.5s-85.833 -12.5 -134.5 -12.5c-46.667 0 -90.167 4 -130.5 12s-73.166 18.667 -98.499 32z" />
    <glyph glyph-name="uni018E" unicode="&#x18e;" horiz-adv-x="566" 
d="M575 642l-90 -642h-480l25 107h338l20 149h-263l16 107h263l24 171h-348l25 108h470z" />
    <glyph glyph-name="uni018F" unicode="&#x18f;" horiz-adv-x="704" 
d="M577 364c3.33301 38.667 2.83203 70.1719 -1.50098 94.5049s-13.166 43 -26.499 56s-31.333 21.833 -54 26.5s-51 7 -85 7c-20 0 -40.833 -1.83301 -62.5 -5.5s-42.334 -8 -62.001 -13s-37.667 -10.167 -54 -15.5l-39.5 -13l-19 103c14.667 6.66699 32.5 13 53.5 19
s43.5 11.333 67.5 16s48.5 8.5 73.5 11.5s49.167 4.5 72.5 4.5c50 0 93.833 -4 131.5 -12s68.167 -23.833 91.5 -47.5s39 -56.834 47 -99.501s7 -98.334 -3 -167.001c-10 -72 -25.667 -130.333 -47 -175s-47.166 -79.334 -77.499 -104.001s-64.666 -41.334 -102.999 -50.001
s-79.833 -13 -124.5 -13c-48 0 -89.833 4.66699 -125.5 14s-64.5 26.166 -86.5 50.499s-36.833 57.5 -44.5 99.5s-6.83398 96 2.49902 162l8 51h468zM228.999 256.005c-2.66699 -34.667 -1.83301 -62.667 2.5 -84s12.333 -37.833 24 -49.5s27 -19.5 46 -23.5
s41.833 -6 68.5 -6c23.333 0 45 1.16699 65 3.5s38.167 8.83301 54.5 19.5s30.5 27 42.5 49s21.667 52.333 29 91h-332z" />
    <glyph glyph-name="uni0190" unicode="&#x190;" horiz-adv-x="603" 
d="M567 28c-14.667 -6.66699 -32.168 -12.333 -52.501 -17s-42 -8.66699 -65 -12s-46.833 -5.83301 -71.5 -7.5s-48.667 -2.5 -72 -2.5c-47.333 0 -86.666 2.5 -117.999 7.5s-55.833 14 -73.5 27s-29 30.667 -34 53s-5.16699 50.5 -0.5 84.5
c3.33301 24.667 8.5 45.834 15.5 63.501s15.667 32.5 26 44.5s22.166 22.167 35.499 30.5s28 15.833 44 22.5c-14 6.66699 -26.333 14.334 -37 23.001s-19.334 19 -26.001 31s-11 26.667 -13 44s-1 38.666 3 63.999c4.66699 34 12.5 62 23.5 84s27 39.167 48 51.5
s47.667 21 80 26s72.166 7.5 119.499 7.5c23.333 0 47 -0.833008 71 -2.5s47.167 -4.16699 69.5 -7.5s43 -7.33301 62 -12s35.167 -10.334 48.5 -17.001l-48 -103c-9.33301 3.33301 -22.166 7 -38.499 11s-34.5 7.83301 -54.5 11.5s-41.167 6.66699 -63.5 9
s-43.5 3.5 -63.5 3.5c-21.333 0 -39.166 -0.833008 -53.499 -2.5s-26.333 -4.83398 -36 -9.50098s-17 -11.167 -22 -19.5s-8.5 -19.5 -10.5 -33.5c-3.33301 -25.333 -4.33301 -45.333 -3 -60s5.5 -25.667 12.5 -33s16.833 -12 29.5 -14s28.334 -3 47.001 -3h161l-14 -97
h-161c-18.667 0 -34.667 -0.833008 -48 -2.5s-24.5 -6 -33.5 -13s-16.5 -18.167 -22.5 -33.5s-11 -36.666 -15 -63.999c-2 -15.333 -1.66699 -27.333 1 -36s8.33398 -15.167 17.001 -19.5s20.167 -7 34.5 -8s32.166 -1.5 53.499 -1.5c20 0 41.5 1.16699 64.5 3.5
s45 5.33301 66 9s40.333 7.5 58 11.5s31.5 7.66699 41.5 11z" />
    <glyph glyph-name="florin" unicode="&#x192;" horiz-adv-x="475" 
d="M258 402l-66.001 0.000976562l30 84h67l14 48c8 22.667 16.5 42.167 25.5 58.5s20 29.666 33 39.999s28.833 17.833 47.5 22.5s41 7 67 7c10.667 0 23.834 -1.16699 39.501 -3.5s32.167 -5.83301 49.5 -10.5l-27 -100c-14 4 -26.167 6.33301 -36.5 7s-19.5 1 -27.5 1
c-12 0 -21.333 -1.83301 -28 -5.5s-13 -12.167 -19 -25.5l-13 -39h69c-6 -17.333 -11.333 -31.666 -16 -42.999s-9.66699 -25 -15 -41h-68l-157 -488c-14.667 -42 -34.334 -71 -59.001 -87s-57.667 -24 -99 -24c-13.333 0 -28 0.666992 -44 2s-32.333 3.66602 -49 6.99902
l27 100c13.333 -2 24.833 -3.83301 34.5 -5.5s18.834 -2.5 27.501 -2.5c11.333 0 20.5 1.66699 27.5 5s12.833 11 17.5 23z" />
    <glyph glyph-name="uni019F" unicode="&#x19f;" 
d="M377 -11c-44.667 0 -85.999 3.83301 -123.999 11.5s-69.833 23.334 -95.5 47.001s-43.834 57.334 -54.501 101.001s-11 101.5 -1 173.5s26.5 129.833 49.5 173.5s50.667 77.334 83 101.001s68.666 39.334 108.999 47.001s82.833 11.5 127.5 11.5s86 -3.83301 124 -11.5
s69.833 -23.334 95.5 -47.001s43.834 -57.334 54.501 -101.001s11 -101.5 1 -173.5s-26.5 -129.833 -49.5 -173.5s-50.833 -77.334 -83.5 -101.001s-69 -39.334 -109 -47.001s-82.333 -11.5 -127 -11.5zM392.001 95c24 0 47.165 1.16699 69.498 3.5s43 10 62 23
s35.833 33.333 50.5 61s26.334 67.167 35.001 118.5h-376c-6 -51.333 -5.66699 -90.833 1 -118.5s17.667 -48 33 -61s33.833 -20.667 55.5 -23s44.834 -3.5 69.501 -3.5zM455.999 549c-24.667 0 -48.166 -1.16699 -70.499 -3.5s-42.833 -9.83301 -61.5 -22.5
s-35.334 -32.667 -50.001 -60s-26.334 -66.333 -35.001 -117h376c5.33301 50.667 4.5 89.667 -2.5 117s-18.333 47.333 -34 60s-34.167 20.167 -55.5 22.5s-43.666 3.5 -66.999 3.5z" />
    <glyph glyph-name="Ohorn" unicode="&#x1a0;" 
d="M741 518c6 0 12.002 1.49707 18.002 4.49707s11.667 7.16699 17 12.5c11.333 15.333 19 38.333 23 69c0.666992 3.33301 1.33398 8 2.00098 14s1.33398 11.667 2.00098 17v4l35 5c0 -8.66699 -0.5 -18 -1.5 -28s-2.16699 -20.333 -3.5 -31
c-5.33301 -38 -16 -67.5 -32 -88.5s-33 -33.5 -51 -37.5c2.66699 -19.333 3.5 -40.166 2.5 -62.499s-3.16699 -47.166 -6.5 -74.499c-10 -72 -26.5 -129.833 -49.5 -173.5s-50.833 -77.334 -83.5 -101.001s-69 -39.334 -109 -47.001s-82.333 -11.5 -127 -11.5
s-86 3.83301 -124 11.5s-69.833 23.334 -95.5 47.001s-43.834 57.334 -54.501 101.001s-11 101.5 -1 173.5s26.5 129.833 49.5 173.5s50.667 77.334 83 101.001s68.666 39.334 108.999 47.001s82.833 11.5 127.5 11.5c31.333 0 61.166 -1.83301 89.499 -5.5
s54 -10.5 77 -20.5s43.167 -23.833 60.5 -41.5s30.666 -40.834 39.999 -69.501h3zM456.002 548.997c-25.333 0 -49.499 -1.16699 -72.499 -3.5s-44.167 -10.666 -63.5 -24.999s-36.166 -36.833 -50.499 -67.5s-25.5 -74.334 -33.5 -131.001s-9.16699 -100.334 -3.5 -131.001
s16.167 -53.167 31.5 -67.5s34.166 -22.666 56.499 -24.999s46.166 -3.5 71.499 -3.5c24.667 0 48.5 1.16699 71.5 3.5s44.167 10.666 63.5 24.999s36.333 36.833 51 67.5s26 74.334 34 131.001s9 100.334 3 131.001s-16.833 53.167 -32.5 67.5s-34.667 22.666 -57 24.999
s-45.5 3.5 -69.5 3.5z" />
    <glyph glyph-name="ohorn" unicode="&#x1a1;" 
d="M741 518c6 0 12.002 1.49707 18.002 4.49707s11.667 7.16699 17 12.5c11.333 15.333 19 38.333 23 69c0.666992 3.33301 1.33398 8 2.00098 14s1.33398 11.667 2.00098 17v4l35 5c0 -8.66699 -0.5 -18 -1.5 -28s-2.16699 -20.333 -3.5 -31
c-5.33301 -38 -16 -67.5 -32 -88.5s-33 -33.5 -51 -37.5c2.66699 -19.333 3.5 -40.166 2.5 -62.499s-3.16699 -47.166 -6.5 -74.499c-10 -72 -26.5 -129.833 -49.5 -173.5s-50.833 -77.334 -83.5 -101.001s-69 -39.334 -109 -47.001s-82.333 -11.5 -127 -11.5
s-86 3.83301 -124 11.5s-69.833 23.334 -95.5 47.001s-43.834 57.334 -54.501 101.001s-11 101.5 -1 173.5s26.5 129.833 49.5 173.5s50.667 77.334 83 101.001s68.666 39.334 108.999 47.001s82.833 11.5 127.5 11.5c31.333 0 61.166 -1.83301 89.499 -5.5
s54 -10.5 77 -20.5s43.167 -23.833 60.5 -41.5s30.666 -40.834 39.999 -69.501h3zM456.002 548.997c-25.333 0 -49.499 -1.16699 -72.499 -3.5s-44.167 -10.666 -63.5 -24.999s-36.166 -36.833 -50.499 -67.5s-25.5 -74.334 -33.5 -131.001s-9.16699 -100.334 -3.5 -131.001
s16.167 -53.167 31.5 -67.5s34.166 -22.666 56.499 -24.999s46.166 -3.5 71.499 -3.5c24.667 0 48.5 1.16699 71.5 3.5s44.167 10.666 63.5 24.999s36.333 36.833 51 67.5s26 74.334 34 131.001s9 100.334 3 131.001s-16.833 53.167 -32.5 67.5s-34.667 22.666 -57 24.999
s-45.5 3.5 -69.5 3.5z" />
    <glyph glyph-name="uni01A7" unicode="&#x1a7;" horiz-adv-x="624" 
d="M157 615c14.667 6.66699 32.168 12.332 52.501 16.999s42 8.66699 65 12s46.833 5.83301 71.5 7.5s48.667 2.5 72 2.5c32 0 61.667 -3.66699 89 -11s50.833 -18.166 70.5 -32.499s34.167 -32.5 43.5 -54.5s12 -47.667 8 -77c-6 -42 -16.333 -75.333 -31 -100
s-35.167 -44.667 -61.5 -60s-59.833 -27.833 -100.5 -37.5s-90 -20.5 -148 -32.5c-15.333 -3.33301 -28.166 -6.5 -38.499 -9.5s-19 -7 -26 -12s-12.5 -11.833 -16.5 -20.5s-7 -20 -9 -34c-2.66699 -18.667 -2 -33.167 2 -43.5s10.833 -17.833 20.5 -22.5
s21.834 -7.5 36.501 -8.5s31.667 -1.5 51 -1.5c29.333 0 57.5 1.66699 84.5 5s51.833 7.33301 74.5 12s42.667 9.66699 60 15s31.333 10 42 14c3.33301 -17.333 6 -34.166 8 -50.499s4.66699 -34.5 8 -54.5c-16 -7.33301 -35.333 -13.833 -58 -19.5
s-46.834 -10.834 -72.501 -15.501s-51.834 -8.16699 -78.501 -10.5s-51.334 -3.5 -74.001 -3.5c-38 0 -72.5 2.5 -103.5 7.5s-56.833 14.5 -77.5 28.5s-35.667 33.167 -45 57.5s-11.333 55.833 -6 94.5c7.33301 44.667 22.5 79.667 45.5 105s50.833 45 83.5 59
s68.5 24.833 107.5 32.5s77.833 16.167 116.5 25.5c16 4.66699 28.667 8.66699 38 12s16.5 7.5 21.5 12.5s8.66699 11.5 11 19.5s4.5 19.667 6.5 35c3.33301 26 -4.5 44 -23.5 54s-48.5 15 -88.5 15c-20 0 -40.5 -1.16699 -61.5 -3.5s-41 -5.33301 -60 -9
s-36.5 -7.5 -52.5 -11.5s-29 -7.66699 -39 -11z" />
    <glyph glyph-name="uni01A8" unicode="&#x1a8;" horiz-adv-x="624" 
d="M157 615c14.667 6.66699 32.168 12.332 52.501 16.999s42 8.66699 65 12s46.833 5.83301 71.5 7.5s48.667 2.5 72 2.5c32 0 61.667 -3.66699 89 -11s50.833 -18.166 70.5 -32.499s34.167 -32.5 43.5 -54.5s12 -47.667 8 -77c-6 -42 -16.333 -75.333 -31 -100
s-35.167 -44.667 -61.5 -60s-59.833 -27.833 -100.5 -37.5s-90 -20.5 -148 -32.5c-15.333 -3.33301 -28.166 -6.5 -38.499 -9.5s-19 -7 -26 -12s-12.5 -11.833 -16.5 -20.5s-7 -20 -9 -34c-2.66699 -18.667 -2 -33.167 2 -43.5s10.833 -17.833 20.5 -22.5
s21.834 -7.5 36.501 -8.5s31.667 -1.5 51 -1.5c29.333 0 57.5 1.66699 84.5 5s51.833 7.33301 74.5 12s42.667 9.66699 60 15s31.333 10 42 14c3.33301 -17.333 6 -34.166 8 -50.499s4.66699 -34.5 8 -54.5c-16 -7.33301 -35.333 -13.833 -58 -19.5
s-46.834 -10.834 -72.501 -15.501s-51.834 -8.16699 -78.501 -10.5s-51.334 -3.5 -74.001 -3.5c-38 0 -72.5 2.5 -103.5 7.5s-56.833 14.5 -77.5 28.5s-35.667 33.167 -45 57.5s-11.333 55.833 -6 94.5c7.33301 44.667 22.5 79.667 45.5 105s50.833 45 83.5 59
s68.5 24.833 107.5 32.5s77.833 16.167 116.5 25.5c16 4.66699 28.667 8.66699 38 12s16.5 7.5 21.5 12.5s8.66699 11.5 11 19.5s4.5 19.667 6.5 35c3.33301 26 -4.5 44 -23.5 54s-48.5 15 -88.5 15c-20 0 -40.5 -1.16699 -61.5 -3.5s-41 -5.33301 -60 -9
s-36.5 -7.5 -52.5 -11.5s-29 -7.66699 -39 -11z" />
    <glyph glyph-name="Uhorn" unicode="&#x1af;" horiz-adv-x="686" 
d="M573 642l130.997 -0.000976562l-18 -124c10.667 0.666992 21.667 6.33398 33 17.001c11.333 15.333 19 38.333 23 69c0.666992 3.33301 1.33398 8 2.00098 14s1.33398 11.667 2.00098 17v4l35 5c0 -8.66699 -0.5 -18 -1.5 -28s-2.16699 -20.333 -3.5 -31
c-6 -42 -18.333 -73.667 -37 -95s-37.667 -32 -57 -32h-4l-27 -188c-7.33301 -50 -16.666 -92.833 -27.999 -128.5s-28.333 -64.667 -51 -87s-52.334 -38.833 -89.001 -49.5s-83.667 -16 -141 -16s-103.166 5.33301 -137.499 16s-59.833 27.167 -76.5 49.5
s-26 51.333 -28 87s0.666992 78.5 8 128.5l53 372h131l-52 -371c-4.66699 -31.333 -7 -58 -7 -80s4 -40 12 -54s20.833 -24.167 38.5 -30.5s42.167 -9.5 73.5 -9.5c30.667 0 55.667 3.16699 75 9.5s34.833 16.5 46.5 30.5s20.5 32 26.5 54s11.333 48.667 16 80z" />
    <glyph glyph-name="uhorn" unicode="&#x1b0;" horiz-adv-x="668" 
d="M573 642l130.997 -0.000976562l-18 -124c10.667 0.666992 21.667 6.33398 33 17.001c11.333 15.333 19 38.333 23 69c0.666992 3.33301 1.33398 8 2.00098 14s1.33398 11.667 2.00098 17v4l35 5c0 -8.66699 -0.5 -18 -1.5 -28s-2.16699 -20.333 -3.5 -31
c-6 -42 -18.333 -73.667 -37 -95s-37.667 -32 -57 -32h-4l-27 -188c-7.33301 -50 -16.666 -92.833 -27.999 -128.5s-28.333 -64.667 -51 -87s-52.334 -38.833 -89.001 -49.5s-83.667 -16 -141 -16s-103.166 5.33301 -137.499 16s-59.833 27.167 -76.5 49.5
s-26 51.333 -28 87s0.666992 78.5 8 128.5l53 372h131l-52 -371c-4.66699 -31.333 -7 -58 -7 -80s4 -40 12 -54s20.833 -24.167 38.5 -30.5s42.167 -9.5 73.5 -9.5c30.667 0 55.667 3.16699 75 9.5s34.833 16.5 46.5 30.5s20.5 32 26.5 54s11.333 48.667 16 80z" />
    <glyph glyph-name="uni01C7" unicode="&#x1c7;" horiz-adv-x="854" 
d="M79 0l90 642h131l-75 -534h322l-25 -108h-443zM551 98c20.667 0 38.332 0.668945 52.999 2.00195s27 5.16602 37 11.499s17.833 16.166 23.5 29.499s10.167 32 13.5 56l63 445h131l-62 -441c-6 -44 -15 -79.5 -27 -106.5s-28.833 -47.833 -50.5 -62.5
s-48.667 -24.5 -81 -29.5s-72.166 -7.5 -119.499 -7.5z" />
    <glyph glyph-name="uni01C8" unicode="&#x1c8;" horiz-adv-x="854" 
d="M79 0l90 642h131l-75 -534h322l-25 -108h-443zM551 98c20.667 0 38.332 0.668945 52.999 2.00195s27 5.16602 37 11.499s17.833 16.166 23.5 29.499s10.167 32 13.5 56l63 445h131l-62 -441c-6 -44 -15 -79.5 -27 -106.5s-28.833 -47.833 -50.5 -62.5
s-48.667 -24.5 -81 -29.5s-72.166 -7.5 -119.499 -7.5z" />
    <glyph glyph-name="uni01C9" unicode="&#x1c9;" horiz-adv-x="854" 
d="M79 0l90 642h131l-75 -534h322l-25 -108h-443zM551 98c20.667 0 38.332 0.668945 52.999 2.00195s27 5.16602 37 11.499s17.833 16.166 23.5 29.499s10.167 32 13.5 56l63 445h131l-62 -441c-6 -44 -15 -79.5 -27 -106.5s-28.833 -47.833 -50.5 -62.5
s-48.667 -24.5 -81 -29.5s-72.166 -7.5 -119.499 -7.5z" />
    <glyph glyph-name="uni01CA" unicode="&#x1ca;" horiz-adv-x="1007" 
d="M466 0l-200 424l-59 -424h-128l90 642h140l199 -422l60 422h127l-90 -642h-139zM704 98c20.667 0 38.332 0.668945 52.999 2.00195s27 5.16602 37 11.499s17.833 16.166 23.5 29.499s10.167 32 13.5 56l63 445h131l-62 -441c-6 -44 -15 -79.5 -27 -106.5
s-28.833 -47.833 -50.5 -62.5s-48.667 -24.5 -81 -29.5s-72.166 -7.5 -119.499 -7.5z" />
    <glyph glyph-name="uni01CB" unicode="&#x1cb;" horiz-adv-x="1007" 
d="M466 0l-200 424l-59 -424h-128l90 642h140l199 -422l60 422h127l-90 -642h-139zM704 98c20.667 0 38.332 0.668945 52.999 2.00195s27 5.16602 37 11.499s17.833 16.166 23.5 29.499s10.167 32 13.5 56l63 445h131l-62 -441c-6 -44 -15 -79.5 -27 -106.5
s-28.833 -47.833 -50.5 -62.5s-48.667 -24.5 -81 -29.5s-72.166 -7.5 -119.499 -7.5z" />
    <glyph glyph-name="uni01CC" unicode="&#x1cc;" horiz-adv-x="1007" 
d="M466 0l-200 424l-59 -424h-128l90 642h140l199 -422l60 422h127l-90 -642h-139zM704 98c20.667 0 38.332 0.668945 52.999 2.00195s27 5.16602 37 11.499s17.833 16.166 23.5 29.499s10.167 32 13.5 56l63 445h131l-62 -441c-6 -44 -15 -79.5 -27 -106.5
s-28.833 -47.833 -50.5 -62.5s-48.667 -24.5 -81 -29.5s-72.166 -7.5 -119.499 -7.5z" />
    <glyph glyph-name="uni01CD" unicode="&#x1cd;" horiz-adv-x="657" 
d="M491 642l137 -642h-144l-31 181h-201l-80 -181h-144l317 642h146zM294 274h144l-28 167l-3 101h-6l-33 -101zM386 707l-36.5 53l-36.5 54h72l47 -84l71 84h69l-106 -107h-80z" />
    <glyph glyph-name="uni01CE" unicode="&#x1ce;" horiz-adv-x="703" 
d="M647 -1c-42 4.66699 -72.166 14.3291 -90.499 28.9961s-28.833 38.334 -31.5 71.001c-25.333 -35.333 -56.5 -62.333 -93.5 -81s-79.5 -28 -127.5 -28c-38 0 -72.5 3 -103.5 9s-56.667 16.5 -77 31.5s-35 35.333 -44 61s-10.833 57.834 -5.5 96.501
c6 44 17.333 80.333 34 109s37.5 51.5 62.5 68.5s53.833 28.833 86.5 35.5s68 10 106 10h158c2.66699 32 2.5 57.167 -0.5 75.5s-9.5 32 -19.5 41s-24 14.667 -42 17s-40.667 3.5 -68 3.5c-20 0 -40 -1.33301 -60 -4s-38.667 -6 -56 -10s-33.333 -8.16699 -48 -12.5
s-27 -8.16602 -37 -11.499l-18 103c29.333 13.333 64.333 23.666 105 30.999s84.334 11 131.001 11c54 0 98.5 -4 133.5 -12s61.833 -23.667 80.5 -47s29.5 -56.666 32.5 -99.999s-0.5 -100.333 -10.5 -171l-2 -16l-16 -112c-4.66699 -32.667 -3.33398 -55.667 3.99902 -69
s21.666 -21.666 42.999 -24.999zM507.001 302.995h-159.001c-19.333 0 -37 -1.16699 -53 -3.5s-30.333 -7.5 -43 -15.5s-23.334 -19.5 -32.001 -34.5s-14.667 -35.5 -18 -61.5c-2.66699 -20 -1.66699 -36 3 -48s12.334 -21 23.001 -27s23.834 -10 39.501 -12
s33.167 -3 52.5 -3c34 0 62 4.33301 84 13s39.833 21.667 53.5 39s24.167 38.5 31.5 63.5s13.333 54.167 18 87.5v2zM409 706.995l-36.5 53l-36.5 54h72l47 -84l71 84h69l-106 -107h-80z" />
    <glyph glyph-name="uni01CF" unicode="&#x1cf;" horiz-adv-x="241" 
d="M50 0l90 642h132l-90 -642h-132zM179 707l-36.5 53l-36.5 54h72l47 -84l71 84h69l-106 -107h-80z" />
    <glyph glyph-name="uni01D0" unicode="&#x1d0;" horiz-adv-x="241" 
d="M50 0l90 642h132l-90 -642h-132zM179 707l-36.5 53l-36.5 54h72l47 -84l71 84h69l-106 -107h-80z" />
    <glyph glyph-name="uni01D1" unicode="&#x1d1;" 
d="M456 549c-25.333 0 -49.499 -1.16699 -72.499 -3.5s-44.167 -10.666 -63.5 -24.999s-36.166 -36.833 -50.499 -67.5s-25.5 -74.334 -33.5 -131.001s-9.16699 -100.334 -3.5 -131.001s16.167 -53.167 31.5 -67.5s34.166 -22.666 56.499 -24.999s46.166 -3.5 71.499 -3.5
c24.667 0 48.5 1.16699 71.5 3.5s44.167 10.666 63.5 24.999s36.333 36.833 51 67.5s26 74.334 34 131.001s9 100.334 3 131.001s-16.833 53.167 -32.5 67.5s-34.667 22.666 -57 24.999s-45.5 3.5 -69.5 3.5zM102.001 322c10 72 26.501 129.833 49.501 173.5
s50.667 77.334 83 101.001s68.666 39.334 108.999 47.001s82.833 11.5 127.5 11.5s86 -3.83301 124 -11.5s69.833 -23.334 95.5 -47.001s43.834 -57.334 54.501 -101.001s11 -101.5 1 -173.5s-26.5 -129.833 -49.5 -173.5s-50.833 -77.334 -83.5 -101.001
s-69 -39.334 -109 -47.001s-82.333 -11.5 -127 -11.5s-86 3.83301 -124 11.5s-69.833 23.334 -95.5 47.001s-43.834 57.334 -54.501 101.001s-11 101.5 -1 173.5zM436.002 707l-36.5 53l-36.5 54h72l47 -84l71 84h69l-106 -107h-80z" />
    </font>
</defs>
</svg>
