<?xml version="1.0" standalone="no"?>
<!DOCTYPE svg PUBLIC "-//W3C//DTD SVG 1.1//EN" "http://www.w3.org/Graphics/SVG/1.1/DTD/svg11.dtd" >
<svg>
<metadata>
Created by FontForge 20090914 at Sun Aug 12 10:05:54 2012
 By www-data
&#194;&#169; 2011 Sergiy S. Tkachenko / 4th february
&#194;&#169; 2011 Azoft.com
http://creativecommons.org/licenses/by-nc-nd/3.0
http://creativecommons.org/licenses/by-nc-nd/3.0/deed.ru
</metadata>
<defs>
<font id="AzoftSans" horiz-adv-x="758" >
  <font-face 
    font-family="Azoft Sans"
    font-weight="400"
    font-stretch="normal"
    units-per-em="1000"
    panose-1="2 0 0 0 0 0 0 0 0 0"
    ascent="750"
    descent="-250"
    x-height="642"
    cap-height="642"
    bbox="-34 -272.002 1229 964"
    underline-thickness="50"
    underline-position="-50"
    unicode-range="U+0020-U+25FF"
  />
<missing-glyph horiz-adv-x="500" 
 />
    <glyph glyph-name=".notdef" horiz-adv-x="500" 
 />
    <glyph glyph-name="space" unicode=" " horiz-adv-x="500" 
 />
    <glyph glyph-name="space" unicode="&#xa0;" horiz-adv-x="500" 
 />
    <glyph glyph-name="exclam" unicode="!" horiz-adv-x="170" 
d="M65 167l-24.999 345.001v138h85v-138c-4 -56 -7.83301 -113.333 -11.5 -172s-7.83398 -116.334 -12.501 -173.001h-36zM44.001 0.000976562v73h78v-73h-78z" />
    <glyph glyph-name="quotedbl" unicode="&#x22;" horiz-adv-x="376" 
d="M92 433c-4 21.333 -8 41.333 -12 60s-7.66699 38.667 -11 60v97h77v-98l-20 -119h-34zM250 433l-22 120v97h77v-97l-22 -120h-33z" />
    <glyph glyph-name="numbersign" unicode="#" horiz-adv-x="549" 
d="M288 -11l42 194h-171l-41 -194h-52l42 194h-84v48h94l40 187h-134v48h144l20.5 97c7 34 14.167 66.667 21.5 98h50l-43 -195h173l20.5 97c7 34 14.167 66.667 21.5 98h50l-42 -195h85v-48h-94l-39 -187h133v-48h-144l-41 -194h-52zM381 418h-172l-41 -187h172z" />
    <glyph glyph-name="dollar" unicode="$" horiz-adv-x="624" 
d="M284 -107l-0.00292969 97c-21.333 1.33301 -43.333 3.33301 -66 6s-44.667 6.16699 -66 10.5s-41.166 9.16602 -59.499 14.499s-33.833 11 -46.5 17l15 28c4.66699 8.66699 10 17.667 16 27c16.667 -7.33301 43.167 -15.833 79.5 -25.5s78.833 -16.167 127.5 -19.5v247
c-40 8 -73.833 16.167 -101.5 24.5s-50.334 19 -68.001 32s-30.5 29.667 -38.5 50s-12 46.166 -12 77.499c0 28 5.83301 52.667 17.5 74s27.5 39.166 47.5 53.499s43.333 25.333 70 33s55 12.167 85 13.5v98h55v-98c20.667 -0.666992 41.167 -2 61.5 -4s40 -4.66699 59 -8
s36.667 -7.16602 53 -11.499s30.5 -9.16602 42.5 -14.499l-33 -53c-8.66699 2.66699 -19.667 5.83398 -33 9.50098s-28 7.16699 -44 10.5s-33.167 6.33301 -51.5 9s-36.5 4.33398 -54.5 5.00098v-242c30.667 -6 60.334 -12.5 89.001 -19.5s54.167 -16.833 76.5 -29.5
s40.333 -29.167 54 -49.5s20.834 -46.5 21.501 -78.5c0 -37.333 -5.83301 -68 -17.5 -92s-28.167 -43 -49.5 -57s-46.666 -23.833 -75.999 -29.5s-62 -8.83398 -98 -9.50098v-96h-55zM338.997 285l0.000976562 -238c26.667 0 50.667 0.833008 72 2.5s39.5 6.5 54.5 14.5
s26.5 20.5 34.5 37.5s12 40.833 12 71.5c0 20 -2.33301 35.833 -7 47.5s-12.334 21 -23.001 28s-25 12.5 -43 16.5s-40.333 8.66699 -67 14zM283.998 596c-50 -2.66699 -87.666 -12.5 -112.999 -29.5s-38 -46.5 -38 -88.5c0 -21.333 1.16699 -37.666 3.5 -48.999
s7.66602 -20.5 15.999 -27.5s20.833 -12.667 37.5 -17s39.667 -9.5 69 -15.5c4 -1.33301 8 -2.33301 12 -3s8.33301 -1.33398 13 -2.00098v232z" />
    <glyph glyph-name="percent" unicode="%" horiz-adv-x="814" 
d="M182 -24l373 685h76l-371 -685h-78zM180 328c-18 0 -34.833 2 -50.5 6s-29.334 11.833 -41.001 23.5s-20.834 28.5 -27.501 50.5s-10 51 -10 87s3.33301 64.833 10 86.5s15.834 38.5 27.501 50.5s25.334 19.833 41.001 23.5s32.5 5.5 50.5 5.5s34.833 -1.83301 50.5 -5.5
s29.334 -11.5 41.001 -23.5s20.834 -28.833 27.501 -50.5s10 -50.5 10 -86.5s-3.33301 -65 -10 -87s-15.834 -38.833 -27.501 -50.5s-25.334 -19.5 -41.001 -23.5s-32.5 -6 -50.5 -6zM180 376c10 0 19.333 0.666992 28 2s16.334 5.66602 23.001 12.999
s11.834 19.166 15.501 35.499s5.5 39.166 5.5 68.499s-1.83301 52 -5.5 68s-8.83398 27.667 -15.501 35s-14.334 11.666 -23.001 12.999s-18 2 -28 2s-19.5 -0.666992 -28.5 -2s-16.667 -5.66602 -23 -12.999s-11.333 -19 -15 -35s-5.5 -38.667 -5.5 -68
s1.83301 -52.166 5.5 -68.499s8.66699 -28.166 15 -35.499s14 -11.666 23 -12.999s18.5 -2 28.5 -2zM632 -24c-18 0 -34.833 2 -50.5 6s-29.334 11.833 -41.001 23.5s-20.834 28.5 -27.501 50.5s-10 51 -10 87s3.33301 64.833 10 86.5s15.834 38.5 27.501 50.5
s25.334 19.833 41.001 23.5s32.5 5.5 50.5 5.5s34.833 -1.83301 50.5 -5.5s29.334 -11.5 41.001 -23.5s20.834 -28.833 27.501 -50.5s10 -50.5 10 -86.5s-3.33301 -65 -10 -87s-15.834 -38.833 -27.501 -50.5s-25.334 -19.5 -41.001 -23.5s-32.5 -6 -50.5 -6zM632 24
c10 0 19.333 0.666992 28 2s16.334 5.66602 23.001 12.999s11.834 19.166 15.501 35.499s5.5 39.166 5.5 68.499s-1.83301 52 -5.5 68s-8.83398 27.667 -15.501 35s-14.334 11.666 -23.001 12.999s-18 2 -28 2s-19.5 -0.666992 -28.5 -2s-16.667 -5.66602 -23 -12.999
s-11.333 -19 -15 -35s-5.5 -38.667 -5.5 -68s1.83301 -52.166 5.5 -68.499s8.66699 -28.166 15 -35.499s14 -11.666 23 -12.999s18.5 -2 28.5 -2z" />
    <glyph glyph-name="ampersand" unicode="&#x26;" horiz-adv-x="688" 
d="M502 77c-28 -28 -57.834 -49.667 -89.501 -65s-66.5 -23 -104.5 -23c-30.667 0 -60.5 1.33301 -89.5 4s-54.833 10 -77.5 22s-40.834 30.667 -54.501 56s-20.5 60.666 -20.5 105.999c0 24.667 5.16699 46.334 15.5 65.001s24.5 35.667 42.5 51s39.333 29.5 64 42.5
s51.334 26.167 80.001 39.5l-43 49.5c-12 14.333 -21.667 27.333 -29 39s-12.833 22.334 -16.5 32.001s-5.5 19.167 -5.5 28.5c0 19.333 2.5 37 7.5 53s14 29.833 27 41.5s30.833 20.667 53.5 27s51.667 9.5 87 9.5c32 0 58.5 -3.16699 79.5 -9.5s37.667 -15 50 -26
s20.833 -24 25.5 -39s7 -31.5 7 -49.5c0 -20 -3.33301 -37.333 -10 -52s-16.334 -28.167 -29.001 -40.5s-28 -23.833 -46 -34.5s-38.333 -22 -61 -34l142 -174c18 35.333 30.667 68.666 38 99.999c13.333 -2 25.333 -4.33301 36 -7s22.334 -5.33398 35.001 -8.00098
c-7.33301 -25.333 -16.5 -50 -27.5 -74s-22.5 -45.333 -34.5 -64c32.667 -41.333 68.334 -75.666 107.001 -102.999l-23.5 -26.5l-23.5 -25.5c-14.667 9.33301 -31.167 23 -49.5 41l-54.5 56zM330.999 409l54.5029 29.999c14.333 8 25.666 16 33.999 24s14.333 17 18 27
s5.5 22.667 5.5 38c0 12.667 -1.33301 24 -4 34s-7.66699 18.333 -15 25s-17.333 11.667 -30 15s-29.334 5 -50.001 5s-37.5 -1.66699 -50.5 -5s-23.333 -8.16602 -31 -14.499s-12.834 -14 -15.501 -23s-4 -19.5 -4 -31.5s4.5 -24.5 13.5 -37.5s19.5 -26.167 31.5 -39.5z
M300.002 335.999c-26 -15.333 -48.999 -27.834 -68.999 -37.501s-36.833 -19.5 -50.5 -29.5s-24 -21.5 -31 -34.5s-10.5 -30.5 -10.5 -52.5c0 -39.333 4.5 -68.666 13.5 -87.999s21.167 -32.666 36.5 -39.999s33.333 -11 54 -11h66c13.333 0 27.5 2.33301 42.5 7
s29.5 11.167 43.5 19.5s27.167 18.166 39.5 29.499s23.166 24 32.499 38z" />
    <glyph glyph-name="quotesingle" unicode="'" horiz-adv-x="192" 
d="M76 433l-20 116.999v100h77v-100l-9.5 -59c-3 -19.333 -6.16699 -38.666 -9.5 -57.999h-38z" />
    <glyph glyph-name="parenleft" unicode="(" horiz-adv-x="236" 
d="M183 -197l-65.5 76.498c-20.333 24.333 -37.833 52.166 -52.5 83.499s-26.167 68.333 -34.5 111s-12.5 95.334 -12.5 158.001s4.16699 115.334 12.5 158.001s19.833 79.667 34.5 111s32.167 59.166 52.5 83.499l65.5 76.5l26 -20c-16 -24 -30.333 -44.667 -43 -62
s-23.5 -34 -32.5 -50s-16.5 -32.5 -22.5 -49.5s-10.833 -36.667 -14.5 -59s-6.33398 -48.666 -8.00098 -78.999s-2.5 -66.833 -2.5 -109.5s0.833008 -79.167 2.5 -109.5s4.33398 -56.666 8.00098 -78.999s8.5 -42 14.5 -59s13.5 -33.5 22.5 -49.5s19.667 -32.833 32 -50.5
l43.5 -61.5z" />
    <glyph glyph-name="parenright" unicode=")" horiz-adv-x="236" 
d="M27 -177l43 61.502c12.667 17.667 23.5 34.5 32.5 50.5s16.5 32.5 22.5 49.5s10.833 36.667 14.5 59s6.33398 48.666 8.00098 78.999s2.5 66.833 2.5 109.5s-0.833008 79.167 -2.5 109.5s-4.33398 56.666 -8.00098 78.999s-8.5 42 -14.5 59s-13.5 33.5 -22.5 49.5
s-19.833 32.667 -32.5 50s-27 38 -43 62l26 20l65.5 -76.5c20.333 -24.333 37.833 -52.166 52.5 -83.499s26.167 -68.333 34.5 -111s12.5 -95.334 12.5 -158.001s-4.16699 -115.334 -12.5 -158.001s-19.833 -79.667 -34.5 -111s-32.167 -59.166 -52.5 -83.499l-65.5 -76.5z
" />
    <glyph glyph-name="asterisk" unicode="*" horiz-adv-x="347" 
d="M234 381c-7.33301 10 -15.8301 22.3359 -25.4971 37.0029l-36.5 58c-19.333 -34.667 -40 -65.667 -62 -93l-53 35c13.333 17.333 26.666 33 39.999 47s25.666 26 36.999 36l-55.5 11.5c-20.333 4.33301 -39.5 9.16602 -57.5 14.499l22 61l62.5 -24
c17 -6.66699 31.5 -13 43.5 -19c-3.33301 25.333 -5.5 47.666 -6.5 66.999s-1.83301 33.666 -2.5 42.999h66c-0.666992 -17.333 -1.83398 -34.666 -3.50098 -51.999s-4.16699 -36.333 -7.5 -57c17.333 8 33.333 15 48 21s29.667 11.667 45 17l16 5l21 -62
c-20 -6.66699 -39.5 -11.834 -58.5 -15.501s-38.167 -7.16699 -57.5 -10.5c13.333 -11.333 26 -23.5 38 -36.5l41 -45.5z" />
    <glyph glyph-name="plus" unicode="+" horiz-adv-x="443" 
d="M251 293v-185h-61v185h-189v56h189v182h61v-182h191v-56h-191z" />
    <glyph glyph-name="comma" unicode="," horiz-adv-x="185" 
d="M62 -114c17.333 9.33301 29.833 22.667 37.5 40s12.5 42 14.5 74h-50v73h77v-83c0 -30 -5.5 -54.833 -16.5 -74.5s-27.5 -35.167 -49.5 -46.5z" />
    <glyph glyph-name="hyphen" unicode="-" horiz-adv-x="405" 
d="M79 201v63h244v-63h-244z" />
    <glyph glyph-name="period" unicode="." horiz-adv-x="245" 
d="M79 0v73h77v-73h-77z" />
    <glyph glyph-name="slash" unicode="/" horiz-adv-x="270" 
d="M0 -11l198 672h72l-196 -672h-74z" />
    <glyph glyph-name="zero" unicode="0" horiz-adv-x="629" 
d="M314 45c17.333 0 33.8301 0.5 49.4971 1.5s30.334 4 44.001 9s26 13.167 37 24.5s20.5 27.166 28.5 47.499s14.167 46.333 18.5 78s6.5 70.5 6.5 116.5c0 68.667 -4.83301 121.834 -14.5 159.501s-22.834 65.167 -39.501 82.5s-36.167 27.5 -58.5 30.5
s-46.166 4.5 -71.499 4.5c-26 0 -50.167 -1.5 -72.5 -4.5s-41.666 -13.167 -57.999 -30.5s-29.166 -44.833 -38.499 -82.5s-14 -90.834 -14 -159.501c0 -46 2.16699 -84.833 6.5 -116.5s10.333 -57.667 18 -78s17 -36.166 28 -47.499s23.167 -19.5 36.5 -24.5s28 -8 44 -9
s32.667 -1.5 50 -1.5zM313.997 -11c-35.333 0 -68.666 3.83301 -99.999 11.5s-58.666 23.334 -81.999 47.001s-41.666 57.334 -54.999 101.001s-20 101.5 -20 173.5s6.66699 129.833 20 173.5s31.666 77.334 54.999 101.001s50.666 39.334 81.999 47.001
s64.666 11.5 99.999 11.5c36 0 69.667 -3.83301 101 -11.5s58.666 -23.334 81.999 -47.001s41.666 -57.334 54.999 -101.001s20 -101.5 20 -173.5s-6.66699 -129.833 -20 -173.5s-31.666 -77.334 -54.999 -101.001s-50.666 -39.334 -81.999 -47.001s-65 -11.5 -101 -11.5z
" />
    <glyph glyph-name="one" unicode="1" horiz-adv-x="420" 
d="M31 0v57h153v527l-122 -32l-15 54l209 56v-605h156v-57h-381z" />
    <glyph glyph-name="two" unicode="2" horiz-adv-x="540" 
d="M53 0v167.003c0 26 3.66699 48 11 66s17.166 33.167 29.499 45.5s26.833 22.333 43.5 30s34.5 14.167 53.5 19.5s38.667 10.166 59 14.499s40.5 9.16602 60.5 14.499c23.333 6 42.666 11.5 57.999 16.5s27.666 11.333 36.999 19s16 17.667 20 30s6 29.166 6 50.499
c0 46 -12.333 78.167 -37 96.5s-61 27.5 -109 27.5c-16 0 -33.333 -1.16699 -52 -3.5s-36.667 -5.33301 -54 -9s-33.166 -7.5 -47.499 -11.5s-25.166 -7.66699 -32.499 -11l-26 53c10.667 6.66699 25 12.334 43 17.001s37.333 8.66699 58 12s41.667 5.83301 63 7.5
s41.333 2.5 60 2.5c26 0 51.333 -2 76 -6s46.834 -12.333 66.501 -25s35.5 -30.834 47.5 -54.501s18 -55.167 18 -94.5c0 -36.667 -4.66699 -65.834 -14 -87.501s-24 -39.167 -44 -52.5s-46 -24.166 -78 -32.499s-70.333 -17.833 -115 -28.5
c-21.333 -5.33301 -40 -10.333 -56 -15s-29.167 -10.667 -39.5 -18s-18 -17 -23 -29s-7.5 -28 -7.5 -48v-105h377v-58h-452z" />
    <glyph glyph-name="three" unicode="3" horiz-adv-x="546" 
d="M60 81c7.33301 -3.33301 18.166 -7.00391 32.499 -11.0039s30 -7.83301 47 -11.5s34.833 -6.66699 53.5 -9s36 -3.5 52 -3.5c25.333 0 48 0.833008 68 2.5s37 6.16699 51 13.5s24.667 18.833 32 34.5s11 37.167 11 64.5c0 32.667 -3.5 57.834 -10.5 75.501
s-17.167 30.834 -30.5 39.501s-29.5 13.834 -48.5 15.501s-40.167 2.5 -63.5 2.5h-133v57h133c23.333 0 44.333 1.16699 63 3.5s34.5 7.83301 47.5 16.5s23 21.667 30 39s10.5 41 10.5 71c0 24.667 -3.66699 44.667 -11 60s-17.833 27 -31.5 35s-30.334 13.333 -50.001 16
s-42.167 4 -67.5 4c-16 0 -33.333 -1.16699 -52 -3.5s-36.5 -5.33301 -53.5 -9s-32.667 -7.5 -47 -11.5s-25.166 -7.66699 -32.499 -11l-27 53c10.667 6.66699 25 12.334 43 17.001s37.333 8.66699 58 12s41.834 5.83301 63.501 7.5s41.834 2.5 60.501 2.5
c38 0 71 -2.5 99 -7.5s51.167 -13.667 69.5 -26s32 -29.5 41 -51.5s13.5 -50 13.5 -84c0 -25.333 -2 -46.666 -6 -63.999s-9.66699 -32 -17 -44s-16.166 -22.333 -26.499 -31s-21.5 -16.334 -33.5 -23.001c12 -6.66699 23.167 -14.167 33.5 -22.5s19.333 -18.5 27 -30.5
s13.5 -26.833 17.5 -44.5s6 -38.834 6 -63.501c0 -34 -4.5 -62.167 -13.5 -84.5s-22.833 -40 -41.5 -53s-42 -22 -70 -27s-61 -7.5 -99 -7.5c-18.667 0 -38.834 0.833008 -60.501 2.5s-42.834 4.16699 -63.501 7.5s-40 7.33301 -58 12s-32.333 10.334 -43 17.001z" />
    <glyph glyph-name="four" unicode="4" horiz-adv-x="526" 
d="M353 0v132h-348v67l256 443h80l-261 -452h273v171h72v-171h84v-58h-84v-132h-72z" />
    <glyph glyph-name="five" unicode="5" horiz-adv-x="525" 
d="M74 81c7.33301 -3.33301 18.1709 -7.00391 32.5039 -11.0039s30 -7.83301 47 -11.5s34.833 -6.66699 53.5 -9s36 -3.5 52 -3.5c25.333 0 47.833 1.83301 67.5 5.5s36.167 10.334 49.5 20.001s23.5 23.167 30.5 40.5s10.5 39.666 10.5 66.999
c0 32.667 -3.33301 58.834 -10 78.501s-16.334 34.834 -29.001 45.501s-28.334 17.834 -47.001 21.501s-39.667 5.5 -63 5.5c-27.333 0 -50.833 -1.33301 -70.5 -4s-34.167 -9 -43.5 -19l-75 10v325h383v-58h-308v-213c30 10.667 68 16 114 16
c76.667 0 133.167 -17.5 169.5 -52.5s54.5 -86.833 54.5 -155.5c0 -68 -17.667 -116.667 -53 -146s-91 -44 -167 -44c-18.667 0 -38.834 0.833008 -60.501 2.5s-42.834 4.16699 -63.501 7.5s-40 7.33301 -58 12s-32.333 10.334 -43 17.001z" />
    <glyph glyph-name="six" unicode="6" horiz-adv-x="574" 
d="M483 563c-7.33301 3.33301 -18.167 6.99316 -32.5 10.9932s-30 7.83301 -47 11.5s-34.833 6.66699 -53.5 9s-36 3.5 -52 3.5c-24.667 0 -47 -1.33301 -67 -4s-37.167 -11.667 -51.5 -27s-25.666 -39.666 -33.999 -72.999s-12.833 -81 -13.5 -143
c19.333 14.667 42.833 24.5 70.5 29.5s59.5 7.5 95.5 7.5c35.333 0 67 -2.5 95 -7.5s51.833 -14.833 71.5 -29.5s34.667 -35.167 45 -61.5s15.5 -60.833 15.5 -103.5c0 -37.333 -4.66699 -68.666 -14 -93.999s-23.5 -45.666 -42.5 -60.999s-42.667 -26.166 -71 -32.499
s-61.5 -9.5 -99.5 -9.5c-36 0 -68.667 3.83301 -98 11.5s-54.5 23.334 -75.5 47.001s-37.333 57.334 -49 101.001s-17.5 101.5 -17.5 173.5s5.83301 129.833 17.5 173.5s28 77.334 49 101.001s46.167 39.334 75.5 47.001s62 11.5 98 11.5
c18.667 0 38.167 -0.833008 58.5 -2.5s40 -4.16699 59 -7.5s36.667 -7.33301 53 -12s30.166 -10.334 41.499 -17.001zM136.999 201.993c4.66699 -39.333 11.666 -69.502 20.999 -90.502s20.833 -36.5 34.5 -46.5s29.334 -15.667 47.001 -17s37.167 -2 58.5 -2
c23.333 0 44.333 0.833008 63 2.5s34.5 6.83398 47.5 15.501s23 22.334 30 41.001s10.5 45.667 10.5 81c0 34.667 -4 61.834 -12 81.501s-18.667 34.167 -32 43.5s-29.333 15 -48 17s-38.334 3 -59.001 3c-20 0 -39.5 -0.833008 -58.5 -2.5s-35.833 -6.83398 -50.5 -15.501
s-26.667 -21.667 -36 -39s-14.666 -41.333 -15.999 -72z" />
    <glyph glyph-name="seven" unicode="7" horiz-adv-x="455" 
d="M103 0l263 584h-357v58h434v-58l-262 -584h-78z" />
    <glyph glyph-name="eight" unicode="8" horiz-adv-x="579" 
d="M276 -11c-36 0.666992 -67.165 3.66895 -93.498 9.00195s-48.333 14.5 -66 27.5s-30.667 30.5 -39 52.5s-12.5 49.667 -12.5 83c0 24.667 2 45.834 6 63.501s9.5 32.5 16.5 44.5s15.667 22.167 26 30.5s21.5 15.833 33.5 22.5c-12 6.66699 -23 14.334 -33 23.001
s-18.5 19 -25.5 31s-12.5 26.667 -16.5 44s-6 38.666 -6 63.999c0 34 4.33301 62 13 84s22.167 39.167 40.5 51.5s41.333 21 69 26s60.5 7.5 98.5 7.5h17c36 -0.666992 67.167 -3.66699 93.5 -9s48.166 -14.333 65.499 -27s30.166 -29.834 38.499 -51.501
s12.5 -48.834 12.5 -81.501c0 -25.333 -2 -46.666 -6 -63.999s-9.5 -32 -16.5 -44s-15.5 -22.333 -25.5 -31s-21 -16.334 -33 -23.001c12 -6.66699 23.167 -14.167 33.5 -22.5s19 -18.5 26 -30.5s12.5 -26.833 16.5 -44.5s6 -38.834 6 -63.501
c0 -34 -4.5 -62.167 -13.5 -84.5s-22.5 -40 -40.5 -53s-41 -22 -69 -27s-61 -7.5 -99 -7.5h-17zM302.002 46.002c46 0 80.5 8.33301 103.5 25s34.5 46.667 34.5 90c0 30.667 -3.16699 54.834 -9.5 72.501s-15.333 30.834 -27 39.501s-26 14.167 -43 16.5
s-36.167 3.83301 -57.5 4.5h-26c-21.333 -0.666992 -40.5 -2.16699 -57.5 -4.5s-31.333 -7.83301 -43 -16.5s-20.667 -21.834 -27 -39.501s-9.5 -41.834 -9.5 -72.501c0 -26 3.16699 -46.5 9.5 -61.5s15.5 -26.5 27.5 -34.5s26.667 -13.167 44 -15.5s37 -3.5 59 -3.5h20h2z
M303.002 351.002c21.333 0.666992 40.332 2.33398 56.999 5.00098s30.834 8.5 42.501 17.5s20.5 22 26.5 39s9 39.833 9 68.5c0 24 -3.16699 43.333 -9.5 58s-15.666 26.167 -27.999 34.5s-27.333 14 -45 17s-37.834 4.83301 -60.501 5.5c-24.667 0 -46.5 -1.5 -65.5 -4.5
s-35 -8.5 -48 -16.5s-22.833 -19.5 -29.5 -34.5s-10 -34.833 -10 -59.5c0 -28.667 3 -51.5 9 -68.5s14.667 -30 26 -39s25.5 -14.833 42.5 -17.5s36.167 -4.33398 57.5 -5.00098h26z" />
    <glyph glyph-name="nine" unicode="9" horiz-adv-x="573" 
d="M100 81c7.33301 -3.33301 18.168 -6.99609 32.501 -10.9961s30 -7.83301 47 -11.5s34.833 -6.66699 53.5 -9s36 -3.5 52 -3.5c16.667 0 32.167 0.333008 46.5 1s27.5 3.33398 39.5 8.00098s22.667 11.834 32 21.501s17.333 23.5 24 41.5s12 41 16 69
s6.33301 62.333 7 103c-18.667 -13.333 -41.667 -22.333 -69 -27s-59.333 -7 -96 -7c-38 0 -71.167 2.5 -99.5 7.5s-52 14.833 -71 29.5s-33.167 35.167 -42.5 61.5s-14 60.833 -14 103.5c0 37.333 4.66699 68.666 14 93.999s23.5 45.666 42.5 60.999
s42.667 26.166 71 32.499s61.5 9.5 99.5 9.5c36 0 68.667 -3.83301 98 -11.5s54.5 -23.334 75.5 -47.001s37.333 -57.334 49 -101.001s17.5 -101.5 17.5 -173.5s-5.83301 -129.833 -17.5 -173.5s-28 -77.334 -49 -101.001s-46.167 -39.334 -75.5 -47.001
s-62 -11.5 -98 -11.5c-18.667 0 -38.167 0.833008 -58.5 2.5s-40 4.16699 -59 7.5s-36.833 7.33301 -53.5 12s-30.334 10.334 -41.001 17.001zM445.002 441.004c-4 39.333 -10.666 69.666 -19.999 90.999s-20.833 37 -34.5 47s-29.5 15.667 -47.5 17s-37.333 2 -58 2
c-23.333 0 -44.333 -0.833008 -63 -2.5s-34.5 -6.83398 -47.5 -15.501s-23 -22.5 -30 -41.5s-10.5 -45.833 -10.5 -80.5c0 -35.333 3.5 -62.666 10.5 -81.999s17 -33.666 30 -42.999s28.833 -15 47.5 -17s39.667 -3 63 -3c22.667 0 43.5 0.833008 62.5 2.5
s35.5 6.66699 49.5 15s25.167 21 33.5 38s13.166 41.167 14.499 72.5z" />
    <glyph glyph-name="colon" unicode=":" horiz-adv-x="235" 
d="M76 392v74h77v-74h-77zM76 0v73h77v-73h-77z" />
    <glyph glyph-name="semicolon" unicode=";" horiz-adv-x="131" 
d="M18 -114c17.333 9.33301 29.833 22.667 37.5 40s12.5 42 14.5 74h-50v73h77v-83c0 -30 -5.5 -54.833 -16.5 -74.5s-27.5 -35.167 -49.5 -46.5zM20 392.001v74h77v-74h-77z" />
    <glyph glyph-name="less" unicode="&#x3c;" horiz-adv-x="522" 
d="M0 290v63l443 178v-58l-386 -151l94 -37.5l98.5 -39l99 -39l94.5 -37.5v-61z" />
    <glyph glyph-name="equal" unicode="=" horiz-adv-x="599" 
d="M79 395v56h441v-56h-441zM79 192v55h441v-55h-441z" />
    <glyph glyph-name="greater" unicode="&#x3e;" horiz-adv-x="522" 
d="M79 108v61l384 153l-384 151v58l443 -179v-62z" />
    <glyph glyph-name="question" unicode="?" horiz-adv-x="511" 
d="M110 146l0.00390625 54c0 28.667 5.5 52.667 16.5 72s25.667 35.166 44 47.499s39.666 22.333 63.999 30s50.166 14.167 77.499 19.5c28.667 6 51.5 11.167 68.5 15.5s29.667 10 38 17s13.666 16.167 15.999 27.5s3.5 27.666 3.5 48.999c0 45.333 -15.333 76.5 -46 93.5
s-75.667 25.5 -135 25.5c-20 0 -40.333 -1.16699 -61 -3.5s-40.334 -5.33301 -59.001 -9s-35.667 -7.5 -51 -11.5s-27.666 -7.66699 -36.999 -11l-33 53c14 6.66699 30.833 12.334 50.5 17.001s40.834 8.66699 63.501 12s46.167 5.83301 70.5 7.5s48.166 2.5 71.499 2.5
c32 0 62.167 -3.66699 90.5 -11s53.333 -18.166 75 -32.499s38.667 -32.5 51 -54.5s18.5 -47.667 18.5 -77c0 -28.667 -3.33301 -52.667 -10 -72s-17.167 -35.5 -31.5 -48.5s-33 -23.667 -56 -32s-50.5 -15.833 -82.5 -22.5c-26.667 -5.33301 -49 -10.333 -67 -15
s-32.333 -10.5 -43 -17.5s-18.334 -16.333 -23.001 -28s-7 -27.5 -7 -47.5v-50h-77zM110.004 0v73h77v-73h-77z" />
    <glyph glyph-name="at" unicode="@" horiz-adv-x="994" 
d="M880 -58c-36.667 -40 -86.8369 -73.1611 -150.504 -99.4941s-140.167 -39.5 -229.5 -39.5c-74.667 0 -138.667 9.83301 -192 29.5s-97 47.667 -131 84s-58.833 80.166 -74.5 131.499s-23.5 108.333 -23.5 171c0 68.667 9 130.334 27 185.001s44.667 101.167 80 139.5
s79.166 67.666 131.499 87.999s112.833 30.5 181.5 30.5c52.667 0 103.167 -6.83301 151.5 -20.5s91 -36 128 -67s66.333 -72.167 88 -123.5s32.5 -114.333 32.5 -189c0 -26 -1.83301 -53.667 -5.5 -83s-11.167 -56.5 -22.5 -81.5s-27.166 -45.667 -47.499 -62
s-47.5 -24.5 -81.5 -24.5c-26.667 0 -46.167 6 -58.5 18s-20.833 32 -25.5 60c-18.667 -28 -44 -49.167 -76 -63.5s-73 -21.5 -123 -21.5c-28 0 -54 2.5 -78 7.5s-44.667 13.667 -62 26s-31 28.666 -41 48.999s-15 45.833 -15 76.5s5 56.167 15 76.5s24.167 36.5 42.5 48.5
s40.166 20.5 65.499 25.5s53.333 7.5 84 7.5h174c-1.33301 38.667 -5.16602 69.167 -11.499 91.5s-15.833 39.166 -28.5 50.499s-29 18.666 -49 21.999s-44.333 5 -73 5c-7.33301 0 -15.833 -0.166992 -25.5 -0.5s-21 -1.5 -34 -3.5s-27.833 -5 -44.5 -9
s-36 -9.66699 -58 -17l-26 42c26 12 54.5 20.667 85.5 26s66.167 8 105.5 8c38 0 70.833 -3 98.5 -9s50.334 -17.833 68.001 -35.5s30.834 -42.167 39.501 -73.5s13 -72.333 13 -123v-7.5v-17v-36v-64.5c0 -23.333 1 -42.5 3 -57.5s5.33301 -26.833 10 -35.5
s10.167 -14.667 16.5 -18s14.166 -5 23.499 -5c24 0 42.333 8.33301 55 25s21.834 37.834 27.501 63.501s8.83398 54 9.50098 85s0.666992 61.167 0 90.5c-1.33301 48.667 -12.333 91.5 -33 128.5s-47.834 68.167 -81.501 93.5s-72.334 44.5 -116.001 57.5
s-88.834 19.5 -135.501 19.5c-58 0 -109.167 -9.66699 -153.5 -29s-81.333 -46.333 -111 -81s-52.167 -76.334 -67.5 -125.001s-23 -102.334 -23 -161.001c0 -125.333 33.333 -218.5 100 -279.5s160 -91.5 280 -91.5c42.667 0 81.834 3.5 117.501 10.5
s67.834 16.833 96.501 29.5s53.834 27.167 75.501 43.5s39.834 34.166 54.501 53.499zM469.997 274.006c-22 0 -42.3311 -1.16309 -60.998 -3.49609s-34.834 -7.33301 -48.501 -15s-24.167 -18.834 -31.5 -33.501s-11 -34.334 -11 -59.001s3.66699 -44.334 11 -59.001
s17.166 -26 29.499 -34s27 -13.333 44 -16s35.167 -4 54.5 -4c41.333 0 74.5 4.33301 99.5 13s44 22.167 57 40.5s21.5 41.666 25.5 69.999s6 61.833 6 100.5h-175z" />
    <glyph glyph-name="A" unicode="A" horiz-adv-x="657" 
d="M554 0l-81 201h-291l-80 -201h-74l257 642h86l257 -642h-74zM369 461l-38 121h-6l-38 -121l-84 -209h250z" />
    <glyph glyph-name="B" unicode="B" horiz-adv-x="675" 
d="M79 0l-0.00195312 642.003h275c47.333 0 87 -2.16699 119 -6.5s57.5 -12.333 76.5 -24s32.5 -28.167 40.5 -49.5s12 -49 12 -83c0 -25.333 -1.66699 -46.333 -5 -63s-8.5 -30.834 -15.5 -42.501s-15.667 -21.5 -26 -29.5s-22.166 -15.333 -35.499 -22
c13.333 -6.66699 25.5 -13.834 36.5 -21.501s20.333 -17.334 28 -29.001s13.5 -26 17.5 -43s6 -37.833 6 -62.5c0 -34 -4.16699 -61.833 -12.5 -83.5s-22.166 -38.5 -41.499 -50.5s-45 -20.333 -77 -25s-71.667 -7 -119 -7h-279zM359.998 57.0029
c31.333 0 58.167 0.5 80.5 1.5s40.5 4.83301 54.5 11.5s24.167 17.5 30.5 32.5s9.5 36.167 9.5 63.5c0 32.667 -3 57.667 -9 75s-15.5 29.833 -28.5 37.5s-29.833 12.167 -50.5 13.5s-45.667 2 -75 2h-221v-237h209zM371.999 351.003
c29.333 0 54.001 0.999023 74.001 2.99902s36.167 7 48.5 15s21.166 20.333 26.499 37s8 40 8 70c0 24.667 -3.16699 44.334 -9.5 59.001s-16.333 25.667 -30 33s-31.5 12 -53.5 14s-48.667 3 -80 3h-205v-234h221z" />
    <glyph glyph-name="C" unicode="C" horiz-adv-x="650" 
d="M614 31c-28 -13.333 -62.501 -24.0029 -103.501 -32.0029s-84.833 -12 -131.5 -12c-49.333 0 -93.833 4.16699 -133.5 12.5s-73.5 24.5 -101.5 48.5s-49.667 57.833 -65 101.5s-23 100.834 -23 171.501s7.66699 127.834 23 171.501s37 77.5 65 101.5
s61.833 40.167 101.5 48.5s84.167 12.5 133.5 12.5c93.333 0 168.333 -13.333 225 -40l-33 -53c-19.333 6.66699 -45.666 14.334 -78.999 23.001s-70.333 13 -111 13c-36 0 -69.333 -2.5 -100 -7.5s-57.167 -16.833 -79.5 -35.5s-39.833 -46.5 -52.5 -83.5
s-19 -87.167 -19 -150.5c0 -64 6.33301 -114.5 19 -151.5s30.167 -64.667 52.5 -83s48.833 -30 79.5 -35s64 -7.5 100 -7.5c20 0 40 1.5 60 4.5s38.667 6.5 56 10.5s33.333 8.33301 48 13s26.667 8.66699 36 12z" />
    <glyph glyph-name="D" unicode="D" horiz-adv-x="689" 
d="M79 0l0.00292969 642h230c48.667 0 93 -3.16699 133 -9.5s74 -20.5 102 -42.5s49.667 -54 65 -96s23 -98.333 23 -169c0 -71.333 -6.83301 -128.5 -20.5 -171.5s-33.834 -75.833 -60.501 -98.5s-59.334 -37.5 -98.001 -44.5s-83.334 -10.5 -134.001 -10.5h-240z
M309.003 58c46 0 85 2.66797 117 8.00098s57.667 17.333 77 36s33.333 45.667 42 81s13 83 13 143c0 63.333 -6.33301 112.5 -19 147.5s-30.167 60.667 -52.5 77s-48.833 26.166 -79.5 29.499s-64 5 -100 5h-156v-527h158z" />
    <glyph glyph-name="E" unicode="E" horiz-adv-x="566" 
d="M79 0v642h480l-10 -57h-398v-224h323v-57h-323v-246h408l-10 -58h-470z" />
    <glyph glyph-name="F" unicode="F" horiz-adv-x="526" 
d="M150 303v-303h-71v642h447l-10 -57h-366v-224h325v-58h-325z" />
    <glyph glyph-name="G" unicode="G" horiz-adv-x="672" 
d="M560 304l-205 0.00195312l10 57h263v-316c-13.333 -8 -29.833 -15.333 -49.5 -22s-41 -12.5 -64 -17.5s-47 -8.83301 -72 -11.5s-49.5 -4 -73.5 -4c-50.667 0 -95.5 4 -134.5 12s-71.667 24 -98 48s-46.333 58 -60 102s-20.5 101.667 -20.5 173
c0 70.667 7.66699 127.667 23 171s37 76.666 65 99.999s61.833 39 101.5 47s84.167 12 133.5 12c46.667 0 89.667 -3.66699 129 -11s73 -17.666 101 -30.999l-33 -53c-9.33301 3.33301 -21 7.16602 -35 11.499s-29.5 8.5 -46.5 12.5s-35.167 7.33301 -54.5 10s-39 4 -59 4
c-36 0 -69.333 -2.33301 -100 -7s-57.167 -16 -79.5 -34s-39.833 -45.167 -52.5 -81.5s-19 -86.166 -19 -149.499c0 -60 4.33301 -108.333 13 -145s23 -64.834 43 -84.501s46.167 -32.834 78.5 -39.501s72.166 -10 119.499 -10c15.333 0 31.333 1.16699 48 3.5
s32.834 5.16602 48.501 8.49902s30.5 7.33301 44.5 12s25.667 9.33398 35 14.001v219z" />
    <glyph glyph-name="H" unicode="H" horiz-adv-x="681" 
d="M530 0v312h-380v-312h-71v642h71v-271h380v271h71v-642h-71z" />
    <glyph glyph-name="I" unicode="I" horiz-adv-x="241" 
d="M79 0v642h72v-642h-72z" />
    <glyph glyph-name="J" unicode="J" horiz-adv-x="322" 
d="M6 48c31.333 0 57.999 0.832031 79.999 2.49902s39.833 7.33398 53.5 17.001s23.667 24.5 30 44.5s9.5 48.333 9.5 85v445h71v-441c0 -44 -4.16699 -79.5 -12.5 -106.5s-22.166 -47.833 -41.499 -62.5s-45 -24.5 -77 -29.5s-71.667 -7.5 -119 -7.5z" />
    <glyph glyph-name="K" unicode="K" horiz-adv-x="675" 
d="M526 0l-215 292h-161v-292h-71v642h71v-293h161l215 293h94l-122.5 -160.5l-123.5 -160.5l123.5 -161l122.5 -160h-94z" />
    <glyph glyph-name="L" unicode="L" horiz-adv-x="532" 
d="M79 0v642h71v-584h382l-10 -58h-443z" />
    <glyph glyph-name="M" unicode="M" horiz-adv-x="855" 
d="M707 0v562h-3l-238 -562h-78l-238 562h-3v-562h-68v642h108l198 -462l42 -121l42 121l198 462h108v-642h-68z" />
    <glyph glyph-name="N" unicode="N" horiz-adv-x="685" 
d="M526 0l-379 544v-544h-68v642h80l379 -542v542h67v-642h-79z" />
    <glyph glyph-name="O" unicode="O" 
d="M379 599c-32.667 0 -63.998 -1.5 -93.998 -4.5s-56.333 -13.167 -79 -30.5s-40.834 -44.833 -54.501 -82.5s-20.5 -90.834 -20.5 -159.501c0 -46 3.16699 -84.833 9.5 -116.5s15 -57.667 26 -78s24.167 -36.166 39.5 -47.499s32.166 -19.5 50.499 -24.5
s37.833 -8 58.5 -9s42 -1.5 64 -1.5c21.333 0 42.333 0.5 63 1.5s40.167 4 58.5 9s35.333 13.167 51 24.5s29 27.166 40 47.499s19.667 46.333 26 78s9.5 70.5 9.5 116.5c0 68.667 -7 121.834 -21 159.501s-32.5 65.167 -55.5 82.5s-49.333 27.5 -79 30.5
s-60.5 4.5 -92.5 4.5zM57.002 322c0 72 8.5 129.833 25.5 173.5s40 77.334 69 101.001s63 39.334 102 47.001s80.833 11.5 125.5 11.5s86.5 -3.83301 125.5 -11.5s73 -23.334 102 -47.001s52 -57.334 69 -101.001s25.5 -101.5 25.5 -173.5s-8.5 -129.833 -25.5 -173.5
s-40 -77.334 -69 -101.001s-63 -39.334 -102 -47.001s-80.833 -11.5 -125.5 -11.5s-86.5 3.83301 -125.5 11.5s-73 23.334 -102 47.001s-52 57.334 -69 101.001s-25.5 101.5 -25.5 173.5z" />
    <glyph glyph-name="P" unicode="P" horiz-adv-x="595" 
d="M79 0v642h259c47.333 0 87 -2.5 119 -7.5s57.667 -14.833 77 -29.5s33.166 -35.5 41.499 -62.5s12.5 -62.5 12.5 -106.5s-4.16699 -79.5 -12.5 -106.5s-22.166 -47.667 -41.499 -62s-45 -24 -77 -29s-71.667 -7.5 -119 -7.5h-187v-231h-72zM513 439
c0 34.667 -3.16699 61.834 -9.5 81.501s-16.333 34.334 -30 44.001s-31.5 15.5 -53.5 17.5s-48.667 3 -80 3h-189v-297h189c31.333 0 58 1 80 3s39.833 7.66699 53.5 17s23.667 23.666 30 42.999s9.5 46.666 9.5 81.999v6z" />
    <glyph glyph-name="Q" unicode="Q" horiz-adv-x="766" 
d="M712 -71c-34.667 -30.667 -75.0039 -46.001 -121.004 -46.001c-20.667 0 -40.667 3.16699 -60 9.5s-38.5 13.333 -57.5 21s-38 14.667 -57 21s-38.167 9.5 -57.5 9.5s-37.5 -3.16699 -54.5 -9.5s-37.5 -19.5 -61.5 -39.5v56c17.333 18.667 39 32 65 40
c-37.333 2.66699 -72 9.5 -104 20.5s-59.667 28.833 -83 53.5s-41.666 57.667 -54.999 99s-20 94 -20 158c0 72 8.5 129.833 25.5 173.5s40 77.334 69 101.001s63 39.334 102 47.001s80.833 11.5 125.5 11.5s86.5 -3.83301 125.5 -11.5s73 -23.334 102 -47.001
s52 -57.334 69 -101.001s25.5 -101.5 25.5 -173.5c0 -64 -6.66699 -116.667 -20 -158s-31.833 -74.333 -55.5 -99s-51.667 -42.5 -84 -53.5s-67.166 -17.833 -104.499 -20.5c16 -4 31.667 -9.16699 47 -15.5s30.333 -12.166 45 -17.499s28.834 -10 42.501 -14
s26.834 -6 39.501 -6c18 0 37 4.66699 57 14s38.333 21 55 35v-58zM367.996 44.999c21.333 0 42.335 0.5 63.002 1.5s40.167 4 58.5 9s35.333 13.167 51 24.5s29 27.166 40 47.499s19.667 46.333 26 78s9.5 70.5 9.5 116.5c0 68.667 -7 121.834 -21 159.501
s-32.5 65.167 -55.5 82.5s-49.333 27.5 -79 30.5s-60.5 4.5 -92.5 4.5c-32.667 0 -64 -1.5 -94 -4.5s-56.333 -13.167 -79 -30.5s-40.834 -44.833 -54.501 -82.5s-20.5 -90.834 -20.5 -159.501c0 -46 3.16699 -84.833 9.5 -116.5s15 -57.667 26 -78
s24.167 -36.166 39.5 -47.499s32.166 -19.5 50.499 -24.5s37.833 -8 58.5 -9s42 -1.5 64 -1.5z" />
    <glyph glyph-name="R" unicode="R" horiz-adv-x="669" 
d="M527 0l-169.999 230.998h-206v-231h-72v642h260c47.333 0 87 -2.5 119 -7.5s57.667 -14.833 77 -29.5s33.166 -35.5 41.499 -62.5s12.5 -62.5 12.5 -106.5c0 -35.333 -2.5 -65 -7.5 -89s-13.333 -43.667 -25 -59s-27 -27.166 -46 -35.499s-42.5 -14.166 -70.5 -17.499
l178 -235h-91zM341.001 287.998c31.333 0 58 1.16602 80 3.49902s39.833 8.33301 53.5 18s23.667 24.334 30 44.001s9.5 47.167 9.5 82.5c0 36.667 -3.16699 65 -9.5 85s-16.333 34.667 -30 44s-31.5 15 -53.5 17s-48.667 3 -80 3h-190v-297h190z" />
    <glyph glyph-name="S" unicode="S" horiz-adv-x="624" 
d="M522 562c-9.33301 3.33301 -21.666 6.99805 -36.999 10.998s-32.333 7.83301 -51 11.5s-38.334 6.66699 -59.001 9s-41 3.5 -61 3.5c-59.333 0 -104.333 -8.5 -135 -25.5s-46 -48.167 -46 -93.5c0 -21.333 1.16699 -37.666 3.5 -48.999s7.66602 -20.5 15.999 -27.5
s20.833 -12.667 37.5 -17s39.667 -9.5 69 -15.5c37.333 -8 74.833 -15.167 112.5 -21.5s71.834 -15.666 102.501 -27.999s55.834 -29.5 75.501 -51.5s29.834 -52.333 30.501 -91c0 -38.667 -6.33301 -70.167 -19 -94.5s-30.334 -43.5 -53.001 -57.5
s-49.834 -23.5 -81.501 -28.5s-66.5 -7.5 -104.5 -7.5c-23.333 0 -48 1.16699 -74 3.5s-51.5 5.83301 -76.5 10.5s-48.5 9.83398 -70.5 15.501s-40.333 12.167 -55 19.5l15 28c4.66699 8.66699 10 17.667 16 27c10 -4 23.167 -8.66699 39.5 -14s35.5 -10.333 57.5 -15
s46.333 -8.66699 73 -12s54.667 -5 84 -5c28 0 53.167 0.666992 75.5 2s41.333 6 57 14s27.667 20.5 36 37.5s12.5 41.167 12.5 72.5c0 20 -2.33301 35.833 -7 47.5s-12.334 21 -23.001 28s-25 12.5 -43 16.5s-40.333 8.66699 -67 14c-56 10.667 -103.667 20.167 -143 28.5
s-71.166 19 -95.499 32s-42 30.333 -53 52s-16.5 50.834 -16.5 87.501c0 29.333 6.16699 55 18.5 77s29.333 40.167 51 54.5s46.667 25.166 75 32.499s58.5 11 90.5 11c23.333 0 47.166 -0.833008 71.499 -2.5s47.833 -4.16699 70.5 -7.5s43.834 -7.33301 63.501 -12
s36.5 -10.334 50.5 -17.001z" />
    <glyph glyph-name="T" unicode="T" horiz-adv-x="543" 
d="M234 0v585h-227l10 57h529l-10 -57h-230v-585h-72z" />
    <glyph glyph-name="U" unicode="U" horiz-adv-x="686" 
d="M543 642h70.998v-372c0 -50 -3.33301 -92.833 -10 -128.5s-19.667 -64.667 -39 -87s-46.666 -38.833 -81.999 -49.5s-81.666 -16 -138.999 -16s-103.833 5.33301 -139.5 16s-63.334 27.167 -83.001 49.5s-33 51.333 -40 87s-10.5 78.5 -10.5 128.5v372h71v-371
c0 -40 2.16699 -74.167 6.5 -102.5s13.5 -51.5 27.5 -69.5s34.333 -31.167 61 -39.5s62.334 -12.5 107.001 -12.5s80.167 4.16699 106.5 12.5s46.333 21.5 60 39.5s22.5 41.167 26.5 69.5s6 62.5 6 102.5v371z" />
    <glyph glyph-name="V" unicode="V" horiz-adv-x="655" 
d="M278 0l-257 642h74l185 -461l38 -121h6l38 121l185 461h74l-257 -642h-86z" />
    <glyph glyph-name="W" unicode="W" horiz-adv-x="908" 
d="M600 0l-147 532l-138 -532h-85l-187 642h74l153 -582h6l142 582h69l153 -582h6l142 582h76l-179 -642h-85z" />
    <glyph glyph-name="X" unicode="X" horiz-adv-x="696" 
d="M555 0l-170.999 232v-1l-38 58l-24.5 -38.5c-6.33301 -10.333 -12.166 -18.166 -17.499 -23.499l-170 -227h-85l261 336l-55 74l-59 78.5l-59 79l-56 74.5h83l123 -165c13.333 -16.667 25.166 -33.334 35.499 -50.001l27.5 -44c7.33301 12 17.166 26.167 29.499 42.5
l34.5 44.5l136 172h75l-236 -302l127 -169.5l127 -170.5h-88z" />
    <glyph glyph-name="Y" unicode="Y" horiz-adv-x="618" 
d="M269 0l0.000976562 274l-127.5 184l-128.5 184h86l66 -97.5l66 -97.5c13.333 -19.333 27.166 -40.666 41.499 -63.999l38.5 -63l37.5 62.5c15 24.333 30.167 47.166 45.5 68.499l66 95.5l67 95.5h79l-265 -368v-274h-72z" />
    <glyph glyph-name="Z" unicode="Z" horiz-adv-x="585" 
d="M28 0v67l439 518h-419l10 57h485v-63l-444 -521h456l-10 -58h-517z" />
    <glyph glyph-name="bracketleft" unicode="[" horiz-adv-x="248" 
d="M79 -186v936h169l-10 -47h-94v-842h104l-10 -47h-159z" />
    <glyph glyph-name="backslash" unicode="\" horiz-adv-x="270" 
d="M196 -11l-196 672h72l198 -672h-74z" />
    <glyph glyph-name="bracketright" unicode="]" horiz-adv-x="253" 
d="M0 -186l10 47h94v842h-104l10 47h159v-936h-169z" />
    <glyph glyph-name="asciicircum" unicode="^" horiz-adv-x="499" 
d="M412 500l-162 194l-160 -194h-69l200 251h58l199 -251h-66z" />
    <glyph glyph-name="underscore" unicode="_" horiz-adv-x="708" 
d="M79 -186v38h549v-38h-549z" />
    <glyph glyph-name="grave" unicode="`" horiz-adv-x="170" 
d="M97 547l-94 107h86l53 -107h-45z" />
    <glyph glyph-name="a" unicode="a" horiz-adv-x="703" 
d="M648 -1c-33.333 4.66699 -58.002 14.3301 -74.002 28.9971s-26.667 38.334 -32 71.001c-23.333 -35.333 -54.5 -62.333 -93.5 -81s-86.5 -28 -142.5 -28c-38 0 -72.833 3 -104.5 9s-58.834 16.5 -81.501 31.5s-40.334 35.333 -53.001 61s-19 57.834 -19 96.501
s6.33301 70.834 19 96.501s30.334 46 53.001 61s49.834 25.5 81.501 31.5s66.5 9 104.5 9h218c-2 49.333 -7 88.166 -15 116.499s-20.167 49.5 -36.5 63.5s-37.333 22.833 -63 26.5s-57.5 5.5 -95.5 5.5c-20 0 -39.667 -1.33301 -59 -4s-37.5 -6 -54.5 -10
s-32.5 -8.16699 -46.5 -12.5s-25.667 -8.16602 -35 -11.499l-33 53c28 13.333 61.667 23.666 101 30.999s82.333 11 129 11c54 0 99.167 -4 135.5 -12s65.333 -23.667 87 -47s37.167 -56.666 46.5 -99.999s14 -100.333 14 -171v-16v-112c0 -25.333 1.16699 -46.5 3.5 -63.5
s5.83301 -31 10.5 -42s10.834 -19.5 18.501 -25.5s16.834 -10.333 27.501 -13zM524.998 327.996l-219 -0.000976562c-28 0 -53.667 -1.5 -77 -4.5s-43.333 -9.33301 -60 -19s-29.667 -23.667 -39 -42s-14 -43.166 -14 -74.499s4.66699 -56.166 14 -74.499
s22.5 -32.333 39.5 -42s37.167 -16 60.5 -19s49 -4.5 77 -4.5c47.333 0 85.333 6 114 18s50.667 29.833 66 53.5s25.5 52.667 30.5 87s7.5 74.166 7.5 119.499v2z" />
    <glyph glyph-name="b" unicode="b" horiz-adv-x="675" 
d="M79 0l-0.00195312 642.003h275c47.333 0 87 -2.16699 119 -6.5s57.5 -12.333 76.5 -24s32.5 -28.167 40.5 -49.5s12 -49 12 -83c0 -25.333 -1.66699 -46.333 -5 -63s-8.5 -30.834 -15.5 -42.501s-15.667 -21.5 -26 -29.5s-22.166 -15.333 -35.499 -22
c13.333 -6.66699 25.5 -13.834 36.5 -21.501s20.333 -17.334 28 -29.001s13.5 -26 17.5 -43s6 -37.833 6 -62.5c0 -34 -4.16699 -61.833 -12.5 -83.5s-22.166 -38.5 -41.499 -50.5s-45 -20.333 -77 -25s-71.667 -7 -119 -7h-279zM359.998 57.0029
c31.333 0 58.167 0.5 80.5 1.5s40.5 4.83301 54.5 11.5s24.167 17.5 30.5 32.5s9.5 36.167 9.5 63.5c0 32.667 -3 57.667 -9 75s-15.5 29.833 -28.5 37.5s-29.833 12.167 -50.5 13.5s-45.667 2 -75 2h-221v-237h209zM371.999 351.003
c29.333 0 54.001 0.999023 74.001 2.99902s36.167 7 48.5 15s21.166 20.333 26.499 37s8 40 8 70c0 24.667 -3.16699 44.334 -9.5 59.001s-16.333 25.667 -30 33s-31.5 12 -53.5 14s-48.667 3 -80 3h-205v-234h221z" />
    <glyph glyph-name="c" unicode="c" horiz-adv-x="650" 
d="M614 31c-28 -13.333 -62.501 -24.0029 -103.501 -32.0029s-84.833 -12 -131.5 -12c-49.333 0 -93.833 4.16699 -133.5 12.5s-73.5 24.5 -101.5 48.5s-49.667 57.833 -65 101.5s-23 100.834 -23 171.501s7.66699 127.834 23 171.501s37 77.5 65 101.5
s61.833 40.167 101.5 48.5s84.167 12.5 133.5 12.5c93.333 0 168.333 -13.333 225 -40l-33 -53c-19.333 6.66699 -45.666 14.334 -78.999 23.001s-70.333 13 -111 13c-36 0 -69.333 -2.5 -100 -7.5s-57.167 -16.833 -79.5 -35.5s-39.833 -46.5 -52.5 -83.5
s-19 -87.167 -19 -150.5c0 -64 6.33301 -114.5 19 -151.5s30.167 -64.667 52.5 -83s48.833 -30 79.5 -35s64 -7.5 100 -7.5c20 0 40 1.5 60 4.5s38.667 6.5 56 10.5s33.333 8.33301 48 13s26.667 8.66699 36 12z" />
    <glyph glyph-name="d" unicode="d" horiz-adv-x="689" 
d="M79 0l0.00292969 642h230c48.667 0 93 -3.16699 133 -9.5s74 -20.5 102 -42.5s49.667 -54 65 -96s23 -98.333 23 -169c0 -71.333 -6.83301 -128.5 -20.5 -171.5s-33.834 -75.833 -60.501 -98.5s-59.334 -37.5 -98.001 -44.5s-83.334 -10.5 -134.001 -10.5h-240z
M309.003 58c46 0 85 2.66797 117 8.00098s57.667 17.333 77 36s33.333 45.667 42 81s13 83 13 143c0 63.333 -6.33301 112.5 -19 147.5s-30.167 60.667 -52.5 77s-48.833 26.166 -79.5 29.499s-64 5 -100 5h-156v-527h158z" />
    <glyph glyph-name="e" unicode="e" horiz-adv-x="704" 
d="M630 38c-14 -6.66699 -30.998 -13.001 -50.998 -19.001s-41.5 -11.333 -64.5 -16s-46.833 -8.5 -71.5 -11.5s-48.667 -4.5 -72 -4.5c-50 0 -94.333 4 -133 12s-71.334 23.833 -98.001 47.5s-47 56.667 -61 99s-21 98.166 -21 167.499c0 72 7.5 130.333 22.5 175
s36 79.334 63 104.001s59 41.334 96 50.001s77.833 13 122.5 13c48 0 90.5 -4.66699 127.5 -14s68.167 -26.166 93.5 -50.499s44.666 -57.5 57.999 -99.5s20 -96 20 -162v-26h-529c0.666992 -55.333 5.66699 -99.833 15 -133.5s24 -59.834 44 -78.501s46 -31.167 78 -37.5
s71 -9.5 117 -9.5c20 0 40.5 1.83301 61.5 5.5s41 8 60 13s36.333 10.167 52 15.5l37.5 13zM585.002 360.999c-2 51.333 -8.16602 92.667 -18.499 124s-24.666 55.5 -42.999 72.5s-41 28.167 -68 33.5s-58.167 8 -93.5 8c-30.667 0 -59.334 -1.83301 -86.001 -5.5
s-50.167 -13.167 -70.5 -28.5s-36.833 -39 -49.5 -71s-20.334 -76.333 -23.001 -133h452z" />
    <glyph glyph-name="f" unicode="f" horiz-adv-x="526" 
d="M150 303v-303h-71v642h447l-10 -57h-366v-224h325v-58h-325z" />
    <glyph glyph-name="g" unicode="g" horiz-adv-x="672" 
d="M560 304l-205 0.00195312l10 57h263v-316c-13.333 -8 -29.833 -15.333 -49.5 -22s-41 -12.5 -64 -17.5s-47 -8.83301 -72 -11.5s-49.5 -4 -73.5 -4c-50.667 0 -95.5 4 -134.5 12s-71.667 24 -98 48s-46.333 58 -60 102s-20.5 101.667 -20.5 173
c0 70.667 7.66699 127.667 23 171s37 76.666 65 99.999s61.833 39 101.5 47s84.167 12 133.5 12c46.667 0 89.667 -3.66699 129 -11s73 -17.666 101 -30.999l-33 -53c-9.33301 3.33301 -21 7.16602 -35 11.499s-29.5 8.5 -46.5 12.5s-35.167 7.33301 -54.5 10s-39 4 -59 4
c-36 0 -69.333 -2.33301 -100 -7s-57.167 -16 -79.5 -34s-39.833 -45.167 -52.5 -81.5s-19 -86.166 -19 -149.499c0 -60 4.33301 -108.333 13 -145s23 -64.834 43 -84.501s46.167 -32.834 78.5 -39.501s72.166 -10 119.499 -10c15.333 0 31.333 1.16699 48 3.5
s32.834 5.16602 48.501 8.49902s30.5 7.33301 44.5 12s25.667 9.33398 35 14.001v219z" />
    <glyph glyph-name="h" unicode="h" horiz-adv-x="681" 
d="M530 0v312h-380v-312h-71v642h71v-271h380v271h71v-642h-71z" />
    <glyph glyph-name="i" unicode="i" horiz-adv-x="241" 
d="M79 0v642h72v-642h-72z" />
    <glyph glyph-name="j" unicode="j" horiz-adv-x="322" 
d="M6 48c31.333 0 57.999 0.832031 79.999 2.49902s39.833 7.33398 53.5 17.001s23.667 24.5 30 44.5s9.5 48.333 9.5 85v445h71v-441c0 -44 -4.16699 -79.5 -12.5 -106.5s-22.166 -47.833 -41.499 -62.5s-45 -24.5 -77 -29.5s-71.667 -7.5 -119 -7.5z" />
    <glyph glyph-name="k" unicode="k" horiz-adv-x="680" 
d="M627 0c-16.667 -2.66699 -32.166 -3.5 -46.499 -2.5s-28.5 5.16699 -42.5 12.5s-28.5 18.333 -43.5 33s-31.833 34.667 -50.5 60l-142 189h-158v-292h-71v642h71v-293h158l223 293h89l-122.5 -160.5l-123.5 -160.5l142 -186c15.333 -20 28.666 -35.667 39.999 -47
s21.833 -19.833 31.5 -25.5s19 -9 28 -10s18.5 -0.833008 28.5 0.5z" />
    <glyph glyph-name="l" unicode="l" horiz-adv-x="532" 
d="M79 0v642h71v-584h382l-10 -58h-443z" />
    <glyph glyph-name="m" unicode="m" horiz-adv-x="855" 
d="M707 0v562h-3l-238 -562h-78l-238 562h-3v-562h-68v642h108l198 -462l42 -121l42 121l198 462h108v-642h-68z" />
    <glyph glyph-name="n" unicode="n" horiz-adv-x="685" 
d="M526 0l-379 544v-544h-68v642h80l379 -542v542h67v-642h-79z" />
    <glyph glyph-name="o" unicode="o" 
d="M379 599c-32.667 0 -63.998 -1.5 -93.998 -4.5s-56.333 -13.167 -79 -30.5s-40.834 -44.833 -54.501 -82.5s-20.5 -90.834 -20.5 -159.501c0 -46 3.16699 -84.833 9.5 -116.5s15 -57.667 26 -78s24.167 -36.166 39.5 -47.499s32.166 -19.5 50.499 -24.5
s37.833 -8 58.5 -9s42 -1.5 64 -1.5c21.333 0 42.333 0.5 63 1.5s40.167 4 58.5 9s35.333 13.167 51 24.5s29 27.166 40 47.499s19.667 46.333 26 78s9.5 70.5 9.5 116.5c0 68.667 -7 121.834 -21 159.501s-32.5 65.167 -55.5 82.5s-49.333 27.5 -79 30.5
s-60.5 4.5 -92.5 4.5zM57.002 322c0 72 8.5 129.833 25.5 173.5s40 77.334 69 101.001s63 39.334 102 47.001s80.833 11.5 125.5 11.5s86.5 -3.83301 125.5 -11.5s73 -23.334 102 -47.001s52 -57.334 69 -101.001s25.5 -101.5 25.5 -173.5s-8.5 -129.833 -25.5 -173.5
s-40 -77.334 -69 -101.001s-63 -39.334 -102 -47.001s-80.833 -11.5 -125.5 -11.5s-86.5 3.83301 -125.5 11.5s-73 23.334 -102 47.001s-52 57.334 -69 101.001s-25.5 101.5 -25.5 173.5z" />
    <glyph glyph-name="p" unicode="p" horiz-adv-x="595" 
d="M79 0v642h259c47.333 0 87 -2.5 119 -7.5s57.667 -14.833 77 -29.5s33.166 -35.5 41.499 -62.5s12.5 -62.5 12.5 -106.5s-4.16699 -79.5 -12.5 -106.5s-22.166 -47.667 -41.499 -62s-45 -24 -77 -29s-71.667 -7.5 -119 -7.5h-187v-231h-72zM513 439
c0 34.667 -3.16699 61.834 -9.5 81.501s-16.333 34.334 -30 44.001s-31.5 15.5 -53.5 17.5s-48.667 3 -80 3h-189v-297h189c31.333 0 58 1 80 3s39.833 7.66699 53.5 17s23.667 23.666 30 42.999s9.5 46.666 9.5 81.999v6z" />
    <glyph glyph-name="q" unicode="q" horiz-adv-x="753" 
d="M712 -71c-34.667 -30.667 -75.0039 -46.001 -121.004 -46.001c-20.667 0 -40.667 3.16699 -60 9.5s-38.5 13.333 -57.5 21s-38 14.667 -57 21s-38.167 9.5 -57.5 9.5s-37.5 -3.16699 -54.5 -9.5s-37.5 -19.5 -61.5 -39.5v56c17.333 18.667 39 32 65 40
c-37.333 2.66699 -72 9.5 -104 20.5s-59.667 28.833 -83 53.5s-41.666 57.667 -54.999 99s-20 94 -20 158c0 72 8.5 129.833 25.5 173.5s40 77.334 69 101.001s63 39.334 102 47.001s80.833 11.5 125.5 11.5s86.5 -3.83301 125.5 -11.5s73 -23.334 102 -47.001
s52 -57.334 69 -101.001s25.5 -101.5 25.5 -173.5c0 -64 -6.66699 -116.667 -20 -158s-31.833 -74.333 -55.5 -99s-51.667 -42.5 -84 -53.5s-67.166 -17.833 -104.499 -20.5c16 -4 31.667 -9.16699 47 -15.5s30.333 -12.166 45 -17.499s28.834 -10 42.501 -14
s26.834 -6 39.501 -6c18 0 37 4.66699 57 14s38.333 21 55 35v-58zM367.996 44.999c21.333 0 42.335 0.5 63.002 1.5s40.167 4 58.5 9s35.333 13.167 51 24.5s29 27.166 40 47.499s19.667 46.333 26 78s9.5 70.5 9.5 116.5c0 68.667 -7 121.834 -21 159.501
s-32.5 65.167 -55.5 82.5s-49.333 27.5 -79 30.5s-60.5 4.5 -92.5 4.5c-32.667 0 -64 -1.5 -94 -4.5s-56.333 -13.167 -79 -30.5s-40.834 -44.833 -54.501 -82.5s-20.5 -90.834 -20.5 -159.501c0 -46 3.16699 -84.833 9.5 -116.5s15 -57.667 26 -78
s24.167 -36.166 39.5 -47.499s32.166 -19.5 50.499 -24.5s37.833 -8 58.5 -9s42 -1.5 64 -1.5z" />
    <glyph glyph-name="r" unicode="r" horiz-adv-x="681" 
d="M628 0c-16.667 -2.66699 -32.165 -3.50195 -46.498 -2.50195s-28.5 5.16699 -42.5 12.5s-28.5 18.333 -43.5 33s-31.833 34.667 -50.5 60l-94 128h-18h-187v-231h-72v642h259c47.333 0 87 -2.5 119 -7.5s57.667 -14.833 77 -29.5s33.166 -35.5 41.499 -62.5
s12.5 -62.5 12.5 -106.5c0 -35.333 -2.5 -65 -7.5 -89s-13.333 -43.667 -25 -59s-27 -27.166 -46 -35.499s-42.5 -14.166 -70.5 -17.499l77 -100c15.333 -20 28.666 -35.667 39.999 -47s21.833 -19.833 31.5 -25.5s19 -9 28 -10s18.5 -0.833008 28.5 0.5zM335.002 287.998
c31.333 0 58 1.16602 80 3.49902s39.833 8.33301 53.5 18s23.667 24.334 30 44.001s9.5 47.167 9.5 82.5c0 36.667 -3.16699 65 -9.5 85s-16.333 34.667 -30 44s-31.5 15 -53.5 17s-48.667 3 -80 3h-189v-297h189z" />
    <glyph glyph-name="s" unicode="s" horiz-adv-x="624" 
d="M522 562c-9.33301 3.33301 -21.666 6.99805 -36.999 10.998s-32.333 7.83301 -51 11.5s-38.334 6.66699 -59.001 9s-41 3.5 -61 3.5c-59.333 0 -104.333 -8.5 -135 -25.5s-46 -48.167 -46 -93.5c0 -21.333 1.16699 -37.666 3.5 -48.999s7.66602 -20.5 15.999 -27.5
s20.833 -12.667 37.5 -17s39.667 -9.5 69 -15.5c37.333 -8 74.833 -15.167 112.5 -21.5s71.834 -15.666 102.501 -27.999s55.834 -29.5 75.501 -51.5s29.834 -52.333 30.501 -91c0 -38.667 -6.33301 -70.167 -19 -94.5s-30.334 -43.5 -53.001 -57.5
s-49.834 -23.5 -81.501 -28.5s-66.5 -7.5 -104.5 -7.5c-23.333 0 -48 1.16699 -74 3.5s-51.5 5.83301 -76.5 10.5s-48.5 9.83398 -70.5 15.501s-40.333 12.167 -55 19.5l15 28c4.66699 8.66699 10 17.667 16 27c10 -4 23.167 -8.66699 39.5 -14s35.5 -10.333 57.5 -15
s46.333 -8.66699 73 -12s54.667 -5 84 -5c28 0 53.167 0.666992 75.5 2s41.333 6 57 14s27.667 20.5 36 37.5s12.5 41.167 12.5 72.5c0 20 -2.33301 35.833 -7 47.5s-12.334 21 -23.001 28s-25 12.5 -43 16.5s-40.333 8.66699 -67 14c-56 10.667 -103.667 20.167 -143 28.5
s-71.166 19 -95.499 32s-42 30.333 -53 52s-16.5 50.834 -16.5 87.501c0 29.333 6.16699 55 18.5 77s29.333 40.167 51 54.5s46.667 25.166 75 32.499s58.5 11 90.5 11c23.333 0 47.166 -0.833008 71.499 -2.5s47.833 -4.16699 70.5 -7.5s43.834 -7.33301 63.501 -12
s36.5 -10.334 50.5 -17.001z" />
    <glyph glyph-name="t" unicode="t" horiz-adv-x="543" 
d="M234 0v585h-227l10 57h529l-10 -57h-230v-585h-72z" />
    <glyph glyph-name="u" unicode="u" horiz-adv-x="668" 
d="M543 642h70.998v-372c0 -50 -3.33301 -92.833 -10 -128.5s-19.667 -64.667 -39 -87s-46.666 -38.833 -81.999 -49.5s-81.666 -16 -138.999 -16s-103.833 5.33301 -139.5 16s-63.334 27.167 -83.001 49.5s-33 51.333 -40 87s-10.5 78.5 -10.5 128.5v372h71v-371
c0 -40 2.16699 -74.167 6.5 -102.5s13.5 -51.5 27.5 -69.5s34.333 -31.167 61 -39.5s62.334 -12.5 107.001 -12.5s80.167 4.16699 106.5 12.5s46.333 21.5 60 39.5s22.5 41.167 26.5 69.5s6 62.5 6 102.5v371z" />
    <glyph glyph-name="v" unicode="v" horiz-adv-x="655" 
d="M278 0l-257 642h74l185 -461l38 -121h6l38 121l185 461h74l-257 -642h-86z" />
    <glyph glyph-name="w" unicode="w" horiz-adv-x="908" 
d="M600 0l-147 532l-138 -532h-85l-187 642h74l153 -582h6l142 582h69l153 -582h6l142 582h76l-179 -642h-85z" />
    <glyph glyph-name="x" unicode="x" horiz-adv-x="696" 
d="M555 0l-170.999 232v-1l-38 58l-24.5 -38.5c-6.33301 -10.333 -12.166 -18.166 -17.499 -23.499l-170 -227h-85l261 336l-55 74l-59 78.5l-59 79l-56 74.5h83l123 -165c13.333 -16.667 25.166 -33.334 35.499 -50.001l27.5 -44c7.33301 12 17.166 26.167 29.499 42.5
l34.5 44.5l136 172h75l-236 -302l127 -169.5l127 -170.5h-88z" />
    <glyph glyph-name="y" unicode="y" horiz-adv-x="618" 
d="M269 0l0.000976562 274l-127.5 184l-128.5 184h86l66 -97.5l66 -97.5c13.333 -19.333 27.166 -40.666 41.499 -63.999l38.5 -63l37.5 62.5c15 24.333 30.167 47.166 45.5 68.499l66 95.5l67 95.5h79l-265 -368v-274h-72z" />
    <glyph glyph-name="z" unicode="z" horiz-adv-x="585" 
d="M28 0v67l439 518h-419l10 57h485v-63l-444 -521h456l-10 -58h-517z" />
    <glyph glyph-name="braceleft" unicode="{" horiz-adv-x="282" 
d="M242 -197c-14.667 0 -27.333 0.333008 -38 1s-19.667 2 -27 4c-17.333 5.33301 -31.833 14.5 -43.5 27.5s-20.5 33.167 -26.5 60.5c-1.33301 6.66699 -2.5 16.5 -3.5 29.5s-1.83301 27.333 -2.5 43l-2 49c-0.666992 17 -1.33398 32.833 -2.00098 47.5
s-1.33398 27.667 -2.00098 39s-1.33398 19 -2.00098 23c-5.33301 22.667 -15.833 40.834 -31.5 54.501s-35.5 21.5 -59.5 23.5v54c20.667 2 37.334 7 50.001 15s22.5 19.5 29.5 34.5s11.833 33.833 14.5 56.5s4 49.667 4 81c0 40 1.16699 72.667 3.5 98
s6.83301 45.666 13.5 60.999s15.5 26.833 26.5 34.5s25.167 13.5 42.5 17.5c5.33301 1.33301 12.833 2.33301 22.5 3s20.834 1 33.501 1h16v-51h-5c-17.333 0 -32 -1.16699 -44 -3.5s-21.5 -7.33301 -28.5 -15s-12 -18.334 -15 -32.001s-4.5 -31.5 -4.5 -53.5
c0 -40 -0.5 -72.333 -1.5 -97s-2.16699 -42 -3.5 -52c-2 -15.333 -4.66699 -28.5 -8 -39.5s-8.66602 -21.167 -15.999 -30.5s-17.833 -18.333 -31.5 -27s-32.167 -18.334 -55.5 -29.001c23.333 -8 42.5 -17.167 57.5 -27.5s26.833 -23.166 35.5 -38.499
s14.667 -34.166 18 -56.499s5 -49.833 5 -82.5c0 -37.333 0.333008 -67.333 1 -90s3.66699 -40.167 9 -52.5s14.333 -20.5 27 -24.5s31 -6 55 -6h5v-50h-16z" />
    <glyph glyph-name="bar" unicode="|" horiz-adv-x="227" 
d="M79 -197v858h55v-858h-55z" />
    <glyph glyph-name="braceright" unicode="}" horiz-adv-x="283" 
d="M25 -197l-0.00195312 50h5c24 0 42.333 2 55 6s21.667 12.167 27 24.5s8.33301 29.833 9 52.5s1 52.667 1 90c0 32.667 1.66699 60.167 5 82.5s9.33301 41.166 18 56.499s20.5 28.166 35.5 38.499s34.167 19.5 57.5 27.5c-23.333 10.667 -41.833 20.334 -55.5 29.001
s-24.167 17.667 -31.5 27s-12.666 19.5 -15.999 30.5s-6 24.167 -8 39.5c-1.33301 10 -2.5 27.333 -3.5 52s-1.5 57 -1.5 97c0 22 -1.5 39.833 -4.5 53.5s-8 24.334 -15 32.001s-16.5 12.667 -28.5 15s-26.667 3.5 -44 3.5h-5v51h16c12.667 0 23.834 -0.333008 33.501 -1
s17.167 -1.66699 22.5 -3c17.333 -4 31.5 -9.83301 42.5 -17.5s19.833 -19.167 26.5 -34.5s11.167 -35.666 13.5 -60.999s3.5 -58 3.5 -98c0 -31.333 1.33301 -58.333 4 -81s7.5 -41.5 14.5 -56.5s16.833 -26.5 29.5 -34.5s29.334 -13 50.001 -15v-54
c-24 -2 -43.833 -9.83301 -59.5 -23.5s-26.167 -31.834 -31.5 -54.501c-1.33301 -4 -2.16602 -11.667 -2.49902 -23s-0.833008 -24.333 -1.5 -39s-1.33398 -30.5 -2.00098 -47.5l-2 -49c-0.666992 -15.667 -1.5 -30 -2.5 -43s-2.16699 -22.833 -3.5 -29.5
c-6 -27.333 -14.833 -47.5 -26.5 -60.5s-26.167 -22.167 -43.5 -27.5c-7.33301 -2 -16.333 -3.33301 -27 -4s-23.334 -1 -38.001 -1h-16z" />
    <glyph glyph-name="asciitilde" unicode="~" horiz-adv-x="589" 
d="M527 302c-34.667 -30.667 -74.999 -46.001 -120.999 -46.001c-9.33301 0 -18.333 0.333008 -27 1s-17.667 2.33398 -27 5.00098c-8 2 -19.833 6 -35.5 12l-50 18.5c-17.667 6.33301 -34.834 12 -51.501 17s-30.334 7.5 -41.001 7.5c-19.333 0 -37.5 -3.16699 -54.5 -9.5
s-37.5 -19.5 -61.5 -39.5v66c32.667 32.667 73.667 49 123 49c17.333 0 37.333 -2.66699 60 -8c12 -3.33301 26.333 -8 43 -14l50 -18c16.667 -6 32.334 -11.167 47.001 -15.5s26 -6.5 34 -6.5c18 0 37 4.66699 57 14s38.333 21 55 35v-68z" />
    <glyph glyph-name="exclamdown" unicode="&#xa1;" horiz-adv-x="170" 
d="M45 392v74h78v-74h-78zM41 -184v136l25 346h35l26 -346v-136h-86z" />
    <glyph glyph-name="cent" unicode="&#xa2;" horiz-adv-x="650" 
d="M346 -118l-0.00390625 105.998c-44 1.33301 -84 7 -120 17s-66.5 27.167 -91.5 51.5s-44.333 57.833 -58 100.5s-20.5 97.334 -20.5 164.001s6.83301 121.334 20.5 164.001s33 76.167 58 100.5s55.5 41.5 91.5 51.5s76 15.667 120 17v86h55v-85
c82.667 -2 150.334 -15.333 203.001 -40l-33 -53c-17.333 6 -41 13 -71 21s-63 12.667 -99 14v-553c18.667 0.666992 36.834 2.66699 54.501 6s34.334 7 50.001 11s30 8 43 12s23.833 7.66699 32.5 11l33 -53c-25.333 -12 -56.666 -21.833 -93.999 -29.5
s-77 -12.167 -119 -13.5v-106h-55zM345.996 596.998c-32 -1.33301 -61.167 -5.49707 -87.5 -12.4971s-49 -20.333 -68 -40s-33.833 -47.334 -44.5 -83.001s-16 -82.5 -16 -140.5c0 -58.667 5.33301 -105.834 16 -141.501s25.5 -63.334 44.5 -83.001s41.667 -33 68 -40
s55.5 -11.167 87.5 -12.5v553z" />
    <glyph glyph-name="sterling" unicode="&#xa3;" horiz-adv-x="516" 
d="M27 51c30.667 17.333 56.167 41.3311 76.5 71.998s30.5 68 30.5 112c0 10 -0.833008 20.667 -2.5 32s-4.16699 23.333 -7.5 36h-92v46h77l-7 26c-4.66699 16 -8.33398 29.167 -11.001 39.5s-4.66699 19.333 -6 27s-2.16602 14.334 -2.49902 20.001s-0.5 12.167 -0.5 19.5
c0 26.667 5 51 15 73s24 41 42 57s39.5 28.333 64.5 37s52.833 13 83.5 13c54 0 98.5 -13.333 133.5 -40s57.167 -64.667 66.5 -114l-64 -8c-7.33301 35.333 -23.5 63.5 -48.5 84.5s-54.5 31.5 -88.5 31.5c-19.333 0 -37.166 -3.16699 -53.499 -9.5s-30.333 -15 -42 -26
s-20.834 -24 -27.501 -39s-10 -30.833 -10 -47.5c0 -38 9.33301 -86 28 -144h149v-46h-141c5.33301 -11.333 9.16602 -21 11.499 -29s3.5 -15.333 3.5 -22c0 -25.333 -8.33301 -54.166 -25 -86.499s-44 -68.166 -82 -107.499c22.667 11.333 45.5 17.666 68.5 18.999
s45.667 0.5 68 -2.5s44.333 -7.16699 66 -12.5s43 -9.33301 64 -12s41.5 -3 61.5 -1s39.667 8.66699 59 20c3.33301 -11.333 6.83301 -21 10.5 -29s7.16699 -16.667 10.5 -26c-23.333 -13.333 -47.666 -20.5 -72.999 -21.5s-51.166 0.666992 -77.499 5
s-52.833 9.83301 -79.5 16.5s-52.834 11.5 -78.501 14.5s-50.667 2.16699 -75 -2.5s-47.5 -16 -69.5 -34z" />
    <glyph glyph-name="currency" unicode="&#xa4;" horiz-adv-x="571" 
d="M400 175c-36.667 -25.333 -74.999 -38 -114.999 -38c-38.667 0 -76.667 12.667 -114 38l-66 -64l-38 40l64 62c-24.667 35.333 -37 71.666 -37 108.999c0 17.333 3 35.333 9 54s15.333 36.667 28 54l-65 62l39 40l65 -62c36.667 23.333 75 35 115 35
c41.333 0 79.666 -11.667 114.999 -35l65 63c8 -7.33301 14.833 -14.333 20.5 -21s12.167 -13.667 19.5 -21l-64 -61c12.667 -17.333 22 -35.333 28 -54s9 -36.667 9 -54c0 -37.333 -12.333 -73.666 -37 -108.999l31 -29.5l33 -31.5l-40 -42zM191.001 414
c-26.667 -26.667 -40 -57.334 -40 -92.001c0 -35.333 13.333 -66 40 -92c26.667 -24.667 57.667 -37 93 -37c38.667 0 70.667 12.333 96 37c26.667 26 40 56.667 40 92c0 34.667 -13.333 65.334 -40 92.001c-25.333 24.667 -57.333 37 -96 37
c-35.333 0 -66.333 -12.333 -93 -37z" />
    <glyph glyph-name="yen" unicode="&#xa5;" horiz-adv-x="546" 
d="M307 149v-149h-66v149h-199v43h199v85h-199v48h172l-195 317h70c22.667 -38.667 45.667 -75.667 69 -111s46.333 -72.333 69 -111l12.5 -23.5l12.5 -25c4 -8.33301 7.66699 -16.333 11 -24l8 -18.5l22.5 44.5l26.5 49.5l128 219h78l-194 -317h172v-48h-197v-85h197v-43
h-197z" />
    <glyph glyph-name="brokenbar" unicode="&#xa6;" horiz-adv-x="188" 
d="M79 321v340h55v-340h-55zM79 -197v341h55v-341h-55z" />
    <glyph glyph-name="section" unicode="&#xa7;" horiz-adv-x="515" 
d="M359 -8c-9.33301 11.333 -28.6719 26.834 -58.0049 46.501s-65 42.167 -107 67.5l-61 37.5c-17.333 11 -29.666 19.833 -36.999 26.5c-17.333 14 -31.333 31 -42 51s-16 41 -16 63c0 26.667 10.167 51.334 30.5 74.001s48.833 39.667 85.5 51
c-25.333 23.333 -43.666 44.333 -54.999 63s-17 37.334 -17 56.001c0 35.333 15 66.666 45 93.999c28.667 26 68.667 39 120 39c54 0 96.667 -12 128 -36s51 -58 59 -102l-68 -7c-7.33301 36.667 -20.166 62.334 -38.499 77.001s-42.833 22 -73.5 22
c-16 0 -30.667 -2.33301 -44 -7s-24.666 -11 -33.999 -19s-16.666 -17 -21.999 -27s-8 -20.333 -8 -31c0 -17.333 6.66699 -34 20 -50c20.667 -24 70.334 -58.333 149.001 -103c25.333 -14.667 46.166 -27.334 62.499 -38.001s28.833 -19.334 37.5 -26.001
c21.333 -17.333 36.833 -35 46.5 -53s14.5 -37.667 14.5 -59c0 -32.667 -10.333 -59.667 -31 -81c-12 -14 -41.333 -30 -88 -48c58 -42 87 -85.667 87 -131c0.666992 -19.333 -3.5 -37.5 -12.5 -54.5s-21.833 -32 -38.5 -45s-36 -23.167 -58 -30.5s-45.333 -10.333 -70 -9
c-56.667 0 -101.667 12.667 -135 38s-54 61.333 -62 108l66 8c10 -38.667 25.333 -65.834 46 -81.501s49 -23.5 85 -23.5c18 0 34 2.5 48 7.5s26 11.667 36 20s17.5 17.833 22.5 28.5s7.5 22 7.5 34c0 18 -7 34.667 -21 50h1zM339.994 92.001
c26 13.333 45.168 28.333 57.501 45s18.5 33 18.5 49c0 20 -8.66699 40.667 -26 62c-9.33301 11.333 -23.333 23.333 -42 36s-42 27.667 -70 45c-23.333 13.333 -43.5 25.666 -60.5 36.999l-42.5 29c-28.667 -17.333 -49.334 -33.666 -62.001 -48.999
s-19 -32.666 -19 -51.999c0 -23.333 8 -44.333 24 -63c14.667 -17.333 48.667 -41.333 102 -72l61 -34c18.667 -10.667 34.667 -21.334 48 -32.001z" />
    <glyph glyph-name="dieresis" unicode="&#xa8;" horiz-adv-x="409" 
d="M79 581v73h70v-73h-70zM257 581v73h70v-73h-70z" />
    <glyph glyph-name="copyright" unicode="&#xa9;" 
d="M379 -11c-44.667 0 -86.5 3.83301 -125.5 11.5s-73 23.334 -102 47.001s-52 57.334 -69 101.001s-25.5 101.5 -25.5 173.5s8.5 129.833 25.5 173.5s40 77.334 69 101.001s63 39.334 102 47.001s80.833 11.5 125.5 11.5s86.5 -3.83301 125.5 -11.5s73 -23.334 102 -47.001
s52 -57.334 69 -101.001s25.5 -101.5 25.5 -173.5s-8.5 -129.833 -25.5 -173.5s-40 -77.334 -69 -101.001s-63 -39.334 -102 -47.001s-80.833 -11.5 -125.5 -11.5zM541 147c-19.333 -8.66699 -42.665 -16.333 -69.998 -23s-55 -10 -83 -10c-30.667 0 -57.667 2.33301 -81 7
s-43 14.334 -59 29.001s-28.167 35.334 -36.5 62.001s-12.5 61.667 -12.5 105c0 42.667 4.66699 77.167 14 103.5s22.5 46.666 39.5 60.999s37.5 23.833 61.5 28.5s50.667 7 80 7c28 0 54.5 -2.66699 79.5 -8s47.167 -12.666 66.5 -21.999l-27 -46
c-12 4.66699 -28.833 9.83398 -50.5 15.501s-43.834 8.5 -66.501 8.5c-19.333 0 -37.333 -1.16699 -54 -3.5s-31 -8.33301 -43 -18s-21.5 -24.334 -28.5 -44.001s-10.5 -46.834 -10.5 -81.501c0 -32.667 2.33301 -58.834 7 -78.501s12.334 -35 23.001 -46
s24.667 -18.333 42 -22s39 -5.5 65 -5.5c19.333 0 37.666 2.5 54.999 7.5s31.666 9.5 42.999 13.5l17 6zM379.001 25.001c23.333 0 46.502 0.5 69.502 1.5s45.167 4.33301 66.5 10s41.166 14.334 59.499 26.001s34.166 28.5 47.499 50.5s23.833 50 31.5 84
s11.5 75.667 11.5 125s-3.83301 91 -11.5 125s-18.334 62 -32.001 84s-29.667 38.833 -48 50.5s-38.166 20.334 -59.499 26.001s-43.5 9 -66.5 10s-45.833 1.5 -68.5 1.5c-24 0 -47.5 -0.5 -70.5 -1.5s-45.167 -4.33301 -66.5 -10s-41 -14.334 -59 -26.001
s-33.667 -28.5 -47 -50.5s-23.833 -50 -31.5 -84s-11.5 -75.667 -11.5 -125s3.83301 -91 11.5 -125s18.167 -62 31.5 -84s29 -38.833 47 -50.5s37.667 -20.334 59 -26.001s43.5 -9 66.5 -10s46.5 -1.5 70.5 -1.5z" />
    <glyph glyph-name="guillemotleft" unicode="&#xab;" horiz-adv-x="465" 
d="M169 32l-72.5 100.5l-72.5 98.5l145 198h45l-117 -198l116 -199h-44zM353 32l-142 199l142 198h49l-120 -198l120 -199h-49z" />
    <glyph glyph-name="logicalnot" unicode="&#xac;" horiz-adv-x="522" 
d="M380 194v201h-380v56h441v-257h-61z" />
    <glyph glyph-name="registered" unicode="&#xae;" horiz-adv-x="636" 
d="M486 320c-7.33301 -4.66699 -14.332 -8.33105 -20.999 -10.998s-12.667 -4 -18 -4c-12.667 0 -24.334 4.66699 -35.001 14s-23 23.666 -37 42.999l-43 57h-83v-108h-50v315h130c23.333 0 43 -1.16699 59 -3.5s28.833 -7.33301 38.5 -15s16.5 -18.167 20.5 -31.5
s6 -31 6 -53c0 -32 -4.83301 -55.667 -14.5 -71s-26.167 -25.333 -49.5 -30c5.33301 -6 10 -11.833 14 -17.5s8.66699 -11.834 14 -18.501c12 -16.667 22.333 -27.167 31 -31.5s18 -4.5 28 -0.5zM330.001 461.003c12.667 0 23.667 0.5 33 1.5s17 3.5 23 7.5
s10.333 10.167 13 18.5s4 19.833 4 34.5s-1.33301 26.167 -4 34.5s-7 14.5 -13 18.5s-13.667 6.33301 -23 7s-20.333 1 -33 1h-81v-123h81zM318.001 202.003c-36 0 -69.833 3.16699 -101.5 9.5s-59.334 19 -83.001 38s-42.334 46.333 -56.001 82s-20.5 82.5 -20.5 140.5
s6.83301 104.833 20.5 140.5s32.334 63 56.001 82s51.334 31.667 83.001 38s65.5 9.5 101.5 9.5s69.833 -3.16699 101.5 -9.5s59.334 -19 83.001 -38s42.334 -46.333 56.001 -82s20.5 -82.5 20.5 -140.5s-6.83301 -104.833 -20.5 -140.5s-32.334 -63 -56.001 -82
s-51.334 -31.667 -83.001 -38s-65.5 -9.5 -101.5 -9.5zM318.001 242.003c26.667 0 53.165 1.16797 79.498 3.50098s50 10.833 71 25.5s38 37.5 51 68.5s19.5 75.167 19.5 132.5c0 38 -3 70.167 -9 96.5s-14.167 48 -24.5 65s-22.666 30.167 -36.999 39.5
s-29.666 16.166 -45.999 20.499s-33.5 6.83301 -51.5 7.5s-35.667 1 -53 1c-27.333 0 -54.333 -1.16699 -81 -3.5s-50.334 -10.833 -71.001 -25.5s-37.334 -37.5 -50.001 -68.5s-19 -75.167 -19 -132.5s6.33301 -101.5 19 -132.5s29.334 -53.833 50.001 -68.5
s44.334 -23.167 71.001 -25.5s53.667 -3.5 81 -3.5z" />
    <glyph glyph-name="macron" unicode="&#xaf;" horiz-adv-x="433" 
d="M79 745v38h275v-38h-275z" />
    <glyph glyph-name="degree" unicode="&#xb0;" horiz-adv-x="340" 
d="M84 461c-24 24 -36.002 52.335 -36.002 85.002s12 59.667 36 81c23.333 22.667 52.333 34 87 34c34 0 62.333 -11.333 85 -34c24.667 -22 37 -49 37 -81c0 -32.667 -12.333 -60.334 -37 -83.001c-23.333 -23.333 -51.666 -35 -84.999 -35c-16 0 -31.667 3.16699 -47 9.5
s-28.666 14.166 -39.999 23.499zM261.998 546.002c0 12 -2.5 23.167 -7.5 33.5s-11.667 19.333 -20 27s-18 13.834 -29 18.501s-22.5 7 -34.5 7s-23.5 -2.33301 -34.5 -7s-20.667 -10.834 -29 -18.501s-15 -16.667 -20 -27s-7.5 -21.5 -7.5 -33.5s2.5 -23.333 7.5 -34
s11.667 -20.167 20 -28.5s18 -14.833 29 -19.5s22.5 -7 34.5 -7s23.5 2.33301 34.5 7s20.667 11.167 29 19.5s15 17.833 20 28.5s7.5 22 7.5 34z" />
    <glyph glyph-name="plusminus" unicode="&#xb1;" horiz-adv-x="451" 
d="M256 304v-185h-61v185h-190v54h190v184h61v-184h190v-54h-190zM5 0v56h441v-56h-441z" />
    <glyph glyph-name="acute" unicode="&#xb4;" horiz-adv-x="174" 
d="M31 547l53 106.999h85c-17.333 -19.333 -32.5 -37.166 -45.5 -53.499l-42.5 -53.5h-50z" />
    <glyph glyph-name="paragraph" unicode="&#xb6;" horiz-adv-x="575" 
d="M400 -186l-0.000976562 777.999h-128v-778h-57v479c-30 0.666992 -57 5.5 -81 14.5s-44.333 21.333 -61 37s-29.5 33.834 -38.5 54.501s-13.5 43.667 -13.5 69c0 55.333 18.333 99.5 55 132.5s90.334 49.5 161.001 49.5h293v-58h-69v-778h-61z" />
    <glyph glyph-name="periodcentered" unicode="&#xb7;" horiz-adv-x="245" 
d="M79 292v73h77v-73h-77z" />
    <glyph glyph-name="cedilla" unicode="&#xb8;" horiz-adv-x="239" 
d="M32 -156l4.00098 0.000976562c5.33301 -0.666992 11 -1 17 -1h14c30.667 0 53.667 4.66699 69 14c11.333 10 17 20.667 17 32c0 5.33301 -0.666992 10.166 -2 14.499s-4.33301 8.33301 -9 12s-11.667 6.66699 -21 9s-22 3.83301 -38 4.5l18 61h41l-15 -48
c29.333 -3.33301 51 -10.5 65 -21.5s21 -23.5 21 -37.5c0 -19.333 -10.667 -36.833 -32 -52.5s-53 -23.5 -95 -23.5c-22.667 0 -42.334 1 -59.001 3z" />
    <glyph glyph-name="ordmasculine" unicode="&#xba;" horiz-adv-x="393" 
d="M198 339c-44 0 -79.498 14 -106.498 42s-40.5 67 -40.5 117c0 52 13.333 92.167 40 120.5s62 42.5 106 42.5c43.333 0 78.333 -14.167 105 -42.5s40 -67.833 40 -118.5c0 -25.333 -3.66699 -47.833 -11 -67.5s-17.333 -36.5 -30 -50.5s-27.834 -24.667 -45.501 -32
s-36.834 -11 -57.501 -11zM197.002 378c28.667 0 51.834 9.83203 69.501 29.499s26.5 51.167 26.5 94.5c0 40.667 -8.83301 70.834 -26.5 90.501s-40.834 29.5 -69.501 29.5c-29.333 0 -52.833 -9.66699 -70.5 -29s-26.5 -50.333 -26.5 -93c0 -42 9 -72.833 27 -92.5
s41.333 -29.5 70 -29.5z" />
    <glyph glyph-name="guillemotright" unicode="&#xbb;" horiz-adv-x="465" 
d="M249 32l119 199l-59 99l-60 99h47l72.5 -98.5l72.5 -99.5l-145 -199h-47zM63 32l120 199l-120 198h48l71.5 -98.5l70.5 -99.5l-142 -199h-48z" />
    <glyph glyph-name="questiondown" unicode="&#xbf;" horiz-adv-x="511" 
d="M507 -113c-14 -6.66699 -30.834 -12.332 -50.501 -16.999s-40.834 -8.66699 -63.501 -12s-46.167 -5.83301 -70.5 -7.5s-48.166 -2.5 -71.499 -2.5c-32 0 -62.167 3.66699 -90.5 11s-53.333 18.166 -75 32.499s-38.667 32.5 -51 54.5s-18.5 47.667 -18.5 77
c0 28.667 3.33301 52.667 10 72s17.167 35.5 31.5 48.5s33 23.667 56 32s50.5 15.833 82.5 22.5c26.667 5.33301 49 10.333 67 15s32.333 10.5 43 17.5s18.334 16.333 23.001 28s7 27.5 7 47.5v50h77v-54c0 -28.667 -5.5 -52.667 -16.5 -72s-25.667 -35.166 -44 -47.499
s-39.833 -22.333 -64.5 -30s-50.334 -14.167 -77.001 -19.5c-29.333 -6 -52.333 -11.167 -69 -15.5s-29.167 -10 -37.5 -17s-13.666 -16.333 -15.999 -28s-3.5 -27.834 -3.5 -48.501c0 -45.333 15.333 -76.5 46 -93.5s75.667 -25.5 135 -25.5c20 0 40.333 1.16699 61 3.5
s40.334 5.33301 59.001 9s35.667 7.5 51 11.5s27.666 7.66699 36.999 11zM335.999 429.002v73h77v-73h-77z" />
    <glyph glyph-name="Agrave" unicode="&#xc0;" horiz-adv-x="657" 
d="M554 0l-81 201h-291l-80 -201h-74l257 642h86l257 -642h-74zM369 461l-38 121h-6l-38 -121l-84 -209h250zM353 707l-94 107h86l53 -107h-45z" />
    <glyph glyph-name="Aacute" unicode="&#xc1;" horiz-adv-x="657" 
d="M554 0l-81 201h-291l-80 -201h-74l257 642h86l257 -642h-74zM369 461l-38 121h-6l-38 -121l-84 -209h250zM292 689l53 106.999h85c-17.333 -19.333 -32.5 -37.166 -45.5 -53.499l-42.5 -53.5h-50z" />
    <glyph glyph-name="Acircumflex" unicode="&#xc2;" horiz-adv-x="657" 
d="M554 0l-81 201h-291l-80 -201h-74l257 642h86l257 -642h-74zM369 461l-38 121h-6l-38 -121l-84 -209h250zM389 689l-59 84l-59 -84h-72l44 54l44 53h80l91 -107h-69z" />
    <glyph glyph-name="Atilde" unicode="&#xc3;" horiz-adv-x="657" 
d="M554 0l-81 201h-291l-80 -201h-74l257 642h86l257 -642h-74zM369 461l-38 121h-6l-38 -121l-84 -209h250zM478 803c-2.66699 -26.667 -11.5 -47.335 -26.5 -62.002s-33.833 -22 -56.5 -22c-9.33301 0 -20.166 2.16699 -32.499 6.5s-26.5 10.5 -42.5 18.5
c-22 12 -39 18 -51 18c-8 0 -14.5 -1.16699 -19.5 -3.5s-10.167 -6.16602 -15.5 -11.499c-3.33301 -3.33301 -6 -7.33301 -8 -12s-3.33301 -10.667 -4 -18h-43c0.666992 13.333 3 24.5 7 33.5s9.66699 17.5 17 25.5c17.333 17.333 38.666 26 63.999 26
c9.33301 0 20.333 -2.16699 33 -6.5s27 -10.166 43 -17.499c20 -10 36.333 -15 49 -15s22.5 2.66699 29.5 8s12.167 16 15.5 32h41z" />
    <glyph glyph-name="Adieresis" unicode="&#xc4;" horiz-adv-x="657" 
d="M554 0l-81 201h-291l-80 -201h-74l257 642h86l257 -642h-74zM369 461l-38 121h-6l-38 -121l-84 -209h250zM204 723v73h70v-73h-70zM382 723v73h70v-73h-70z" />
    <glyph glyph-name="Aring" unicode="&#xc5;" horiz-adv-x="657" 
d="M554 0l-81 201h-291l-80 -201h-74l257 642h86l257 -642h-74zM369 461l-38 121h-6l-38 -121l-84 -209h250zM328 725c8.66699 0 16.167 1.66699 22.5 5s9.5 14 9.5 32c0 17.333 -3.33301 27.5 -10 30.5s-14 4.5 -22 4.5c-8.66699 0 -16.167 -1.5 -22.5 -4.5
s-9.5 -13.167 -9.5 -30.5c0 -18 3.16699 -28.667 9.5 -32s13.833 -5 22.5 -5zM328 695c-9.33301 0 -17.833 0.833008 -25.5 2.5s-14.334 4.83398 -20.001 9.50098s-10.167 11.334 -13.5 20.001s-5 20.334 -5 35.001c0 14 1.66699 25.333 5 34s7.83301 15.334 13.5 20.001
s12.334 7.83398 20.001 9.50098s16.167 2.5 25.5 2.5c8.66699 0 17 -0.833008 25 -2.5s14.833 -4.83398 20.5 -9.50098s10.167 -11.334 13.5 -20.001s5 -20 5 -34c0 -14.667 -1.66699 -26.334 -5 -35.001s-7.83301 -15.334 -13.5 -20.001s-12.5 -7.83398 -20.5 -9.50098
s-16.333 -2.5 -25 -2.5z" />
    <glyph glyph-name="AE" unicode="&#xc6;" horiz-adv-x="819" 
d="M332 0v201h-150l-80 -201h-74l257 642h527l-10 -57h-398v-224h323v-57h-323v-246h408l-10 -58h-470zM332 579l-1 3h-6l-38 -121l-84 -209h129v327z" />
    <glyph glyph-name="Ccedilla" unicode="&#xc7;" horiz-adv-x="650" 
d="M614 31c-28 -13.333 -62.501 -24.0029 -103.501 -32.0029s-84.833 -12 -131.5 -12c-49.333 0 -93.833 4.16699 -133.5 12.5s-73.5 24.5 -101.5 48.5s-49.667 57.833 -65 101.5s-23 100.834 -23 171.501s7.66699 127.834 23 171.501s37 77.5 65 101.5
s61.833 40.167 101.5 48.5s84.167 12.5 133.5 12.5c93.333 0 168.333 -13.333 225 -40l-33 -53c-19.333 6.66699 -45.666 14.334 -78.999 23.001s-70.333 13 -111 13c-36 0 -69.333 -2.5 -100 -7.5s-57.167 -16.833 -79.5 -35.5s-39.833 -46.5 -52.5 -83.5
s-19 -87.167 -19 -150.5c0 -64 6.33301 -114.5 19 -151.5s30.167 -64.667 52.5 -83s48.833 -30 79.5 -35s64 -7.5 100 -7.5c20 0 40 1.5 60 4.5s38.667 6.5 56 10.5s33.333 8.33301 48 13s26.667 8.66699 36 12zM236.999 -156.003l4.00098 0.000976562
c5.33301 -0.666992 11 -1 17 -1h14c30.667 0 53.667 4.66699 69 14c11.333 10 17 20.667 17 32c0 5.33301 -0.666992 10.166 -2 14.499s-4.33301 8.33301 -9 12s-11.667 6.66699 -21 9s-22 3.83301 -38 4.5l18 61h41l-15 -48c29.333 -3.33301 51 -10.5 65 -21.5
s21 -23.5 21 -37.5c0 -19.333 -10.667 -36.833 -32 -52.5s-53 -23.5 -95 -23.5c-22.667 0 -42.334 1 -59.001 3z" />
    <glyph glyph-name="Egrave" unicode="&#xc8;" horiz-adv-x="566" 
d="M79 0v642h480l-10 -57h-398v-224h323v-57h-323v-246h408l-10 -58h-470zM307 707l-94 107h86l53 -107h-45z" />
    <glyph glyph-name="Eacute" unicode="&#xc9;" horiz-adv-x="566" 
d="M79 0v642h480l-10 -57h-398v-224h323v-57h-323v-246h408l-10 -58h-470zM270 689l53 106.999h85c-17.333 -19.333 -32.5 -37.166 -45.5 -53.499l-42.5 -53.5h-50z" />
    <glyph glyph-name="Ecircumflex" unicode="&#xca;" horiz-adv-x="566" 
d="M79 0v642h480l-10 -57h-398v-224h323v-57h-323v-246h408l-10 -58h-470zM343 707l-59 84l-59 -84h-72l44 54l44 53h80l91 -107h-69z" />
    <glyph glyph-name="Edieresis" unicode="&#xcb;" horiz-adv-x="566" 
d="M79 0v642h480l-10 -57h-398v-224h323v-57h-323v-246h408l-10 -58h-470zM210 723v73h70v-73h-70zM388 723v73h70v-73h-70z" />
    <glyph glyph-name="Igrave" unicode="&#xcc;" horiz-adv-x="241" 
d="M79 0v642h72v-642h-72zM146 707l-94 107h86l53 -107h-45z" />
    <glyph glyph-name="Iacute" unicode="&#xcd;" horiz-adv-x="241" 
d="M79 0v642h72v-642h-72zM82 689l53 106.999h85c-17.333 -19.333 -32.5 -37.166 -45.5 -53.499l-42.5 -53.5h-50z" />
    <glyph glyph-name="Icircumflex" unicode="&#xce;" horiz-adv-x="241" 
d="M79 0v642h72v-642h-72zM182 689l-59 84l-59 -84h-72l44 54l44 53h80l91 -107h-69z" />
    <glyph glyph-name="Idieresis" unicode="&#xcf;" horiz-adv-x="241" 
d="M79 0v642h72v-642h-72zM-2 741v73h70v-73h-70zM176 741v73h70v-73h-70z" />
    <glyph glyph-name="Eth" unicode="&#xd0;" horiz-adv-x="689" 
d="M79 0l0.00292969 288h-77v63h77v291h230c48.667 0 93 -3.16699 133 -9.5s74 -20.5 102 -42.5s49.667 -54 65 -96s23 -98.333 23 -169c0 -71.333 -6.83301 -128.5 -20.5 -171.5s-33.834 -75.833 -60.501 -98.5s-59.334 -37.5 -98.001 -44.5s-83.334 -10.5 -134.001 -10.5
h-240zM309.003 58c46 0 85 2.66797 117 8.00098s57.667 17.333 77 36s33.333 45.667 42 81s13 83 13 143c0 63.333 -6.33301 112.5 -19 147.5s-30.167 60.667 -52.5 77s-48.833 26.166 -79.5 29.499s-64 5 -100 5h-156v-234h95v-63h-95v-230h158z" />
    <glyph glyph-name="Ntilde" unicode="&#xd1;" horiz-adv-x="685" 
d="M526 0l-379 544v-544h-68v642h80l379 -542v542h67v-642h-79zM492 803c-2.66699 -26.667 -11.5 -47.335 -26.5 -62.002s-33.833 -22 -56.5 -22c-9.33301 0 -20.166 2.16699 -32.499 6.5s-26.5 10.5 -42.5 18.5c-22 12 -39 18 -51 18c-8 0 -14.5 -1.16699 -19.5 -3.5
s-10.167 -6.16602 -15.5 -11.499c-3.33301 -3.33301 -6 -7.33301 -8 -12s-3.33301 -10.667 -4 -18h-43c0.666992 13.333 3 24.5 7 33.5s9.66699 17.5 17 25.5c17.333 17.333 38.666 26 63.999 26c9.33301 0 20.333 -2.16699 33 -6.5s27 -10.166 43 -17.499
c20 -10 36.333 -15 49 -15s22.5 2.66699 29.5 8s12.167 16 15.5 32h41z" />
    <glyph glyph-name="Ograve" unicode="&#xd2;" 
d="M379 599c-32.667 0 -63.998 -1.5 -93.998 -4.5s-56.333 -13.167 -79 -30.5s-40.834 -44.833 -54.501 -82.5s-20.5 -90.834 -20.5 -159.501c0 -46 3.16699 -84.833 9.5 -116.5s15 -57.667 26 -78s24.167 -36.166 39.5 -47.499s32.166 -19.5 50.499 -24.5
s37.833 -8 58.5 -9s42 -1.5 64 -1.5c21.333 0 42.333 0.5 63 1.5s40.167 4 58.5 9s35.333 13.167 51 24.5s29 27.166 40 47.499s19.667 46.333 26 78s9.5 70.5 9.5 116.5c0 68.667 -7 121.834 -21 159.501s-32.5 65.167 -55.5 82.5s-49.333 27.5 -79 30.5
s-60.5 4.5 -92.5 4.5zM57.002 322c0 72 8.5 129.833 25.5 173.5s40 77.334 69 101.001s63 39.334 102 47.001s80.833 11.5 125.5 11.5s86.5 -3.83301 125.5 -11.5s73 -23.334 102 -47.001s52 -57.334 69 -101.001s25.5 -101.5 25.5 -173.5s-8.5 -129.833 -25.5 -173.5
s-40 -77.334 -69 -101.001s-63 -39.334 -102 -47.001s-80.833 -11.5 -125.5 -11.5s-86.5 3.83301 -125.5 11.5s-73 23.334 -102 47.001s-52 57.334 -69 101.001s-25.5 101.5 -25.5 173.5zM403.002 707l-94 107h86l53 -107h-45z" />
    <glyph glyph-name="Oacute" unicode="&#xd3;" 
d="M379 599c-32.667 0 -63.998 -1.5 -93.998 -4.5s-56.333 -13.167 -79 -30.5s-40.834 -44.833 -54.501 -82.5s-20.5 -90.834 -20.5 -159.501c0 -46 3.16699 -84.833 9.5 -116.5s15 -57.667 26 -78s24.167 -36.166 39.5 -47.499s32.166 -19.5 50.499 -24.5
s37.833 -8 58.5 -9s42 -1.5 64 -1.5c21.333 0 42.333 0.5 63 1.5s40.167 4 58.5 9s35.333 13.167 51 24.5s29 27.166 40 47.499s19.667 46.333 26 78s9.5 70.5 9.5 116.5c0 68.667 -7 121.834 -21 159.501s-32.5 65.167 -55.5 82.5s-49.333 27.5 -79 30.5
s-60.5 4.5 -92.5 4.5zM57.002 322c0 72 8.5 129.833 25.5 173.5s40 77.334 69 101.001s63 39.334 102 47.001s80.833 11.5 125.5 11.5s86.5 -3.83301 125.5 -11.5s73 -23.334 102 -47.001s52 -57.334 69 -101.001s25.5 -101.5 25.5 -173.5s-8.5 -129.833 -25.5 -173.5
s-40 -77.334 -69 -101.001s-63 -39.334 -102 -47.001s-80.833 -11.5 -125.5 -11.5s-86.5 3.83301 -125.5 11.5s-73 23.334 -102 47.001s-52 57.334 -69 101.001s-25.5 101.5 -25.5 173.5zM310.002 689l53 106.999h85c-17.333 -19.333 -32.5 -37.166 -45.5 -53.499
l-42.5 -53.5h-50z" />
    <glyph glyph-name="Ocircumflex" unicode="&#xd4;" 
d="M379 599c-32.667 0 -63.998 -1.5 -93.998 -4.5s-56.333 -13.167 -79 -30.5s-40.834 -44.833 -54.501 -82.5s-20.5 -90.834 -20.5 -159.501c0 -46 3.16699 -84.833 9.5 -116.5s15 -57.667 26 -78s24.167 -36.166 39.5 -47.499s32.166 -19.5 50.499 -24.5
s37.833 -8 58.5 -9s42 -1.5 64 -1.5c21.333 0 42.333 0.5 63 1.5s40.167 4 58.5 9s35.333 13.167 51 24.5s29 27.166 40 47.499s19.667 46.333 26 78s9.5 70.5 9.5 116.5c0 68.667 -7 121.834 -21 159.501s-32.5 65.167 -55.5 82.5s-49.333 27.5 -79 30.5
s-60.5 4.5 -92.5 4.5zM57.002 322c0 72 8.5 129.833 25.5 173.5s40 77.334 69 101.001s63 39.334 102 47.001s80.833 11.5 125.5 11.5s86.5 -3.83301 125.5 -11.5s73 -23.334 102 -47.001s52 -57.334 69 -101.001s25.5 -101.5 25.5 -173.5s-8.5 -129.833 -25.5 -173.5
s-40 -77.334 -69 -101.001s-63 -39.334 -102 -47.001s-80.833 -11.5 -125.5 -11.5s-86.5 3.83301 -125.5 11.5s-73 23.334 -102 47.001s-52 57.334 -69 101.001s-25.5 101.5 -25.5 173.5zM439.002 689l-59 84l-59 -84h-72l44 54l44 53h80l91 -107h-69z" />
    <glyph glyph-name="Otilde" unicode="&#xd5;" 
d="M379 599c-32.667 0 -63.998 -1.5 -93.998 -4.5s-56.333 -13.167 -79 -30.5s-40.834 -44.833 -54.501 -82.5s-20.5 -90.834 -20.5 -159.501c0 -46 3.16699 -84.833 9.5 -116.5s15 -57.667 26 -78s24.167 -36.166 39.5 -47.499s32.166 -19.5 50.499 -24.5
s37.833 -8 58.5 -9s42 -1.5 64 -1.5c21.333 0 42.333 0.5 63 1.5s40.167 4 58.5 9s35.333 13.167 51 24.5s29 27.166 40 47.499s19.667 46.333 26 78s9.5 70.5 9.5 116.5c0 68.667 -7 121.834 -21 159.501s-32.5 65.167 -55.5 82.5s-49.333 27.5 -79 30.5
s-60.5 4.5 -92.5 4.5zM57.002 322c0 72 8.5 129.833 25.5 173.5s40 77.334 69 101.001s63 39.334 102 47.001s80.833 11.5 125.5 11.5s86.5 -3.83301 125.5 -11.5s73 -23.334 102 -47.001s52 -57.334 69 -101.001s25.5 -101.5 25.5 -173.5s-8.5 -129.833 -25.5 -173.5
s-40 -77.334 -69 -101.001s-63 -39.334 -102 -47.001s-80.833 -11.5 -125.5 -11.5s-86.5 3.83301 -125.5 11.5s-73 23.334 -102 47.001s-52 57.334 -69 101.001s-25.5 101.5 -25.5 173.5zM528.002 803c-2.66699 -26.667 -11.5 -47.335 -26.5 -62.002s-33.833 -22 -56.5 -22
c-9.33301 0 -20.166 2.16699 -32.499 6.5s-26.5 10.5 -42.5 18.5c-22 12 -39 18 -51 18c-8 0 -14.5 -1.16699 -19.5 -3.5s-10.167 -6.16602 -15.5 -11.499c-3.33301 -3.33301 -6 -7.33301 -8 -12s-3.33301 -10.667 -4 -18h-43c0.666992 13.333 3 24.5 7 33.5
s9.66699 17.5 17 25.5c17.333 17.333 38.666 26 63.999 26c9.33301 0 20.333 -2.16699 33 -6.5s27 -10.166 43 -17.499c20 -10 36.333 -15 49 -15s22.5 2.66699 29.5 8s12.167 16 15.5 32h41z" />
    <glyph glyph-name="Odieresis" unicode="&#xd6;" 
d="M379 599c-32.667 0 -63.998 -1.5 -93.998 -4.5s-56.333 -13.167 -79 -30.5s-40.834 -44.833 -54.501 -82.5s-20.5 -90.834 -20.5 -159.501c0 -46 3.16699 -84.833 9.5 -116.5s15 -57.667 26 -78s24.167 -36.166 39.5 -47.499s32.166 -19.5 50.499 -24.5
s37.833 -8 58.5 -9s42 -1.5 64 -1.5c21.333 0 42.333 0.5 63 1.5s40.167 4 58.5 9s35.333 13.167 51 24.5s29 27.166 40 47.499s19.667 46.333 26 78s9.5 70.5 9.5 116.5c0 68.667 -7 121.834 -21 159.501s-32.5 65.167 -55.5 82.5s-49.333 27.5 -79 30.5
s-60.5 4.5 -92.5 4.5zM57.002 322c0 72 8.5 129.833 25.5 173.5s40 77.334 69 101.001s63 39.334 102 47.001s80.833 11.5 125.5 11.5s86.5 -3.83301 125.5 -11.5s73 -23.334 102 -47.001s52 -57.334 69 -101.001s25.5 -101.5 25.5 -173.5s-8.5 -129.833 -25.5 -173.5
s-40 -77.334 -69 -101.001s-63 -39.334 -102 -47.001s-80.833 -11.5 -125.5 -11.5s-86.5 3.83301 -125.5 11.5s-73 23.334 -102 47.001s-52 57.334 -69 101.001s-25.5 101.5 -25.5 173.5zM255.002 723v73h70v-73h-70zM433.002 723v73h70v-73h-70z" />
    <glyph glyph-name="multiply" unicode="&#xd7;" horiz-adv-x="443" 
d="M218 278l-134 -133l-39 39l133 134l-128 129l43 43l128 -129l136 135l39 -39l-135 -135l131 -131l-43 -43z" />
    <glyph glyph-name="Oslash" unicode="&#xd8;" 
d="M655 540c14.667 -25.333 25.999 -55.668 33.999 -91.001s12 -77.666 12 -126.999c0 -72 -8.5 -129.833 -25.5 -173.5s-40 -77.334 -69 -101.001s-63 -39.334 -102 -47.001s-80.833 -11.5 -125.5 -11.5c-46 0 -89.167 4.16699 -129.5 12.5s-75.166 25.5 -104.499 51.5
l-55 -53l-64 37l75 71c-14 24.667 -24.833 54.5 -32.5 89.5s-11.5 76.5 -11.5 124.5c0 72 8.5 129.833 25.5 173.5s40 77.334 69 101.001s63 39.334 102 47.001s80.833 11.5 125.5 11.5c46 0 88.667 -4 128 -12s74 -24.667 104 -50l51 49l62 -36zM188.999 94.998
c11.333 -12.667 24.166 -22.3311 38.499 -28.998s29.666 -11.5 45.999 -14.5s33.333 -4.83301 51 -5.5s35.834 -1 54.501 -1c21.333 0 42.333 0.5 63 1.5s40.167 4 58.5 9s35.333 13.167 51 24.5s29 27.166 40 47.499s19.667 46.333 26 78s9.5 70.5 9.5 116.5
c0 37.333 -2.16699 69.666 -6.5 96.999s-10.166 51 -17.499 71zM565.999 550.001c-12 12 -25.166 21.334 -39.499 28.001s-29.5 11.5 -45.5 14.5s-32.5 4.83301 -49.5 5.5s-34.5 1 -52.5 1c-32.667 0 -64 -1.5 -94 -4.5s-56.333 -13.167 -79 -30.5
s-40.834 -44.833 -54.501 -82.5s-20.5 -90.834 -20.5 -159.501c0 -36 1.83301 -67.5 5.5 -94.5s9.16699 -50.5 16.5 -70.5z" />
    <glyph glyph-name="Ugrave" unicode="&#xd9;" horiz-adv-x="686" 
d="M543 642h70.998v-372c0 -50 -3.33301 -92.833 -10 -128.5s-19.667 -64.667 -39 -87s-46.666 -38.833 -81.999 -49.5s-81.666 -16 -138.999 -16s-103.833 5.33301 -139.5 16s-63.334 27.167 -83.001 49.5s-33 51.333 -40 87s-10.5 78.5 -10.5 128.5v372h71v-371
c0 -40 2.16699 -74.167 6.5 -102.5s13.5 -51.5 27.5 -69.5s34.333 -31.167 61 -39.5s62.334 -12.5 107.001 -12.5s80.167 4.16699 106.5 12.5s46.333 21.5 60 39.5s22.5 41.167 26.5 69.5s6 62.5 6 102.5v371zM366.998 707l-94 107h86l53 -107h-45z" />
    <glyph glyph-name="Uacute" unicode="&#xda;" horiz-adv-x="686" 
d="M543 642h70.998v-372c0 -50 -3.33301 -92.833 -10 -128.5s-19.667 -64.667 -39 -87s-46.666 -38.833 -81.999 -49.5s-81.666 -16 -138.999 -16s-103.833 5.33301 -139.5 16s-63.334 27.167 -83.001 49.5s-33 51.333 -40 87s-10.5 78.5 -10.5 128.5v372h71v-371
c0 -40 2.16699 -74.167 6.5 -102.5s13.5 -51.5 27.5 -69.5s34.333 -31.167 61 -39.5s62.334 -12.5 107.001 -12.5s80.167 4.16699 106.5 12.5s46.333 21.5 60 39.5s22.5 41.167 26.5 69.5s6 62.5 6 102.5v371zM273.998 689l53 106.999h85
c-17.333 -19.333 -32.5 -37.166 -45.5 -53.499l-42.5 -53.5h-50z" />
    <glyph glyph-name="Ucircumflex" unicode="&#xdb;" horiz-adv-x="686" 
d="M543 642h70.998v-372c0 -50 -3.33301 -92.833 -10 -128.5s-19.667 -64.667 -39 -87s-46.666 -38.833 -81.999 -49.5s-81.666 -16 -138.999 -16s-103.833 5.33301 -139.5 16s-63.334 27.167 -83.001 49.5s-33 51.333 -40 87s-10.5 78.5 -10.5 128.5v372h71v-371
c0 -40 2.16699 -74.167 6.5 -102.5s13.5 -51.5 27.5 -69.5s34.333 -31.167 61 -39.5s62.334 -12.5 107.001 -12.5s80.167 4.16699 106.5 12.5s46.333 21.5 60 39.5s22.5 41.167 26.5 69.5s6 62.5 6 102.5v371zM402.998 707l-59 84l-59 -84h-72l44 54l44 53h80l91 -107h-69z
" />
    <glyph glyph-name="Udieresis" unicode="&#xdc;" horiz-adv-x="686" 
d="M543 642h70.998v-372c0 -50 -3.33301 -92.833 -10 -128.5s-19.667 -64.667 -39 -87s-46.666 -38.833 -81.999 -49.5s-81.666 -16 -138.999 -16s-103.833 5.33301 -139.5 16s-63.334 27.167 -83.001 49.5s-33 51.333 -40 87s-10.5 78.5 -10.5 128.5v372h71v-371
c0 -40 2.16699 -74.167 6.5 -102.5s13.5 -51.5 27.5 -69.5s34.333 -31.167 61 -39.5s62.334 -12.5 107.001 -12.5s80.167 4.16699 106.5 12.5s46.333 21.5 60 39.5s22.5 41.167 26.5 69.5s6 62.5 6 102.5v371zM218.998 723v73h70v-73h-70zM396.998 723v73h70v-73h-70z" />
    <glyph glyph-name="Yacute" unicode="&#xdd;" horiz-adv-x="618" 
d="M269 0l0.000976562 274l-127.5 184l-128.5 184h86l66 -97.5l66 -97.5c13.333 -19.333 27.166 -40.666 41.499 -63.999l38.5 -63l37.5 62.5c15 24.333 30.167 47.166 45.5 68.499l66 95.5l67 95.5h79l-265 -368v-274h-72zM240.001 689l53 106.999h85
c-17.333 -19.333 -32.5 -37.166 -45.5 -53.499l-42.5 -53.5h-50z" />
    <glyph glyph-name="Thorn" unicode="&#xde;" horiz-adv-x="527" 
d="M72 -57v755.997h72v-58c6 0.666992 12 1 18 1h19c48.667 0 93 -3.5 133 -10.5s74 -21.667 102 -44s49.667 -54.666 65 -96.999s23 -98.833 23 -169.5s-7.66699 -127.167 -23 -169.5s-37 -74.666 -65 -96.999s-62 -37 -102 -44s-84.333 -10.5 -133 -10.5
c-6.66699 0 -13 -0.166992 -19 -0.5s-12 -0.166016 -18 0.500977v-57h-72zM144 56.9971c5.33301 -0.666992 11 -1 17 -1h18c36 0 69.333 1.83301 100 5.5s57.167 14 79.5 31s39.833 43.333 52.5 79s19 85.5 19 149.5c0 63.333 -6.33301 112.833 -19 148.5
s-30.167 62 -52.5 79s-48.833 27.333 -79.5 31s-64 5.5 -100 5.5h-18c-6 0 -11.667 -0.333008 -17 -1v-527z" />
    <glyph glyph-name="germandbls" unicode="&#xdf;" horiz-adv-x="675" 
d="M206 0v57h154c31.333 0 58.166 0.5 80.499 1.5s40.5 4.83301 54.5 11.5s24.167 17.5 30.5 32.5s9.5 36.167 9.5 63.5c0 32.667 -3 57.667 -9 75s-15.5 29.833 -28.5 37.5s-29.833 12.167 -50.5 13.5s-45.667 2 -75 2v57c29.333 0 54 1 74 3s36.167 7 48.5 15
s21.166 20.333 26.499 37s8 40 8 70c0 24.667 -3.16699 44.334 -9.5 59.001s-16.333 25.667 -30 33s-31.5 12 -53.5 14s-48.667 3 -80 3c-22 0 -45 -1.5 -69 -4.5s-46.167 -13 -66.5 -30s-37 -44.333 -50 -82s-19.5 -90.834 -19.5 -159.501v-309h-72v309
c0 66.667 7.16699 121.334 21.5 164.001s34 76.334 59 101.001s54.833 41.834 89.5 51.501s72 15.167 112 16.5c46 0.666992 84.5 -1 115.5 -5s55.667 -12.167 74 -24.5s31.5 -29.333 39.5 -51s12 -49.167 12 -82.5c0 -25.333 -1.66699 -46.333 -5 -63
s-8.5 -30.834 -15.5 -42.501s-15.667 -21.5 -26 -29.5s-22.166 -15.333 -35.499 -22c13.333 -6.66699 25.5 -13.834 36.5 -21.501s20.333 -17.334 28 -29.001s13.5 -26 17.5 -43s6 -37.833 6 -62.5c0 -34 -4.16699 -61.833 -12.5 -83.5s-22.166 -38.5 -41.499 -50.5
s-45 -20.333 -77 -25s-71.667 -7 -119 -7h-152z" />
    <glyph glyph-name="agrave" unicode="&#xe0;" horiz-adv-x="703" 
d="M648 -1c-33.333 4.66699 -58.002 14.3301 -74.002 28.9971s-26.667 38.334 -32 71.001c-23.333 -35.333 -54.5 -62.333 -93.5 -81s-86.5 -28 -142.5 -28c-38 0 -72.833 3 -104.5 9s-58.834 16.5 -81.501 31.5s-40.334 35.333 -53.001 61s-19 57.834 -19 96.501
s6.33301 70.834 19 96.501s30.334 46 53.001 61s49.834 25.5 81.501 31.5s66.5 9 104.5 9h218c-2 49.333 -7 88.166 -15 116.499s-20.167 49.5 -36.5 63.5s-37.333 22.833 -63 26.5s-57.5 5.5 -95.5 5.5c-20 0 -39.667 -1.33301 -59 -4s-37.5 -6 -54.5 -10
s-32.5 -8.16699 -46.5 -12.5s-25.667 -8.16602 -35 -11.499l-33 53c28 13.333 61.667 23.666 101 30.999s82.333 11 129 11c54 0 99.167 -4 135.5 -12s65.333 -23.667 87 -47s37.167 -56.666 46.5 -99.999s14 -100.333 14 -171v-16v-112c0 -25.333 1.16699 -46.5 3.5 -63.5
s5.83301 -31 10.5 -42s10.834 -19.5 18.501 -25.5s16.834 -10.333 27.501 -13zM524.998 327.996l-219 -0.000976562c-28 0 -53.667 -1.5 -77 -4.5s-43.333 -9.33301 -60 -19s-29.667 -23.667 -39 -42s-14 -43.166 -14 -74.499s4.66699 -56.166 14 -74.499
s22.5 -32.333 39.5 -42s37.167 -16 60.5 -19s49 -4.5 77 -4.5c47.333 0 85.333 6 114 18s50.667 29.833 66 53.5s25.5 52.667 30.5 87s7.5 74.166 7.5 119.499v2zM375.998 706.995l-94 107h86l53 -107h-45z" />
    <glyph glyph-name="aacute" unicode="&#xe1;" horiz-adv-x="657" 
d="M554 0l-81 201h-291l-80 -201h-74l257 642h86l257 -642h-74zM369 461l-38 121h-6l-38 -121l-84 -209h250zM292 689l53 106.999h85c-17.333 -19.333 -32.5 -37.166 -45.5 -53.499l-42.5 -53.5h-50z" />
    <glyph glyph-name="acircumflex" unicode="&#xe2;" horiz-adv-x="657" 
d="M554 0l-81 201h-291l-80 -201h-74l257 642h86l257 -642h-74zM369 461l-38 121h-6l-38 -121l-84 -209h250zM389 689l-59 84l-59 -84h-72l44 54l44 53h80l91 -107h-69z" />
    <glyph glyph-name="atilde" unicode="&#xe3;" horiz-adv-x="703" 
d="M648 -1c-33.333 4.66699 -58.002 14.3301 -74.002 28.9971s-26.667 38.334 -32 71.001c-23.333 -35.333 -54.5 -62.333 -93.5 -81s-86.5 -28 -142.5 -28c-38 0 -72.833 3 -104.5 9s-58.834 16.5 -81.501 31.5s-40.334 35.333 -53.001 61s-19 57.834 -19 96.501
s6.33301 70.834 19 96.501s30.334 46 53.001 61s49.834 25.5 81.501 31.5s66.5 9 104.5 9h218c-2 49.333 -7 88.166 -15 116.499s-20.167 49.5 -36.5 63.5s-37.333 22.833 -63 26.5s-57.5 5.5 -95.5 5.5c-20 0 -39.667 -1.33301 -59 -4s-37.5 -6 -54.5 -10
s-32.5 -8.16699 -46.5 -12.5s-25.667 -8.16602 -35 -11.499l-33 53c28 13.333 61.667 23.666 101 30.999s82.333 11 129 11c54 0 99.167 -4 135.5 -12s65.333 -23.667 87 -47s37.167 -56.666 46.5 -99.999s14 -100.333 14 -171v-16v-112c0 -25.333 1.16699 -46.5 3.5 -63.5
s5.83301 -31 10.5 -42s10.834 -19.5 18.501 -25.5s16.834 -10.333 27.501 -13zM524.998 327.996l-219 -0.000976562c-28 0 -53.667 -1.5 -77 -4.5s-43.333 -9.33301 -60 -19s-29.667 -23.667 -39 -42s-14 -43.166 -14 -74.499s4.66699 -56.166 14 -74.499
s22.5 -32.333 39.5 -42s37.167 -16 60.5 -19s49 -4.5 77 -4.5c47.333 0 85.333 6 114 18s50.667 29.833 66 53.5s25.5 52.667 30.5 87s7.5 74.166 7.5 119.499v2zM500.998 802.995c-2.66699 -26.667 -11.5 -47.335 -26.5 -62.002s-33.833 -22 -56.5 -22
c-9.33301 0 -20.166 2.16699 -32.499 6.5s-26.5 10.5 -42.5 18.5c-22 12 -39 18 -51 18c-8 0 -14.5 -1.16699 -19.5 -3.5s-10.167 -6.16602 -15.5 -11.499c-3.33301 -3.33301 -6 -7.33301 -8 -12s-3.33301 -10.667 -4 -18h-43c0.666992 13.333 3 24.5 7 33.5
s9.66699 17.5 17 25.5c17.333 17.333 38.666 26 63.999 26c9.33301 0 20.333 -2.16699 33 -6.5s27 -10.166 43 -17.499c20 -10 36.333 -15 49 -15s22.5 2.66699 29.5 8s12.167 16 15.5 32h41z" />
    <glyph glyph-name="adieresis" unicode="&#xe4;" horiz-adv-x="657" 
d="M554 0l-81 201h-291l-80 -201h-74l257 642h86l257 -642h-74zM369 461l-38 121h-6l-38 -121l-84 -209h250zM204 723v73h70v-73h-70zM382 723v73h70v-73h-70z" />
    <glyph glyph-name="aring" unicode="&#xe5;" horiz-adv-x="703" 
d="M648 -1c-33.333 4.66699 -58.002 14.3301 -74.002 28.9971s-26.667 38.334 -32 71.001c-23.333 -35.333 -54.5 -62.333 -93.5 -81s-86.5 -28 -142.5 -28c-38 0 -72.833 3 -104.5 9s-58.834 16.5 -81.501 31.5s-40.334 35.333 -53.001 61s-19 57.834 -19 96.501
s6.33301 70.834 19 96.501s30.334 46 53.001 61s49.834 25.5 81.501 31.5s66.5 9 104.5 9h218c-2 49.333 -7 88.166 -15 116.499s-20.167 49.5 -36.5 63.5s-37.333 22.833 -63 26.5s-57.5 5.5 -95.5 5.5c-20 0 -39.667 -1.33301 -59 -4s-37.5 -6 -54.5 -10
s-32.5 -8.16699 -46.5 -12.5s-25.667 -8.16602 -35 -11.499l-33 53c28 13.333 61.667 23.666 101 30.999s82.333 11 129 11c54 0 99.167 -4 135.5 -12s65.333 -23.667 87 -47s37.167 -56.666 46.5 -99.999s14 -100.333 14 -171v-16v-112c0 -25.333 1.16699 -46.5 3.5 -63.5
s5.83301 -31 10.5 -42s10.834 -19.5 18.501 -25.5s16.834 -10.333 27.501 -13zM524.998 327.996l-219 -0.000976562c-28 0 -53.667 -1.5 -77 -4.5s-43.333 -9.33301 -60 -19s-29.667 -23.667 -39 -42s-14 -43.166 -14 -74.499s4.66699 -56.166 14 -74.499
s22.5 -32.333 39.5 -42s37.167 -16 60.5 -19s49 -4.5 77 -4.5c47.333 0 85.333 6 114 18s50.667 29.833 66 53.5s25.5 52.667 30.5 87s7.5 74.166 7.5 119.499v2zM350.998 724.995c8.66699 0 16.167 1.66699 22.5 5s9.5 14 9.5 32c0 17.333 -3.33301 27.5 -10 30.5
s-14 4.5 -22 4.5c-8.66699 0 -16.167 -1.5 -22.5 -4.5s-9.5 -13.167 -9.5 -30.5c0 -18 3.16699 -28.667 9.5 -32s13.833 -5 22.5 -5zM350.998 694.995c-9.33301 0 -17.833 0.833008 -25.5 2.5s-14.334 4.83398 -20.001 9.50098s-10.167 11.334 -13.5 20.001
s-5 20.334 -5 35.001c0 14 1.66699 25.333 5 34s7.83301 15.334 13.5 20.001s12.334 7.83398 20.001 9.50098s16.167 2.5 25.5 2.5c8.66699 0 17 -0.833008 25 -2.5s14.833 -4.83398 20.5 -9.50098s10.167 -11.334 13.5 -20.001s5 -20 5 -34
c0 -14.667 -1.66699 -26.334 -5 -35.001s-7.83301 -15.334 -13.5 -20.001s-12.5 -7.83398 -20.5 -9.50098s-16.333 -2.5 -25 -2.5z" />
    <glyph glyph-name="ae" unicode="&#xe6;" horiz-adv-x="1193" 
d="M1097 38c-14 -6.66699 -30.998 -13.001 -50.998 -19.001s-41.5 -11.333 -64.5 -16s-46.833 -8.5 -71.5 -11.5s-48.667 -4.5 -72 -4.5c-35.333 0 -67.666 1.83301 -96.999 5.5s-56 10.5 -80 20.5s-45 23.833 -63 41.5s-32.667 40.167 -44 67.5
c-3.33301 -5.33301 -7.33301 -13 -12 -23c-23.333 -35.333 -54.5 -62.333 -93.5 -81s-86.5 -28 -142.5 -28c-38 0 -72.833 3 -104.5 9s-58.834 16.5 -81.501 31.5s-40.334 35.333 -53.001 61s-19 57.834 -19 96.501s6.33301 70.834 19 96.501s30.334 46 53.001 61
s49.834 25.5 81.501 31.5s66.5 9 104.5 9h218c-2 49.333 -7 88.166 -15 116.499s-20.167 49.5 -36.5 63.5s-37.333 22.833 -63 26.5s-57.5 5.5 -95.5 5.5c-20 0 -39.667 -1.33301 -59 -4s-37.5 -6 -54.5 -10s-32.5 -8.16699 -46.5 -12.5s-25.667 -8.16602 -35 -11.499
l-33 53c28 13.333 61.667 23.666 101 30.999s82.333 11 129 11c35.333 0 66.666 -1.5 93.999 -4.5s51.5 -8.66699 72.5 -17s38.667 -19.833 53 -34.5s26.166 -33.667 35.499 -57c12.667 22.667 28 41.334 46 56.001s38 26.167 60 34.5s45.667 14.166 71 17.499
s52.333 5 81 5c48 0 90.5 -4.66699 127.5 -14s68.167 -26.166 93.5 -50.499s44.666 -57.5 57.999 -99.5s20 -96 20 -162v-26h-529c0.666992 -55.333 5.66699 -99.833 15 -133.5s24 -59.834 44 -78.501s46 -31.167 78 -37.5s71 -9.5 117 -9.5c20 0 40.5 1.83301 61.5 5.5
s41 8 60 13s36.333 10.167 52 15.5l37.5 13zM525.002 327.999l-219 -0.00195312c-28 0 -53.667 -1.5 -77 -4.5s-43.333 -9.33301 -60 -19s-29.667 -23.667 -39 -42s-14 -43.166 -14 -74.499s4.66699 -56.166 14 -74.499s22.5 -32.333 39.5 -42s37.167 -16 60.5 -19
s49 -4.5 77 -4.5c44.667 0 81.167 5.5 109.5 16.5s50.333 27 66 48s26.5 47.167 32.5 78.5s9.33301 67.333 10 108v29zM1052 360.997c-2 51.333 -8.16602 92.667 -18.499 124s-24.666 55.5 -42.999 72.5s-41 28.167 -68 33.5s-58.167 8 -93.5 8
c-30.667 0 -59.334 -1.83301 -86.001 -5.5s-50.167 -13.167 -70.5 -28.5s-36.833 -39 -49.5 -71s-20.334 -76.333 -23.001 -133h452z" />
    <glyph glyph-name="ccedilla" unicode="&#xe7;" horiz-adv-x="650" 
d="M614 31c-28 -13.333 -62.501 -24.0029 -103.501 -32.0029s-84.833 -12 -131.5 -12c-49.333 0 -93.833 4.16699 -133.5 12.5s-73.5 24.5 -101.5 48.5s-49.667 57.833 -65 101.5s-23 100.834 -23 171.501s7.66699 127.834 23 171.501s37 77.5 65 101.5
s61.833 40.167 101.5 48.5s84.167 12.5 133.5 12.5c93.333 0 168.333 -13.333 225 -40l-33 -53c-19.333 6.66699 -45.666 14.334 -78.999 23.001s-70.333 13 -111 13c-36 0 -69.333 -2.5 -100 -7.5s-57.167 -16.833 -79.5 -35.5s-39.833 -46.5 -52.5 -83.5
s-19 -87.167 -19 -150.5c0 -64 6.33301 -114.5 19 -151.5s30.167 -64.667 52.5 -83s48.833 -30 79.5 -35s64 -7.5 100 -7.5c20 0 40 1.5 60 4.5s38.667 6.5 56 10.5s33.333 8.33301 48 13s26.667 8.66699 36 12zM236.999 -156.003l4.00098 0.000976562
c5.33301 -0.666992 11 -1 17 -1h14c30.667 0 53.667 4.66699 69 14c11.333 10 17 20.667 17 32c0 5.33301 -0.666992 10.166 -2 14.499s-4.33301 8.33301 -9 12s-11.667 6.66699 -21 9s-22 3.83301 -38 4.5l18 61h41l-15 -48c29.333 -3.33301 51 -10.5 65 -21.5
s21 -23.5 21 -37.5c0 -19.333 -10.667 -36.833 -32 -52.5s-53 -23.5 -95 -23.5c-22.667 0 -42.334 1 -59.001 3z" />
    <glyph glyph-name="egrave" unicode="&#xe8;" horiz-adv-x="704" 
d="M630 38c-14 -6.66699 -30.998 -13.001 -50.998 -19.001s-41.5 -11.333 -64.5 -16s-46.833 -8.5 -71.5 -11.5s-48.667 -4.5 -72 -4.5c-50 0 -94.333 4 -133 12s-71.334 23.833 -98.001 47.5s-47 56.667 -61 99s-21 98.166 -21 167.499c0 72 7.5 130.333 22.5 175
s36 79.334 63 104.001s59 41.334 96 50.001s77.833 13 122.5 13c48 0 90.5 -4.66699 127.5 -14s68.167 -26.166 93.5 -50.499s44.666 -57.5 57.999 -99.5s20 -96 20 -162v-26h-529c0.666992 -55.333 5.66699 -99.833 15 -133.5s24 -59.834 44 -78.501s46 -31.167 78 -37.5
s71 -9.5 117 -9.5c20 0 40.5 1.83301 61.5 5.5s41 8 60 13s36.333 10.167 52 15.5l37.5 13zM585.002 360.999c-2 51.333 -8.16602 92.667 -18.499 124s-24.666 55.5 -42.999 72.5s-41 28.167 -68 33.5s-58.167 8 -93.5 8c-30.667 0 -59.334 -1.83301 -86.001 -5.5
s-50.167 -13.167 -70.5 -28.5s-36.833 -39 -49.5 -71s-20.334 -76.333 -23.001 -133h452zM376.003 707l-94 107h86l53 -107h-45z" />
    <glyph glyph-name="eacute" unicode="&#xe9;" horiz-adv-x="566" 
d="M79 0v642h480l-10 -57h-398v-224h323v-57h-323v-246h408l-10 -58h-470zM270 689l53 106.999h85c-17.333 -19.333 -32.5 -37.166 -45.5 -53.499l-42.5 -53.5h-50z" />
    <glyph glyph-name="ecircumflex" unicode="&#xea;" horiz-adv-x="704" 
d="M630 38c-14 -6.66699 -30.998 -13.001 -50.998 -19.001s-41.5 -11.333 -64.5 -16s-46.833 -8.5 -71.5 -11.5s-48.667 -4.5 -72 -4.5c-50 0 -94.333 4 -133 12s-71.334 23.833 -98.001 47.5s-47 56.667 -61 99s-21 98.166 -21 167.499c0 72 7.5 130.333 22.5 175
s36 79.334 63 104.001s59 41.334 96 50.001s77.833 13 122.5 13c48 0 90.5 -4.66699 127.5 -14s68.167 -26.166 93.5 -50.499s44.666 -57.5 57.999 -99.5s20 -96 20 -162v-26h-529c0.666992 -55.333 5.66699 -99.833 15 -133.5s24 -59.834 44 -78.501s46 -31.167 78 -37.5
s71 -9.5 117 -9.5c20 0 40.5 1.83301 61.5 5.5s41 8 60 13s36.333 10.167 52 15.5l37.5 13zM585.002 360.999c-2 51.333 -8.16602 92.667 -18.499 124s-24.666 55.5 -42.999 72.5s-41 28.167 -68 33.5s-58.167 8 -93.5 8c-30.667 0 -59.334 -1.83301 -86.001 -5.5
s-50.167 -13.167 -70.5 -28.5s-36.833 -39 -49.5 -71s-20.334 -76.333 -23.001 -133h452zM412.003 707l-59 84l-59 -84h-72l44 54l44 53h80l91 -107h-69z" />
    <glyph glyph-name="edieresis" unicode="&#xeb;" horiz-adv-x="704" 
d="M630 38c-14 -6.66699 -30.998 -13.001 -50.998 -19.001s-41.5 -11.333 -64.5 -16s-46.833 -8.5 -71.5 -11.5s-48.667 -4.5 -72 -4.5c-50 0 -94.333 4 -133 12s-71.334 23.833 -98.001 47.5s-47 56.667 -61 99s-21 98.166 -21 167.499c0 72 7.5 130.333 22.5 175
s36 79.334 63 104.001s59 41.334 96 50.001s77.833 13 122.5 13c48 0 90.5 -4.66699 127.5 -14s68.167 -26.166 93.5 -50.499s44.666 -57.5 57.999 -99.5s20 -96 20 -162v-26h-529c0.666992 -55.333 5.66699 -99.833 15 -133.5s24 -59.834 44 -78.501s46 -31.167 78 -37.5
s71 -9.5 117 -9.5c20 0 40.5 1.83301 61.5 5.5s41 8 60 13s36.333 10.167 52 15.5l37.5 13zM585.002 360.999c-2 51.333 -8.16602 92.667 -18.499 124s-24.666 55.5 -42.999 72.5s-41 28.167 -68 33.5s-58.167 8 -93.5 8c-30.667 0 -59.334 -1.83301 -86.001 -5.5
s-50.167 -13.167 -70.5 -28.5s-36.833 -39 -49.5 -71s-20.334 -76.333 -23.001 -133h452zM228.003 723v73h70v-73h-70zM406.003 723v73h70v-73h-70z" />
    <glyph glyph-name="igrave" unicode="&#xec;" horiz-adv-x="241" 
d="M79 0v642h72v-642h-72zM146 707l-94 107h86l53 -107h-45z" />
    <glyph glyph-name="iacute" unicode="&#xed;" horiz-adv-x="241" 
d="M79 0v642h72v-642h-72zM82 689l53 106.999h85c-17.333 -19.333 -32.5 -37.166 -45.5 -53.499l-42.5 -53.5h-50z" />
    <glyph glyph-name="icircumflex" unicode="&#xee;" horiz-adv-x="241" 
d="M79 0v642h72v-642h-72zM182 689l-59 84l-59 -84h-72l44 54l44 53h80l91 -107h-69z" />
    <glyph glyph-name="idieresis" unicode="&#xef;" horiz-adv-x="241" 
d="M79 0v642h72v-642h-72zM-2 741v73h70v-73h-70zM176 741v73h70v-73h-70z" />
    <glyph glyph-name="eth" unicode="&#xf0;" horiz-adv-x="689" 
d="M79 0l0.00292969 288h-77v63h77v291h230c48.667 0 93 -3.16699 133 -9.5s74 -20.5 102 -42.5s49.667 -54 65 -96s23 -98.333 23 -169c0 -71.333 -6.83301 -128.5 -20.5 -171.5s-33.834 -75.833 -60.501 -98.5s-59.334 -37.5 -98.001 -44.5s-83.334 -10.5 -134.001 -10.5
h-240zM309.003 58c46 0 85 2.66797 117 8.00098s57.667 17.333 77 36s33.333 45.667 42 81s13 83 13 143c0 63.333 -6.33301 112.5 -19 147.5s-30.167 60.667 -52.5 77s-48.833 26.166 -79.5 29.499s-64 5 -100 5h-156v-234h95v-63h-95v-230h158z" />
    <glyph glyph-name="ntilde" unicode="&#xf1;" horiz-adv-x="685" 
d="M526 0l-379 544v-544h-68v642h80l379 -542v542h67v-642h-79zM492 803c-2.66699 -26.667 -11.5 -47.335 -26.5 -62.002s-33.833 -22 -56.5 -22c-9.33301 0 -20.166 2.16699 -32.499 6.5s-26.5 10.5 -42.5 18.5c-22 12 -39 18 -51 18c-8 0 -14.5 -1.16699 -19.5 -3.5
s-10.167 -6.16602 -15.5 -11.499c-3.33301 -3.33301 -6 -7.33301 -8 -12s-3.33301 -10.667 -4 -18h-43c0.666992 13.333 3 24.5 7 33.5s9.66699 17.5 17 25.5c17.333 17.333 38.666 26 63.999 26c9.33301 0 20.333 -2.16699 33 -6.5s27 -10.166 43 -17.499
c20 -10 36.333 -15 49 -15s22.5 2.66699 29.5 8s12.167 16 15.5 32h41z" />
    <glyph glyph-name="ograve" unicode="&#xf2;" 
d="M379 599c-32.667 0 -63.998 -1.5 -93.998 -4.5s-56.333 -13.167 -79 -30.5s-40.834 -44.833 -54.501 -82.5s-20.5 -90.834 -20.5 -159.501c0 -46 3.16699 -84.833 9.5 -116.5s15 -57.667 26 -78s24.167 -36.166 39.5 -47.499s32.166 -19.5 50.499 -24.5
s37.833 -8 58.5 -9s42 -1.5 64 -1.5c21.333 0 42.333 0.5 63 1.5s40.167 4 58.5 9s35.333 13.167 51 24.5s29 27.166 40 47.499s19.667 46.333 26 78s9.5 70.5 9.5 116.5c0 68.667 -7 121.834 -21 159.501s-32.5 65.167 -55.5 82.5s-49.333 27.5 -79 30.5
s-60.5 4.5 -92.5 4.5zM57.002 322c0 72 8.5 129.833 25.5 173.5s40 77.334 69 101.001s63 39.334 102 47.001s80.833 11.5 125.5 11.5s86.5 -3.83301 125.5 -11.5s73 -23.334 102 -47.001s52 -57.334 69 -101.001s25.5 -101.5 25.5 -173.5s-8.5 -129.833 -25.5 -173.5
s-40 -77.334 -69 -101.001s-63 -39.334 -102 -47.001s-80.833 -11.5 -125.5 -11.5s-86.5 3.83301 -125.5 11.5s-73 23.334 -102 47.001s-52 57.334 -69 101.001s-25.5 101.5 -25.5 173.5zM403.002 707l-94 107h86l53 -107h-45z" />
    <glyph glyph-name="oacute" unicode="&#xf3;" 
d="M379 599c-32.667 0 -63.998 -1.5 -93.998 -4.5s-56.333 -13.167 -79 -30.5s-40.834 -44.833 -54.501 -82.5s-20.5 -90.834 -20.5 -159.501c0 -46 3.16699 -84.833 9.5 -116.5s15 -57.667 26 -78s24.167 -36.166 39.5 -47.499s32.166 -19.5 50.499 -24.5
s37.833 -8 58.5 -9s42 -1.5 64 -1.5c21.333 0 42.333 0.5 63 1.5s40.167 4 58.5 9s35.333 13.167 51 24.5s29 27.166 40 47.499s19.667 46.333 26 78s9.5 70.5 9.5 116.5c0 68.667 -7 121.834 -21 159.501s-32.5 65.167 -55.5 82.5s-49.333 27.5 -79 30.5
s-60.5 4.5 -92.5 4.5zM57.002 322c0 72 8.5 129.833 25.5 173.5s40 77.334 69 101.001s63 39.334 102 47.001s80.833 11.5 125.5 11.5s86.5 -3.83301 125.5 -11.5s73 -23.334 102 -47.001s52 -57.334 69 -101.001s25.5 -101.5 25.5 -173.5s-8.5 -129.833 -25.5 -173.5
s-40 -77.334 -69 -101.001s-63 -39.334 -102 -47.001s-80.833 -11.5 -125.5 -11.5s-86.5 3.83301 -125.5 11.5s-73 23.334 -102 47.001s-52 57.334 -69 101.001s-25.5 101.5 -25.5 173.5zM310.002 689l53 106.999h85c-17.333 -19.333 -32.5 -37.166 -45.5 -53.499
l-42.5 -53.5h-50z" />
    <glyph glyph-name="ocircumflex" unicode="&#xf4;" 
d="M379 599c-32.667 0 -63.998 -1.5 -93.998 -4.5s-56.333 -13.167 -79 -30.5s-40.834 -44.833 -54.501 -82.5s-20.5 -90.834 -20.5 -159.501c0 -46 3.16699 -84.833 9.5 -116.5s15 -57.667 26 -78s24.167 -36.166 39.5 -47.499s32.166 -19.5 50.499 -24.5
s37.833 -8 58.5 -9s42 -1.5 64 -1.5c21.333 0 42.333 0.5 63 1.5s40.167 4 58.5 9s35.333 13.167 51 24.5s29 27.166 40 47.499s19.667 46.333 26 78s9.5 70.5 9.5 116.5c0 68.667 -7 121.834 -21 159.501s-32.5 65.167 -55.5 82.5s-49.333 27.5 -79 30.5
s-60.5 4.5 -92.5 4.5zM57.002 322c0 72 8.5 129.833 25.5 173.5s40 77.334 69 101.001s63 39.334 102 47.001s80.833 11.5 125.5 11.5s86.5 -3.83301 125.5 -11.5s73 -23.334 102 -47.001s52 -57.334 69 -101.001s25.5 -101.5 25.5 -173.5s-8.5 -129.833 -25.5 -173.5
s-40 -77.334 -69 -101.001s-63 -39.334 -102 -47.001s-80.833 -11.5 -125.5 -11.5s-86.5 3.83301 -125.5 11.5s-73 23.334 -102 47.001s-52 57.334 -69 101.001s-25.5 101.5 -25.5 173.5zM439.002 689l-59 84l-59 -84h-72l44 54l44 53h80l91 -107h-69z" />
    <glyph glyph-name="otilde" unicode="&#xf5;" 
d="M379 599c-32.667 0 -63.998 -1.5 -93.998 -4.5s-56.333 -13.167 -79 -30.5s-40.834 -44.833 -54.501 -82.5s-20.5 -90.834 -20.5 -159.501c0 -46 3.16699 -84.833 9.5 -116.5s15 -57.667 26 -78s24.167 -36.166 39.5 -47.499s32.166 -19.5 50.499 -24.5
s37.833 -8 58.5 -9s42 -1.5 64 -1.5c21.333 0 42.333 0.5 63 1.5s40.167 4 58.5 9s35.333 13.167 51 24.5s29 27.166 40 47.499s19.667 46.333 26 78s9.5 70.5 9.5 116.5c0 68.667 -7 121.834 -21 159.501s-32.5 65.167 -55.5 82.5s-49.333 27.5 -79 30.5
s-60.5 4.5 -92.5 4.5zM57.002 322c0 72 8.5 129.833 25.5 173.5s40 77.334 69 101.001s63 39.334 102 47.001s80.833 11.5 125.5 11.5s86.5 -3.83301 125.5 -11.5s73 -23.334 102 -47.001s52 -57.334 69 -101.001s25.5 -101.5 25.5 -173.5s-8.5 -129.833 -25.5 -173.5
s-40 -77.334 -69 -101.001s-63 -39.334 -102 -47.001s-80.833 -11.5 -125.5 -11.5s-86.5 3.83301 -125.5 11.5s-73 23.334 -102 47.001s-52 57.334 -69 101.001s-25.5 101.5 -25.5 173.5zM528.002 803c-2.66699 -26.667 -11.5 -47.335 -26.5 -62.002s-33.833 -22 -56.5 -22
c-9.33301 0 -20.166 2.16699 -32.499 6.5s-26.5 10.5 -42.5 18.5c-22 12 -39 18 -51 18c-8 0 -14.5 -1.16699 -19.5 -3.5s-10.167 -6.16602 -15.5 -11.499c-3.33301 -3.33301 -6 -7.33301 -8 -12s-3.33301 -10.667 -4 -18h-43c0.666992 13.333 3 24.5 7 33.5
s9.66699 17.5 17 25.5c17.333 17.333 38.666 26 63.999 26c9.33301 0 20.333 -2.16699 33 -6.5s27 -10.166 43 -17.499c20 -10 36.333 -15 49 -15s22.5 2.66699 29.5 8s12.167 16 15.5 32h41z" />
    <glyph glyph-name="odieresis" unicode="&#xf6;" 
d="M379 599c-32.667 0 -63.998 -1.5 -93.998 -4.5s-56.333 -13.167 -79 -30.5s-40.834 -44.833 -54.501 -82.5s-20.5 -90.834 -20.5 -159.501c0 -46 3.16699 -84.833 9.5 -116.5s15 -57.667 26 -78s24.167 -36.166 39.5 -47.499s32.166 -19.5 50.499 -24.5
s37.833 -8 58.5 -9s42 -1.5 64 -1.5c21.333 0 42.333 0.5 63 1.5s40.167 4 58.5 9s35.333 13.167 51 24.5s29 27.166 40 47.499s19.667 46.333 26 78s9.5 70.5 9.5 116.5c0 68.667 -7 121.834 -21 159.501s-32.5 65.167 -55.5 82.5s-49.333 27.5 -79 30.5
s-60.5 4.5 -92.5 4.5zM57.002 322c0 72 8.5 129.833 25.5 173.5s40 77.334 69 101.001s63 39.334 102 47.001s80.833 11.5 125.5 11.5s86.5 -3.83301 125.5 -11.5s73 -23.334 102 -47.001s52 -57.334 69 -101.001s25.5 -101.5 25.5 -173.5s-8.5 -129.833 -25.5 -173.5
s-40 -77.334 -69 -101.001s-63 -39.334 -102 -47.001s-80.833 -11.5 -125.5 -11.5s-86.5 3.83301 -125.5 11.5s-73 23.334 -102 47.001s-52 57.334 -69 101.001s-25.5 101.5 -25.5 173.5zM255.002 723v73h70v-73h-70zM433.002 723v73h70v-73h-70z" />
    <glyph glyph-name="divide" unicode="&#xf7;" horiz-adv-x="447" 
d="M185 422v73h77v-73h-77zM3 293v56h441v-56h-441zM185 146v73h77v-73h-77z" />
    <glyph glyph-name="oslash" unicode="&#xf8;" 
d="M655 540c14.667 -25.333 25.999 -55.668 33.999 -91.001s12 -77.666 12 -126.999c0 -72 -8.5 -129.833 -25.5 -173.5s-40 -77.334 -69 -101.001s-63 -39.334 -102 -47.001s-80.833 -11.5 -125.5 -11.5c-46 0 -89.167 4.16699 -129.5 12.5s-75.166 25.5 -104.499 51.5
l-55 -53l-64 37l75 71c-14 24.667 -24.833 54.5 -32.5 89.5s-11.5 76.5 -11.5 124.5c0 72 8.5 129.833 25.5 173.5s40 77.334 69 101.001s63 39.334 102 47.001s80.833 11.5 125.5 11.5c46 0 88.667 -4 128 -12s74 -24.667 104 -50l51 49l62 -36zM188.999 94.998
c11.333 -12.667 24.166 -22.3311 38.499 -28.998s29.666 -11.5 45.999 -14.5s33.333 -4.83301 51 -5.5s35.834 -1 54.501 -1c21.333 0 42.333 0.5 63 1.5s40.167 4 58.5 9s35.333 13.167 51 24.5s29 27.166 40 47.499s19.667 46.333 26 78s9.5 70.5 9.5 116.5
c0 37.333 -2.16699 69.666 -6.5 96.999s-10.166 51 -17.499 71zM565.999 550.001c-12 12 -25.166 21.334 -39.499 28.001s-29.5 11.5 -45.5 14.5s-32.5 4.83301 -49.5 5.5s-34.5 1 -52.5 1c-32.667 0 -64 -1.5 -94 -4.5s-56.333 -13.167 -79 -30.5
s-40.834 -44.833 -54.501 -82.5s-20.5 -90.834 -20.5 -159.501c0 -36 1.83301 -67.5 5.5 -94.5s9.16699 -50.5 16.5 -70.5z" />
    <glyph glyph-name="ugrave" unicode="&#xf9;" horiz-adv-x="668" 
d="M543 642h70.998v-372c0 -50 -3.33301 -92.833 -10 -128.5s-19.667 -64.667 -39 -87s-46.666 -38.833 -81.999 -49.5s-81.666 -16 -138.999 -16s-103.833 5.33301 -139.5 16s-63.334 27.167 -83.001 49.5s-33 51.333 -40 87s-10.5 78.5 -10.5 128.5v372h71v-371
c0 -40 2.16699 -74.167 6.5 -102.5s13.5 -51.5 27.5 -69.5s34.333 -31.167 61 -39.5s62.334 -12.5 107.001 -12.5s80.167 4.16699 106.5 12.5s46.333 21.5 60 39.5s22.5 41.167 26.5 69.5s6 62.5 6 102.5v371zM357.998 707l-94 107h86l53 -107h-45z" />
    <glyph glyph-name="uacute" unicode="&#xfa;" horiz-adv-x="668" 
d="M543 642h70.998v-372c0 -50 -3.33301 -92.833 -10 -128.5s-19.667 -64.667 -39 -87s-46.666 -38.833 -81.999 -49.5s-81.666 -16 -138.999 -16s-103.833 5.33301 -139.5 16s-63.334 27.167 -83.001 49.5s-33 51.333 -40 87s-10.5 78.5 -10.5 128.5v372h71v-371
c0 -40 2.16699 -74.167 6.5 -102.5s13.5 -51.5 27.5 -69.5s34.333 -31.167 61 -39.5s62.334 -12.5 107.001 -12.5s80.167 4.16699 106.5 12.5s46.333 21.5 60 39.5s22.5 41.167 26.5 69.5s6 62.5 6 102.5v371zM264.998 689l53 106.999h85
c-17.333 -19.333 -32.5 -37.166 -45.5 -53.499l-42.5 -53.5h-50z" />
    <glyph glyph-name="ucircumflex" unicode="&#xfb;" horiz-adv-x="668" 
d="M543 642h70.998v-372c0 -50 -3.33301 -92.833 -10 -128.5s-19.667 -64.667 -39 -87s-46.666 -38.833 -81.999 -49.5s-81.666 -16 -138.999 -16s-103.833 5.33301 -139.5 16s-63.334 27.167 -83.001 49.5s-33 51.333 -40 87s-10.5 78.5 -10.5 128.5v372h71v-371
c0 -40 2.16699 -74.167 6.5 -102.5s13.5 -51.5 27.5 -69.5s34.333 -31.167 61 -39.5s62.334 -12.5 107.001 -12.5s80.167 4.16699 106.5 12.5s46.333 21.5 60 39.5s22.5 41.167 26.5 69.5s6 62.5 6 102.5v371zM393.998 707l-59 84l-59 -84h-72l44 54l44 53h80l91 -107h-69z
" />
    <glyph glyph-name="udieresis" unicode="&#xfc;" horiz-adv-x="668" 
d="M543 642h70.998v-372c0 -50 -3.33301 -92.833 -10 -128.5s-19.667 -64.667 -39 -87s-46.666 -38.833 -81.999 -49.5s-81.666 -16 -138.999 -16s-103.833 5.33301 -139.5 16s-63.334 27.167 -83.001 49.5s-33 51.333 -40 87s-10.5 78.5 -10.5 128.5v372h71v-371
c0 -40 2.16699 -74.167 6.5 -102.5s13.5 -51.5 27.5 -69.5s34.333 -31.167 61 -39.5s62.334 -12.5 107.001 -12.5s80.167 4.16699 106.5 12.5s46.333 21.5 60 39.5s22.5 41.167 26.5 69.5s6 62.5 6 102.5v371zM209.998 723v73h70v-73h-70zM387.998 723v73h70v-73h-70z" />
    <glyph glyph-name="yacute" unicode="&#xfd;" horiz-adv-x="618" 
d="M269 0l0.000976562 274l-127.5 184l-128.5 184h86l66 -97.5l66 -97.5c13.333 -19.333 27.166 -40.666 41.499 -63.999l38.5 -63l37.5 62.5c15 24.333 30.167 47.166 45.5 68.499l66 95.5l67 95.5h79l-265 -368v-274h-72zM240.001 689l53 106.999h85
c-17.333 -19.333 -32.5 -37.166 -45.5 -53.499l-42.5 -53.5h-50z" />
    <glyph glyph-name="thorn" unicode="&#xfe;" horiz-adv-x="527" 
d="M72 -57v755.997h72v-58c6 0.666992 12 1 18 1h19c48.667 0 93 -3.5 133 -10.5s74 -21.667 102 -44s49.667 -54.666 65 -96.999s23 -98.833 23 -169.5s-7.66699 -127.167 -23 -169.5s-37 -74.666 -65 -96.999s-62 -37 -102 -44s-84.333 -10.5 -133 -10.5
c-6.66699 0 -13 -0.166992 -19 -0.5s-12 -0.166016 -18 0.500977v-57h-72zM144 56.9971c5.33301 -0.666992 11 -1 17 -1h18c36 0 69.333 1.83301 100 5.5s57.167 14 79.5 31s39.833 43.333 52.5 79s19 85.5 19 149.5c0 63.333 -6.33301 112.833 -19 148.5
s-30.167 62 -52.5 79s-48.833 27.333 -79.5 31s-64 5.5 -100 5.5h-18c-6 0 -11.667 -0.333008 -17 -1v-527z" />
    <glyph glyph-name="ydieresis" unicode="&#xff;" horiz-adv-x="618" 
d="M269 0l0.000976562 274l-127.5 184l-128.5 184h86l66 -97.5l66 -97.5c13.333 -19.333 27.166 -40.666 41.499 -63.999l38.5 -63l37.5 62.5c15 24.333 30.167 47.166 45.5 68.499l66 95.5l67 95.5h79l-265 -368v-274h-72zM185.001 741v73h70v-73h-70zM363.001 741v73h70
v-73h-70z" />
    <glyph glyph-name="Amacron" unicode="&#x100;" horiz-adv-x="657" 
d="M554 0l-81 201h-291l-80 -201h-74l257 642h86l257 -642h-74zM369 461l-38 121h-6l-38 -121l-84 -209h250zM191 745v38h275v-38h-275z" />
    <glyph glyph-name="amacron" unicode="&#x101;" horiz-adv-x="703" 
d="M648 -1c-33.333 4.66699 -58.002 14.3301 -74.002 28.9971s-26.667 38.334 -32 71.001c-23.333 -35.333 -54.5 -62.333 -93.5 -81s-86.5 -28 -142.5 -28c-38 0 -72.833 3 -104.5 9s-58.834 16.5 -81.501 31.5s-40.334 35.333 -53.001 61s-19 57.834 -19 96.501
s6.33301 70.834 19 96.501s30.334 46 53.001 61s49.834 25.5 81.501 31.5s66.5 9 104.5 9h218c-2 49.333 -7 88.166 -15 116.499s-20.167 49.5 -36.5 63.5s-37.333 22.833 -63 26.5s-57.5 5.5 -95.5 5.5c-20 0 -39.667 -1.33301 -59 -4s-37.5 -6 -54.5 -10
s-32.5 -8.16699 -46.5 -12.5s-25.667 -8.16602 -35 -11.499l-33 53c28 13.333 61.667 23.666 101 30.999s82.333 11 129 11c54 0 99.167 -4 135.5 -12s65.333 -23.667 87 -47s37.167 -56.666 46.5 -99.999s14 -100.333 14 -171v-16v-112c0 -25.333 1.16699 -46.5 3.5 -63.5
s5.83301 -31 10.5 -42s10.834 -19.5 18.501 -25.5s16.834 -10.333 27.501 -13zM524.998 327.996l-219 -0.000976562c-28 0 -53.667 -1.5 -77 -4.5s-43.333 -9.33301 -60 -19s-29.667 -23.667 -39 -42s-14 -43.166 -14 -74.499s4.66699 -56.166 14 -74.499
s22.5 -32.333 39.5 -42s37.167 -16 60.5 -19s49 -4.5 77 -4.5c47.333 0 85.333 6 114 18s50.667 29.833 66 53.5s25.5 52.667 30.5 87s7.5 74.166 7.5 119.499v2zM213.998 744.995v38h275v-38h-275z" />
    <glyph glyph-name="Abreve" unicode="&#x102;" horiz-adv-x="657" 
d="M554 0l-81 201h-291l-80 -201h-74l257 642h86l257 -642h-74zM369 461l-38 121h-6l-38 -121l-84 -209h250zM466 795c-6.66699 -35.333 -21.833 -62.832 -45.5 -82.499s-54.5 -29.5 -92.5 -29.5c-39.333 0 -70.666 9.16699 -93.999 27.5s-38 46.5 -44 84.5h43
c11.333 -46 42 -69 92 -69c29.333 0 51.666 5.66699 66.999 17s26 28.666 32 51.999h42z" />
    <glyph glyph-name="abreve" unicode="&#x103;" horiz-adv-x="657" 
d="M554 0l-81 201h-291l-80 -201h-74l257 642h86l257 -642h-74zM369 461l-38 121h-6l-38 -121l-84 -209h250zM466 795c-6.66699 -35.333 -21.833 -62.832 -45.5 -82.499s-54.5 -29.5 -92.5 -29.5c-39.333 0 -70.666 9.16699 -93.999 27.5s-38 46.5 -44 84.5h43
c11.333 -46 42 -69 92 -69c29.333 0 51.666 5.66699 66.999 17s26 28.666 32 51.999h42z" />
    <glyph glyph-name="Aogonek" unicode="&#x104;" horiz-adv-x="657" 
d="M554 -181l-0.000976562 64c0 19.333 1.33301 36.166 4 50.499s6 25.833 10 34.5c7.33301 12.667 16.333 23.334 27 32.001h-41l-81 201h-291l-80 -201h-74l257 642h86l257 -642c-15.333 -8 -26.666 -20.5 -33.999 -37.5s-11.333 -39.833 -12 -68.5h44v-75h-72z
M368.999 461l-38 121h-6l-38 -121l-84 -209h250z" />
    <glyph glyph-name="aogonek" unicode="&#x105;" horiz-adv-x="703" 
d="M623 -181c-33.333 0 -50 16.665 -50 49.998v14c0 40 4.66699 68.333 14 85c7.33301 14 18 26 32 36c-23.333 6.66699 -40.833 17.167 -52.5 31.5s-19.834 35.5 -24.501 63.5c-23.333 -35.333 -54.5 -62.333 -93.5 -81s-86.5 -28 -142.5 -28c-38 0 -72.833 3 -104.5 9
s-58.834 16.5 -81.501 31.5s-40.334 35.333 -53.001 61s-19 57.834 -19 96.501s6.33301 70.834 19 96.501s30.334 46 53.001 61s49.834 25.5 81.501 31.5s66.5 9 104.5 9h218c-2 49.333 -7 88.166 -15 116.499s-20.167 49.5 -36.5 63.5s-37.333 22.833 -63 26.5
s-57.5 5.5 -95.5 5.5c-20 0 -39.667 -1.33301 -59 -4s-37.5 -6 -54.5 -10s-32.5 -8.16699 -46.5 -12.5s-25.667 -8.16602 -35 -11.499l-33 53c28 13.333 61.667 23.666 101 30.999s82.333 11 129 11c54 0 99.167 -4 135.5 -12s65.333 -23.667 87 -47
s37.167 -56.666 46.5 -99.999s14 -100.333 14 -171v-128c0 -25.333 1.16699 -46.5 3.5 -63.5s5.83301 -31 10.5 -42s10.834 -19.5 18.501 -25.5s16.834 -10.333 27.501 -13l-11 -54c-30.667 -15.333 -46.334 -50.333 -47.001 -105h44v-75h-22zM525 327.998
l-219 -0.000976562c-28 0 -53.667 -1.5 -77 -4.5s-43.333 -9.33301 -60 -19s-29.667 -23.667 -39 -42s-14 -43.166 -14 -74.499s4.66699 -56.166 14 -74.499s22.5 -32.333 39.5 -42s37.167 -16 60.5 -19s49 -4.5 77 -4.5c47.333 0 85.333 6 114 18s50.667 29.833 66 53.5
s25.5 52.667 30.5 87s7.5 74.166 7.5 119.499v2z" />
    <glyph glyph-name="Cacute" unicode="&#x106;" horiz-adv-x="650" 
d="M614 31c-28 -13.333 -62.501 -24.0029 -103.501 -32.0029s-84.833 -12 -131.5 -12c-49.333 0 -93.833 4.16699 -133.5 12.5s-73.5 24.5 -101.5 48.5s-49.667 57.833 -65 101.5s-23 100.834 -23 171.501s7.66699 127.834 23 171.501s37 77.5 65 101.5
s61.833 40.167 101.5 48.5s84.167 12.5 133.5 12.5c93.333 0 168.333 -13.333 225 -40l-33 -53c-19.333 6.66699 -45.666 14.334 -78.999 23.001s-70.333 13 -111 13c-36 0 -69.333 -2.5 -100 -7.5s-57.167 -16.833 -79.5 -35.5s-39.833 -46.5 -52.5 -83.5
s-19 -87.167 -19 -150.5c0 -64 6.33301 -114.5 19 -151.5s30.167 -64.667 52.5 -83s48.833 -30 79.5 -35s64 -7.5 100 -7.5c20 0 40 1.5 60 4.5s38.667 6.5 56 10.5s33.333 8.33301 48 13s26.667 8.66699 36 12zM315.999 706.997l53 106.999h85
c-17.333 -19.333 -32.5 -37.166 -45.5 -53.499l-42.5 -53.5h-50z" />
    <glyph glyph-name="cacute" unicode="&#x107;" horiz-adv-x="650" 
d="M614 31c-28 -13.333 -62.501 -24.0029 -103.501 -32.0029s-84.833 -12 -131.5 -12c-49.333 0 -93.833 4.16699 -133.5 12.5s-73.5 24.5 -101.5 48.5s-49.667 57.833 -65 101.5s-23 100.834 -23 171.501s7.66699 127.834 23 171.501s37 77.5 65 101.5
s61.833 40.167 101.5 48.5s84.167 12.5 133.5 12.5c93.333 0 168.333 -13.333 225 -40l-33 -53c-19.333 6.66699 -45.666 14.334 -78.999 23.001s-70.333 13 -111 13c-36 0 -69.333 -2.5 -100 -7.5s-57.167 -16.833 -79.5 -35.5s-39.833 -46.5 -52.5 -83.5
s-19 -87.167 -19 -150.5c0 -64 6.33301 -114.5 19 -151.5s30.167 -64.667 52.5 -83s48.833 -30 79.5 -35s64 -7.5 100 -7.5c20 0 40 1.5 60 4.5s38.667 6.5 56 10.5s33.333 8.33301 48 13s26.667 8.66699 36 12zM315.999 706.997l53 106.999h85
c-17.333 -19.333 -32.5 -37.166 -45.5 -53.499l-42.5 -53.5h-50z" />
    <glyph glyph-name="Ccircumflex" unicode="&#x108;" horiz-adv-x="650" 
d="M614 31c-28 -13.333 -62.501 -24.0029 -103.501 -32.0029s-84.833 -12 -131.5 -12c-49.333 0 -93.833 4.16699 -133.5 12.5s-73.5 24.5 -101.5 48.5s-49.667 57.833 -65 101.5s-23 100.834 -23 171.501s7.66699 127.834 23 171.501s37 77.5 65 101.5
s61.833 40.167 101.5 48.5s84.167 12.5 133.5 12.5c93.333 0 168.333 -13.333 225 -40l-33 -53c-19.333 6.66699 -45.666 14.334 -78.999 23.001s-70.333 13 -111 13c-36 0 -69.333 -2.5 -100 -7.5s-57.167 -16.833 -79.5 -35.5s-39.833 -46.5 -52.5 -83.5
s-19 -87.167 -19 -150.5c0 -64 6.33301 -114.5 19 -151.5s30.167 -64.667 52.5 -83s48.833 -30 79.5 -35s64 -7.5 100 -7.5c20 0 40 1.5 60 4.5s38.667 6.5 56 10.5s33.333 8.33301 48 13s26.667 8.66699 36 12zM433.999 706.997l-59 84l-59 -84h-72l44 54l44 53h80l91 -107
h-69z" />
    <glyph glyph-name="ccircumflex" unicode="&#x109;" horiz-adv-x="650" 
d="M614 31c-28 -13.333 -62.501 -24.0029 -103.501 -32.0029s-84.833 -12 -131.5 -12c-49.333 0 -93.833 4.16699 -133.5 12.5s-73.5 24.5 -101.5 48.5s-49.667 57.833 -65 101.5s-23 100.834 -23 171.501s7.66699 127.834 23 171.501s37 77.5 65 101.5
s61.833 40.167 101.5 48.5s84.167 12.5 133.5 12.5c93.333 0 168.333 -13.333 225 -40l-33 -53c-19.333 6.66699 -45.666 14.334 -78.999 23.001s-70.333 13 -111 13c-36 0 -69.333 -2.5 -100 -7.5s-57.167 -16.833 -79.5 -35.5s-39.833 -46.5 -52.5 -83.5
s-19 -87.167 -19 -150.5c0 -64 6.33301 -114.5 19 -151.5s30.167 -64.667 52.5 -83s48.833 -30 79.5 -35s64 -7.5 100 -7.5c20 0 40 1.5 60 4.5s38.667 6.5 56 10.5s33.333 8.33301 48 13s26.667 8.66699 36 12zM427.999 706.997l-59 84l-59 -84h-72l44 54l44 53h80l91 -107
h-69z" />
    <glyph glyph-name="Cdotaccent" unicode="&#x10a;" horiz-adv-x="650" 
d="M614 31c-28 -13.333 -62.501 -24.0029 -103.501 -32.0029s-84.833 -12 -131.5 -12c-49.333 0 -93.833 4.16699 -133.5 12.5s-73.5 24.5 -101.5 48.5s-49.667 57.833 -65 101.5s-23 100.834 -23 171.501s7.66699 127.834 23 171.501s37 77.5 65 101.5
s61.833 40.167 101.5 48.5s84.167 12.5 133.5 12.5c93.333 0 168.333 -13.333 225 -40l-33 -53c-19.333 6.66699 -45.666 14.334 -78.999 23.001s-70.333 13 -111 13c-36 0 -69.333 -2.5 -100 -7.5s-57.167 -16.833 -79.5 -35.5s-39.833 -46.5 -52.5 -83.5
s-19 -87.167 -19 -150.5c0 -64 6.33301 -114.5 19 -151.5s30.167 -64.667 52.5 -83s48.833 -30 79.5 -35s64 -7.5 100 -7.5c20 0 40 1.5 60 4.5s38.667 6.5 56 10.5s33.333 8.33301 48 13s26.667 8.66699 36 12zM363.999 736.997h-78v73h78v-73z" />
    <glyph glyph-name="cdotaccent" unicode="&#x10b;" horiz-adv-x="650" 
d="M614 31c-28 -13.333 -62.501 -24.0029 -103.501 -32.0029s-84.833 -12 -131.5 -12c-49.333 0 -93.833 4.16699 -133.5 12.5s-73.5 24.5 -101.5 48.5s-49.667 57.833 -65 101.5s-23 100.834 -23 171.501s7.66699 127.834 23 171.501s37 77.5 65 101.5
s61.833 40.167 101.5 48.5s84.167 12.5 133.5 12.5c93.333 0 168.333 -13.333 225 -40l-33 -53c-19.333 6.66699 -45.666 14.334 -78.999 23.001s-70.333 13 -111 13c-36 0 -69.333 -2.5 -100 -7.5s-57.167 -16.833 -79.5 -35.5s-39.833 -46.5 -52.5 -83.5
s-19 -87.167 -19 -150.5c0 -64 6.33301 -114.5 19 -151.5s30.167 -64.667 52.5 -83s48.833 -30 79.5 -35s64 -7.5 100 -7.5c20 0 40 1.5 60 4.5s38.667 6.5 56 10.5s33.333 8.33301 48 13s26.667 8.66699 36 12zM363.999 736.997h-78v73h78v-73z" />
    <glyph glyph-name="Ccaron" unicode="&#x10c;" horiz-adv-x="650" 
d="M614 31c-28 -13.333 -62.501 -24.0029 -103.501 -32.0029s-84.833 -12 -131.5 -12c-49.333 0 -93.833 4.16699 -133.5 12.5s-73.5 24.5 -101.5 48.5s-49.667 57.833 -65 101.5s-23 100.834 -23 171.501s7.66699 127.834 23 171.501s37 77.5 65 101.5
s61.833 40.167 101.5 48.5s84.167 12.5 133.5 12.5c93.333 0 168.333 -13.333 225 -40l-33 -53c-19.333 6.66699 -45.666 14.334 -78.999 23.001s-70.333 13 -111 13c-36 0 -69.333 -2.5 -100 -7.5s-57.167 -16.833 -79.5 -35.5s-39.833 -46.5 -52.5 -83.5
s-19 -87.167 -19 -150.5c0 -64 6.33301 -114.5 19 -151.5s30.167 -64.667 52.5 -83s48.833 -30 79.5 -35s64 -7.5 100 -7.5c20 0 40 1.5 60 4.5s38.667 6.5 56 10.5s33.333 8.33301 48 13s26.667 8.66699 36 12zM422.999 692.997h-96l-92 102h77l63 -75l63 75h77z" />
    <glyph glyph-name="ccaron" unicode="&#x10d;" horiz-adv-x="650" 
d="M614 31c-28 -13.333 -62.501 -24.0029 -103.501 -32.0029s-84.833 -12 -131.5 -12c-49.333 0 -93.833 4.16699 -133.5 12.5s-73.5 24.5 -101.5 48.5s-49.667 57.833 -65 101.5s-23 100.834 -23 171.501s7.66699 127.834 23 171.501s37 77.5 65 101.5
s61.833 40.167 101.5 48.5s84.167 12.5 133.5 12.5c93.333 0 168.333 -13.333 225 -40l-33 -53c-19.333 6.66699 -45.666 14.334 -78.999 23.001s-70.333 13 -111 13c-36 0 -69.333 -2.5 -100 -7.5s-57.167 -16.833 -79.5 -35.5s-39.833 -46.5 -52.5 -83.5
s-19 -87.167 -19 -150.5c0 -64 6.33301 -114.5 19 -151.5s30.167 -64.667 52.5 -83s48.833 -30 79.5 -35s64 -7.5 100 -7.5c20 0 40 1.5 60 4.5s38.667 6.5 56 10.5s33.333 8.33301 48 13s26.667 8.66699 36 12zM422.999 692.997h-96l-92 102h77l63 -75l63 75h77z" />
    <glyph glyph-name="Dcaron" unicode="&#x10e;" horiz-adv-x="689" 
d="M79 0l0.00292969 642h230c48.667 0 93 -3.16699 133 -9.5s74 -20.5 102 -42.5s49.667 -54 65 -96s23 -98.333 23 -169c0 -71.333 -6.83301 -128.5 -20.5 -171.5s-33.834 -75.833 -60.501 -98.5s-59.334 -37.5 -98.001 -44.5s-83.334 -10.5 -134.001 -10.5h-240z
M309.003 58c46 0 85 2.66797 117 8.00098s57.667 17.333 77 36s33.333 45.667 42 81s13 83 13 143c0 63.333 -6.33301 112.5 -19 147.5s-30.167 60.667 -52.5 77s-48.833 26.166 -79.5 29.499s-64 5 -100 5h-156v-527h158zM392.003 693.001h-96l-92 102h77l63 -75l63 75h77z
" />
    <glyph glyph-name="dcaron" unicode="&#x10f;" horiz-adv-x="689" 
d="M79 0l0.00292969 642h230c48.667 0 93 -3.16699 133 -9.5s74 -20.5 102 -42.5s49.667 -54 65 -96s23 -98.333 23 -169c0 -71.333 -6.83301 -128.5 -20.5 -171.5s-33.834 -75.833 -60.501 -98.5s-59.334 -37.5 -98.001 -44.5s-83.334 -10.5 -134.001 -10.5h-240z
M309.003 58c46 0 85 2.66797 117 8.00098s57.667 17.333 77 36s33.333 45.667 42 81s13 83 13 143c0 63.333 -6.33301 112.5 -19 147.5s-30.167 60.667 -52.5 77s-48.833 26.166 -79.5 29.499s-64 5 -100 5h-156v-527h158zM392.003 693.001h-96l-92 102h77l63 -75l63 75h77z
" />
    <glyph glyph-name="Dcroat" unicode="&#x110;" horiz-adv-x="689" 
d="M79 0l0.00292969 299h-78v63h78v280h230c48.667 0 93 -3.16699 133 -9.5s74 -20.5 102 -42.5s49.667 -54 65 -96s23 -98.333 23 -169c0 -71.333 -6.83301 -128.5 -20.5 -171.5s-33.834 -75.833 -60.501 -98.5s-59.334 -37.5 -98.001 -44.5s-83.334 -10.5 -134.001 -10.5
h-240zM309.003 58c46 0 85 2.66797 117 8.00098s57.667 17.333 77 36s33.333 45.667 42 81s13 83 13 143c0 63.333 -6.33301 112.5 -19 147.5s-30.167 60.667 -52.5 77s-48.833 26.166 -79.5 29.499s-64 5 -100 5h-156v-223h94v-63h-94v-241h158z" />
    <glyph glyph-name="dcroat" unicode="&#x111;" horiz-adv-x="689" 
d="M79 0l0.00292969 299h-78v63h78v280h230c48.667 0 93 -3.16699 133 -9.5s74 -20.5 102 -42.5s49.667 -54 65 -96s23 -98.333 23 -169c0 -71.333 -6.83301 -128.5 -20.5 -171.5s-33.834 -75.833 -60.501 -98.5s-59.334 -37.5 -98.001 -44.5s-83.334 -10.5 -134.001 -10.5
h-240zM309.003 58c46 0 85 2.66797 117 8.00098s57.667 17.333 77 36s33.333 45.667 42 81s13 83 13 143c0 63.333 -6.33301 112.5 -19 147.5s-30.167 60.667 -52.5 77s-48.833 26.166 -79.5 29.499s-64 5 -100 5h-156v-223h94v-63h-94v-241h158z" />
    <glyph glyph-name="Emacron" unicode="&#x112;" horiz-adv-x="566" 
d="M79 0v642h480l-10 -57h-398v-224h323v-57h-323v-246h408l-10 -58h-470zM145 745v38h275v-38h-275z" />
    <glyph glyph-name="emacron" unicode="&#x113;" horiz-adv-x="704" 
d="M630 38c-14 -6.66699 -30.998 -13.001 -50.998 -19.001s-41.5 -11.333 -64.5 -16s-46.833 -8.5 -71.5 -11.5s-48.667 -4.5 -72 -4.5c-50 0 -94.333 4 -133 12s-71.334 23.833 -98.001 47.5s-47 56.667 -61 99s-21 98.166 -21 167.499c0 72 7.5 130.333 22.5 175
s36 79.334 63 104.001s59 41.334 96 50.001s77.833 13 122.5 13c48 0 90.5 -4.66699 127.5 -14s68.167 -26.166 93.5 -50.499s44.666 -57.5 57.999 -99.5s20 -96 20 -162v-26h-529c0.666992 -55.333 5.66699 -99.833 15 -133.5s24 -59.834 44 -78.501s46 -31.167 78 -37.5
s71 -9.5 117 -9.5c20 0 40.5 1.83301 61.5 5.5s41 8 60 13s36.333 10.167 52 15.5l37.5 13zM585.002 360.999c-2 51.333 -8.16602 92.667 -18.499 124s-24.666 55.5 -42.999 72.5s-41 28.167 -68 33.5s-58.167 8 -93.5 8c-30.667 0 -59.334 -1.83301 -86.001 -5.5
s-50.167 -13.167 -70.5 -28.5s-36.833 -39 -49.5 -71s-20.334 -76.333 -23.001 -133h452zM214.003 745v38h275v-38h-275z" />
    <glyph glyph-name="Ebreve" unicode="&#x114;" horiz-adv-x="566" 
d="M79 0v642h480l-10 -57h-398v-224h323v-57h-323v-246h408l-10 -58h-470zM421 819c-6.66699 -35.333 -21.833 -62.832 -45.5 -82.499s-54.5 -29.5 -92.5 -29.5c-39.333 0 -70.666 9.16699 -93.999 27.5s-38 46.5 -44 84.5h43c11.333 -46 42 -69 92 -69
c29.333 0 51.666 5.66699 66.999 17s26 28.666 32 51.999h42z" />
    <glyph glyph-name="ebreve" unicode="&#x115;" horiz-adv-x="704" 
d="M630 38c-14 -6.66699 -30.998 -13.001 -50.998 -19.001s-41.5 -11.333 -64.5 -16s-46.833 -8.5 -71.5 -11.5s-48.667 -4.5 -72 -4.5c-50 0 -94.333 4 -133 12s-71.334 23.833 -98.001 47.5s-47 56.667 -61 99s-21 98.166 -21 167.499c0 72 7.5 130.333 22.5 175
s36 79.334 63 104.001s59 41.334 96 50.001s77.833 13 122.5 13c48 0 90.5 -4.66699 127.5 -14s68.167 -26.166 93.5 -50.499s44.666 -57.5 57.999 -99.5s20 -96 20 -162v-26h-529c0.666992 -55.333 5.66699 -99.833 15 -133.5s24 -59.834 44 -78.501s46 -31.167 78 -37.5
s71 -9.5 117 -9.5c20 0 40.5 1.83301 61.5 5.5s41 8 60 13s36.333 10.167 52 15.5l37.5 13zM585.002 360.999c-2 51.333 -8.16602 92.667 -18.499 124s-24.666 55.5 -42.999 72.5s-41 28.167 -68 33.5s-58.167 8 -93.5 8c-30.667 0 -59.334 -1.83301 -86.001 -5.5
s-50.167 -13.167 -70.5 -28.5s-36.833 -39 -49.5 -71s-20.334 -76.333 -23.001 -133h452zM490.003 819c-6.66699 -35.333 -21.833 -62.832 -45.5 -82.499s-54.5 -29.5 -92.5 -29.5c-39.333 0 -70.666 9.16699 -93.999 27.5s-38 46.5 -44 84.5h43c11.333 -46 42 -69 92 -69
c29.333 0 51.666 5.66699 66.999 17s26 28.666 32 51.999h42z" />
    <glyph glyph-name="Edotaccent" unicode="&#x116;" horiz-adv-x="566" 
d="M79 0v642h480l-10 -57h-398v-224h323v-57h-323v-246h408l-10 -58h-470zM322 737h-78v73h78v-73z" />
    <glyph glyph-name="edotaccent" unicode="&#x117;" horiz-adv-x="704" 
d="M630 38c-14 -6.66699 -30.998 -13.001 -50.998 -19.001s-41.5 -11.333 -64.5 -16s-46.833 -8.5 -71.5 -11.5s-48.667 -4.5 -72 -4.5c-50 0 -94.333 4 -133 12s-71.334 23.833 -98.001 47.5s-47 56.667 -61 99s-21 98.166 -21 167.499c0 72 7.5 130.333 22.5 175
s36 79.334 63 104.001s59 41.334 96 50.001s77.833 13 122.5 13c48 0 90.5 -4.66699 127.5 -14s68.167 -26.166 93.5 -50.499s44.666 -57.5 57.999 -99.5s20 -96 20 -162v-26h-529c0.666992 -55.333 5.66699 -99.833 15 -133.5s24 -59.834 44 -78.501s46 -31.167 78 -37.5
s71 -9.5 117 -9.5c20 0 40.5 1.83301 61.5 5.5s41 8 60 13s36.333 10.167 52 15.5l37.5 13zM585.002 360.999c-2 51.333 -8.16602 92.667 -18.499 124s-24.666 55.5 -42.999 72.5s-41 28.167 -68 33.5s-58.167 8 -93.5 8c-30.667 0 -59.334 -1.83301 -86.001 -5.5
s-50.167 -13.167 -70.5 -28.5s-36.833 -39 -49.5 -71s-20.334 -76.333 -23.001 -133h452zM391.003 737h-78v73h78v-73z" />
    <glyph glyph-name="Eogonek" unicode="&#x118;" horiz-adv-x="566" 
d="M472 -180l-0.000976562 64.001c0 19.333 1.33301 36.166 4 50.499s6 25.833 10 34.5c6.66699 12 15 22.333 25 31h-432v642h480l-10 -57h-398v-224h323v-57h-323v-246h408l-10 -58c-17.333 -8 -29.666 -20.5 -36.999 -37.5s-11.333 -39.5 -12 -67.5h44v-75h-72z" />
    <glyph glyph-name="eogonek" unicode="&#x119;" horiz-adv-x="704" 
d="M555 -142l0.00292969 63.999c0 19.333 1.33301 36.166 4 50.499s6 25.833 10 34.5l7 11c-29.333 -9.33301 -62.333 -16.833 -99 -22.5s-72 -8.5 -106 -8.5c-50 0 -94.333 4 -133 12s-71.334 23.833 -98.001 47.5s-47 56.667 -61 99s-21 98.166 -21 167.499
c0 72 7.5 130.333 22.5 175s36 79.334 63 104.001s59 41.334 96 50.001s77.833 13 122.5 13c48 0 90.5 -4.66699 127.5 -14s68.167 -26.166 93.5 -50.499s44.666 -57.5 57.999 -99.5s20 -96 20 -162v-26h-529c0.666992 -55.333 5.66699 -99.833 15 -133.5
s24 -59.834 44 -78.501s46 -31.167 78 -37.5s71 -9.5 117 -9.5c20 0 40.5 1.83301 61.5 5.5s41 8 60 13s36.333 10.167 52 15.5l37.5 13l33 -53c-17.333 -11.333 -29.333 -25.166 -36 -41.499s-10.334 -37.5 -11.001 -63.5h44v-75h-72zM585.003 360.999
c-2 51.333 -8.16602 92.667 -18.499 124s-24.666 55.5 -42.999 72.5s-41 28.167 -68 33.5s-58.167 8 -93.5 8c-30.667 0 -59.334 -1.83301 -86.001 -5.5s-50.167 -13.167 -70.5 -28.5s-36.833 -39 -49.5 -71s-20.334 -76.333 -23.001 -133h452z" />
    <glyph glyph-name="Ecaron" unicode="&#x11a;" horiz-adv-x="566" 
d="M79 0v642h480l-10 -57h-398v-224h323v-57h-323v-246h408l-10 -58h-470zM378 693h-96l-92 102h77l63 -75l63 75h77z" />
    <glyph glyph-name="ecaron" unicode="&#x11b;" horiz-adv-x="704" 
d="M630 38c-14 -6.66699 -30.998 -13.001 -50.998 -19.001s-41.5 -11.333 -64.5 -16s-46.833 -8.5 -71.5 -11.5s-48.667 -4.5 -72 -4.5c-50 0 -94.333 4 -133 12s-71.334 23.833 -98.001 47.5s-47 56.667 -61 99s-21 98.166 -21 167.499c0 72 7.5 130.333 22.5 175
s36 79.334 63 104.001s59 41.334 96 50.001s77.833 13 122.5 13c48 0 90.5 -4.66699 127.5 -14s68.167 -26.166 93.5 -50.499s44.666 -57.5 57.999 -99.5s20 -96 20 -162v-26h-529c0.666992 -55.333 5.66699 -99.833 15 -133.5s24 -59.834 44 -78.501s46 -31.167 78 -37.5
s71 -9.5 117 -9.5c20 0 40.5 1.83301 61.5 5.5s41 8 60 13s36.333 10.167 52 15.5l37.5 13zM585.002 360.999c-2 51.333 -8.16602 92.667 -18.499 124s-24.666 55.5 -42.999 72.5s-41 28.167 -68 33.5s-58.167 8 -93.5 8c-30.667 0 -59.334 -1.83301 -86.001 -5.5
s-50.167 -13.167 -70.5 -28.5s-36.833 -39 -49.5 -71s-20.334 -76.333 -23.001 -133h452zM400.003 693h-96l-92 102h77l63 -75l63 75h77z" />
    <glyph glyph-name="Gcircumflex" unicode="&#x11c;" horiz-adv-x="672" 
d="M560 304l-205 0.00195312l10 57h263v-316c-13.333 -8 -29.833 -15.333 -49.5 -22s-41 -12.5 -64 -17.5s-47 -8.83301 -72 -11.5s-49.5 -4 -73.5 -4c-50.667 0 -95.5 4 -134.5 12s-71.667 24 -98 48s-46.333 58 -60 102s-20.5 101.667 -20.5 173
c0 70.667 7.66699 127.667 23 171s37 76.666 65 99.999s61.833 39 101.5 47s84.167 12 133.5 12c46.667 0 89.667 -3.66699 129 -11s73 -17.666 101 -30.999l-33 -53c-9.33301 3.33301 -21 7.16602 -35 11.499s-29.5 8.5 -46.5 12.5s-35.167 7.33301 -54.5 10s-39 4 -59 4
c-36 0 -69.333 -2.33301 -100 -7s-57.167 -16 -79.5 -34s-39.833 -45.167 -52.5 -81.5s-19 -86.166 -19 -149.499c0 -60 4.33301 -108.333 13 -145s23 -64.834 43 -84.501s46.167 -32.834 78.5 -39.501s72.166 -10 119.499 -10c15.333 0 31.333 1.16699 48 3.5
s32.834 5.16602 48.501 8.49902s30.5 7.33301 44.5 12s25.667 9.33398 35 14.001v219zM396 707.002l-59 84l-59 -84h-72l44 54l44 53h80l91 -107h-69z" />
    <glyph glyph-name="gcircumflex" unicode="&#x11d;" horiz-adv-x="672" 
d="M560 304l-205 0.00195312l10 57h263v-316c-13.333 -8 -29.833 -15.333 -49.5 -22s-41 -12.5 -64 -17.5s-47 -8.83301 -72 -11.5s-49.5 -4 -73.5 -4c-50.667 0 -95.5 4 -134.5 12s-71.667 24 -98 48s-46.333 58 -60 102s-20.5 101.667 -20.5 173
c0 70.667 7.66699 127.667 23 171s37 76.666 65 99.999s61.833 39 101.5 47s84.167 12 133.5 12c46.667 0 89.667 -3.66699 129 -11s73 -17.666 101 -30.999l-33 -53c-9.33301 3.33301 -21 7.16602 -35 11.499s-29.5 8.5 -46.5 12.5s-35.167 7.33301 -54.5 10s-39 4 -59 4
c-36 0 -69.333 -2.33301 -100 -7s-57.167 -16 -79.5 -34s-39.833 -45.167 -52.5 -81.5s-19 -86.166 -19 -149.499c0 -60 4.33301 -108.333 13 -145s23 -64.834 43 -84.501s46.167 -32.834 78.5 -39.501s72.166 -10 119.499 -10c15.333 0 31.333 1.16699 48 3.5
s32.834 5.16602 48.501 8.49902s30.5 7.33301 44.5 12s25.667 9.33398 35 14.001v219zM396 707.002l-59 84l-59 -84h-72l44 54l44 53h80l91 -107h-69z" />
    <glyph glyph-name="Gbreve" unicode="&#x11e;" horiz-adv-x="672" 
d="M560 304l-205 0.00195312l10 57h263v-316c-13.333 -8 -29.833 -15.333 -49.5 -22s-41 -12.5 -64 -17.5s-47 -8.83301 -72 -11.5s-49.5 -4 -73.5 -4c-50.667 0 -95.5 4 -134.5 12s-71.667 24 -98 48s-46.333 58 -60 102s-20.5 101.667 -20.5 173
c0 70.667 7.66699 127.667 23 171s37 76.666 65 99.999s61.833 39 101.5 47s84.167 12 133.5 12c46.667 0 89.667 -3.66699 129 -11s73 -17.666 101 -30.999l-33 -53c-9.33301 3.33301 -21 7.16602 -35 11.499s-29.5 8.5 -46.5 12.5s-35.167 7.33301 -54.5 10s-39 4 -59 4
c-36 0 -69.333 -2.33301 -100 -7s-57.167 -16 -79.5 -34s-39.833 -45.167 -52.5 -81.5s-19 -86.166 -19 -149.499c0 -60 4.33301 -108.333 13 -145s23 -64.834 43 -84.501s46.167 -32.834 78.5 -39.501s72.166 -10 119.499 -10c15.333 0 31.333 1.16699 48 3.5
s32.834 5.16602 48.501 8.49902s30.5 7.33301 44.5 12s25.667 9.33398 35 14.001v219zM474 819.002c-6.66699 -35.333 -21.833 -62.832 -45.5 -82.499s-54.5 -29.5 -92.5 -29.5c-39.333 0 -70.666 9.16699 -93.999 27.5s-38 46.5 -44 84.5h43c11.333 -46 42 -69 92 -69
c29.333 0 51.666 5.66699 66.999 17s26 28.666 32 51.999h42z" />
    <glyph glyph-name="gbreve" unicode="&#x11f;" horiz-adv-x="672" 
d="M560 304l-205 0.00195312l10 57h263v-316c-13.333 -8 -29.833 -15.333 -49.5 -22s-41 -12.5 -64 -17.5s-47 -8.83301 -72 -11.5s-49.5 -4 -73.5 -4c-50.667 0 -95.5 4 -134.5 12s-71.667 24 -98 48s-46.333 58 -60 102s-20.5 101.667 -20.5 173
c0 70.667 7.66699 127.667 23 171s37 76.666 65 99.999s61.833 39 101.5 47s84.167 12 133.5 12c46.667 0 89.667 -3.66699 129 -11s73 -17.666 101 -30.999l-33 -53c-9.33301 3.33301 -21 7.16602 -35 11.499s-29.5 8.5 -46.5 12.5s-35.167 7.33301 -54.5 10s-39 4 -59 4
c-36 0 -69.333 -2.33301 -100 -7s-57.167 -16 -79.5 -34s-39.833 -45.167 -52.5 -81.5s-19 -86.166 -19 -149.499c0 -60 4.33301 -108.333 13 -145s23 -64.834 43 -84.501s46.167 -32.834 78.5 -39.501s72.166 -10 119.499 -10c15.333 0 31.333 1.16699 48 3.5
s32.834 5.16602 48.501 8.49902s30.5 7.33301 44.5 12s25.667 9.33398 35 14.001v219zM474 819.002c-6.66699 -35.333 -21.833 -62.832 -45.5 -82.499s-54.5 -29.5 -92.5 -29.5c-39.333 0 -70.666 9.16699 -93.999 27.5s-38 46.5 -44 84.5h43c11.333 -46 42 -69 92 -69
c29.333 0 51.666 5.66699 66.999 17s26 28.666 32 51.999h42z" />
    <glyph glyph-name="Gdotaccent" unicode="&#x120;" horiz-adv-x="672" 
d="M560 304l-205 0.00195312l10 57h263v-316c-13.333 -8 -29.833 -15.333 -49.5 -22s-41 -12.5 -64 -17.5s-47 -8.83301 -72 -11.5s-49.5 -4 -73.5 -4c-50.667 0 -95.5 4 -134.5 12s-71.667 24 -98 48s-46.333 58 -60 102s-20.5 101.667 -20.5 173
c0 70.667 7.66699 127.667 23 171s37 76.666 65 99.999s61.833 39 101.5 47s84.167 12 133.5 12c46.667 0 89.667 -3.66699 129 -11s73 -17.666 101 -30.999l-33 -53c-9.33301 3.33301 -21 7.16602 -35 11.499s-29.5 8.5 -46.5 12.5s-35.167 7.33301 -54.5 10s-39 4 -59 4
c-36 0 -69.333 -2.33301 -100 -7s-57.167 -16 -79.5 -34s-39.833 -45.167 -52.5 -81.5s-19 -86.166 -19 -149.499c0 -60 4.33301 -108.333 13 -145s23 -64.834 43 -84.501s46.167 -32.834 78.5 -39.501s72.166 -10 119.499 -10c15.333 0 31.333 1.16699 48 3.5
s32.834 5.16602 48.501 8.49902s30.5 7.33301 44.5 12s25.667 9.33398 35 14.001v219zM375 737.002h-78v73h78v-73z" />
    <glyph glyph-name="gdotaccent" unicode="&#x121;" horiz-adv-x="672" 
d="M560 304l-205 0.00195312l10 57h263v-316c-13.333 -8 -29.833 -15.333 -49.5 -22s-41 -12.5 -64 -17.5s-47 -8.83301 -72 -11.5s-49.5 -4 -73.5 -4c-50.667 0 -95.5 4 -134.5 12s-71.667 24 -98 48s-46.333 58 -60 102s-20.5 101.667 -20.5 173
c0 70.667 7.66699 127.667 23 171s37 76.666 65 99.999s61.833 39 101.5 47s84.167 12 133.5 12c46.667 0 89.667 -3.66699 129 -11s73 -17.666 101 -30.999l-33 -53c-9.33301 3.33301 -21 7.16602 -35 11.499s-29.5 8.5 -46.5 12.5s-35.167 7.33301 -54.5 10s-39 4 -59 4
c-36 0 -69.333 -2.33301 -100 -7s-57.167 -16 -79.5 -34s-39.833 -45.167 -52.5 -81.5s-19 -86.166 -19 -149.499c0 -60 4.33301 -108.333 13 -145s23 -64.834 43 -84.501s46.167 -32.834 78.5 -39.501s72.166 -10 119.499 -10c15.333 0 31.333 1.16699 48 3.5
s32.834 5.16602 48.501 8.49902s30.5 7.33301 44.5 12s25.667 9.33398 35 14.001v219zM375 737.002h-78v73h78v-73z" />
    <glyph glyph-name="uni0122" unicode="&#x122;" horiz-adv-x="672" 
d="M560 304l-205 0.00195312l10 57h263v-316c-13.333 -8 -29.833 -15.333 -49.5 -22s-41 -12.5 -64 -17.5s-47 -8.83301 -72 -11.5s-49.5 -4 -73.5 -4c-50.667 0 -95.5 4 -134.5 12s-71.667 24 -98 48s-46.333 58 -60 102s-20.5 101.667 -20.5 173
c0 70.667 7.66699 127.667 23 171s37 76.666 65 99.999s61.833 39 101.5 47s84.167 12 133.5 12c46.667 0 89.667 -3.66699 129 -11s73 -17.666 101 -30.999l-33 -53c-9.33301 3.33301 -21 7.16602 -35 11.499s-29.5 8.5 -46.5 12.5s-35.167 7.33301 -54.5 10s-39 4 -59 4
c-36 0 -69.333 -2.33301 -100 -7s-57.167 -16 -79.5 -34s-39.833 -45.167 -52.5 -81.5s-19 -86.166 -19 -149.499c0 -60 4.33301 -108.333 13 -145s23 -64.834 43 -84.501s46.167 -32.834 78.5 -39.501s72.166 -10 119.499 -10c15.333 0 31.333 1.16699 48 3.5
s32.834 5.16602 48.501 8.49902s30.5 7.33301 44.5 12s25.667 9.33398 35 14.001v219zM335 -244.998c17.333 9.33301 29.833 22.667 37.5 40s12.5 42 14.5 74h-50v73h77v-83c0 -30 -5.5 -54.833 -16.5 -74.5s-27.5 -35.167 -49.5 -46.5z" />
    <glyph glyph-name="uni0123" unicode="&#x123;" horiz-adv-x="672" 
d="M560 304l-205 0.00195312l10 57h263v-316c-13.333 -8 -29.833 -15.333 -49.5 -22s-41 -12.5 -64 -17.5s-47 -8.83301 -72 -11.5s-49.5 -4 -73.5 -4c-50.667 0 -95.5 4 -134.5 12s-71.667 24 -98 48s-46.333 58 -60 102s-20.5 101.667 -20.5 173
c0 70.667 7.66699 127.667 23 171s37 76.666 65 99.999s61.833 39 101.5 47s84.167 12 133.5 12c46.667 0 89.667 -3.66699 129 -11s73 -17.666 101 -30.999l-33 -53c-9.33301 3.33301 -21 7.16602 -35 11.499s-29.5 8.5 -46.5 12.5s-35.167 7.33301 -54.5 10s-39 4 -59 4
c-36 0 -69.333 -2.33301 -100 -7s-57.167 -16 -79.5 -34s-39.833 -45.167 -52.5 -81.5s-19 -86.166 -19 -149.499c0 -60 4.33301 -108.333 13 -145s23 -64.834 43 -84.501s46.167 -32.834 78.5 -39.501s72.166 -10 119.499 -10c15.333 0 31.333 1.16699 48 3.5
s32.834 5.16602 48.501 8.49902s30.5 7.33301 44.5 12s25.667 9.33398 35 14.001v219zM335 -244.998c17.333 9.33301 29.833 22.667 37.5 40s12.5 42 14.5 74h-50v73h77v-83c0 -30 -5.5 -54.833 -16.5 -74.5s-27.5 -35.167 -49.5 -46.5z" />
    <glyph glyph-name="Hcircumflex" unicode="&#x124;" horiz-adv-x="681" 
d="M530 0v312h-380v-312h-71v642h71v-271h380v271h71v-642h-71zM401 707l-59 84l-59 -84h-72l44 54l44 53h80l91 -107h-69z" />
    <glyph glyph-name="hcircumflex" unicode="&#x125;" horiz-adv-x="681" 
d="M530 0v312h-380v-312h-71v642h71v-271h380v271h71v-642h-71zM401 707l-59 84l-59 -84h-72l44 54l44 53h80l91 -107h-69z" />
    <glyph glyph-name="Hbar" unicode="&#x126;" horiz-adv-x="681" 
d="M530 0v312h-380v-312h-71v493h-79v38h79v111h71v-111h380v111h71v-111h81v-38h-81v-493h-71zM530 493h-380v-122h380v122z" />
    <glyph glyph-name="hbar" unicode="&#x127;" horiz-adv-x="681" 
d="M530 0v312h-380v-312h-71v493h-79v38h79v111h71v-111h380v111h71v-111h81v-38h-81v-493h-71zM530 493h-380v-122h380v122z" />
    <glyph glyph-name="Itilde" unicode="&#x128;" horiz-adv-x="241" 
d="M79 0v642h72v-642h-72zM271 803c-2.66699 -26.667 -11.5 -47.335 -26.5 -62.002s-33.833 -22 -56.5 -22c-9.33301 0 -20.166 2.16699 -32.499 6.5s-26.5 10.5 -42.5 18.5c-22 12 -39 18 -51 18c-8 0 -14.5 -1.16699 -19.5 -3.5s-10.167 -6.16602 -15.5 -11.499
c-3.33301 -3.33301 -6 -7.33301 -8 -12s-3.33301 -10.667 -4 -18h-43c0.666992 13.333 3 24.5 7 33.5s9.66699 17.5 17 25.5c17.333 17.333 38.666 26 63.999 26c9.33301 0 20.333 -2.16699 33 -6.5s27 -10.166 43 -17.499c20 -10 36.333 -15 49 -15s22.5 2.66699 29.5 8
s12.167 16 15.5 32h41z" />
    <glyph glyph-name="itilde" unicode="&#x129;" horiz-adv-x="241" 
d="M79 0v642h72v-642h-72zM271 803c-2.66699 -26.667 -11.5 -47.335 -26.5 -62.002s-33.833 -22 -56.5 -22c-9.33301 0 -20.166 2.16699 -32.499 6.5s-26.5 10.5 -42.5 18.5c-22 12 -39 18 -51 18c-8 0 -14.5 -1.16699 -19.5 -3.5s-10.167 -6.16602 -15.5 -11.499
c-3.33301 -3.33301 -6 -7.33301 -8 -12s-3.33301 -10.667 -4 -18h-43c0.666992 13.333 3 24.5 7 33.5s9.66699 17.5 17 25.5c17.333 17.333 38.666 26 63.999 26c9.33301 0 20.333 -2.16699 33 -6.5s27 -10.166 43 -17.499c20 -10 36.333 -15 49 -15s22.5 2.66699 29.5 8
s12.167 16 15.5 32h41z" />
    <glyph glyph-name="Imacron" unicode="&#x12a;" horiz-adv-x="241" 
d="M79 0v642h72v-642h-72zM-16 745v38h275v-38h-275z" />
    <glyph glyph-name="imacron" unicode="&#x12b;" horiz-adv-x="241" 
d="M79 0v642h72v-642h-72zM-16 745v38h275v-38h-275z" />
    <glyph glyph-name="Ibreve" unicode="&#x12c;" horiz-adv-x="241" 
d="M79 0v642h72v-642h-72zM260 819c-6.66699 -35.333 -21.833 -62.832 -45.5 -82.499s-54.5 -29.5 -92.5 -29.5c-39.333 0 -70.666 9.16699 -93.999 27.5s-38 46.5 -44 84.5h43c11.333 -46 42 -69 92 -69c29.333 0 51.666 5.66699 66.999 17s26 28.666 32 51.999h42z" />
    <glyph glyph-name="ibreve" unicode="&#x12d;" horiz-adv-x="241" 
d="M79 0v642h72v-642h-72zM260 795c-6.66699 -35.333 -21.833 -62.832 -45.5 -82.499s-54.5 -29.5 -92.5 -29.5c-39.333 0 -70.666 9.16699 -93.999 27.5s-38 46.5 -44 84.5h43c11.333 -46 42 -69 92 -69c29.333 0 51.666 5.66699 66.999 17s26 28.666 32 51.999h42z" />
    <glyph glyph-name="Iogonek" unicode="&#x12e;" horiz-adv-x="241" 
d="M217 -151c-17.333 -2 -37 -3.00098 -59 -3.00098c-42 0 -73.667 7.83301 -95 23.5s-32 33.167 -32 52.5c0 14 7 26.5 21 37.5s35.667 18.167 65 21.5l-6 19h-32v642h72v-640l10 -34c-16 -0.666992 -28.667 -2.16699 -38 -4.5s-16.333 -5.33301 -21 -9
s-7.66699 -7.66699 -9 -12s-2 -9.16602 -2 -14.499c0 -11.333 5.66699 -22 17 -32c15.333 -9.33301 38.333 -14 69 -14h14c6 0 11.667 0.333008 17 1h4z" />
    <glyph glyph-name="iogonek" unicode="&#x12f;" horiz-adv-x="241" 
d="M217 -151c-17.333 -2 -37 -3.00098 -59 -3.00098c-42 0 -73.667 7.83301 -95 23.5s-32 33.167 -32 52.5c0 14 7 26.5 21 37.5s35.667 18.167 65 21.5l-6 19h-32v642h72v-640l10 -34c-16 -0.666992 -28.667 -2.16699 -38 -4.5s-16.333 -5.33301 -21 -9
s-7.66699 -7.66699 -9 -12s-2 -9.16602 -2 -14.499c0 -11.333 5.66699 -22 17 -32c15.333 -9.33301 38.333 -14 69 -14h14c6 0 11.667 0.333008 17 1h4z" />
    <glyph glyph-name="Idotaccent" unicode="&#x130;" horiz-adv-x="241" 
d="M79 0v642h72v-642h-72zM159 737h-78v73h78v-73z" />
    <glyph glyph-name="dotlessi" unicode="&#x131;" horiz-adv-x="241" 
d="M79 0v642h72v-642h-72z" />
    <glyph glyph-name="IJ" unicode="&#x132;" horiz-adv-x="563" 
d="M79 0v642h72v-642h-72zM247 48c31.333 0 57.999 0.832031 79.999 2.49902s39.833 7.33398 53.5 17.001s23.667 24.5 30 44.5s9.5 48.333 9.5 85v445h71v-441c0 -44 -4.16699 -79.5 -12.5 -106.5s-22.166 -47.833 -41.499 -62.5s-45 -24.5 -77 -29.5
s-71.667 -7.5 -119 -7.5z" />
    <glyph glyph-name="ij" unicode="&#x133;" horiz-adv-x="573" 
d="M79 0v642h72v-642h-72zM257 48c31.333 0 57.999 0.832031 79.999 2.49902s39.833 7.33398 53.5 17.001s23.667 24.5 30 44.5s9.5 48.333 9.5 85v445h71v-441c0 -44 -4.16699 -79.5 -12.5 -106.5s-22.166 -47.833 -41.499 -62.5s-45 -24.5 -77 -29.5
s-71.667 -7.5 -119 -7.5z" />
    <glyph glyph-name="Jcircumflex" unicode="&#x134;" horiz-adv-x="322" 
d="M6 48c31.333 0 57.999 0.832031 79.999 2.49902s39.833 7.33398 53.5 17.001s23.667 24.5 30 44.5s9.5 48.333 9.5 85v445h71v-441c0 -44 -4.16699 -79.5 -12.5 -106.5s-22.166 -47.833 -41.499 -62.5s-45 -24.5 -77 -29.5s-71.667 -7.5 -119 -7.5zM273.999 706.999
l-59 84l-59 -84h-72l44 54l44 53h80l91 -107h-69z" />
    <glyph glyph-name="jcircumflex" unicode="&#x135;" horiz-adv-x="322" 
d="M6 48c31.333 0 57.999 0.832031 79.999 2.49902s39.833 7.33398 53.5 17.001s23.667 24.5 30 44.5s9.5 48.333 9.5 85v445h71v-441c0 -44 -4.16699 -79.5 -12.5 -106.5s-22.166 -47.833 -41.499 -62.5s-45 -24.5 -77 -29.5s-71.667 -7.5 -119 -7.5zM276.999 706.999
l-59 84l-59 -84h-72l44 54l44 53h80l91 -107h-69z" />
    <glyph glyph-name="uni0136" unicode="&#x136;" horiz-adv-x="675" 
d="M526 0l-215 292h-161v-292h-71v642h71v-293h161l215 293h94l-122.5 -160.5l-123.5 -160.5l123.5 -161l122.5 -160h-94zM298 -245c17.333 9.33301 29.833 22.667 37.5 40s12.5 42 14.5 74h-50v73h77v-83c0 -30 -5.5 -54.833 -16.5 -74.5s-27.5 -35.167 -49.5 -46.5z" />
    <glyph glyph-name="uni0137" unicode="&#x137;" horiz-adv-x="680" 
d="M627 0c-16.667 -2.66699 -32.166 -3.5 -46.499 -2.5s-28.5 5.16699 -42.5 12.5s-28.5 18.333 -43.5 33s-31.833 34.667 -50.5 60l-142 189h-158v-292h-71v642h71v-293h158l223 293h89l-122.5 -160.5l-123.5 -160.5l142 -186c15.333 -20 28.666 -35.667 39.999 -47
s21.833 -19.833 31.5 -25.5s19 -9 28 -10s18.5 -0.833008 28.5 0.5zM298.001 -245c17.333 9.33301 29.833 22.667 37.5 40s12.5 42 14.5 74h-50v73h77v-83c0 -30 -5.5 -54.833 -16.5 -74.5s-27.5 -35.167 -49.5 -46.5z" />
    <glyph glyph-name="kgreenlandic" unicode="&#x138;" horiz-adv-x="680" 
d="M627 0c-16.667 -2.66699 -32.166 -3.5 -46.499 -2.5s-28.5 5.16699 -42.5 12.5s-28.5 18.333 -43.5 33s-31.833 34.667 -50.5 60l-142 189h-158v-292h-71v642h71v-293h158l223 293h89l-122.5 -160.5l-123.5 -160.5l142 -186c15.333 -20 28.666 -35.667 39.999 -47
s21.833 -19.833 31.5 -25.5s19 -9 28 -10s18.5 -0.833008 28.5 0.5z" />
    <glyph glyph-name="Lacute" unicode="&#x139;" horiz-adv-x="532" 
d="M79 0v642h71v-584h382l-10 -58h-443zM80 689l53 106.999h85c-17.333 -19.333 -32.5 -37.166 -45.5 -53.499l-42.5 -53.5h-50z" />
    <glyph glyph-name="lacute" unicode="&#x13a;" horiz-adv-x="532" 
d="M79 0v642h71v-584h382l-10 -58h-443zM80 689l53 106.999h85c-17.333 -19.333 -32.5 -37.166 -45.5 -53.499l-42.5 -53.5h-50z" />
    <glyph glyph-name="uni013B" unicode="&#x13b;" horiz-adv-x="532" 
d="M79 0v642h71v-584h382l-10 -58h-443zM227 -245c17.333 9.33301 29.833 22.667 37.5 40s12.5 42 14.5 74h-50v73h77v-83c0 -30 -5.5 -54.833 -16.5 -74.5s-27.5 -35.167 -49.5 -46.5z" />
    <glyph glyph-name="uni013C" unicode="&#x13c;" horiz-adv-x="532" 
d="M79 0v642h71v-584h382l-10 -58h-443zM298 -245c17.333 9.33301 29.833 22.667 37.5 40s12.5 42 14.5 74h-50v73h77v-83c0 -30 -5.5 -54.833 -16.5 -74.5s-27.5 -35.167 -49.5 -46.5z" />
    <glyph glyph-name="Lcaron" unicode="&#x13d;" horiz-adv-x="532" 
d="M79 0v642h71v-584h382l-10 -58h-443zM388 476c15.333 8 26.667 20.499 34 37.499s11.333 39.833 12 68.5h-44v75h72v-64c0 -19.333 -1.33301 -36.166 -4 -50.499s-6 -25.833 -10 -34.5c-6 -9.33301 -12.833 -18 -20.5 -26s-17.5 -15 -29.5 -21z" />
    <glyph glyph-name="lcaron" unicode="&#x13e;" horiz-adv-x="532" 
d="M79 0v642h71v-584h382l-10 -58h-443zM388 476c15.333 8 26.667 20.499 34 37.499s11.333 39.833 12 68.5h-44v75h72v-64c0 -19.333 -1.33301 -36.166 -4 -50.499s-6 -25.833 -10 -34.5c-6 -9.33301 -12.833 -18 -20.5 -26s-17.5 -15 -29.5 -21z" />
    <glyph glyph-name="Ldot" unicode="&#x13f;" horiz-adv-x="532" 
d="M79 0v642h71v-584h382l-10 -58h-443zM327 292v73h77v-73h-77z" />
    <glyph glyph-name="ldot" unicode="&#x140;" horiz-adv-x="532" 
d="M79 0v642h71v-584h382l-10 -58h-443zM327 292v73h77v-73h-77z" />
    <glyph glyph-name="Lslash" unicode="&#x141;" horiz-adv-x="532" 
d="M79 0v198l-81 -56l-16 43l97 68v389h71v-340l187 131l15 -45l-202 -140v-190h382l-10 -58h-443z" />
    <glyph glyph-name="lslash" unicode="&#x142;" horiz-adv-x="532" 
d="M79 0v198l-81 -56l-16 43l97 68v389h71v-340l187 131l15 -45l-202 -140v-190h382l-10 -58h-443z" />
    <glyph glyph-name="Nacute" unicode="&#x143;" horiz-adv-x="685" 
d="M526 0l-379 544v-544h-68v642h80l379 -542v542h67v-642h-79zM273 689l53 106.999h85c-17.333 -19.333 -32.5 -37.166 -45.5 -53.499l-42.5 -53.5h-50z" />
    <glyph glyph-name="nacute" unicode="&#x144;" horiz-adv-x="685" 
d="M526 0l-379 544v-544h-68v642h80l379 -542v542h67v-642h-79zM273 689l53 106.999h85c-17.333 -19.333 -32.5 -37.166 -45.5 -53.499l-42.5 -53.5h-50z" />
    <glyph glyph-name="uni0145" unicode="&#x145;" horiz-adv-x="685" 
d="M526 0l-379 544v-544h-68v642h80l379 -542v542h67v-642h-79zM303 -245c17.333 9.33301 29.833 22.667 37.5 40s12.5 42 14.5 74h-50v73h77v-83c0 -30 -5.5 -54.833 -16.5 -74.5s-27.5 -35.167 -49.5 -46.5z" />
    <glyph glyph-name="uni0146" unicode="&#x146;" horiz-adv-x="685" 
d="M526 0l-379 544v-544h-68v642h80l379 -542v542h67v-642h-79zM303 -245c17.333 9.33301 29.833 22.667 37.5 40s12.5 42 14.5 74h-50v73h77v-83c0 -30 -5.5 -54.833 -16.5 -74.5s-27.5 -35.167 -49.5 -46.5z" />
    <glyph glyph-name="Ncaron" unicode="&#x147;" horiz-adv-x="685" 
d="M526 0l-379 544v-544h-68v642h80l379 -542v542h67v-642h-79zM390 693h-96l-92 102h77l63 -75l63 75h77z" />
    <glyph glyph-name="ncaron" unicode="&#x148;" horiz-adv-x="685" 
d="M526 0l-379 544v-544h-68v642h80l379 -542v542h67v-642h-79zM390 693h-96l-92 102h77l63 -75l63 75h77z" />
    <glyph glyph-name="napostrophe" unicode="&#x149;" horiz-adv-x="685" 
d="M526 0l-379 544v-544h-68v642h80l379 -542v542h67v-642h-79zM1 658c17.333 9.33301 29.833 22.667 37.5 40s12.5 42 14.5 74h-50v73h77v-83c0 -30 -5.5 -54.833 -16.5 -74.5s-27.5 -35.167 -49.5 -46.5z" />
    <glyph glyph-name="Eng" unicode="&#x14a;" horiz-adv-x="685" 
d="M147 544v-543.999h-68v642h80l379 -542v542h67v-642c0 -32.667 -5.16699 -59.167 -15.5 -79.5s-25.833 -36 -46.5 -47s-46.667 -18.333 -78 -22s-68 -5.5 -110 -5.5l6 53c27.333 0 54 1.5 80 4.5s47.667 8.16699 65 15.5s28.5 17.666 33.5 30.999s0.5 30 -13.5 50z" />
    <glyph glyph-name="eng" unicode="&#x14b;" horiz-adv-x="685" 
d="M147 544v-543.999h-68v642h80l379 -542v542h67v-642c0 -32.667 -5.16699 -59.167 -15.5 -79.5s-25.833 -36 -46.5 -47s-46.667 -18.333 -78 -22s-68 -5.5 -110 -5.5l6 53c27.333 0 54 1.5 80 4.5s47.667 8.16699 65 15.5s28.5 17.666 33.5 30.999s0.5 30 -13.5 50z" />
    <glyph glyph-name="Omacron" unicode="&#x14c;" 
d="M379 599c-32.667 0 -63.998 -1.5 -93.998 -4.5s-56.333 -13.167 -79 -30.5s-40.834 -44.833 -54.501 -82.5s-20.5 -90.834 -20.5 -159.501c0 -46 3.16699 -84.833 9.5 -116.5s15 -57.667 26 -78s24.167 -36.166 39.5 -47.499s32.166 -19.5 50.499 -24.5
s37.833 -8 58.5 -9s42 -1.5 64 -1.5c21.333 0 42.333 0.5 63 1.5s40.167 4 58.5 9s35.333 13.167 51 24.5s29 27.166 40 47.499s19.667 46.333 26 78s9.5 70.5 9.5 116.5c0 68.667 -7 121.834 -21 159.501s-32.5 65.167 -55.5 82.5s-49.333 27.5 -79 30.5
s-60.5 4.5 -92.5 4.5zM57.002 322c0 72 8.5 129.833 25.5 173.5s40 77.334 69 101.001s63 39.334 102 47.001s80.833 11.5 125.5 11.5s86.5 -3.83301 125.5 -11.5s73 -23.334 102 -47.001s52 -57.334 69 -101.001s25.5 -101.5 25.5 -173.5s-8.5 -129.833 -25.5 -173.5
s-40 -77.334 -69 -101.001s-63 -39.334 -102 -47.001s-80.833 -11.5 -125.5 -11.5s-86.5 3.83301 -125.5 11.5s-73 23.334 -102 47.001s-52 57.334 -69 101.001s-25.5 101.5 -25.5 173.5zM241.002 745v38h275v-38h-275z" />
    <glyph glyph-name="omacron" unicode="&#x14d;" 
d="M379 599c-32.667 0 -63.998 -1.5 -93.998 -4.5s-56.333 -13.167 -79 -30.5s-40.834 -44.833 -54.501 -82.5s-20.5 -90.834 -20.5 -159.501c0 -46 3.16699 -84.833 9.5 -116.5s15 -57.667 26 -78s24.167 -36.166 39.5 -47.499s32.166 -19.5 50.499 -24.5
s37.833 -8 58.5 -9s42 -1.5 64 -1.5c21.333 0 42.333 0.5 63 1.5s40.167 4 58.5 9s35.333 13.167 51 24.5s29 27.166 40 47.499s19.667 46.333 26 78s9.5 70.5 9.5 116.5c0 68.667 -7 121.834 -21 159.501s-32.5 65.167 -55.5 82.5s-49.333 27.5 -79 30.5
s-60.5 4.5 -92.5 4.5zM57.002 322c0 72 8.5 129.833 25.5 173.5s40 77.334 69 101.001s63 39.334 102 47.001s80.833 11.5 125.5 11.5s86.5 -3.83301 125.5 -11.5s73 -23.334 102 -47.001s52 -57.334 69 -101.001s25.5 -101.5 25.5 -173.5s-8.5 -129.833 -25.5 -173.5
s-40 -77.334 -69 -101.001s-63 -39.334 -102 -47.001s-80.833 -11.5 -125.5 -11.5s-86.5 3.83301 -125.5 11.5s-73 23.334 -102 47.001s-52 57.334 -69 101.001s-25.5 101.5 -25.5 173.5zM241.002 745v38h275v-38h-275z" />
    <glyph glyph-name="Obreve" unicode="&#x14e;" 
d="M379 599c-32.667 0 -63.998 -1.5 -93.998 -4.5s-56.333 -13.167 -79 -30.5s-40.834 -44.833 -54.501 -82.5s-20.5 -90.834 -20.5 -159.501c0 -46 3.16699 -84.833 9.5 -116.5s15 -57.667 26 -78s24.167 -36.166 39.5 -47.499s32.166 -19.5 50.499 -24.5
s37.833 -8 58.5 -9s42 -1.5 64 -1.5c21.333 0 42.333 0.5 63 1.5s40.167 4 58.5 9s35.333 13.167 51 24.5s29 27.166 40 47.499s19.667 46.333 26 78s9.5 70.5 9.5 116.5c0 68.667 -7 121.834 -21 159.501s-32.5 65.167 -55.5 82.5s-49.333 27.5 -79 30.5
s-60.5 4.5 -92.5 4.5zM57.002 322c0 72 8.5 129.833 25.5 173.5s40 77.334 69 101.001s63 39.334 102 47.001s80.833 11.5 125.5 11.5s86.5 -3.83301 125.5 -11.5s73 -23.334 102 -47.001s52 -57.334 69 -101.001s25.5 -101.5 25.5 -173.5s-8.5 -129.833 -25.5 -173.5
s-40 -77.334 -69 -101.001s-63 -39.334 -102 -47.001s-80.833 -11.5 -125.5 -11.5s-86.5 3.83301 -125.5 11.5s-73 23.334 -102 47.001s-52 57.334 -69 101.001s-25.5 101.5 -25.5 173.5zM517.002 819c-6.66699 -35.333 -21.833 -62.832 -45.5 -82.499
s-54.5 -29.5 -92.5 -29.5c-39.333 0 -70.666 9.16699 -93.999 27.5s-38 46.5 -44 84.5h43c11.333 -46 42 -69 92 -69c29.333 0 51.666 5.66699 66.999 17s26 28.666 32 51.999h42z" />
    <glyph glyph-name="obreve" unicode="&#x14f;" 
d="M379 599c-32.667 0 -63.998 -1.5 -93.998 -4.5s-56.333 -13.167 -79 -30.5s-40.834 -44.833 -54.501 -82.5s-20.5 -90.834 -20.5 -159.501c0 -46 3.16699 -84.833 9.5 -116.5s15 -57.667 26 -78s24.167 -36.166 39.5 -47.499s32.166 -19.5 50.499 -24.5
s37.833 -8 58.5 -9s42 -1.5 64 -1.5c21.333 0 42.333 0.5 63 1.5s40.167 4 58.5 9s35.333 13.167 51 24.5s29 27.166 40 47.499s19.667 46.333 26 78s9.5 70.5 9.5 116.5c0 68.667 -7 121.834 -21 159.501s-32.5 65.167 -55.5 82.5s-49.333 27.5 -79 30.5
s-60.5 4.5 -92.5 4.5zM57.002 322c0 72 8.5 129.833 25.5 173.5s40 77.334 69 101.001s63 39.334 102 47.001s80.833 11.5 125.5 11.5s86.5 -3.83301 125.5 -11.5s73 -23.334 102 -47.001s52 -57.334 69 -101.001s25.5 -101.5 25.5 -173.5s-8.5 -129.833 -25.5 -173.5
s-40 -77.334 -69 -101.001s-63 -39.334 -102 -47.001s-80.833 -11.5 -125.5 -11.5s-86.5 3.83301 -125.5 11.5s-73 23.334 -102 47.001s-52 57.334 -69 101.001s-25.5 101.5 -25.5 173.5zM517.002 819c-6.66699 -35.333 -21.833 -62.832 -45.5 -82.499
s-54.5 -29.5 -92.5 -29.5c-39.333 0 -70.666 9.16699 -93.999 27.5s-38 46.5 -44 84.5h43c11.333 -46 42 -69 92 -69c29.333 0 51.666 5.66699 66.999 17s26 28.666 32 51.999h42z" />
    <glyph glyph-name="Ohungarumlaut" unicode="&#x150;" 
d="M379 599c-32.667 0 -63.998 -1.5 -93.998 -4.5s-56.333 -13.167 -79 -30.5s-40.834 -44.833 -54.501 -82.5s-20.5 -90.834 -20.5 -159.501c0 -46 3.16699 -84.833 9.5 -116.5s15 -57.667 26 -78s24.167 -36.166 39.5 -47.499s32.166 -19.5 50.499 -24.5
s37.833 -8 58.5 -9s42 -1.5 64 -1.5c21.333 0 42.333 0.5 63 1.5s40.167 4 58.5 9s35.333 13.167 51 24.5s29 27.166 40 47.499s19.667 46.333 26 78s9.5 70.5 9.5 116.5c0 68.667 -7 121.834 -21 159.501s-32.5 65.167 -55.5 82.5s-49.333 27.5 -79 30.5
s-60.5 4.5 -92.5 4.5zM57.002 322c0 72 8.5 129.833 25.5 173.5s40 77.334 69 101.001s63 39.334 102 47.001s80.833 11.5 125.5 11.5s86.5 -3.83301 125.5 -11.5s73 -23.334 102 -47.001s52 -57.334 69 -101.001s25.5 -101.5 25.5 -173.5s-8.5 -129.833 -25.5 -173.5
s-40 -77.334 -69 -101.001s-63 -39.334 -102 -47.001s-80.833 -11.5 -125.5 -11.5s-86.5 3.83301 -125.5 11.5s-73 23.334 -102 47.001s-52 57.334 -69 101.001s-25.5 101.5 -25.5 173.5zM223.002 707l53 106.999h85c-17.333 -19.333 -32.5 -37.166 -45.5 -53.499
l-42.5 -53.5h-50zM397.002 706.999l53 106.999h85c-17.333 -19.333 -32.5 -37.166 -45.5 -53.499l-42.5 -53.5h-50z" />
    <glyph glyph-name="ohungarumlaut" unicode="&#x151;" 
d="M379 599c-32.667 0 -63.998 -1.5 -93.998 -4.5s-56.333 -13.167 -79 -30.5s-40.834 -44.833 -54.501 -82.5s-20.5 -90.834 -20.5 -159.501c0 -46 3.16699 -84.833 9.5 -116.5s15 -57.667 26 -78s24.167 -36.166 39.5 -47.499s32.166 -19.5 50.499 -24.5
s37.833 -8 58.5 -9s42 -1.5 64 -1.5c21.333 0 42.333 0.5 63 1.5s40.167 4 58.5 9s35.333 13.167 51 24.5s29 27.166 40 47.499s19.667 46.333 26 78s9.5 70.5 9.5 116.5c0 68.667 -7 121.834 -21 159.501s-32.5 65.167 -55.5 82.5s-49.333 27.5 -79 30.5
s-60.5 4.5 -92.5 4.5zM57.002 322c0 72 8.5 129.833 25.5 173.5s40 77.334 69 101.001s63 39.334 102 47.001s80.833 11.5 125.5 11.5s86.5 -3.83301 125.5 -11.5s73 -23.334 102 -47.001s52 -57.334 69 -101.001s25.5 -101.5 25.5 -173.5s-8.5 -129.833 -25.5 -173.5
s-40 -77.334 -69 -101.001s-63 -39.334 -102 -47.001s-80.833 -11.5 -125.5 -11.5s-86.5 3.83301 -125.5 11.5s-73 23.334 -102 47.001s-52 57.334 -69 101.001s-25.5 101.5 -25.5 173.5zM223.002 707l53 106.999h85c-17.333 -19.333 -32.5 -37.166 -45.5 -53.499
l-42.5 -53.5h-50zM397.002 706.999l53 106.999h85c-17.333 -19.333 -32.5 -37.166 -45.5 -53.499l-42.5 -53.5h-50z" />
    <glyph glyph-name="OE" unicode="&#x152;" horiz-adv-x="1167" 
d="M630 0v69.9971c-14.667 -16.667 -31.334 -30.167 -50.001 -40.5s-38.667 -18.5 -60 -24.5s-43.833 -10.167 -67.5 -12.5s-48.167 -3.5 -73.5 -3.5c-44.667 0 -86.5 3.83301 -125.5 11.5s-73 23.334 -102 47.001s-52 57.334 -69 101.001s-25.5 101.5 -25.5 173.5
s8.5 129.833 25.5 173.5s40 77.334 69 101.001s63 39.334 102 47.001s80.833 11.5 125.5 11.5c50.667 0 97.834 -5.33301 141.501 -16s80.167 -32.334 109.5 -65.001v68h480l-10 -57h-398v-224h323v-57h-323v-246h408l-10 -58h-470zM379 44.9971
c21.333 0 42.335 0.5 63.002 1.5s40.167 4 58.5 9s35.333 13.167 51 24.5s29 27.166 40 47.499s19.667 46.333 26 78s9.5 70.5 9.5 116.5c0 68.667 -7 121.834 -21 159.501s-32.5 65.167 -55.5 82.5s-49.333 27.5 -79 30.5s-60.5 4.5 -92.5 4.5c-32.667 0 -64 -1.5 -94 -4.5
s-56.333 -13.167 -79 -30.5s-40.834 -44.833 -54.501 -82.5s-20.5 -90.834 -20.5 -159.501c0 -46 3.16699 -84.833 9.5 -116.5s15 -57.667 26 -78s24.167 -36.166 39.5 -47.499s32.166 -19.5 50.499 -24.5s37.833 -8 58.5 -9s42 -1.5 64 -1.5z" />
    <glyph glyph-name="oe" unicode="&#x153;" horiz-adv-x="1286" 
d="M1198 38c-14 -6.66699 -31 -13.002 -51 -19.002s-41.5 -11.333 -64.5 -16s-46.833 -8.5 -71.5 -11.5s-48.667 -4.5 -72 -4.5c-34 0 -65.5 1.66699 -94.5 5s-55.167 9.66602 -78.5 18.999s-44 22.166 -62 38.499s-33 37.166 -45 62.499c-14 -25.333 -30.833 -46 -50.5 -62
s-41.5 -28.5 -65.5 -37.5s-49.833 -15.167 -77.5 -18.5s-56.5 -5 -86.5 -5c-44.667 0 -86.5 3.83301 -125.5 11.5s-73 23.334 -102 47.001s-52 57.334 -69 101.001s-25.5 101.5 -25.5 173.5s8.5 129.833 25.5 173.5s40 77.334 69 101.001s63 39.334 102 47.001
s80.833 11.5 125.5 11.5c30.667 0 60.167 -1.66699 88.5 -5s54.833 -9.83301 79.5 -19.5s46.834 -23 66.501 -40s36.167 -38.833 49.5 -65.5c12.667 26 28 47.5 46 64.5s38.333 30.333 61 40s47.5 16.334 74.5 20.001s55.5 5.5 85.5 5.5c48 0 90.5 -4.66699 127.5 -14
s68.167 -26.166 93.5 -50.499s44.666 -57.5 57.999 -99.5s20 -96 20 -162v-26h-529v-10c1.33301 -52.667 6.83301 -95.334 16.5 -128.001s24.5 -58 44.5 -76s45.833 -30 77.5 -36s70.167 -9 115.5 -9c20 0 40.5 1.83301 61.5 5.5s41 8 60 13s36.333 10.167 52 15.5l37.5 13z
M626 347.998c-2 62.667 -10.168 110.999 -24.501 144.999s-32.833 58.833 -55.5 74.5s-48.5 24.834 -77.5 27.501s-58.833 4 -89.5 4c-32.667 0 -64 -1.5 -94 -4.5s-56.333 -13.167 -79 -30.5s-40.834 -44.833 -54.501 -82.5s-20.5 -90.834 -20.5 -159.501
c0 -46 3.16699 -84.833 9.5 -116.5s15 -57.667 26 -78s24.167 -36.166 39.5 -47.499s32.166 -19.5 50.499 -24.5s37.833 -8 58.5 -9s42 -1.5 64 -1.5c30.667 0 60.334 1.33301 89.001 4s54.334 11.5 77.001 26.5s41.334 39 56.001 72s23 79.5 25 139.5v61zM1153 360.997
c-2 51.333 -8.16602 92.667 -18.499 124s-24.666 55.5 -42.999 72.5s-41 28.167 -68 33.5s-58.167 8 -93.5 8c-30.667 0 -59.334 -1.83301 -86.001 -5.5s-50.167 -13.167 -70.5 -28.5s-36.833 -39 -49.5 -71s-20.334 -76.333 -23.001 -133h452z" />
    <glyph glyph-name="Racute" unicode="&#x154;" horiz-adv-x="669" 
d="M527 0l-169.999 230.998h-206v-231h-72v642h260c47.333 0 87 -2.5 119 -7.5s57.667 -14.833 77 -29.5s33.166 -35.5 41.499 -62.5s12.5 -62.5 12.5 -106.5c0 -35.333 -2.5 -65 -7.5 -89s-13.333 -43.667 -25 -59s-27 -27.166 -46 -35.499s-42.5 -14.166 -70.5 -17.499
l178 -235h-91zM341.001 287.998c31.333 0 58 1.16602 80 3.49902s39.833 8.33301 53.5 18s23.667 24.334 30 44.001s9.5 47.167 9.5 82.5c0 36.667 -3.16699 65 -9.5 85s-16.333 34.667 -30 44s-31.5 15 -53.5 17s-48.667 3 -80 3h-190v-297h190zM265.001 688.997
l53 106.999h85c-17.333 -19.333 -32.5 -37.166 -45.5 -53.499l-42.5 -53.5h-50z" />
    <glyph glyph-name="racute" unicode="&#x155;" horiz-adv-x="669" 
d="M527 0l-169.999 230.998h-206v-231h-72v642h260c47.333 0 87 -2.5 119 -7.5s57.667 -14.833 77 -29.5s33.166 -35.5 41.499 -62.5s12.5 -62.5 12.5 -106.5c0 -35.333 -2.5 -65 -7.5 -89s-13.333 -43.667 -25 -59s-27 -27.166 -46 -35.499s-42.5 -14.166 -70.5 -17.499
l178 -235h-91zM341.001 287.998c31.333 0 58 1.16602 80 3.49902s39.833 8.33301 53.5 18s23.667 24.334 30 44.001s9.5 47.167 9.5 82.5c0 36.667 -3.16699 65 -9.5 85s-16.333 34.667 -30 44s-31.5 15 -53.5 17s-48.667 3 -80 3h-190v-297h190zM265.001 688.997
l53 106.999h85c-17.333 -19.333 -32.5 -37.166 -45.5 -53.499l-42.5 -53.5h-50z" />
    <glyph glyph-name="uni0156" unicode="&#x156;" horiz-adv-x="669" 
d="M527 0l-169.999 230.998h-206v-231h-72v642h260c47.333 0 87 -2.5 119 -7.5s57.667 -14.833 77 -29.5s33.166 -35.5 41.499 -62.5s12.5 -62.5 12.5 -106.5c0 -35.333 -2.5 -65 -7.5 -89s-13.333 -43.667 -25 -59s-27 -27.166 -46 -35.499s-42.5 -14.166 -70.5 -17.499
l178 -235h-91zM341.001 287.998c31.333 0 58 1.16602 80 3.49902s39.833 8.33301 53.5 18s23.667 24.334 30 44.001s9.5 47.167 9.5 82.5c0 36.667 -3.16699 65 -9.5 85s-16.333 34.667 -30 44s-31.5 15 -53.5 17s-48.667 3 -80 3h-190v-297h190zM298.001 -245.003
c17.333 9.33301 29.833 22.667 37.5 40s12.5 42 14.5 74h-50v73h77v-83c0 -30 -5.5 -54.833 -16.5 -74.5s-27.5 -35.167 -49.5 -46.5z" />
    <glyph glyph-name="uni0157" unicode="&#x157;" horiz-adv-x="681" 
d="M628 0c-16.667 -2.66699 -32.165 -3.50195 -46.498 -2.50195s-28.5 5.16699 -42.5 12.5s-28.5 18.333 -43.5 33s-31.833 34.667 -50.5 60l-94 128h-18h-187v-231h-72v642h259c47.333 0 87 -2.5 119 -7.5s57.667 -14.833 77 -29.5s33.166 -35.5 41.499 -62.5
s12.5 -62.5 12.5 -106.5c0 -35.333 -2.5 -65 -7.5 -89s-13.333 -43.667 -25 -59s-27 -27.166 -46 -35.499s-42.5 -14.166 -70.5 -17.499l77 -100c15.333 -20 28.666 -35.667 39.999 -47s21.833 -19.833 31.5 -25.5s19 -9 28 -10s18.5 -0.833008 28.5 0.5zM335.002 287.998
c31.333 0 58 1.16602 80 3.49902s39.833 8.33301 53.5 18s23.667 24.334 30 44.001s9.5 47.167 9.5 82.5c0 36.667 -3.16699 65 -9.5 85s-16.333 34.667 -30 44s-31.5 15 -53.5 17s-48.667 3 -80 3h-189v-297h189zM298.002 -245.003c17.333 9.33301 29.833 22.667 37.5 40
s12.5 42 14.5 74h-50v73h77v-83c0 -30 -5.5 -54.833 -16.5 -74.5s-27.5 -35.167 -49.5 -46.5z" />
    <glyph glyph-name="Rcaron" unicode="&#x158;" horiz-adv-x="669" 
d="M527 0l-169.999 230.998h-206v-231h-72v642h260c47.333 0 87 -2.5 119 -7.5s57.667 -14.833 77 -29.5s33.166 -35.5 41.499 -62.5s12.5 -62.5 12.5 -106.5c0 -35.333 -2.5 -65 -7.5 -89s-13.333 -43.667 -25 -59s-27 -27.166 -46 -35.499s-42.5 -14.166 -70.5 -17.499
l178 -235h-91zM341.001 287.998c31.333 0 58 1.16602 80 3.49902s39.833 8.33301 53.5 18s23.667 24.334 30 44.001s9.5 47.167 9.5 82.5c0 36.667 -3.16699 65 -9.5 85s-16.333 34.667 -30 44s-31.5 15 -53.5 17s-48.667 3 -80 3h-190v-297h190zM357.001 692.997h-96
l-92 102h77l63 -75l63 75h77z" />
    <glyph glyph-name="rcaron" unicode="&#x159;" horiz-adv-x="681" 
d="M628 0c-16.667 -2.66699 -32.165 -3.50195 -46.498 -2.50195s-28.5 5.16699 -42.5 12.5s-28.5 18.333 -43.5 33s-31.833 34.667 -50.5 60l-94 128h-18h-187v-231h-72v642h259c47.333 0 87 -2.5 119 -7.5s57.667 -14.833 77 -29.5s33.166 -35.5 41.499 -62.5
s12.5 -62.5 12.5 -106.5c0 -35.333 -2.5 -65 -7.5 -89s-13.333 -43.667 -25 -59s-27 -27.166 -46 -35.499s-42.5 -14.166 -70.5 -17.499l77 -100c15.333 -20 28.666 -35.667 39.999 -47s21.833 -19.833 31.5 -25.5s19 -9 28 -10s18.5 -0.833008 28.5 0.5zM335.002 287.998
c31.333 0 58 1.16602 80 3.49902s39.833 8.33301 53.5 18s23.667 24.334 30 44.001s9.5 47.167 9.5 82.5c0 36.667 -3.16699 65 -9.5 85s-16.333 34.667 -30 44s-31.5 15 -53.5 17s-48.667 3 -80 3h-189v-297h189zM388.002 692.997h-96l-92 102h77l63 -75l63 75h77z" />
    <glyph glyph-name="Sacute" unicode="&#x15a;" horiz-adv-x="624" 
d="M522 562c-9.33301 3.33301 -21.666 6.99805 -36.999 10.998s-32.333 7.83301 -51 11.5s-38.334 6.66699 -59.001 9s-41 3.5 -61 3.5c-59.333 0 -104.333 -8.5 -135 -25.5s-46 -48.167 -46 -93.5c0 -21.333 1.16699 -37.666 3.5 -48.999s7.66602 -20.5 15.999 -27.5
s20.833 -12.667 37.5 -17s39.667 -9.5 69 -15.5c37.333 -8 74.833 -15.167 112.5 -21.5s71.834 -15.666 102.501 -27.999s55.834 -29.5 75.501 -51.5s29.834 -52.333 30.501 -91c0 -38.667 -6.33301 -70.167 -19 -94.5s-30.334 -43.5 -53.001 -57.5
s-49.834 -23.5 -81.501 -28.5s-66.5 -7.5 -104.5 -7.5c-23.333 0 -48 1.16699 -74 3.5s-51.5 5.83301 -76.5 10.5s-48.5 9.83398 -70.5 15.501s-40.333 12.167 -55 19.5l15 28c4.66699 8.66699 10 17.667 16 27c10 -4 23.167 -8.66699 39.5 -14s35.5 -10.333 57.5 -15
s46.333 -8.66699 73 -12s54.667 -5 84 -5c28 0 53.167 0.666992 75.5 2s41.333 6 57 14s27.667 20.5 36 37.5s12.5 41.167 12.5 72.5c0 20 -2.33301 35.833 -7 47.5s-12.334 21 -23.001 28s-25 12.5 -43 16.5s-40.333 8.66699 -67 14c-56 10.667 -103.667 20.167 -143 28.5
s-71.166 19 -95.499 32s-42 30.333 -53 52s-16.5 50.834 -16.5 87.501c0 29.333 6.16699 55 18.5 77s29.333 40.167 51 54.5s46.667 25.166 75 32.499s58.5 11 90.5 11c23.333 0 47.166 -0.833008 71.499 -2.5s47.833 -4.16699 70.5 -7.5s43.834 -7.33301 63.501 -12
s36.5 -10.334 50.5 -17.001zM271 688.998l53 106.999h85c-17.333 -19.333 -32.5 -37.166 -45.5 -53.499l-42.5 -53.5h-50z" />
    <glyph glyph-name="sacute" unicode="&#x15b;" horiz-adv-x="624" 
d="M522 562c-9.33301 3.33301 -21.666 6.99805 -36.999 10.998s-32.333 7.83301 -51 11.5s-38.334 6.66699 -59.001 9s-41 3.5 -61 3.5c-59.333 0 -104.333 -8.5 -135 -25.5s-46 -48.167 -46 -93.5c0 -21.333 1.16699 -37.666 3.5 -48.999s7.66602 -20.5 15.999 -27.5
s20.833 -12.667 37.5 -17s39.667 -9.5 69 -15.5c37.333 -8 74.833 -15.167 112.5 -21.5s71.834 -15.666 102.501 -27.999s55.834 -29.5 75.501 -51.5s29.834 -52.333 30.501 -91c0 -38.667 -6.33301 -70.167 -19 -94.5s-30.334 -43.5 -53.001 -57.5
s-49.834 -23.5 -81.501 -28.5s-66.5 -7.5 -104.5 -7.5c-23.333 0 -48 1.16699 -74 3.5s-51.5 5.83301 -76.5 10.5s-48.5 9.83398 -70.5 15.501s-40.333 12.167 -55 19.5l15 28c4.66699 8.66699 10 17.667 16 27c10 -4 23.167 -8.66699 39.5 -14s35.5 -10.333 57.5 -15
s46.333 -8.66699 73 -12s54.667 -5 84 -5c28 0 53.167 0.666992 75.5 2s41.333 6 57 14s27.667 20.5 36 37.5s12.5 41.167 12.5 72.5c0 20 -2.33301 35.833 -7 47.5s-12.334 21 -23.001 28s-25 12.5 -43 16.5s-40.333 8.66699 -67 14c-56 10.667 -103.667 20.167 -143 28.5
s-71.166 19 -95.499 32s-42 30.333 -53 52s-16.5 50.834 -16.5 87.501c0 29.333 6.16699 55 18.5 77s29.333 40.167 51 54.5s46.667 25.166 75 32.499s58.5 11 90.5 11c23.333 0 47.166 -0.833008 71.499 -2.5s47.833 -4.16699 70.5 -7.5s43.834 -7.33301 63.501 -12
s36.5 -10.334 50.5 -17.001zM271 688.998l53 106.999h85c-17.333 -19.333 -32.5 -37.166 -45.5 -53.499l-42.5 -53.5h-50z" />
    <glyph glyph-name="Scircumflex" unicode="&#x15c;" horiz-adv-x="624" 
d="M522 562c-9.33301 3.33301 -21.666 6.99805 -36.999 10.998s-32.333 7.83301 -51 11.5s-38.334 6.66699 -59.001 9s-41 3.5 -61 3.5c-59.333 0 -104.333 -8.5 -135 -25.5s-46 -48.167 -46 -93.5c0 -21.333 1.16699 -37.666 3.5 -48.999s7.66602 -20.5 15.999 -27.5
s20.833 -12.667 37.5 -17s39.667 -9.5 69 -15.5c37.333 -8 74.833 -15.167 112.5 -21.5s71.834 -15.666 102.501 -27.999s55.834 -29.5 75.501 -51.5s29.834 -52.333 30.501 -91c0 -38.667 -6.33301 -70.167 -19 -94.5s-30.334 -43.5 -53.001 -57.5
s-49.834 -23.5 -81.501 -28.5s-66.5 -7.5 -104.5 -7.5c-23.333 0 -48 1.16699 -74 3.5s-51.5 5.83301 -76.5 10.5s-48.5 9.83398 -70.5 15.501s-40.333 12.167 -55 19.5l15 28c4.66699 8.66699 10 17.667 16 27c10 -4 23.167 -8.66699 39.5 -14s35.5 -10.333 57.5 -15
s46.333 -8.66699 73 -12s54.667 -5 84 -5c28 0 53.167 0.666992 75.5 2s41.333 6 57 14s27.667 20.5 36 37.5s12.5 41.167 12.5 72.5c0 20 -2.33301 35.833 -7 47.5s-12.334 21 -23.001 28s-25 12.5 -43 16.5s-40.333 8.66699 -67 14c-56 10.667 -103.667 20.167 -143 28.5
s-71.166 19 -95.499 32s-42 30.333 -53 52s-16.5 50.834 -16.5 87.501c0 29.333 6.16699 55 18.5 77s29.333 40.167 51 54.5s46.667 25.166 75 32.499s58.5 11 90.5 11c23.333 0 47.166 -0.833008 71.499 -2.5s47.833 -4.16699 70.5 -7.5s43.834 -7.33301 63.501 -12
s36.5 -10.334 50.5 -17.001zM372 706.998l-59 84l-59 -84h-72l44 54l44 53h80l91 -107h-69z" />
    <glyph glyph-name="scircumflex" unicode="&#x15d;" horiz-adv-x="624" 
d="M522 562c-9.33301 3.33301 -21.666 6.99805 -36.999 10.998s-32.333 7.83301 -51 11.5s-38.334 6.66699 -59.001 9s-41 3.5 -61 3.5c-59.333 0 -104.333 -8.5 -135 -25.5s-46 -48.167 -46 -93.5c0 -21.333 1.16699 -37.666 3.5 -48.999s7.66602 -20.5 15.999 -27.5
s20.833 -12.667 37.5 -17s39.667 -9.5 69 -15.5c37.333 -8 74.833 -15.167 112.5 -21.5s71.834 -15.666 102.501 -27.999s55.834 -29.5 75.501 -51.5s29.834 -52.333 30.501 -91c0 -38.667 -6.33301 -70.167 -19 -94.5s-30.334 -43.5 -53.001 -57.5
s-49.834 -23.5 -81.501 -28.5s-66.5 -7.5 -104.5 -7.5c-23.333 0 -48 1.16699 -74 3.5s-51.5 5.83301 -76.5 10.5s-48.5 9.83398 -70.5 15.501s-40.333 12.167 -55 19.5l15 28c4.66699 8.66699 10 17.667 16 27c10 -4 23.167 -8.66699 39.5 -14s35.5 -10.333 57.5 -15
s46.333 -8.66699 73 -12s54.667 -5 84 -5c28 0 53.167 0.666992 75.5 2s41.333 6 57 14s27.667 20.5 36 37.5s12.5 41.167 12.5 72.5c0 20 -2.33301 35.833 -7 47.5s-12.334 21 -23.001 28s-25 12.5 -43 16.5s-40.333 8.66699 -67 14c-56 10.667 -103.667 20.167 -143 28.5
s-71.166 19 -95.499 32s-42 30.333 -53 52s-16.5 50.834 -16.5 87.501c0 29.333 6.16699 55 18.5 77s29.333 40.167 51 54.5s46.667 25.166 75 32.499s58.5 11 90.5 11c23.333 0 47.166 -0.833008 71.499 -2.5s47.833 -4.16699 70.5 -7.5s43.834 -7.33301 63.501 -12
s36.5 -10.334 50.5 -17.001zM372 706.998l-59 84l-59 -84h-72l44 54l44 53h80l91 -107h-69z" />
    <glyph glyph-name="Scedilla" unicode="&#x15e;" horiz-adv-x="624" 
d="M224 -156l3.99902 -0.000976562c5.33301 -0.666992 11 -1 17 -1h14c30.667 0 53.667 4.66699 69 14c11.333 10 17 20.667 17 32c0 5.33301 -0.666992 10.166 -2 14.499s-4.33301 8.33301 -9 12s-11.667 6.66699 -21 9s-22 3.83301 -38 4.5l18 61
c-22 0.666992 -44.833 2.33398 -68.5 5.00098s-46.5 6.16699 -68.5 10.5s-42.5 9.33301 -61.5 15s-35.167 11.5 -48.5 17.5l15 28c4.66699 8.66699 10 17.667 16 27c10 -4 23.167 -8.66699 39.5 -14s35.5 -10.333 57.5 -15s46.333 -8.66699 73 -12s54.667 -5 84 -5
c28 0 53.167 0.666992 75.5 2s41.333 6 57 14s27.667 20.5 36 37.5s12.5 41.167 12.5 72.5c0 20 -2.33301 35.833 -7 47.5s-12.334 21 -23.001 28s-25 12.5 -43 16.5s-40.333 8.66699 -67 14c-56 10.667 -103.667 20.167 -143 28.5s-71.166 19 -95.499 32s-42 30.333 -53 52
s-16.5 50.834 -16.5 87.501c0 29.333 6.16699 55 18.5 77s29.333 40.167 51 54.5s46.667 25.166 75 32.499s58.5 11 90.5 11c23.333 0 47.166 -0.833008 71.499 -2.5s47.833 -4.16699 70.5 -7.5s43.834 -7.33301 63.501 -12s36.5 -10.334 50.5 -17.001l-33 -53
c-9.33301 3.33301 -21.666 7 -36.999 11s-32.333 7.83301 -51 11.5s-38.334 6.66699 -59.001 9s-41 3.5 -61 3.5c-59.333 0 -104.333 -8.5 -135 -25.5s-46 -48.167 -46 -93.5c0 -21.333 1.16699 -37.666 3.5 -48.999s7.66602 -20.5 15.999 -27.5s20.833 -12.667 37.5 -17
s39.667 -9.5 69 -15.5c37.333 -8 74.833 -15.167 112.5 -21.5s71.834 -15.666 102.501 -27.999s55.834 -29.5 75.501 -51.5s29.834 -52.333 30.501 -91c0 -38 -6 -69 -18 -93s-28.833 -43 -50.5 -57s-47.667 -23.667 -78 -29s-63.833 -8.33301 -100.5 -9l-14 -47
c29.333 -3.33301 51 -10.5 65 -21.5s21 -23.5 21 -37.5c0 -19.333 -10.667 -36.833 -32 -52.5s-53 -23.5 -95 -23.5c-22.667 0 -42.334 1 -59.001 3z" />
    <glyph glyph-name="scedilla" unicode="&#x15f;" horiz-adv-x="624" 
d="M224 -156l3.99902 -0.000976562c5.33301 -0.666992 11 -1 17 -1h14c30.667 0 53.667 4.66699 69 14c11.333 10 17 20.667 17 32c0 5.33301 -0.666992 10.166 -2 14.499s-4.33301 8.33301 -9 12s-11.667 6.66699 -21 9s-22 3.83301 -38 4.5l18 61
c-22 0.666992 -44.833 2.33398 -68.5 5.00098s-46.5 6.16699 -68.5 10.5s-42.5 9.33301 -61.5 15s-35.167 11.5 -48.5 17.5l15 28c4.66699 8.66699 10 17.667 16 27c10 -4 23.167 -8.66699 39.5 -14s35.5 -10.333 57.5 -15s46.333 -8.66699 73 -12s54.667 -5 84 -5
c28 0 53.167 0.666992 75.5 2s41.333 6 57 14s27.667 20.5 36 37.5s12.5 41.167 12.5 72.5c0 20 -2.33301 35.833 -7 47.5s-12.334 21 -23.001 28s-25 12.5 -43 16.5s-40.333 8.66699 -67 14c-56 10.667 -103.667 20.167 -143 28.5s-71.166 19 -95.499 32s-42 30.333 -53 52
s-16.5 50.834 -16.5 87.501c0 29.333 6.16699 55 18.5 77s29.333 40.167 51 54.5s46.667 25.166 75 32.499s58.5 11 90.5 11c23.333 0 47.166 -0.833008 71.499 -2.5s47.833 -4.16699 70.5 -7.5s43.834 -7.33301 63.501 -12s36.5 -10.334 50.5 -17.001l-33 -53
c-9.33301 3.33301 -21.666 7 -36.999 11s-32.333 7.83301 -51 11.5s-38.334 6.66699 -59.001 9s-41 3.5 -61 3.5c-59.333 0 -104.333 -8.5 -135 -25.5s-46 -48.167 -46 -93.5c0 -21.333 1.16699 -37.666 3.5 -48.999s7.66602 -20.5 15.999 -27.5s20.833 -12.667 37.5 -17
s39.667 -9.5 69 -15.5c37.333 -8 74.833 -15.167 112.5 -21.5s71.834 -15.666 102.501 -27.999s55.834 -29.5 75.501 -51.5s29.834 -52.333 30.501 -91c0 -38 -6 -69 -18 -93s-28.833 -43 -50.5 -57s-47.667 -23.667 -78 -29s-63.833 -8.33301 -100.5 -9l-14 -47
c29.333 -3.33301 51 -10.5 65 -21.5s21 -23.5 21 -37.5c0 -19.333 -10.667 -36.833 -32 -52.5s-53 -23.5 -95 -23.5c-22.667 0 -42.334 1 -59.001 3z" />
    <glyph glyph-name="Scaron" unicode="&#x160;" horiz-adv-x="624" 
d="M522 562c-9.33301 3.33301 -21.666 6.99805 -36.999 10.998s-32.333 7.83301 -51 11.5s-38.334 6.66699 -59.001 9s-41 3.5 -61 3.5c-59.333 0 -104.333 -8.5 -135 -25.5s-46 -48.167 -46 -93.5c0 -21.333 1.16699 -37.666 3.5 -48.999s7.66602 -20.5 15.999 -27.5
s20.833 -12.667 37.5 -17s39.667 -9.5 69 -15.5c37.333 -8 74.833 -15.167 112.5 -21.5s71.834 -15.666 102.501 -27.999s55.834 -29.5 75.501 -51.5s29.834 -52.333 30.501 -91c0 -38.667 -6.33301 -70.167 -19 -94.5s-30.334 -43.5 -53.001 -57.5
s-49.834 -23.5 -81.501 -28.5s-66.5 -7.5 -104.5 -7.5c-23.333 0 -48 1.16699 -74 3.5s-51.5 5.83301 -76.5 10.5s-48.5 9.83398 -70.5 15.501s-40.333 12.167 -55 19.5l15 28c4.66699 8.66699 10 17.667 16 27c10 -4 23.167 -8.66699 39.5 -14s35.5 -10.333 57.5 -15
s46.333 -8.66699 73 -12s54.667 -5 84 -5c28 0 53.167 0.666992 75.5 2s41.333 6 57 14s27.667 20.5 36 37.5s12.5 41.167 12.5 72.5c0 20 -2.33301 35.833 -7 47.5s-12.334 21 -23.001 28s-25 12.5 -43 16.5s-40.333 8.66699 -67 14c-56 10.667 -103.667 20.167 -143 28.5
s-71.166 19 -95.499 32s-42 30.333 -53 52s-16.5 50.834 -16.5 87.501c0 29.333 6.16699 55 18.5 77s29.333 40.167 51 54.5s46.667 25.166 75 32.499s58.5 11 90.5 11c23.333 0 47.166 -0.833008 71.499 -2.5s47.833 -4.16699 70.5 -7.5s43.834 -7.33301 63.501 -12
s36.5 -10.334 50.5 -17.001zM360 692.998h-96l-92 102h77l63 -75l63 75h77z" />
    <glyph glyph-name="scaron" unicode="&#x161;" horiz-adv-x="624" 
d="M522 562c-9.33301 3.33301 -21.666 6.99805 -36.999 10.998s-32.333 7.83301 -51 11.5s-38.334 6.66699 -59.001 9s-41 3.5 -61 3.5c-59.333 0 -104.333 -8.5 -135 -25.5s-46 -48.167 -46 -93.5c0 -21.333 1.16699 -37.666 3.5 -48.999s7.66602 -20.5 15.999 -27.5
s20.833 -12.667 37.5 -17s39.667 -9.5 69 -15.5c37.333 -8 74.833 -15.167 112.5 -21.5s71.834 -15.666 102.501 -27.999s55.834 -29.5 75.501 -51.5s29.834 -52.333 30.501 -91c0 -38.667 -6.33301 -70.167 -19 -94.5s-30.334 -43.5 -53.001 -57.5
s-49.834 -23.5 -81.501 -28.5s-66.5 -7.5 -104.5 -7.5c-23.333 0 -48 1.16699 -74 3.5s-51.5 5.83301 -76.5 10.5s-48.5 9.83398 -70.5 15.501s-40.333 12.167 -55 19.5l15 28c4.66699 8.66699 10 17.667 16 27c10 -4 23.167 -8.66699 39.5 -14s35.5 -10.333 57.5 -15
s46.333 -8.66699 73 -12s54.667 -5 84 -5c28 0 53.167 0.666992 75.5 2s41.333 6 57 14s27.667 20.5 36 37.5s12.5 41.167 12.5 72.5c0 20 -2.33301 35.833 -7 47.5s-12.334 21 -23.001 28s-25 12.5 -43 16.5s-40.333 8.66699 -67 14c-56 10.667 -103.667 20.167 -143 28.5
s-71.166 19 -95.499 32s-42 30.333 -53 52s-16.5 50.834 -16.5 87.501c0 29.333 6.16699 55 18.5 77s29.333 40.167 51 54.5s46.667 25.166 75 32.499s58.5 11 90.5 11c23.333 0 47.166 -0.833008 71.499 -2.5s47.833 -4.16699 70.5 -7.5s43.834 -7.33301 63.501 -12
s36.5 -10.334 50.5 -17.001zM360 692.998h-96l-92 102h77l63 -75l63 75h77z" />
    <glyph glyph-name="Tcommaaccent" unicode="&#x162;" horiz-adv-x="543" 
d="M234 0v585h-227l10 57h529l-10 -57h-230v-585h-72zM234 -257c15.333 8 26.667 20.499 34 37.499s11.333 39.833 12 68.5h-44v75h72v-64c0 -19.333 -1.33301 -36.166 -4 -50.499s-6 -25.833 -10 -34.5c-6 -9.33301 -12.833 -18 -20.5 -26s-17.5 -15 -29.5 -21z" />
    <glyph glyph-name="tcommaaccent" unicode="&#x163;" horiz-adv-x="543" 
d="M234 0v585h-227l10 57h529l-10 -57h-230v-585h-72zM234 -257c15.333 8 26.667 20.499 34 37.499s11.333 39.833 12 68.5h-44v75h72v-64c0 -19.333 -1.33301 -36.166 -4 -50.499s-6 -25.833 -10 -34.5c-6 -9.33301 -12.833 -18 -20.5 -26s-17.5 -15 -29.5 -21z" />
    <glyph glyph-name="Tcaron" unicode="&#x164;" horiz-adv-x="543" 
d="M234 0v585h-227l10 57h529l-10 -57h-230v-585h-72zM319 693h-96l-92 102h77l63 -75l63 75h77z" />
    <glyph glyph-name="tcaron" unicode="&#x165;" horiz-adv-x="543" 
d="M234 0v585h-227l10 57h529l-10 -57h-230v-585h-72zM319 693h-96l-92 102h77l63 -75l63 75h77z" />
    <glyph glyph-name="Tbar" unicode="&#x166;" horiz-adv-x="543" 
d="M234 0v434h-100v38h100v113h-227l10 57h529l-10 -57h-230v-113h103v-38h-103v-434h-72z" />
    <glyph glyph-name="tbar" unicode="&#x167;" horiz-adv-x="543" 
d="M234 0v434h-100v38h100v113h-227l10 57h529l-10 -57h-230v-113h103v-38h-103v-434h-72z" />
    <glyph glyph-name="Utilde" unicode="&#x168;" horiz-adv-x="686" 
d="M543 642h70.998v-372c0 -50 -3.33301 -92.833 -10 -128.5s-19.667 -64.667 -39 -87s-46.666 -38.833 -81.999 -49.5s-81.666 -16 -138.999 -16s-103.833 5.33301 -139.5 16s-63.334 27.167 -83.001 49.5s-33 51.333 -40 87s-10.5 78.5 -10.5 128.5v372h71v-371
c0 -40 2.16699 -74.167 6.5 -102.5s13.5 -51.5 27.5 -69.5s34.333 -31.167 61 -39.5s62.334 -12.5 107.001 -12.5s80.167 4.16699 106.5 12.5s46.333 21.5 60 39.5s22.5 41.167 26.5 69.5s6 62.5 6 102.5v371zM491.998 803c-2.66699 -26.667 -11.5 -47.335 -26.5 -62.002
s-33.833 -22 -56.5 -22c-9.33301 0 -20.166 2.16699 -32.499 6.5s-26.5 10.5 -42.5 18.5c-22 12 -39 18 -51 18c-8 0 -14.5 -1.16699 -19.5 -3.5s-10.167 -6.16602 -15.5 -11.499c-3.33301 -3.33301 -6 -7.33301 -8 -12s-3.33301 -10.667 -4 -18h-43
c0.666992 13.333 3 24.5 7 33.5s9.66699 17.5 17 25.5c17.333 17.333 38.666 26 63.999 26c9.33301 0 20.333 -2.16699 33 -6.5s27 -10.166 43 -17.499c20 -10 36.333 -15 49 -15s22.5 2.66699 29.5 8s12.167 16 15.5 32h41z" />
    <glyph glyph-name="utilde" unicode="&#x169;" horiz-adv-x="668" 
d="M543 642h70.998v-372c0 -50 -3.33301 -92.833 -10 -128.5s-19.667 -64.667 -39 -87s-46.666 -38.833 -81.999 -49.5s-81.666 -16 -138.999 -16s-103.833 5.33301 -139.5 16s-63.334 27.167 -83.001 49.5s-33 51.333 -40 87s-10.5 78.5 -10.5 128.5v372h71v-371
c0 -40 2.16699 -74.167 6.5 -102.5s13.5 -51.5 27.5 -69.5s34.333 -31.167 61 -39.5s62.334 -12.5 107.001 -12.5s80.167 4.16699 106.5 12.5s46.333 21.5 60 39.5s22.5 41.167 26.5 69.5s6 62.5 6 102.5v371zM482.998 803c-2.66699 -26.667 -11.5 -47.335 -26.5 -62.002
s-33.833 -22 -56.5 -22c-9.33301 0 -20.166 2.16699 -32.499 6.5s-26.5 10.5 -42.5 18.5c-22 12 -39 18 -51 18c-8 0 -14.5 -1.16699 -19.5 -3.5s-10.167 -6.16602 -15.5 -11.499c-3.33301 -3.33301 -6 -7.33301 -8 -12s-3.33301 -10.667 -4 -18h-43
c0.666992 13.333 3 24.5 7 33.5s9.66699 17.5 17 25.5c17.333 17.333 38.666 26 63.999 26c9.33301 0 20.333 -2.16699 33 -6.5s27 -10.166 43 -17.499c20 -10 36.333 -15 49 -15s22.5 2.66699 29.5 8s12.167 16 15.5 32h41z" />
    <glyph glyph-name="Umacron" unicode="&#x16a;" horiz-adv-x="686" 
d="M543 642h70.998v-372c0 -50 -3.33301 -92.833 -10 -128.5s-19.667 -64.667 -39 -87s-46.666 -38.833 -81.999 -49.5s-81.666 -16 -138.999 -16s-103.833 5.33301 -139.5 16s-63.334 27.167 -83.001 49.5s-33 51.333 -40 87s-10.5 78.5 -10.5 128.5v372h71v-371
c0 -40 2.16699 -74.167 6.5 -102.5s13.5 -51.5 27.5 -69.5s34.333 -31.167 61 -39.5s62.334 -12.5 107.001 -12.5s80.167 4.16699 106.5 12.5s46.333 21.5 60 39.5s22.5 41.167 26.5 69.5s6 62.5 6 102.5v371zM204.998 745v38h275v-38h-275z" />
    <glyph glyph-name="umacron" unicode="&#x16b;" horiz-adv-x="668" 
d="M543 642h70.998v-372c0 -50 -3.33301 -92.833 -10 -128.5s-19.667 -64.667 -39 -87s-46.666 -38.833 -81.999 -49.5s-81.666 -16 -138.999 -16s-103.833 5.33301 -139.5 16s-63.334 27.167 -83.001 49.5s-33 51.333 -40 87s-10.5 78.5 -10.5 128.5v372h71v-371
c0 -40 2.16699 -74.167 6.5 -102.5s13.5 -51.5 27.5 -69.5s34.333 -31.167 61 -39.5s62.334 -12.5 107.001 -12.5s80.167 4.16699 106.5 12.5s46.333 21.5 60 39.5s22.5 41.167 26.5 69.5s6 62.5 6 102.5v371zM195.998 745v38h275v-38h-275z" />
    <glyph glyph-name="Ubreve" unicode="&#x16c;" horiz-adv-x="686" 
d="M543 642h70.998v-372c0 -50 -3.33301 -92.833 -10 -128.5s-19.667 -64.667 -39 -87s-46.666 -38.833 -81.999 -49.5s-81.666 -16 -138.999 -16s-103.833 5.33301 -139.5 16s-63.334 27.167 -83.001 49.5s-33 51.333 -40 87s-10.5 78.5 -10.5 128.5v372h71v-371
c0 -40 2.16699 -74.167 6.5 -102.5s13.5 -51.5 27.5 -69.5s34.333 -31.167 61 -39.5s62.334 -12.5 107.001 -12.5s80.167 4.16699 106.5 12.5s46.333 21.5 60 39.5s22.5 41.167 26.5 69.5s6 62.5 6 102.5v371zM480.998 819c-6.66699 -35.333 -21.833 -62.832 -45.5 -82.499
s-54.5 -29.5 -92.5 -29.5c-39.333 0 -70.666 9.16699 -93.999 27.5s-38 46.5 -44 84.5h43c11.333 -46 42 -69 92 -69c29.333 0 51.666 5.66699 66.999 17s26 28.666 32 51.999h42z" />
    <glyph glyph-name="ubreve" unicode="&#x16d;" horiz-adv-x="668" 
d="M543 642h70.998v-372c0 -50 -3.33301 -92.833 -10 -128.5s-19.667 -64.667 -39 -87s-46.666 -38.833 -81.999 -49.5s-81.666 -16 -138.999 -16s-103.833 5.33301 -139.5 16s-63.334 27.167 -83.001 49.5s-33 51.333 -40 87s-10.5 78.5 -10.5 128.5v372h71v-371
c0 -40 2.16699 -74.167 6.5 -102.5s13.5 -51.5 27.5 -69.5s34.333 -31.167 61 -39.5s62.334 -12.5 107.001 -12.5s80.167 4.16699 106.5 12.5s46.333 21.5 60 39.5s22.5 41.167 26.5 69.5s6 62.5 6 102.5v371zM471.998 819c-6.66699 -35.333 -21.833 -62.832 -45.5 -82.499
s-54.5 -29.5 -92.5 -29.5c-39.333 0 -70.666 9.16699 -93.999 27.5s-38 46.5 -44 84.5h43c11.333 -46 42 -69 92 -69c29.333 0 51.666 5.66699 66.999 17s26 28.666 32 51.999h42z" />
    <glyph glyph-name="Uring" unicode="&#x16e;" horiz-adv-x="686" 
d="M543 642h70.998v-372c0 -50 -3.33301 -92.833 -10 -128.5s-19.667 -64.667 -39 -87s-46.666 -38.833 -81.999 -49.5s-81.666 -16 -138.999 -16s-103.833 5.33301 -139.5 16s-63.334 27.167 -83.001 49.5s-33 51.333 -40 87s-10.5 78.5 -10.5 128.5v372h71v-371
c0 -40 2.16699 -74.167 6.5 -102.5s13.5 -51.5 27.5 -69.5s34.333 -31.167 61 -39.5s62.334 -12.5 107.001 -12.5s80.167 4.16699 106.5 12.5s46.333 21.5 60 39.5s22.5 41.167 26.5 69.5s6 62.5 6 102.5v371zM342.998 707c8.66699 0 16.167 1.66699 22.5 5s9.5 14 9.5 32
c0 17.333 -3.33301 27.5 -10 30.5s-14 4.5 -22 4.5c-8.66699 0 -16.167 -1.5 -22.5 -4.5s-9.5 -13.167 -9.5 -30.5c0 -18 3.16699 -28.667 9.5 -32s13.833 -5 22.5 -5zM342.998 677c-9.33301 0 -17.833 0.833008 -25.5 2.5s-14.334 4.83398 -20.001 9.50098
s-10.167 11.334 -13.5 20.001s-5 20.334 -5 35.001c0 14 1.66699 25.333 5 34s7.83301 15.334 13.5 20.001s12.334 7.83398 20.001 9.50098s16.167 2.5 25.5 2.5c8.66699 0 17 -0.833008 25 -2.5s14.833 -4.83398 20.5 -9.50098s10.167 -11.334 13.5 -20.001s5 -20 5 -34
c0 -14.667 -1.66699 -26.334 -5 -35.001s-7.83301 -15.334 -13.5 -20.001s-12.5 -7.83398 -20.5 -9.50098s-16.333 -2.5 -25 -2.5z" />
    <glyph glyph-name="uring" unicode="&#x16f;" horiz-adv-x="668" 
d="M543 642h70.998v-372c0 -50 -3.33301 -92.833 -10 -128.5s-19.667 -64.667 -39 -87s-46.666 -38.833 -81.999 -49.5s-81.666 -16 -138.999 -16s-103.833 5.33301 -139.5 16s-63.334 27.167 -83.001 49.5s-33 51.333 -40 87s-10.5 78.5 -10.5 128.5v372h71v-371
c0 -40 2.16699 -74.167 6.5 -102.5s13.5 -51.5 27.5 -69.5s34.333 -31.167 61 -39.5s62.334 -12.5 107.001 -12.5s80.167 4.16699 106.5 12.5s46.333 21.5 60 39.5s22.5 41.167 26.5 69.5s6 62.5 6 102.5v371zM333.998 707c8.66699 0 16.167 1.66699 22.5 5s9.5 14 9.5 32
c0 17.333 -3.33301 27.5 -10 30.5s-14 4.5 -22 4.5c-8.66699 0 -16.167 -1.5 -22.5 -4.5s-9.5 -13.167 -9.5 -30.5c0 -18 3.16699 -28.667 9.5 -32s13.833 -5 22.5 -5zM333.998 677c-9.33301 0 -17.833 0.833008 -25.5 2.5s-14.334 4.83398 -20.001 9.50098
s-10.167 11.334 -13.5 20.001s-5 20.334 -5 35.001c0 14 1.66699 25.333 5 34s7.83301 15.334 13.5 20.001s12.334 7.83398 20.001 9.50098s16.167 2.5 25.5 2.5c8.66699 0 17 -0.833008 25 -2.5s14.833 -4.83398 20.5 -9.50098s10.167 -11.334 13.5 -20.001s5 -20 5 -34
c0 -14.667 -1.66699 -26.334 -5 -35.001s-7.83301 -15.334 -13.5 -20.001s-12.5 -7.83398 -20.5 -9.50098s-16.333 -2.5 -25 -2.5z" />
    <glyph glyph-name="Uhungarumlaut" unicode="&#x170;" horiz-adv-x="686" 
d="M543 642h70.998v-372c0 -50 -3.33301 -92.833 -10 -128.5s-19.667 -64.667 -39 -87s-46.666 -38.833 -81.999 -49.5s-81.666 -16 -138.999 -16s-103.833 5.33301 -139.5 16s-63.334 27.167 -83.001 49.5s-33 51.333 -40 87s-10.5 78.5 -10.5 128.5v372h71v-371
c0 -40 2.16699 -74.167 6.5 -102.5s13.5 -51.5 27.5 -69.5s34.333 -31.167 61 -39.5s62.334 -12.5 107.001 -12.5s80.167 4.16699 106.5 12.5s46.333 21.5 60 39.5s22.5 41.167 26.5 69.5s6 62.5 6 102.5v371zM186.998 689l53 106.999h85
c-17.333 -19.333 -32.5 -37.166 -45.5 -53.499l-42.5 -53.5h-50zM360.998 688.999l53 106.999h85c-17.333 -19.333 -32.5 -37.166 -45.5 -53.499l-42.5 -53.5h-50z" />
    <glyph glyph-name="uhungarumlaut" unicode="&#x171;" horiz-adv-x="668" 
d="M543 642h70.998v-372c0 -50 -3.33301 -92.833 -10 -128.5s-19.667 -64.667 -39 -87s-46.666 -38.833 -81.999 -49.5s-81.666 -16 -138.999 -16s-103.833 5.33301 -139.5 16s-63.334 27.167 -83.001 49.5s-33 51.333 -40 87s-10.5 78.5 -10.5 128.5v372h71v-371
c0 -40 2.16699 -74.167 6.5 -102.5s13.5 -51.5 27.5 -69.5s34.333 -31.167 61 -39.5s62.334 -12.5 107.001 -12.5s80.167 4.16699 106.5 12.5s46.333 21.5 60 39.5s22.5 41.167 26.5 69.5s6 62.5 6 102.5v371zM177.998 689l53 106.999h85
c-17.333 -19.333 -32.5 -37.166 -45.5 -53.499l-42.5 -53.5h-50zM351.998 688.999l53 106.999h85c-17.333 -19.333 -32.5 -37.166 -45.5 -53.499l-42.5 -53.5h-50z" />
    <glyph glyph-name="Uogonek" unicode="&#x172;" horiz-adv-x="686" 
d="M433 -150c-17.333 -2 -36.999 -3.00098 -58.999 -3.00098c-42 0 -73.667 7.83301 -95 23.5s-32 33.167 -32 52.5c0 14 7 26.5 21 37.5s35.667 18.167 65 21.5l-2 7c-54.667 0.666992 -99 6.5 -133 17.5s-60.333 27.833 -79 50.5s-31.334 51.5 -38.001 86.5
s-10 77.167 -10 126.5v372h71v-371c0 -40 2.16699 -74.167 6.5 -102.5s13.5 -51.5 27.5 -69.5s34.333 -31.167 61 -39.5s62.334 -12.5 107.001 -12.5s80.167 4.16699 106.5 12.5s46.333 21.5 60 39.5s22.5 41.167 26.5 69.5s6 62.5 6 102.5v371h71v-372
c0 -48 -3 -89.333 -9 -124s-17.833 -63.334 -35.5 -86.001s-42.334 -39.667 -74.001 -51s-73.167 -17.666 -124.5 -18.999l6 -21c-16 -0.666992 -28.667 -2.16699 -38 -4.5s-16.333 -5.33301 -21 -9s-7.66699 -7.66699 -9 -12s-2 -9.16602 -2 -14.499
c0 -11.333 5.66699 -22 17 -32c15.333 -9.33301 38.333 -14 69 -14h14c6 0 11.667 0.333008 17 1h4z" />
    <glyph glyph-name="uogonek" unicode="&#x173;" horiz-adv-x="668" 
d="M433 -150c-17.333 -2 -36.999 -3.00098 -58.999 -3.00098c-42 0 -73.667 7.83301 -95 23.5s-32 33.167 -32 52.5c0 14 7 26.5 21 37.5s35.667 18.167 65 21.5l-2 7c-54.667 0.666992 -99 6.5 -133 17.5s-60.333 27.833 -79 50.5s-31.334 51.5 -38.001 86.5
s-10 77.167 -10 126.5v372h71v-371c0 -40 2.16699 -74.167 6.5 -102.5s13.5 -51.5 27.5 -69.5s34.333 -31.167 61 -39.5s62.334 -12.5 107.001 -12.5s80.167 4.16699 106.5 12.5s46.333 21.5 60 39.5s22.5 41.167 26.5 69.5s6 62.5 6 102.5v371h71v-372
c0 -48 -3 -89.333 -9 -124s-17.833 -63.334 -35.5 -86.001s-42.334 -39.667 -74.001 -51s-73.167 -17.666 -124.5 -18.999l6 -21c-16 -0.666992 -28.667 -2.16699 -38 -4.5s-16.333 -5.33301 -21 -9s-7.66699 -7.66699 -9 -12s-2 -9.16602 -2 -14.499
c0 -11.333 5.66699 -22 17 -32c15.333 -9.33301 38.333 -14 69 -14h14c6 0 11.667 0.333008 17 1h4z" />
    <glyph glyph-name="Wcircumflex" unicode="&#x174;" horiz-adv-x="908" 
d="M600 0l-147 532l-138 -532h-85l-187 642h74l153 -582h6l142 582h69l153 -582h6l142 582h76l-179 -642h-85zM514 707l-59 84l-59 -84h-72l44 54l44 53h80l91 -107h-69z" />
    <glyph glyph-name="wcircumflex" unicode="&#x175;" horiz-adv-x="908" 
d="M600 0l-147 532l-138 -532h-85l-187 642h74l153 -582h6l142 582h69l153 -582h6l142 582h76l-179 -642h-85zM514 707l-59 84l-59 -84h-72l44 54l44 53h80l91 -107h-69z" />
    <glyph glyph-name="Ycircumflex" unicode="&#x176;" horiz-adv-x="618" 
d="M269 0l0.000976562 274l-127.5 184l-128.5 184h86l66 -97.5l66 -97.5c13.333 -19.333 27.166 -40.666 41.499 -63.999l38.5 -63l37.5 62.5c15 24.333 30.167 47.166 45.5 68.499l66 95.5l67 95.5h79l-265 -368v-274h-72zM369.001 707l-59 84l-59 -84h-72l44 54l44 53h80
l91 -107h-69z" />
    <glyph glyph-name="ycircumflex" unicode="&#x177;" horiz-adv-x="618" 
d="M269 0l0.000976562 274l-127.5 184l-128.5 184h86l66 -97.5l66 -97.5c13.333 -19.333 27.166 -40.666 41.499 -63.999l38.5 -63l37.5 62.5c15 24.333 30.167 47.166 45.5 68.499l66 95.5l67 95.5h79l-265 -368v-274h-72zM369.001 707l-59 84l-59 -84h-72l44 54l44 53h80
l91 -107h-69z" />
    <glyph glyph-name="Ydieresis" unicode="&#x178;" horiz-adv-x="618" 
d="M269 0l0.000976562 274l-127.5 184l-128.5 184h86l66 -97.5l66 -97.5c13.333 -19.333 27.166 -40.666 41.499 -63.999l38.5 -63l37.5 62.5c15 24.333 30.167 47.166 45.5 68.499l66 95.5l67 95.5h79l-265 -368v-274h-72zM185.001 741v73h70v-73h-70zM363.001 741v73h70
v-73h-70z" />
    <glyph glyph-name="Zacute" unicode="&#x179;" horiz-adv-x="585" 
d="M28 0v67l439 518h-419l10 57h485v-63l-444 -521h456l-10 -58h-517zM223 689l53 106.999h85c-17.333 -19.333 -32.5 -37.166 -45.5 -53.499l-42.5 -53.5h-50z" />
    <glyph glyph-name="zacute" unicode="&#x17a;" horiz-adv-x="585" 
d="M28 0v67l439 518h-419l10 57h485v-63l-444 -521h456l-10 -58h-517zM223 689l53 106.999h85c-17.333 -19.333 -32.5 -37.166 -45.5 -53.499l-42.5 -53.5h-50z" />
    <glyph glyph-name="Zdotaccent" unicode="&#x17b;" horiz-adv-x="585" 
d="M28 0v67l439 518h-419l10 57h485v-63l-444 -521h456l-10 -58h-517zM331 719h-78v73h78v-73z" />
    <glyph glyph-name="zdotaccent" unicode="&#x17c;" horiz-adv-x="585" 
d="M28 0v67l439 518h-419l10 57h485v-63l-444 -521h456l-10 -58h-517zM331 719h-78v73h78v-73z" />
    <glyph glyph-name="Zcaron" unicode="&#x17d;" horiz-adv-x="585" 
d="M28 0v67l439 518h-419l10 57h485v-63l-444 -521h456l-10 -58h-517zM340 693h-96l-92 102h77l63 -75l63 75h77z" />
    <glyph glyph-name="zcaron" unicode="&#x17e;" horiz-adv-x="585" 
d="M28 0v67l439 518h-419l10 57h485v-63l-444 -521h456l-10 -58h-517zM340 693h-96l-92 102h77l63 -75l63 75h77z" />
    <glyph glyph-name="uni0186" unicode="&#x186;" horiz-adv-x="650" 
d="M56 84c9.33301 -3.33301 21.332 -7.33008 35.999 -11.9971s30.667 -9 48 -13s36 -7.5 56 -10.5s40 -4.5 60 -4.5c36 0 69.333 2.5 100 7.5s57.167 16.667 79.5 35s39.833 46 52.5 83s19 87.5 19 151.5c0 63.333 -6.33301 113.5 -19 150.5s-30.167 64.833 -52.5 83.5
s-48.833 30.5 -79.5 35.5s-64 7.5 -100 7.5c-40.667 0 -77.667 -4.33301 -111 -13s-59.666 -16.334 -78.999 -23.001l-33 53c56.667 26.667 131.667 40 225 40c48.667 0 93 -4.16699 133 -12.5s74 -24.5 102 -48.5s49.667 -57.833 65 -101.5s23 -100.834 23 -171.501
s-7.66699 -127.834 -23 -171.501s-37 -77.5 -65 -101.5s-62 -40.167 -102 -48.5s-84.333 -12.5 -133 -12.5c-46.667 0 -90.5 4 -131.5 12s-75.5 18.667 -103.5 32z" />
    <glyph glyph-name="uni018E" unicode="&#x18e;" horiz-adv-x="566" 
d="M485 0h-470l-10 58h408v246h-323v57h323v224h-398l-10 57h480v-642z" />
    <glyph glyph-name="uni018F" unicode="&#x18f;" horiz-adv-x="704" 
d="M58 339l528.997 0.00488281c-1.33301 54.667 -6.66602 99 -15.999 133s-24 60.333 -44 79s-45.833 31.167 -77.5 37.5s-70.5 9.5 -116.5 9.5c-20 0 -40.5 -1.83301 -61.5 -5.5s-41 -8 -60 -13s-36.333 -10.167 -52 -15.5l-37.5 -13l-33 53c14 6.66699 31 13 51 19
s41.5 11.333 64.5 16s46.833 8.5 71.5 11.5s48.667 4.5 72 4.5c50 0 94.333 -4 133 -12s71.334 -23.833 98.001 -47.5s47 -56.834 61 -99.501s21 -98.334 21 -167.001c0 -72 -7.5 -130.333 -22.5 -175s-36 -79.334 -63 -104.001s-59 -41.334 -96 -50.001
s-77.833 -13 -122.5 -13c-48 0 -90.5 4.66699 -127.5 14s-68.167 26.166 -93.5 50.499s-44.666 57.5 -57.999 99.5s-20 96 -20 162v26zM133.997 281.005c2 -51.333 7.99805 -92.667 17.998 -124s24.333 -55.5 43 -72.5s41.5 -28.167 68.5 -33.5s58.167 -8 93.5 -8
c30.667 0 59.334 1.83301 86.001 5.5s50.167 13.167 70.5 28.5s36.833 39 49.5 71s20.334 76.333 23.001 133h-452z" />
    <glyph glyph-name="uni0190" unicode="&#x190;" horiz-adv-x="603" 
d="M564 28c-14 -6.66699 -30.832 -12.3301 -50.499 -16.9971s-40.834 -8.66699 -63.501 -12s-46.167 -5.83301 -70.5 -7.5s-48.166 -2.5 -71.499 -2.5c-47.333 0 -87 2.5 -119 7.5s-57.667 14 -77 27s-33.166 30.667 -41.499 53s-12.5 50.5 -12.5 84.5
c0 24.667 2 45.834 6 63.501s9.83301 32.5 17.5 44.5s17 22.167 28 30.5s23.167 15.833 36.5 22.5c-13.333 6.66699 -25.333 14.334 -36 23.001s-19.667 19 -27 31s-13 26.667 -17 44s-6 38.666 -6 63.999c0 34 4 62 12 84s21.5 39.167 40.5 51.5s44.5 21 76.5 26
s71.667 7.5 119 7.5c23.333 0 47.166 -0.833008 71.499 -2.5s47.833 -4.16699 70.5 -7.5s43.834 -7.33301 63.501 -12s36.5 -10.334 50.5 -17.001l-33 -53c-9.33301 3.33301 -22.5 7 -39.5 11s-35.833 7.83301 -56.5 11.5s-42.334 6.66699 -65.001 9s-44 3.5 -64 3.5
c-31.333 0 -58 -1.33301 -80 -4s-39.833 -8 -53.5 -16s-23.667 -19.667 -30 -35s-9.5 -35.333 -9.5 -60c0 -30 2.83301 -53.667 8.5 -71s15 -30.333 28 -39s29.667 -14.167 50 -16.5s45.166 -3.5 74.499 -3.5h161v-57h-161c-29.333 0 -54.333 -0.833008 -75 -2.5
s-37.5 -6.83398 -50.5 -15.501s-22.5 -21.834 -28.5 -39.501s-9 -42.834 -9 -75.501c0 -27.333 3.16699 -48.833 9.5 -64.5s16.5 -27.167 30.5 -34.5s32.167 -11.833 54.5 -13.5s49.166 -2.5 80.499 -2.5c20 0 41.333 1.16699 64 3.5s44.334 5.33301 65.001 9
s39.5 7.5 56.5 11.5s30.167 7.66699 39.5 11z" />
    <glyph glyph-name="florin" unicode="&#x192;" horiz-adv-x="475" 
d="M237 422l-95.999 0.00292969l8 44h97l12 68c3.33301 17.333 6.83301 32.5 10.5 45.5s7.16699 22.5 10.5 28.5c8.66699 17.333 21.167 30.666 37.5 39.999s38.5 14 66.5 14c10.667 0 24 -1.16699 40 -3.5s33 -5.83301 51 -10.5l-13 -50
c-14.667 3.33301 -27.167 5.5 -37.5 6.5s-19.5 1.5 -27.5 1.5c-10.667 0 -19.834 -1 -27.501 -3s-14.334 -6 -20.001 -12s-10.5 -14.333 -14.5 -25s-7.33301 -24.334 -10 -41.001l-13 -59h99c-1.33301 -9.33301 -2.83301 -17 -4.5 -23s-3.16699 -13 -4.5 -21h-98l-93 -508
c-7.33301 -42 -19.833 -71 -37.5 -87s-42.834 -24 -75.501 -24c-13.333 0 -28.166 0.666992 -44.499 2s-33.166 3.66602 -50.499 6.99902l14 50c13.333 -2.66699 25 -4.66699 35 -6s19.333 -2 28 -2c20.667 0 36.167 5 46.5 15s18.5 31 24.5 63z" />
    <glyph glyph-name="uni019F" unicode="&#x19f;" 
d="M379 -11c-44.667 0 -86.5 3.83301 -125.5 11.5s-73 23.334 -102 47.001s-52 57.334 -69 101.001s-25.5 101.5 -25.5 173.5s8.5 129.833 25.5 173.5s40 77.334 69 101.001s63 39.334 102 47.001s80.833 11.5 125.5 11.5s86.5 -3.83301 125.5 -11.5s73 -23.334 102 -47.001
s52 -57.334 69 -101.001s25.5 -101.5 25.5 -173.5s-8.5 -129.833 -25.5 -173.5s-40 -77.334 -69 -101.001s-63 -39.334 -102 -47.001s-80.833 -11.5 -125.5 -11.5zM131 301c0.666992 -42.667 4.50293 -78.5 11.5029 -107.5s16 -53 27 -72s24.167 -33.667 39.5 -44
s32 -17.833 50 -22.5s37.167 -7.5 57.5 -8.5s41.166 -1.5 62.499 -1.5c20.667 0 41 0.5 61 1.5s39.167 3.83301 57.5 8.5s35.166 12.167 50.499 22.5s28.666 25 39.999 44s20.333 43 27 72s10.667 64.833 12 107.5h-496zM627.003 346
c-2 62.667 -10.168 111.167 -24.501 145.5s-33 59.5 -56 75.5s-49 25.333 -78 28s-58.833 4 -89.5 4c-32 0 -62.5 -1.33301 -91.5 -4s-54.833 -12 -77.5 -28s-41.167 -41.167 -55.5 -75.5s-22.166 -82.833 -23.499 -145.5h496z" />
    <glyph glyph-name="Ohorn" unicode="&#x1a0;" 
d="M669 518c11.333 0 22 5.66602 32 16.999c9.33301 15.333 14 38.333 14 69v14c0 6 -0.333008 11.667 -1 17v4l34 5c2 -17.333 3 -37 3 -59c0 -38 -6.5 -67.5 -19.5 -88.5s-28.167 -33.5 -45.5 -37.5c10 -38 15 -83.667 15 -137c0 -72 -8.5 -129.833 -25.5 -173.5
s-40 -77.334 -69 -101.001s-63 -39.334 -102 -47.001s-80.833 -11.5 -125.5 -11.5s-86.5 3.83301 -125.5 11.5s-73 23.334 -102 47.001s-52 57.334 -69 101.001s-25.5 101.5 -25.5 173.5s8.5 129.833 25.5 173.5s40 77.334 69 101.001s63 39.334 102 47.001
s80.833 11.5 125.5 11.5c31.333 0 61.333 -1.83301 90 -5.5s55.5 -10.5 80.5 -20.5s47.333 -23.833 67 -41.5s36.167 -40.834 49.5 -69.501h3zM379 44.999c21.333 0 42.335 0.5 63.002 1.5s40.167 4 58.5 9s35.333 13.167 51 24.5s29 27.166 40 47.499s19.667 46.333 26 78
s9.5 70.5 9.5 116.5c0 68.667 -7 121.834 -21 159.501s-32.5 65.167 -55.5 82.5s-49.333 27.5 -79 30.5s-60.5 4.5 -92.5 4.5c-32.667 0 -64 -1.5 -94 -4.5s-56.333 -13.167 -79 -30.5s-40.834 -44.833 -54.501 -82.5s-20.5 -90.834 -20.5 -159.501
c0 -46 3.16699 -84.833 9.5 -116.5s15 -57.667 26 -78s24.167 -36.166 39.5 -47.499s32.166 -19.5 50.499 -24.5s37.833 -8 58.5 -9s42 -1.5 64 -1.5z" />
    <glyph glyph-name="ohorn" unicode="&#x1a1;" 
d="M669 518c11.333 0 22 5.66602 32 16.999c9.33301 15.333 14 38.333 14 69v14c0 6 -0.333008 11.667 -1 17v4l34 5c2 -17.333 3 -37 3 -59c0 -38 -6.5 -67.5 -19.5 -88.5s-28.167 -33.5 -45.5 -37.5c10 -38 15 -83.667 15 -137c0 -72 -8.5 -129.833 -25.5 -173.5
s-40 -77.334 -69 -101.001s-63 -39.334 -102 -47.001s-80.833 -11.5 -125.5 -11.5s-86.5 3.83301 -125.5 11.5s-73 23.334 -102 47.001s-52 57.334 -69 101.001s-25.5 101.5 -25.5 173.5s8.5 129.833 25.5 173.5s40 77.334 69 101.001s63 39.334 102 47.001
s80.833 11.5 125.5 11.5c31.333 0 61.333 -1.83301 90 -5.5s55.5 -10.5 80.5 -20.5s47.333 -23.833 67 -41.5s36.167 -40.834 49.5 -69.501h3zM379 44.999c21.333 0 42.335 0.5 63.002 1.5s40.167 4 58.5 9s35.333 13.167 51 24.5s29 27.166 40 47.499s19.667 46.333 26 78
s9.5 70.5 9.5 116.5c0 68.667 -7 121.834 -21 159.501s-32.5 65.167 -55.5 82.5s-49.333 27.5 -79 30.5s-60.5 4.5 -92.5 4.5c-32.667 0 -64 -1.5 -94 -4.5s-56.333 -13.167 -79 -30.5s-40.834 -44.833 -54.501 -82.5s-20.5 -90.834 -20.5 -159.501
c0 -46 3.16699 -84.833 9.5 -116.5s15 -57.667 26 -78s24.167 -36.166 39.5 -47.499s32.166 -19.5 50.499 -24.5s37.833 -8 58.5 -9s42 -1.5 64 -1.5z" />
    <glyph glyph-name="uni01A7" unicode="&#x1a7;" horiz-adv-x="624" 
d="M71 615c14 6.66699 30.833 12.3359 50.5 17.0029s40.834 8.66699 63.501 12s46.167 5.83301 70.5 7.5s48.166 2.5 71.499 2.5c32 0 62.167 -3.66699 90.5 -11s53.333 -18.166 75 -32.499s38.667 -32.5 51 -54.5s18.5 -47.667 18.5 -77
c0 -36.667 -5.5 -65.834 -16.5 -87.501s-28.667 -39 -53 -52s-56.166 -23.667 -95.499 -32s-87 -17.833 -143 -28.5c-26.667 -5.33301 -49 -10 -67 -14s-32.333 -9.5 -43 -16.5s-18.334 -16.333 -23.001 -28s-7 -27.5 -7 -47.5c0 -31.333 4.16699 -55.5 12.5 -72.5
s20.333 -29.5 36 -37.5s34.667 -12.667 57 -14s47.5 -2 75.5 -2c29.333 0 57.333 1.66699 84 5s51 7.33301 73 12s41.167 9.66699 57.5 15s29.5 10 39.5 14c6 -9.33301 11.333 -18.333 16 -27l15 -28c-14.667 -7.33301 -33 -13.833 -55 -19.5s-45.5 -10.834 -70.5 -15.501
s-50.667 -8.16699 -77 -10.5s-50.833 -3.5 -73.5 -3.5c-38 0 -72.833 2.5 -104.5 7.5s-58.834 14.5 -81.501 28.5s-40.334 33.167 -53.001 57.5s-19 55.833 -19 94.5c0.666992 38.667 10.834 69 30.501 91s44.834 39.167 75.501 51.5s64.834 21.666 102.501 27.999
s75.167 13.5 112.5 21.5c28.667 6 51.5 11.167 68.5 15.5s29.667 10 38 17s13.666 16.167 15.999 27.5s3.5 27.666 3.5 48.999c0 45.333 -15.333 76.5 -46 93.5s-75.667 25.5 -135 25.5c-20 0 -40.333 -1.16699 -61 -3.5s-40.334 -5.33301 -59.001 -9
s-35.667 -7.5 -51 -11.5s-27.666 -7.66699 -36.999 -11z" />
    <glyph glyph-name="uni01A8" unicode="&#x1a8;" horiz-adv-x="624" 
d="M71 615c14 6.66699 30.833 12.3359 50.5 17.0029s40.834 8.66699 63.501 12s46.167 5.83301 70.5 7.5s48.166 2.5 71.499 2.5c32 0 62.167 -3.66699 90.5 -11s53.333 -18.166 75 -32.499s38.667 -32.5 51 -54.5s18.5 -47.667 18.5 -77
c0 -36.667 -5.5 -65.834 -16.5 -87.501s-28.667 -39 -53 -52s-56.166 -23.667 -95.499 -32s-87 -17.833 -143 -28.5c-26.667 -5.33301 -49 -10 -67 -14s-32.333 -9.5 -43 -16.5s-18.334 -16.333 -23.001 -28s-7 -27.5 -7 -47.5c0 -31.333 4.16699 -55.5 12.5 -72.5
s20.333 -29.5 36 -37.5s34.667 -12.667 57 -14s47.5 -2 75.5 -2c29.333 0 57.333 1.66699 84 5s51 7.33301 73 12s41.167 9.66699 57.5 15s29.5 10 39.5 14c6 -9.33301 11.333 -18.333 16 -27l15 -28c-14.667 -7.33301 -33 -13.833 -55 -19.5s-45.5 -10.834 -70.5 -15.501
s-50.667 -8.16699 -77 -10.5s-50.833 -3.5 -73.5 -3.5c-38 0 -72.833 2.5 -104.5 7.5s-58.834 14.5 -81.501 28.5s-40.334 33.167 -53.001 57.5s-19 55.833 -19 94.5c0.666992 38.667 10.834 69 30.501 91s44.834 39.167 75.501 51.5s64.834 21.666 102.501 27.999
s75.167 13.5 112.5 21.5c28.667 6 51.5 11.167 68.5 15.5s29.667 10 38 17s13.666 16.167 15.999 27.5s3.5 27.666 3.5 48.999c0 45.333 -15.333 76.5 -46 93.5s-75.667 25.5 -135 25.5c-20 0 -40.333 -1.16699 -61 -3.5s-40.334 -5.33301 -59.001 -9
s-35.667 -7.5 -51 -11.5s-27.666 -7.66699 -36.999 -11z" />
    <glyph glyph-name="Uhorn" unicode="&#x1af;" horiz-adv-x="686" 
d="M543 642l70.998 -0.000976562v-124c10.667 0.666992 20.667 6.33398 30 17.001c9.33301 15.333 14 38.333 14 69v14c0 6 -0.333008 11.667 -1 17v4l34 5c2 -17.333 3 -37 3 -59c0 -42 -7.83301 -73.667 -23.5 -95s-33.167 -32 -52.5 -32h-4v-188
c0 -50 -3.33301 -92.833 -10 -128.5s-19.667 -64.667 -39 -87s-46.666 -38.833 -81.999 -49.5s-81.666 -16 -138.999 -16s-103.833 5.33301 -139.5 16s-63.334 27.167 -83.001 49.5s-33 51.333 -40 87s-10.5 78.5 -10.5 128.5v372h71v-371c0 -40 2.16699 -74.167 6.5 -102.5
s13.5 -51.5 27.5 -69.5s34.333 -31.167 61 -39.5s62.334 -12.5 107.001 -12.5s80.167 4.16699 106.5 12.5s46.333 21.5 60 39.5s22.5 41.167 26.5 69.5s6 62.5 6 102.5v371z" />
    <glyph glyph-name="uhorn" unicode="&#x1b0;" horiz-adv-x="668" 
d="M543 642l70.998 -0.000976562v-124c10.667 0.666992 20.667 6.33398 30 17.001c9.33301 15.333 14 38.333 14 69v14c0 6 -0.333008 11.667 -1 17v4l34 5c2 -17.333 3 -37 3 -59c0 -42 -7.83301 -73.667 -23.5 -95s-33.167 -32 -52.5 -32h-4v-188
c0 -50 -3.33301 -92.833 -10 -128.5s-19.667 -64.667 -39 -87s-46.666 -38.833 -81.999 -49.5s-81.666 -16 -138.999 -16s-103.833 5.33301 -139.5 16s-63.334 27.167 -83.001 49.5s-33 51.333 -40 87s-10.5 78.5 -10.5 128.5v372h71v-371c0 -40 2.16699 -74.167 6.5 -102.5
s13.5 -51.5 27.5 -69.5s34.333 -31.167 61 -39.5s62.334 -12.5 107.001 -12.5s80.167 4.16699 106.5 12.5s46.333 21.5 60 39.5s22.5 41.167 26.5 69.5s6 62.5 6 102.5v371z" />
    <glyph glyph-name="uni01C7" unicode="&#x1c7;" horiz-adv-x="854" 
d="M79 0v642h71v-584h382l-10 -58h-443zM538 48c31.333 0 57.999 0.832031 79.999 2.49902s39.833 7.33398 53.5 17.001s23.667 24.5 30 44.5s9.5 48.333 9.5 85v445h71v-441c0 -44 -4.16699 -79.5 -12.5 -106.5s-22.166 -47.833 -41.499 -62.5s-45 -24.5 -77 -29.5
s-71.667 -7.5 -119 -7.5z" />
    <glyph glyph-name="uni01C8" unicode="&#x1c8;" horiz-adv-x="854" 
d="M79 0v642h71v-584h382l-10 -58h-443zM538 48c31.333 0 57.999 0.832031 79.999 2.49902s39.833 7.33398 53.5 17.001s23.667 24.5 30 44.5s9.5 48.333 9.5 85v445h71v-441c0 -44 -4.16699 -79.5 -12.5 -106.5s-22.166 -47.833 -41.499 -62.5s-45 -24.5 -77 -29.5
s-71.667 -7.5 -119 -7.5z" />
    <glyph glyph-name="uni01C9" unicode="&#x1c9;" horiz-adv-x="854" 
d="M79 0v642h71v-584h382l-10 -58h-443zM538 48c31.333 0 57.999 0.832031 79.999 2.49902s39.833 7.33398 53.5 17.001s23.667 24.5 30 44.5s9.5 48.333 9.5 85v445h71v-441c0 -44 -4.16699 -79.5 -12.5 -106.5s-22.166 -47.833 -41.499 -62.5s-45 -24.5 -77 -29.5
s-71.667 -7.5 -119 -7.5z" />
    <glyph glyph-name="uni01CA" unicode="&#x1ca;" horiz-adv-x="1007" 
d="M526 0l-379 544v-544h-68v642h80l379 -542v542h67v-642h-79zM691 48c31.333 0 57.999 0.832031 79.999 2.49902s39.833 7.33398 53.5 17.001s23.667 24.5 30 44.5s9.5 48.333 9.5 85v445h71v-441c0 -44 -4.16699 -79.5 -12.5 -106.5s-22.166 -47.833 -41.499 -62.5
s-45 -24.5 -77 -29.5s-71.667 -7.5 -119 -7.5z" />
    <glyph glyph-name="uni01CB" unicode="&#x1cb;" horiz-adv-x="1007" 
d="M526 0l-379 544v-544h-68v642h80l379 -542v542h67v-642h-79zM691 48c31.333 0 57.999 0.832031 79.999 2.49902s39.833 7.33398 53.5 17.001s23.667 24.5 30 44.5s9.5 48.333 9.5 85v445h71v-441c0 -44 -4.16699 -79.5 -12.5 -106.5s-22.166 -47.833 -41.499 -62.5
s-45 -24.5 -77 -29.5s-71.667 -7.5 -119 -7.5z" />
    <glyph glyph-name="uni01CC" unicode="&#x1cc;" horiz-adv-x="1007" 
d="M526 0l-379 544v-544h-68v642h80l379 -542v542h67v-642h-79zM691 48c31.333 0 57.999 0.832031 79.999 2.49902s39.833 7.33398 53.5 17.001s23.667 24.5 30 44.5s9.5 48.333 9.5 85v445h71v-441c0 -44 -4.16699 -79.5 -12.5 -106.5s-22.166 -47.833 -41.499 -62.5
s-45 -24.5 -77 -29.5s-71.667 -7.5 -119 -7.5z" />
    <glyph glyph-name="uni01CD" unicode="&#x1cd;" horiz-adv-x="657" 
d="M554 0l-81 201h-291l-80 -201h-74l257 642h86l257 -642h-74zM369 461l-38 121h-6l-38 -121l-84 -209h250zM287 707l-44 53l-44 54h72l59 -84l59 84h69l-91 -107h-80z" />
    <glyph glyph-name="uni01CE" unicode="&#x1ce;" horiz-adv-x="703" 
d="M648 -1c-33.333 4.66699 -58.002 14.3301 -74.002 28.9971s-26.667 38.334 -32 71.001c-23.333 -35.333 -54.5 -62.333 -93.5 -81s-86.5 -28 -142.5 -28c-38 0 -72.833 3 -104.5 9s-58.834 16.5 -81.501 31.5s-40.334 35.333 -53.001 61s-19 57.834 -19 96.501
s6.33301 70.834 19 96.501s30.334 46 53.001 61s49.834 25.5 81.501 31.5s66.5 9 104.5 9h218c-2 49.333 -7 88.166 -15 116.499s-20.167 49.5 -36.5 63.5s-37.333 22.833 -63 26.5s-57.5 5.5 -95.5 5.5c-20 0 -39.667 -1.33301 -59 -4s-37.5 -6 -54.5 -10
s-32.5 -8.16699 -46.5 -12.5s-25.667 -8.16602 -35 -11.499l-33 53c28 13.333 61.667 23.666 101 30.999s82.333 11 129 11c54 0 99.167 -4 135.5 -12s65.333 -23.667 87 -47s37.167 -56.666 46.5 -99.999s14 -100.333 14 -171v-16v-112c0 -25.333 1.16699 -46.5 3.5 -63.5
s5.83301 -31 10.5 -42s10.834 -19.5 18.501 -25.5s16.834 -10.333 27.501 -13zM524.998 327.996l-219 -0.000976562c-28 0 -53.667 -1.5 -77 -4.5s-43.333 -9.33301 -60 -19s-29.667 -23.667 -39 -42s-14 -43.166 -14 -74.499s4.66699 -56.166 14 -74.499
s22.5 -32.333 39.5 -42s37.167 -16 60.5 -19s49 -4.5 77 -4.5c47.333 0 85.333 6 114 18s50.667 29.833 66 53.5s25.5 52.667 30.5 87s7.5 74.166 7.5 119.499v2zM309.998 706.995l-44 53l-44 54h72l59 -84l59 84h69l-91 -107h-80z" />
    <glyph glyph-name="uni01CF" unicode="&#x1cf;" horiz-adv-x="241" 
d="M79 0v642h72v-642h-72zM80 707l-44 53l-44 54h72l59 -84l59 84h69l-91 -107h-80z" />
    <glyph glyph-name="uni01D0" unicode="&#x1d0;" horiz-adv-x="241" 
d="M79 0v642h72v-642h-72zM80 707l-44 53l-44 54h72l59 -84l59 84h69l-91 -107h-80z" />
    <glyph glyph-name="uni01D1" unicode="&#x1d1;" 
d="M379 599c-32.667 0 -63.998 -1.5 -93.998 -4.5s-56.333 -13.167 -79 -30.5s-40.834 -44.833 -54.501 -82.5s-20.5 -90.834 -20.5 -159.501c0 -46 3.16699 -84.833 9.5 -116.5s15 -57.667 26 -78s24.167 -36.166 39.5 -47.499s32.166 -19.5 50.499 -24.5
s37.833 -8 58.5 -9s42 -1.5 64 -1.5c21.333 0 42.333 0.5 63 1.5s40.167 4 58.5 9s35.333 13.167 51 24.5s29 27.166 40 47.499s19.667 46.333 26 78s9.5 70.5 9.5 116.5c0 68.667 -7 121.834 -21 159.501s-32.5 65.167 -55.5 82.5s-49.333 27.5 -79 30.5
s-60.5 4.5 -92.5 4.5zM57.002 322c0 72 8.5 129.833 25.5 173.5s40 77.334 69 101.001s63 39.334 102 47.001s80.833 11.5 125.5 11.5s86.5 -3.83301 125.5 -11.5s73 -23.334 102 -47.001s52 -57.334 69 -101.001s25.5 -101.5 25.5 -173.5s-8.5 -129.833 -25.5 -173.5
s-40 -77.334 -69 -101.001s-63 -39.334 -102 -47.001s-80.833 -11.5 -125.5 -11.5s-86.5 3.83301 -125.5 11.5s-73 23.334 -102 47.001s-52 57.334 -69 101.001s-25.5 101.5 -25.5 173.5zM337.002 707l-44 53l-44 54h72l59 -84l59 84h69l-91 -107h-80z" />
    <glyph glyph-name="uni01D2" unicode="&#x1d2;" 
d="M379 599c-32.667 0 -63.998 -1.5 -93.998 -4.5s-56.333 -13.167 -79 -30.5s-40.834 -44.833 -54.501 -82.5s-20.5 -90.834 -20.5 -159.501c0 -46 3.16699 -84.833 9.5 -116.5s15 -57.667 26 -78s24.167 -36.166 39.5 -47.499s32.166 -19.5 50.499 -24.5
s37.833 -8 58.5 -9s42 -1.5 64 -1.5c21.333 0 42.333 0.5 63 1.5s40.167 4 58.5 9s35.333 13.167 51 24.5s29 27.166 40 47.499s19.667 46.333 26 78s9.5 70.5 9.5 116.5c0 68.667 -7 121.834 -21 159.501s-32.5 65.167 -55.5 82.5s-49.333 27.5 -79 30.5
s-60.5 4.5 -92.5 4.5zM57.002 322c0 72 8.5 129.833 25.5 173.5s40 77.334 69 101.001s63 39.334 102 47.001s80.833 11.5 125.5 11.5s86.5 -3.83301 125.5 -11.5s73 -23.334 102 -47.001s52 -57.334 69 -101.001s25.5 -101.5 25.5 -173.5s-8.5 -129.833 -25.5 -173.5
s-40 -77.334 -69 -101.001s-63 -39.334 -102 -47.001s-80.833 -11.5 -125.5 -11.5s-86.5 3.83301 -125.5 11.5s-73 23.334 -102 47.001s-52 57.334 -69 101.001s-25.5 101.5 -25.5 173.5zM337.002 707l-44 53l-44 54h72l59 -84l59 84h69l-91 -107h-80z" />
    <glyph glyph-name="uni01D3" unicode="&#x1d3;" horiz-adv-x="686" 
d="M543 642h70.998v-372c0 -50 -3.33301 -92.833 -10 -128.5s-19.667 -64.667 -39 -87s-46.666 -38.833 -81.999 -49.5s-81.666 -16 -138.999 -16s-103.833 5.33301 -139.5 16s-63.334 27.167 -83.001 49.5s-33 51.333 -40 87s-10.5 78.5 -10.5 128.5v372h71v-371
c0 -40 2.16699 -74.167 6.5 -102.5s13.5 -51.5 27.5 -69.5s34.333 -31.167 61 -39.5s62.334 -12.5 107.001 -12.5s80.167 4.16699 106.5 12.5s46.333 21.5 60 39.5s22.5 41.167 26.5 69.5s6 62.5 6 102.5v371zM300.998 707l-44 53l-44 54h72l59 -84l59 84h69l-91 -107h-80z
" />
    <glyph glyph-name="uni01D4" unicode="&#x1d4;" horiz-adv-x="668" 
d="M543 642h70.998v-372c0 -50 -3.33301 -92.833 -10 -128.5s-19.667 -64.667 -39 -87s-46.666 -38.833 -81.999 -49.5s-81.666 -16 -138.999 -16s-103.833 5.33301 -139.5 16s-63.334 27.167 -83.001 49.5s-33 51.333 -40 87s-10.5 78.5 -10.5 128.5v372h71v-371
c0 -40 2.16699 -74.167 6.5 -102.5s13.5 -51.5 27.5 -69.5s34.333 -31.167 61 -39.5s62.334 -12.5 107.001 -12.5s80.167 4.16699 106.5 12.5s46.333 21.5 60 39.5s22.5 41.167 26.5 69.5s6 62.5 6 102.5v371zM291.998 707l-44 53l-44 54h72l59 -84l59 84h69l-91 -107h-80z
" />
    <glyph glyph-name="uni01D5" unicode="&#x1d5;" horiz-adv-x="686" 
d="M543 642h70.998v-372c0 -50 -3.33301 -92.833 -10 -128.5s-19.667 -64.667 -39 -87s-46.666 -38.833 -81.999 -49.5s-81.666 -16 -138.999 -16s-103.833 5.33301 -139.5 16s-63.334 27.167 -83.001 49.5s-33 51.333 -40 87s-10.5 78.5 -10.5 128.5v372h71v-371
c0 -40 2.16699 -74.167 6.5 -102.5s13.5 -51.5 27.5 -69.5s34.333 -31.167 61 -39.5s62.334 -12.5 107.001 -12.5s80.167 4.16699 106.5 12.5s46.333 21.5 60 39.5s22.5 41.167 26.5 69.5s6 62.5 6 102.5v371zM218.998 723v73h70v-73h-70zM396.998 723v73h70v-73h-70z
M204.998 845v38h275v-38h-275z" />
    <glyph glyph-name="uni01D6" unicode="&#x1d6;" horiz-adv-x="668" 
d="M543 642h70.998v-372c0 -50 -3.33301 -92.833 -10 -128.5s-19.667 -64.667 -39 -87s-46.666 -38.833 -81.999 -49.5s-81.666 -16 -138.999 -16s-103.833 5.33301 -139.5 16s-63.334 27.167 -83.001 49.5s-33 51.333 -40 87s-10.5 78.5 -10.5 128.5v372h71v-371
c0 -40 2.16699 -74.167 6.5 -102.5s13.5 -51.5 27.5 -69.5s34.333 -31.167 61 -39.5s62.334 -12.5 107.001 -12.5s80.167 4.16699 106.5 12.5s46.333 21.5 60 39.5s22.5 41.167 26.5 69.5s6 62.5 6 102.5v371zM209.998 723v73h70v-73h-70zM387.998 723v73h70v-73h-70z
M195.998 845v38h275v-38h-275z" />
    </font>
</defs>
</svg>
